%TF.GenerationSoftware,KiCad,Pcbnew,(6.0.1)*%
%TF.CreationDate,2022-03-14T09:24:09-06:00*%
%TF.ProjectId,PicoFlasher_Breakout_Board_V1,5069636f-466c-4617-9368-65725f427265,rev?*%
%TF.SameCoordinates,Original*%
%TF.FileFunction,Soldermask,Bot*%
%TF.FilePolarity,Negative*%
%FSLAX46Y46*%
G04 Gerber Fmt 4.6, Leading zero omitted, Abs format (unit mm)*
G04 Created by KiCad (PCBNEW (6.0.1)) date 2022-03-14 09:24:09*
%MOMM*%
%LPD*%
G01*
G04 APERTURE LIST*
%ADD10C,2.200000*%
%ADD11R,1.200000X1.200000*%
%ADD12C,1.200000*%
%ADD13R,1.208000X1.208000*%
%ADD14C,1.208000*%
%ADD15O,1.600000X2.000000*%
%ADD16R,1.238000X1.238000*%
%ADD17C,1.238000*%
%ADD18C,1.600000*%
G04 APERTURE END LIST*
D10*
%TO.C,REF\u002A\u002A*%
X92533500Y-92000000D03*
%TD*%
%TO.C,REF\u002A\u002A*%
X115783500Y-92025000D03*
%TD*%
%TO.C,REF\u002A\u002A*%
X147525000Y-96900000D03*
%TD*%
%TO.C,REF\u002A\u002A*%
X92533500Y-68175000D03*
%TD*%
D11*
%TO.C,J2*%
X133350000Y-98150000D03*
D12*
X134850000Y-98150000D03*
X136350000Y-98150000D03*
X137850000Y-98150000D03*
X139350000Y-98150000D03*
X140850000Y-98150000D03*
X142350000Y-98150000D03*
%TD*%
D10*
%TO.C,REF\u002A\u002A*%
X167725000Y-78850000D03*
%TD*%
%TO.C,REF\u002A\u002A*%
X170400000Y-96925000D03*
%TD*%
D13*
%TO.C,J1*%
X152800000Y-98143250D03*
D14*
X154300000Y-98143250D03*
X155800000Y-98143250D03*
X157300000Y-98143250D03*
X158800000Y-98143250D03*
X160300000Y-98143250D03*
X161800000Y-98143250D03*
X163300000Y-98143250D03*
X164800000Y-98143250D03*
%TD*%
D15*
%TO.C,U2*%
X100630000Y-68150000D03*
X103170000Y-68150000D03*
X105710000Y-68150000D03*
X108250000Y-68150000D03*
%TD*%
D10*
%TO.C,REF\u002A\u002A*%
X115783500Y-68200000D03*
%TD*%
D16*
%TO.C,J3*%
X106000000Y-98091500D03*
D17*
X107500000Y-98091500D03*
X109000000Y-98091500D03*
X110500000Y-98091500D03*
X112000000Y-98091500D03*
%TD*%
D18*
%TO.C,U1*%
X172332000Y-71540000D03*
X169792000Y-71540000D03*
X167252000Y-71540000D03*
X164712000Y-71540000D03*
X162172000Y-71540000D03*
X159632000Y-71540000D03*
X157092000Y-71540000D03*
X154552000Y-71540000D03*
X152012000Y-71540000D03*
X149472000Y-71540000D03*
X146932000Y-71540000D03*
X144392000Y-71540000D03*
X141852000Y-71540000D03*
X139312000Y-71540000D03*
X136772000Y-71540000D03*
X134232000Y-71540000D03*
X131692000Y-71540000D03*
X129152000Y-71540000D03*
X126612000Y-71540000D03*
X124072000Y-71540000D03*
X124072000Y-90920000D03*
X126612000Y-90920000D03*
X129152000Y-90920000D03*
X131692000Y-90920000D03*
X134232000Y-90920000D03*
X136772000Y-90920000D03*
X139312000Y-90920000D03*
X141852000Y-90920000D03*
X144392000Y-90920000D03*
X146932000Y-90920000D03*
X149472000Y-90920000D03*
X152012000Y-90920000D03*
X154552000Y-90920000D03*
X157092000Y-90920000D03*
X159632000Y-90920000D03*
X162172000Y-90920000D03*
X164712000Y-90920000D03*
X167252000Y-90920000D03*
X169792000Y-90920000D03*
X172332000Y-90920000D03*
%TD*%
M02*
