%TF.GenerationSoftware,KiCad,Pcbnew,(6.0.1)*%
%TF.CreationDate,2022-03-14T09:24:09-06:00*%
%TF.ProjectId,PicoFlasher_Breakout_Board_V1,5069636f-466c-4617-9368-65725f427265,rev?*%
%TF.SameCoordinates,Original*%
%TF.FileFunction,Copper,L2,Bot*%
%TF.FilePolarity,Positive*%
%FSLAX46Y46*%
G04 Gerber Fmt 4.6, Leading zero omitted, Abs format (unit mm)*
G04 Created by KiCad (PCBNEW (6.0.1)) date 2022-03-14 09:24:09*
%MOMM*%
%LPD*%
G01*
G04 APERTURE LIST*
%TA.AperFunction,ComponentPad*%
%ADD10R,1.200000X1.200000*%
%TD*%
%TA.AperFunction,ComponentPad*%
%ADD11C,1.200000*%
%TD*%
%TA.AperFunction,ComponentPad*%
%ADD12R,1.208000X1.208000*%
%TD*%
%TA.AperFunction,ComponentPad*%
%ADD13C,1.208000*%
%TD*%
%TA.AperFunction,ComponentPad*%
%ADD14O,1.600000X2.000000*%
%TD*%
%TA.AperFunction,ComponentPad*%
%ADD15R,1.238000X1.238000*%
%TD*%
%TA.AperFunction,ComponentPad*%
%ADD16C,1.238000*%
%TD*%
%TA.AperFunction,ComponentPad*%
%ADD17C,1.600000*%
%TD*%
%TA.AperFunction,ViaPad*%
%ADD18C,0.800000*%
%TD*%
%TA.AperFunction,Conductor*%
%ADD19C,0.500000*%
%TD*%
%TA.AperFunction,Conductor*%
%ADD20C,0.250000*%
%TD*%
%TA.AperFunction,Conductor*%
%ADD21C,1.000000*%
%TD*%
G04 APERTURE END LIST*
D10*
%TO.P,J2,1,1*%
%TO.N,E-Green*%
X133350000Y-98150000D03*
D11*
%TO.P,J2,2,2*%
%TO.N,S-Brown*%
X134850000Y-98150000D03*
%TO.P,J2,3,3*%
%TO.N,S-Red*%
X136350000Y-98150000D03*
%TO.P,J2,4,4*%
%TO.N,S-Orange*%
X137850000Y-98150000D03*
%TO.P,J2,5,5*%
%TO.N,GND*%
X139350000Y-98150000D03*
%TO.P,J2,6,6*%
%TO.N,S-Black*%
X140850000Y-98150000D03*
%TO.P,J2,7,7*%
%TO.N,S-Blue*%
X142350000Y-98150000D03*
%TD*%
D12*
%TO.P,J1,1,1*%
%TO.N,E-Blue*%
X152800000Y-98143250D03*
D13*
%TO.P,J1,2,2*%
%TO.N,E-Green*%
X154300000Y-98143250D03*
%TO.P,J1,3,3*%
%TO.N,E-Yellow*%
X155800000Y-98143250D03*
%TO.P,J1,4,4*%
%TO.N,E-Orange*%
X157300000Y-98143250D03*
%TO.P,J1,5,5*%
%TO.N,E-Red*%
X158800000Y-98143250D03*
%TO.P,J1,6,6*%
%TO.N,unconnected-(J1-Pad6)*%
X160300000Y-98143250D03*
%TO.P,J1,7,7*%
%TO.N,GND*%
X161800000Y-98143250D03*
%TO.P,J1,8,8*%
%TO.N,unconnected-(J1-Pad8)*%
X163300000Y-98143250D03*
%TO.P,J1,9,9*%
%TO.N,unconnected-(J1-Pad9)*%
X164800000Y-98143250D03*
%TD*%
D14*
%TO.P,U2,1,GND*%
%TO.N,GND*%
X100630000Y-68150000D03*
%TO.P,U2,2,VCC*%
%TO.N,3.3 Out*%
X103170000Y-68150000D03*
%TO.P,U2,3,SCL*%
%TO.N,OLED Clock*%
X105710000Y-68150000D03*
%TO.P,U2,4,SDA*%
%TO.N,OLED Data*%
X108250000Y-68150000D03*
%TD*%
D15*
%TO.P,J3,1,Pin_1*%
%TO.N,A_Red*%
X106000000Y-98091500D03*
D16*
%TO.P,J3,2,Pin_2*%
%TO.N,A_Black*%
X107500000Y-98091500D03*
%TO.P,J3,3,Pin_3*%
%TO.N,A_Yellow*%
X109000000Y-98091500D03*
%TO.P,J3,4,Pin_4*%
%TO.N,A_Green*%
X110500000Y-98091500D03*
%TO.P,J3,5,Pin_5*%
%TO.N,A_Blue*%
X112000000Y-98091500D03*
%TD*%
D17*
%TO.P,U1,1,GP0*%
%TO.N,OLED Data*%
X172332000Y-71540000D03*
%TO.P,U1,2,GP1*%
%TO.N,OLED Clock*%
X169792000Y-71540000D03*
%TO.P,U1,3,GND_1*%
%TO.N,GND*%
X167252000Y-71540000D03*
%TO.P,U1,4,GP2*%
%TO.N,Debug*%
X164712000Y-71540000D03*
%TO.P,U1,5,GP3*%
%TO.N,SPI*%
X162172000Y-71540000D03*
%TO.P,U1,6,GP4*%
%TO.N,eMMC*%
X159632000Y-71540000D03*
%TO.P,U1,7,GP5*%
%TO.N,unconnected-(U1-Pad7)*%
X157092000Y-71540000D03*
%TO.P,U1,8,GND_2*%
%TO.N,GND*%
X154552000Y-71540000D03*
%TO.P,U1,9,GP6*%
%TO.N,E-Red*%
X152012000Y-71540000D03*
%TO.P,U1,10,GP7*%
%TO.N,E-Orange*%
X149472000Y-71540000D03*
%TO.P,U1,11,GP8*%
%TO.N,E-Blue*%
X146932000Y-71540000D03*
%TO.P,U1,12,GP9*%
%TO.N,E-Yellow*%
X144392000Y-71540000D03*
%TO.P,U1,13,GND_3*%
%TO.N,GND*%
X141852000Y-71540000D03*
%TO.P,U1,14,GP10*%
%TO.N,unconnected-(U1-Pad14)*%
X139312000Y-71540000D03*
%TO.P,U1,15,GP11*%
%TO.N,A_Red*%
X136772000Y-71540000D03*
%TO.P,U1,16,GP12*%
%TO.N,A_Black*%
X134232000Y-71540000D03*
%TO.P,U1,17,GP13*%
%TO.N,A_Yellow*%
X131692000Y-71540000D03*
%TO.P,U1,18,GND_4*%
%TO.N,GND*%
X129152000Y-71540000D03*
%TO.P,U1,19,GP14*%
%TO.N,A_Green*%
X126612000Y-71540000D03*
%TO.P,U1,20,GP15*%
%TO.N,A_Blue*%
X124072000Y-71540000D03*
%TO.P,U1,21,GP16*%
%TO.N,S-Orange*%
X124072000Y-90920000D03*
%TO.P,U1,22,GP17*%
%TO.N,S-Brown*%
X126612000Y-90920000D03*
%TO.P,U1,23,GND_5*%
%TO.N,GND*%
X129152000Y-90920000D03*
%TO.P,U1,24,GP18*%
%TO.N,S-Red*%
X131692000Y-90920000D03*
%TO.P,U1,25,GP19*%
%TO.N,S-Black*%
X134232000Y-90920000D03*
%TO.P,U1,26,GP20*%
%TO.N,S-Blue*%
X136772000Y-90920000D03*
%TO.P,U1,27,GP21*%
%TO.N,E-Green*%
X139312000Y-90920000D03*
%TO.P,U1,28,GND_6*%
%TO.N,GND*%
X141852000Y-90920000D03*
%TO.P,U1,29,GP22*%
%TO.N,unconnected-(U1-Pad29)*%
X144392000Y-90920000D03*
%TO.P,U1,30,RUN*%
%TO.N,unconnected-(U1-Pad30)*%
X146932000Y-90920000D03*
%TO.P,U1,31,GP26_A0*%
%TO.N,unconnected-(U1-Pad31)*%
X149472000Y-90920000D03*
%TO.P,U1,32,GP27_A1*%
%TO.N,unconnected-(U1-Pad32)*%
X152012000Y-90920000D03*
%TO.P,U1,33,GND_7*%
%TO.N,GND*%
X154552000Y-90920000D03*
%TO.P,U1,34,GP28_A2*%
%TO.N,unconnected-(U1-Pad34)*%
X157092000Y-90920000D03*
%TO.P,U1,35,ADC_VREF*%
%TO.N,unconnected-(U1-Pad35)*%
X159632000Y-90920000D03*
%TO.P,U1,36,3V3(OUT)*%
%TO.N,3.3 Out*%
X162172000Y-90920000D03*
%TO.P,U1,37,3V3_EN*%
%TO.N,unconnected-(U1-Pad37)*%
X164712000Y-90920000D03*
%TO.P,U1,38,GND_8*%
%TO.N,GND*%
X167252000Y-90920000D03*
%TO.P,U1,39,VSYS*%
%TO.N,unconnected-(U1-Pad39)*%
X169792000Y-90920000D03*
%TO.P,U1,40,VBUS*%
%TO.N,unconnected-(U1-Pad40)*%
X172332000Y-90920000D03*
%TD*%
D18*
%TO.N,GND*%
X94750000Y-94250000D03*
X141750000Y-75650000D03*
X141750000Y-81350000D03*
X152300000Y-80150000D03*
%TO.N,3.3 Out*%
X173974540Y-86875000D03*
%TD*%
D19*
%TO.N,GND*%
X141852000Y-92148000D02*
X139350000Y-94650000D01*
X141852000Y-90920000D02*
X141852000Y-92148000D01*
X139350000Y-94650000D02*
X139350000Y-98150000D01*
D20*
%TO.N,OLED Data*%
X172332000Y-71540000D02*
X165632825Y-64840825D01*
X111559175Y-64840825D02*
X108250000Y-68150000D01*
X165632825Y-64840825D02*
X111559175Y-64840825D01*
%TO.N,OLED Clock*%
X163542345Y-65290345D02*
X169792000Y-71540000D01*
X107310000Y-69750000D02*
X109000000Y-69750000D01*
X113459655Y-65290345D02*
X163542345Y-65290345D01*
X105710000Y-68150000D02*
X107310000Y-69750000D01*
X109000000Y-69750000D02*
X113459655Y-65290345D01*
D21*
%TO.N,3.3 Out*%
X172750000Y-88250000D02*
X163250000Y-88250000D01*
X172516305Y-64016305D02*
X175000000Y-66500000D01*
X163250000Y-88250000D02*
X162172000Y-89328000D01*
X103170000Y-68150000D02*
X107303695Y-64016305D01*
X103389359Y-68150000D02*
X103170000Y-68150000D01*
X175000000Y-66500000D02*
X175000000Y-86000000D01*
X162172000Y-89328000D02*
X162172000Y-90920000D01*
X107303695Y-64016305D02*
X172516305Y-64016305D01*
X175000000Y-86000000D02*
X172750000Y-88250000D01*
%TD*%
%TA.AperFunction,Conductor*%
%TO.N,GND*%
G36*
X105649697Y-64028002D02*
G01*
X105696190Y-64081658D01*
X105706294Y-64151932D01*
X105676800Y-64216512D01*
X105670671Y-64223095D01*
X103291790Y-66601976D01*
X103229478Y-66636002D01*
X103191712Y-66638401D01*
X103175484Y-66636981D01*
X103175475Y-66636981D01*
X103170000Y-66636502D01*
X102941913Y-66656457D01*
X102936600Y-66657881D01*
X102936598Y-66657881D01*
X102726067Y-66714293D01*
X102726065Y-66714294D01*
X102720757Y-66715716D01*
X102715776Y-66718039D01*
X102715775Y-66718039D01*
X102518238Y-66810151D01*
X102518233Y-66810154D01*
X102513251Y-66812477D01*
X102435256Y-66867090D01*
X102330211Y-66940643D01*
X102330208Y-66940645D01*
X102325700Y-66943802D01*
X102163802Y-67105700D01*
X102032477Y-67293251D01*
X102030154Y-67298233D01*
X102030151Y-67298238D01*
X102013919Y-67333049D01*
X101967002Y-67386334D01*
X101898725Y-67405795D01*
X101830765Y-67385253D01*
X101785529Y-67333049D01*
X101769414Y-67298489D01*
X101763931Y-67288993D01*
X101638972Y-67110533D01*
X101631916Y-67102125D01*
X101477875Y-66948084D01*
X101469467Y-66941028D01*
X101291007Y-66816069D01*
X101281511Y-66810586D01*
X101084053Y-66718510D01*
X101073761Y-66714764D01*
X100901497Y-66668606D01*
X100887401Y-66668942D01*
X100884000Y-66676884D01*
X100884000Y-69617967D01*
X100887973Y-69631498D01*
X100896522Y-69632727D01*
X101073761Y-69585236D01*
X101084053Y-69581490D01*
X101281511Y-69489414D01*
X101291007Y-69483931D01*
X101469467Y-69358972D01*
X101477875Y-69351916D01*
X101631916Y-69197875D01*
X101638972Y-69189467D01*
X101763931Y-69011007D01*
X101769414Y-69001511D01*
X101785529Y-68966951D01*
X101832446Y-68913666D01*
X101900723Y-68894205D01*
X101968683Y-68914747D01*
X102013919Y-68966951D01*
X102030151Y-69001762D01*
X102030154Y-69001767D01*
X102032477Y-69006749D01*
X102035634Y-69011257D01*
X102134278Y-69152135D01*
X102163802Y-69194300D01*
X102325700Y-69356198D01*
X102330208Y-69359355D01*
X102330211Y-69359357D01*
X102408389Y-69414098D01*
X102513251Y-69487523D01*
X102518233Y-69489846D01*
X102518238Y-69489849D01*
X102659966Y-69555937D01*
X102720757Y-69584284D01*
X102726065Y-69585706D01*
X102726067Y-69585707D01*
X102936598Y-69642119D01*
X102936600Y-69642119D01*
X102941913Y-69643543D01*
X103170000Y-69663498D01*
X103398087Y-69643543D01*
X103403400Y-69642119D01*
X103403402Y-69642119D01*
X103613933Y-69585707D01*
X103613935Y-69585706D01*
X103619243Y-69584284D01*
X103680034Y-69555937D01*
X103821762Y-69489849D01*
X103821767Y-69489846D01*
X103826749Y-69487523D01*
X103931611Y-69414098D01*
X104009789Y-69359357D01*
X104009792Y-69359355D01*
X104014300Y-69356198D01*
X104176198Y-69194300D01*
X104205723Y-69152135D01*
X104304366Y-69011257D01*
X104307523Y-69006749D01*
X104309846Y-69001767D01*
X104309849Y-69001762D01*
X104325805Y-68967543D01*
X104372722Y-68914258D01*
X104440999Y-68894797D01*
X104508959Y-68915339D01*
X104554195Y-68967543D01*
X104570151Y-69001762D01*
X104570154Y-69001767D01*
X104572477Y-69006749D01*
X104575634Y-69011257D01*
X104674278Y-69152135D01*
X104703802Y-69194300D01*
X104865700Y-69356198D01*
X104870208Y-69359355D01*
X104870211Y-69359357D01*
X104948389Y-69414098D01*
X105053251Y-69487523D01*
X105058233Y-69489846D01*
X105058238Y-69489849D01*
X105199966Y-69555937D01*
X105260757Y-69584284D01*
X105266065Y-69585706D01*
X105266067Y-69585707D01*
X105476598Y-69642119D01*
X105476600Y-69642119D01*
X105481913Y-69643543D01*
X105710000Y-69663498D01*
X105938087Y-69643543D01*
X105943400Y-69642119D01*
X105943402Y-69642119D01*
X106159243Y-69584284D01*
X106159815Y-69586418D01*
X106221849Y-69583594D01*
X106280981Y-69616885D01*
X106806343Y-70142247D01*
X106813887Y-70150537D01*
X106818000Y-70157018D01*
X106823777Y-70162443D01*
X106867667Y-70203658D01*
X106870509Y-70206413D01*
X106890231Y-70226135D01*
X106893373Y-70228572D01*
X106893433Y-70228619D01*
X106902445Y-70236317D01*
X106914760Y-70247881D01*
X106934679Y-70266586D01*
X106941622Y-70270403D01*
X106952431Y-70276345D01*
X106968953Y-70287198D01*
X106984959Y-70299614D01*
X106992237Y-70302764D01*
X106992238Y-70302764D01*
X107025537Y-70317174D01*
X107036187Y-70322391D01*
X107074940Y-70343695D01*
X107082615Y-70345666D01*
X107082616Y-70345666D01*
X107094562Y-70348733D01*
X107113267Y-70355137D01*
X107131855Y-70363181D01*
X107139678Y-70364420D01*
X107139688Y-70364423D01*
X107175524Y-70370099D01*
X107187144Y-70372505D01*
X107218959Y-70380673D01*
X107229970Y-70383500D01*
X107250224Y-70383500D01*
X107269934Y-70385051D01*
X107289943Y-70388220D01*
X107297835Y-70387474D01*
X107316580Y-70385702D01*
X107333962Y-70384059D01*
X107345819Y-70383500D01*
X108921233Y-70383500D01*
X108932416Y-70384027D01*
X108939909Y-70385702D01*
X108947835Y-70385453D01*
X108947836Y-70385453D01*
X109007986Y-70383562D01*
X109011945Y-70383500D01*
X109039856Y-70383500D01*
X109043791Y-70383003D01*
X109043856Y-70382995D01*
X109055693Y-70382062D01*
X109087951Y-70381048D01*
X109091970Y-70380922D01*
X109099889Y-70380673D01*
X109119343Y-70375021D01*
X109138700Y-70371013D01*
X109150930Y-70369468D01*
X109150931Y-70369468D01*
X109158797Y-70368474D01*
X109166168Y-70365555D01*
X109166170Y-70365555D01*
X109199912Y-70352196D01*
X109211142Y-70348351D01*
X109245983Y-70338229D01*
X109245984Y-70338229D01*
X109253593Y-70336018D01*
X109260412Y-70331985D01*
X109260417Y-70331983D01*
X109271028Y-70325707D01*
X109288776Y-70317012D01*
X109307617Y-70309552D01*
X109343387Y-70283564D01*
X109353307Y-70277048D01*
X109384535Y-70258580D01*
X109384538Y-70258578D01*
X109391362Y-70254542D01*
X109405683Y-70240221D01*
X109420717Y-70227380D01*
X109421266Y-70226981D01*
X109437107Y-70215472D01*
X109465298Y-70181395D01*
X109473288Y-70172616D01*
X111445904Y-68200000D01*
X114170026Y-68200000D01*
X114189891Y-68452403D01*
X114248995Y-68698591D01*
X114250888Y-68703162D01*
X114250889Y-68703164D01*
X114338775Y-68915339D01*
X114345884Y-68932502D01*
X114478172Y-69148376D01*
X114642602Y-69340898D01*
X114835124Y-69505328D01*
X115050998Y-69637616D01*
X115055568Y-69639509D01*
X115055572Y-69639511D01*
X115280336Y-69732611D01*
X115284909Y-69734505D01*
X115369532Y-69754821D01*
X115526284Y-69792454D01*
X115526290Y-69792455D01*
X115531097Y-69793609D01*
X115630916Y-69801465D01*
X115717845Y-69808307D01*
X115717852Y-69808307D01*
X115720301Y-69808500D01*
X115846699Y-69808500D01*
X115849148Y-69808307D01*
X115849155Y-69808307D01*
X115936084Y-69801465D01*
X116035903Y-69793609D01*
X116040710Y-69792455D01*
X116040716Y-69792454D01*
X116197468Y-69754821D01*
X116282091Y-69734505D01*
X116286664Y-69732611D01*
X116511428Y-69639511D01*
X116511432Y-69639509D01*
X116516002Y-69637616D01*
X116731876Y-69505328D01*
X116924398Y-69340898D01*
X117088828Y-69148376D01*
X117221116Y-68932502D01*
X117228226Y-68915339D01*
X117316111Y-68703164D01*
X117316112Y-68703162D01*
X117318005Y-68698591D01*
X117377109Y-68452403D01*
X117396974Y-68200000D01*
X117377109Y-67947597D01*
X117371108Y-67922597D01*
X117329649Y-67749911D01*
X117318005Y-67701409D01*
X117307650Y-67676409D01*
X117223011Y-67472072D01*
X117223009Y-67472068D01*
X117221116Y-67467498D01*
X117088828Y-67251624D01*
X116924398Y-67059102D01*
X116731876Y-66894672D01*
X116516002Y-66762384D01*
X116511432Y-66760491D01*
X116511428Y-66760489D01*
X116286664Y-66667389D01*
X116286662Y-66667388D01*
X116282091Y-66665495D01*
X116173147Y-66639340D01*
X116040716Y-66607546D01*
X116040710Y-66607545D01*
X116035903Y-66606391D01*
X115936084Y-66598535D01*
X115849155Y-66591693D01*
X115849148Y-66591693D01*
X115846699Y-66591500D01*
X115720301Y-66591500D01*
X115717852Y-66591693D01*
X115717845Y-66591693D01*
X115630916Y-66598535D01*
X115531097Y-66606391D01*
X115526290Y-66607545D01*
X115526284Y-66607546D01*
X115393853Y-66639340D01*
X115284909Y-66665495D01*
X115280338Y-66667388D01*
X115280336Y-66667389D01*
X115055572Y-66760489D01*
X115055568Y-66760491D01*
X115050998Y-66762384D01*
X114835124Y-66894672D01*
X114642602Y-67059102D01*
X114478172Y-67251624D01*
X114345884Y-67467498D01*
X114343991Y-67472068D01*
X114343989Y-67472072D01*
X114259350Y-67676409D01*
X114248995Y-67701409D01*
X114237351Y-67749911D01*
X114195893Y-67922597D01*
X114189891Y-67947597D01*
X114170026Y-68200000D01*
X111445904Y-68200000D01*
X113685154Y-65960750D01*
X113747466Y-65926724D01*
X113774249Y-65923845D01*
X163227751Y-65923845D01*
X163295872Y-65943847D01*
X163316846Y-65960750D01*
X167370057Y-70013961D01*
X167404083Y-70076273D01*
X167399018Y-70147088D01*
X167356471Y-70203924D01*
X167289951Y-70228735D01*
X167269981Y-70228577D01*
X167257475Y-70227483D01*
X167246525Y-70227483D01*
X167029481Y-70246472D01*
X167018688Y-70248375D01*
X166808239Y-70304764D01*
X166797947Y-70308510D01*
X166600489Y-70400586D01*
X166590994Y-70406069D01*
X166538952Y-70442509D01*
X166530576Y-70452988D01*
X166537644Y-70466434D01*
X168326287Y-72255077D01*
X168338062Y-72261507D01*
X168350077Y-72252211D01*
X168385931Y-72201006D01*
X168391414Y-72191511D01*
X168407529Y-72156951D01*
X168454446Y-72103666D01*
X168522723Y-72084205D01*
X168590683Y-72104747D01*
X168635919Y-72156951D01*
X168652151Y-72191762D01*
X168652154Y-72191767D01*
X168654477Y-72196749D01*
X168785802Y-72384300D01*
X168947700Y-72546198D01*
X168952208Y-72549355D01*
X168952211Y-72549357D01*
X169030389Y-72604098D01*
X169135251Y-72677523D01*
X169140233Y-72679846D01*
X169140238Y-72679849D01*
X169336765Y-72771490D01*
X169342757Y-72774284D01*
X169348065Y-72775706D01*
X169348067Y-72775707D01*
X169558598Y-72832119D01*
X169558600Y-72832119D01*
X169563913Y-72833543D01*
X169792000Y-72853498D01*
X170020087Y-72833543D01*
X170025400Y-72832119D01*
X170025402Y-72832119D01*
X170235933Y-72775707D01*
X170235935Y-72775706D01*
X170241243Y-72774284D01*
X170247235Y-72771490D01*
X170443762Y-72679849D01*
X170443767Y-72679846D01*
X170448749Y-72677523D01*
X170553611Y-72604098D01*
X170631789Y-72549357D01*
X170631792Y-72549355D01*
X170636300Y-72546198D01*
X170798198Y-72384300D01*
X170929523Y-72196749D01*
X170931846Y-72191767D01*
X170931849Y-72191762D01*
X170947805Y-72157543D01*
X170994722Y-72104258D01*
X171062999Y-72084797D01*
X171130959Y-72105339D01*
X171176195Y-72157543D01*
X171192151Y-72191762D01*
X171192154Y-72191767D01*
X171194477Y-72196749D01*
X171325802Y-72384300D01*
X171487700Y-72546198D01*
X171492208Y-72549355D01*
X171492211Y-72549357D01*
X171570389Y-72604098D01*
X171675251Y-72677523D01*
X171680233Y-72679846D01*
X171680238Y-72679849D01*
X171876765Y-72771490D01*
X171882757Y-72774284D01*
X171888065Y-72775706D01*
X171888067Y-72775707D01*
X172098598Y-72832119D01*
X172098600Y-72832119D01*
X172103913Y-72833543D01*
X172332000Y-72853498D01*
X172560087Y-72833543D01*
X172565400Y-72832119D01*
X172565402Y-72832119D01*
X172775933Y-72775707D01*
X172775935Y-72775706D01*
X172781243Y-72774284D01*
X172787235Y-72771490D01*
X172983762Y-72679849D01*
X172983767Y-72679846D01*
X172988749Y-72677523D01*
X173093611Y-72604098D01*
X173171789Y-72549357D01*
X173171792Y-72549355D01*
X173176300Y-72546198D01*
X173338198Y-72384300D01*
X173469523Y-72196749D01*
X173471846Y-72191767D01*
X173471849Y-72191762D01*
X173563961Y-71994225D01*
X173563961Y-71994224D01*
X173566284Y-71989243D01*
X173586976Y-71912022D01*
X173624119Y-71773402D01*
X173624119Y-71773400D01*
X173625543Y-71768087D01*
X173645498Y-71540000D01*
X173625543Y-71311913D01*
X173588981Y-71175461D01*
X173567707Y-71096067D01*
X173567706Y-71096065D01*
X173566284Y-71090757D01*
X173471966Y-70888489D01*
X173471849Y-70888238D01*
X173471846Y-70888233D01*
X173469523Y-70883251D01*
X173338198Y-70695700D01*
X173176300Y-70533802D01*
X173171792Y-70530645D01*
X173171789Y-70530643D01*
X173045920Y-70442509D01*
X172988749Y-70402477D01*
X172983767Y-70400154D01*
X172983762Y-70400151D01*
X172786225Y-70308039D01*
X172786224Y-70308039D01*
X172781243Y-70305716D01*
X172775935Y-70304294D01*
X172775933Y-70304293D01*
X172565402Y-70247881D01*
X172565400Y-70247881D01*
X172560087Y-70246457D01*
X172332000Y-70226502D01*
X172103913Y-70246457D01*
X172098602Y-70247880D01*
X172098591Y-70247882D01*
X172040459Y-70263459D01*
X171969483Y-70261770D01*
X171918752Y-70230848D01*
X166927805Y-65239900D01*
X166893779Y-65177588D01*
X166898844Y-65106773D01*
X166941391Y-65049937D01*
X167007911Y-65025126D01*
X167016900Y-65024805D01*
X172046380Y-65024805D01*
X172114501Y-65044807D01*
X172135475Y-65061710D01*
X173954595Y-66880829D01*
X173988620Y-66943141D01*
X173991500Y-66969924D01*
X173991500Y-85530076D01*
X173971498Y-85598197D01*
X173954595Y-85619171D01*
X173422759Y-86151007D01*
X173407726Y-86163847D01*
X173363287Y-86196134D01*
X173358866Y-86201044D01*
X173358865Y-86201045D01*
X173235807Y-86337715D01*
X173231266Y-86342500D01*
X172369171Y-87204595D01*
X172306859Y-87238621D01*
X172280076Y-87241500D01*
X163311842Y-87241500D01*
X163298235Y-87240763D01*
X163266737Y-87237341D01*
X163266732Y-87237341D01*
X163260611Y-87236676D01*
X163242611Y-87238251D01*
X163210609Y-87241050D01*
X163205784Y-87241379D01*
X163203313Y-87241500D01*
X163200231Y-87241500D01*
X163177763Y-87243703D01*
X163157489Y-87245691D01*
X163156174Y-87245813D01*
X163123913Y-87248636D01*
X163063587Y-87253913D01*
X163058468Y-87255400D01*
X163053167Y-87255920D01*
X162964194Y-87282782D01*
X162963054Y-87283120D01*
X162873663Y-87309091D01*
X162868929Y-87311545D01*
X162863831Y-87313084D01*
X162858387Y-87315978D01*
X162858386Y-87315979D01*
X162781831Y-87356684D01*
X162780663Y-87357298D01*
X162698074Y-87400108D01*
X162693911Y-87403431D01*
X162689204Y-87405934D01*
X162617082Y-87464755D01*
X162616226Y-87465446D01*
X162577027Y-87496738D01*
X162574523Y-87499242D01*
X162573805Y-87499884D01*
X162569472Y-87503585D01*
X162535938Y-87530935D01*
X162532011Y-87535682D01*
X162532009Y-87535684D01*
X162506713Y-87566262D01*
X162498723Y-87575042D01*
X161502621Y-88571145D01*
X161492478Y-88580247D01*
X161462975Y-88603968D01*
X161459008Y-88608696D01*
X161430709Y-88642421D01*
X161427528Y-88646069D01*
X161425885Y-88647881D01*
X161423691Y-88650075D01*
X161396358Y-88683349D01*
X161395696Y-88684147D01*
X161335846Y-88755474D01*
X161333278Y-88760144D01*
X161329897Y-88764261D01*
X161298860Y-88822145D01*
X161286023Y-88846086D01*
X161285394Y-88847245D01*
X161243538Y-88923381D01*
X161243535Y-88923389D01*
X161240567Y-88928787D01*
X161238955Y-88933869D01*
X161236438Y-88938563D01*
X161209238Y-89027531D01*
X161208918Y-89028559D01*
X161180765Y-89117306D01*
X161180171Y-89122602D01*
X161178613Y-89127698D01*
X161169517Y-89217248D01*
X161169218Y-89220187D01*
X161169089Y-89221393D01*
X161166363Y-89245703D01*
X161164447Y-89262787D01*
X161163500Y-89271227D01*
X161163500Y-89274754D01*
X161163445Y-89275739D01*
X161162998Y-89281419D01*
X161158626Y-89324462D01*
X161159206Y-89330593D01*
X161162941Y-89370109D01*
X161163500Y-89381967D01*
X161163500Y-90039260D01*
X161140713Y-90111531D01*
X161034477Y-90263251D01*
X161032154Y-90268233D01*
X161032151Y-90268238D01*
X161016195Y-90302457D01*
X160969278Y-90355742D01*
X160901001Y-90375203D01*
X160833041Y-90354661D01*
X160787805Y-90302457D01*
X160771849Y-90268238D01*
X160771846Y-90268233D01*
X160769523Y-90263251D01*
X160638198Y-90075700D01*
X160476300Y-89913802D01*
X160471792Y-89910645D01*
X160471789Y-89910643D01*
X160345920Y-89822509D01*
X160288749Y-89782477D01*
X160283767Y-89780154D01*
X160283762Y-89780151D01*
X160086225Y-89688039D01*
X160086224Y-89688039D01*
X160081243Y-89685716D01*
X160075935Y-89684294D01*
X160075933Y-89684293D01*
X159865402Y-89627881D01*
X159865400Y-89627881D01*
X159860087Y-89626457D01*
X159632000Y-89606502D01*
X159403913Y-89626457D01*
X159398600Y-89627881D01*
X159398598Y-89627881D01*
X159188067Y-89684293D01*
X159188065Y-89684294D01*
X159182757Y-89685716D01*
X159177776Y-89688039D01*
X159177775Y-89688039D01*
X158980238Y-89780151D01*
X158980233Y-89780154D01*
X158975251Y-89782477D01*
X158918080Y-89822509D01*
X158792211Y-89910643D01*
X158792208Y-89910645D01*
X158787700Y-89913802D01*
X158625802Y-90075700D01*
X158494477Y-90263251D01*
X158492154Y-90268233D01*
X158492151Y-90268238D01*
X158476195Y-90302457D01*
X158429278Y-90355742D01*
X158361001Y-90375203D01*
X158293041Y-90354661D01*
X158247805Y-90302457D01*
X158231849Y-90268238D01*
X158231846Y-90268233D01*
X158229523Y-90263251D01*
X158098198Y-90075700D01*
X157936300Y-89913802D01*
X157931792Y-89910645D01*
X157931789Y-89910643D01*
X157805920Y-89822509D01*
X157748749Y-89782477D01*
X157743767Y-89780154D01*
X157743762Y-89780151D01*
X157546225Y-89688039D01*
X157546224Y-89688039D01*
X157541243Y-89685716D01*
X157535935Y-89684294D01*
X157535933Y-89684293D01*
X157325402Y-89627881D01*
X157325400Y-89627881D01*
X157320087Y-89626457D01*
X157092000Y-89606502D01*
X156863913Y-89626457D01*
X156858600Y-89627881D01*
X156858598Y-89627881D01*
X156648067Y-89684293D01*
X156648065Y-89684294D01*
X156642757Y-89685716D01*
X156637776Y-89688039D01*
X156637775Y-89688039D01*
X156440238Y-89780151D01*
X156440233Y-89780154D01*
X156435251Y-89782477D01*
X156378080Y-89822509D01*
X156252211Y-89910643D01*
X156252208Y-89910645D01*
X156247700Y-89913802D01*
X156085802Y-90075700D01*
X155954477Y-90263251D01*
X155952154Y-90268233D01*
X155952151Y-90268238D01*
X155935919Y-90303049D01*
X155889002Y-90356334D01*
X155820725Y-90375795D01*
X155752765Y-90355253D01*
X155707529Y-90303049D01*
X155691414Y-90268489D01*
X155685931Y-90258994D01*
X155649491Y-90206952D01*
X155639012Y-90198576D01*
X155625566Y-90205644D01*
X154924022Y-90907188D01*
X154916408Y-90921132D01*
X154916539Y-90922965D01*
X154920790Y-90929580D01*
X155626287Y-91635077D01*
X155638062Y-91641507D01*
X155650077Y-91632211D01*
X155685931Y-91581006D01*
X155691414Y-91571511D01*
X155707529Y-91536951D01*
X155754446Y-91483666D01*
X155822723Y-91464205D01*
X155890683Y-91484747D01*
X155935919Y-91536951D01*
X155952151Y-91571762D01*
X155952154Y-91571767D01*
X155954477Y-91576749D01*
X156085802Y-91764300D01*
X156247700Y-91926198D01*
X156252208Y-91929355D01*
X156252211Y-91929357D01*
X156330389Y-91984098D01*
X156435251Y-92057523D01*
X156440233Y-92059846D01*
X156440238Y-92059849D01*
X156636765Y-92151490D01*
X156642757Y-92154284D01*
X156648065Y-92155706D01*
X156648067Y-92155707D01*
X156858598Y-92212119D01*
X156858600Y-92212119D01*
X156863913Y-92213543D01*
X157092000Y-92233498D01*
X157320087Y-92213543D01*
X157325400Y-92212119D01*
X157325402Y-92212119D01*
X157535933Y-92155707D01*
X157535935Y-92155706D01*
X157541243Y-92154284D01*
X157547235Y-92151490D01*
X157743762Y-92059849D01*
X157743767Y-92059846D01*
X157748749Y-92057523D01*
X157853611Y-91984098D01*
X157931789Y-91929357D01*
X157931792Y-91929355D01*
X157936300Y-91926198D01*
X158098198Y-91764300D01*
X158229523Y-91576749D01*
X158231846Y-91571767D01*
X158231849Y-91571762D01*
X158247805Y-91537543D01*
X158294722Y-91484258D01*
X158362999Y-91464797D01*
X158430959Y-91485339D01*
X158476195Y-91537543D01*
X158492151Y-91571762D01*
X158492154Y-91571767D01*
X158494477Y-91576749D01*
X158625802Y-91764300D01*
X158787700Y-91926198D01*
X158792208Y-91929355D01*
X158792211Y-91929357D01*
X158870389Y-91984098D01*
X158975251Y-92057523D01*
X158980233Y-92059846D01*
X158980238Y-92059849D01*
X159176765Y-92151490D01*
X159182757Y-92154284D01*
X159188065Y-92155706D01*
X159188067Y-92155707D01*
X159398598Y-92212119D01*
X159398600Y-92212119D01*
X159403913Y-92213543D01*
X159632000Y-92233498D01*
X159860087Y-92213543D01*
X159865400Y-92212119D01*
X159865402Y-92212119D01*
X160075933Y-92155707D01*
X160075935Y-92155706D01*
X160081243Y-92154284D01*
X160087235Y-92151490D01*
X160283762Y-92059849D01*
X160283767Y-92059846D01*
X160288749Y-92057523D01*
X160393611Y-91984098D01*
X160471789Y-91929357D01*
X160471792Y-91929355D01*
X160476300Y-91926198D01*
X160638198Y-91764300D01*
X160769523Y-91576749D01*
X160771846Y-91571767D01*
X160771849Y-91571762D01*
X160787805Y-91537543D01*
X160834722Y-91484258D01*
X160902999Y-91464797D01*
X160970959Y-91485339D01*
X161016195Y-91537543D01*
X161032151Y-91571762D01*
X161032154Y-91571767D01*
X161034477Y-91576749D01*
X161165802Y-91764300D01*
X161327700Y-91926198D01*
X161332208Y-91929355D01*
X161332211Y-91929357D01*
X161410389Y-91984098D01*
X161515251Y-92057523D01*
X161520233Y-92059846D01*
X161520238Y-92059849D01*
X161716765Y-92151490D01*
X161722757Y-92154284D01*
X161728065Y-92155706D01*
X161728067Y-92155707D01*
X161938598Y-92212119D01*
X161938600Y-92212119D01*
X161943913Y-92213543D01*
X162172000Y-92233498D01*
X162400087Y-92213543D01*
X162405400Y-92212119D01*
X162405402Y-92212119D01*
X162615933Y-92155707D01*
X162615935Y-92155706D01*
X162621243Y-92154284D01*
X162627235Y-92151490D01*
X162823762Y-92059849D01*
X162823767Y-92059846D01*
X162828749Y-92057523D01*
X162933611Y-91984098D01*
X163011789Y-91929357D01*
X163011792Y-91929355D01*
X163016300Y-91926198D01*
X163178198Y-91764300D01*
X163309523Y-91576749D01*
X163311846Y-91571767D01*
X163311849Y-91571762D01*
X163327805Y-91537543D01*
X163374722Y-91484258D01*
X163442999Y-91464797D01*
X163510959Y-91485339D01*
X163556195Y-91537543D01*
X163572151Y-91571762D01*
X163572154Y-91571767D01*
X163574477Y-91576749D01*
X163705802Y-91764300D01*
X163867700Y-91926198D01*
X163872208Y-91929355D01*
X163872211Y-91929357D01*
X163950389Y-91984098D01*
X164055251Y-92057523D01*
X164060233Y-92059846D01*
X164060238Y-92059849D01*
X164256765Y-92151490D01*
X164262757Y-92154284D01*
X164268065Y-92155706D01*
X164268067Y-92155707D01*
X164478598Y-92212119D01*
X164478600Y-92212119D01*
X164483913Y-92213543D01*
X164712000Y-92233498D01*
X164940087Y-92213543D01*
X164945400Y-92212119D01*
X164945402Y-92212119D01*
X165155933Y-92155707D01*
X165155935Y-92155706D01*
X165161243Y-92154284D01*
X165167235Y-92151490D01*
X165363762Y-92059849D01*
X165363767Y-92059846D01*
X165368749Y-92057523D01*
X165442243Y-92006062D01*
X166530493Y-92006062D01*
X166539789Y-92018077D01*
X166590994Y-92053931D01*
X166600489Y-92059414D01*
X166797947Y-92151490D01*
X166808239Y-92155236D01*
X167018688Y-92211625D01*
X167029481Y-92213528D01*
X167246525Y-92232517D01*
X167257475Y-92232517D01*
X167474519Y-92213528D01*
X167485312Y-92211625D01*
X167695761Y-92155236D01*
X167706053Y-92151490D01*
X167903511Y-92059414D01*
X167913006Y-92053931D01*
X167965048Y-92017491D01*
X167973424Y-92007012D01*
X167966356Y-91993566D01*
X167264812Y-91292022D01*
X167250868Y-91284408D01*
X167249035Y-91284539D01*
X167242420Y-91288790D01*
X166536923Y-91994287D01*
X166530493Y-92006062D01*
X165442243Y-92006062D01*
X165473611Y-91984098D01*
X165551789Y-91929357D01*
X165551792Y-91929355D01*
X165556300Y-91926198D01*
X165718198Y-91764300D01*
X165849523Y-91576749D01*
X165851846Y-91571767D01*
X165851849Y-91571762D01*
X165868081Y-91536951D01*
X165914998Y-91483666D01*
X165983275Y-91464205D01*
X166051235Y-91484747D01*
X166096471Y-91536951D01*
X166112586Y-91571511D01*
X166118069Y-91581006D01*
X166154509Y-91633048D01*
X166164988Y-91641424D01*
X166178434Y-91634356D01*
X166879978Y-90932812D01*
X166886356Y-90921132D01*
X167616408Y-90921132D01*
X167616539Y-90922965D01*
X167620790Y-90929580D01*
X168326287Y-91635077D01*
X168338062Y-91641507D01*
X168350077Y-91632211D01*
X168385931Y-91581006D01*
X168391414Y-91571511D01*
X168407529Y-91536951D01*
X168454446Y-91483666D01*
X168522723Y-91464205D01*
X168590683Y-91484747D01*
X168635919Y-91536951D01*
X168652151Y-91571762D01*
X168652154Y-91571767D01*
X168654477Y-91576749D01*
X168785802Y-91764300D01*
X168947700Y-91926198D01*
X168952208Y-91929355D01*
X168952211Y-91929357D01*
X169030389Y-91984098D01*
X169135251Y-92057523D01*
X169140233Y-92059846D01*
X169140238Y-92059849D01*
X169336765Y-92151490D01*
X169342757Y-92154284D01*
X169348065Y-92155706D01*
X169348067Y-92155707D01*
X169558598Y-92212119D01*
X169558600Y-92212119D01*
X169563913Y-92213543D01*
X169792000Y-92233498D01*
X170020087Y-92213543D01*
X170025400Y-92212119D01*
X170025402Y-92212119D01*
X170235933Y-92155707D01*
X170235935Y-92155706D01*
X170241243Y-92154284D01*
X170247235Y-92151490D01*
X170443762Y-92059849D01*
X170443767Y-92059846D01*
X170448749Y-92057523D01*
X170553611Y-91984098D01*
X170631789Y-91929357D01*
X170631792Y-91929355D01*
X170636300Y-91926198D01*
X170798198Y-91764300D01*
X170929523Y-91576749D01*
X170931846Y-91571767D01*
X170931849Y-91571762D01*
X170947805Y-91537543D01*
X170994722Y-91484258D01*
X171062999Y-91464797D01*
X171130959Y-91485339D01*
X171176195Y-91537543D01*
X171192151Y-91571762D01*
X171192154Y-91571767D01*
X171194477Y-91576749D01*
X171325802Y-91764300D01*
X171487700Y-91926198D01*
X171492208Y-91929355D01*
X171492211Y-91929357D01*
X171570389Y-91984098D01*
X171675251Y-92057523D01*
X171680233Y-92059846D01*
X171680238Y-92059849D01*
X171876765Y-92151490D01*
X171882757Y-92154284D01*
X171888065Y-92155706D01*
X171888067Y-92155707D01*
X172098598Y-92212119D01*
X172098600Y-92212119D01*
X172103913Y-92213543D01*
X172332000Y-92233498D01*
X172560087Y-92213543D01*
X172565400Y-92212119D01*
X172565402Y-92212119D01*
X172775933Y-92155707D01*
X172775935Y-92155706D01*
X172781243Y-92154284D01*
X172787235Y-92151490D01*
X172983762Y-92059849D01*
X172983767Y-92059846D01*
X172988749Y-92057523D01*
X173093611Y-91984098D01*
X173171789Y-91929357D01*
X173171792Y-91929355D01*
X173176300Y-91926198D01*
X173338198Y-91764300D01*
X173469523Y-91576749D01*
X173471846Y-91571767D01*
X173471849Y-91571762D01*
X173563961Y-91374225D01*
X173563961Y-91374224D01*
X173566284Y-91369243D01*
X173586976Y-91292022D01*
X173624119Y-91153402D01*
X173624119Y-91153400D01*
X173625543Y-91148087D01*
X173645498Y-90920000D01*
X173625543Y-90691913D01*
X173598227Y-90589970D01*
X173567707Y-90476067D01*
X173567706Y-90476065D01*
X173566284Y-90470757D01*
X173548466Y-90432546D01*
X173471849Y-90268238D01*
X173471846Y-90268233D01*
X173469523Y-90263251D01*
X173338198Y-90075700D01*
X173176300Y-89913802D01*
X173171792Y-89910645D01*
X173171789Y-89910643D01*
X173045920Y-89822509D01*
X172988749Y-89782477D01*
X172983767Y-89780154D01*
X172983762Y-89780151D01*
X172786225Y-89688039D01*
X172786224Y-89688039D01*
X172781243Y-89685716D01*
X172775935Y-89684294D01*
X172775933Y-89684293D01*
X172565402Y-89627881D01*
X172565400Y-89627881D01*
X172560087Y-89626457D01*
X172332000Y-89606502D01*
X172103913Y-89626457D01*
X172098600Y-89627881D01*
X172098598Y-89627881D01*
X171888067Y-89684293D01*
X171888065Y-89684294D01*
X171882757Y-89685716D01*
X171877776Y-89688039D01*
X171877775Y-89688039D01*
X171680238Y-89780151D01*
X171680233Y-89780154D01*
X171675251Y-89782477D01*
X171618080Y-89822509D01*
X171492211Y-89910643D01*
X171492208Y-89910645D01*
X171487700Y-89913802D01*
X171325802Y-90075700D01*
X171194477Y-90263251D01*
X171192154Y-90268233D01*
X171192151Y-90268238D01*
X171176195Y-90302457D01*
X171129278Y-90355742D01*
X171061001Y-90375203D01*
X170993041Y-90354661D01*
X170947805Y-90302457D01*
X170931849Y-90268238D01*
X170931846Y-90268233D01*
X170929523Y-90263251D01*
X170798198Y-90075700D01*
X170636300Y-89913802D01*
X170631792Y-89910645D01*
X170631789Y-89910643D01*
X170505920Y-89822509D01*
X170448749Y-89782477D01*
X170443767Y-89780154D01*
X170443762Y-89780151D01*
X170246225Y-89688039D01*
X170246224Y-89688039D01*
X170241243Y-89685716D01*
X170235935Y-89684294D01*
X170235933Y-89684293D01*
X170025402Y-89627881D01*
X170025400Y-89627881D01*
X170020087Y-89626457D01*
X169792000Y-89606502D01*
X169563913Y-89626457D01*
X169558600Y-89627881D01*
X169558598Y-89627881D01*
X169348067Y-89684293D01*
X169348065Y-89684294D01*
X169342757Y-89685716D01*
X169337776Y-89688039D01*
X169337775Y-89688039D01*
X169140238Y-89780151D01*
X169140233Y-89780154D01*
X169135251Y-89782477D01*
X169078080Y-89822509D01*
X168952211Y-89910643D01*
X168952208Y-89910645D01*
X168947700Y-89913802D01*
X168785802Y-90075700D01*
X168654477Y-90263251D01*
X168652154Y-90268233D01*
X168652151Y-90268238D01*
X168635919Y-90303049D01*
X168589002Y-90356334D01*
X168520725Y-90375795D01*
X168452765Y-90355253D01*
X168407529Y-90303049D01*
X168391414Y-90268489D01*
X168385931Y-90258994D01*
X168349491Y-90206952D01*
X168339012Y-90198576D01*
X168325566Y-90205644D01*
X167624022Y-90907188D01*
X167616408Y-90921132D01*
X166886356Y-90921132D01*
X166887592Y-90918868D01*
X166887461Y-90917035D01*
X166883210Y-90910420D01*
X166177713Y-90204923D01*
X166165938Y-90198493D01*
X166153923Y-90207789D01*
X166118069Y-90258994D01*
X166112586Y-90268489D01*
X166096471Y-90303049D01*
X166049554Y-90356334D01*
X165981277Y-90375795D01*
X165913317Y-90355253D01*
X165868081Y-90303049D01*
X165851849Y-90268238D01*
X165851846Y-90268233D01*
X165849523Y-90263251D01*
X165718198Y-90075700D01*
X165556300Y-89913802D01*
X165551792Y-89910645D01*
X165551789Y-89910643D01*
X165440886Y-89832988D01*
X166530576Y-89832988D01*
X166537644Y-89846434D01*
X167239188Y-90547978D01*
X167253132Y-90555592D01*
X167254965Y-90555461D01*
X167261580Y-90551210D01*
X167967077Y-89845713D01*
X167973507Y-89833938D01*
X167964211Y-89821923D01*
X167913006Y-89786069D01*
X167903511Y-89780586D01*
X167706053Y-89688510D01*
X167695761Y-89684764D01*
X167485312Y-89628375D01*
X167474519Y-89626472D01*
X167257475Y-89607483D01*
X167246525Y-89607483D01*
X167029481Y-89626472D01*
X167018688Y-89628375D01*
X166808239Y-89684764D01*
X166797947Y-89688510D01*
X166600489Y-89780586D01*
X166590994Y-89786069D01*
X166538952Y-89822509D01*
X166530576Y-89832988D01*
X165440886Y-89832988D01*
X165425920Y-89822509D01*
X165368749Y-89782477D01*
X165363767Y-89780154D01*
X165363762Y-89780151D01*
X165166225Y-89688039D01*
X165166224Y-89688039D01*
X165161243Y-89685716D01*
X165155935Y-89684294D01*
X165155933Y-89684293D01*
X164945402Y-89627881D01*
X164945400Y-89627881D01*
X164940087Y-89626457D01*
X164712000Y-89606502D01*
X164483913Y-89626457D01*
X164478600Y-89627881D01*
X164478598Y-89627881D01*
X164268067Y-89684293D01*
X164268065Y-89684294D01*
X164262757Y-89685716D01*
X164257776Y-89688039D01*
X164257775Y-89688039D01*
X164060238Y-89780151D01*
X164060233Y-89780154D01*
X164055251Y-89782477D01*
X163998080Y-89822509D01*
X163872211Y-89910643D01*
X163872208Y-89910645D01*
X163867700Y-89913802D01*
X163705802Y-90075700D01*
X163574477Y-90263251D01*
X163572154Y-90268233D01*
X163572151Y-90268238D01*
X163556195Y-90302457D01*
X163509278Y-90355742D01*
X163441001Y-90375203D01*
X163373041Y-90354661D01*
X163327805Y-90302457D01*
X163311849Y-90268238D01*
X163311846Y-90268233D01*
X163309523Y-90263251D01*
X163203287Y-90111531D01*
X163180500Y-90039260D01*
X163180500Y-89797926D01*
X163200502Y-89729805D01*
X163217404Y-89708831D01*
X163630829Y-89295405D01*
X163693142Y-89261380D01*
X163719925Y-89258500D01*
X172688157Y-89258500D01*
X172701764Y-89259237D01*
X172733262Y-89262659D01*
X172733267Y-89262659D01*
X172739388Y-89263324D01*
X172765638Y-89261027D01*
X172789388Y-89258950D01*
X172794214Y-89258621D01*
X172796686Y-89258500D01*
X172799769Y-89258500D01*
X172811738Y-89257326D01*
X172842506Y-89254310D01*
X172843819Y-89254188D01*
X172888084Y-89250315D01*
X172936413Y-89246087D01*
X172941532Y-89244600D01*
X172946833Y-89244080D01*
X173035834Y-89217209D01*
X173036967Y-89216874D01*
X173120414Y-89192630D01*
X173120418Y-89192628D01*
X173126336Y-89190909D01*
X173131068Y-89188456D01*
X173136169Y-89186916D01*
X173141612Y-89184022D01*
X173218260Y-89143269D01*
X173219426Y-89142657D01*
X173296453Y-89102729D01*
X173301926Y-89099892D01*
X173306089Y-89096569D01*
X173310796Y-89094066D01*
X173382918Y-89035245D01*
X173383774Y-89034554D01*
X173422973Y-89003262D01*
X173425477Y-89000758D01*
X173426195Y-89000116D01*
X173430528Y-88996415D01*
X173464062Y-88969065D01*
X173493288Y-88933737D01*
X173501277Y-88924958D01*
X175176905Y-87249330D01*
X175239217Y-87215304D01*
X175310032Y-87220369D01*
X175366868Y-87262916D01*
X175391679Y-87329436D01*
X175392000Y-87338425D01*
X175392000Y-99713851D01*
X175387707Y-99746462D01*
X175332097Y-99954000D01*
X175328021Y-99966544D01*
X175208895Y-100276876D01*
X175203531Y-100288924D01*
X175052612Y-100585120D01*
X175046021Y-100596536D01*
X174864967Y-100875334D01*
X174857221Y-100885996D01*
X174648016Y-101144344D01*
X174639190Y-101154145D01*
X174404145Y-101389190D01*
X174394344Y-101398016D01*
X174135996Y-101607221D01*
X174125334Y-101614967D01*
X173846536Y-101796021D01*
X173835120Y-101802612D01*
X173538924Y-101953531D01*
X173526875Y-101958895D01*
X173216536Y-102078023D01*
X173204000Y-102082097D01*
X172882902Y-102168135D01*
X172870002Y-102170877D01*
X172781285Y-102184928D01*
X172541665Y-102222880D01*
X172528557Y-102224257D01*
X172232666Y-102239764D01*
X172206688Y-102238436D01*
X172205144Y-102238195D01*
X172205140Y-102238195D01*
X172196270Y-102236814D01*
X172187368Y-102237978D01*
X172187365Y-102237978D01*
X172164749Y-102240936D01*
X172148411Y-102242000D01*
X92109328Y-102242000D01*
X92089943Y-102240500D01*
X92075142Y-102238195D01*
X92075139Y-102238195D01*
X92066270Y-102236814D01*
X92047589Y-102239257D01*
X92024658Y-102240148D01*
X91721443Y-102224257D01*
X91708335Y-102222880D01*
X91468715Y-102184928D01*
X91379998Y-102170877D01*
X91367098Y-102168135D01*
X91046000Y-102082097D01*
X91033464Y-102078023D01*
X90723125Y-101958895D01*
X90711076Y-101953531D01*
X90414880Y-101802612D01*
X90403464Y-101796021D01*
X90124666Y-101614967D01*
X90114004Y-101607221D01*
X89855656Y-101398016D01*
X89845855Y-101389190D01*
X89610810Y-101154145D01*
X89601984Y-101144344D01*
X89392779Y-100885996D01*
X89385033Y-100875334D01*
X89203979Y-100596536D01*
X89197388Y-100585120D01*
X89046469Y-100288924D01*
X89041105Y-100276876D01*
X88921979Y-99966544D01*
X88917903Y-99954000D01*
X88831865Y-99632902D01*
X88829123Y-99620002D01*
X88777121Y-99291671D01*
X88775743Y-99278554D01*
X88774823Y-99260995D01*
X88760236Y-98982666D01*
X88761564Y-98956688D01*
X88761805Y-98955144D01*
X88761805Y-98955140D01*
X88763186Y-98946270D01*
X88761999Y-98937186D01*
X88759064Y-98914749D01*
X88758000Y-98898411D01*
X88758000Y-98758634D01*
X104872500Y-98758634D01*
X104879255Y-98820816D01*
X104930385Y-98957205D01*
X105017739Y-99073761D01*
X105134295Y-99161115D01*
X105270684Y-99212245D01*
X105332866Y-99219000D01*
X106667134Y-99219000D01*
X106729316Y-99212245D01*
X106865705Y-99161115D01*
X106893611Y-99140201D01*
X106904812Y-99131806D01*
X106971319Y-99106958D01*
X107030115Y-99116864D01*
X107133112Y-99161115D01*
X107150091Y-99168410D01*
X107280263Y-99197865D01*
X107334060Y-99210038D01*
X107352201Y-99214143D01*
X107357972Y-99214370D01*
X107357974Y-99214370D01*
X107427210Y-99217090D01*
X107559262Y-99222278D01*
X107652475Y-99208763D01*
X107758616Y-99193374D01*
X107758621Y-99193373D01*
X107764337Y-99192544D01*
X107769809Y-99190686D01*
X107769811Y-99190686D01*
X107955096Y-99127790D01*
X107955098Y-99127789D01*
X107960560Y-99125935D01*
X108124797Y-99033958D01*
X108136322Y-99027504D01*
X108136323Y-99027503D01*
X108141359Y-99024683D01*
X108145798Y-99020991D01*
X108145804Y-99020987D01*
X108169548Y-99001239D01*
X108234712Y-98973057D01*
X108304767Y-98984580D01*
X108320116Y-98993344D01*
X108459699Y-99086611D01*
X108465002Y-99088889D01*
X108465005Y-99088891D01*
X108639189Y-99163726D01*
X108650091Y-99168410D01*
X108780263Y-99197865D01*
X108834060Y-99210038D01*
X108852201Y-99214143D01*
X108857972Y-99214370D01*
X108857974Y-99214370D01*
X108927210Y-99217090D01*
X109059262Y-99222278D01*
X109152475Y-99208763D01*
X109258616Y-99193374D01*
X109258621Y-99193373D01*
X109264337Y-99192544D01*
X109269809Y-99190686D01*
X109269811Y-99190686D01*
X109455096Y-99127790D01*
X109455098Y-99127789D01*
X109460560Y-99125935D01*
X109624797Y-99033958D01*
X109636322Y-99027504D01*
X109636323Y-99027503D01*
X109641359Y-99024683D01*
X109645798Y-99020991D01*
X109645804Y-99020987D01*
X109669548Y-99001239D01*
X109734712Y-98973057D01*
X109804767Y-98984580D01*
X109820116Y-98993344D01*
X109959699Y-99086611D01*
X109965002Y-99088889D01*
X109965005Y-99088891D01*
X110139189Y-99163726D01*
X110150091Y-99168410D01*
X110280263Y-99197865D01*
X110334060Y-99210038D01*
X110352201Y-99214143D01*
X110357972Y-99214370D01*
X110357974Y-99214370D01*
X110427210Y-99217090D01*
X110559262Y-99222278D01*
X110652475Y-99208763D01*
X110758616Y-99193374D01*
X110758621Y-99193373D01*
X110764337Y-99192544D01*
X110769809Y-99190686D01*
X110769811Y-99190686D01*
X110955096Y-99127790D01*
X110955098Y-99127789D01*
X110960560Y-99125935D01*
X111124797Y-99033958D01*
X111136322Y-99027504D01*
X111136323Y-99027503D01*
X111141359Y-99024683D01*
X111145798Y-99020991D01*
X111145804Y-99020987D01*
X111169548Y-99001239D01*
X111234712Y-98973057D01*
X111304767Y-98984580D01*
X111320116Y-98993344D01*
X111459699Y-99086611D01*
X111465002Y-99088889D01*
X111465005Y-99088891D01*
X111639189Y-99163726D01*
X111650091Y-99168410D01*
X111780263Y-99197865D01*
X111834060Y-99210038D01*
X111852201Y-99214143D01*
X111857972Y-99214370D01*
X111857974Y-99214370D01*
X111927210Y-99217090D01*
X112059262Y-99222278D01*
X112152475Y-99208763D01*
X112258616Y-99193374D01*
X112258621Y-99193373D01*
X112264337Y-99192544D01*
X112269809Y-99190686D01*
X112269811Y-99190686D01*
X112455096Y-99127790D01*
X112455098Y-99127789D01*
X112460560Y-99125935D01*
X112624797Y-99033958D01*
X112636322Y-99027504D01*
X112636323Y-99027503D01*
X112641359Y-99024683D01*
X112647714Y-99019398D01*
X112796246Y-98895864D01*
X112800678Y-98892178D01*
X112878894Y-98798134D01*
X132241500Y-98798134D01*
X132248255Y-98860316D01*
X132299385Y-98996705D01*
X132386739Y-99113261D01*
X132503295Y-99200615D01*
X132639684Y-99251745D01*
X132701866Y-99258500D01*
X133998134Y-99258500D01*
X134060316Y-99251745D01*
X134196705Y-99200615D01*
X134244162Y-99165048D01*
X134310666Y-99140201D01*
X134369463Y-99150108D01*
X134500671Y-99206480D01*
X134500680Y-99206483D01*
X134505987Y-99208763D01*
X134564712Y-99222051D01*
X134699055Y-99252450D01*
X134699060Y-99252451D01*
X134704692Y-99253725D01*
X134710463Y-99253952D01*
X134710465Y-99253952D01*
X134773470Y-99256427D01*
X134908263Y-99261723D01*
X135109883Y-99232490D01*
X135115347Y-99230635D01*
X135115352Y-99230634D01*
X135297327Y-99168862D01*
X135297332Y-99168860D01*
X135302799Y-99167004D01*
X135308653Y-99163726D01*
X135371835Y-99128342D01*
X135480551Y-99067458D01*
X135484994Y-99063762D01*
X135484998Y-99063760D01*
X135501107Y-99050362D01*
X135518307Y-99036056D01*
X135583470Y-99007875D01*
X135653525Y-99019398D01*
X135668877Y-99028164D01*
X135818803Y-99128342D01*
X135824106Y-99130620D01*
X135824109Y-99130622D01*
X136000673Y-99206480D01*
X136005987Y-99208763D01*
X136064712Y-99222051D01*
X136199055Y-99252450D01*
X136199060Y-99252451D01*
X136204692Y-99253725D01*
X136210463Y-99253952D01*
X136210465Y-99253952D01*
X136273470Y-99256427D01*
X136408263Y-99261723D01*
X136609883Y-99232490D01*
X136615347Y-99230635D01*
X136615352Y-99230634D01*
X136797327Y-99168862D01*
X136797332Y-99168860D01*
X136802799Y-99167004D01*
X136808653Y-99163726D01*
X136871835Y-99128342D01*
X136980551Y-99067458D01*
X136984994Y-99063762D01*
X136984998Y-99063760D01*
X137001107Y-99050362D01*
X137018307Y-99036056D01*
X137083470Y-99007875D01*
X137153525Y-99019398D01*
X137168877Y-99028164D01*
X137318803Y-99128342D01*
X137324106Y-99130620D01*
X137324109Y-99130622D01*
X137500673Y-99206480D01*
X137505987Y-99208763D01*
X137564712Y-99222051D01*
X137699055Y-99252450D01*
X137699060Y-99252451D01*
X137704692Y-99253725D01*
X137710463Y-99253952D01*
X137710465Y-99253952D01*
X137773470Y-99256427D01*
X137908263Y-99261723D01*
X138109883Y-99232490D01*
X138115347Y-99230635D01*
X138115352Y-99230634D01*
X138297327Y-99168862D01*
X138297332Y-99168860D01*
X138302799Y-99167004D01*
X138308653Y-99163726D01*
X138371835Y-99128342D01*
X138480551Y-99067458D01*
X138518709Y-99035722D01*
X138583872Y-99007542D01*
X138653927Y-99019065D01*
X138669279Y-99027832D01*
X138814239Y-99124691D01*
X138824349Y-99130181D01*
X139000835Y-99206005D01*
X139011778Y-99209560D01*
X139199120Y-99251952D01*
X139210530Y-99253454D01*
X139402469Y-99260995D01*
X139413951Y-99260393D01*
X139604045Y-99232832D01*
X139615240Y-99230144D01*
X139797131Y-99168400D01*
X139807628Y-99163726D01*
X139975233Y-99069863D01*
X139984698Y-99063358D01*
X140017874Y-99035766D01*
X140083039Y-99007586D01*
X140153094Y-99019110D01*
X140168445Y-99027876D01*
X140278209Y-99101218D01*
X140318803Y-99128342D01*
X140324106Y-99130620D01*
X140324109Y-99130622D01*
X140500673Y-99206480D01*
X140505987Y-99208763D01*
X140564712Y-99222051D01*
X140699055Y-99252450D01*
X140699060Y-99252451D01*
X140704692Y-99253725D01*
X140710463Y-99253952D01*
X140710465Y-99253952D01*
X140773470Y-99256427D01*
X140908263Y-99261723D01*
X141109883Y-99232490D01*
X141115347Y-99230635D01*
X141115352Y-99230634D01*
X141297327Y-99168862D01*
X141297332Y-99168860D01*
X141302799Y-99167004D01*
X141308653Y-99163726D01*
X141371835Y-99128342D01*
X141480551Y-99067458D01*
X141484994Y-99063762D01*
X141484998Y-99063760D01*
X141501107Y-99050362D01*
X141518307Y-99036056D01*
X141583470Y-99007875D01*
X141653525Y-99019398D01*
X141668877Y-99028164D01*
X141818803Y-99128342D01*
X141824106Y-99130620D01*
X141824109Y-99130622D01*
X142000673Y-99206480D01*
X142005987Y-99208763D01*
X142064712Y-99222051D01*
X142199055Y-99252450D01*
X142199060Y-99252451D01*
X142204692Y-99253725D01*
X142210463Y-99253952D01*
X142210465Y-99253952D01*
X142273470Y-99256427D01*
X142408263Y-99261723D01*
X142609883Y-99232490D01*
X142615347Y-99230635D01*
X142615352Y-99230634D01*
X142797327Y-99168862D01*
X142797332Y-99168860D01*
X142802799Y-99167004D01*
X142808653Y-99163726D01*
X142871835Y-99128342D01*
X142980551Y-99067458D01*
X143137186Y-98937186D01*
X143255122Y-98795384D01*
X151687500Y-98795384D01*
X151694255Y-98857566D01*
X151745385Y-98993955D01*
X151832739Y-99110511D01*
X151949295Y-99197865D01*
X152085684Y-99248995D01*
X152147866Y-99255750D01*
X153452134Y-99255750D01*
X153514316Y-99248995D01*
X153650705Y-99197865D01*
X153696403Y-99163616D01*
X153762909Y-99138768D01*
X153821705Y-99148674D01*
X153864370Y-99167004D01*
X153943537Y-99201017D01*
X153954746Y-99205833D01*
X154051772Y-99227788D01*
X154148532Y-99249683D01*
X154148535Y-99249683D01*
X154154168Y-99250958D01*
X154159939Y-99251185D01*
X154159941Y-99251185D01*
X154222646Y-99253648D01*
X154358473Y-99258985D01*
X154477344Y-99241750D01*
X154555099Y-99230476D01*
X154555103Y-99230475D01*
X154560821Y-99229646D01*
X154566293Y-99227788D01*
X154566295Y-99227788D01*
X154675592Y-99190686D01*
X154754433Y-99163923D01*
X154769065Y-99155729D01*
X154813896Y-99130622D01*
X154932826Y-99064018D01*
X154950985Y-99048915D01*
X154968568Y-99034292D01*
X155033732Y-99006111D01*
X155103788Y-99017635D01*
X155119138Y-99026400D01*
X155266887Y-99125122D01*
X155272190Y-99127400D01*
X155272193Y-99127402D01*
X155448329Y-99203076D01*
X155454746Y-99205833D01*
X155551772Y-99227788D01*
X155648532Y-99249683D01*
X155648535Y-99249683D01*
X155654168Y-99250958D01*
X155659939Y-99251185D01*
X155659941Y-99251185D01*
X155722646Y-99253648D01*
X155858473Y-99258985D01*
X155977344Y-99241750D01*
X156055099Y-99230476D01*
X156055103Y-99230475D01*
X156060821Y-99229646D01*
X156066293Y-99227788D01*
X156066295Y-99227788D01*
X156175592Y-99190686D01*
X156254433Y-99163923D01*
X156269065Y-99155729D01*
X156313896Y-99130622D01*
X156432826Y-99064018D01*
X156450985Y-99048915D01*
X156468568Y-99034292D01*
X156533732Y-99006111D01*
X156603788Y-99017635D01*
X156619138Y-99026400D01*
X156766887Y-99125122D01*
X156772190Y-99127400D01*
X156772193Y-99127402D01*
X156948329Y-99203076D01*
X156954746Y-99205833D01*
X157051772Y-99227788D01*
X157148532Y-99249683D01*
X157148535Y-99249683D01*
X157154168Y-99250958D01*
X157159939Y-99251185D01*
X157159941Y-99251185D01*
X157222646Y-99253648D01*
X157358473Y-99258985D01*
X157477344Y-99241750D01*
X157555099Y-99230476D01*
X157555103Y-99230475D01*
X157560821Y-99229646D01*
X157566293Y-99227788D01*
X157566295Y-99227788D01*
X157675592Y-99190686D01*
X157754433Y-99163923D01*
X157769065Y-99155729D01*
X157813896Y-99130622D01*
X157932826Y-99064018D01*
X157950985Y-99048915D01*
X157968568Y-99034292D01*
X158033732Y-99006111D01*
X158103788Y-99017635D01*
X158119138Y-99026400D01*
X158266887Y-99125122D01*
X158272190Y-99127400D01*
X158272193Y-99127402D01*
X158448329Y-99203076D01*
X158454746Y-99205833D01*
X158551772Y-99227788D01*
X158648532Y-99249683D01*
X158648535Y-99249683D01*
X158654168Y-99250958D01*
X158659939Y-99251185D01*
X158659941Y-99251185D01*
X158722646Y-99253648D01*
X158858473Y-99258985D01*
X158977344Y-99241750D01*
X159055099Y-99230476D01*
X159055103Y-99230475D01*
X159060821Y-99229646D01*
X159066293Y-99227788D01*
X159066295Y-99227788D01*
X159175592Y-99190686D01*
X159254433Y-99163923D01*
X159269065Y-99155729D01*
X159313896Y-99130622D01*
X159432826Y-99064018D01*
X159450985Y-99048915D01*
X159468568Y-99034292D01*
X159533732Y-99006111D01*
X159603788Y-99017635D01*
X159619138Y-99026400D01*
X159766887Y-99125122D01*
X159772190Y-99127400D01*
X159772193Y-99127402D01*
X159948329Y-99203076D01*
X159954746Y-99205833D01*
X160051772Y-99227788D01*
X160148532Y-99249683D01*
X160148535Y-99249683D01*
X160154168Y-99250958D01*
X160159939Y-99251185D01*
X160159941Y-99251185D01*
X160222646Y-99253648D01*
X160358473Y-99258985D01*
X160477344Y-99241750D01*
X160555099Y-99230476D01*
X160555103Y-99230475D01*
X160560821Y-99229646D01*
X160566293Y-99227788D01*
X160566295Y-99227788D01*
X160675592Y-99190686D01*
X160754433Y-99163923D01*
X160769065Y-99155729D01*
X160813896Y-99130622D01*
X160932826Y-99064018D01*
X160968970Y-99033957D01*
X161034132Y-99005777D01*
X161104188Y-99017300D01*
X161119540Y-99026067D01*
X161262322Y-99121471D01*
X161272432Y-99126961D01*
X161449594Y-99203076D01*
X161460537Y-99206631D01*
X161648596Y-99249185D01*
X161660006Y-99250687D01*
X161852679Y-99258257D01*
X161864161Y-99257655D01*
X162054989Y-99229987D01*
X162066172Y-99227302D01*
X162248757Y-99165323D01*
X162259270Y-99160642D01*
X162427500Y-99066428D01*
X162436990Y-99059906D01*
X162468134Y-99034003D01*
X162533298Y-99005821D01*
X162603353Y-99017344D01*
X162618704Y-99026110D01*
X162766887Y-99125122D01*
X162772190Y-99127400D01*
X162772193Y-99127402D01*
X162948329Y-99203076D01*
X162954746Y-99205833D01*
X163051772Y-99227788D01*
X163148532Y-99249683D01*
X163148535Y-99249683D01*
X163154168Y-99250958D01*
X163159939Y-99251185D01*
X163159941Y-99251185D01*
X163222646Y-99253648D01*
X163358473Y-99258985D01*
X163477344Y-99241750D01*
X163555099Y-99230476D01*
X163555103Y-99230475D01*
X163560821Y-99229646D01*
X163566293Y-99227788D01*
X163566295Y-99227788D01*
X163675592Y-99190686D01*
X163754433Y-99163923D01*
X163769065Y-99155729D01*
X163813896Y-99130622D01*
X163932826Y-99064018D01*
X163950985Y-99048915D01*
X163968568Y-99034292D01*
X164033732Y-99006111D01*
X164103788Y-99017635D01*
X164119138Y-99026400D01*
X164266887Y-99125122D01*
X164272190Y-99127400D01*
X164272193Y-99127402D01*
X164448329Y-99203076D01*
X164454746Y-99205833D01*
X164551772Y-99227788D01*
X164648532Y-99249683D01*
X164648535Y-99249683D01*
X164654168Y-99250958D01*
X164659939Y-99251185D01*
X164659941Y-99251185D01*
X164722646Y-99253648D01*
X164858473Y-99258985D01*
X164977344Y-99241750D01*
X165055099Y-99230476D01*
X165055103Y-99230475D01*
X165060821Y-99229646D01*
X165066293Y-99227788D01*
X165066295Y-99227788D01*
X165175592Y-99190686D01*
X165254433Y-99163923D01*
X165269065Y-99155729D01*
X165313896Y-99130622D01*
X165432826Y-99064018D01*
X165590026Y-98933276D01*
X165720768Y-98776076D01*
X165820673Y-98597683D01*
X165863503Y-98471512D01*
X165884538Y-98409545D01*
X165884538Y-98409543D01*
X165886396Y-98404071D01*
X165896032Y-98337616D01*
X165914254Y-98211937D01*
X165915735Y-98201723D01*
X165917266Y-98143250D01*
X165898557Y-97939644D01*
X165890467Y-97910957D01*
X165846935Y-97756606D01*
X165843058Y-97742858D01*
X165752626Y-97559480D01*
X165709604Y-97501866D01*
X165633743Y-97400277D01*
X165633743Y-97400276D01*
X165630290Y-97395653D01*
X165515762Y-97289784D01*
X165484388Y-97260782D01*
X165484385Y-97260780D01*
X165480148Y-97256863D01*
X165307228Y-97147759D01*
X165299624Y-97144725D01*
X165210678Y-97109239D01*
X165117321Y-97071993D01*
X165111653Y-97070866D01*
X165111651Y-97070865D01*
X164922454Y-97033232D01*
X164922450Y-97033232D01*
X164916786Y-97032105D01*
X164911011Y-97032029D01*
X164911007Y-97032029D01*
X164808466Y-97030687D01*
X164712340Y-97029428D01*
X164706643Y-97030407D01*
X164706642Y-97030407D01*
X164631767Y-97043273D01*
X164510830Y-97064054D01*
X164319005Y-97134822D01*
X164314044Y-97137774D01*
X164314043Y-97137774D01*
X164166094Y-97225795D01*
X164143288Y-97239363D01*
X164135256Y-97246407D01*
X164133852Y-97247638D01*
X164069447Y-97277514D01*
X163999115Y-97267827D01*
X163980316Y-97256596D01*
X163980148Y-97256863D01*
X163919519Y-97218609D01*
X163807228Y-97147759D01*
X163799624Y-97144725D01*
X163710678Y-97109239D01*
X163617321Y-97071993D01*
X163611653Y-97070866D01*
X163611651Y-97070865D01*
X163422454Y-97033232D01*
X163422450Y-97033232D01*
X163416786Y-97032105D01*
X163411011Y-97032029D01*
X163411007Y-97032029D01*
X163308466Y-97030687D01*
X163212340Y-97029428D01*
X163206643Y-97030407D01*
X163206642Y-97030407D01*
X163131767Y-97043273D01*
X163010830Y-97064054D01*
X162819005Y-97134822D01*
X162814044Y-97137774D01*
X162814043Y-97137774D01*
X162666094Y-97225795D01*
X162643288Y-97239363D01*
X162635256Y-97246407D01*
X162633469Y-97247974D01*
X162569065Y-97277851D01*
X162498732Y-97268165D01*
X162480017Y-97256986D01*
X162479843Y-97257262D01*
X162311880Y-97151285D01*
X162301637Y-97146067D01*
X162122547Y-97074617D01*
X162111511Y-97071348D01*
X161922400Y-97033731D01*
X161910955Y-97032528D01*
X161718162Y-97030005D01*
X161706682Y-97030908D01*
X161516657Y-97063560D01*
X161505537Y-97066540D01*
X161324637Y-97133277D01*
X161314259Y-97138227D01*
X161148548Y-97236815D01*
X161139245Y-97243574D01*
X161134260Y-97247946D01*
X161069856Y-97277823D01*
X160999523Y-97268139D01*
X160980284Y-97256647D01*
X160980148Y-97256863D01*
X160919519Y-97218609D01*
X160807228Y-97147759D01*
X160799624Y-97144725D01*
X160710678Y-97109239D01*
X160617321Y-97071993D01*
X160611653Y-97070866D01*
X160611651Y-97070865D01*
X160422454Y-97033232D01*
X160422450Y-97033232D01*
X160416786Y-97032105D01*
X160411011Y-97032029D01*
X160411007Y-97032029D01*
X160308466Y-97030687D01*
X160212340Y-97029428D01*
X160206643Y-97030407D01*
X160206642Y-97030407D01*
X160131767Y-97043273D01*
X160010830Y-97064054D01*
X159819005Y-97134822D01*
X159814044Y-97137774D01*
X159814043Y-97137774D01*
X159666094Y-97225795D01*
X159643288Y-97239363D01*
X159635256Y-97246407D01*
X159633852Y-97247638D01*
X159569447Y-97277514D01*
X159499115Y-97267827D01*
X159480316Y-97256596D01*
X159480148Y-97256863D01*
X159419519Y-97218609D01*
X159307228Y-97147759D01*
X159299624Y-97144725D01*
X159210678Y-97109239D01*
X159117321Y-97071993D01*
X159111653Y-97070866D01*
X159111651Y-97070865D01*
X158922454Y-97033232D01*
X158922450Y-97033232D01*
X158916786Y-97032105D01*
X158911011Y-97032029D01*
X158911007Y-97032029D01*
X158808466Y-97030687D01*
X158712340Y-97029428D01*
X158706643Y-97030407D01*
X158706642Y-97030407D01*
X158631767Y-97043273D01*
X158510830Y-97064054D01*
X158319005Y-97134822D01*
X158314044Y-97137774D01*
X158314043Y-97137774D01*
X158166094Y-97225795D01*
X158143288Y-97239363D01*
X158135256Y-97246407D01*
X158133852Y-97247638D01*
X158069447Y-97277514D01*
X157999115Y-97267827D01*
X157980316Y-97256596D01*
X157980148Y-97256863D01*
X157919519Y-97218609D01*
X157807228Y-97147759D01*
X157799624Y-97144725D01*
X157710678Y-97109239D01*
X157617321Y-97071993D01*
X157611653Y-97070866D01*
X157611651Y-97070865D01*
X157422454Y-97033232D01*
X157422450Y-97033232D01*
X157416786Y-97032105D01*
X157411011Y-97032029D01*
X157411007Y-97032029D01*
X157308466Y-97030687D01*
X157212340Y-97029428D01*
X157206643Y-97030407D01*
X157206642Y-97030407D01*
X157131767Y-97043273D01*
X157010830Y-97064054D01*
X156819005Y-97134822D01*
X156814044Y-97137774D01*
X156814043Y-97137774D01*
X156666094Y-97225795D01*
X156643288Y-97239363D01*
X156635256Y-97246407D01*
X156633852Y-97247638D01*
X156569447Y-97277514D01*
X156499115Y-97267827D01*
X156480316Y-97256596D01*
X156480148Y-97256863D01*
X156419519Y-97218609D01*
X156307228Y-97147759D01*
X156299624Y-97144725D01*
X156210678Y-97109239D01*
X156117321Y-97071993D01*
X156111653Y-97070866D01*
X156111651Y-97070865D01*
X155922454Y-97033232D01*
X155922450Y-97033232D01*
X155916786Y-97032105D01*
X155911011Y-97032029D01*
X155911007Y-97032029D01*
X155808466Y-97030687D01*
X155712340Y-97029428D01*
X155706643Y-97030407D01*
X155706642Y-97030407D01*
X155631767Y-97043273D01*
X155510830Y-97064054D01*
X155319005Y-97134822D01*
X155314044Y-97137774D01*
X155314043Y-97137774D01*
X155166094Y-97225795D01*
X155143288Y-97239363D01*
X155135256Y-97246407D01*
X155133852Y-97247638D01*
X155069447Y-97277514D01*
X154999115Y-97267827D01*
X154980316Y-97256596D01*
X154980148Y-97256863D01*
X154919519Y-97218609D01*
X154807228Y-97147759D01*
X154799624Y-97144725D01*
X154710678Y-97109239D01*
X154617321Y-97071993D01*
X154611653Y-97070866D01*
X154611651Y-97070865D01*
X154422454Y-97033232D01*
X154422450Y-97033232D01*
X154416786Y-97032105D01*
X154411011Y-97032029D01*
X154411007Y-97032029D01*
X154308466Y-97030687D01*
X154212340Y-97029428D01*
X154206643Y-97030407D01*
X154206642Y-97030407D01*
X154131767Y-97043273D01*
X154010830Y-97064054D01*
X153822410Y-97133566D01*
X153822409Y-97133566D01*
X153819005Y-97134822D01*
X153818758Y-97134153D01*
X153752999Y-97144725D01*
X153693293Y-97120553D01*
X153671017Y-97103858D01*
X153650705Y-97088635D01*
X153514316Y-97037505D01*
X153452134Y-97030750D01*
X152147866Y-97030750D01*
X152085684Y-97037505D01*
X151949295Y-97088635D01*
X151832739Y-97175989D01*
X151745385Y-97292545D01*
X151694255Y-97428934D01*
X151687500Y-97491116D01*
X151687500Y-98795384D01*
X143255122Y-98795384D01*
X143267458Y-98780551D01*
X143367004Y-98602799D01*
X143368860Y-98597332D01*
X143368862Y-98597327D01*
X143430634Y-98415352D01*
X143430635Y-98415347D01*
X143432490Y-98409883D01*
X143461723Y-98208263D01*
X143463249Y-98150000D01*
X143444608Y-97947126D01*
X143423808Y-97873376D01*
X143390875Y-97756606D01*
X143390874Y-97756604D01*
X143389307Y-97751047D01*
X143375959Y-97723978D01*
X143301756Y-97573510D01*
X143299201Y-97568329D01*
X143280796Y-97543681D01*
X143180758Y-97409715D01*
X143180758Y-97409714D01*
X143177305Y-97405091D01*
X143067183Y-97303295D01*
X143031943Y-97270719D01*
X143031940Y-97270717D01*
X143027703Y-97266800D01*
X142962714Y-97225795D01*
X142860288Y-97161169D01*
X142860283Y-97161167D01*
X142855404Y-97158088D01*
X142666180Y-97082595D01*
X142489255Y-97047402D01*
X142472032Y-97043976D01*
X142472031Y-97043976D01*
X142466366Y-97042849D01*
X142460592Y-97042773D01*
X142460588Y-97042773D01*
X142357452Y-97041424D01*
X142262655Y-97040183D01*
X142256958Y-97041162D01*
X142256957Y-97041162D01*
X142074999Y-97072428D01*
X142061870Y-97074684D01*
X141870734Y-97145198D01*
X141865773Y-97148150D01*
X141865772Y-97148150D01*
X141700617Y-97246407D01*
X141700614Y-97246409D01*
X141695649Y-97249363D01*
X141691307Y-97253171D01*
X141691304Y-97253173D01*
X141684014Y-97259567D01*
X141619611Y-97289446D01*
X141549278Y-97279763D01*
X141527937Y-97267016D01*
X141527703Y-97266800D01*
X141506112Y-97253177D01*
X141360288Y-97161169D01*
X141360283Y-97161167D01*
X141355404Y-97158088D01*
X141166180Y-97082595D01*
X140989255Y-97047402D01*
X140972032Y-97043976D01*
X140972031Y-97043976D01*
X140966366Y-97042849D01*
X140960592Y-97042773D01*
X140960588Y-97042773D01*
X140857452Y-97041424D01*
X140762655Y-97040183D01*
X140756958Y-97041162D01*
X140756957Y-97041162D01*
X140574999Y-97072428D01*
X140561870Y-97074684D01*
X140370734Y-97145198D01*
X140365773Y-97148150D01*
X140365772Y-97148150D01*
X140200617Y-97246407D01*
X140200614Y-97246409D01*
X140195649Y-97249363D01*
X140191305Y-97253173D01*
X140191299Y-97253177D01*
X140183626Y-97259906D01*
X140119222Y-97289784D01*
X140048889Y-97280098D01*
X140023841Y-97265135D01*
X140022517Y-97264119D01*
X139860057Y-97161614D01*
X139849814Y-97156396D01*
X139671401Y-97085216D01*
X139660373Y-97081949D01*
X139471982Y-97044476D01*
X139460535Y-97043273D01*
X139268477Y-97040759D01*
X139256997Y-97041662D01*
X139067697Y-97074190D01*
X139056577Y-97077170D01*
X138876366Y-97143653D01*
X138865988Y-97148603D01*
X138700912Y-97246813D01*
X138691593Y-97253583D01*
X138684416Y-97259878D01*
X138620012Y-97289756D01*
X138549679Y-97280072D01*
X138528144Y-97267208D01*
X138527703Y-97266800D01*
X138511954Y-97256863D01*
X138360288Y-97161169D01*
X138360283Y-97161167D01*
X138355404Y-97158088D01*
X138166180Y-97082595D01*
X137989255Y-97047402D01*
X137972032Y-97043976D01*
X137972031Y-97043976D01*
X137966366Y-97042849D01*
X137960592Y-97042773D01*
X137960588Y-97042773D01*
X137857452Y-97041424D01*
X137762655Y-97040183D01*
X137756958Y-97041162D01*
X137756957Y-97041162D01*
X137574999Y-97072428D01*
X137561870Y-97074684D01*
X137370734Y-97145198D01*
X137365773Y-97148150D01*
X137365772Y-97148150D01*
X137200617Y-97246407D01*
X137200614Y-97246409D01*
X137195649Y-97249363D01*
X137191307Y-97253171D01*
X137191304Y-97253173D01*
X137184014Y-97259567D01*
X137119611Y-97289446D01*
X137049278Y-97279763D01*
X137027937Y-97267016D01*
X137027703Y-97266800D01*
X137006112Y-97253177D01*
X136860288Y-97161169D01*
X136860283Y-97161167D01*
X136855404Y-97158088D01*
X136666180Y-97082595D01*
X136489255Y-97047402D01*
X136472032Y-97043976D01*
X136472031Y-97043976D01*
X136466366Y-97042849D01*
X136460592Y-97042773D01*
X136460588Y-97042773D01*
X136357452Y-97041424D01*
X136262655Y-97040183D01*
X136256958Y-97041162D01*
X136256957Y-97041162D01*
X136074999Y-97072428D01*
X136061870Y-97074684D01*
X135870734Y-97145198D01*
X135865773Y-97148150D01*
X135865772Y-97148150D01*
X135700617Y-97246407D01*
X135700614Y-97246409D01*
X135695649Y-97249363D01*
X135691307Y-97253171D01*
X135691304Y-97253173D01*
X135684014Y-97259567D01*
X135619611Y-97289446D01*
X135549278Y-97279763D01*
X135527937Y-97267016D01*
X135527703Y-97266800D01*
X135506112Y-97253177D01*
X135360288Y-97161169D01*
X135360283Y-97161167D01*
X135355404Y-97158088D01*
X135166180Y-97082595D01*
X134989255Y-97047402D01*
X134972032Y-97043976D01*
X134972031Y-97043976D01*
X134966366Y-97042849D01*
X134960592Y-97042773D01*
X134960588Y-97042773D01*
X134857452Y-97041424D01*
X134762655Y-97040183D01*
X134756958Y-97041162D01*
X134756957Y-97041162D01*
X134574999Y-97072428D01*
X134561870Y-97074684D01*
X134370734Y-97145198D01*
X134369598Y-97145874D01*
X134300931Y-97156918D01*
X134241215Y-97132744D01*
X134203892Y-97104771D01*
X134203890Y-97104770D01*
X134196705Y-97099385D01*
X134060316Y-97048255D01*
X133998134Y-97041500D01*
X132701866Y-97041500D01*
X132639684Y-97048255D01*
X132503295Y-97099385D01*
X132386739Y-97186739D01*
X132299385Y-97303295D01*
X132248255Y-97439684D01*
X132241500Y-97501866D01*
X132241500Y-98798134D01*
X112878894Y-98798134D01*
X112933183Y-98732859D01*
X113034435Y-98552060D01*
X113040736Y-98533500D01*
X113099186Y-98361311D01*
X113099186Y-98361309D01*
X113101044Y-98355837D01*
X113101873Y-98350121D01*
X113101874Y-98350116D01*
X113122866Y-98205328D01*
X113130778Y-98150762D01*
X113132330Y-98091500D01*
X113117865Y-97934080D01*
X113113898Y-97890903D01*
X113113897Y-97890900D01*
X113113369Y-97885149D01*
X113108861Y-97869162D01*
X113058689Y-97691268D01*
X113058688Y-97691266D01*
X113057121Y-97685709D01*
X113040956Y-97652928D01*
X112968025Y-97505040D01*
X112965470Y-97499859D01*
X112893265Y-97403164D01*
X112844938Y-97338447D01*
X112844937Y-97338446D01*
X112841485Y-97333823D01*
X112739299Y-97239363D01*
X112693559Y-97197081D01*
X112693556Y-97197079D01*
X112689319Y-97193162D01*
X112630338Y-97155948D01*
X112518951Y-97085668D01*
X112518946Y-97085666D01*
X112514067Y-97082587D01*
X112321599Y-97005800D01*
X112118361Y-96965373D01*
X112112587Y-96965297D01*
X112112583Y-96965297D01*
X112007399Y-96963921D01*
X111911158Y-96962661D01*
X111905461Y-96963640D01*
X111905460Y-96963640D01*
X111712628Y-96996774D01*
X111712627Y-96996774D01*
X111706931Y-96997753D01*
X111512519Y-97069476D01*
X111507558Y-97072428D01*
X111507557Y-97072428D01*
X111363576Y-97158088D01*
X111334433Y-97175426D01*
X111330089Y-97179235D01*
X111325417Y-97182630D01*
X111324169Y-97180912D01*
X111268259Y-97206834D01*
X111197929Y-97197132D01*
X111182379Y-97188783D01*
X111018951Y-97085668D01*
X111018946Y-97085666D01*
X111014067Y-97082587D01*
X110821599Y-97005800D01*
X110618361Y-96965373D01*
X110612587Y-96965297D01*
X110612583Y-96965297D01*
X110507399Y-96963921D01*
X110411158Y-96962661D01*
X110405461Y-96963640D01*
X110405460Y-96963640D01*
X110212628Y-96996774D01*
X110212627Y-96996774D01*
X110206931Y-96997753D01*
X110012519Y-97069476D01*
X110007558Y-97072428D01*
X110007557Y-97072428D01*
X109863576Y-97158088D01*
X109834433Y-97175426D01*
X109830089Y-97179235D01*
X109825417Y-97182630D01*
X109824169Y-97180912D01*
X109768259Y-97206834D01*
X109697929Y-97197132D01*
X109682379Y-97188783D01*
X109518951Y-97085668D01*
X109518946Y-97085666D01*
X109514067Y-97082587D01*
X109321599Y-97005800D01*
X109118361Y-96965373D01*
X109112587Y-96965297D01*
X109112583Y-96965297D01*
X109007399Y-96963921D01*
X108911158Y-96962661D01*
X108905461Y-96963640D01*
X108905460Y-96963640D01*
X108712628Y-96996774D01*
X108712627Y-96996774D01*
X108706931Y-96997753D01*
X108512519Y-97069476D01*
X108507558Y-97072428D01*
X108507557Y-97072428D01*
X108363576Y-97158088D01*
X108334433Y-97175426D01*
X108330089Y-97179235D01*
X108325417Y-97182630D01*
X108324169Y-97180912D01*
X108268259Y-97206834D01*
X108197929Y-97197132D01*
X108182379Y-97188783D01*
X108018951Y-97085668D01*
X108018946Y-97085666D01*
X108014067Y-97082587D01*
X107821599Y-97005800D01*
X107618361Y-96965373D01*
X107612587Y-96965297D01*
X107612583Y-96965297D01*
X107507399Y-96963921D01*
X107411158Y-96962661D01*
X107405461Y-96963640D01*
X107405460Y-96963640D01*
X107212628Y-96996774D01*
X107212627Y-96996774D01*
X107206931Y-96997753D01*
X107029870Y-97063075D01*
X107021006Y-97066345D01*
X106950173Y-97071157D01*
X106901830Y-97048959D01*
X106872892Y-97027271D01*
X106872890Y-97027270D01*
X106865705Y-97021885D01*
X106729316Y-96970755D01*
X106667134Y-96964000D01*
X105332866Y-96964000D01*
X105270684Y-96970755D01*
X105134295Y-97021885D01*
X105017739Y-97109239D01*
X104930385Y-97225795D01*
X104879255Y-97362184D01*
X104872500Y-97424366D01*
X104872500Y-98758634D01*
X88758000Y-98758634D01*
X88758000Y-96900000D01*
X145911526Y-96900000D01*
X145931391Y-97152403D01*
X145932545Y-97157210D01*
X145932546Y-97157216D01*
X145963311Y-97285359D01*
X145990495Y-97398591D01*
X145992388Y-97403162D01*
X145992389Y-97403164D01*
X146062949Y-97573510D01*
X146087384Y-97632502D01*
X146219672Y-97848376D01*
X146384102Y-98040898D01*
X146576624Y-98205328D01*
X146792498Y-98337616D01*
X146797068Y-98339509D01*
X146797072Y-98339511D01*
X147019212Y-98431524D01*
X147026409Y-98434505D01*
X147111032Y-98454821D01*
X147267784Y-98492454D01*
X147267790Y-98492455D01*
X147272597Y-98493609D01*
X147372416Y-98501465D01*
X147459345Y-98508307D01*
X147459352Y-98508307D01*
X147461801Y-98508500D01*
X147588199Y-98508500D01*
X147590648Y-98508307D01*
X147590655Y-98508307D01*
X147677584Y-98501465D01*
X147777403Y-98493609D01*
X147782210Y-98492455D01*
X147782216Y-98492454D01*
X147938968Y-98454821D01*
X148023591Y-98434505D01*
X148030788Y-98431524D01*
X148252928Y-98339511D01*
X148252932Y-98339509D01*
X148257502Y-98337616D01*
X148473376Y-98205328D01*
X148665898Y-98040898D01*
X148830328Y-97848376D01*
X148962616Y-97632502D01*
X148987052Y-97573510D01*
X149057611Y-97403164D01*
X149057612Y-97403162D01*
X149059505Y-97398591D01*
X149086689Y-97285359D01*
X149117454Y-97157216D01*
X149117455Y-97157210D01*
X149118609Y-97152403D01*
X149136506Y-96925000D01*
X168786526Y-96925000D01*
X168806391Y-97177403D01*
X168807545Y-97182210D01*
X168807546Y-97182216D01*
X168836052Y-97300953D01*
X168865495Y-97423591D01*
X168867388Y-97428162D01*
X168867389Y-97428164D01*
X168953777Y-97636722D01*
X168962384Y-97657502D01*
X169094672Y-97873376D01*
X169259102Y-98065898D01*
X169451624Y-98230328D01*
X169667498Y-98362616D01*
X169672068Y-98364509D01*
X169672072Y-98364511D01*
X169896836Y-98457611D01*
X169901409Y-98459505D01*
X169986032Y-98479821D01*
X170142784Y-98517454D01*
X170142790Y-98517455D01*
X170147597Y-98518609D01*
X170247416Y-98526465D01*
X170334345Y-98533307D01*
X170334352Y-98533307D01*
X170336801Y-98533500D01*
X170463199Y-98533500D01*
X170465648Y-98533307D01*
X170465655Y-98533307D01*
X170552584Y-98526465D01*
X170652403Y-98518609D01*
X170657210Y-98517455D01*
X170657216Y-98517454D01*
X170813968Y-98479821D01*
X170898591Y-98459505D01*
X170903164Y-98457611D01*
X171127928Y-98364511D01*
X171127932Y-98364509D01*
X171132502Y-98362616D01*
X171348376Y-98230328D01*
X171540898Y-98065898D01*
X171705328Y-97873376D01*
X171837616Y-97657502D01*
X171846224Y-97636722D01*
X171932611Y-97428164D01*
X171932612Y-97428162D01*
X171934505Y-97423591D01*
X171963948Y-97300953D01*
X171992454Y-97182216D01*
X171992455Y-97182210D01*
X171993609Y-97177403D01*
X172013474Y-96925000D01*
X171993609Y-96672597D01*
X171987608Y-96647597D01*
X171935660Y-96431221D01*
X171934505Y-96426409D01*
X171924150Y-96401409D01*
X171839511Y-96197072D01*
X171839509Y-96197068D01*
X171837616Y-96192498D01*
X171705328Y-95976624D01*
X171540898Y-95784102D01*
X171348376Y-95619672D01*
X171132502Y-95487384D01*
X171127932Y-95485491D01*
X171127928Y-95485489D01*
X170903164Y-95392389D01*
X170903162Y-95392388D01*
X170898591Y-95390495D01*
X170789647Y-95364340D01*
X170657216Y-95332546D01*
X170657210Y-95332545D01*
X170652403Y-95331391D01*
X170552584Y-95323535D01*
X170465655Y-95316693D01*
X170465648Y-95316693D01*
X170463199Y-95316500D01*
X170336801Y-95316500D01*
X170334352Y-95316693D01*
X170334345Y-95316693D01*
X170247416Y-95323535D01*
X170147597Y-95331391D01*
X170142790Y-95332545D01*
X170142784Y-95332546D01*
X170010353Y-95364340D01*
X169901409Y-95390495D01*
X169896838Y-95392388D01*
X169896836Y-95392389D01*
X169672072Y-95485489D01*
X169672068Y-95485491D01*
X169667498Y-95487384D01*
X169451624Y-95619672D01*
X169259102Y-95784102D01*
X169094672Y-95976624D01*
X168962384Y-96192498D01*
X168960491Y-96197068D01*
X168960489Y-96197072D01*
X168875850Y-96401409D01*
X168865495Y-96426409D01*
X168864340Y-96431221D01*
X168812393Y-96647597D01*
X168806391Y-96672597D01*
X168786526Y-96925000D01*
X149136506Y-96925000D01*
X149138474Y-96900000D01*
X149118609Y-96647597D01*
X149059505Y-96401409D01*
X148974866Y-96197072D01*
X148964511Y-96172072D01*
X148964509Y-96172068D01*
X148962616Y-96167498D01*
X148830328Y-95951624D01*
X148665898Y-95759102D01*
X148473376Y-95594672D01*
X148257502Y-95462384D01*
X148252932Y-95460491D01*
X148252928Y-95460489D01*
X148028164Y-95367389D01*
X148028162Y-95367388D01*
X148023591Y-95365495D01*
X147938968Y-95345179D01*
X147782216Y-95307546D01*
X147782210Y-95307545D01*
X147777403Y-95306391D01*
X147677584Y-95298535D01*
X147590655Y-95291693D01*
X147590648Y-95291693D01*
X147588199Y-95291500D01*
X147461801Y-95291500D01*
X147459352Y-95291693D01*
X147459345Y-95291693D01*
X147372416Y-95298535D01*
X147272597Y-95306391D01*
X147267790Y-95307545D01*
X147267784Y-95307546D01*
X147111032Y-95345179D01*
X147026409Y-95365495D01*
X147021838Y-95367388D01*
X147021836Y-95367389D01*
X146797072Y-95460489D01*
X146797068Y-95460491D01*
X146792498Y-95462384D01*
X146576624Y-95594672D01*
X146384102Y-95759102D01*
X146219672Y-95951624D01*
X146087384Y-96167498D01*
X146085491Y-96172068D01*
X146085489Y-96172072D01*
X146075134Y-96197072D01*
X145990495Y-96401409D01*
X145931391Y-96647597D01*
X145911526Y-96900000D01*
X88758000Y-96900000D01*
X88758000Y-92000000D01*
X90920026Y-92000000D01*
X90939891Y-92252403D01*
X90941045Y-92257210D01*
X90941046Y-92257216D01*
X90947048Y-92282216D01*
X90998995Y-92498591D01*
X91000888Y-92503162D01*
X91000889Y-92503164D01*
X91011245Y-92528164D01*
X91095884Y-92732502D01*
X91228172Y-92948376D01*
X91392602Y-93140898D01*
X91585124Y-93305328D01*
X91800998Y-93437616D01*
X91805568Y-93439509D01*
X91805572Y-93439511D01*
X91861353Y-93462616D01*
X92034909Y-93534505D01*
X92119532Y-93554821D01*
X92276284Y-93592454D01*
X92276290Y-93592455D01*
X92281097Y-93593609D01*
X92380916Y-93601465D01*
X92467845Y-93608307D01*
X92467852Y-93608307D01*
X92470301Y-93608500D01*
X92596699Y-93608500D01*
X92599148Y-93608307D01*
X92599155Y-93608307D01*
X92686084Y-93601465D01*
X92785903Y-93593609D01*
X92790710Y-93592455D01*
X92790716Y-93592454D01*
X92947468Y-93554821D01*
X93032091Y-93534505D01*
X93205647Y-93462616D01*
X93261428Y-93439511D01*
X93261432Y-93439509D01*
X93266002Y-93437616D01*
X93481876Y-93305328D01*
X93674398Y-93140898D01*
X93838828Y-92948376D01*
X93971116Y-92732502D01*
X94055756Y-92528164D01*
X94066111Y-92503164D01*
X94066112Y-92503162D01*
X94068005Y-92498591D01*
X94119952Y-92282216D01*
X94125954Y-92257216D01*
X94125955Y-92257210D01*
X94127109Y-92252403D01*
X94145006Y-92025000D01*
X114170026Y-92025000D01*
X114189891Y-92277403D01*
X114248995Y-92523591D01*
X114250888Y-92528162D01*
X114250889Y-92528164D01*
X114337277Y-92736722D01*
X114345884Y-92757502D01*
X114478172Y-92973376D01*
X114642602Y-93165898D01*
X114835124Y-93330328D01*
X115050998Y-93462616D01*
X115055568Y-93464509D01*
X115055572Y-93464511D01*
X115280336Y-93557611D01*
X115284909Y-93559505D01*
X115369532Y-93579821D01*
X115526284Y-93617454D01*
X115526290Y-93617455D01*
X115531097Y-93618609D01*
X115630916Y-93626465D01*
X115717845Y-93633307D01*
X115717852Y-93633307D01*
X115720301Y-93633500D01*
X115846699Y-93633500D01*
X115849148Y-93633307D01*
X115849155Y-93633307D01*
X115936084Y-93626465D01*
X116035903Y-93618609D01*
X116040710Y-93617455D01*
X116040716Y-93617454D01*
X116197468Y-93579821D01*
X116282091Y-93559505D01*
X116286664Y-93557611D01*
X116511428Y-93464511D01*
X116511432Y-93464509D01*
X116516002Y-93462616D01*
X116731876Y-93330328D01*
X116924398Y-93165898D01*
X117088828Y-92973376D01*
X117221116Y-92757502D01*
X117229724Y-92736722D01*
X117316111Y-92528164D01*
X117316112Y-92528162D01*
X117318005Y-92523591D01*
X117377109Y-92277403D01*
X117396974Y-92025000D01*
X117377109Y-91772597D01*
X117375118Y-91764300D01*
X117319160Y-91531221D01*
X117318005Y-91526409D01*
X117307650Y-91501409D01*
X117223011Y-91297072D01*
X117223009Y-91297068D01*
X117221116Y-91292498D01*
X117088828Y-91076624D01*
X116955058Y-90920000D01*
X122758502Y-90920000D01*
X122778457Y-91148087D01*
X122779881Y-91153400D01*
X122779881Y-91153402D01*
X122817025Y-91292022D01*
X122837716Y-91369243D01*
X122840039Y-91374224D01*
X122840039Y-91374225D01*
X122932151Y-91571762D01*
X122932154Y-91571767D01*
X122934477Y-91576749D01*
X123065802Y-91764300D01*
X123227700Y-91926198D01*
X123232208Y-91929355D01*
X123232211Y-91929357D01*
X123310389Y-91984098D01*
X123415251Y-92057523D01*
X123420233Y-92059846D01*
X123420238Y-92059849D01*
X123616765Y-92151490D01*
X123622757Y-92154284D01*
X123628065Y-92155706D01*
X123628067Y-92155707D01*
X123838598Y-92212119D01*
X123838600Y-92212119D01*
X123843913Y-92213543D01*
X124072000Y-92233498D01*
X124300087Y-92213543D01*
X124305400Y-92212119D01*
X124305402Y-92212119D01*
X124515933Y-92155707D01*
X124515935Y-92155706D01*
X124521243Y-92154284D01*
X124527235Y-92151490D01*
X124723762Y-92059849D01*
X124723767Y-92059846D01*
X124728749Y-92057523D01*
X124833611Y-91984098D01*
X124911789Y-91929357D01*
X124911792Y-91929355D01*
X124916300Y-91926198D01*
X125078198Y-91764300D01*
X125209523Y-91576749D01*
X125211846Y-91571767D01*
X125211849Y-91571762D01*
X125227805Y-91537543D01*
X125274722Y-91484258D01*
X125342999Y-91464797D01*
X125410959Y-91485339D01*
X125456195Y-91537543D01*
X125472151Y-91571762D01*
X125472154Y-91571767D01*
X125474477Y-91576749D01*
X125605802Y-91764300D01*
X125767700Y-91926198D01*
X125772208Y-91929355D01*
X125772211Y-91929357D01*
X125850389Y-91984098D01*
X125955251Y-92057523D01*
X125960233Y-92059846D01*
X125960238Y-92059849D01*
X126156765Y-92151490D01*
X126162757Y-92154284D01*
X126168065Y-92155706D01*
X126168067Y-92155707D01*
X126378598Y-92212119D01*
X126378600Y-92212119D01*
X126383913Y-92213543D01*
X126612000Y-92233498D01*
X126840087Y-92213543D01*
X126845400Y-92212119D01*
X126845402Y-92212119D01*
X127055933Y-92155707D01*
X127055935Y-92155706D01*
X127061243Y-92154284D01*
X127067235Y-92151490D01*
X127263762Y-92059849D01*
X127263767Y-92059846D01*
X127268749Y-92057523D01*
X127342243Y-92006062D01*
X128430493Y-92006062D01*
X128439789Y-92018077D01*
X128490994Y-92053931D01*
X128500489Y-92059414D01*
X128697947Y-92151490D01*
X128708239Y-92155236D01*
X128918688Y-92211625D01*
X128929481Y-92213528D01*
X129146525Y-92232517D01*
X129157475Y-92232517D01*
X129374519Y-92213528D01*
X129385312Y-92211625D01*
X129595761Y-92155236D01*
X129606053Y-92151490D01*
X129803511Y-92059414D01*
X129813006Y-92053931D01*
X129865048Y-92017491D01*
X129873424Y-92007012D01*
X129866356Y-91993566D01*
X129164812Y-91292022D01*
X129150868Y-91284408D01*
X129149035Y-91284539D01*
X129142420Y-91288790D01*
X128436923Y-91994287D01*
X128430493Y-92006062D01*
X127342243Y-92006062D01*
X127373611Y-91984098D01*
X127451789Y-91929357D01*
X127451792Y-91929355D01*
X127456300Y-91926198D01*
X127618198Y-91764300D01*
X127749523Y-91576749D01*
X127751846Y-91571767D01*
X127751849Y-91571762D01*
X127768081Y-91536951D01*
X127814998Y-91483666D01*
X127883275Y-91464205D01*
X127951235Y-91484747D01*
X127996471Y-91536951D01*
X128012586Y-91571511D01*
X128018069Y-91581006D01*
X128054509Y-91633048D01*
X128064988Y-91641424D01*
X128078434Y-91634356D01*
X128779978Y-90932812D01*
X128786356Y-90921132D01*
X129516408Y-90921132D01*
X129516539Y-90922965D01*
X129520790Y-90929580D01*
X130226287Y-91635077D01*
X130238062Y-91641507D01*
X130250077Y-91632211D01*
X130285931Y-91581006D01*
X130291414Y-91571511D01*
X130307529Y-91536951D01*
X130354446Y-91483666D01*
X130422723Y-91464205D01*
X130490683Y-91484747D01*
X130535919Y-91536951D01*
X130552151Y-91571762D01*
X130552154Y-91571767D01*
X130554477Y-91576749D01*
X130685802Y-91764300D01*
X130847700Y-91926198D01*
X130852208Y-91929355D01*
X130852211Y-91929357D01*
X130930389Y-91984098D01*
X131035251Y-92057523D01*
X131040233Y-92059846D01*
X131040238Y-92059849D01*
X131236765Y-92151490D01*
X131242757Y-92154284D01*
X131248065Y-92155706D01*
X131248067Y-92155707D01*
X131458598Y-92212119D01*
X131458600Y-92212119D01*
X131463913Y-92213543D01*
X131692000Y-92233498D01*
X131920087Y-92213543D01*
X131925400Y-92212119D01*
X131925402Y-92212119D01*
X132135933Y-92155707D01*
X132135935Y-92155706D01*
X132141243Y-92154284D01*
X132147235Y-92151490D01*
X132343762Y-92059849D01*
X132343767Y-92059846D01*
X132348749Y-92057523D01*
X132453611Y-91984098D01*
X132531789Y-91929357D01*
X132531792Y-91929355D01*
X132536300Y-91926198D01*
X132698198Y-91764300D01*
X132829523Y-91576749D01*
X132831846Y-91571767D01*
X132831849Y-91571762D01*
X132847805Y-91537543D01*
X132894722Y-91484258D01*
X132962999Y-91464797D01*
X133030959Y-91485339D01*
X133076195Y-91537543D01*
X133092151Y-91571762D01*
X133092154Y-91571767D01*
X133094477Y-91576749D01*
X133225802Y-91764300D01*
X133387700Y-91926198D01*
X133392208Y-91929355D01*
X133392211Y-91929357D01*
X133470389Y-91984098D01*
X133575251Y-92057523D01*
X133580233Y-92059846D01*
X133580238Y-92059849D01*
X133776765Y-92151490D01*
X133782757Y-92154284D01*
X133788065Y-92155706D01*
X133788067Y-92155707D01*
X133998598Y-92212119D01*
X133998600Y-92212119D01*
X134003913Y-92213543D01*
X134232000Y-92233498D01*
X134460087Y-92213543D01*
X134465400Y-92212119D01*
X134465402Y-92212119D01*
X134675933Y-92155707D01*
X134675935Y-92155706D01*
X134681243Y-92154284D01*
X134687235Y-92151490D01*
X134883762Y-92059849D01*
X134883767Y-92059846D01*
X134888749Y-92057523D01*
X134993611Y-91984098D01*
X135071789Y-91929357D01*
X135071792Y-91929355D01*
X135076300Y-91926198D01*
X135238198Y-91764300D01*
X135369523Y-91576749D01*
X135371846Y-91571767D01*
X135371849Y-91571762D01*
X135387805Y-91537543D01*
X135434722Y-91484258D01*
X135502999Y-91464797D01*
X135570959Y-91485339D01*
X135616195Y-91537543D01*
X135632151Y-91571762D01*
X135632154Y-91571767D01*
X135634477Y-91576749D01*
X135765802Y-91764300D01*
X135927700Y-91926198D01*
X135932208Y-91929355D01*
X135932211Y-91929357D01*
X136010389Y-91984098D01*
X136115251Y-92057523D01*
X136120233Y-92059846D01*
X136120238Y-92059849D01*
X136316765Y-92151490D01*
X136322757Y-92154284D01*
X136328065Y-92155706D01*
X136328067Y-92155707D01*
X136538598Y-92212119D01*
X136538600Y-92212119D01*
X136543913Y-92213543D01*
X136772000Y-92233498D01*
X137000087Y-92213543D01*
X137005400Y-92212119D01*
X137005402Y-92212119D01*
X137215933Y-92155707D01*
X137215935Y-92155706D01*
X137221243Y-92154284D01*
X137227235Y-92151490D01*
X137423762Y-92059849D01*
X137423767Y-92059846D01*
X137428749Y-92057523D01*
X137533611Y-91984098D01*
X137611789Y-91929357D01*
X137611792Y-91929355D01*
X137616300Y-91926198D01*
X137778198Y-91764300D01*
X137909523Y-91576749D01*
X137911846Y-91571767D01*
X137911849Y-91571762D01*
X137927805Y-91537543D01*
X137974722Y-91484258D01*
X138042999Y-91464797D01*
X138110959Y-91485339D01*
X138156195Y-91537543D01*
X138172151Y-91571762D01*
X138172154Y-91571767D01*
X138174477Y-91576749D01*
X138305802Y-91764300D01*
X138467700Y-91926198D01*
X138472208Y-91929355D01*
X138472211Y-91929357D01*
X138550389Y-91984098D01*
X138655251Y-92057523D01*
X138660233Y-92059846D01*
X138660238Y-92059849D01*
X138856765Y-92151490D01*
X138862757Y-92154284D01*
X138868065Y-92155706D01*
X138868067Y-92155707D01*
X139078598Y-92212119D01*
X139078600Y-92212119D01*
X139083913Y-92213543D01*
X139312000Y-92233498D01*
X139540087Y-92213543D01*
X139545400Y-92212119D01*
X139545402Y-92212119D01*
X139755933Y-92155707D01*
X139755935Y-92155706D01*
X139761243Y-92154284D01*
X139767235Y-92151490D01*
X139963762Y-92059849D01*
X139963767Y-92059846D01*
X139968749Y-92057523D01*
X140042243Y-92006062D01*
X141130493Y-92006062D01*
X141139789Y-92018077D01*
X141190994Y-92053931D01*
X141200489Y-92059414D01*
X141397947Y-92151490D01*
X141408239Y-92155236D01*
X141618688Y-92211625D01*
X141629481Y-92213528D01*
X141846525Y-92232517D01*
X141857475Y-92232517D01*
X142074519Y-92213528D01*
X142085312Y-92211625D01*
X142295761Y-92155236D01*
X142306053Y-92151490D01*
X142503511Y-92059414D01*
X142513006Y-92053931D01*
X142565048Y-92017491D01*
X142573424Y-92007012D01*
X142566356Y-91993566D01*
X141864812Y-91292022D01*
X141850868Y-91284408D01*
X141849035Y-91284539D01*
X141842420Y-91288790D01*
X141136923Y-91994287D01*
X141130493Y-92006062D01*
X140042243Y-92006062D01*
X140073611Y-91984098D01*
X140151789Y-91929357D01*
X140151792Y-91929355D01*
X140156300Y-91926198D01*
X140318198Y-91764300D01*
X140449523Y-91576749D01*
X140451846Y-91571767D01*
X140451849Y-91571762D01*
X140468081Y-91536951D01*
X140514998Y-91483666D01*
X140583275Y-91464205D01*
X140651235Y-91484747D01*
X140696471Y-91536951D01*
X140712586Y-91571511D01*
X140718069Y-91581006D01*
X140754509Y-91633048D01*
X140764988Y-91641424D01*
X140778434Y-91634356D01*
X141479978Y-90932812D01*
X141486356Y-90921132D01*
X142216408Y-90921132D01*
X142216539Y-90922965D01*
X142220790Y-90929580D01*
X142926287Y-91635077D01*
X142938062Y-91641507D01*
X142950077Y-91632211D01*
X142985931Y-91581006D01*
X142991414Y-91571511D01*
X143007529Y-91536951D01*
X143054446Y-91483666D01*
X143122723Y-91464205D01*
X143190683Y-91484747D01*
X143235919Y-91536951D01*
X143252151Y-91571762D01*
X143252154Y-91571767D01*
X143254477Y-91576749D01*
X143385802Y-91764300D01*
X143547700Y-91926198D01*
X143552208Y-91929355D01*
X143552211Y-91929357D01*
X143630389Y-91984098D01*
X143735251Y-92057523D01*
X143740233Y-92059846D01*
X143740238Y-92059849D01*
X143936765Y-92151490D01*
X143942757Y-92154284D01*
X143948065Y-92155706D01*
X143948067Y-92155707D01*
X144158598Y-92212119D01*
X144158600Y-92212119D01*
X144163913Y-92213543D01*
X144392000Y-92233498D01*
X144620087Y-92213543D01*
X144625400Y-92212119D01*
X144625402Y-92212119D01*
X144835933Y-92155707D01*
X144835935Y-92155706D01*
X144841243Y-92154284D01*
X144847235Y-92151490D01*
X145043762Y-92059849D01*
X145043767Y-92059846D01*
X145048749Y-92057523D01*
X145153611Y-91984098D01*
X145231789Y-91929357D01*
X145231792Y-91929355D01*
X145236300Y-91926198D01*
X145398198Y-91764300D01*
X145529523Y-91576749D01*
X145531846Y-91571767D01*
X145531849Y-91571762D01*
X145547805Y-91537543D01*
X145594722Y-91484258D01*
X145662999Y-91464797D01*
X145730959Y-91485339D01*
X145776195Y-91537543D01*
X145792151Y-91571762D01*
X145792154Y-91571767D01*
X145794477Y-91576749D01*
X145925802Y-91764300D01*
X146087700Y-91926198D01*
X146092208Y-91929355D01*
X146092211Y-91929357D01*
X146170389Y-91984098D01*
X146275251Y-92057523D01*
X146280233Y-92059846D01*
X146280238Y-92059849D01*
X146476765Y-92151490D01*
X146482757Y-92154284D01*
X146488065Y-92155706D01*
X146488067Y-92155707D01*
X146698598Y-92212119D01*
X146698600Y-92212119D01*
X146703913Y-92213543D01*
X146932000Y-92233498D01*
X147160087Y-92213543D01*
X147165400Y-92212119D01*
X147165402Y-92212119D01*
X147375933Y-92155707D01*
X147375935Y-92155706D01*
X147381243Y-92154284D01*
X147387235Y-92151490D01*
X147583762Y-92059849D01*
X147583767Y-92059846D01*
X147588749Y-92057523D01*
X147693611Y-91984098D01*
X147771789Y-91929357D01*
X147771792Y-91929355D01*
X147776300Y-91926198D01*
X147938198Y-91764300D01*
X148069523Y-91576749D01*
X148071846Y-91571767D01*
X148071849Y-91571762D01*
X148087805Y-91537543D01*
X148134722Y-91484258D01*
X148202999Y-91464797D01*
X148270959Y-91485339D01*
X148316195Y-91537543D01*
X148332151Y-91571762D01*
X148332154Y-91571767D01*
X148334477Y-91576749D01*
X148465802Y-91764300D01*
X148627700Y-91926198D01*
X148632208Y-91929355D01*
X148632211Y-91929357D01*
X148710389Y-91984098D01*
X148815251Y-92057523D01*
X148820233Y-92059846D01*
X148820238Y-92059849D01*
X149016765Y-92151490D01*
X149022757Y-92154284D01*
X149028065Y-92155706D01*
X149028067Y-92155707D01*
X149238598Y-92212119D01*
X149238600Y-92212119D01*
X149243913Y-92213543D01*
X149472000Y-92233498D01*
X149700087Y-92213543D01*
X149705400Y-92212119D01*
X149705402Y-92212119D01*
X149915933Y-92155707D01*
X149915935Y-92155706D01*
X149921243Y-92154284D01*
X149927235Y-92151490D01*
X150123762Y-92059849D01*
X150123767Y-92059846D01*
X150128749Y-92057523D01*
X150233611Y-91984098D01*
X150311789Y-91929357D01*
X150311792Y-91929355D01*
X150316300Y-91926198D01*
X150478198Y-91764300D01*
X150609523Y-91576749D01*
X150611846Y-91571767D01*
X150611849Y-91571762D01*
X150627805Y-91537543D01*
X150674722Y-91484258D01*
X150742999Y-91464797D01*
X150810959Y-91485339D01*
X150856195Y-91537543D01*
X150872151Y-91571762D01*
X150872154Y-91571767D01*
X150874477Y-91576749D01*
X151005802Y-91764300D01*
X151167700Y-91926198D01*
X151172208Y-91929355D01*
X151172211Y-91929357D01*
X151250389Y-91984098D01*
X151355251Y-92057523D01*
X151360233Y-92059846D01*
X151360238Y-92059849D01*
X151556765Y-92151490D01*
X151562757Y-92154284D01*
X151568065Y-92155706D01*
X151568067Y-92155707D01*
X151778598Y-92212119D01*
X151778600Y-92212119D01*
X151783913Y-92213543D01*
X152012000Y-92233498D01*
X152240087Y-92213543D01*
X152245400Y-92212119D01*
X152245402Y-92212119D01*
X152455933Y-92155707D01*
X152455935Y-92155706D01*
X152461243Y-92154284D01*
X152467235Y-92151490D01*
X152663762Y-92059849D01*
X152663767Y-92059846D01*
X152668749Y-92057523D01*
X152742243Y-92006062D01*
X153830493Y-92006062D01*
X153839789Y-92018077D01*
X153890994Y-92053931D01*
X153900489Y-92059414D01*
X154097947Y-92151490D01*
X154108239Y-92155236D01*
X154318688Y-92211625D01*
X154329481Y-92213528D01*
X154546525Y-92232517D01*
X154557475Y-92232517D01*
X154774519Y-92213528D01*
X154785312Y-92211625D01*
X154995761Y-92155236D01*
X155006053Y-92151490D01*
X155203511Y-92059414D01*
X155213006Y-92053931D01*
X155265048Y-92017491D01*
X155273424Y-92007012D01*
X155266356Y-91993566D01*
X154564812Y-91292022D01*
X154550868Y-91284408D01*
X154549035Y-91284539D01*
X154542420Y-91288790D01*
X153836923Y-91994287D01*
X153830493Y-92006062D01*
X152742243Y-92006062D01*
X152773611Y-91984098D01*
X152851789Y-91929357D01*
X152851792Y-91929355D01*
X152856300Y-91926198D01*
X153018198Y-91764300D01*
X153149523Y-91576749D01*
X153151846Y-91571767D01*
X153151849Y-91571762D01*
X153168081Y-91536951D01*
X153214998Y-91483666D01*
X153283275Y-91464205D01*
X153351235Y-91484747D01*
X153396471Y-91536951D01*
X153412586Y-91571511D01*
X153418069Y-91581006D01*
X153454509Y-91633048D01*
X153464988Y-91641424D01*
X153478434Y-91634356D01*
X154179978Y-90932812D01*
X154187592Y-90918868D01*
X154187461Y-90917035D01*
X154183210Y-90910420D01*
X153477713Y-90204923D01*
X153465938Y-90198493D01*
X153453923Y-90207789D01*
X153418069Y-90258994D01*
X153412586Y-90268489D01*
X153396471Y-90303049D01*
X153349554Y-90356334D01*
X153281277Y-90375795D01*
X153213317Y-90355253D01*
X153168081Y-90303049D01*
X153151849Y-90268238D01*
X153151846Y-90268233D01*
X153149523Y-90263251D01*
X153018198Y-90075700D01*
X152856300Y-89913802D01*
X152851792Y-89910645D01*
X152851789Y-89910643D01*
X152740886Y-89832988D01*
X153830576Y-89832988D01*
X153837644Y-89846434D01*
X154539188Y-90547978D01*
X154553132Y-90555592D01*
X154554965Y-90555461D01*
X154561580Y-90551210D01*
X155267077Y-89845713D01*
X155273507Y-89833938D01*
X155264211Y-89821923D01*
X155213006Y-89786069D01*
X155203511Y-89780586D01*
X155006053Y-89688510D01*
X154995761Y-89684764D01*
X154785312Y-89628375D01*
X154774519Y-89626472D01*
X154557475Y-89607483D01*
X154546525Y-89607483D01*
X154329481Y-89626472D01*
X154318688Y-89628375D01*
X154108239Y-89684764D01*
X154097947Y-89688510D01*
X153900489Y-89780586D01*
X153890994Y-89786069D01*
X153838952Y-89822509D01*
X153830576Y-89832988D01*
X152740886Y-89832988D01*
X152725920Y-89822509D01*
X152668749Y-89782477D01*
X152663767Y-89780154D01*
X152663762Y-89780151D01*
X152466225Y-89688039D01*
X152466224Y-89688039D01*
X152461243Y-89685716D01*
X152455935Y-89684294D01*
X152455933Y-89684293D01*
X152245402Y-89627881D01*
X152245400Y-89627881D01*
X152240087Y-89626457D01*
X152012000Y-89606502D01*
X151783913Y-89626457D01*
X151778600Y-89627881D01*
X151778598Y-89627881D01*
X151568067Y-89684293D01*
X151568065Y-89684294D01*
X151562757Y-89685716D01*
X151557776Y-89688039D01*
X151557775Y-89688039D01*
X151360238Y-89780151D01*
X151360233Y-89780154D01*
X151355251Y-89782477D01*
X151298080Y-89822509D01*
X151172211Y-89910643D01*
X151172208Y-89910645D01*
X151167700Y-89913802D01*
X151005802Y-90075700D01*
X150874477Y-90263251D01*
X150872154Y-90268233D01*
X150872151Y-90268238D01*
X150856195Y-90302457D01*
X150809278Y-90355742D01*
X150741001Y-90375203D01*
X150673041Y-90354661D01*
X150627805Y-90302457D01*
X150611849Y-90268238D01*
X150611846Y-90268233D01*
X150609523Y-90263251D01*
X150478198Y-90075700D01*
X150316300Y-89913802D01*
X150311792Y-89910645D01*
X150311789Y-89910643D01*
X150185920Y-89822509D01*
X150128749Y-89782477D01*
X150123767Y-89780154D01*
X150123762Y-89780151D01*
X149926225Y-89688039D01*
X149926224Y-89688039D01*
X149921243Y-89685716D01*
X149915935Y-89684294D01*
X149915933Y-89684293D01*
X149705402Y-89627881D01*
X149705400Y-89627881D01*
X149700087Y-89626457D01*
X149472000Y-89606502D01*
X149243913Y-89626457D01*
X149238600Y-89627881D01*
X149238598Y-89627881D01*
X149028067Y-89684293D01*
X149028065Y-89684294D01*
X149022757Y-89685716D01*
X149017776Y-89688039D01*
X149017775Y-89688039D01*
X148820238Y-89780151D01*
X148820233Y-89780154D01*
X148815251Y-89782477D01*
X148758080Y-89822509D01*
X148632211Y-89910643D01*
X148632208Y-89910645D01*
X148627700Y-89913802D01*
X148465802Y-90075700D01*
X148334477Y-90263251D01*
X148332154Y-90268233D01*
X148332151Y-90268238D01*
X148316195Y-90302457D01*
X148269278Y-90355742D01*
X148201001Y-90375203D01*
X148133041Y-90354661D01*
X148087805Y-90302457D01*
X148071849Y-90268238D01*
X148071846Y-90268233D01*
X148069523Y-90263251D01*
X147938198Y-90075700D01*
X147776300Y-89913802D01*
X147771792Y-89910645D01*
X147771789Y-89910643D01*
X147645920Y-89822509D01*
X147588749Y-89782477D01*
X147583767Y-89780154D01*
X147583762Y-89780151D01*
X147386225Y-89688039D01*
X147386224Y-89688039D01*
X147381243Y-89685716D01*
X147375935Y-89684294D01*
X147375933Y-89684293D01*
X147165402Y-89627881D01*
X147165400Y-89627881D01*
X147160087Y-89626457D01*
X146932000Y-89606502D01*
X146703913Y-89626457D01*
X146698600Y-89627881D01*
X146698598Y-89627881D01*
X146488067Y-89684293D01*
X146488065Y-89684294D01*
X146482757Y-89685716D01*
X146477776Y-89688039D01*
X146477775Y-89688039D01*
X146280238Y-89780151D01*
X146280233Y-89780154D01*
X146275251Y-89782477D01*
X146218080Y-89822509D01*
X146092211Y-89910643D01*
X146092208Y-89910645D01*
X146087700Y-89913802D01*
X145925802Y-90075700D01*
X145794477Y-90263251D01*
X145792154Y-90268233D01*
X145792151Y-90268238D01*
X145776195Y-90302457D01*
X145729278Y-90355742D01*
X145661001Y-90375203D01*
X145593041Y-90354661D01*
X145547805Y-90302457D01*
X145531849Y-90268238D01*
X145531846Y-90268233D01*
X145529523Y-90263251D01*
X145398198Y-90075700D01*
X145236300Y-89913802D01*
X145231792Y-89910645D01*
X145231789Y-89910643D01*
X145105920Y-89822509D01*
X145048749Y-89782477D01*
X145043767Y-89780154D01*
X145043762Y-89780151D01*
X144846225Y-89688039D01*
X144846224Y-89688039D01*
X144841243Y-89685716D01*
X144835935Y-89684294D01*
X144835933Y-89684293D01*
X144625402Y-89627881D01*
X144625400Y-89627881D01*
X144620087Y-89626457D01*
X144392000Y-89606502D01*
X144163913Y-89626457D01*
X144158600Y-89627881D01*
X144158598Y-89627881D01*
X143948067Y-89684293D01*
X143948065Y-89684294D01*
X143942757Y-89685716D01*
X143937776Y-89688039D01*
X143937775Y-89688039D01*
X143740238Y-89780151D01*
X143740233Y-89780154D01*
X143735251Y-89782477D01*
X143678080Y-89822509D01*
X143552211Y-89910643D01*
X143552208Y-89910645D01*
X143547700Y-89913802D01*
X143385802Y-90075700D01*
X143254477Y-90263251D01*
X143252154Y-90268233D01*
X143252151Y-90268238D01*
X143235919Y-90303049D01*
X143189002Y-90356334D01*
X143120725Y-90375795D01*
X143052765Y-90355253D01*
X143007529Y-90303049D01*
X142991414Y-90268489D01*
X142985931Y-90258994D01*
X142949491Y-90206952D01*
X142939012Y-90198576D01*
X142925566Y-90205644D01*
X142224022Y-90907188D01*
X142216408Y-90921132D01*
X141486356Y-90921132D01*
X141487592Y-90918868D01*
X141487461Y-90917035D01*
X141483210Y-90910420D01*
X140777713Y-90204923D01*
X140765938Y-90198493D01*
X140753923Y-90207789D01*
X140718069Y-90258994D01*
X140712586Y-90268489D01*
X140696471Y-90303049D01*
X140649554Y-90356334D01*
X140581277Y-90375795D01*
X140513317Y-90355253D01*
X140468081Y-90303049D01*
X140451849Y-90268238D01*
X140451846Y-90268233D01*
X140449523Y-90263251D01*
X140318198Y-90075700D01*
X140156300Y-89913802D01*
X140151792Y-89910645D01*
X140151789Y-89910643D01*
X140040886Y-89832988D01*
X141130576Y-89832988D01*
X141137644Y-89846434D01*
X141839188Y-90547978D01*
X141853132Y-90555592D01*
X141854965Y-90555461D01*
X141861580Y-90551210D01*
X142567077Y-89845713D01*
X142573507Y-89833938D01*
X142564211Y-89821923D01*
X142513006Y-89786069D01*
X142503511Y-89780586D01*
X142306053Y-89688510D01*
X142295761Y-89684764D01*
X142085312Y-89628375D01*
X142074519Y-89626472D01*
X141857475Y-89607483D01*
X141846525Y-89607483D01*
X141629481Y-89626472D01*
X141618688Y-89628375D01*
X141408239Y-89684764D01*
X141397947Y-89688510D01*
X141200489Y-89780586D01*
X141190994Y-89786069D01*
X141138952Y-89822509D01*
X141130576Y-89832988D01*
X140040886Y-89832988D01*
X140025920Y-89822509D01*
X139968749Y-89782477D01*
X139963767Y-89780154D01*
X139963762Y-89780151D01*
X139766225Y-89688039D01*
X139766224Y-89688039D01*
X139761243Y-89685716D01*
X139755935Y-89684294D01*
X139755933Y-89684293D01*
X139545402Y-89627881D01*
X139545400Y-89627881D01*
X139540087Y-89626457D01*
X139312000Y-89606502D01*
X139083913Y-89626457D01*
X139078600Y-89627881D01*
X139078598Y-89627881D01*
X138868067Y-89684293D01*
X138868065Y-89684294D01*
X138862757Y-89685716D01*
X138857776Y-89688039D01*
X138857775Y-89688039D01*
X138660238Y-89780151D01*
X138660233Y-89780154D01*
X138655251Y-89782477D01*
X138598080Y-89822509D01*
X138472211Y-89910643D01*
X138472208Y-89910645D01*
X138467700Y-89913802D01*
X138305802Y-90075700D01*
X138174477Y-90263251D01*
X138172154Y-90268233D01*
X138172151Y-90268238D01*
X138156195Y-90302457D01*
X138109278Y-90355742D01*
X138041001Y-90375203D01*
X137973041Y-90354661D01*
X137927805Y-90302457D01*
X137911849Y-90268238D01*
X137911846Y-90268233D01*
X137909523Y-90263251D01*
X137778198Y-90075700D01*
X137616300Y-89913802D01*
X137611792Y-89910645D01*
X137611789Y-89910643D01*
X137485920Y-89822509D01*
X137428749Y-89782477D01*
X137423767Y-89780154D01*
X137423762Y-89780151D01*
X137226225Y-89688039D01*
X137226224Y-89688039D01*
X137221243Y-89685716D01*
X137215935Y-89684294D01*
X137215933Y-89684293D01*
X137005402Y-89627881D01*
X137005400Y-89627881D01*
X137000087Y-89626457D01*
X136772000Y-89606502D01*
X136543913Y-89626457D01*
X136538600Y-89627881D01*
X136538598Y-89627881D01*
X136328067Y-89684293D01*
X136328065Y-89684294D01*
X136322757Y-89685716D01*
X136317776Y-89688039D01*
X136317775Y-89688039D01*
X136120238Y-89780151D01*
X136120233Y-89780154D01*
X136115251Y-89782477D01*
X136058080Y-89822509D01*
X135932211Y-89910643D01*
X135932208Y-89910645D01*
X135927700Y-89913802D01*
X135765802Y-90075700D01*
X135634477Y-90263251D01*
X135632154Y-90268233D01*
X135632151Y-90268238D01*
X135616195Y-90302457D01*
X135569278Y-90355742D01*
X135501001Y-90375203D01*
X135433041Y-90354661D01*
X135387805Y-90302457D01*
X135371849Y-90268238D01*
X135371846Y-90268233D01*
X135369523Y-90263251D01*
X135238198Y-90075700D01*
X135076300Y-89913802D01*
X135071792Y-89910645D01*
X135071789Y-89910643D01*
X134945920Y-89822509D01*
X134888749Y-89782477D01*
X134883767Y-89780154D01*
X134883762Y-89780151D01*
X134686225Y-89688039D01*
X134686224Y-89688039D01*
X134681243Y-89685716D01*
X134675935Y-89684294D01*
X134675933Y-89684293D01*
X134465402Y-89627881D01*
X134465400Y-89627881D01*
X134460087Y-89626457D01*
X134232000Y-89606502D01*
X134003913Y-89626457D01*
X133998600Y-89627881D01*
X133998598Y-89627881D01*
X133788067Y-89684293D01*
X133788065Y-89684294D01*
X133782757Y-89685716D01*
X133777776Y-89688039D01*
X133777775Y-89688039D01*
X133580238Y-89780151D01*
X133580233Y-89780154D01*
X133575251Y-89782477D01*
X133518080Y-89822509D01*
X133392211Y-89910643D01*
X133392208Y-89910645D01*
X133387700Y-89913802D01*
X133225802Y-90075700D01*
X133094477Y-90263251D01*
X133092154Y-90268233D01*
X133092151Y-90268238D01*
X133076195Y-90302457D01*
X133029278Y-90355742D01*
X132961001Y-90375203D01*
X132893041Y-90354661D01*
X132847805Y-90302457D01*
X132831849Y-90268238D01*
X132831846Y-90268233D01*
X132829523Y-90263251D01*
X132698198Y-90075700D01*
X132536300Y-89913802D01*
X132531792Y-89910645D01*
X132531789Y-89910643D01*
X132405920Y-89822509D01*
X132348749Y-89782477D01*
X132343767Y-89780154D01*
X132343762Y-89780151D01*
X132146225Y-89688039D01*
X132146224Y-89688039D01*
X132141243Y-89685716D01*
X132135935Y-89684294D01*
X132135933Y-89684293D01*
X131925402Y-89627881D01*
X131925400Y-89627881D01*
X131920087Y-89626457D01*
X131692000Y-89606502D01*
X131463913Y-89626457D01*
X131458600Y-89627881D01*
X131458598Y-89627881D01*
X131248067Y-89684293D01*
X131248065Y-89684294D01*
X131242757Y-89685716D01*
X131237776Y-89688039D01*
X131237775Y-89688039D01*
X131040238Y-89780151D01*
X131040233Y-89780154D01*
X131035251Y-89782477D01*
X130978080Y-89822509D01*
X130852211Y-89910643D01*
X130852208Y-89910645D01*
X130847700Y-89913802D01*
X130685802Y-90075700D01*
X130554477Y-90263251D01*
X130552154Y-90268233D01*
X130552151Y-90268238D01*
X130535919Y-90303049D01*
X130489002Y-90356334D01*
X130420725Y-90375795D01*
X130352765Y-90355253D01*
X130307529Y-90303049D01*
X130291414Y-90268489D01*
X130285931Y-90258994D01*
X130249491Y-90206952D01*
X130239012Y-90198576D01*
X130225566Y-90205644D01*
X129524022Y-90907188D01*
X129516408Y-90921132D01*
X128786356Y-90921132D01*
X128787592Y-90918868D01*
X128787461Y-90917035D01*
X128783210Y-90910420D01*
X128077713Y-90204923D01*
X128065938Y-90198493D01*
X128053923Y-90207789D01*
X128018069Y-90258994D01*
X128012586Y-90268489D01*
X127996471Y-90303049D01*
X127949554Y-90356334D01*
X127881277Y-90375795D01*
X127813317Y-90355253D01*
X127768081Y-90303049D01*
X127751849Y-90268238D01*
X127751846Y-90268233D01*
X127749523Y-90263251D01*
X127618198Y-90075700D01*
X127456300Y-89913802D01*
X127451792Y-89910645D01*
X127451789Y-89910643D01*
X127340886Y-89832988D01*
X128430576Y-89832988D01*
X128437644Y-89846434D01*
X129139188Y-90547978D01*
X129153132Y-90555592D01*
X129154965Y-90555461D01*
X129161580Y-90551210D01*
X129867077Y-89845713D01*
X129873507Y-89833938D01*
X129864211Y-89821923D01*
X129813006Y-89786069D01*
X129803511Y-89780586D01*
X129606053Y-89688510D01*
X129595761Y-89684764D01*
X129385312Y-89628375D01*
X129374519Y-89626472D01*
X129157475Y-89607483D01*
X129146525Y-89607483D01*
X128929481Y-89626472D01*
X128918688Y-89628375D01*
X128708239Y-89684764D01*
X128697947Y-89688510D01*
X128500489Y-89780586D01*
X128490994Y-89786069D01*
X128438952Y-89822509D01*
X128430576Y-89832988D01*
X127340886Y-89832988D01*
X127325920Y-89822509D01*
X127268749Y-89782477D01*
X127263767Y-89780154D01*
X127263762Y-89780151D01*
X127066225Y-89688039D01*
X127066224Y-89688039D01*
X127061243Y-89685716D01*
X127055935Y-89684294D01*
X127055933Y-89684293D01*
X126845402Y-89627881D01*
X126845400Y-89627881D01*
X126840087Y-89626457D01*
X126612000Y-89606502D01*
X126383913Y-89626457D01*
X126378600Y-89627881D01*
X126378598Y-89627881D01*
X126168067Y-89684293D01*
X126168065Y-89684294D01*
X126162757Y-89685716D01*
X126157776Y-89688039D01*
X126157775Y-89688039D01*
X125960238Y-89780151D01*
X125960233Y-89780154D01*
X125955251Y-89782477D01*
X125898080Y-89822509D01*
X125772211Y-89910643D01*
X125772208Y-89910645D01*
X125767700Y-89913802D01*
X125605802Y-90075700D01*
X125474477Y-90263251D01*
X125472154Y-90268233D01*
X125472151Y-90268238D01*
X125456195Y-90302457D01*
X125409278Y-90355742D01*
X125341001Y-90375203D01*
X125273041Y-90354661D01*
X125227805Y-90302457D01*
X125211849Y-90268238D01*
X125211846Y-90268233D01*
X125209523Y-90263251D01*
X125078198Y-90075700D01*
X124916300Y-89913802D01*
X124911792Y-89910645D01*
X124911789Y-89910643D01*
X124785920Y-89822509D01*
X124728749Y-89782477D01*
X124723767Y-89780154D01*
X124723762Y-89780151D01*
X124526225Y-89688039D01*
X124526224Y-89688039D01*
X124521243Y-89685716D01*
X124515935Y-89684294D01*
X124515933Y-89684293D01*
X124305402Y-89627881D01*
X124305400Y-89627881D01*
X124300087Y-89626457D01*
X124072000Y-89606502D01*
X123843913Y-89626457D01*
X123838600Y-89627881D01*
X123838598Y-89627881D01*
X123628067Y-89684293D01*
X123628065Y-89684294D01*
X123622757Y-89685716D01*
X123617776Y-89688039D01*
X123617775Y-89688039D01*
X123420238Y-89780151D01*
X123420233Y-89780154D01*
X123415251Y-89782477D01*
X123358080Y-89822509D01*
X123232211Y-89910643D01*
X123232208Y-89910645D01*
X123227700Y-89913802D01*
X123065802Y-90075700D01*
X122934477Y-90263251D01*
X122932154Y-90268233D01*
X122932151Y-90268238D01*
X122855534Y-90432546D01*
X122837716Y-90470757D01*
X122836294Y-90476065D01*
X122836293Y-90476067D01*
X122805773Y-90589970D01*
X122778457Y-90691913D01*
X122758502Y-90920000D01*
X116955058Y-90920000D01*
X116924398Y-90884102D01*
X116731876Y-90719672D01*
X116516002Y-90587384D01*
X116511432Y-90585491D01*
X116511428Y-90585489D01*
X116286664Y-90492389D01*
X116286662Y-90492388D01*
X116282091Y-90490495D01*
X116173147Y-90464340D01*
X116040716Y-90432546D01*
X116040710Y-90432545D01*
X116035903Y-90431391D01*
X115936084Y-90423535D01*
X115849155Y-90416693D01*
X115849148Y-90416693D01*
X115846699Y-90416500D01*
X115720301Y-90416500D01*
X115717852Y-90416693D01*
X115717845Y-90416693D01*
X115630916Y-90423535D01*
X115531097Y-90431391D01*
X115526290Y-90432545D01*
X115526284Y-90432546D01*
X115393853Y-90464340D01*
X115284909Y-90490495D01*
X115280338Y-90492388D01*
X115280336Y-90492389D01*
X115055572Y-90585489D01*
X115055568Y-90585491D01*
X115050998Y-90587384D01*
X114835124Y-90719672D01*
X114642602Y-90884102D01*
X114478172Y-91076624D01*
X114345884Y-91292498D01*
X114343991Y-91297068D01*
X114343989Y-91297072D01*
X114259350Y-91501409D01*
X114248995Y-91526409D01*
X114247840Y-91531221D01*
X114191883Y-91764300D01*
X114189891Y-91772597D01*
X114170026Y-92025000D01*
X94145006Y-92025000D01*
X94146974Y-92000000D01*
X94127109Y-91747597D01*
X94101620Y-91641424D01*
X94069160Y-91506221D01*
X94068005Y-91501409D01*
X94061349Y-91485339D01*
X93973011Y-91272072D01*
X93973009Y-91272068D01*
X93971116Y-91267498D01*
X93838828Y-91051624D01*
X93674398Y-90859102D01*
X93481876Y-90694672D01*
X93266002Y-90562384D01*
X93261432Y-90560491D01*
X93261428Y-90560489D01*
X93036664Y-90467389D01*
X93036662Y-90467388D01*
X93032091Y-90465495D01*
X92947468Y-90445179D01*
X92790716Y-90407546D01*
X92790710Y-90407545D01*
X92785903Y-90406391D01*
X92686084Y-90398535D01*
X92599155Y-90391693D01*
X92599148Y-90391693D01*
X92596699Y-90391500D01*
X92470301Y-90391500D01*
X92467852Y-90391693D01*
X92467845Y-90391693D01*
X92380916Y-90398535D01*
X92281097Y-90406391D01*
X92276290Y-90407545D01*
X92276284Y-90407546D01*
X92119532Y-90445179D01*
X92034909Y-90465495D01*
X92030338Y-90467388D01*
X92030336Y-90467389D01*
X91805572Y-90560489D01*
X91805568Y-90560491D01*
X91800998Y-90562384D01*
X91585124Y-90694672D01*
X91392602Y-90859102D01*
X91228172Y-91051624D01*
X91095884Y-91267498D01*
X91093991Y-91272068D01*
X91093989Y-91272072D01*
X91005651Y-91485339D01*
X90998995Y-91501409D01*
X90997840Y-91506221D01*
X90965381Y-91641424D01*
X90939891Y-91747597D01*
X90920026Y-92000000D01*
X88758000Y-92000000D01*
X88758000Y-78850000D01*
X166111526Y-78850000D01*
X166131391Y-79102403D01*
X166190495Y-79348591D01*
X166287384Y-79582502D01*
X166419672Y-79798376D01*
X166584102Y-79990898D01*
X166776624Y-80155328D01*
X166992498Y-80287616D01*
X166997068Y-80289509D01*
X166997072Y-80289511D01*
X167221836Y-80382611D01*
X167226409Y-80384505D01*
X167311032Y-80404821D01*
X167467784Y-80442454D01*
X167467790Y-80442455D01*
X167472597Y-80443609D01*
X167572416Y-80451465D01*
X167659345Y-80458307D01*
X167659352Y-80458307D01*
X167661801Y-80458500D01*
X167788199Y-80458500D01*
X167790648Y-80458307D01*
X167790655Y-80458307D01*
X167877584Y-80451465D01*
X167977403Y-80443609D01*
X167982210Y-80442455D01*
X167982216Y-80442454D01*
X168138968Y-80404821D01*
X168223591Y-80384505D01*
X168228164Y-80382611D01*
X168452928Y-80289511D01*
X168452932Y-80289509D01*
X168457502Y-80287616D01*
X168673376Y-80155328D01*
X168865898Y-79990898D01*
X169030328Y-79798376D01*
X169162616Y-79582502D01*
X169259505Y-79348591D01*
X169318609Y-79102403D01*
X169338474Y-78850000D01*
X169318609Y-78597597D01*
X169259505Y-78351409D01*
X169162616Y-78117498D01*
X169030328Y-77901624D01*
X168865898Y-77709102D01*
X168673376Y-77544672D01*
X168457502Y-77412384D01*
X168452932Y-77410491D01*
X168452928Y-77410489D01*
X168228164Y-77317389D01*
X168228162Y-77317388D01*
X168223591Y-77315495D01*
X168138968Y-77295179D01*
X167982216Y-77257546D01*
X167982210Y-77257545D01*
X167977403Y-77256391D01*
X167877584Y-77248535D01*
X167790655Y-77241693D01*
X167790648Y-77241693D01*
X167788199Y-77241500D01*
X167661801Y-77241500D01*
X167659352Y-77241693D01*
X167659345Y-77241693D01*
X167572416Y-77248535D01*
X167472597Y-77256391D01*
X167467790Y-77257545D01*
X167467784Y-77257546D01*
X167311032Y-77295179D01*
X167226409Y-77315495D01*
X167221838Y-77317388D01*
X167221836Y-77317389D01*
X166997072Y-77410489D01*
X166997068Y-77410491D01*
X166992498Y-77412384D01*
X166776624Y-77544672D01*
X166584102Y-77709102D01*
X166419672Y-77901624D01*
X166287384Y-78117498D01*
X166190495Y-78351409D01*
X166131391Y-78597597D01*
X166111526Y-78850000D01*
X88758000Y-78850000D01*
X88758000Y-71540000D01*
X122758502Y-71540000D01*
X122778457Y-71768087D01*
X122779881Y-71773400D01*
X122779881Y-71773402D01*
X122817025Y-71912022D01*
X122837716Y-71989243D01*
X122840039Y-71994224D01*
X122840039Y-71994225D01*
X122932151Y-72191762D01*
X122932154Y-72191767D01*
X122934477Y-72196749D01*
X123065802Y-72384300D01*
X123227700Y-72546198D01*
X123232208Y-72549355D01*
X123232211Y-72549357D01*
X123310389Y-72604098D01*
X123415251Y-72677523D01*
X123420233Y-72679846D01*
X123420238Y-72679849D01*
X123616765Y-72771490D01*
X123622757Y-72774284D01*
X123628065Y-72775706D01*
X123628067Y-72775707D01*
X123838598Y-72832119D01*
X123838600Y-72832119D01*
X123843913Y-72833543D01*
X124072000Y-72853498D01*
X124300087Y-72833543D01*
X124305400Y-72832119D01*
X124305402Y-72832119D01*
X124515933Y-72775707D01*
X124515935Y-72775706D01*
X124521243Y-72774284D01*
X124527235Y-72771490D01*
X124723762Y-72679849D01*
X124723767Y-72679846D01*
X124728749Y-72677523D01*
X124833611Y-72604098D01*
X124911789Y-72549357D01*
X124911792Y-72549355D01*
X124916300Y-72546198D01*
X125078198Y-72384300D01*
X125209523Y-72196749D01*
X125211846Y-72191767D01*
X125211849Y-72191762D01*
X125227805Y-72157543D01*
X125274722Y-72104258D01*
X125342999Y-72084797D01*
X125410959Y-72105339D01*
X125456195Y-72157543D01*
X125472151Y-72191762D01*
X125472154Y-72191767D01*
X125474477Y-72196749D01*
X125605802Y-72384300D01*
X125767700Y-72546198D01*
X125772208Y-72549355D01*
X125772211Y-72549357D01*
X125850389Y-72604098D01*
X125955251Y-72677523D01*
X125960233Y-72679846D01*
X125960238Y-72679849D01*
X126156765Y-72771490D01*
X126162757Y-72774284D01*
X126168065Y-72775706D01*
X126168067Y-72775707D01*
X126378598Y-72832119D01*
X126378600Y-72832119D01*
X126383913Y-72833543D01*
X126612000Y-72853498D01*
X126840087Y-72833543D01*
X126845400Y-72832119D01*
X126845402Y-72832119D01*
X127055933Y-72775707D01*
X127055935Y-72775706D01*
X127061243Y-72774284D01*
X127067235Y-72771490D01*
X127263762Y-72679849D01*
X127263767Y-72679846D01*
X127268749Y-72677523D01*
X127342243Y-72626062D01*
X128430493Y-72626062D01*
X128439789Y-72638077D01*
X128490994Y-72673931D01*
X128500489Y-72679414D01*
X128697947Y-72771490D01*
X128708239Y-72775236D01*
X128918688Y-72831625D01*
X128929481Y-72833528D01*
X129146525Y-72852517D01*
X129157475Y-72852517D01*
X129374519Y-72833528D01*
X129385312Y-72831625D01*
X129595761Y-72775236D01*
X129606053Y-72771490D01*
X129803511Y-72679414D01*
X129813006Y-72673931D01*
X129865048Y-72637491D01*
X129873424Y-72627012D01*
X129866356Y-72613566D01*
X129164812Y-71912022D01*
X129150868Y-71904408D01*
X129149035Y-71904539D01*
X129142420Y-71908790D01*
X128436923Y-72614287D01*
X128430493Y-72626062D01*
X127342243Y-72626062D01*
X127373611Y-72604098D01*
X127451789Y-72549357D01*
X127451792Y-72549355D01*
X127456300Y-72546198D01*
X127618198Y-72384300D01*
X127749523Y-72196749D01*
X127751846Y-72191767D01*
X127751849Y-72191762D01*
X127768081Y-72156951D01*
X127814998Y-72103666D01*
X127883275Y-72084205D01*
X127951235Y-72104747D01*
X127996471Y-72156951D01*
X128012586Y-72191511D01*
X128018069Y-72201006D01*
X128054509Y-72253048D01*
X128064988Y-72261424D01*
X128078434Y-72254356D01*
X128779978Y-71552812D01*
X128786356Y-71541132D01*
X129516408Y-71541132D01*
X129516539Y-71542965D01*
X129520790Y-71549580D01*
X130226287Y-72255077D01*
X130238062Y-72261507D01*
X130250077Y-72252211D01*
X130285931Y-72201006D01*
X130291414Y-72191511D01*
X130307529Y-72156951D01*
X130354446Y-72103666D01*
X130422723Y-72084205D01*
X130490683Y-72104747D01*
X130535919Y-72156951D01*
X130552151Y-72191762D01*
X130552154Y-72191767D01*
X130554477Y-72196749D01*
X130685802Y-72384300D01*
X130847700Y-72546198D01*
X130852208Y-72549355D01*
X130852211Y-72549357D01*
X130930389Y-72604098D01*
X131035251Y-72677523D01*
X131040233Y-72679846D01*
X131040238Y-72679849D01*
X131236765Y-72771490D01*
X131242757Y-72774284D01*
X131248065Y-72775706D01*
X131248067Y-72775707D01*
X131458598Y-72832119D01*
X131458600Y-72832119D01*
X131463913Y-72833543D01*
X131692000Y-72853498D01*
X131920087Y-72833543D01*
X131925400Y-72832119D01*
X131925402Y-72832119D01*
X132135933Y-72775707D01*
X132135935Y-72775706D01*
X132141243Y-72774284D01*
X132147235Y-72771490D01*
X132343762Y-72679849D01*
X132343767Y-72679846D01*
X132348749Y-72677523D01*
X132453611Y-72604098D01*
X132531789Y-72549357D01*
X132531792Y-72549355D01*
X132536300Y-72546198D01*
X132698198Y-72384300D01*
X132829523Y-72196749D01*
X132831846Y-72191767D01*
X132831849Y-72191762D01*
X132847805Y-72157543D01*
X132894722Y-72104258D01*
X132962999Y-72084797D01*
X133030959Y-72105339D01*
X133076195Y-72157543D01*
X133092151Y-72191762D01*
X133092154Y-72191767D01*
X133094477Y-72196749D01*
X133225802Y-72384300D01*
X133387700Y-72546198D01*
X133392208Y-72549355D01*
X133392211Y-72549357D01*
X133470389Y-72604098D01*
X133575251Y-72677523D01*
X133580233Y-72679846D01*
X133580238Y-72679849D01*
X133776765Y-72771490D01*
X133782757Y-72774284D01*
X133788065Y-72775706D01*
X133788067Y-72775707D01*
X133998598Y-72832119D01*
X133998600Y-72832119D01*
X134003913Y-72833543D01*
X134232000Y-72853498D01*
X134460087Y-72833543D01*
X134465400Y-72832119D01*
X134465402Y-72832119D01*
X134675933Y-72775707D01*
X134675935Y-72775706D01*
X134681243Y-72774284D01*
X134687235Y-72771490D01*
X134883762Y-72679849D01*
X134883767Y-72679846D01*
X134888749Y-72677523D01*
X134993611Y-72604098D01*
X135071789Y-72549357D01*
X135071792Y-72549355D01*
X135076300Y-72546198D01*
X135238198Y-72384300D01*
X135369523Y-72196749D01*
X135371846Y-72191767D01*
X135371849Y-72191762D01*
X135387805Y-72157543D01*
X135434722Y-72104258D01*
X135502999Y-72084797D01*
X135570959Y-72105339D01*
X135616195Y-72157543D01*
X135632151Y-72191762D01*
X135632154Y-72191767D01*
X135634477Y-72196749D01*
X135765802Y-72384300D01*
X135927700Y-72546198D01*
X135932208Y-72549355D01*
X135932211Y-72549357D01*
X136010389Y-72604098D01*
X136115251Y-72677523D01*
X136120233Y-72679846D01*
X136120238Y-72679849D01*
X136316765Y-72771490D01*
X136322757Y-72774284D01*
X136328065Y-72775706D01*
X136328067Y-72775707D01*
X136538598Y-72832119D01*
X136538600Y-72832119D01*
X136543913Y-72833543D01*
X136772000Y-72853498D01*
X137000087Y-72833543D01*
X137005400Y-72832119D01*
X137005402Y-72832119D01*
X137215933Y-72775707D01*
X137215935Y-72775706D01*
X137221243Y-72774284D01*
X137227235Y-72771490D01*
X137423762Y-72679849D01*
X137423767Y-72679846D01*
X137428749Y-72677523D01*
X137533611Y-72604098D01*
X137611789Y-72549357D01*
X137611792Y-72549355D01*
X137616300Y-72546198D01*
X137778198Y-72384300D01*
X137909523Y-72196749D01*
X137911846Y-72191767D01*
X137911849Y-72191762D01*
X137927805Y-72157543D01*
X137974722Y-72104258D01*
X138042999Y-72084797D01*
X138110959Y-72105339D01*
X138156195Y-72157543D01*
X138172151Y-72191762D01*
X138172154Y-72191767D01*
X138174477Y-72196749D01*
X138305802Y-72384300D01*
X138467700Y-72546198D01*
X138472208Y-72549355D01*
X138472211Y-72549357D01*
X138550389Y-72604098D01*
X138655251Y-72677523D01*
X138660233Y-72679846D01*
X138660238Y-72679849D01*
X138856765Y-72771490D01*
X138862757Y-72774284D01*
X138868065Y-72775706D01*
X138868067Y-72775707D01*
X139078598Y-72832119D01*
X139078600Y-72832119D01*
X139083913Y-72833543D01*
X139312000Y-72853498D01*
X139540087Y-72833543D01*
X139545400Y-72832119D01*
X139545402Y-72832119D01*
X139755933Y-72775707D01*
X139755935Y-72775706D01*
X139761243Y-72774284D01*
X139767235Y-72771490D01*
X139963762Y-72679849D01*
X139963767Y-72679846D01*
X139968749Y-72677523D01*
X140042243Y-72626062D01*
X141130493Y-72626062D01*
X141139789Y-72638077D01*
X141190994Y-72673931D01*
X141200489Y-72679414D01*
X141397947Y-72771490D01*
X141408239Y-72775236D01*
X141618688Y-72831625D01*
X141629481Y-72833528D01*
X141846525Y-72852517D01*
X141857475Y-72852517D01*
X142074519Y-72833528D01*
X142085312Y-72831625D01*
X142295761Y-72775236D01*
X142306053Y-72771490D01*
X142503511Y-72679414D01*
X142513006Y-72673931D01*
X142565048Y-72637491D01*
X142573424Y-72627012D01*
X142566356Y-72613566D01*
X141864812Y-71912022D01*
X141850868Y-71904408D01*
X141849035Y-71904539D01*
X141842420Y-71908790D01*
X141136923Y-72614287D01*
X141130493Y-72626062D01*
X140042243Y-72626062D01*
X140073611Y-72604098D01*
X140151789Y-72549357D01*
X140151792Y-72549355D01*
X140156300Y-72546198D01*
X140318198Y-72384300D01*
X140449523Y-72196749D01*
X140451846Y-72191767D01*
X140451849Y-72191762D01*
X140468081Y-72156951D01*
X140514998Y-72103666D01*
X140583275Y-72084205D01*
X140651235Y-72104747D01*
X140696471Y-72156951D01*
X140712586Y-72191511D01*
X140718069Y-72201006D01*
X140754509Y-72253048D01*
X140764988Y-72261424D01*
X140778434Y-72254356D01*
X141479978Y-71552812D01*
X141486356Y-71541132D01*
X142216408Y-71541132D01*
X142216539Y-71542965D01*
X142220790Y-71549580D01*
X142926287Y-72255077D01*
X142938062Y-72261507D01*
X142950077Y-72252211D01*
X142985931Y-72201006D01*
X142991414Y-72191511D01*
X143007529Y-72156951D01*
X143054446Y-72103666D01*
X143122723Y-72084205D01*
X143190683Y-72104747D01*
X143235919Y-72156951D01*
X143252151Y-72191762D01*
X143252154Y-72191767D01*
X143254477Y-72196749D01*
X143385802Y-72384300D01*
X143547700Y-72546198D01*
X143552208Y-72549355D01*
X143552211Y-72549357D01*
X143630389Y-72604098D01*
X143735251Y-72677523D01*
X143740233Y-72679846D01*
X143740238Y-72679849D01*
X143936765Y-72771490D01*
X143942757Y-72774284D01*
X143948065Y-72775706D01*
X143948067Y-72775707D01*
X144158598Y-72832119D01*
X144158600Y-72832119D01*
X144163913Y-72833543D01*
X144392000Y-72853498D01*
X144620087Y-72833543D01*
X144625400Y-72832119D01*
X144625402Y-72832119D01*
X144835933Y-72775707D01*
X144835935Y-72775706D01*
X144841243Y-72774284D01*
X144847235Y-72771490D01*
X145043762Y-72679849D01*
X145043767Y-72679846D01*
X145048749Y-72677523D01*
X145153611Y-72604098D01*
X145231789Y-72549357D01*
X145231792Y-72549355D01*
X145236300Y-72546198D01*
X145398198Y-72384300D01*
X145529523Y-72196749D01*
X145531846Y-72191767D01*
X145531849Y-72191762D01*
X145547805Y-72157543D01*
X145594722Y-72104258D01*
X145662999Y-72084797D01*
X145730959Y-72105339D01*
X145776195Y-72157543D01*
X145792151Y-72191762D01*
X145792154Y-72191767D01*
X145794477Y-72196749D01*
X145925802Y-72384300D01*
X146087700Y-72546198D01*
X146092208Y-72549355D01*
X146092211Y-72549357D01*
X146170389Y-72604098D01*
X146275251Y-72677523D01*
X146280233Y-72679846D01*
X146280238Y-72679849D01*
X146476765Y-72771490D01*
X146482757Y-72774284D01*
X146488065Y-72775706D01*
X146488067Y-72775707D01*
X146698598Y-72832119D01*
X146698600Y-72832119D01*
X146703913Y-72833543D01*
X146932000Y-72853498D01*
X147160087Y-72833543D01*
X147165400Y-72832119D01*
X147165402Y-72832119D01*
X147375933Y-72775707D01*
X147375935Y-72775706D01*
X147381243Y-72774284D01*
X147387235Y-72771490D01*
X147583762Y-72679849D01*
X147583767Y-72679846D01*
X147588749Y-72677523D01*
X147693611Y-72604098D01*
X147771789Y-72549357D01*
X147771792Y-72549355D01*
X147776300Y-72546198D01*
X147938198Y-72384300D01*
X148069523Y-72196749D01*
X148071846Y-72191767D01*
X148071849Y-72191762D01*
X148087805Y-72157543D01*
X148134722Y-72104258D01*
X148202999Y-72084797D01*
X148270959Y-72105339D01*
X148316195Y-72157543D01*
X148332151Y-72191762D01*
X148332154Y-72191767D01*
X148334477Y-72196749D01*
X148465802Y-72384300D01*
X148627700Y-72546198D01*
X148632208Y-72549355D01*
X148632211Y-72549357D01*
X148710389Y-72604098D01*
X148815251Y-72677523D01*
X148820233Y-72679846D01*
X148820238Y-72679849D01*
X149016765Y-72771490D01*
X149022757Y-72774284D01*
X149028065Y-72775706D01*
X149028067Y-72775707D01*
X149238598Y-72832119D01*
X149238600Y-72832119D01*
X149243913Y-72833543D01*
X149472000Y-72853498D01*
X149700087Y-72833543D01*
X149705400Y-72832119D01*
X149705402Y-72832119D01*
X149915933Y-72775707D01*
X149915935Y-72775706D01*
X149921243Y-72774284D01*
X149927235Y-72771490D01*
X150123762Y-72679849D01*
X150123767Y-72679846D01*
X150128749Y-72677523D01*
X150233611Y-72604098D01*
X150311789Y-72549357D01*
X150311792Y-72549355D01*
X150316300Y-72546198D01*
X150478198Y-72384300D01*
X150609523Y-72196749D01*
X150611846Y-72191767D01*
X150611849Y-72191762D01*
X150627805Y-72157543D01*
X150674722Y-72104258D01*
X150742999Y-72084797D01*
X150810959Y-72105339D01*
X150856195Y-72157543D01*
X150872151Y-72191762D01*
X150872154Y-72191767D01*
X150874477Y-72196749D01*
X151005802Y-72384300D01*
X151167700Y-72546198D01*
X151172208Y-72549355D01*
X151172211Y-72549357D01*
X151250389Y-72604098D01*
X151355251Y-72677523D01*
X151360233Y-72679846D01*
X151360238Y-72679849D01*
X151556765Y-72771490D01*
X151562757Y-72774284D01*
X151568065Y-72775706D01*
X151568067Y-72775707D01*
X151778598Y-72832119D01*
X151778600Y-72832119D01*
X151783913Y-72833543D01*
X152012000Y-72853498D01*
X152240087Y-72833543D01*
X152245400Y-72832119D01*
X152245402Y-72832119D01*
X152455933Y-72775707D01*
X152455935Y-72775706D01*
X152461243Y-72774284D01*
X152467235Y-72771490D01*
X152663762Y-72679849D01*
X152663767Y-72679846D01*
X152668749Y-72677523D01*
X152742243Y-72626062D01*
X153830493Y-72626062D01*
X153839789Y-72638077D01*
X153890994Y-72673931D01*
X153900489Y-72679414D01*
X154097947Y-72771490D01*
X154108239Y-72775236D01*
X154318688Y-72831625D01*
X154329481Y-72833528D01*
X154546525Y-72852517D01*
X154557475Y-72852517D01*
X154774519Y-72833528D01*
X154785312Y-72831625D01*
X154995761Y-72775236D01*
X155006053Y-72771490D01*
X155203511Y-72679414D01*
X155213006Y-72673931D01*
X155265048Y-72637491D01*
X155273424Y-72627012D01*
X155266356Y-72613566D01*
X154564812Y-71912022D01*
X154550868Y-71904408D01*
X154549035Y-71904539D01*
X154542420Y-71908790D01*
X153836923Y-72614287D01*
X153830493Y-72626062D01*
X152742243Y-72626062D01*
X152773611Y-72604098D01*
X152851789Y-72549357D01*
X152851792Y-72549355D01*
X152856300Y-72546198D01*
X153018198Y-72384300D01*
X153149523Y-72196749D01*
X153151846Y-72191767D01*
X153151849Y-72191762D01*
X153168081Y-72156951D01*
X153214998Y-72103666D01*
X153283275Y-72084205D01*
X153351235Y-72104747D01*
X153396471Y-72156951D01*
X153412586Y-72191511D01*
X153418069Y-72201006D01*
X153454509Y-72253048D01*
X153464988Y-72261424D01*
X153478434Y-72254356D01*
X154179978Y-71552812D01*
X154186356Y-71541132D01*
X154916408Y-71541132D01*
X154916539Y-71542965D01*
X154920790Y-71549580D01*
X155626287Y-72255077D01*
X155638062Y-72261507D01*
X155650077Y-72252211D01*
X155685931Y-72201006D01*
X155691414Y-72191511D01*
X155707529Y-72156951D01*
X155754446Y-72103666D01*
X155822723Y-72084205D01*
X155890683Y-72104747D01*
X155935919Y-72156951D01*
X155952151Y-72191762D01*
X155952154Y-72191767D01*
X155954477Y-72196749D01*
X156085802Y-72384300D01*
X156247700Y-72546198D01*
X156252208Y-72549355D01*
X156252211Y-72549357D01*
X156330389Y-72604098D01*
X156435251Y-72677523D01*
X156440233Y-72679846D01*
X156440238Y-72679849D01*
X156636765Y-72771490D01*
X156642757Y-72774284D01*
X156648065Y-72775706D01*
X156648067Y-72775707D01*
X156858598Y-72832119D01*
X156858600Y-72832119D01*
X156863913Y-72833543D01*
X157092000Y-72853498D01*
X157320087Y-72833543D01*
X157325400Y-72832119D01*
X157325402Y-72832119D01*
X157535933Y-72775707D01*
X157535935Y-72775706D01*
X157541243Y-72774284D01*
X157547235Y-72771490D01*
X157743762Y-72679849D01*
X157743767Y-72679846D01*
X157748749Y-72677523D01*
X157853611Y-72604098D01*
X157931789Y-72549357D01*
X157931792Y-72549355D01*
X157936300Y-72546198D01*
X158098198Y-72384300D01*
X158229523Y-72196749D01*
X158231846Y-72191767D01*
X158231849Y-72191762D01*
X158247805Y-72157543D01*
X158294722Y-72104258D01*
X158362999Y-72084797D01*
X158430959Y-72105339D01*
X158476195Y-72157543D01*
X158492151Y-72191762D01*
X158492154Y-72191767D01*
X158494477Y-72196749D01*
X158625802Y-72384300D01*
X158787700Y-72546198D01*
X158792208Y-72549355D01*
X158792211Y-72549357D01*
X158870389Y-72604098D01*
X158975251Y-72677523D01*
X158980233Y-72679846D01*
X158980238Y-72679849D01*
X159176765Y-72771490D01*
X159182757Y-72774284D01*
X159188065Y-72775706D01*
X159188067Y-72775707D01*
X159398598Y-72832119D01*
X159398600Y-72832119D01*
X159403913Y-72833543D01*
X159632000Y-72853498D01*
X159860087Y-72833543D01*
X159865400Y-72832119D01*
X159865402Y-72832119D01*
X160075933Y-72775707D01*
X160075935Y-72775706D01*
X160081243Y-72774284D01*
X160087235Y-72771490D01*
X160283762Y-72679849D01*
X160283767Y-72679846D01*
X160288749Y-72677523D01*
X160393611Y-72604098D01*
X160471789Y-72549357D01*
X160471792Y-72549355D01*
X160476300Y-72546198D01*
X160638198Y-72384300D01*
X160769523Y-72196749D01*
X160771846Y-72191767D01*
X160771849Y-72191762D01*
X160787805Y-72157543D01*
X160834722Y-72104258D01*
X160902999Y-72084797D01*
X160970959Y-72105339D01*
X161016195Y-72157543D01*
X161032151Y-72191762D01*
X161032154Y-72191767D01*
X161034477Y-72196749D01*
X161165802Y-72384300D01*
X161327700Y-72546198D01*
X161332208Y-72549355D01*
X161332211Y-72549357D01*
X161410389Y-72604098D01*
X161515251Y-72677523D01*
X161520233Y-72679846D01*
X161520238Y-72679849D01*
X161716765Y-72771490D01*
X161722757Y-72774284D01*
X161728065Y-72775706D01*
X161728067Y-72775707D01*
X161938598Y-72832119D01*
X161938600Y-72832119D01*
X161943913Y-72833543D01*
X162172000Y-72853498D01*
X162400087Y-72833543D01*
X162405400Y-72832119D01*
X162405402Y-72832119D01*
X162615933Y-72775707D01*
X162615935Y-72775706D01*
X162621243Y-72774284D01*
X162627235Y-72771490D01*
X162823762Y-72679849D01*
X162823767Y-72679846D01*
X162828749Y-72677523D01*
X162933611Y-72604098D01*
X163011789Y-72549357D01*
X163011792Y-72549355D01*
X163016300Y-72546198D01*
X163178198Y-72384300D01*
X163309523Y-72196749D01*
X163311846Y-72191767D01*
X163311849Y-72191762D01*
X163327805Y-72157543D01*
X163374722Y-72104258D01*
X163442999Y-72084797D01*
X163510959Y-72105339D01*
X163556195Y-72157543D01*
X163572151Y-72191762D01*
X163572154Y-72191767D01*
X163574477Y-72196749D01*
X163705802Y-72384300D01*
X163867700Y-72546198D01*
X163872208Y-72549355D01*
X163872211Y-72549357D01*
X163950389Y-72604098D01*
X164055251Y-72677523D01*
X164060233Y-72679846D01*
X164060238Y-72679849D01*
X164256765Y-72771490D01*
X164262757Y-72774284D01*
X164268065Y-72775706D01*
X164268067Y-72775707D01*
X164478598Y-72832119D01*
X164478600Y-72832119D01*
X164483913Y-72833543D01*
X164712000Y-72853498D01*
X164940087Y-72833543D01*
X164945400Y-72832119D01*
X164945402Y-72832119D01*
X165155933Y-72775707D01*
X165155935Y-72775706D01*
X165161243Y-72774284D01*
X165167235Y-72771490D01*
X165363762Y-72679849D01*
X165363767Y-72679846D01*
X165368749Y-72677523D01*
X165442243Y-72626062D01*
X166530493Y-72626062D01*
X166539789Y-72638077D01*
X166590994Y-72673931D01*
X166600489Y-72679414D01*
X166797947Y-72771490D01*
X166808239Y-72775236D01*
X167018688Y-72831625D01*
X167029481Y-72833528D01*
X167246525Y-72852517D01*
X167257475Y-72852517D01*
X167474519Y-72833528D01*
X167485312Y-72831625D01*
X167695761Y-72775236D01*
X167706053Y-72771490D01*
X167903511Y-72679414D01*
X167913006Y-72673931D01*
X167965048Y-72637491D01*
X167973424Y-72627012D01*
X167966356Y-72613566D01*
X167264812Y-71912022D01*
X167250868Y-71904408D01*
X167249035Y-71904539D01*
X167242420Y-71908790D01*
X166536923Y-72614287D01*
X166530493Y-72626062D01*
X165442243Y-72626062D01*
X165473611Y-72604098D01*
X165551789Y-72549357D01*
X165551792Y-72549355D01*
X165556300Y-72546198D01*
X165718198Y-72384300D01*
X165849523Y-72196749D01*
X165851846Y-72191767D01*
X165851849Y-72191762D01*
X165868081Y-72156951D01*
X165914998Y-72103666D01*
X165983275Y-72084205D01*
X166051235Y-72104747D01*
X166096471Y-72156951D01*
X166112586Y-72191511D01*
X166118069Y-72201006D01*
X166154509Y-72253048D01*
X166164988Y-72261424D01*
X166178434Y-72254356D01*
X166879978Y-71552812D01*
X166887592Y-71538868D01*
X166887461Y-71537035D01*
X166883210Y-71530420D01*
X166177713Y-70824923D01*
X166165938Y-70818493D01*
X166153923Y-70827789D01*
X166118069Y-70878994D01*
X166112586Y-70888489D01*
X166096471Y-70923049D01*
X166049554Y-70976334D01*
X165981277Y-70995795D01*
X165913317Y-70975253D01*
X165868081Y-70923049D01*
X165851849Y-70888238D01*
X165851846Y-70888233D01*
X165849523Y-70883251D01*
X165718198Y-70695700D01*
X165556300Y-70533802D01*
X165551792Y-70530645D01*
X165551789Y-70530643D01*
X165425920Y-70442509D01*
X165368749Y-70402477D01*
X165363767Y-70400154D01*
X165363762Y-70400151D01*
X165166225Y-70308039D01*
X165166224Y-70308039D01*
X165161243Y-70305716D01*
X165155935Y-70304294D01*
X165155933Y-70304293D01*
X164945402Y-70247881D01*
X164945400Y-70247881D01*
X164940087Y-70246457D01*
X164712000Y-70226502D01*
X164483913Y-70246457D01*
X164478600Y-70247881D01*
X164478598Y-70247881D01*
X164268067Y-70304293D01*
X164268065Y-70304294D01*
X164262757Y-70305716D01*
X164257776Y-70308039D01*
X164257775Y-70308039D01*
X164060238Y-70400151D01*
X164060233Y-70400154D01*
X164055251Y-70402477D01*
X163998080Y-70442509D01*
X163872211Y-70530643D01*
X163872208Y-70530645D01*
X163867700Y-70533802D01*
X163705802Y-70695700D01*
X163574477Y-70883251D01*
X163572154Y-70888233D01*
X163572151Y-70888238D01*
X163556195Y-70922457D01*
X163509278Y-70975742D01*
X163441001Y-70995203D01*
X163373041Y-70974661D01*
X163327805Y-70922457D01*
X163311849Y-70888238D01*
X163311846Y-70888233D01*
X163309523Y-70883251D01*
X163178198Y-70695700D01*
X163016300Y-70533802D01*
X163011792Y-70530645D01*
X163011789Y-70530643D01*
X162885920Y-70442509D01*
X162828749Y-70402477D01*
X162823767Y-70400154D01*
X162823762Y-70400151D01*
X162626225Y-70308039D01*
X162626224Y-70308039D01*
X162621243Y-70305716D01*
X162615935Y-70304294D01*
X162615933Y-70304293D01*
X162405402Y-70247881D01*
X162405400Y-70247881D01*
X162400087Y-70246457D01*
X162172000Y-70226502D01*
X161943913Y-70246457D01*
X161938600Y-70247881D01*
X161938598Y-70247881D01*
X161728067Y-70304293D01*
X161728065Y-70304294D01*
X161722757Y-70305716D01*
X161717776Y-70308039D01*
X161717775Y-70308039D01*
X161520238Y-70400151D01*
X161520233Y-70400154D01*
X161515251Y-70402477D01*
X161458080Y-70442509D01*
X161332211Y-70530643D01*
X161332208Y-70530645D01*
X161327700Y-70533802D01*
X161165802Y-70695700D01*
X161034477Y-70883251D01*
X161032154Y-70888233D01*
X161032151Y-70888238D01*
X161016195Y-70922457D01*
X160969278Y-70975742D01*
X160901001Y-70995203D01*
X160833041Y-70974661D01*
X160787805Y-70922457D01*
X160771849Y-70888238D01*
X160771846Y-70888233D01*
X160769523Y-70883251D01*
X160638198Y-70695700D01*
X160476300Y-70533802D01*
X160471792Y-70530645D01*
X160471789Y-70530643D01*
X160345920Y-70442509D01*
X160288749Y-70402477D01*
X160283767Y-70400154D01*
X160283762Y-70400151D01*
X160086225Y-70308039D01*
X160086224Y-70308039D01*
X160081243Y-70305716D01*
X160075935Y-70304294D01*
X160075933Y-70304293D01*
X159865402Y-70247881D01*
X159865400Y-70247881D01*
X159860087Y-70246457D01*
X159632000Y-70226502D01*
X159403913Y-70246457D01*
X159398600Y-70247881D01*
X159398598Y-70247881D01*
X159188067Y-70304293D01*
X159188065Y-70304294D01*
X159182757Y-70305716D01*
X159177776Y-70308039D01*
X159177775Y-70308039D01*
X158980238Y-70400151D01*
X158980233Y-70400154D01*
X158975251Y-70402477D01*
X158918080Y-70442509D01*
X158792211Y-70530643D01*
X158792208Y-70530645D01*
X158787700Y-70533802D01*
X158625802Y-70695700D01*
X158494477Y-70883251D01*
X158492154Y-70888233D01*
X158492151Y-70888238D01*
X158476195Y-70922457D01*
X158429278Y-70975742D01*
X158361001Y-70995203D01*
X158293041Y-70974661D01*
X158247805Y-70922457D01*
X158231849Y-70888238D01*
X158231846Y-70888233D01*
X158229523Y-70883251D01*
X158098198Y-70695700D01*
X157936300Y-70533802D01*
X157931792Y-70530645D01*
X157931789Y-70530643D01*
X157805920Y-70442509D01*
X157748749Y-70402477D01*
X157743767Y-70400154D01*
X157743762Y-70400151D01*
X157546225Y-70308039D01*
X157546224Y-70308039D01*
X157541243Y-70305716D01*
X157535935Y-70304294D01*
X157535933Y-70304293D01*
X157325402Y-70247881D01*
X157325400Y-70247881D01*
X157320087Y-70246457D01*
X157092000Y-70226502D01*
X156863913Y-70246457D01*
X156858600Y-70247881D01*
X156858598Y-70247881D01*
X156648067Y-70304293D01*
X156648065Y-70304294D01*
X156642757Y-70305716D01*
X156637776Y-70308039D01*
X156637775Y-70308039D01*
X156440238Y-70400151D01*
X156440233Y-70400154D01*
X156435251Y-70402477D01*
X156378080Y-70442509D01*
X156252211Y-70530643D01*
X156252208Y-70530645D01*
X156247700Y-70533802D01*
X156085802Y-70695700D01*
X155954477Y-70883251D01*
X155952154Y-70888233D01*
X155952151Y-70888238D01*
X155935919Y-70923049D01*
X155889002Y-70976334D01*
X155820725Y-70995795D01*
X155752765Y-70975253D01*
X155707529Y-70923049D01*
X155691414Y-70888489D01*
X155685931Y-70878994D01*
X155649491Y-70826952D01*
X155639012Y-70818576D01*
X155625566Y-70825644D01*
X154924022Y-71527188D01*
X154916408Y-71541132D01*
X154186356Y-71541132D01*
X154187592Y-71538868D01*
X154187461Y-71537035D01*
X154183210Y-71530420D01*
X153477713Y-70824923D01*
X153465938Y-70818493D01*
X153453923Y-70827789D01*
X153418069Y-70878994D01*
X153412586Y-70888489D01*
X153396471Y-70923049D01*
X153349554Y-70976334D01*
X153281277Y-70995795D01*
X153213317Y-70975253D01*
X153168081Y-70923049D01*
X153151849Y-70888238D01*
X153151846Y-70888233D01*
X153149523Y-70883251D01*
X153018198Y-70695700D01*
X152856300Y-70533802D01*
X152851792Y-70530645D01*
X152851789Y-70530643D01*
X152740886Y-70452988D01*
X153830576Y-70452988D01*
X153837644Y-70466434D01*
X154539188Y-71167978D01*
X154553132Y-71175592D01*
X154554965Y-71175461D01*
X154561580Y-71171210D01*
X155267077Y-70465713D01*
X155273507Y-70453938D01*
X155264211Y-70441923D01*
X155213006Y-70406069D01*
X155203511Y-70400586D01*
X155006053Y-70308510D01*
X154995761Y-70304764D01*
X154785312Y-70248375D01*
X154774519Y-70246472D01*
X154557475Y-70227483D01*
X154546525Y-70227483D01*
X154329481Y-70246472D01*
X154318688Y-70248375D01*
X154108239Y-70304764D01*
X154097947Y-70308510D01*
X153900489Y-70400586D01*
X153890994Y-70406069D01*
X153838952Y-70442509D01*
X153830576Y-70452988D01*
X152740886Y-70452988D01*
X152725920Y-70442509D01*
X152668749Y-70402477D01*
X152663767Y-70400154D01*
X152663762Y-70400151D01*
X152466225Y-70308039D01*
X152466224Y-70308039D01*
X152461243Y-70305716D01*
X152455935Y-70304294D01*
X152455933Y-70304293D01*
X152245402Y-70247881D01*
X152245400Y-70247881D01*
X152240087Y-70246457D01*
X152012000Y-70226502D01*
X151783913Y-70246457D01*
X151778600Y-70247881D01*
X151778598Y-70247881D01*
X151568067Y-70304293D01*
X151568065Y-70304294D01*
X151562757Y-70305716D01*
X151557776Y-70308039D01*
X151557775Y-70308039D01*
X151360238Y-70400151D01*
X151360233Y-70400154D01*
X151355251Y-70402477D01*
X151298080Y-70442509D01*
X151172211Y-70530643D01*
X151172208Y-70530645D01*
X151167700Y-70533802D01*
X151005802Y-70695700D01*
X150874477Y-70883251D01*
X150872154Y-70888233D01*
X150872151Y-70888238D01*
X150856195Y-70922457D01*
X150809278Y-70975742D01*
X150741001Y-70995203D01*
X150673041Y-70974661D01*
X150627805Y-70922457D01*
X150611849Y-70888238D01*
X150611846Y-70888233D01*
X150609523Y-70883251D01*
X150478198Y-70695700D01*
X150316300Y-70533802D01*
X150311792Y-70530645D01*
X150311789Y-70530643D01*
X150185920Y-70442509D01*
X150128749Y-70402477D01*
X150123767Y-70400154D01*
X150123762Y-70400151D01*
X149926225Y-70308039D01*
X149926224Y-70308039D01*
X149921243Y-70305716D01*
X149915935Y-70304294D01*
X149915933Y-70304293D01*
X149705402Y-70247881D01*
X149705400Y-70247881D01*
X149700087Y-70246457D01*
X149472000Y-70226502D01*
X149243913Y-70246457D01*
X149238600Y-70247881D01*
X149238598Y-70247881D01*
X149028067Y-70304293D01*
X149028065Y-70304294D01*
X149022757Y-70305716D01*
X149017776Y-70308039D01*
X149017775Y-70308039D01*
X148820238Y-70400151D01*
X148820233Y-70400154D01*
X148815251Y-70402477D01*
X148758080Y-70442509D01*
X148632211Y-70530643D01*
X148632208Y-70530645D01*
X148627700Y-70533802D01*
X148465802Y-70695700D01*
X148334477Y-70883251D01*
X148332154Y-70888233D01*
X148332151Y-70888238D01*
X148316195Y-70922457D01*
X148269278Y-70975742D01*
X148201001Y-70995203D01*
X148133041Y-70974661D01*
X148087805Y-70922457D01*
X148071849Y-70888238D01*
X148071846Y-70888233D01*
X148069523Y-70883251D01*
X147938198Y-70695700D01*
X147776300Y-70533802D01*
X147771792Y-70530645D01*
X147771789Y-70530643D01*
X147645920Y-70442509D01*
X147588749Y-70402477D01*
X147583767Y-70400154D01*
X147583762Y-70400151D01*
X147386225Y-70308039D01*
X147386224Y-70308039D01*
X147381243Y-70305716D01*
X147375935Y-70304294D01*
X147375933Y-70304293D01*
X147165402Y-70247881D01*
X147165400Y-70247881D01*
X147160087Y-70246457D01*
X146932000Y-70226502D01*
X146703913Y-70246457D01*
X146698600Y-70247881D01*
X146698598Y-70247881D01*
X146488067Y-70304293D01*
X146488065Y-70304294D01*
X146482757Y-70305716D01*
X146477776Y-70308039D01*
X146477775Y-70308039D01*
X146280238Y-70400151D01*
X146280233Y-70400154D01*
X146275251Y-70402477D01*
X146218080Y-70442509D01*
X146092211Y-70530643D01*
X146092208Y-70530645D01*
X146087700Y-70533802D01*
X145925802Y-70695700D01*
X145794477Y-70883251D01*
X145792154Y-70888233D01*
X145792151Y-70888238D01*
X145776195Y-70922457D01*
X145729278Y-70975742D01*
X145661001Y-70995203D01*
X145593041Y-70974661D01*
X145547805Y-70922457D01*
X145531849Y-70888238D01*
X145531846Y-70888233D01*
X145529523Y-70883251D01*
X145398198Y-70695700D01*
X145236300Y-70533802D01*
X145231792Y-70530645D01*
X145231789Y-70530643D01*
X145105920Y-70442509D01*
X145048749Y-70402477D01*
X145043767Y-70400154D01*
X145043762Y-70400151D01*
X144846225Y-70308039D01*
X144846224Y-70308039D01*
X144841243Y-70305716D01*
X144835935Y-70304294D01*
X144835933Y-70304293D01*
X144625402Y-70247881D01*
X144625400Y-70247881D01*
X144620087Y-70246457D01*
X144392000Y-70226502D01*
X144163913Y-70246457D01*
X144158600Y-70247881D01*
X144158598Y-70247881D01*
X143948067Y-70304293D01*
X143948065Y-70304294D01*
X143942757Y-70305716D01*
X143937776Y-70308039D01*
X143937775Y-70308039D01*
X143740238Y-70400151D01*
X143740233Y-70400154D01*
X143735251Y-70402477D01*
X143678080Y-70442509D01*
X143552211Y-70530643D01*
X143552208Y-70530645D01*
X143547700Y-70533802D01*
X143385802Y-70695700D01*
X143254477Y-70883251D01*
X143252154Y-70888233D01*
X143252151Y-70888238D01*
X143235919Y-70923049D01*
X143189002Y-70976334D01*
X143120725Y-70995795D01*
X143052765Y-70975253D01*
X143007529Y-70923049D01*
X142991414Y-70888489D01*
X142985931Y-70878994D01*
X142949491Y-70826952D01*
X142939012Y-70818576D01*
X142925566Y-70825644D01*
X142224022Y-71527188D01*
X142216408Y-71541132D01*
X141486356Y-71541132D01*
X141487592Y-71538868D01*
X141487461Y-71537035D01*
X141483210Y-71530420D01*
X140777713Y-70824923D01*
X140765938Y-70818493D01*
X140753923Y-70827789D01*
X140718069Y-70878994D01*
X140712586Y-70888489D01*
X140696471Y-70923049D01*
X140649554Y-70976334D01*
X140581277Y-70995795D01*
X140513317Y-70975253D01*
X140468081Y-70923049D01*
X140451849Y-70888238D01*
X140451846Y-70888233D01*
X140449523Y-70883251D01*
X140318198Y-70695700D01*
X140156300Y-70533802D01*
X140151792Y-70530645D01*
X140151789Y-70530643D01*
X140040886Y-70452988D01*
X141130576Y-70452988D01*
X141137644Y-70466434D01*
X141839188Y-71167978D01*
X141853132Y-71175592D01*
X141854965Y-71175461D01*
X141861580Y-71171210D01*
X142567077Y-70465713D01*
X142573507Y-70453938D01*
X142564211Y-70441923D01*
X142513006Y-70406069D01*
X142503511Y-70400586D01*
X142306053Y-70308510D01*
X142295761Y-70304764D01*
X142085312Y-70248375D01*
X142074519Y-70246472D01*
X141857475Y-70227483D01*
X141846525Y-70227483D01*
X141629481Y-70246472D01*
X141618688Y-70248375D01*
X141408239Y-70304764D01*
X141397947Y-70308510D01*
X141200489Y-70400586D01*
X141190994Y-70406069D01*
X141138952Y-70442509D01*
X141130576Y-70452988D01*
X140040886Y-70452988D01*
X140025920Y-70442509D01*
X139968749Y-70402477D01*
X139963767Y-70400154D01*
X139963762Y-70400151D01*
X139766225Y-70308039D01*
X139766224Y-70308039D01*
X139761243Y-70305716D01*
X139755935Y-70304294D01*
X139755933Y-70304293D01*
X139545402Y-70247881D01*
X139545400Y-70247881D01*
X139540087Y-70246457D01*
X139312000Y-70226502D01*
X139083913Y-70246457D01*
X139078600Y-70247881D01*
X139078598Y-70247881D01*
X138868067Y-70304293D01*
X138868065Y-70304294D01*
X138862757Y-70305716D01*
X138857776Y-70308039D01*
X138857775Y-70308039D01*
X138660238Y-70400151D01*
X138660233Y-70400154D01*
X138655251Y-70402477D01*
X138598080Y-70442509D01*
X138472211Y-70530643D01*
X138472208Y-70530645D01*
X138467700Y-70533802D01*
X138305802Y-70695700D01*
X138174477Y-70883251D01*
X138172154Y-70888233D01*
X138172151Y-70888238D01*
X138156195Y-70922457D01*
X138109278Y-70975742D01*
X138041001Y-70995203D01*
X137973041Y-70974661D01*
X137927805Y-70922457D01*
X137911849Y-70888238D01*
X137911846Y-70888233D01*
X137909523Y-70883251D01*
X137778198Y-70695700D01*
X137616300Y-70533802D01*
X137611792Y-70530645D01*
X137611789Y-70530643D01*
X137485920Y-70442509D01*
X137428749Y-70402477D01*
X137423767Y-70400154D01*
X137423762Y-70400151D01*
X137226225Y-70308039D01*
X137226224Y-70308039D01*
X137221243Y-70305716D01*
X137215935Y-70304294D01*
X137215933Y-70304293D01*
X137005402Y-70247881D01*
X137005400Y-70247881D01*
X137000087Y-70246457D01*
X136772000Y-70226502D01*
X136543913Y-70246457D01*
X136538600Y-70247881D01*
X136538598Y-70247881D01*
X136328067Y-70304293D01*
X136328065Y-70304294D01*
X136322757Y-70305716D01*
X136317776Y-70308039D01*
X136317775Y-70308039D01*
X136120238Y-70400151D01*
X136120233Y-70400154D01*
X136115251Y-70402477D01*
X136058080Y-70442509D01*
X135932211Y-70530643D01*
X135932208Y-70530645D01*
X135927700Y-70533802D01*
X135765802Y-70695700D01*
X135634477Y-70883251D01*
X135632154Y-70888233D01*
X135632151Y-70888238D01*
X135616195Y-70922457D01*
X135569278Y-70975742D01*
X135501001Y-70995203D01*
X135433041Y-70974661D01*
X135387805Y-70922457D01*
X135371849Y-70888238D01*
X135371846Y-70888233D01*
X135369523Y-70883251D01*
X135238198Y-70695700D01*
X135076300Y-70533802D01*
X135071792Y-70530645D01*
X135071789Y-70530643D01*
X134945920Y-70442509D01*
X134888749Y-70402477D01*
X134883767Y-70400154D01*
X134883762Y-70400151D01*
X134686225Y-70308039D01*
X134686224Y-70308039D01*
X134681243Y-70305716D01*
X134675935Y-70304294D01*
X134675933Y-70304293D01*
X134465402Y-70247881D01*
X134465400Y-70247881D01*
X134460087Y-70246457D01*
X134232000Y-70226502D01*
X134003913Y-70246457D01*
X133998600Y-70247881D01*
X133998598Y-70247881D01*
X133788067Y-70304293D01*
X133788065Y-70304294D01*
X133782757Y-70305716D01*
X133777776Y-70308039D01*
X133777775Y-70308039D01*
X133580238Y-70400151D01*
X133580233Y-70400154D01*
X133575251Y-70402477D01*
X133518080Y-70442509D01*
X133392211Y-70530643D01*
X133392208Y-70530645D01*
X133387700Y-70533802D01*
X133225802Y-70695700D01*
X133094477Y-70883251D01*
X133092154Y-70888233D01*
X133092151Y-70888238D01*
X133076195Y-70922457D01*
X133029278Y-70975742D01*
X132961001Y-70995203D01*
X132893041Y-70974661D01*
X132847805Y-70922457D01*
X132831849Y-70888238D01*
X132831846Y-70888233D01*
X132829523Y-70883251D01*
X132698198Y-70695700D01*
X132536300Y-70533802D01*
X132531792Y-70530645D01*
X132531789Y-70530643D01*
X132405920Y-70442509D01*
X132348749Y-70402477D01*
X132343767Y-70400154D01*
X132343762Y-70400151D01*
X132146225Y-70308039D01*
X132146224Y-70308039D01*
X132141243Y-70305716D01*
X132135935Y-70304294D01*
X132135933Y-70304293D01*
X131925402Y-70247881D01*
X131925400Y-70247881D01*
X131920087Y-70246457D01*
X131692000Y-70226502D01*
X131463913Y-70246457D01*
X131458600Y-70247881D01*
X131458598Y-70247881D01*
X131248067Y-70304293D01*
X131248065Y-70304294D01*
X131242757Y-70305716D01*
X131237776Y-70308039D01*
X131237775Y-70308039D01*
X131040238Y-70400151D01*
X131040233Y-70400154D01*
X131035251Y-70402477D01*
X130978080Y-70442509D01*
X130852211Y-70530643D01*
X130852208Y-70530645D01*
X130847700Y-70533802D01*
X130685802Y-70695700D01*
X130554477Y-70883251D01*
X130552154Y-70888233D01*
X130552151Y-70888238D01*
X130535919Y-70923049D01*
X130489002Y-70976334D01*
X130420725Y-70995795D01*
X130352765Y-70975253D01*
X130307529Y-70923049D01*
X130291414Y-70888489D01*
X130285931Y-70878994D01*
X130249491Y-70826952D01*
X130239012Y-70818576D01*
X130225566Y-70825644D01*
X129524022Y-71527188D01*
X129516408Y-71541132D01*
X128786356Y-71541132D01*
X128787592Y-71538868D01*
X128787461Y-71537035D01*
X128783210Y-71530420D01*
X128077713Y-70824923D01*
X128065938Y-70818493D01*
X128053923Y-70827789D01*
X128018069Y-70878994D01*
X128012586Y-70888489D01*
X127996471Y-70923049D01*
X127949554Y-70976334D01*
X127881277Y-70995795D01*
X127813317Y-70975253D01*
X127768081Y-70923049D01*
X127751849Y-70888238D01*
X127751846Y-70888233D01*
X127749523Y-70883251D01*
X127618198Y-70695700D01*
X127456300Y-70533802D01*
X127451792Y-70530645D01*
X127451789Y-70530643D01*
X127340886Y-70452988D01*
X128430576Y-70452988D01*
X128437644Y-70466434D01*
X129139188Y-71167978D01*
X129153132Y-71175592D01*
X129154965Y-71175461D01*
X129161580Y-71171210D01*
X129867077Y-70465713D01*
X129873507Y-70453938D01*
X129864211Y-70441923D01*
X129813006Y-70406069D01*
X129803511Y-70400586D01*
X129606053Y-70308510D01*
X129595761Y-70304764D01*
X129385312Y-70248375D01*
X129374519Y-70246472D01*
X129157475Y-70227483D01*
X129146525Y-70227483D01*
X128929481Y-70246472D01*
X128918688Y-70248375D01*
X128708239Y-70304764D01*
X128697947Y-70308510D01*
X128500489Y-70400586D01*
X128490994Y-70406069D01*
X128438952Y-70442509D01*
X128430576Y-70452988D01*
X127340886Y-70452988D01*
X127325920Y-70442509D01*
X127268749Y-70402477D01*
X127263767Y-70400154D01*
X127263762Y-70400151D01*
X127066225Y-70308039D01*
X127066224Y-70308039D01*
X127061243Y-70305716D01*
X127055935Y-70304294D01*
X127055933Y-70304293D01*
X126845402Y-70247881D01*
X126845400Y-70247881D01*
X126840087Y-70246457D01*
X126612000Y-70226502D01*
X126383913Y-70246457D01*
X126378600Y-70247881D01*
X126378598Y-70247881D01*
X126168067Y-70304293D01*
X126168065Y-70304294D01*
X126162757Y-70305716D01*
X126157776Y-70308039D01*
X126157775Y-70308039D01*
X125960238Y-70400151D01*
X125960233Y-70400154D01*
X125955251Y-70402477D01*
X125898080Y-70442509D01*
X125772211Y-70530643D01*
X125772208Y-70530645D01*
X125767700Y-70533802D01*
X125605802Y-70695700D01*
X125474477Y-70883251D01*
X125472154Y-70888233D01*
X125472151Y-70888238D01*
X125456195Y-70922457D01*
X125409278Y-70975742D01*
X125341001Y-70995203D01*
X125273041Y-70974661D01*
X125227805Y-70922457D01*
X125211849Y-70888238D01*
X125211846Y-70888233D01*
X125209523Y-70883251D01*
X125078198Y-70695700D01*
X124916300Y-70533802D01*
X124911792Y-70530645D01*
X124911789Y-70530643D01*
X124785920Y-70442509D01*
X124728749Y-70402477D01*
X124723767Y-70400154D01*
X124723762Y-70400151D01*
X124526225Y-70308039D01*
X124526224Y-70308039D01*
X124521243Y-70305716D01*
X124515935Y-70304294D01*
X124515933Y-70304293D01*
X124305402Y-70247881D01*
X124305400Y-70247881D01*
X124300087Y-70246457D01*
X124072000Y-70226502D01*
X123843913Y-70246457D01*
X123838600Y-70247881D01*
X123838598Y-70247881D01*
X123628067Y-70304293D01*
X123628065Y-70304294D01*
X123622757Y-70305716D01*
X123617776Y-70308039D01*
X123617775Y-70308039D01*
X123420238Y-70400151D01*
X123420233Y-70400154D01*
X123415251Y-70402477D01*
X123358080Y-70442509D01*
X123232211Y-70530643D01*
X123232208Y-70530645D01*
X123227700Y-70533802D01*
X123065802Y-70695700D01*
X122934477Y-70883251D01*
X122932154Y-70888233D01*
X122932151Y-70888238D01*
X122932034Y-70888489D01*
X122837716Y-71090757D01*
X122836294Y-71096065D01*
X122836293Y-71096067D01*
X122815019Y-71175461D01*
X122778457Y-71311913D01*
X122758502Y-71540000D01*
X88758000Y-71540000D01*
X88758000Y-68175000D01*
X90920026Y-68175000D01*
X90939891Y-68427403D01*
X90941045Y-68432210D01*
X90941046Y-68432216D01*
X90947048Y-68457216D01*
X90998995Y-68673591D01*
X91000888Y-68678162D01*
X91000889Y-68678164D01*
X91051042Y-68799243D01*
X91095884Y-68907502D01*
X91228172Y-69123376D01*
X91392602Y-69315898D01*
X91585124Y-69480328D01*
X91800998Y-69612616D01*
X91805568Y-69614509D01*
X91805572Y-69614511D01*
X92030336Y-69707611D01*
X92034909Y-69709505D01*
X92119532Y-69729821D01*
X92276284Y-69767454D01*
X92276290Y-69767455D01*
X92281097Y-69768609D01*
X92380916Y-69776465D01*
X92467845Y-69783307D01*
X92467852Y-69783307D01*
X92470301Y-69783500D01*
X92596699Y-69783500D01*
X92599148Y-69783307D01*
X92599155Y-69783307D01*
X92686084Y-69776465D01*
X92785903Y-69768609D01*
X92790710Y-69767455D01*
X92790716Y-69767454D01*
X92947468Y-69729821D01*
X93032091Y-69709505D01*
X93036664Y-69707611D01*
X93261428Y-69614511D01*
X93261432Y-69614509D01*
X93266002Y-69612616D01*
X93481876Y-69480328D01*
X93674398Y-69315898D01*
X93838828Y-69123376D01*
X93971116Y-68907502D01*
X94015959Y-68799243D01*
X94066111Y-68678164D01*
X94066112Y-68678162D01*
X94068005Y-68673591D01*
X94119952Y-68457216D01*
X94125954Y-68432216D01*
X94125955Y-68432210D01*
X94127109Y-68427403D01*
X94128120Y-68414553D01*
X99322652Y-68414553D01*
X99336472Y-68572519D01*
X99338375Y-68583312D01*
X99394764Y-68793761D01*
X99398510Y-68804053D01*
X99490586Y-69001511D01*
X99496069Y-69011007D01*
X99621028Y-69189467D01*
X99628084Y-69197875D01*
X99782125Y-69351916D01*
X99790533Y-69358972D01*
X99968993Y-69483931D01*
X99978489Y-69489414D01*
X100175947Y-69581490D01*
X100186239Y-69585236D01*
X100358503Y-69631394D01*
X100372599Y-69631058D01*
X100376000Y-69623116D01*
X100376000Y-68422115D01*
X100371525Y-68406876D01*
X100370135Y-68405671D01*
X100362452Y-68404000D01*
X99340115Y-68404000D01*
X99324876Y-68408475D01*
X99323671Y-68409865D01*
X99322652Y-68414553D01*
X94128120Y-68414553D01*
X94146974Y-68175000D01*
X94127109Y-67922597D01*
X94120034Y-67893124D01*
X94117202Y-67881330D01*
X99323012Y-67881330D01*
X99326475Y-67893124D01*
X99327865Y-67894329D01*
X99335548Y-67896000D01*
X100357885Y-67896000D01*
X100373124Y-67891525D01*
X100374329Y-67890135D01*
X100376000Y-67882452D01*
X100376000Y-66682033D01*
X100372027Y-66668502D01*
X100363478Y-66667273D01*
X100186239Y-66714764D01*
X100175947Y-66718510D01*
X99978489Y-66810586D01*
X99968993Y-66816069D01*
X99790533Y-66941028D01*
X99782125Y-66948084D01*
X99628084Y-67102125D01*
X99621028Y-67110533D01*
X99496069Y-67288993D01*
X99490586Y-67298489D01*
X99398510Y-67495947D01*
X99394764Y-67506239D01*
X99338375Y-67716688D01*
X99336472Y-67727481D01*
X99323012Y-67881330D01*
X94117202Y-67881330D01*
X94085651Y-67749911D01*
X94068005Y-67676409D01*
X94066111Y-67671836D01*
X93973011Y-67447072D01*
X93973009Y-67447068D01*
X93971116Y-67442498D01*
X93838828Y-67226624D01*
X93674398Y-67034102D01*
X93481876Y-66869672D01*
X93283668Y-66748210D01*
X93270222Y-66739970D01*
X93266002Y-66737384D01*
X93261432Y-66735491D01*
X93261428Y-66735489D01*
X93036664Y-66642389D01*
X93036662Y-66642388D01*
X93032091Y-66640495D01*
X92934635Y-66617098D01*
X92790716Y-66582546D01*
X92790710Y-66582545D01*
X92785903Y-66581391D01*
X92686084Y-66573535D01*
X92599155Y-66566693D01*
X92599148Y-66566693D01*
X92596699Y-66566500D01*
X92470301Y-66566500D01*
X92467852Y-66566693D01*
X92467845Y-66566693D01*
X92380916Y-66573535D01*
X92281097Y-66581391D01*
X92276290Y-66582545D01*
X92276284Y-66582546D01*
X92132365Y-66617098D01*
X92034909Y-66640495D01*
X92030338Y-66642388D01*
X92030336Y-66642389D01*
X91805572Y-66735489D01*
X91805568Y-66735491D01*
X91800998Y-66737384D01*
X91796778Y-66739970D01*
X91783332Y-66748210D01*
X91585124Y-66869672D01*
X91392602Y-67034102D01*
X91228172Y-67226624D01*
X91095884Y-67442498D01*
X91093991Y-67447068D01*
X91093989Y-67447072D01*
X91000889Y-67671836D01*
X90998995Y-67676409D01*
X90981349Y-67749911D01*
X90946967Y-67893124D01*
X90939891Y-67922597D01*
X90920026Y-68175000D01*
X88758000Y-68175000D01*
X88758000Y-67359328D01*
X88759500Y-67339943D01*
X88761805Y-67325142D01*
X88761805Y-67325139D01*
X88763186Y-67316270D01*
X88760743Y-67297589D01*
X88759852Y-67274657D01*
X88768454Y-67110533D01*
X88775743Y-66971443D01*
X88777121Y-66958329D01*
X88799722Y-66815634D01*
X88820710Y-66683115D01*
X88829123Y-66629998D01*
X88831865Y-66617098D01*
X88917903Y-66296000D01*
X88921979Y-66283456D01*
X89041105Y-65973124D01*
X89046469Y-65961076D01*
X89197388Y-65664880D01*
X89203982Y-65653459D01*
X89221095Y-65627108D01*
X89385033Y-65374666D01*
X89392779Y-65364004D01*
X89601080Y-65106773D01*
X89601985Y-65105655D01*
X89610810Y-65095855D01*
X89845855Y-64860810D01*
X89855656Y-64851984D01*
X90114004Y-64642779D01*
X90124666Y-64635033D01*
X90403464Y-64453979D01*
X90414880Y-64447388D01*
X90711076Y-64296469D01*
X90723124Y-64291105D01*
X90760642Y-64276703D01*
X91033464Y-64171977D01*
X91046000Y-64167903D01*
X91367098Y-64081865D01*
X91379998Y-64079123D01*
X91468715Y-64065072D01*
X91708335Y-64027120D01*
X91721443Y-64025743D01*
X92017334Y-64010236D01*
X92043312Y-64011564D01*
X92044856Y-64011805D01*
X92044860Y-64011805D01*
X92053730Y-64013186D01*
X92062632Y-64012022D01*
X92062635Y-64012022D01*
X92085251Y-64009064D01*
X92101589Y-64008000D01*
X105581576Y-64008000D01*
X105649697Y-64028002D01*
G37*
%TD.AperFunction*%
%TD*%
M02*
