%TF.GenerationSoftware,KiCad,Pcbnew,(6.0.1)*%
%TF.CreationDate,2022-04-16T19:03:55-06:00*%
%TF.ProjectId,PicoFlasher_Breakout_Board_V1.4,5069636f-466c-4617-9368-65725f427265,rev?*%
%TF.SameCoordinates,Original*%
%TF.FileFunction,Legend,Top*%
%TF.FilePolarity,Positive*%
%FSLAX46Y46*%
G04 Gerber Fmt 4.6, Leading zero omitted, Abs format (unit mm)*
G04 Created by KiCad (PCBNEW (6.0.1)) date 2022-04-16 19:03:55*
%MOMM*%
%LPD*%
G01*
G04 APERTURE LIST*
G04 Aperture macros list*
%AMRoundRect*
0 Rectangle with rounded corners*
0 $1 Rounding radius*
0 $2 $3 $4 $5 $6 $7 $8 $9 X,Y pos of 4 corners*
0 Add a 4 corners polygon primitive as box body*
4,1,4,$2,$3,$4,$5,$6,$7,$8,$9,$2,$3,0*
0 Add four circle primitives for the rounded corners*
1,1,$1+$1,$2,$3*
1,1,$1+$1,$4,$5*
1,1,$1+$1,$6,$7*
1,1,$1+$1,$8,$9*
0 Add four rect primitives between the rounded corners*
20,1,$1+$1,$2,$3,$4,$5,0*
20,1,$1+$1,$4,$5,$6,$7,0*
20,1,$1+$1,$6,$7,$8,$9,0*
20,1,$1+$1,$8,$9,$2,$3,0*%
G04 Aperture macros list end*
%ADD10C,0.150000*%
%ADD11C,0.075000*%
%ADD12C,0.120000*%
%ADD13C,0.100000*%
%ADD14C,0.300000*%
%ADD15C,0.254000*%
%ADD16C,0.200000*%
%ADD17C,0.500000*%
%ADD18RoundRect,0.250000X-0.450000X0.325000X-0.450000X-0.325000X0.450000X-0.325000X0.450000X0.325000X0*%
%ADD19C,2.200000*%
%ADD20R,0.700000X2.500000*%
%ADD21R,1.100000X1.900000*%
%ADD22R,1.600000X3.200000*%
%ADD23R,0.800000X0.500000*%
%ADD24R,0.800000X0.400000*%
%ADD25O,1.600000X2.000000*%
%ADD26C,1.800000*%
G04 APERTURE END LIST*
D10*
X170150000Y-80850000D02*
X173462500Y-80850000D01*
D11*
X125045000Y-75480000D02*
X124740000Y-75480000D01*
D10*
X173000000Y-64300000D02*
X173500000Y-64800000D01*
D12*
X173500000Y-90000000D02*
X173000000Y-90500000D01*
D10*
X173462500Y-76150000D02*
X170150000Y-76150000D01*
D12*
X122500000Y-90000000D02*
X123000000Y-90500000D01*
X123000000Y-90500000D02*
X173000000Y-90500000D01*
D11*
X125022500Y-74450000D02*
X124717500Y-74450000D01*
D10*
X173000000Y-64300000D02*
X123000000Y-64300000D01*
D12*
X122975000Y-88150000D02*
X122475000Y-87650000D01*
X173000000Y-88100000D02*
X123725000Y-88150000D01*
X173500000Y-87600000D02*
X173000000Y-88100000D01*
D10*
X170150000Y-76150000D02*
X170150000Y-80850000D01*
D12*
X123725000Y-88150000D02*
X122975000Y-88150000D01*
D10*
X122500000Y-64800000D02*
X123000000Y-64300000D01*
X117900000Y-98347380D02*
X117900000Y-97347380D01*
X118280952Y-97347380D01*
X118376190Y-97395000D01*
X118423809Y-97442619D01*
X118471428Y-97537857D01*
X118471428Y-97680714D01*
X118423809Y-97775952D01*
X118376190Y-97823571D01*
X118280952Y-97871190D01*
X117900000Y-97871190D01*
X118900000Y-98347380D02*
X118900000Y-97680714D01*
X118900000Y-97347380D02*
X118852380Y-97395000D01*
X118900000Y-97442619D01*
X118947619Y-97395000D01*
X118900000Y-97347380D01*
X118900000Y-97442619D01*
X119804761Y-98299761D02*
X119709523Y-98347380D01*
X119519047Y-98347380D01*
X119423809Y-98299761D01*
X119376190Y-98252142D01*
X119328571Y-98156904D01*
X119328571Y-97871190D01*
X119376190Y-97775952D01*
X119423809Y-97728333D01*
X119519047Y-97680714D01*
X119709523Y-97680714D01*
X119804761Y-97728333D01*
X120376190Y-98347380D02*
X120280952Y-98299761D01*
X120233333Y-98252142D01*
X120185714Y-98156904D01*
X120185714Y-97871190D01*
X120233333Y-97775952D01*
X120280952Y-97728333D01*
X120376190Y-97680714D01*
X120519047Y-97680714D01*
X120614285Y-97728333D01*
X120661904Y-97775952D01*
X120709523Y-97871190D01*
X120709523Y-98156904D01*
X120661904Y-98252142D01*
X120614285Y-98299761D01*
X120519047Y-98347380D01*
X120376190Y-98347380D01*
X121471428Y-97823571D02*
X121138095Y-97823571D01*
X121138095Y-98347380D02*
X121138095Y-97347380D01*
X121614285Y-97347380D01*
X122138095Y-98347380D02*
X122042857Y-98299761D01*
X121995238Y-98204523D01*
X121995238Y-97347380D01*
X122947619Y-98347380D02*
X122947619Y-97823571D01*
X122900000Y-97728333D01*
X122804761Y-97680714D01*
X122614285Y-97680714D01*
X122519047Y-97728333D01*
X122947619Y-98299761D02*
X122852380Y-98347380D01*
X122614285Y-98347380D01*
X122519047Y-98299761D01*
X122471428Y-98204523D01*
X122471428Y-98109285D01*
X122519047Y-98014047D01*
X122614285Y-97966428D01*
X122852380Y-97966428D01*
X122947619Y-97918809D01*
X123376190Y-98299761D02*
X123471428Y-98347380D01*
X123661904Y-98347380D01*
X123757142Y-98299761D01*
X123804761Y-98204523D01*
X123804761Y-98156904D01*
X123757142Y-98061666D01*
X123661904Y-98014047D01*
X123519047Y-98014047D01*
X123423809Y-97966428D01*
X123376190Y-97871190D01*
X123376190Y-97823571D01*
X123423809Y-97728333D01*
X123519047Y-97680714D01*
X123661904Y-97680714D01*
X123757142Y-97728333D01*
X124233333Y-98347380D02*
X124233333Y-97347380D01*
X124661904Y-98347380D02*
X124661904Y-97823571D01*
X124614285Y-97728333D01*
X124519047Y-97680714D01*
X124376190Y-97680714D01*
X124280952Y-97728333D01*
X124233333Y-97775952D01*
X125519047Y-98299761D02*
X125423809Y-98347380D01*
X125233333Y-98347380D01*
X125138095Y-98299761D01*
X125090476Y-98204523D01*
X125090476Y-97823571D01*
X125138095Y-97728333D01*
X125233333Y-97680714D01*
X125423809Y-97680714D01*
X125519047Y-97728333D01*
X125566666Y-97823571D01*
X125566666Y-97918809D01*
X125090476Y-98014047D01*
X125995238Y-98347380D02*
X125995238Y-97680714D01*
X125995238Y-97871190D02*
X126042857Y-97775952D01*
X126090476Y-97728333D01*
X126185714Y-97680714D01*
X126280952Y-97680714D01*
X115185714Y-99433571D02*
X115328571Y-99481190D01*
X115376190Y-99528809D01*
X115423809Y-99624047D01*
X115423809Y-99766904D01*
X115376190Y-99862142D01*
X115328571Y-99909761D01*
X115233333Y-99957380D01*
X114852380Y-99957380D01*
X114852380Y-98957380D01*
X115185714Y-98957380D01*
X115280952Y-99005000D01*
X115328571Y-99052619D01*
X115376190Y-99147857D01*
X115376190Y-99243095D01*
X115328571Y-99338333D01*
X115280952Y-99385952D01*
X115185714Y-99433571D01*
X114852380Y-99433571D01*
X115852380Y-99957380D02*
X115852380Y-99290714D01*
X115852380Y-99481190D02*
X115900000Y-99385952D01*
X115947619Y-99338333D01*
X116042857Y-99290714D01*
X116138095Y-99290714D01*
X116852380Y-99909761D02*
X116757142Y-99957380D01*
X116566666Y-99957380D01*
X116471428Y-99909761D01*
X116423809Y-99814523D01*
X116423809Y-99433571D01*
X116471428Y-99338333D01*
X116566666Y-99290714D01*
X116757142Y-99290714D01*
X116852380Y-99338333D01*
X116900000Y-99433571D01*
X116900000Y-99528809D01*
X116423809Y-99624047D01*
X117757142Y-99957380D02*
X117757142Y-99433571D01*
X117709523Y-99338333D01*
X117614285Y-99290714D01*
X117423809Y-99290714D01*
X117328571Y-99338333D01*
X117757142Y-99909761D02*
X117661904Y-99957380D01*
X117423809Y-99957380D01*
X117328571Y-99909761D01*
X117280952Y-99814523D01*
X117280952Y-99719285D01*
X117328571Y-99624047D01*
X117423809Y-99576428D01*
X117661904Y-99576428D01*
X117757142Y-99528809D01*
X118233333Y-99957380D02*
X118233333Y-98957380D01*
X118328571Y-99576428D02*
X118614285Y-99957380D01*
X118614285Y-99290714D02*
X118233333Y-99671666D01*
X119185714Y-99957380D02*
X119090476Y-99909761D01*
X119042857Y-99862142D01*
X118995238Y-99766904D01*
X118995238Y-99481190D01*
X119042857Y-99385952D01*
X119090476Y-99338333D01*
X119185714Y-99290714D01*
X119328571Y-99290714D01*
X119423809Y-99338333D01*
X119471428Y-99385952D01*
X119519047Y-99481190D01*
X119519047Y-99766904D01*
X119471428Y-99862142D01*
X119423809Y-99909761D01*
X119328571Y-99957380D01*
X119185714Y-99957380D01*
X120376190Y-99290714D02*
X120376190Y-99957380D01*
X119947619Y-99290714D02*
X119947619Y-99814523D01*
X119995238Y-99909761D01*
X120090476Y-99957380D01*
X120233333Y-99957380D01*
X120328571Y-99909761D01*
X120376190Y-99862142D01*
X120709523Y-99290714D02*
X121090476Y-99290714D01*
X120852380Y-98957380D02*
X120852380Y-99814523D01*
X120900000Y-99909761D01*
X120995238Y-99957380D01*
X121090476Y-99957380D01*
X122519047Y-99433571D02*
X122661904Y-99481190D01*
X122709523Y-99528809D01*
X122757142Y-99624047D01*
X122757142Y-99766904D01*
X122709523Y-99862142D01*
X122661904Y-99909761D01*
X122566666Y-99957380D01*
X122185714Y-99957380D01*
X122185714Y-98957380D01*
X122519047Y-98957380D01*
X122614285Y-99005000D01*
X122661904Y-99052619D01*
X122709523Y-99147857D01*
X122709523Y-99243095D01*
X122661904Y-99338333D01*
X122614285Y-99385952D01*
X122519047Y-99433571D01*
X122185714Y-99433571D01*
X123328571Y-99957380D02*
X123233333Y-99909761D01*
X123185714Y-99862142D01*
X123138095Y-99766904D01*
X123138095Y-99481190D01*
X123185714Y-99385952D01*
X123233333Y-99338333D01*
X123328571Y-99290714D01*
X123471428Y-99290714D01*
X123566666Y-99338333D01*
X123614285Y-99385952D01*
X123661904Y-99481190D01*
X123661904Y-99766904D01*
X123614285Y-99862142D01*
X123566666Y-99909761D01*
X123471428Y-99957380D01*
X123328571Y-99957380D01*
X124519047Y-99957380D02*
X124519047Y-99433571D01*
X124471428Y-99338333D01*
X124376190Y-99290714D01*
X124185714Y-99290714D01*
X124090476Y-99338333D01*
X124519047Y-99909761D02*
X124423809Y-99957380D01*
X124185714Y-99957380D01*
X124090476Y-99909761D01*
X124042857Y-99814523D01*
X124042857Y-99719285D01*
X124090476Y-99624047D01*
X124185714Y-99576428D01*
X124423809Y-99576428D01*
X124519047Y-99528809D01*
X124995238Y-99957380D02*
X124995238Y-99290714D01*
X124995238Y-99481190D02*
X125042857Y-99385952D01*
X125090476Y-99338333D01*
X125185714Y-99290714D01*
X125280952Y-99290714D01*
X126042857Y-99957380D02*
X126042857Y-98957380D01*
X126042857Y-99909761D02*
X125947619Y-99957380D01*
X125757142Y-99957380D01*
X125661904Y-99909761D01*
X125614285Y-99862142D01*
X125566666Y-99766904D01*
X125566666Y-99481190D01*
X125614285Y-99385952D01*
X125661904Y-99338333D01*
X125757142Y-99290714D01*
X125947619Y-99290714D01*
X126042857Y-99338333D01*
X127185714Y-99290714D02*
X127423809Y-99957380D01*
X127661904Y-99290714D01*
X128566666Y-99957380D02*
X127995238Y-99957380D01*
X128280952Y-99957380D02*
X128280952Y-98957380D01*
X128185714Y-99100238D01*
X128090476Y-99195476D01*
X127995238Y-99243095D01*
X128995238Y-99862142D02*
X129042857Y-99909761D01*
X128995238Y-99957380D01*
X128947619Y-99909761D01*
X128995238Y-99862142D01*
X128995238Y-99957380D01*
X129900000Y-99290714D02*
X129900000Y-99957380D01*
X129661904Y-98909761D02*
X129423809Y-99624047D01*
X130042857Y-99624047D01*
X155752380Y-102157142D02*
X155704761Y-102204761D01*
X155561904Y-102252380D01*
X155466666Y-102252380D01*
X155323809Y-102204761D01*
X155228571Y-102109523D01*
X155180952Y-102014285D01*
X155133333Y-101823809D01*
X155133333Y-101680952D01*
X155180952Y-101490476D01*
X155228571Y-101395238D01*
X155323809Y-101300000D01*
X155466666Y-101252380D01*
X155561904Y-101252380D01*
X155704761Y-101300000D01*
X155752380Y-101347619D01*
X156609523Y-101585714D02*
X156609523Y-102252380D01*
X156371428Y-101204761D02*
X156133333Y-101919047D01*
X156752380Y-101919047D01*
X157561904Y-101585714D02*
X157561904Y-102252380D01*
X157323809Y-101204761D02*
X157085714Y-101919047D01*
X157704761Y-101919047D01*
X158038095Y-101347619D02*
X158085714Y-101300000D01*
X158180952Y-101252380D01*
X158419047Y-101252380D01*
X158514285Y-101300000D01*
X158561904Y-101347619D01*
X158609523Y-101442857D01*
X158609523Y-101538095D01*
X158561904Y-101680952D01*
X157990476Y-102252380D01*
X158609523Y-102252380D01*
X159561904Y-102252380D02*
X158990476Y-102252380D01*
X159276190Y-102252380D02*
X159276190Y-101252380D01*
X159180952Y-101395238D01*
X159085714Y-101490476D01*
X158990476Y-101538095D01*
X160466666Y-101252380D02*
X159990476Y-101252380D01*
X159942857Y-101728571D01*
X159990476Y-101680952D01*
X160085714Y-101633333D01*
X160323809Y-101633333D01*
X160419047Y-101680952D01*
X160466666Y-101728571D01*
X160514285Y-101823809D01*
X160514285Y-102061904D01*
X160466666Y-102157142D01*
X160419047Y-102204761D01*
X160323809Y-102252380D01*
X160085714Y-102252380D01*
X159990476Y-102204761D01*
X159942857Y-102157142D01*
X161371428Y-101252380D02*
X161180952Y-101252380D01*
X161085714Y-101300000D01*
X161038095Y-101347619D01*
X160942857Y-101490476D01*
X160895238Y-101680952D01*
X160895238Y-102061904D01*
X160942857Y-102157142D01*
X160990476Y-102204761D01*
X161085714Y-102252380D01*
X161276190Y-102252380D01*
X161371428Y-102204761D01*
X161419047Y-102157142D01*
X161466666Y-102061904D01*
X161466666Y-101823809D01*
X161419047Y-101728571D01*
X161371428Y-101680952D01*
X161276190Y-101633333D01*
X161085714Y-101633333D01*
X160990476Y-101680952D01*
X160942857Y-101728571D01*
X160895238Y-101823809D01*
D13*
X167660714Y-69500000D02*
X167660714Y-69964285D01*
X167375000Y-69714285D01*
X167375000Y-69821428D01*
X167339285Y-69892857D01*
X167303571Y-69928571D01*
X167232142Y-69964285D01*
X167053571Y-69964285D01*
X166982142Y-69928571D01*
X166946428Y-69892857D01*
X166910714Y-69821428D01*
X166910714Y-69607142D01*
X166946428Y-69535714D01*
X166982142Y-69500000D01*
X133646428Y-93770714D02*
X133615476Y-93863571D01*
X133584523Y-93894523D01*
X133522619Y-93925476D01*
X133429761Y-93925476D01*
X133367857Y-93894523D01*
X133336904Y-93863571D01*
X133305952Y-93801666D01*
X133305952Y-93554047D01*
X133955952Y-93554047D01*
X133955952Y-93770714D01*
X133925000Y-93832619D01*
X133894047Y-93863571D01*
X133832142Y-93894523D01*
X133770238Y-93894523D01*
X133708333Y-93863571D01*
X133677380Y-93832619D01*
X133646428Y-93770714D01*
X133646428Y-93554047D01*
X133305952Y-94296904D02*
X133336904Y-94235000D01*
X133398809Y-94204047D01*
X133955952Y-94204047D01*
X133739285Y-94823095D02*
X133305952Y-94823095D01*
X133739285Y-94544523D02*
X133398809Y-94544523D01*
X133336904Y-94575476D01*
X133305952Y-94637380D01*
X133305952Y-94730238D01*
X133336904Y-94792142D01*
X133367857Y-94823095D01*
X133336904Y-95380238D02*
X133305952Y-95318333D01*
X133305952Y-95194523D01*
X133336904Y-95132619D01*
X133398809Y-95101666D01*
X133646428Y-95101666D01*
X133708333Y-95132619D01*
X133739285Y-95194523D01*
X133739285Y-95318333D01*
X133708333Y-95380238D01*
X133646428Y-95411190D01*
X133584523Y-95411190D01*
X133522619Y-95101666D01*
X159960714Y-81932142D02*
X159210714Y-82182142D01*
X159960714Y-82432142D01*
X159210714Y-82682142D02*
X159710714Y-82682142D01*
X159567857Y-82682142D02*
X159639285Y-82717857D01*
X159675000Y-82753571D01*
X159710714Y-82825000D01*
X159710714Y-82896428D01*
X159246428Y-83432142D02*
X159210714Y-83360714D01*
X159210714Y-83217857D01*
X159246428Y-83146428D01*
X159317857Y-83110714D01*
X159603571Y-83110714D01*
X159675000Y-83146428D01*
X159710714Y-83217857D01*
X159710714Y-83360714D01*
X159675000Y-83432142D01*
X159603571Y-83467857D01*
X159532142Y-83467857D01*
X159460714Y-83110714D01*
X159710714Y-83682142D02*
X159710714Y-83967857D01*
X159210714Y-83789285D02*
X159853571Y-83789285D01*
X159925000Y-83825000D01*
X159960714Y-83896428D01*
X159960714Y-83967857D01*
X154930952Y-94240952D02*
X155240476Y-94024285D01*
X154930952Y-93869523D02*
X155580952Y-93869523D01*
X155580952Y-94117142D01*
X155550000Y-94179047D01*
X155519047Y-94210000D01*
X155457142Y-94240952D01*
X155364285Y-94240952D01*
X155302380Y-94210000D01*
X155271428Y-94179047D01*
X155240476Y-94117142D01*
X155240476Y-93869523D01*
X154961904Y-94767142D02*
X154930952Y-94705238D01*
X154930952Y-94581428D01*
X154961904Y-94519523D01*
X155023809Y-94488571D01*
X155271428Y-94488571D01*
X155333333Y-94519523D01*
X155364285Y-94581428D01*
X155364285Y-94705238D01*
X155333333Y-94767142D01*
X155271428Y-94798095D01*
X155209523Y-94798095D01*
X155147619Y-94488571D01*
X154930952Y-95355238D02*
X155580952Y-95355238D01*
X154961904Y-95355238D02*
X154930952Y-95293333D01*
X154930952Y-95169523D01*
X154961904Y-95107619D01*
X154992857Y-95076666D01*
X155054761Y-95045714D01*
X155240476Y-95045714D01*
X155302380Y-95076666D01*
X155333333Y-95107619D01*
X155364285Y-95169523D01*
X155364285Y-95293333D01*
X155333333Y-95355238D01*
X164725000Y-73464285D02*
X164760714Y-73392857D01*
X164760714Y-73285714D01*
X164725000Y-73178571D01*
X164653571Y-73107142D01*
X164582142Y-73071428D01*
X164439285Y-73035714D01*
X164332142Y-73035714D01*
X164189285Y-73071428D01*
X164117857Y-73107142D01*
X164046428Y-73178571D01*
X164010714Y-73285714D01*
X164010714Y-73357142D01*
X164046428Y-73464285D01*
X164082142Y-73500000D01*
X164332142Y-73500000D01*
X164332142Y-73357142D01*
X164010714Y-73821428D02*
X164760714Y-73821428D01*
X164760714Y-74107142D01*
X164725000Y-74178571D01*
X164689285Y-74214285D01*
X164617857Y-74250000D01*
X164510714Y-74250000D01*
X164439285Y-74214285D01*
X164403571Y-74178571D01*
X164367857Y-74107142D01*
X164367857Y-73821428D01*
X164689285Y-74535714D02*
X164725000Y-74571428D01*
X164760714Y-74642857D01*
X164760714Y-74821428D01*
X164725000Y-74892857D01*
X164689285Y-74928571D01*
X164617857Y-74964285D01*
X164546428Y-74964285D01*
X164439285Y-74928571D01*
X164010714Y-74500000D01*
X164010714Y-74964285D01*
X158290476Y-92799285D02*
X157980952Y-92799285D01*
X158630952Y-92582619D02*
X158290476Y-92799285D01*
X158630952Y-93015952D01*
X158011904Y-93480238D02*
X157980952Y-93418333D01*
X157980952Y-93294523D01*
X158011904Y-93232619D01*
X158073809Y-93201666D01*
X158321428Y-93201666D01*
X158383333Y-93232619D01*
X158414285Y-93294523D01*
X158414285Y-93418333D01*
X158383333Y-93480238D01*
X158321428Y-93511190D01*
X158259523Y-93511190D01*
X158197619Y-93201666D01*
X157980952Y-93882619D02*
X158011904Y-93820714D01*
X158073809Y-93789761D01*
X158630952Y-93789761D01*
X157980952Y-94223095D02*
X158011904Y-94161190D01*
X158073809Y-94130238D01*
X158630952Y-94130238D01*
X157980952Y-94563571D02*
X158011904Y-94501666D01*
X158042857Y-94470714D01*
X158104761Y-94439761D01*
X158290476Y-94439761D01*
X158352380Y-94470714D01*
X158383333Y-94501666D01*
X158414285Y-94563571D01*
X158414285Y-94656428D01*
X158383333Y-94718333D01*
X158352380Y-94749285D01*
X158290476Y-94780238D01*
X158104761Y-94780238D01*
X158042857Y-94749285D01*
X158011904Y-94718333D01*
X157980952Y-94656428D01*
X157980952Y-94563571D01*
X158414285Y-94996904D02*
X157980952Y-95120714D01*
X158290476Y-95244523D01*
X157980952Y-95368333D01*
X158414285Y-95492142D01*
X162457857Y-94844047D02*
X162891190Y-95494047D01*
X162891190Y-94844047D02*
X162457857Y-95494047D01*
X135325000Y-93275476D02*
X135355952Y-93213571D01*
X135355952Y-93120714D01*
X135325000Y-93027857D01*
X135263095Y-92965952D01*
X135201190Y-92935000D01*
X135077380Y-92904047D01*
X134984523Y-92904047D01*
X134860714Y-92935000D01*
X134798809Y-92965952D01*
X134736904Y-93027857D01*
X134705952Y-93120714D01*
X134705952Y-93182619D01*
X134736904Y-93275476D01*
X134767857Y-93306428D01*
X134984523Y-93306428D01*
X134984523Y-93182619D01*
X134705952Y-93585000D02*
X135139285Y-93585000D01*
X135015476Y-93585000D02*
X135077380Y-93615952D01*
X135108333Y-93646904D01*
X135139285Y-93708809D01*
X135139285Y-93770714D01*
X134736904Y-94235000D02*
X134705952Y-94173095D01*
X134705952Y-94049285D01*
X134736904Y-93987380D01*
X134798809Y-93956428D01*
X135046428Y-93956428D01*
X135108333Y-93987380D01*
X135139285Y-94049285D01*
X135139285Y-94173095D01*
X135108333Y-94235000D01*
X135046428Y-94265952D01*
X134984523Y-94265952D01*
X134922619Y-93956428D01*
X134736904Y-94792142D02*
X134705952Y-94730238D01*
X134705952Y-94606428D01*
X134736904Y-94544523D01*
X134798809Y-94513571D01*
X135046428Y-94513571D01*
X135108333Y-94544523D01*
X135139285Y-94606428D01*
X135139285Y-94730238D01*
X135108333Y-94792142D01*
X135046428Y-94823095D01*
X134984523Y-94823095D01*
X134922619Y-94513571D01*
X135139285Y-95101666D02*
X134705952Y-95101666D01*
X135077380Y-95101666D02*
X135108333Y-95132619D01*
X135139285Y-95194523D01*
X135139285Y-95287380D01*
X135108333Y-95349285D01*
X135046428Y-95380238D01*
X134705952Y-95380238D01*
X136228571Y-90760714D02*
X136264285Y-90725000D01*
X136335714Y-90689285D01*
X136514285Y-90689285D01*
X136585714Y-90725000D01*
X136621428Y-90760714D01*
X136657142Y-90832142D01*
X136657142Y-90903571D01*
X136621428Y-91010714D01*
X136192857Y-91439285D01*
X136657142Y-91439285D01*
X137300000Y-90689285D02*
X137157142Y-90689285D01*
X137085714Y-90725000D01*
X137050000Y-90760714D01*
X136978571Y-90867857D01*
X136942857Y-91010714D01*
X136942857Y-91296428D01*
X136978571Y-91367857D01*
X137014285Y-91403571D01*
X137085714Y-91439285D01*
X137228571Y-91439285D01*
X137300000Y-91403571D01*
X137335714Y-91367857D01*
X137371428Y-91296428D01*
X137371428Y-91117857D01*
X137335714Y-91046428D01*
X137300000Y-91010714D01*
X137228571Y-90975000D01*
X137085714Y-90975000D01*
X137014285Y-91010714D01*
X136978571Y-91046428D01*
X136942857Y-91117857D01*
X154589285Y-69678571D02*
X154625000Y-69607142D01*
X154660714Y-69571428D01*
X154732142Y-69535714D01*
X154767857Y-69535714D01*
X154839285Y-69571428D01*
X154875000Y-69607142D01*
X154910714Y-69678571D01*
X154910714Y-69821428D01*
X154875000Y-69892857D01*
X154839285Y-69928571D01*
X154767857Y-69964285D01*
X154732142Y-69964285D01*
X154660714Y-69928571D01*
X154625000Y-69892857D01*
X154589285Y-69821428D01*
X154589285Y-69678571D01*
X154553571Y-69607142D01*
X154517857Y-69571428D01*
X154446428Y-69535714D01*
X154303571Y-69535714D01*
X154232142Y-69571428D01*
X154196428Y-69607142D01*
X154160714Y-69678571D01*
X154160714Y-69821428D01*
X154196428Y-69892857D01*
X154232142Y-69928571D01*
X154303571Y-69964285D01*
X154446428Y-69964285D01*
X154517857Y-69928571D01*
X154553571Y-69892857D01*
X154589285Y-69821428D01*
X172135714Y-90939285D02*
X172135714Y-91439285D01*
X171957142Y-90653571D02*
X171778571Y-91189285D01*
X172242857Y-91189285D01*
X172671428Y-90689285D02*
X172742857Y-90689285D01*
X172814285Y-90725000D01*
X172850000Y-90760714D01*
X172885714Y-90832142D01*
X172921428Y-90975000D01*
X172921428Y-91153571D01*
X172885714Y-91296428D01*
X172850000Y-91367857D01*
X172814285Y-91403571D01*
X172742857Y-91439285D01*
X172671428Y-91439285D01*
X172600000Y-91403571D01*
X172564285Y-91367857D01*
X172528571Y-91296428D01*
X172492857Y-91153571D01*
X172492857Y-90975000D01*
X172528571Y-90832142D01*
X172564285Y-90760714D01*
X172600000Y-90725000D01*
X172671428Y-90689285D01*
X159042857Y-90689285D02*
X159507142Y-90689285D01*
X159257142Y-90975000D01*
X159364285Y-90975000D01*
X159435714Y-91010714D01*
X159471428Y-91046428D01*
X159507142Y-91117857D01*
X159507142Y-91296428D01*
X159471428Y-91367857D01*
X159435714Y-91403571D01*
X159364285Y-91439285D01*
X159150000Y-91439285D01*
X159078571Y-91403571D01*
X159042857Y-91367857D01*
X160185714Y-90689285D02*
X159828571Y-90689285D01*
X159792857Y-91046428D01*
X159828571Y-91010714D01*
X159900000Y-90975000D01*
X160078571Y-90975000D01*
X160150000Y-91010714D01*
X160185714Y-91046428D01*
X160221428Y-91117857D01*
X160221428Y-91296428D01*
X160185714Y-91367857D01*
X160150000Y-91403571D01*
X160078571Y-91439285D01*
X159900000Y-91439285D01*
X159828571Y-91403571D01*
X159792857Y-91367857D01*
D11*
X96159523Y-102251190D02*
X95992857Y-102013095D01*
X95873809Y-102251190D02*
X95873809Y-101751190D01*
X96064285Y-101751190D01*
X96111904Y-101775000D01*
X96135714Y-101798809D01*
X96159523Y-101846428D01*
X96159523Y-101917857D01*
X96135714Y-101965476D01*
X96111904Y-101989285D01*
X96064285Y-102013095D01*
X95873809Y-102013095D01*
X96564285Y-102227380D02*
X96516666Y-102251190D01*
X96421428Y-102251190D01*
X96373809Y-102227380D01*
X96350000Y-102179761D01*
X96350000Y-101989285D01*
X96373809Y-101941666D01*
X96421428Y-101917857D01*
X96516666Y-101917857D01*
X96564285Y-101941666D01*
X96588095Y-101989285D01*
X96588095Y-102036904D01*
X96350000Y-102084523D01*
X97016666Y-102251190D02*
X97016666Y-101989285D01*
X96992857Y-101941666D01*
X96945238Y-101917857D01*
X96850000Y-101917857D01*
X96802380Y-101941666D01*
X97016666Y-102227380D02*
X96969047Y-102251190D01*
X96850000Y-102251190D01*
X96802380Y-102227380D01*
X96778571Y-102179761D01*
X96778571Y-102132142D01*
X96802380Y-102084523D01*
X96850000Y-102060714D01*
X96969047Y-102060714D01*
X97016666Y-102036904D01*
X97469047Y-102251190D02*
X97469047Y-101751190D01*
X97469047Y-102227380D02*
X97421428Y-102251190D01*
X97326190Y-102251190D01*
X97278571Y-102227380D01*
X97254761Y-102203571D01*
X97230952Y-102155952D01*
X97230952Y-102013095D01*
X97254761Y-101965476D01*
X97278571Y-101941666D01*
X97326190Y-101917857D01*
X97421428Y-101917857D01*
X97469047Y-101941666D01*
X98064285Y-101727380D02*
X97635714Y-102370238D01*
X98183333Y-101751190D02*
X98302380Y-102251190D01*
X98397619Y-101894047D01*
X98492857Y-102251190D01*
X98611904Y-101751190D01*
X98802380Y-102251190D02*
X98802380Y-101917857D01*
X98802380Y-102013095D02*
X98826190Y-101965476D01*
X98850000Y-101941666D01*
X98897619Y-101917857D01*
X98945238Y-101917857D01*
X99111904Y-102251190D02*
X99111904Y-101917857D01*
X99111904Y-101751190D02*
X99088095Y-101775000D01*
X99111904Y-101798809D01*
X99135714Y-101775000D01*
X99111904Y-101751190D01*
X99111904Y-101798809D01*
X99278571Y-101917857D02*
X99469047Y-101917857D01*
X99350000Y-101751190D02*
X99350000Y-102179761D01*
X99373809Y-102227380D01*
X99421428Y-102251190D01*
X99469047Y-102251190D01*
X99826190Y-102227380D02*
X99778571Y-102251190D01*
X99683333Y-102251190D01*
X99635714Y-102227380D01*
X99611904Y-102179761D01*
X99611904Y-101989285D01*
X99635714Y-101941666D01*
X99683333Y-101917857D01*
X99778571Y-101917857D01*
X99826190Y-101941666D01*
X99850000Y-101989285D01*
X99850000Y-102036904D01*
X99611904Y-102084523D01*
D13*
X167625000Y-73517857D02*
X167660714Y-73446428D01*
X167660714Y-73339285D01*
X167625000Y-73232142D01*
X167553571Y-73160714D01*
X167482142Y-73125000D01*
X167339285Y-73089285D01*
X167232142Y-73089285D01*
X167089285Y-73125000D01*
X167017857Y-73160714D01*
X166946428Y-73232142D01*
X166910714Y-73339285D01*
X166910714Y-73410714D01*
X166946428Y-73517857D01*
X166982142Y-73553571D01*
X167232142Y-73553571D01*
X167232142Y-73410714D01*
X167410714Y-73875000D02*
X166910714Y-73875000D01*
X167339285Y-73875000D02*
X167375000Y-73910714D01*
X167410714Y-73982142D01*
X167410714Y-74089285D01*
X167375000Y-74160714D01*
X167303571Y-74196428D01*
X166910714Y-74196428D01*
X166910714Y-74875000D02*
X167660714Y-74875000D01*
X166946428Y-74875000D02*
X166910714Y-74803571D01*
X166910714Y-74660714D01*
X166946428Y-74589285D01*
X166982142Y-74553571D01*
X167053571Y-74517857D01*
X167267857Y-74517857D01*
X167339285Y-74553571D01*
X167375000Y-74589285D01*
X167410714Y-74660714D01*
X167410714Y-74803571D01*
X167375000Y-74875000D01*
X149160714Y-69557142D02*
X149160714Y-69128571D01*
X149160714Y-69342857D02*
X149910714Y-69342857D01*
X149803571Y-69271428D01*
X149732142Y-69200000D01*
X149696428Y-69128571D01*
X149910714Y-70021428D02*
X149910714Y-70092857D01*
X149875000Y-70164285D01*
X149839285Y-70200000D01*
X149767857Y-70235714D01*
X149625000Y-70271428D01*
X149446428Y-70271428D01*
X149303571Y-70235714D01*
X149232142Y-70200000D01*
X149196428Y-70164285D01*
X149160714Y-70092857D01*
X149160714Y-70021428D01*
X149196428Y-69950000D01*
X149232142Y-69914285D01*
X149303571Y-69878571D01*
X149446428Y-69842857D01*
X149625000Y-69842857D01*
X149767857Y-69878571D01*
X149839285Y-69914285D01*
X149875000Y-69950000D01*
X149910714Y-70021428D01*
D10*
X163771428Y-94304761D02*
X163676190Y-94352380D01*
X163485714Y-94352380D01*
X163390476Y-94304761D01*
X163342857Y-94209523D01*
X163342857Y-93828571D01*
X163390476Y-93733333D01*
X163485714Y-93685714D01*
X163676190Y-93685714D01*
X163771428Y-93733333D01*
X163819047Y-93828571D01*
X163819047Y-93923809D01*
X163342857Y-94019047D01*
X164247619Y-94352380D02*
X164247619Y-93352380D01*
X164580952Y-94066666D01*
X164914285Y-93352380D01*
X164914285Y-94352380D01*
X165390476Y-94352380D02*
X165390476Y-93352380D01*
X165723809Y-94066666D01*
X166057142Y-93352380D01*
X166057142Y-94352380D01*
X167104761Y-94257142D02*
X167057142Y-94304761D01*
X166914285Y-94352380D01*
X166819047Y-94352380D01*
X166676190Y-94304761D01*
X166580952Y-94209523D01*
X166533333Y-94114285D01*
X166485714Y-93923809D01*
X166485714Y-93780952D01*
X166533333Y-93590476D01*
X166580952Y-93495238D01*
X166676190Y-93400000D01*
X166819047Y-93352380D01*
X166914285Y-93352380D01*
X167057142Y-93400000D01*
X167104761Y-93447619D01*
X168866666Y-94257142D02*
X168819047Y-94304761D01*
X168676190Y-94352380D01*
X168580952Y-94352380D01*
X168438095Y-94304761D01*
X168342857Y-94209523D01*
X168295238Y-94114285D01*
X168247619Y-93923809D01*
X168247619Y-93780952D01*
X168295238Y-93590476D01*
X168342857Y-93495238D01*
X168438095Y-93400000D01*
X168580952Y-93352380D01*
X168676190Y-93352380D01*
X168819047Y-93400000D01*
X168866666Y-93447619D01*
X169723809Y-94352380D02*
X169723809Y-93828571D01*
X169676190Y-93733333D01*
X169580952Y-93685714D01*
X169390476Y-93685714D01*
X169295238Y-93733333D01*
X169723809Y-94304761D02*
X169628571Y-94352380D01*
X169390476Y-94352380D01*
X169295238Y-94304761D01*
X169247619Y-94209523D01*
X169247619Y-94114285D01*
X169295238Y-94019047D01*
X169390476Y-93971428D01*
X169628571Y-93971428D01*
X169723809Y-93923809D01*
X170200000Y-94352380D02*
X170200000Y-93352380D01*
X170200000Y-93733333D02*
X170295238Y-93685714D01*
X170485714Y-93685714D01*
X170580952Y-93733333D01*
X170628571Y-93780952D01*
X170676190Y-93876190D01*
X170676190Y-94161904D01*
X170628571Y-94257142D01*
X170580952Y-94304761D01*
X170485714Y-94352380D01*
X170295238Y-94352380D01*
X170200000Y-94304761D01*
X171247619Y-94352380D02*
X171152380Y-94304761D01*
X171104761Y-94209523D01*
X171104761Y-93352380D01*
X172009523Y-94304761D02*
X171914285Y-94352380D01*
X171723809Y-94352380D01*
X171628571Y-94304761D01*
X171580952Y-94209523D01*
X171580952Y-93828571D01*
X171628571Y-93733333D01*
X171723809Y-93685714D01*
X171914285Y-93685714D01*
X172009523Y-93733333D01*
X172057142Y-93828571D01*
X172057142Y-93923809D01*
X171580952Y-94019047D01*
D13*
X105205952Y-99191190D02*
X105515476Y-98974523D01*
X105205952Y-98819761D02*
X105855952Y-98819761D01*
X105855952Y-99067380D01*
X105825000Y-99129285D01*
X105794047Y-99160238D01*
X105732142Y-99191190D01*
X105639285Y-99191190D01*
X105577380Y-99160238D01*
X105546428Y-99129285D01*
X105515476Y-99067380D01*
X105515476Y-98819761D01*
X105205952Y-99748333D02*
X105855952Y-99748333D01*
X105236904Y-99748333D02*
X105205952Y-99686428D01*
X105205952Y-99562619D01*
X105236904Y-99500714D01*
X105267857Y-99469761D01*
X105329761Y-99438809D01*
X105515476Y-99438809D01*
X105577380Y-99469761D01*
X105608333Y-99500714D01*
X105639285Y-99562619D01*
X105639285Y-99686428D01*
X105608333Y-99748333D01*
X105639285Y-99995952D02*
X105205952Y-100150714D01*
X105639285Y-100305476D02*
X105205952Y-100150714D01*
X105051190Y-100088809D01*
X105020238Y-100057857D01*
X104989285Y-99995952D01*
X131360714Y-69557142D02*
X131360714Y-69128571D01*
X131360714Y-69342857D02*
X132110714Y-69342857D01*
X132003571Y-69271428D01*
X131932142Y-69200000D01*
X131896428Y-69128571D01*
X132110714Y-69807142D02*
X132110714Y-70307142D01*
X131360714Y-69985714D01*
X125978571Y-90760714D02*
X126014285Y-90725000D01*
X126085714Y-90689285D01*
X126264285Y-90689285D01*
X126335714Y-90725000D01*
X126371428Y-90760714D01*
X126407142Y-90832142D01*
X126407142Y-90903571D01*
X126371428Y-91010714D01*
X125942857Y-91439285D01*
X126407142Y-91439285D01*
X126692857Y-90760714D02*
X126728571Y-90725000D01*
X126800000Y-90689285D01*
X126978571Y-90689285D01*
X127050000Y-90725000D01*
X127085714Y-90760714D01*
X127121428Y-90832142D01*
X127121428Y-90903571D01*
X127085714Y-91010714D01*
X126657142Y-91439285D01*
X127121428Y-91439285D01*
X106705952Y-98819761D02*
X107355952Y-98819761D01*
X106891666Y-99036428D01*
X107355952Y-99253095D01*
X106705952Y-99253095D01*
X106705952Y-99562619D02*
X107139285Y-99562619D01*
X107355952Y-99562619D02*
X107325000Y-99531666D01*
X107294047Y-99562619D01*
X107325000Y-99593571D01*
X107355952Y-99562619D01*
X107294047Y-99562619D01*
X106736904Y-99841190D02*
X106705952Y-99903095D01*
X106705952Y-100026904D01*
X106736904Y-100088809D01*
X106798809Y-100119761D01*
X106829761Y-100119761D01*
X106891666Y-100088809D01*
X106922619Y-100026904D01*
X106922619Y-99934047D01*
X106953571Y-99872142D01*
X107015476Y-99841190D01*
X107046428Y-99841190D01*
X107108333Y-99872142D01*
X107139285Y-99934047D01*
X107139285Y-100026904D01*
X107108333Y-100088809D01*
X106705952Y-100491190D02*
X106736904Y-100429285D01*
X106767857Y-100398333D01*
X106829761Y-100367380D01*
X107015476Y-100367380D01*
X107077380Y-100398333D01*
X107108333Y-100429285D01*
X107139285Y-100491190D01*
X107139285Y-100584047D01*
X107108333Y-100645952D01*
X107077380Y-100676904D01*
X107015476Y-100707857D01*
X106829761Y-100707857D01*
X106767857Y-100676904D01*
X106736904Y-100645952D01*
X106705952Y-100584047D01*
X106705952Y-100491190D01*
X137125000Y-81557142D02*
X137160714Y-81485714D01*
X137160714Y-81378571D01*
X137125000Y-81271428D01*
X137053571Y-81200000D01*
X136982142Y-81164285D01*
X136839285Y-81128571D01*
X136732142Y-81128571D01*
X136589285Y-81164285D01*
X136517857Y-81200000D01*
X136446428Y-81271428D01*
X136410714Y-81378571D01*
X136410714Y-81450000D01*
X136446428Y-81557142D01*
X136482142Y-81592857D01*
X136732142Y-81592857D01*
X136732142Y-81450000D01*
X136410714Y-81914285D02*
X137160714Y-81914285D01*
X137160714Y-82200000D01*
X137125000Y-82271428D01*
X137089285Y-82307142D01*
X137017857Y-82342857D01*
X136910714Y-82342857D01*
X136839285Y-82307142D01*
X136803571Y-82271428D01*
X136767857Y-82200000D01*
X136767857Y-81914285D01*
X137089285Y-82628571D02*
X137125000Y-82664285D01*
X137160714Y-82735714D01*
X137160714Y-82914285D01*
X137125000Y-82985714D01*
X137089285Y-83021428D01*
X137017857Y-83057142D01*
X136946428Y-83057142D01*
X136839285Y-83021428D01*
X136410714Y-82592857D01*
X136410714Y-83057142D01*
X137160714Y-83521428D02*
X137160714Y-83592857D01*
X137125000Y-83664285D01*
X137089285Y-83700000D01*
X137017857Y-83735714D01*
X136875000Y-83771428D01*
X136696428Y-83771428D01*
X136553571Y-83735714D01*
X136482142Y-83700000D01*
X136446428Y-83664285D01*
X136410714Y-83592857D01*
X136410714Y-83521428D01*
X136446428Y-83450000D01*
X136482142Y-83414285D01*
X136553571Y-83378571D01*
X136696428Y-83342857D01*
X136875000Y-83342857D01*
X137017857Y-83378571D01*
X137089285Y-83414285D01*
X137125000Y-83450000D01*
X137160714Y-83521428D01*
X128810714Y-69557142D02*
X128810714Y-69128571D01*
X128810714Y-69342857D02*
X129560714Y-69342857D01*
X129453571Y-69271428D01*
X129382142Y-69200000D01*
X129346428Y-69128571D01*
X129239285Y-69985714D02*
X129275000Y-69914285D01*
X129310714Y-69878571D01*
X129382142Y-69842857D01*
X129417857Y-69842857D01*
X129489285Y-69878571D01*
X129525000Y-69914285D01*
X129560714Y-69985714D01*
X129560714Y-70128571D01*
X129525000Y-70200000D01*
X129489285Y-70235714D01*
X129417857Y-70271428D01*
X129382142Y-70271428D01*
X129310714Y-70235714D01*
X129275000Y-70200000D01*
X129239285Y-70128571D01*
X129239285Y-69985714D01*
X129203571Y-69914285D01*
X129167857Y-69878571D01*
X129096428Y-69842857D01*
X128953571Y-69842857D01*
X128882142Y-69878571D01*
X128846428Y-69914285D01*
X128810714Y-69985714D01*
X128810714Y-70128571D01*
X128846428Y-70200000D01*
X128882142Y-70235714D01*
X128953571Y-70271428D01*
X129096428Y-70271428D01*
X129167857Y-70235714D01*
X129203571Y-70200000D01*
X129239285Y-70128571D01*
X111205952Y-98819761D02*
X111855952Y-98819761D01*
X111391666Y-99036428D01*
X111855952Y-99253095D01*
X111205952Y-99253095D01*
X111205952Y-99655476D02*
X111236904Y-99593571D01*
X111267857Y-99562619D01*
X111329761Y-99531666D01*
X111515476Y-99531666D01*
X111577380Y-99562619D01*
X111608333Y-99593571D01*
X111639285Y-99655476D01*
X111639285Y-99748333D01*
X111608333Y-99810238D01*
X111577380Y-99841190D01*
X111515476Y-99872142D01*
X111329761Y-99872142D01*
X111267857Y-99841190D01*
X111236904Y-99810238D01*
X111205952Y-99748333D01*
X111205952Y-99655476D01*
X111236904Y-100119761D02*
X111205952Y-100181666D01*
X111205952Y-100305476D01*
X111236904Y-100367380D01*
X111298809Y-100398333D01*
X111329761Y-100398333D01*
X111391666Y-100367380D01*
X111422619Y-100305476D01*
X111422619Y-100212619D01*
X111453571Y-100150714D01*
X111515476Y-100119761D01*
X111546428Y-100119761D01*
X111608333Y-100150714D01*
X111639285Y-100212619D01*
X111639285Y-100305476D01*
X111608333Y-100367380D01*
X111205952Y-100676904D02*
X111639285Y-100676904D01*
X111855952Y-100676904D02*
X111825000Y-100645952D01*
X111794047Y-100676904D01*
X111825000Y-100707857D01*
X111855952Y-100676904D01*
X111794047Y-100676904D01*
X142125000Y-73517857D02*
X142160714Y-73446428D01*
X142160714Y-73339285D01*
X142125000Y-73232142D01*
X142053571Y-73160714D01*
X141982142Y-73125000D01*
X141839285Y-73089285D01*
X141732142Y-73089285D01*
X141589285Y-73125000D01*
X141517857Y-73160714D01*
X141446428Y-73232142D01*
X141410714Y-73339285D01*
X141410714Y-73410714D01*
X141446428Y-73517857D01*
X141482142Y-73553571D01*
X141732142Y-73553571D01*
X141732142Y-73410714D01*
X141910714Y-73875000D02*
X141410714Y-73875000D01*
X141839285Y-73875000D02*
X141875000Y-73910714D01*
X141910714Y-73982142D01*
X141910714Y-74089285D01*
X141875000Y-74160714D01*
X141803571Y-74196428D01*
X141410714Y-74196428D01*
X141410714Y-74875000D02*
X142160714Y-74875000D01*
X141446428Y-74875000D02*
X141410714Y-74803571D01*
X141410714Y-74660714D01*
X141446428Y-74589285D01*
X141482142Y-74553571D01*
X141553571Y-74517857D01*
X141767857Y-74517857D01*
X141839285Y-74553571D01*
X141875000Y-74589285D01*
X141910714Y-74660714D01*
X141910714Y-74803571D01*
X141875000Y-74875000D01*
X146342857Y-90689285D02*
X146807142Y-90689285D01*
X146557142Y-90975000D01*
X146664285Y-90975000D01*
X146735714Y-91010714D01*
X146771428Y-91046428D01*
X146807142Y-91117857D01*
X146807142Y-91296428D01*
X146771428Y-91367857D01*
X146735714Y-91403571D01*
X146664285Y-91439285D01*
X146450000Y-91439285D01*
X146378571Y-91403571D01*
X146342857Y-91367857D01*
X147271428Y-90689285D02*
X147342857Y-90689285D01*
X147414285Y-90725000D01*
X147450000Y-90760714D01*
X147485714Y-90832142D01*
X147521428Y-90975000D01*
X147521428Y-91153571D01*
X147485714Y-91296428D01*
X147450000Y-91367857D01*
X147414285Y-91403571D01*
X147342857Y-91439285D01*
X147271428Y-91439285D01*
X147200000Y-91403571D01*
X147164285Y-91367857D01*
X147128571Y-91296428D01*
X147092857Y-91153571D01*
X147092857Y-90975000D01*
X147128571Y-90832142D01*
X147164285Y-90760714D01*
X147200000Y-90725000D01*
X147271428Y-90689285D01*
X133910714Y-69557142D02*
X133910714Y-69128571D01*
X133910714Y-69342857D02*
X134660714Y-69342857D01*
X134553571Y-69271428D01*
X134482142Y-69200000D01*
X134446428Y-69128571D01*
X134660714Y-70200000D02*
X134660714Y-70057142D01*
X134625000Y-69985714D01*
X134589285Y-69950000D01*
X134482142Y-69878571D01*
X134339285Y-69842857D01*
X134053571Y-69842857D01*
X133982142Y-69878571D01*
X133946428Y-69914285D01*
X133910714Y-69985714D01*
X133910714Y-70128571D01*
X133946428Y-70200000D01*
X133982142Y-70235714D01*
X134053571Y-70271428D01*
X134232142Y-70271428D01*
X134303571Y-70235714D01*
X134339285Y-70200000D01*
X134375000Y-70128571D01*
X134375000Y-69985714D01*
X134339285Y-69914285D01*
X134303571Y-69878571D01*
X134232142Y-69842857D01*
X142646428Y-93336428D02*
X142615476Y-93429285D01*
X142584523Y-93460238D01*
X142522619Y-93491190D01*
X142429761Y-93491190D01*
X142367857Y-93460238D01*
X142336904Y-93429285D01*
X142305952Y-93367380D01*
X142305952Y-93119761D01*
X142955952Y-93119761D01*
X142955952Y-93336428D01*
X142925000Y-93398333D01*
X142894047Y-93429285D01*
X142832142Y-93460238D01*
X142770238Y-93460238D01*
X142708333Y-93429285D01*
X142677380Y-93398333D01*
X142646428Y-93336428D01*
X142646428Y-93119761D01*
X142305952Y-93862619D02*
X142336904Y-93800714D01*
X142398809Y-93769761D01*
X142955952Y-93769761D01*
X142305952Y-94388809D02*
X142646428Y-94388809D01*
X142708333Y-94357857D01*
X142739285Y-94295952D01*
X142739285Y-94172142D01*
X142708333Y-94110238D01*
X142336904Y-94388809D02*
X142305952Y-94326904D01*
X142305952Y-94172142D01*
X142336904Y-94110238D01*
X142398809Y-94079285D01*
X142460714Y-94079285D01*
X142522619Y-94110238D01*
X142553571Y-94172142D01*
X142553571Y-94326904D01*
X142584523Y-94388809D01*
X142336904Y-94976904D02*
X142305952Y-94915000D01*
X142305952Y-94791190D01*
X142336904Y-94729285D01*
X142367857Y-94698333D01*
X142429761Y-94667380D01*
X142615476Y-94667380D01*
X142677380Y-94698333D01*
X142708333Y-94729285D01*
X142739285Y-94791190D01*
X142739285Y-94915000D01*
X142708333Y-94976904D01*
X142305952Y-95255476D02*
X142955952Y-95255476D01*
X142553571Y-95317380D02*
X142305952Y-95503095D01*
X142739285Y-95503095D02*
X142491666Y-95255476D01*
X141510714Y-69557142D02*
X141510714Y-69128571D01*
X141510714Y-69342857D02*
X142260714Y-69342857D01*
X142153571Y-69271428D01*
X142082142Y-69200000D01*
X142046428Y-69128571D01*
X142260714Y-69807142D02*
X142260714Y-70271428D01*
X141975000Y-70021428D01*
X141975000Y-70128571D01*
X141939285Y-70200000D01*
X141903571Y-70235714D01*
X141832142Y-70271428D01*
X141653571Y-70271428D01*
X141582142Y-70235714D01*
X141546428Y-70200000D01*
X141510714Y-70128571D01*
X141510714Y-69914285D01*
X141546428Y-69842857D01*
X141582142Y-69807142D01*
X134625000Y-81557142D02*
X134660714Y-81485714D01*
X134660714Y-81378571D01*
X134625000Y-81271428D01*
X134553571Y-81200000D01*
X134482142Y-81164285D01*
X134339285Y-81128571D01*
X134232142Y-81128571D01*
X134089285Y-81164285D01*
X134017857Y-81200000D01*
X133946428Y-81271428D01*
X133910714Y-81378571D01*
X133910714Y-81450000D01*
X133946428Y-81557142D01*
X133982142Y-81592857D01*
X134232142Y-81592857D01*
X134232142Y-81450000D01*
X133910714Y-81914285D02*
X134660714Y-81914285D01*
X134660714Y-82200000D01*
X134625000Y-82271428D01*
X134589285Y-82307142D01*
X134517857Y-82342857D01*
X134410714Y-82342857D01*
X134339285Y-82307142D01*
X134303571Y-82271428D01*
X134267857Y-82200000D01*
X134267857Y-81914285D01*
X133910714Y-83057142D02*
X133910714Y-82628571D01*
X133910714Y-82842857D02*
X134660714Y-82842857D01*
X134553571Y-82771428D01*
X134482142Y-82700000D01*
X134446428Y-82628571D01*
X133910714Y-83414285D02*
X133910714Y-83557142D01*
X133946428Y-83628571D01*
X133982142Y-83664285D01*
X134089285Y-83735714D01*
X134232142Y-83771428D01*
X134517857Y-83771428D01*
X134589285Y-83735714D01*
X134625000Y-83700000D01*
X134660714Y-83628571D01*
X134660714Y-83485714D01*
X134625000Y-83414285D01*
X134589285Y-83378571D01*
X134517857Y-83342857D01*
X134339285Y-83342857D01*
X134267857Y-83378571D01*
X134232142Y-83414285D01*
X134196428Y-83485714D01*
X134196428Y-83628571D01*
X134232142Y-83700000D01*
X134267857Y-83735714D01*
X134339285Y-83771428D01*
X166692857Y-90689285D02*
X167157142Y-90689285D01*
X166907142Y-90975000D01*
X167014285Y-90975000D01*
X167085714Y-91010714D01*
X167121428Y-91046428D01*
X167157142Y-91117857D01*
X167157142Y-91296428D01*
X167121428Y-91367857D01*
X167085714Y-91403571D01*
X167014285Y-91439285D01*
X166800000Y-91439285D01*
X166728571Y-91403571D01*
X166692857Y-91367857D01*
X167585714Y-91010714D02*
X167514285Y-90975000D01*
X167478571Y-90939285D01*
X167442857Y-90867857D01*
X167442857Y-90832142D01*
X167478571Y-90760714D01*
X167514285Y-90725000D01*
X167585714Y-90689285D01*
X167728571Y-90689285D01*
X167800000Y-90725000D01*
X167835714Y-90760714D01*
X167871428Y-90832142D01*
X167871428Y-90867857D01*
X167835714Y-90939285D01*
X167800000Y-90975000D01*
X167728571Y-91010714D01*
X167585714Y-91010714D01*
X167514285Y-91046428D01*
X167478571Y-91082142D01*
X167442857Y-91153571D01*
X167442857Y-91296428D01*
X167478571Y-91367857D01*
X167514285Y-91403571D01*
X167585714Y-91439285D01*
X167728571Y-91439285D01*
X167800000Y-91403571D01*
X167835714Y-91367857D01*
X167871428Y-91296428D01*
X167871428Y-91153571D01*
X167835714Y-91082142D01*
X167800000Y-91046428D01*
X167728571Y-91010714D01*
X162510714Y-69928571D02*
X162510714Y-69571428D01*
X162153571Y-69535714D01*
X162189285Y-69571428D01*
X162225000Y-69642857D01*
X162225000Y-69821428D01*
X162189285Y-69892857D01*
X162153571Y-69928571D01*
X162082142Y-69964285D01*
X161903571Y-69964285D01*
X161832142Y-69928571D01*
X161796428Y-69892857D01*
X161760714Y-69821428D01*
X161760714Y-69642857D01*
X161796428Y-69571428D01*
X161832142Y-69535714D01*
X164092857Y-90689285D02*
X164557142Y-90689285D01*
X164307142Y-90975000D01*
X164414285Y-90975000D01*
X164485714Y-91010714D01*
X164521428Y-91046428D01*
X164557142Y-91117857D01*
X164557142Y-91296428D01*
X164521428Y-91367857D01*
X164485714Y-91403571D01*
X164414285Y-91439285D01*
X164200000Y-91439285D01*
X164128571Y-91403571D01*
X164092857Y-91367857D01*
X164807142Y-90689285D02*
X165307142Y-90689285D01*
X164985714Y-91439285D01*
X161246428Y-93570714D02*
X161215476Y-93663571D01*
X161184523Y-93694523D01*
X161122619Y-93725476D01*
X161029761Y-93725476D01*
X160967857Y-93694523D01*
X160936904Y-93663571D01*
X160905952Y-93601666D01*
X160905952Y-93354047D01*
X161555952Y-93354047D01*
X161555952Y-93570714D01*
X161525000Y-93632619D01*
X161494047Y-93663571D01*
X161432142Y-93694523D01*
X161370238Y-93694523D01*
X161308333Y-93663571D01*
X161277380Y-93632619D01*
X161246428Y-93570714D01*
X161246428Y-93354047D01*
X160905952Y-94096904D02*
X160936904Y-94035000D01*
X160998809Y-94004047D01*
X161555952Y-94004047D01*
X161339285Y-94623095D02*
X160905952Y-94623095D01*
X161339285Y-94344523D02*
X160998809Y-94344523D01*
X160936904Y-94375476D01*
X160905952Y-94437380D01*
X160905952Y-94530238D01*
X160936904Y-94592142D01*
X160967857Y-94623095D01*
X160936904Y-95180238D02*
X160905952Y-95118333D01*
X160905952Y-94994523D01*
X160936904Y-94932619D01*
X160998809Y-94901666D01*
X161246428Y-94901666D01*
X161308333Y-94932619D01*
X161339285Y-94994523D01*
X161339285Y-95118333D01*
X161308333Y-95180238D01*
X161246428Y-95211190D01*
X161184523Y-95211190D01*
X161122619Y-94901666D01*
X133728571Y-90760714D02*
X133764285Y-90725000D01*
X133835714Y-90689285D01*
X134014285Y-90689285D01*
X134085714Y-90725000D01*
X134121428Y-90760714D01*
X134157142Y-90832142D01*
X134157142Y-90903571D01*
X134121428Y-91010714D01*
X133692857Y-91439285D01*
X134157142Y-91439285D01*
X134835714Y-90689285D02*
X134478571Y-90689285D01*
X134442857Y-91046428D01*
X134478571Y-91010714D01*
X134550000Y-90975000D01*
X134728571Y-90975000D01*
X134800000Y-91010714D01*
X134835714Y-91046428D01*
X134871428Y-91117857D01*
X134871428Y-91296428D01*
X134835714Y-91367857D01*
X134800000Y-91403571D01*
X134728571Y-91439285D01*
X134550000Y-91439285D01*
X134478571Y-91403571D01*
X134442857Y-91367857D01*
X144725000Y-81557142D02*
X144760714Y-81485714D01*
X144760714Y-81378571D01*
X144725000Y-81271428D01*
X144653571Y-81200000D01*
X144582142Y-81164285D01*
X144439285Y-81128571D01*
X144332142Y-81128571D01*
X144189285Y-81164285D01*
X144117857Y-81200000D01*
X144046428Y-81271428D01*
X144010714Y-81378571D01*
X144010714Y-81450000D01*
X144046428Y-81557142D01*
X144082142Y-81592857D01*
X144332142Y-81592857D01*
X144332142Y-81450000D01*
X144010714Y-81914285D02*
X144760714Y-81914285D01*
X144760714Y-82200000D01*
X144725000Y-82271428D01*
X144689285Y-82307142D01*
X144617857Y-82342857D01*
X144510714Y-82342857D01*
X144439285Y-82307142D01*
X144403571Y-82271428D01*
X144367857Y-82200000D01*
X144367857Y-81914285D01*
X144689285Y-82628571D02*
X144725000Y-82664285D01*
X144760714Y-82735714D01*
X144760714Y-82914285D01*
X144725000Y-82985714D01*
X144689285Y-83021428D01*
X144617857Y-83057142D01*
X144546428Y-83057142D01*
X144439285Y-83021428D01*
X144010714Y-82592857D01*
X144010714Y-83057142D01*
X144689285Y-83342857D02*
X144725000Y-83378571D01*
X144760714Y-83450000D01*
X144760714Y-83628571D01*
X144725000Y-83700000D01*
X144689285Y-83735714D01*
X144617857Y-83771428D01*
X144546428Y-83771428D01*
X144439285Y-83735714D01*
X144010714Y-83307142D01*
X144010714Y-83771428D01*
X157055952Y-92308809D02*
X157055952Y-92432619D01*
X157025000Y-92494523D01*
X156963095Y-92556428D01*
X156839285Y-92587380D01*
X156622619Y-92587380D01*
X156498809Y-92556428D01*
X156436904Y-92494523D01*
X156405952Y-92432619D01*
X156405952Y-92308809D01*
X156436904Y-92246904D01*
X156498809Y-92185000D01*
X156622619Y-92154047D01*
X156839285Y-92154047D01*
X156963095Y-92185000D01*
X157025000Y-92246904D01*
X157055952Y-92308809D01*
X156405952Y-92865952D02*
X156839285Y-92865952D01*
X156715476Y-92865952D02*
X156777380Y-92896904D01*
X156808333Y-92927857D01*
X156839285Y-92989761D01*
X156839285Y-93051666D01*
X156405952Y-93546904D02*
X156746428Y-93546904D01*
X156808333Y-93515952D01*
X156839285Y-93454047D01*
X156839285Y-93330238D01*
X156808333Y-93268333D01*
X156436904Y-93546904D02*
X156405952Y-93485000D01*
X156405952Y-93330238D01*
X156436904Y-93268333D01*
X156498809Y-93237380D01*
X156560714Y-93237380D01*
X156622619Y-93268333D01*
X156653571Y-93330238D01*
X156653571Y-93485000D01*
X156684523Y-93546904D01*
X156839285Y-93856428D02*
X156405952Y-93856428D01*
X156777380Y-93856428D02*
X156808333Y-93887380D01*
X156839285Y-93949285D01*
X156839285Y-94042142D01*
X156808333Y-94104047D01*
X156746428Y-94135000D01*
X156405952Y-94135000D01*
X156839285Y-94723095D02*
X156313095Y-94723095D01*
X156251190Y-94692142D01*
X156220238Y-94661190D01*
X156189285Y-94599285D01*
X156189285Y-94506428D01*
X156220238Y-94444523D01*
X156436904Y-94723095D02*
X156405952Y-94661190D01*
X156405952Y-94537380D01*
X156436904Y-94475476D01*
X156467857Y-94444523D01*
X156529761Y-94413571D01*
X156715476Y-94413571D01*
X156777380Y-94444523D01*
X156808333Y-94475476D01*
X156839285Y-94537380D01*
X156839285Y-94661190D01*
X156808333Y-94723095D01*
X156436904Y-95280238D02*
X156405952Y-95218333D01*
X156405952Y-95094523D01*
X156436904Y-95032619D01*
X156498809Y-95001666D01*
X156746428Y-95001666D01*
X156808333Y-95032619D01*
X156839285Y-95094523D01*
X156839285Y-95218333D01*
X156808333Y-95280238D01*
X156746428Y-95311190D01*
X156684523Y-95311190D01*
X156622619Y-95001666D01*
X162560714Y-79625000D02*
X162560714Y-80089285D01*
X162275000Y-79839285D01*
X162275000Y-79946428D01*
X162239285Y-80017857D01*
X162203571Y-80053571D01*
X162132142Y-80089285D01*
X161953571Y-80089285D01*
X161882142Y-80053571D01*
X161846428Y-80017857D01*
X161810714Y-79946428D01*
X161810714Y-79732142D01*
X161846428Y-79660714D01*
X161882142Y-79625000D01*
X162310714Y-80339285D02*
X161810714Y-80517857D01*
X162310714Y-80696428D01*
X162560714Y-80910714D02*
X162560714Y-81375000D01*
X162275000Y-81125000D01*
X162275000Y-81232142D01*
X162239285Y-81303571D01*
X162203571Y-81339285D01*
X162132142Y-81375000D01*
X161953571Y-81375000D01*
X161882142Y-81339285D01*
X161846428Y-81303571D01*
X161810714Y-81232142D01*
X161810714Y-81017857D01*
X161846428Y-80946428D01*
X161882142Y-80910714D01*
X162560714Y-82410714D02*
X162560714Y-82553571D01*
X162525000Y-82625000D01*
X162453571Y-82696428D01*
X162310714Y-82732142D01*
X162060714Y-82732142D01*
X161917857Y-82696428D01*
X161846428Y-82625000D01*
X161810714Y-82553571D01*
X161810714Y-82410714D01*
X161846428Y-82339285D01*
X161917857Y-82267857D01*
X162060714Y-82232142D01*
X162310714Y-82232142D01*
X162453571Y-82267857D01*
X162525000Y-82339285D01*
X162560714Y-82410714D01*
X162310714Y-83375000D02*
X161810714Y-83375000D01*
X162310714Y-83053571D02*
X161917857Y-83053571D01*
X161846428Y-83089285D01*
X161810714Y-83160714D01*
X161810714Y-83267857D01*
X161846428Y-83339285D01*
X161882142Y-83375000D01*
X162310714Y-83625000D02*
X162310714Y-83910714D01*
X162560714Y-83732142D02*
X161917857Y-83732142D01*
X161846428Y-83767857D01*
X161810714Y-83839285D01*
X161810714Y-83910714D01*
X143828571Y-90760714D02*
X143864285Y-90725000D01*
X143935714Y-90689285D01*
X144114285Y-90689285D01*
X144185714Y-90725000D01*
X144221428Y-90760714D01*
X144257142Y-90832142D01*
X144257142Y-90903571D01*
X144221428Y-91010714D01*
X143792857Y-91439285D01*
X144257142Y-91439285D01*
X144614285Y-91439285D02*
X144757142Y-91439285D01*
X144828571Y-91403571D01*
X144864285Y-91367857D01*
X144935714Y-91260714D01*
X144971428Y-91117857D01*
X144971428Y-90832142D01*
X144935714Y-90760714D01*
X144900000Y-90725000D01*
X144828571Y-90689285D01*
X144685714Y-90689285D01*
X144614285Y-90725000D01*
X144578571Y-90760714D01*
X144542857Y-90832142D01*
X144542857Y-91010714D01*
X144578571Y-91082142D01*
X144614285Y-91117857D01*
X144685714Y-91153571D01*
X144828571Y-91153571D01*
X144900000Y-91117857D01*
X144935714Y-91082142D01*
X144971428Y-91010714D01*
D11*
X96138095Y-101327380D02*
X96209523Y-101351190D01*
X96328571Y-101351190D01*
X96376190Y-101327380D01*
X96400000Y-101303571D01*
X96423809Y-101255952D01*
X96423809Y-101208333D01*
X96400000Y-101160714D01*
X96376190Y-101136904D01*
X96328571Y-101113095D01*
X96233333Y-101089285D01*
X96185714Y-101065476D01*
X96161904Y-101041666D01*
X96138095Y-100994047D01*
X96138095Y-100946428D01*
X96161904Y-100898809D01*
X96185714Y-100875000D01*
X96233333Y-100851190D01*
X96352380Y-100851190D01*
X96423809Y-100875000D01*
X96638095Y-101351190D02*
X96638095Y-100851190D01*
X96828571Y-100851190D01*
X96876190Y-100875000D01*
X96900000Y-100898809D01*
X96923809Y-100946428D01*
X96923809Y-101017857D01*
X96900000Y-101065476D01*
X96876190Y-101089285D01*
X96828571Y-101113095D01*
X96638095Y-101113095D01*
X97138095Y-101351190D02*
X97138095Y-100851190D01*
D13*
X136615476Y-92749285D02*
X136305952Y-92749285D01*
X136955952Y-92532619D02*
X136615476Y-92749285D01*
X136955952Y-92965952D01*
X136336904Y-93430238D02*
X136305952Y-93368333D01*
X136305952Y-93244523D01*
X136336904Y-93182619D01*
X136398809Y-93151666D01*
X136646428Y-93151666D01*
X136708333Y-93182619D01*
X136739285Y-93244523D01*
X136739285Y-93368333D01*
X136708333Y-93430238D01*
X136646428Y-93461190D01*
X136584523Y-93461190D01*
X136522619Y-93151666D01*
X136305952Y-93832619D02*
X136336904Y-93770714D01*
X136398809Y-93739761D01*
X136955952Y-93739761D01*
X136305952Y-94173095D02*
X136336904Y-94111190D01*
X136398809Y-94080238D01*
X136955952Y-94080238D01*
X136305952Y-94513571D02*
X136336904Y-94451666D01*
X136367857Y-94420714D01*
X136429761Y-94389761D01*
X136615476Y-94389761D01*
X136677380Y-94420714D01*
X136708333Y-94451666D01*
X136739285Y-94513571D01*
X136739285Y-94606428D01*
X136708333Y-94668333D01*
X136677380Y-94699285D01*
X136615476Y-94730238D01*
X136429761Y-94730238D01*
X136367857Y-94699285D01*
X136336904Y-94668333D01*
X136305952Y-94606428D01*
X136305952Y-94513571D01*
X136739285Y-94946904D02*
X136305952Y-95070714D01*
X136615476Y-95194523D01*
X136305952Y-95318333D01*
X136739285Y-95442142D01*
X136410714Y-69557142D02*
X136410714Y-69128571D01*
X136410714Y-69342857D02*
X137160714Y-69342857D01*
X137053571Y-69271428D01*
X136982142Y-69200000D01*
X136946428Y-69128571D01*
X137160714Y-70235714D02*
X137160714Y-69878571D01*
X136803571Y-69842857D01*
X136839285Y-69878571D01*
X136875000Y-69950000D01*
X136875000Y-70128571D01*
X136839285Y-70200000D01*
X136803571Y-70235714D01*
X136732142Y-70271428D01*
X136553571Y-70271428D01*
X136482142Y-70235714D01*
X136446428Y-70200000D01*
X136410714Y-70128571D01*
X136410714Y-69950000D01*
X136446428Y-69878571D01*
X136482142Y-69842857D01*
X157425000Y-73464285D02*
X157460714Y-73392857D01*
X157460714Y-73285714D01*
X157425000Y-73178571D01*
X157353571Y-73107142D01*
X157282142Y-73071428D01*
X157139285Y-73035714D01*
X157032142Y-73035714D01*
X156889285Y-73071428D01*
X156817857Y-73107142D01*
X156746428Y-73178571D01*
X156710714Y-73285714D01*
X156710714Y-73357142D01*
X156746428Y-73464285D01*
X156782142Y-73500000D01*
X157032142Y-73500000D01*
X157032142Y-73357142D01*
X156710714Y-73821428D02*
X157460714Y-73821428D01*
X157460714Y-74107142D01*
X157425000Y-74178571D01*
X157389285Y-74214285D01*
X157317857Y-74250000D01*
X157210714Y-74250000D01*
X157139285Y-74214285D01*
X157103571Y-74178571D01*
X157067857Y-74107142D01*
X157067857Y-73821428D01*
X157460714Y-74928571D02*
X157460714Y-74571428D01*
X157103571Y-74535714D01*
X157139285Y-74571428D01*
X157175000Y-74642857D01*
X157175000Y-74821428D01*
X157139285Y-74892857D01*
X157103571Y-74928571D01*
X157032142Y-74964285D01*
X156853571Y-74964285D01*
X156782142Y-74928571D01*
X156746428Y-74892857D01*
X156710714Y-74821428D01*
X156710714Y-74642857D01*
X156746428Y-74571428D01*
X156782142Y-74535714D01*
X170139285Y-69535714D02*
X170175000Y-69571428D01*
X170210714Y-69642857D01*
X170210714Y-69821428D01*
X170175000Y-69892857D01*
X170139285Y-69928571D01*
X170067857Y-69964285D01*
X169996428Y-69964285D01*
X169889285Y-69928571D01*
X169460714Y-69500000D01*
X169460714Y-69964285D01*
X157425000Y-81557142D02*
X157460714Y-81485714D01*
X157460714Y-81378571D01*
X157425000Y-81271428D01*
X157353571Y-81200000D01*
X157282142Y-81164285D01*
X157139285Y-81128571D01*
X157032142Y-81128571D01*
X156889285Y-81164285D01*
X156817857Y-81200000D01*
X156746428Y-81271428D01*
X156710714Y-81378571D01*
X156710714Y-81450000D01*
X156746428Y-81557142D01*
X156782142Y-81592857D01*
X157032142Y-81592857D01*
X157032142Y-81450000D01*
X156710714Y-81914285D02*
X157460714Y-81914285D01*
X157460714Y-82200000D01*
X157425000Y-82271428D01*
X157389285Y-82307142D01*
X157317857Y-82342857D01*
X157210714Y-82342857D01*
X157139285Y-82307142D01*
X157103571Y-82271428D01*
X157067857Y-82200000D01*
X157067857Y-81914285D01*
X157389285Y-82628571D02*
X157425000Y-82664285D01*
X157460714Y-82735714D01*
X157460714Y-82914285D01*
X157425000Y-82985714D01*
X157389285Y-83021428D01*
X157317857Y-83057142D01*
X157246428Y-83057142D01*
X157139285Y-83021428D01*
X156710714Y-82592857D01*
X156710714Y-83057142D01*
X157139285Y-83485714D02*
X157175000Y-83414285D01*
X157210714Y-83378571D01*
X157282142Y-83342857D01*
X157317857Y-83342857D01*
X157389285Y-83378571D01*
X157425000Y-83414285D01*
X157460714Y-83485714D01*
X157460714Y-83628571D01*
X157425000Y-83700000D01*
X157389285Y-83735714D01*
X157317857Y-83771428D01*
X157282142Y-83771428D01*
X157210714Y-83735714D01*
X157175000Y-83700000D01*
X157139285Y-83628571D01*
X157139285Y-83485714D01*
X157103571Y-83414285D01*
X157067857Y-83378571D01*
X156996428Y-83342857D01*
X156853571Y-83342857D01*
X156782142Y-83378571D01*
X156746428Y-83414285D01*
X156710714Y-83485714D01*
X156710714Y-83628571D01*
X156746428Y-83700000D01*
X156782142Y-83735714D01*
X156853571Y-83771428D01*
X156996428Y-83771428D01*
X157067857Y-83735714D01*
X157103571Y-83700000D01*
X157139285Y-83628571D01*
X170125000Y-73464285D02*
X170160714Y-73392857D01*
X170160714Y-73285714D01*
X170125000Y-73178571D01*
X170053571Y-73107142D01*
X169982142Y-73071428D01*
X169839285Y-73035714D01*
X169732142Y-73035714D01*
X169589285Y-73071428D01*
X169517857Y-73107142D01*
X169446428Y-73178571D01*
X169410714Y-73285714D01*
X169410714Y-73357142D01*
X169446428Y-73464285D01*
X169482142Y-73500000D01*
X169732142Y-73500000D01*
X169732142Y-73357142D01*
X169410714Y-73821428D02*
X170160714Y-73821428D01*
X170160714Y-74107142D01*
X170125000Y-74178571D01*
X170089285Y-74214285D01*
X170017857Y-74250000D01*
X169910714Y-74250000D01*
X169839285Y-74214285D01*
X169803571Y-74178571D01*
X169767857Y-74107142D01*
X169767857Y-73821428D01*
X169410714Y-74964285D02*
X169410714Y-74535714D01*
X169410714Y-74750000D02*
X170160714Y-74750000D01*
X170053571Y-74678571D01*
X169982142Y-74607142D01*
X169946428Y-74535714D01*
X169242857Y-90689285D02*
X169707142Y-90689285D01*
X169457142Y-90975000D01*
X169564285Y-90975000D01*
X169635714Y-91010714D01*
X169671428Y-91046428D01*
X169707142Y-91117857D01*
X169707142Y-91296428D01*
X169671428Y-91367857D01*
X169635714Y-91403571D01*
X169564285Y-91439285D01*
X169350000Y-91439285D01*
X169278571Y-91403571D01*
X169242857Y-91367857D01*
X170064285Y-91439285D02*
X170207142Y-91439285D01*
X170278571Y-91403571D01*
X170314285Y-91367857D01*
X170385714Y-91260714D01*
X170421428Y-91117857D01*
X170421428Y-90832142D01*
X170385714Y-90760714D01*
X170350000Y-90725000D01*
X170278571Y-90689285D01*
X170135714Y-90689285D01*
X170064285Y-90725000D01*
X170028571Y-90760714D01*
X169992857Y-90832142D01*
X169992857Y-91010714D01*
X170028571Y-91082142D01*
X170064285Y-91117857D01*
X170135714Y-91153571D01*
X170278571Y-91153571D01*
X170350000Y-91117857D01*
X170385714Y-91082142D01*
X170421428Y-91010714D01*
X139625000Y-73557142D02*
X139660714Y-73485714D01*
X139660714Y-73378571D01*
X139625000Y-73271428D01*
X139553571Y-73200000D01*
X139482142Y-73164285D01*
X139339285Y-73128571D01*
X139232142Y-73128571D01*
X139089285Y-73164285D01*
X139017857Y-73200000D01*
X138946428Y-73271428D01*
X138910714Y-73378571D01*
X138910714Y-73450000D01*
X138946428Y-73557142D01*
X138982142Y-73592857D01*
X139232142Y-73592857D01*
X139232142Y-73450000D01*
X138910714Y-73914285D02*
X139660714Y-73914285D01*
X139660714Y-74200000D01*
X139625000Y-74271428D01*
X139589285Y-74307142D01*
X139517857Y-74342857D01*
X139410714Y-74342857D01*
X139339285Y-74307142D01*
X139303571Y-74271428D01*
X139267857Y-74200000D01*
X139267857Y-73914285D01*
X138910714Y-75057142D02*
X138910714Y-74628571D01*
X138910714Y-74842857D02*
X139660714Y-74842857D01*
X139553571Y-74771428D01*
X139482142Y-74700000D01*
X139446428Y-74628571D01*
X139660714Y-75521428D02*
X139660714Y-75592857D01*
X139625000Y-75664285D01*
X139589285Y-75700000D01*
X139517857Y-75735714D01*
X139375000Y-75771428D01*
X139196428Y-75771428D01*
X139053571Y-75735714D01*
X138982142Y-75700000D01*
X138946428Y-75664285D01*
X138910714Y-75592857D01*
X138910714Y-75521428D01*
X138946428Y-75450000D01*
X138982142Y-75414285D01*
X139053571Y-75378571D01*
X139196428Y-75342857D01*
X139375000Y-75342857D01*
X139517857Y-75378571D01*
X139589285Y-75414285D01*
X139625000Y-75450000D01*
X139660714Y-75521428D01*
X141328571Y-90760714D02*
X141364285Y-90725000D01*
X141435714Y-90689285D01*
X141614285Y-90689285D01*
X141685714Y-90725000D01*
X141721428Y-90760714D01*
X141757142Y-90832142D01*
X141757142Y-90903571D01*
X141721428Y-91010714D01*
X141292857Y-91439285D01*
X141757142Y-91439285D01*
X142185714Y-91010714D02*
X142114285Y-90975000D01*
X142078571Y-90939285D01*
X142042857Y-90867857D01*
X142042857Y-90832142D01*
X142078571Y-90760714D01*
X142114285Y-90725000D01*
X142185714Y-90689285D01*
X142328571Y-90689285D01*
X142400000Y-90725000D01*
X142435714Y-90760714D01*
X142471428Y-90832142D01*
X142471428Y-90867857D01*
X142435714Y-90939285D01*
X142400000Y-90975000D01*
X142328571Y-91010714D01*
X142185714Y-91010714D01*
X142114285Y-91046428D01*
X142078571Y-91082142D01*
X142042857Y-91153571D01*
X142042857Y-91296428D01*
X142078571Y-91367857D01*
X142114285Y-91403571D01*
X142185714Y-91439285D01*
X142328571Y-91439285D01*
X142400000Y-91403571D01*
X142435714Y-91367857D01*
X142471428Y-91296428D01*
X142471428Y-91153571D01*
X142435714Y-91082142D01*
X142400000Y-91046428D01*
X142328571Y-91010714D01*
D10*
X105852380Y-102157142D02*
X105804761Y-102204761D01*
X105661904Y-102252380D01*
X105566666Y-102252380D01*
X105423809Y-102204761D01*
X105328571Y-102109523D01*
X105280952Y-102014285D01*
X105233333Y-101823809D01*
X105233333Y-101680952D01*
X105280952Y-101490476D01*
X105328571Y-101395238D01*
X105423809Y-101300000D01*
X105566666Y-101252380D01*
X105661904Y-101252380D01*
X105804761Y-101300000D01*
X105852380Y-101347619D01*
X106709523Y-101585714D02*
X106709523Y-102252380D01*
X106471428Y-101204761D02*
X106233333Y-101919047D01*
X106852380Y-101919047D01*
X107661904Y-101585714D02*
X107661904Y-102252380D01*
X107423809Y-101204761D02*
X107185714Y-101919047D01*
X107804761Y-101919047D01*
X108138095Y-101347619D02*
X108185714Y-101300000D01*
X108280952Y-101252380D01*
X108519047Y-101252380D01*
X108614285Y-101300000D01*
X108661904Y-101347619D01*
X108709523Y-101442857D01*
X108709523Y-101538095D01*
X108661904Y-101680952D01*
X108090476Y-102252380D01*
X108709523Y-102252380D01*
X109661904Y-102252380D02*
X109090476Y-102252380D01*
X109376190Y-102252380D02*
X109376190Y-101252380D01*
X109280952Y-101395238D01*
X109185714Y-101490476D01*
X109090476Y-101538095D01*
X110566666Y-101252380D02*
X110090476Y-101252380D01*
X110042857Y-101728571D01*
X110090476Y-101680952D01*
X110185714Y-101633333D01*
X110423809Y-101633333D01*
X110519047Y-101680952D01*
X110566666Y-101728571D01*
X110614285Y-101823809D01*
X110614285Y-102061904D01*
X110566666Y-102157142D01*
X110519047Y-102204761D01*
X110423809Y-102252380D01*
X110185714Y-102252380D01*
X110090476Y-102204761D01*
X110042857Y-102157142D01*
X110995238Y-101347619D02*
X111042857Y-101300000D01*
X111138095Y-101252380D01*
X111376190Y-101252380D01*
X111471428Y-101300000D01*
X111519047Y-101347619D01*
X111566666Y-101442857D01*
X111566666Y-101538095D01*
X111519047Y-101680952D01*
X110947619Y-102252380D01*
X111566666Y-102252380D01*
D13*
X138778571Y-90760714D02*
X138814285Y-90725000D01*
X138885714Y-90689285D01*
X139064285Y-90689285D01*
X139135714Y-90725000D01*
X139171428Y-90760714D01*
X139207142Y-90832142D01*
X139207142Y-90903571D01*
X139171428Y-91010714D01*
X138742857Y-91439285D01*
X139207142Y-91439285D01*
X139457142Y-90689285D02*
X139957142Y-90689285D01*
X139635714Y-91439285D01*
X139525000Y-81557142D02*
X139560714Y-81485714D01*
X139560714Y-81378571D01*
X139525000Y-81271428D01*
X139453571Y-81200000D01*
X139382142Y-81164285D01*
X139239285Y-81128571D01*
X139132142Y-81128571D01*
X138989285Y-81164285D01*
X138917857Y-81200000D01*
X138846428Y-81271428D01*
X138810714Y-81378571D01*
X138810714Y-81450000D01*
X138846428Y-81557142D01*
X138882142Y-81592857D01*
X139132142Y-81592857D01*
X139132142Y-81450000D01*
X138810714Y-81914285D02*
X139560714Y-81914285D01*
X139560714Y-82200000D01*
X139525000Y-82271428D01*
X139489285Y-82307142D01*
X139417857Y-82342857D01*
X139310714Y-82342857D01*
X139239285Y-82307142D01*
X139203571Y-82271428D01*
X139167857Y-82200000D01*
X139167857Y-81914285D01*
X139489285Y-82628571D02*
X139525000Y-82664285D01*
X139560714Y-82735714D01*
X139560714Y-82914285D01*
X139525000Y-82985714D01*
X139489285Y-83021428D01*
X139417857Y-83057142D01*
X139346428Y-83057142D01*
X139239285Y-83021428D01*
X138810714Y-82592857D01*
X138810714Y-83057142D01*
X138810714Y-83771428D02*
X138810714Y-83342857D01*
X138810714Y-83557142D02*
X139560714Y-83557142D01*
X139453571Y-83485714D01*
X139382142Y-83414285D01*
X139346428Y-83342857D01*
X159771428Y-93290476D02*
X159740476Y-93383333D01*
X159709523Y-93414285D01*
X159647619Y-93445238D01*
X159554761Y-93445238D01*
X159492857Y-93414285D01*
X159461904Y-93383333D01*
X159430952Y-93321428D01*
X159430952Y-93073809D01*
X160080952Y-93073809D01*
X160080952Y-93290476D01*
X160050000Y-93352380D01*
X160019047Y-93383333D01*
X159957142Y-93414285D01*
X159895238Y-93414285D01*
X159833333Y-93383333D01*
X159802380Y-93352380D01*
X159771428Y-93290476D01*
X159771428Y-93073809D01*
X159430952Y-93816666D02*
X159461904Y-93754761D01*
X159523809Y-93723809D01*
X160080952Y-93723809D01*
X159430952Y-94342857D02*
X159771428Y-94342857D01*
X159833333Y-94311904D01*
X159864285Y-94250000D01*
X159864285Y-94126190D01*
X159833333Y-94064285D01*
X159461904Y-94342857D02*
X159430952Y-94280952D01*
X159430952Y-94126190D01*
X159461904Y-94064285D01*
X159523809Y-94033333D01*
X159585714Y-94033333D01*
X159647619Y-94064285D01*
X159678571Y-94126190D01*
X159678571Y-94280952D01*
X159709523Y-94342857D01*
X159461904Y-94930952D02*
X159430952Y-94869047D01*
X159430952Y-94745238D01*
X159461904Y-94683333D01*
X159492857Y-94652380D01*
X159554761Y-94621428D01*
X159740476Y-94621428D01*
X159802380Y-94652380D01*
X159833333Y-94683333D01*
X159864285Y-94745238D01*
X159864285Y-94869047D01*
X159833333Y-94930952D01*
X159430952Y-95209523D02*
X160080952Y-95209523D01*
X159678571Y-95271428D02*
X159430952Y-95457142D01*
X159864285Y-95457142D02*
X159616666Y-95209523D01*
X129425000Y-73567857D02*
X129460714Y-73496428D01*
X129460714Y-73389285D01*
X129425000Y-73282142D01*
X129353571Y-73210714D01*
X129282142Y-73175000D01*
X129139285Y-73139285D01*
X129032142Y-73139285D01*
X128889285Y-73175000D01*
X128817857Y-73210714D01*
X128746428Y-73282142D01*
X128710714Y-73389285D01*
X128710714Y-73460714D01*
X128746428Y-73567857D01*
X128782142Y-73603571D01*
X129032142Y-73603571D01*
X129032142Y-73460714D01*
X129210714Y-73925000D02*
X128710714Y-73925000D01*
X129139285Y-73925000D02*
X129175000Y-73960714D01*
X129210714Y-74032142D01*
X129210714Y-74139285D01*
X129175000Y-74210714D01*
X129103571Y-74246428D01*
X128710714Y-74246428D01*
X128710714Y-74925000D02*
X129460714Y-74925000D01*
X128746428Y-74925000D02*
X128710714Y-74853571D01*
X128710714Y-74710714D01*
X128746428Y-74639285D01*
X128782142Y-74603571D01*
X128853571Y-74567857D01*
X129067857Y-74567857D01*
X129139285Y-74603571D01*
X129175000Y-74639285D01*
X129210714Y-74710714D01*
X129210714Y-74853571D01*
X129175000Y-74925000D01*
X152600000Y-93225476D02*
X152630952Y-93163571D01*
X152630952Y-93070714D01*
X152600000Y-92977857D01*
X152538095Y-92915952D01*
X152476190Y-92885000D01*
X152352380Y-92854047D01*
X152259523Y-92854047D01*
X152135714Y-92885000D01*
X152073809Y-92915952D01*
X152011904Y-92977857D01*
X151980952Y-93070714D01*
X151980952Y-93132619D01*
X152011904Y-93225476D01*
X152042857Y-93256428D01*
X152259523Y-93256428D01*
X152259523Y-93132619D01*
X151980952Y-93535000D02*
X152414285Y-93535000D01*
X152290476Y-93535000D02*
X152352380Y-93565952D01*
X152383333Y-93596904D01*
X152414285Y-93658809D01*
X152414285Y-93720714D01*
X152011904Y-94185000D02*
X151980952Y-94123095D01*
X151980952Y-93999285D01*
X152011904Y-93937380D01*
X152073809Y-93906428D01*
X152321428Y-93906428D01*
X152383333Y-93937380D01*
X152414285Y-93999285D01*
X152414285Y-94123095D01*
X152383333Y-94185000D01*
X152321428Y-94215952D01*
X152259523Y-94215952D01*
X152197619Y-93906428D01*
X152011904Y-94742142D02*
X151980952Y-94680238D01*
X151980952Y-94556428D01*
X152011904Y-94494523D01*
X152073809Y-94463571D01*
X152321428Y-94463571D01*
X152383333Y-94494523D01*
X152414285Y-94556428D01*
X152414285Y-94680238D01*
X152383333Y-94742142D01*
X152321428Y-94773095D01*
X152259523Y-94773095D01*
X152197619Y-94463571D01*
X152414285Y-95051666D02*
X151980952Y-95051666D01*
X152352380Y-95051666D02*
X152383333Y-95082619D01*
X152414285Y-95144523D01*
X152414285Y-95237380D01*
X152383333Y-95299285D01*
X152321428Y-95330238D01*
X151980952Y-95330238D01*
X142125000Y-82467857D02*
X142160714Y-82396428D01*
X142160714Y-82289285D01*
X142125000Y-82182142D01*
X142053571Y-82110714D01*
X141982142Y-82075000D01*
X141839285Y-82039285D01*
X141732142Y-82039285D01*
X141589285Y-82075000D01*
X141517857Y-82110714D01*
X141446428Y-82182142D01*
X141410714Y-82289285D01*
X141410714Y-82360714D01*
X141446428Y-82467857D01*
X141482142Y-82503571D01*
X141732142Y-82503571D01*
X141732142Y-82360714D01*
X141910714Y-82825000D02*
X141410714Y-82825000D01*
X141839285Y-82825000D02*
X141875000Y-82860714D01*
X141910714Y-82932142D01*
X141910714Y-83039285D01*
X141875000Y-83110714D01*
X141803571Y-83146428D01*
X141410714Y-83146428D01*
X141410714Y-83825000D02*
X142160714Y-83825000D01*
X141446428Y-83825000D02*
X141410714Y-83753571D01*
X141410714Y-83610714D01*
X141446428Y-83539285D01*
X141482142Y-83503571D01*
X141553571Y-83467857D01*
X141767857Y-83467857D01*
X141839285Y-83503571D01*
X141875000Y-83539285D01*
X141910714Y-83610714D01*
X141910714Y-83753571D01*
X141875000Y-83825000D01*
X139305952Y-94265952D02*
X139615476Y-94049285D01*
X139305952Y-93894523D02*
X139955952Y-93894523D01*
X139955952Y-94142142D01*
X139925000Y-94204047D01*
X139894047Y-94235000D01*
X139832142Y-94265952D01*
X139739285Y-94265952D01*
X139677380Y-94235000D01*
X139646428Y-94204047D01*
X139615476Y-94142142D01*
X139615476Y-93894523D01*
X139336904Y-94792142D02*
X139305952Y-94730238D01*
X139305952Y-94606428D01*
X139336904Y-94544523D01*
X139398809Y-94513571D01*
X139646428Y-94513571D01*
X139708333Y-94544523D01*
X139739285Y-94606428D01*
X139739285Y-94730238D01*
X139708333Y-94792142D01*
X139646428Y-94823095D01*
X139584523Y-94823095D01*
X139522619Y-94513571D01*
X139305952Y-95380238D02*
X139955952Y-95380238D01*
X139336904Y-95380238D02*
X139305952Y-95318333D01*
X139305952Y-95194523D01*
X139336904Y-95132619D01*
X139367857Y-95101666D01*
X139429761Y-95070714D01*
X139615476Y-95070714D01*
X139677380Y-95101666D01*
X139708333Y-95132619D01*
X139739285Y-95194523D01*
X139739285Y-95318333D01*
X139708333Y-95380238D01*
X105464285Y-70025000D02*
X105392857Y-69989285D01*
X105285714Y-69989285D01*
X105178571Y-70025000D01*
X105107142Y-70096428D01*
X105071428Y-70167857D01*
X105035714Y-70310714D01*
X105035714Y-70417857D01*
X105071428Y-70560714D01*
X105107142Y-70632142D01*
X105178571Y-70703571D01*
X105285714Y-70739285D01*
X105357142Y-70739285D01*
X105464285Y-70703571D01*
X105500000Y-70667857D01*
X105500000Y-70417857D01*
X105357142Y-70417857D01*
X105821428Y-70739285D02*
X105821428Y-69989285D01*
X106107142Y-69989285D01*
X106178571Y-70025000D01*
X106214285Y-70060714D01*
X106250000Y-70132142D01*
X106250000Y-70239285D01*
X106214285Y-70310714D01*
X106178571Y-70346428D01*
X106107142Y-70382142D01*
X105821428Y-70382142D01*
X106964285Y-70739285D02*
X106535714Y-70739285D01*
X106750000Y-70739285D02*
X106750000Y-69989285D01*
X106678571Y-70096428D01*
X106607142Y-70167857D01*
X106535714Y-70203571D01*
X153942857Y-90689285D02*
X154407142Y-90689285D01*
X154157142Y-90975000D01*
X154264285Y-90975000D01*
X154335714Y-91010714D01*
X154371428Y-91046428D01*
X154407142Y-91117857D01*
X154407142Y-91296428D01*
X154371428Y-91367857D01*
X154335714Y-91403571D01*
X154264285Y-91439285D01*
X154050000Y-91439285D01*
X153978571Y-91403571D01*
X153942857Y-91367857D01*
X154657142Y-90689285D02*
X155121428Y-90689285D01*
X154871428Y-90975000D01*
X154978571Y-90975000D01*
X155050000Y-91010714D01*
X155085714Y-91046428D01*
X155121428Y-91117857D01*
X155121428Y-91296428D01*
X155085714Y-91367857D01*
X155050000Y-91403571D01*
X154978571Y-91439285D01*
X154764285Y-91439285D01*
X154692857Y-91403571D01*
X154657142Y-91367857D01*
X161542857Y-90689285D02*
X162007142Y-90689285D01*
X161757142Y-90975000D01*
X161864285Y-90975000D01*
X161935714Y-91010714D01*
X161971428Y-91046428D01*
X162007142Y-91117857D01*
X162007142Y-91296428D01*
X161971428Y-91367857D01*
X161935714Y-91403571D01*
X161864285Y-91439285D01*
X161650000Y-91439285D01*
X161578571Y-91403571D01*
X161542857Y-91367857D01*
X162650000Y-90689285D02*
X162507142Y-90689285D01*
X162435714Y-90725000D01*
X162400000Y-90760714D01*
X162328571Y-90867857D01*
X162292857Y-91010714D01*
X162292857Y-91296428D01*
X162328571Y-91367857D01*
X162364285Y-91403571D01*
X162435714Y-91439285D01*
X162578571Y-91439285D01*
X162650000Y-91403571D01*
X162685714Y-91367857D01*
X162721428Y-91296428D01*
X162721428Y-91117857D01*
X162685714Y-91046428D01*
X162650000Y-91010714D01*
X162578571Y-90975000D01*
X162435714Y-90975000D01*
X162364285Y-91010714D01*
X162328571Y-91046428D01*
X162292857Y-91117857D01*
X149725000Y-73464285D02*
X149760714Y-73392857D01*
X149760714Y-73285714D01*
X149725000Y-73178571D01*
X149653571Y-73107142D01*
X149582142Y-73071428D01*
X149439285Y-73035714D01*
X149332142Y-73035714D01*
X149189285Y-73071428D01*
X149117857Y-73107142D01*
X149046428Y-73178571D01*
X149010714Y-73285714D01*
X149010714Y-73357142D01*
X149046428Y-73464285D01*
X149082142Y-73500000D01*
X149332142Y-73500000D01*
X149332142Y-73357142D01*
X149010714Y-73821428D02*
X149760714Y-73821428D01*
X149760714Y-74107142D01*
X149725000Y-74178571D01*
X149689285Y-74214285D01*
X149617857Y-74250000D01*
X149510714Y-74250000D01*
X149439285Y-74214285D01*
X149403571Y-74178571D01*
X149367857Y-74107142D01*
X149367857Y-73821428D01*
X149760714Y-74500000D02*
X149760714Y-75000000D01*
X149010714Y-74678571D01*
X153507857Y-94794047D02*
X153941190Y-95444047D01*
X153941190Y-94794047D02*
X153507857Y-95444047D01*
X124425000Y-81557142D02*
X124460714Y-81485714D01*
X124460714Y-81378571D01*
X124425000Y-81271428D01*
X124353571Y-81200000D01*
X124282142Y-81164285D01*
X124139285Y-81128571D01*
X124032142Y-81128571D01*
X123889285Y-81164285D01*
X123817857Y-81200000D01*
X123746428Y-81271428D01*
X123710714Y-81378571D01*
X123710714Y-81450000D01*
X123746428Y-81557142D01*
X123782142Y-81592857D01*
X124032142Y-81592857D01*
X124032142Y-81450000D01*
X123710714Y-81914285D02*
X124460714Y-81914285D01*
X124460714Y-82200000D01*
X124425000Y-82271428D01*
X124389285Y-82307142D01*
X124317857Y-82342857D01*
X124210714Y-82342857D01*
X124139285Y-82307142D01*
X124103571Y-82271428D01*
X124067857Y-82200000D01*
X124067857Y-81914285D01*
X123710714Y-83057142D02*
X123710714Y-82628571D01*
X123710714Y-82842857D02*
X124460714Y-82842857D01*
X124353571Y-82771428D01*
X124282142Y-82700000D01*
X124246428Y-82628571D01*
X124460714Y-83700000D02*
X124460714Y-83557142D01*
X124425000Y-83485714D01*
X124389285Y-83450000D01*
X124282142Y-83378571D01*
X124139285Y-83342857D01*
X123853571Y-83342857D01*
X123782142Y-83378571D01*
X123746428Y-83414285D01*
X123710714Y-83485714D01*
X123710714Y-83628571D01*
X123746428Y-83700000D01*
X123782142Y-83735714D01*
X123853571Y-83771428D01*
X124032142Y-83771428D01*
X124103571Y-83735714D01*
X124139285Y-83700000D01*
X124175000Y-83628571D01*
X124175000Y-83485714D01*
X124139285Y-83414285D01*
X124103571Y-83378571D01*
X124032142Y-83342857D01*
X141246428Y-92996904D02*
X141215476Y-93089761D01*
X141184523Y-93120714D01*
X141122619Y-93151666D01*
X141029761Y-93151666D01*
X140967857Y-93120714D01*
X140936904Y-93089761D01*
X140905952Y-93027857D01*
X140905952Y-92780238D01*
X141555952Y-92780238D01*
X141555952Y-92996904D01*
X141525000Y-93058809D01*
X141494047Y-93089761D01*
X141432142Y-93120714D01*
X141370238Y-93120714D01*
X141308333Y-93089761D01*
X141277380Y-93058809D01*
X141246428Y-92996904D01*
X141246428Y-92780238D01*
X140905952Y-93430238D02*
X141339285Y-93430238D01*
X141215476Y-93430238D02*
X141277380Y-93461190D01*
X141308333Y-93492142D01*
X141339285Y-93554047D01*
X141339285Y-93615952D01*
X140905952Y-93925476D02*
X140936904Y-93863571D01*
X140967857Y-93832619D01*
X141029761Y-93801666D01*
X141215476Y-93801666D01*
X141277380Y-93832619D01*
X141308333Y-93863571D01*
X141339285Y-93925476D01*
X141339285Y-94018333D01*
X141308333Y-94080238D01*
X141277380Y-94111190D01*
X141215476Y-94142142D01*
X141029761Y-94142142D01*
X140967857Y-94111190D01*
X140936904Y-94080238D01*
X140905952Y-94018333D01*
X140905952Y-93925476D01*
X141339285Y-94358809D02*
X140905952Y-94482619D01*
X141215476Y-94606428D01*
X140905952Y-94730238D01*
X141339285Y-94854047D01*
X141339285Y-95101666D02*
X140905952Y-95101666D01*
X141277380Y-95101666D02*
X141308333Y-95132619D01*
X141339285Y-95194523D01*
X141339285Y-95287380D01*
X141308333Y-95349285D01*
X141246428Y-95380238D01*
X140905952Y-95380238D01*
X165060714Y-80089285D02*
X165060714Y-80553571D01*
X164775000Y-80303571D01*
X164775000Y-80410714D01*
X164739285Y-80482142D01*
X164703571Y-80517857D01*
X164632142Y-80553571D01*
X164453571Y-80553571D01*
X164382142Y-80517857D01*
X164346428Y-80482142D01*
X164310714Y-80410714D01*
X164310714Y-80196428D01*
X164346428Y-80125000D01*
X164382142Y-80089285D01*
X164810714Y-80803571D02*
X164310714Y-80982142D01*
X164810714Y-81160714D01*
X165060714Y-81375000D02*
X165060714Y-81839285D01*
X164775000Y-81589285D01*
X164775000Y-81696428D01*
X164739285Y-81767857D01*
X164703571Y-81803571D01*
X164632142Y-81839285D01*
X164453571Y-81839285D01*
X164382142Y-81803571D01*
X164346428Y-81767857D01*
X164310714Y-81696428D01*
X164310714Y-81482142D01*
X164346428Y-81410714D01*
X164382142Y-81375000D01*
X164703571Y-82732142D02*
X164703571Y-82982142D01*
X164310714Y-83089285D02*
X164310714Y-82732142D01*
X165060714Y-82732142D01*
X165060714Y-83089285D01*
X164310714Y-83410714D02*
X165060714Y-83410714D01*
X164310714Y-83839285D01*
X165060714Y-83839285D01*
X146510714Y-82196428D02*
X146867857Y-81946428D01*
X146510714Y-81767857D02*
X147260714Y-81767857D01*
X147260714Y-82053571D01*
X147225000Y-82125000D01*
X147189285Y-82160714D01*
X147117857Y-82196428D01*
X147010714Y-82196428D01*
X146939285Y-82160714D01*
X146903571Y-82125000D01*
X146867857Y-82053571D01*
X146867857Y-81767857D01*
X147260714Y-82517857D02*
X146653571Y-82517857D01*
X146582142Y-82553571D01*
X146546428Y-82589285D01*
X146510714Y-82660714D01*
X146510714Y-82803571D01*
X146546428Y-82875000D01*
X146582142Y-82910714D01*
X146653571Y-82946428D01*
X147260714Y-82946428D01*
X146510714Y-83303571D02*
X147260714Y-83303571D01*
X146510714Y-83732142D01*
X147260714Y-83732142D01*
X126825000Y-73557142D02*
X126860714Y-73485714D01*
X126860714Y-73378571D01*
X126825000Y-73271428D01*
X126753571Y-73200000D01*
X126682142Y-73164285D01*
X126539285Y-73128571D01*
X126432142Y-73128571D01*
X126289285Y-73164285D01*
X126217857Y-73200000D01*
X126146428Y-73271428D01*
X126110714Y-73378571D01*
X126110714Y-73450000D01*
X126146428Y-73557142D01*
X126182142Y-73592857D01*
X126432142Y-73592857D01*
X126432142Y-73450000D01*
X126110714Y-73914285D02*
X126860714Y-73914285D01*
X126860714Y-74200000D01*
X126825000Y-74271428D01*
X126789285Y-74307142D01*
X126717857Y-74342857D01*
X126610714Y-74342857D01*
X126539285Y-74307142D01*
X126503571Y-74271428D01*
X126467857Y-74200000D01*
X126467857Y-73914285D01*
X126110714Y-75057142D02*
X126110714Y-74628571D01*
X126110714Y-74842857D02*
X126860714Y-74842857D01*
X126753571Y-74771428D01*
X126682142Y-74700000D01*
X126646428Y-74628571D01*
X126610714Y-75700000D02*
X126110714Y-75700000D01*
X126896428Y-75521428D02*
X126360714Y-75342857D01*
X126360714Y-75807142D01*
D10*
X125400000Y-94304761D02*
X125542857Y-94352380D01*
X125780952Y-94352380D01*
X125876190Y-94304761D01*
X125923809Y-94257142D01*
X125971428Y-94161904D01*
X125971428Y-94066666D01*
X125923809Y-93971428D01*
X125876190Y-93923809D01*
X125780952Y-93876190D01*
X125590476Y-93828571D01*
X125495238Y-93780952D01*
X125447619Y-93733333D01*
X125400000Y-93638095D01*
X125400000Y-93542857D01*
X125447619Y-93447619D01*
X125495238Y-93400000D01*
X125590476Y-93352380D01*
X125828571Y-93352380D01*
X125971428Y-93400000D01*
X126400000Y-94352380D02*
X126400000Y-93352380D01*
X126780952Y-93352380D01*
X126876190Y-93400000D01*
X126923809Y-93447619D01*
X126971428Y-93542857D01*
X126971428Y-93685714D01*
X126923809Y-93780952D01*
X126876190Y-93828571D01*
X126780952Y-93876190D01*
X126400000Y-93876190D01*
X127400000Y-94352380D02*
X127400000Y-93352380D01*
X129209523Y-94257142D02*
X129161904Y-94304761D01*
X129019047Y-94352380D01*
X128923809Y-94352380D01*
X128780952Y-94304761D01*
X128685714Y-94209523D01*
X128638095Y-94114285D01*
X128590476Y-93923809D01*
X128590476Y-93780952D01*
X128638095Y-93590476D01*
X128685714Y-93495238D01*
X128780952Y-93400000D01*
X128923809Y-93352380D01*
X129019047Y-93352380D01*
X129161904Y-93400000D01*
X129209523Y-93447619D01*
X130066666Y-94352380D02*
X130066666Y-93828571D01*
X130019047Y-93733333D01*
X129923809Y-93685714D01*
X129733333Y-93685714D01*
X129638095Y-93733333D01*
X130066666Y-94304761D02*
X129971428Y-94352380D01*
X129733333Y-94352380D01*
X129638095Y-94304761D01*
X129590476Y-94209523D01*
X129590476Y-94114285D01*
X129638095Y-94019047D01*
X129733333Y-93971428D01*
X129971428Y-93971428D01*
X130066666Y-93923809D01*
X130542857Y-94352380D02*
X130542857Y-93352380D01*
X130542857Y-93733333D02*
X130638095Y-93685714D01*
X130828571Y-93685714D01*
X130923809Y-93733333D01*
X130971428Y-93780952D01*
X131019047Y-93876190D01*
X131019047Y-94161904D01*
X130971428Y-94257142D01*
X130923809Y-94304761D01*
X130828571Y-94352380D01*
X130638095Y-94352380D01*
X130542857Y-94304761D01*
X131590476Y-94352380D02*
X131495238Y-94304761D01*
X131447619Y-94209523D01*
X131447619Y-93352380D01*
X132352380Y-94304761D02*
X132257142Y-94352380D01*
X132066666Y-94352380D01*
X131971428Y-94304761D01*
X131923809Y-94209523D01*
X131923809Y-93828571D01*
X131971428Y-93733333D01*
X132066666Y-93685714D01*
X132257142Y-93685714D01*
X132352380Y-93733333D01*
X132400000Y-93828571D01*
X132400000Y-93923809D01*
X131923809Y-94019047D01*
D13*
X124425000Y-73557142D02*
X124460714Y-73485714D01*
X124460714Y-73378571D01*
X124425000Y-73271428D01*
X124353571Y-73200000D01*
X124282142Y-73164285D01*
X124139285Y-73128571D01*
X124032142Y-73128571D01*
X123889285Y-73164285D01*
X123817857Y-73200000D01*
X123746428Y-73271428D01*
X123710714Y-73378571D01*
X123710714Y-73450000D01*
X123746428Y-73557142D01*
X123782142Y-73592857D01*
X124032142Y-73592857D01*
X124032142Y-73450000D01*
X123710714Y-73914285D02*
X124460714Y-73914285D01*
X124460714Y-74200000D01*
X124425000Y-74271428D01*
X124389285Y-74307142D01*
X124317857Y-74342857D01*
X124210714Y-74342857D01*
X124139285Y-74307142D01*
X124103571Y-74271428D01*
X124067857Y-74200000D01*
X124067857Y-73914285D01*
X123710714Y-75057142D02*
X123710714Y-74628571D01*
X123710714Y-74842857D02*
X124460714Y-74842857D01*
X124353571Y-74771428D01*
X124282142Y-74700000D01*
X124246428Y-74628571D01*
X124460714Y-75735714D02*
X124460714Y-75378571D01*
X124103571Y-75342857D01*
X124139285Y-75378571D01*
X124175000Y-75450000D01*
X124175000Y-75628571D01*
X124139285Y-75700000D01*
X124103571Y-75735714D01*
X124032142Y-75771428D01*
X123853571Y-75771428D01*
X123782142Y-75735714D01*
X123746428Y-75700000D01*
X123710714Y-75628571D01*
X123710714Y-75450000D01*
X123746428Y-75378571D01*
X123782142Y-75342857D01*
X138355952Y-92408809D02*
X138355952Y-92532619D01*
X138325000Y-92594523D01*
X138263095Y-92656428D01*
X138139285Y-92687380D01*
X137922619Y-92687380D01*
X137798809Y-92656428D01*
X137736904Y-92594523D01*
X137705952Y-92532619D01*
X137705952Y-92408809D01*
X137736904Y-92346904D01*
X137798809Y-92285000D01*
X137922619Y-92254047D01*
X138139285Y-92254047D01*
X138263095Y-92285000D01*
X138325000Y-92346904D01*
X138355952Y-92408809D01*
X137705952Y-92965952D02*
X138139285Y-92965952D01*
X138015476Y-92965952D02*
X138077380Y-92996904D01*
X138108333Y-93027857D01*
X138139285Y-93089761D01*
X138139285Y-93151666D01*
X137705952Y-93646904D02*
X138046428Y-93646904D01*
X138108333Y-93615952D01*
X138139285Y-93554047D01*
X138139285Y-93430238D01*
X138108333Y-93368333D01*
X137736904Y-93646904D02*
X137705952Y-93585000D01*
X137705952Y-93430238D01*
X137736904Y-93368333D01*
X137798809Y-93337380D01*
X137860714Y-93337380D01*
X137922619Y-93368333D01*
X137953571Y-93430238D01*
X137953571Y-93585000D01*
X137984523Y-93646904D01*
X138139285Y-93956428D02*
X137705952Y-93956428D01*
X138077380Y-93956428D02*
X138108333Y-93987380D01*
X138139285Y-94049285D01*
X138139285Y-94142142D01*
X138108333Y-94204047D01*
X138046428Y-94235000D01*
X137705952Y-94235000D01*
X138139285Y-94823095D02*
X137613095Y-94823095D01*
X137551190Y-94792142D01*
X137520238Y-94761190D01*
X137489285Y-94699285D01*
X137489285Y-94606428D01*
X137520238Y-94544523D01*
X137736904Y-94823095D02*
X137705952Y-94761190D01*
X137705952Y-94637380D01*
X137736904Y-94575476D01*
X137767857Y-94544523D01*
X137829761Y-94513571D01*
X138015476Y-94513571D01*
X138077380Y-94544523D01*
X138108333Y-94575476D01*
X138139285Y-94637380D01*
X138139285Y-94761190D01*
X138108333Y-94823095D01*
X137736904Y-95380238D02*
X137705952Y-95318333D01*
X137705952Y-95194523D01*
X137736904Y-95132619D01*
X137798809Y-95101666D01*
X138046428Y-95101666D01*
X138108333Y-95132619D01*
X138139285Y-95194523D01*
X138139285Y-95318333D01*
X138108333Y-95380238D01*
X138046428Y-95411190D01*
X137984523Y-95411190D01*
X137922619Y-95101666D01*
X156542857Y-90689285D02*
X157007142Y-90689285D01*
X156757142Y-90975000D01*
X156864285Y-90975000D01*
X156935714Y-91010714D01*
X156971428Y-91046428D01*
X157007142Y-91117857D01*
X157007142Y-91296428D01*
X156971428Y-91367857D01*
X156935714Y-91403571D01*
X156864285Y-91439285D01*
X156650000Y-91439285D01*
X156578571Y-91403571D01*
X156542857Y-91367857D01*
X157650000Y-90939285D02*
X157650000Y-91439285D01*
X157471428Y-90653571D02*
X157292857Y-91189285D01*
X157757142Y-91189285D01*
D10*
X104654761Y-95166666D02*
X105130952Y-95166666D01*
X104559523Y-95452380D02*
X104892857Y-94452380D01*
X105226190Y-95452380D01*
X105988095Y-94785714D02*
X105988095Y-95452380D01*
X105559523Y-94785714D02*
X105559523Y-95309523D01*
X105607142Y-95404761D01*
X105702380Y-95452380D01*
X105845238Y-95452380D01*
X105940476Y-95404761D01*
X105988095Y-95357142D01*
X106892857Y-95452380D02*
X106892857Y-94452380D01*
X106892857Y-95404761D02*
X106797619Y-95452380D01*
X106607142Y-95452380D01*
X106511904Y-95404761D01*
X106464285Y-95357142D01*
X106416666Y-95261904D01*
X106416666Y-94976190D01*
X106464285Y-94880952D01*
X106511904Y-94833333D01*
X106607142Y-94785714D01*
X106797619Y-94785714D01*
X106892857Y-94833333D01*
X107369047Y-95452380D02*
X107369047Y-94785714D01*
X107369047Y-94452380D02*
X107321428Y-94500000D01*
X107369047Y-94547619D01*
X107416666Y-94500000D01*
X107369047Y-94452380D01*
X107369047Y-94547619D01*
X107988095Y-95452380D02*
X107892857Y-95404761D01*
X107845238Y-95357142D01*
X107797619Y-95261904D01*
X107797619Y-94976190D01*
X107845238Y-94880952D01*
X107892857Y-94833333D01*
X107988095Y-94785714D01*
X108130952Y-94785714D01*
X108226190Y-94833333D01*
X108273809Y-94880952D01*
X108321428Y-94976190D01*
X108321428Y-95261904D01*
X108273809Y-95357142D01*
X108226190Y-95404761D01*
X108130952Y-95452380D01*
X107988095Y-95452380D01*
X110083333Y-95357142D02*
X110035714Y-95404761D01*
X109892857Y-95452380D01*
X109797619Y-95452380D01*
X109654761Y-95404761D01*
X109559523Y-95309523D01*
X109511904Y-95214285D01*
X109464285Y-95023809D01*
X109464285Y-94880952D01*
X109511904Y-94690476D01*
X109559523Y-94595238D01*
X109654761Y-94500000D01*
X109797619Y-94452380D01*
X109892857Y-94452380D01*
X110035714Y-94500000D01*
X110083333Y-94547619D01*
X110654761Y-95452380D02*
X110559523Y-95404761D01*
X110511904Y-95357142D01*
X110464285Y-95261904D01*
X110464285Y-94976190D01*
X110511904Y-94880952D01*
X110559523Y-94833333D01*
X110654761Y-94785714D01*
X110797619Y-94785714D01*
X110892857Y-94833333D01*
X110940476Y-94880952D01*
X110988095Y-94976190D01*
X110988095Y-95261904D01*
X110940476Y-95357142D01*
X110892857Y-95404761D01*
X110797619Y-95452380D01*
X110654761Y-95452380D01*
X111416666Y-94785714D02*
X111416666Y-95452380D01*
X111416666Y-94880952D02*
X111464285Y-94833333D01*
X111559523Y-94785714D01*
X111702380Y-94785714D01*
X111797619Y-94833333D01*
X111845238Y-94928571D01*
X111845238Y-95452380D01*
X112178571Y-94785714D02*
X112559523Y-94785714D01*
X112321428Y-95452380D02*
X112321428Y-94595238D01*
X112369047Y-94500000D01*
X112464285Y-94452380D01*
X112559523Y-94452380D01*
X112892857Y-95452380D02*
X112892857Y-94785714D01*
X112892857Y-94452380D02*
X112845238Y-94500000D01*
X112892857Y-94547619D01*
X112940476Y-94500000D01*
X112892857Y-94452380D01*
X112892857Y-94547619D01*
X113797619Y-94785714D02*
X113797619Y-95595238D01*
X113750000Y-95690476D01*
X113702380Y-95738095D01*
X113607142Y-95785714D01*
X113464285Y-95785714D01*
X113369047Y-95738095D01*
X113797619Y-95404761D02*
X113702380Y-95452380D01*
X113511904Y-95452380D01*
X113416666Y-95404761D01*
X113369047Y-95357142D01*
X113321428Y-95261904D01*
X113321428Y-94976190D01*
X113369047Y-94880952D01*
X113416666Y-94833333D01*
X113511904Y-94785714D01*
X113702380Y-94785714D01*
X113797619Y-94833333D01*
D13*
X102571428Y-70453571D02*
X103142857Y-70453571D01*
X102857142Y-70739285D02*
X102857142Y-70167857D01*
X103428571Y-69989285D02*
X103892857Y-69989285D01*
X103642857Y-70275000D01*
X103750000Y-70275000D01*
X103821428Y-70310714D01*
X103857142Y-70346428D01*
X103892857Y-70417857D01*
X103892857Y-70596428D01*
X103857142Y-70667857D01*
X103821428Y-70703571D01*
X103750000Y-70739285D01*
X103535714Y-70739285D01*
X103464285Y-70703571D01*
X103428571Y-70667857D01*
X104142857Y-70239285D02*
X104321428Y-70739285D01*
X104500000Y-70239285D01*
X144725000Y-73464285D02*
X144760714Y-73392857D01*
X144760714Y-73285714D01*
X144725000Y-73178571D01*
X144653571Y-73107142D01*
X144582142Y-73071428D01*
X144439285Y-73035714D01*
X144332142Y-73035714D01*
X144189285Y-73071428D01*
X144117857Y-73107142D01*
X144046428Y-73178571D01*
X144010714Y-73285714D01*
X144010714Y-73357142D01*
X144046428Y-73464285D01*
X144082142Y-73500000D01*
X144332142Y-73500000D01*
X144332142Y-73357142D01*
X144010714Y-73821428D02*
X144760714Y-73821428D01*
X144760714Y-74107142D01*
X144725000Y-74178571D01*
X144689285Y-74214285D01*
X144617857Y-74250000D01*
X144510714Y-74250000D01*
X144439285Y-74214285D01*
X144403571Y-74178571D01*
X144367857Y-74107142D01*
X144367857Y-73821428D01*
X144010714Y-74607142D02*
X144010714Y-74750000D01*
X144046428Y-74821428D01*
X144082142Y-74857142D01*
X144189285Y-74928571D01*
X144332142Y-74964285D01*
X144617857Y-74964285D01*
X144689285Y-74928571D01*
X144725000Y-74892857D01*
X144760714Y-74821428D01*
X144760714Y-74678571D01*
X144725000Y-74607142D01*
X144689285Y-74571428D01*
X144617857Y-74535714D01*
X144439285Y-74535714D01*
X144367857Y-74571428D01*
X144332142Y-74607142D01*
X144296428Y-74678571D01*
X144296428Y-74821428D01*
X144332142Y-74892857D01*
X144367857Y-74928571D01*
X144439285Y-74964285D01*
X124389285Y-69128571D02*
X124425000Y-69164285D01*
X124460714Y-69235714D01*
X124460714Y-69414285D01*
X124425000Y-69485714D01*
X124389285Y-69521428D01*
X124317857Y-69557142D01*
X124246428Y-69557142D01*
X124139285Y-69521428D01*
X123710714Y-69092857D01*
X123710714Y-69557142D01*
X124460714Y-70021428D02*
X124460714Y-70092857D01*
X124425000Y-70164285D01*
X124389285Y-70200000D01*
X124317857Y-70235714D01*
X124175000Y-70271428D01*
X123996428Y-70271428D01*
X123853571Y-70235714D01*
X123782142Y-70200000D01*
X123746428Y-70164285D01*
X123710714Y-70092857D01*
X123710714Y-70021428D01*
X123746428Y-69950000D01*
X123782142Y-69914285D01*
X123853571Y-69878571D01*
X123996428Y-69842857D01*
X124175000Y-69842857D01*
X124317857Y-69878571D01*
X124389285Y-69914285D01*
X124425000Y-69950000D01*
X124460714Y-70021428D01*
X147225000Y-73464285D02*
X147260714Y-73392857D01*
X147260714Y-73285714D01*
X147225000Y-73178571D01*
X147153571Y-73107142D01*
X147082142Y-73071428D01*
X146939285Y-73035714D01*
X146832142Y-73035714D01*
X146689285Y-73071428D01*
X146617857Y-73107142D01*
X146546428Y-73178571D01*
X146510714Y-73285714D01*
X146510714Y-73357142D01*
X146546428Y-73464285D01*
X146582142Y-73500000D01*
X146832142Y-73500000D01*
X146832142Y-73357142D01*
X146510714Y-73821428D02*
X147260714Y-73821428D01*
X147260714Y-74107142D01*
X147225000Y-74178571D01*
X147189285Y-74214285D01*
X147117857Y-74250000D01*
X147010714Y-74250000D01*
X146939285Y-74214285D01*
X146903571Y-74178571D01*
X146867857Y-74107142D01*
X146867857Y-73821428D01*
X146939285Y-74678571D02*
X146975000Y-74607142D01*
X147010714Y-74571428D01*
X147082142Y-74535714D01*
X147117857Y-74535714D01*
X147189285Y-74571428D01*
X147225000Y-74607142D01*
X147260714Y-74678571D01*
X147260714Y-74821428D01*
X147225000Y-74892857D01*
X147189285Y-74928571D01*
X147117857Y-74964285D01*
X147082142Y-74964285D01*
X147010714Y-74928571D01*
X146975000Y-74892857D01*
X146939285Y-74821428D01*
X146939285Y-74678571D01*
X146903571Y-74607142D01*
X146867857Y-74571428D01*
X146796428Y-74535714D01*
X146653571Y-74535714D01*
X146582142Y-74571428D01*
X146546428Y-74607142D01*
X146510714Y-74678571D01*
X146510714Y-74821428D01*
X146546428Y-74892857D01*
X146582142Y-74928571D01*
X146653571Y-74964285D01*
X146796428Y-74964285D01*
X146867857Y-74928571D01*
X146903571Y-74892857D01*
X146939285Y-74821428D01*
X164057857Y-94844047D02*
X164491190Y-95494047D01*
X164491190Y-94844047D02*
X164057857Y-95494047D01*
X100267857Y-70025000D02*
X100196428Y-69989285D01*
X100089285Y-69989285D01*
X99982142Y-70025000D01*
X99910714Y-70096428D01*
X99875000Y-70167857D01*
X99839285Y-70310714D01*
X99839285Y-70417857D01*
X99875000Y-70560714D01*
X99910714Y-70632142D01*
X99982142Y-70703571D01*
X100089285Y-70739285D01*
X100160714Y-70739285D01*
X100267857Y-70703571D01*
X100303571Y-70667857D01*
X100303571Y-70417857D01*
X100160714Y-70417857D01*
X100625000Y-70239285D02*
X100625000Y-70739285D01*
X100625000Y-70310714D02*
X100660714Y-70275000D01*
X100732142Y-70239285D01*
X100839285Y-70239285D01*
X100910714Y-70275000D01*
X100946428Y-70346428D01*
X100946428Y-70739285D01*
X101625000Y-70739285D02*
X101625000Y-69989285D01*
X101625000Y-70703571D02*
X101553571Y-70739285D01*
X101410714Y-70739285D01*
X101339285Y-70703571D01*
X101303571Y-70667857D01*
X101267857Y-70596428D01*
X101267857Y-70382142D01*
X101303571Y-70310714D01*
X101339285Y-70275000D01*
X101410714Y-70239285D01*
X101553571Y-70239285D01*
X101625000Y-70275000D01*
X134625000Y-73557142D02*
X134660714Y-73485714D01*
X134660714Y-73378571D01*
X134625000Y-73271428D01*
X134553571Y-73200000D01*
X134482142Y-73164285D01*
X134339285Y-73128571D01*
X134232142Y-73128571D01*
X134089285Y-73164285D01*
X134017857Y-73200000D01*
X133946428Y-73271428D01*
X133910714Y-73378571D01*
X133910714Y-73450000D01*
X133946428Y-73557142D01*
X133982142Y-73592857D01*
X134232142Y-73592857D01*
X134232142Y-73450000D01*
X133910714Y-73914285D02*
X134660714Y-73914285D01*
X134660714Y-74200000D01*
X134625000Y-74271428D01*
X134589285Y-74307142D01*
X134517857Y-74342857D01*
X134410714Y-74342857D01*
X134339285Y-74307142D01*
X134303571Y-74271428D01*
X134267857Y-74200000D01*
X134267857Y-73914285D01*
X133910714Y-75057142D02*
X133910714Y-74628571D01*
X133910714Y-74842857D02*
X134660714Y-74842857D01*
X134553571Y-74771428D01*
X134482142Y-74700000D01*
X134446428Y-74628571D01*
X134589285Y-75342857D02*
X134625000Y-75378571D01*
X134660714Y-75450000D01*
X134660714Y-75628571D01*
X134625000Y-75700000D01*
X134589285Y-75735714D01*
X134517857Y-75771428D01*
X134446428Y-75771428D01*
X134339285Y-75735714D01*
X133910714Y-75307142D01*
X133910714Y-75771428D01*
X100050000Y-96599285D02*
X100050000Y-95849285D01*
X100335714Y-95849285D01*
X100407142Y-95885000D01*
X100442857Y-95920714D01*
X100478571Y-95992142D01*
X100478571Y-96099285D01*
X100442857Y-96170714D01*
X100407142Y-96206428D01*
X100335714Y-96242142D01*
X100050000Y-96242142D01*
X100728571Y-95849285D02*
X100907142Y-96599285D01*
X101050000Y-96063571D01*
X101192857Y-96599285D01*
X101371428Y-95849285D01*
X102085714Y-96599285D02*
X101835714Y-96242142D01*
X101657142Y-96599285D02*
X101657142Y-95849285D01*
X101942857Y-95849285D01*
X102014285Y-95885000D01*
X102050000Y-95920714D01*
X102085714Y-95992142D01*
X102085714Y-96099285D01*
X102050000Y-96170714D01*
X102014285Y-96206428D01*
X101942857Y-96242142D01*
X101657142Y-96242142D01*
X152325000Y-81557142D02*
X152360714Y-81485714D01*
X152360714Y-81378571D01*
X152325000Y-81271428D01*
X152253571Y-81200000D01*
X152182142Y-81164285D01*
X152039285Y-81128571D01*
X151932142Y-81128571D01*
X151789285Y-81164285D01*
X151717857Y-81200000D01*
X151646428Y-81271428D01*
X151610714Y-81378571D01*
X151610714Y-81450000D01*
X151646428Y-81557142D01*
X151682142Y-81592857D01*
X151932142Y-81592857D01*
X151932142Y-81450000D01*
X151610714Y-81914285D02*
X152360714Y-81914285D01*
X152360714Y-82200000D01*
X152325000Y-82271428D01*
X152289285Y-82307142D01*
X152217857Y-82342857D01*
X152110714Y-82342857D01*
X152039285Y-82307142D01*
X152003571Y-82271428D01*
X151967857Y-82200000D01*
X151967857Y-81914285D01*
X152289285Y-82628571D02*
X152325000Y-82664285D01*
X152360714Y-82735714D01*
X152360714Y-82914285D01*
X152325000Y-82985714D01*
X152289285Y-83021428D01*
X152217857Y-83057142D01*
X152146428Y-83057142D01*
X152039285Y-83021428D01*
X151610714Y-82592857D01*
X151610714Y-83057142D01*
X152360714Y-83307142D02*
X152360714Y-83807142D01*
X151610714Y-83485714D01*
X129425000Y-82517857D02*
X129460714Y-82446428D01*
X129460714Y-82339285D01*
X129425000Y-82232142D01*
X129353571Y-82160714D01*
X129282142Y-82125000D01*
X129139285Y-82089285D01*
X129032142Y-82089285D01*
X128889285Y-82125000D01*
X128817857Y-82160714D01*
X128746428Y-82232142D01*
X128710714Y-82339285D01*
X128710714Y-82410714D01*
X128746428Y-82517857D01*
X128782142Y-82553571D01*
X129032142Y-82553571D01*
X129032142Y-82410714D01*
X129210714Y-82875000D02*
X128710714Y-82875000D01*
X129139285Y-82875000D02*
X129175000Y-82910714D01*
X129210714Y-82982142D01*
X129210714Y-83089285D01*
X129175000Y-83160714D01*
X129103571Y-83196428D01*
X128710714Y-83196428D01*
X128710714Y-83875000D02*
X129460714Y-83875000D01*
X128746428Y-83875000D02*
X128710714Y-83803571D01*
X128710714Y-83660714D01*
X128746428Y-83589285D01*
X128782142Y-83553571D01*
X128853571Y-83517857D01*
X129067857Y-83517857D01*
X129139285Y-83553571D01*
X129175000Y-83589285D01*
X129210714Y-83660714D01*
X129210714Y-83803571D01*
X129175000Y-83875000D01*
X152325000Y-73464285D02*
X152360714Y-73392857D01*
X152360714Y-73285714D01*
X152325000Y-73178571D01*
X152253571Y-73107142D01*
X152182142Y-73071428D01*
X152039285Y-73035714D01*
X151932142Y-73035714D01*
X151789285Y-73071428D01*
X151717857Y-73107142D01*
X151646428Y-73178571D01*
X151610714Y-73285714D01*
X151610714Y-73357142D01*
X151646428Y-73464285D01*
X151682142Y-73500000D01*
X151932142Y-73500000D01*
X151932142Y-73357142D01*
X151610714Y-73821428D02*
X152360714Y-73821428D01*
X152360714Y-74107142D01*
X152325000Y-74178571D01*
X152289285Y-74214285D01*
X152217857Y-74250000D01*
X152110714Y-74250000D01*
X152039285Y-74214285D01*
X152003571Y-74178571D01*
X151967857Y-74107142D01*
X151967857Y-73821428D01*
X152360714Y-74892857D02*
X152360714Y-74750000D01*
X152325000Y-74678571D01*
X152289285Y-74642857D01*
X152182142Y-74571428D01*
X152039285Y-74535714D01*
X151753571Y-74535714D01*
X151682142Y-74571428D01*
X151646428Y-74607142D01*
X151610714Y-74678571D01*
X151610714Y-74821428D01*
X151646428Y-74892857D01*
X151682142Y-74928571D01*
X151753571Y-74964285D01*
X151932142Y-74964285D01*
X152003571Y-74928571D01*
X152039285Y-74892857D01*
X152075000Y-74821428D01*
X152075000Y-74678571D01*
X152039285Y-74607142D01*
X152003571Y-74571428D01*
X151932142Y-74535714D01*
X148942857Y-90689285D02*
X149407142Y-90689285D01*
X149157142Y-90975000D01*
X149264285Y-90975000D01*
X149335714Y-91010714D01*
X149371428Y-91046428D01*
X149407142Y-91117857D01*
X149407142Y-91296428D01*
X149371428Y-91367857D01*
X149335714Y-91403571D01*
X149264285Y-91439285D01*
X149050000Y-91439285D01*
X148978571Y-91403571D01*
X148942857Y-91367857D01*
X150121428Y-91439285D02*
X149692857Y-91439285D01*
X149907142Y-91439285D02*
X149907142Y-90689285D01*
X149835714Y-90796428D01*
X149764285Y-90867857D01*
X149692857Y-90903571D01*
X162225000Y-73464285D02*
X162260714Y-73392857D01*
X162260714Y-73285714D01*
X162225000Y-73178571D01*
X162153571Y-73107142D01*
X162082142Y-73071428D01*
X161939285Y-73035714D01*
X161832142Y-73035714D01*
X161689285Y-73071428D01*
X161617857Y-73107142D01*
X161546428Y-73178571D01*
X161510714Y-73285714D01*
X161510714Y-73357142D01*
X161546428Y-73464285D01*
X161582142Y-73500000D01*
X161832142Y-73500000D01*
X161832142Y-73357142D01*
X161510714Y-73821428D02*
X162260714Y-73821428D01*
X162260714Y-74107142D01*
X162225000Y-74178571D01*
X162189285Y-74214285D01*
X162117857Y-74250000D01*
X162010714Y-74250000D01*
X161939285Y-74214285D01*
X161903571Y-74178571D01*
X161867857Y-74107142D01*
X161867857Y-73821428D01*
X162260714Y-74500000D02*
X162260714Y-74964285D01*
X161975000Y-74714285D01*
X161975000Y-74821428D01*
X161939285Y-74892857D01*
X161903571Y-74928571D01*
X161832142Y-74964285D01*
X161653571Y-74964285D01*
X161582142Y-74928571D01*
X161546428Y-74892857D01*
X161510714Y-74821428D01*
X161510714Y-74607142D01*
X161546428Y-74535714D01*
X161582142Y-74500000D01*
X144010714Y-69557142D02*
X144010714Y-69128571D01*
X144010714Y-69342857D02*
X144760714Y-69342857D01*
X144653571Y-69271428D01*
X144582142Y-69200000D01*
X144546428Y-69128571D01*
X144689285Y-69842857D02*
X144725000Y-69878571D01*
X144760714Y-69950000D01*
X144760714Y-70128571D01*
X144725000Y-70200000D01*
X144689285Y-70235714D01*
X144617857Y-70271428D01*
X144546428Y-70271428D01*
X144439285Y-70235714D01*
X144010714Y-69807142D01*
X144010714Y-70271428D01*
X128528571Y-90760714D02*
X128564285Y-90725000D01*
X128635714Y-90689285D01*
X128814285Y-90689285D01*
X128885714Y-90725000D01*
X128921428Y-90760714D01*
X128957142Y-90832142D01*
X128957142Y-90903571D01*
X128921428Y-91010714D01*
X128492857Y-91439285D01*
X128957142Y-91439285D01*
X129207142Y-90689285D02*
X129671428Y-90689285D01*
X129421428Y-90975000D01*
X129528571Y-90975000D01*
X129600000Y-91010714D01*
X129635714Y-91046428D01*
X129671428Y-91117857D01*
X129671428Y-91296428D01*
X129635714Y-91367857D01*
X129600000Y-91403571D01*
X129528571Y-91439285D01*
X129314285Y-91439285D01*
X129242857Y-91403571D01*
X129207142Y-91367857D01*
X172625000Y-73464285D02*
X172660714Y-73392857D01*
X172660714Y-73285714D01*
X172625000Y-73178571D01*
X172553571Y-73107142D01*
X172482142Y-73071428D01*
X172339285Y-73035714D01*
X172232142Y-73035714D01*
X172089285Y-73071428D01*
X172017857Y-73107142D01*
X171946428Y-73178571D01*
X171910714Y-73285714D01*
X171910714Y-73357142D01*
X171946428Y-73464285D01*
X171982142Y-73500000D01*
X172232142Y-73500000D01*
X172232142Y-73357142D01*
X171910714Y-73821428D02*
X172660714Y-73821428D01*
X172660714Y-74107142D01*
X172625000Y-74178571D01*
X172589285Y-74214285D01*
X172517857Y-74250000D01*
X172410714Y-74250000D01*
X172339285Y-74214285D01*
X172303571Y-74178571D01*
X172267857Y-74107142D01*
X172267857Y-73821428D01*
X172660714Y-74714285D02*
X172660714Y-74785714D01*
X172625000Y-74857142D01*
X172589285Y-74892857D01*
X172517857Y-74928571D01*
X172375000Y-74964285D01*
X172196428Y-74964285D01*
X172053571Y-74928571D01*
X171982142Y-74892857D01*
X171946428Y-74857142D01*
X171910714Y-74785714D01*
X171910714Y-74714285D01*
X171946428Y-74642857D01*
X171982142Y-74607142D01*
X172053571Y-74571428D01*
X172196428Y-74535714D01*
X172375000Y-74535714D01*
X172517857Y-74571428D01*
X172589285Y-74607142D01*
X172625000Y-74642857D01*
X172660714Y-74714285D01*
X164810714Y-69892857D02*
X164310714Y-69892857D01*
X165096428Y-69714285D02*
X164560714Y-69535714D01*
X164560714Y-70000000D01*
X109767857Y-99191190D02*
X109736904Y-99160238D01*
X109705952Y-99067380D01*
X109705952Y-99005476D01*
X109736904Y-98912619D01*
X109798809Y-98850714D01*
X109860714Y-98819761D01*
X109984523Y-98788809D01*
X110077380Y-98788809D01*
X110201190Y-98819761D01*
X110263095Y-98850714D01*
X110325000Y-98912619D01*
X110355952Y-99005476D01*
X110355952Y-99067380D01*
X110325000Y-99160238D01*
X110294047Y-99191190D01*
X109705952Y-99779285D02*
X109705952Y-99469761D01*
X110355952Y-99469761D01*
X109705952Y-99995952D02*
X110355952Y-99995952D01*
X109705952Y-100367380D02*
X110077380Y-100088809D01*
X110355952Y-100367380D02*
X109984523Y-99995952D01*
X107964285Y-70025000D02*
X107892857Y-69989285D01*
X107785714Y-69989285D01*
X107678571Y-70025000D01*
X107607142Y-70096428D01*
X107571428Y-70167857D01*
X107535714Y-70310714D01*
X107535714Y-70417857D01*
X107571428Y-70560714D01*
X107607142Y-70632142D01*
X107678571Y-70703571D01*
X107785714Y-70739285D01*
X107857142Y-70739285D01*
X107964285Y-70703571D01*
X108000000Y-70667857D01*
X108000000Y-70417857D01*
X107857142Y-70417857D01*
X108321428Y-70739285D02*
X108321428Y-69989285D01*
X108607142Y-69989285D01*
X108678571Y-70025000D01*
X108714285Y-70060714D01*
X108750000Y-70132142D01*
X108750000Y-70239285D01*
X108714285Y-70310714D01*
X108678571Y-70346428D01*
X108607142Y-70382142D01*
X108321428Y-70382142D01*
X109214285Y-69989285D02*
X109285714Y-69989285D01*
X109357142Y-70025000D01*
X109392857Y-70060714D01*
X109428571Y-70132142D01*
X109464285Y-70275000D01*
X109464285Y-70453571D01*
X109428571Y-70596428D01*
X109392857Y-70667857D01*
X109357142Y-70703571D01*
X109285714Y-70739285D01*
X109214285Y-70739285D01*
X109142857Y-70703571D01*
X109107142Y-70667857D01*
X109071428Y-70596428D01*
X109035714Y-70453571D01*
X109035714Y-70275000D01*
X109071428Y-70132142D01*
X109107142Y-70060714D01*
X109142857Y-70025000D01*
X109214285Y-69989285D01*
X132025000Y-81557142D02*
X132060714Y-81485714D01*
X132060714Y-81378571D01*
X132025000Y-81271428D01*
X131953571Y-81200000D01*
X131882142Y-81164285D01*
X131739285Y-81128571D01*
X131632142Y-81128571D01*
X131489285Y-81164285D01*
X131417857Y-81200000D01*
X131346428Y-81271428D01*
X131310714Y-81378571D01*
X131310714Y-81450000D01*
X131346428Y-81557142D01*
X131382142Y-81592857D01*
X131632142Y-81592857D01*
X131632142Y-81450000D01*
X131310714Y-81914285D02*
X132060714Y-81914285D01*
X132060714Y-82200000D01*
X132025000Y-82271428D01*
X131989285Y-82307142D01*
X131917857Y-82342857D01*
X131810714Y-82342857D01*
X131739285Y-82307142D01*
X131703571Y-82271428D01*
X131667857Y-82200000D01*
X131667857Y-81914285D01*
X131310714Y-83057142D02*
X131310714Y-82628571D01*
X131310714Y-82842857D02*
X132060714Y-82842857D01*
X131953571Y-82771428D01*
X131882142Y-82700000D01*
X131846428Y-82628571D01*
X131739285Y-83485714D02*
X131775000Y-83414285D01*
X131810714Y-83378571D01*
X131882142Y-83342857D01*
X131917857Y-83342857D01*
X131989285Y-83378571D01*
X132025000Y-83414285D01*
X132060714Y-83485714D01*
X132060714Y-83628571D01*
X132025000Y-83700000D01*
X131989285Y-83735714D01*
X131917857Y-83771428D01*
X131882142Y-83771428D01*
X131810714Y-83735714D01*
X131775000Y-83700000D01*
X131739285Y-83628571D01*
X131739285Y-83485714D01*
X131703571Y-83414285D01*
X131667857Y-83378571D01*
X131596428Y-83342857D01*
X131453571Y-83342857D01*
X131382142Y-83378571D01*
X131346428Y-83414285D01*
X131310714Y-83485714D01*
X131310714Y-83628571D01*
X131346428Y-83700000D01*
X131382142Y-83735714D01*
X131453571Y-83771428D01*
X131596428Y-83771428D01*
X131667857Y-83735714D01*
X131703571Y-83700000D01*
X131739285Y-83628571D01*
X151442857Y-90689285D02*
X151907142Y-90689285D01*
X151657142Y-90975000D01*
X151764285Y-90975000D01*
X151835714Y-91010714D01*
X151871428Y-91046428D01*
X151907142Y-91117857D01*
X151907142Y-91296428D01*
X151871428Y-91367857D01*
X151835714Y-91403571D01*
X151764285Y-91439285D01*
X151550000Y-91439285D01*
X151478571Y-91403571D01*
X151442857Y-91367857D01*
X152192857Y-90760714D02*
X152228571Y-90725000D01*
X152300000Y-90689285D01*
X152478571Y-90689285D01*
X152550000Y-90725000D01*
X152585714Y-90760714D01*
X152621428Y-90832142D01*
X152621428Y-90903571D01*
X152585714Y-91010714D01*
X152157142Y-91439285D01*
X152621428Y-91439285D01*
X137125000Y-73557142D02*
X137160714Y-73485714D01*
X137160714Y-73378571D01*
X137125000Y-73271428D01*
X137053571Y-73200000D01*
X136982142Y-73164285D01*
X136839285Y-73128571D01*
X136732142Y-73128571D01*
X136589285Y-73164285D01*
X136517857Y-73200000D01*
X136446428Y-73271428D01*
X136410714Y-73378571D01*
X136410714Y-73450000D01*
X136446428Y-73557142D01*
X136482142Y-73592857D01*
X136732142Y-73592857D01*
X136732142Y-73450000D01*
X136410714Y-73914285D02*
X137160714Y-73914285D01*
X137160714Y-74200000D01*
X137125000Y-74271428D01*
X137089285Y-74307142D01*
X137017857Y-74342857D01*
X136910714Y-74342857D01*
X136839285Y-74307142D01*
X136803571Y-74271428D01*
X136767857Y-74200000D01*
X136767857Y-73914285D01*
X136410714Y-75057142D02*
X136410714Y-74628571D01*
X136410714Y-74842857D02*
X137160714Y-74842857D01*
X137053571Y-74771428D01*
X136982142Y-74700000D01*
X136946428Y-74628571D01*
X136410714Y-75771428D02*
X136410714Y-75342857D01*
X136410714Y-75557142D02*
X137160714Y-75557142D01*
X137053571Y-75485714D01*
X136982142Y-75414285D01*
X136946428Y-75342857D01*
X149725000Y-81557142D02*
X149760714Y-81485714D01*
X149760714Y-81378571D01*
X149725000Y-81271428D01*
X149653571Y-81200000D01*
X149582142Y-81164285D01*
X149439285Y-81128571D01*
X149332142Y-81128571D01*
X149189285Y-81164285D01*
X149117857Y-81200000D01*
X149046428Y-81271428D01*
X149010714Y-81378571D01*
X149010714Y-81450000D01*
X149046428Y-81557142D01*
X149082142Y-81592857D01*
X149332142Y-81592857D01*
X149332142Y-81450000D01*
X149010714Y-81914285D02*
X149760714Y-81914285D01*
X149760714Y-82200000D01*
X149725000Y-82271428D01*
X149689285Y-82307142D01*
X149617857Y-82342857D01*
X149510714Y-82342857D01*
X149439285Y-82307142D01*
X149403571Y-82271428D01*
X149367857Y-82200000D01*
X149367857Y-81914285D01*
X149689285Y-82628571D02*
X149725000Y-82664285D01*
X149760714Y-82735714D01*
X149760714Y-82914285D01*
X149725000Y-82985714D01*
X149689285Y-83021428D01*
X149617857Y-83057142D01*
X149546428Y-83057142D01*
X149439285Y-83021428D01*
X149010714Y-82592857D01*
X149010714Y-83057142D01*
X149760714Y-83700000D02*
X149760714Y-83557142D01*
X149725000Y-83485714D01*
X149689285Y-83450000D01*
X149582142Y-83378571D01*
X149439285Y-83342857D01*
X149153571Y-83342857D01*
X149082142Y-83378571D01*
X149046428Y-83414285D01*
X149010714Y-83485714D01*
X149010714Y-83628571D01*
X149046428Y-83700000D01*
X149082142Y-83735714D01*
X149153571Y-83771428D01*
X149332142Y-83771428D01*
X149403571Y-83735714D01*
X149439285Y-83700000D01*
X149475000Y-83628571D01*
X149475000Y-83485714D01*
X149439285Y-83414285D01*
X149403571Y-83378571D01*
X149332142Y-83342857D01*
X172660714Y-81275000D02*
X171910714Y-81525000D01*
X172660714Y-81775000D01*
X172303571Y-82275000D02*
X172267857Y-82382142D01*
X172232142Y-82417857D01*
X172160714Y-82453571D01*
X172053571Y-82453571D01*
X171982142Y-82417857D01*
X171946428Y-82382142D01*
X171910714Y-82310714D01*
X171910714Y-82025000D01*
X172660714Y-82025000D01*
X172660714Y-82275000D01*
X172625000Y-82346428D01*
X172589285Y-82382142D01*
X172517857Y-82417857D01*
X172446428Y-82417857D01*
X172375000Y-82382142D01*
X172339285Y-82346428D01*
X172303571Y-82275000D01*
X172303571Y-82025000D01*
X172660714Y-82775000D02*
X172053571Y-82775000D01*
X171982142Y-82810714D01*
X171946428Y-82846428D01*
X171910714Y-82917857D01*
X171910714Y-83060714D01*
X171946428Y-83132142D01*
X171982142Y-83167857D01*
X172053571Y-83203571D01*
X172660714Y-83203571D01*
X171946428Y-83525000D02*
X171910714Y-83632142D01*
X171910714Y-83810714D01*
X171946428Y-83882142D01*
X171982142Y-83917857D01*
X172053571Y-83953571D01*
X172125000Y-83953571D01*
X172196428Y-83917857D01*
X172232142Y-83882142D01*
X172267857Y-83810714D01*
X172303571Y-83667857D01*
X172339285Y-83596428D01*
X172375000Y-83560714D01*
X172446428Y-83525000D01*
X172517857Y-83525000D01*
X172589285Y-83560714D01*
X172625000Y-83596428D01*
X172660714Y-83667857D01*
X172660714Y-83846428D01*
X172625000Y-83953571D01*
X157510714Y-69500000D02*
X157510714Y-70000000D01*
X156760714Y-69678571D01*
X132025000Y-73557142D02*
X132060714Y-73485714D01*
X132060714Y-73378571D01*
X132025000Y-73271428D01*
X131953571Y-73200000D01*
X131882142Y-73164285D01*
X131739285Y-73128571D01*
X131632142Y-73128571D01*
X131489285Y-73164285D01*
X131417857Y-73200000D01*
X131346428Y-73271428D01*
X131310714Y-73378571D01*
X131310714Y-73450000D01*
X131346428Y-73557142D01*
X131382142Y-73592857D01*
X131632142Y-73592857D01*
X131632142Y-73450000D01*
X131310714Y-73914285D02*
X132060714Y-73914285D01*
X132060714Y-74200000D01*
X132025000Y-74271428D01*
X131989285Y-74307142D01*
X131917857Y-74342857D01*
X131810714Y-74342857D01*
X131739285Y-74307142D01*
X131703571Y-74271428D01*
X131667857Y-74200000D01*
X131667857Y-73914285D01*
X131310714Y-75057142D02*
X131310714Y-74628571D01*
X131310714Y-74842857D02*
X132060714Y-74842857D01*
X131953571Y-74771428D01*
X131882142Y-74700000D01*
X131846428Y-74628571D01*
X132060714Y-75307142D02*
X132060714Y-75771428D01*
X131775000Y-75521428D01*
X131775000Y-75628571D01*
X131739285Y-75700000D01*
X131703571Y-75735714D01*
X131632142Y-75771428D01*
X131453571Y-75771428D01*
X131382142Y-75735714D01*
X131346428Y-75700000D01*
X131310714Y-75628571D01*
X131310714Y-75414285D01*
X131346428Y-75342857D01*
X131382142Y-75307142D01*
X108236904Y-98788809D02*
X108205952Y-98881666D01*
X108205952Y-99036428D01*
X108236904Y-99098333D01*
X108267857Y-99129285D01*
X108329761Y-99160238D01*
X108391666Y-99160238D01*
X108453571Y-99129285D01*
X108484523Y-99098333D01*
X108515476Y-99036428D01*
X108546428Y-98912619D01*
X108577380Y-98850714D01*
X108608333Y-98819761D01*
X108670238Y-98788809D01*
X108732142Y-98788809D01*
X108794047Y-98819761D01*
X108825000Y-98850714D01*
X108855952Y-98912619D01*
X108855952Y-99067380D01*
X108825000Y-99160238D01*
X108236904Y-99407857D02*
X108205952Y-99500714D01*
X108205952Y-99655476D01*
X108236904Y-99717380D01*
X108267857Y-99748333D01*
X108329761Y-99779285D01*
X108391666Y-99779285D01*
X108453571Y-99748333D01*
X108484523Y-99717380D01*
X108515476Y-99655476D01*
X108546428Y-99531666D01*
X108577380Y-99469761D01*
X108608333Y-99438809D01*
X108670238Y-99407857D01*
X108732142Y-99407857D01*
X108794047Y-99438809D01*
X108825000Y-99469761D01*
X108855952Y-99531666D01*
X108855952Y-99686428D01*
X108825000Y-99779285D01*
X108144047Y-99903095D02*
X108144047Y-100398333D01*
X108205952Y-100553095D02*
X108855952Y-100553095D01*
X108205952Y-100924523D01*
X108855952Y-100924523D01*
D11*
X98203809Y-101287380D02*
X98156190Y-101311190D01*
X98060952Y-101311190D01*
X98013333Y-101287380D01*
X97989523Y-101239761D01*
X97989523Y-101049285D01*
X98013333Y-101001666D01*
X98060952Y-100977857D01*
X98156190Y-100977857D01*
X98203809Y-101001666D01*
X98227619Y-101049285D01*
X98227619Y-101096904D01*
X97989523Y-101144523D01*
X98441904Y-101311190D02*
X98441904Y-100811190D01*
X98608571Y-101168333D01*
X98775238Y-100811190D01*
X98775238Y-101311190D01*
X99013333Y-101311190D02*
X99013333Y-100811190D01*
X99180000Y-101168333D01*
X99346666Y-100811190D01*
X99346666Y-101311190D01*
X99870476Y-101263571D02*
X99846666Y-101287380D01*
X99775238Y-101311190D01*
X99727619Y-101311190D01*
X99656190Y-101287380D01*
X99608571Y-101239761D01*
X99584761Y-101192142D01*
X99560952Y-101096904D01*
X99560952Y-101025476D01*
X99584761Y-100930238D01*
X99608571Y-100882619D01*
X99656190Y-100835000D01*
X99727619Y-100811190D01*
X99775238Y-100811190D01*
X99846666Y-100835000D01*
X99870476Y-100858809D01*
D13*
X138960714Y-69557142D02*
X138960714Y-69128571D01*
X138960714Y-69342857D02*
X139710714Y-69342857D01*
X139603571Y-69271428D01*
X139532142Y-69200000D01*
X139496428Y-69128571D01*
X139460714Y-70200000D02*
X138960714Y-70200000D01*
X139746428Y-70021428D02*
X139210714Y-69842857D01*
X139210714Y-70307142D01*
D14*
X172571428Y-76607142D02*
X171357142Y-76607142D01*
X171214285Y-76678571D01*
X171142857Y-76750000D01*
X171071428Y-76892857D01*
X171071428Y-77178571D01*
X171142857Y-77321428D01*
X171214285Y-77392857D01*
X171357142Y-77464285D01*
X172571428Y-77464285D01*
X171142857Y-78107142D02*
X171071428Y-78321428D01*
X171071428Y-78678571D01*
X171142857Y-78821428D01*
X171214285Y-78892857D01*
X171357142Y-78964285D01*
X171500000Y-78964285D01*
X171642857Y-78892857D01*
X171714285Y-78821428D01*
X171785714Y-78678571D01*
X171857142Y-78392857D01*
X171928571Y-78250000D01*
X172000000Y-78178571D01*
X172142857Y-78107142D01*
X172285714Y-78107142D01*
X172428571Y-78178571D01*
X172500000Y-78250000D01*
X172571428Y-78392857D01*
X172571428Y-78750000D01*
X172500000Y-78964285D01*
X171857142Y-80107142D02*
X171785714Y-80321428D01*
X171714285Y-80392857D01*
X171571428Y-80464285D01*
X171357142Y-80464285D01*
X171214285Y-80392857D01*
X171142857Y-80321428D01*
X171071428Y-80178571D01*
X171071428Y-79607142D01*
X172571428Y-79607142D01*
X172571428Y-80107142D01*
X172500000Y-80250000D01*
X172428571Y-80321428D01*
X172285714Y-80392857D01*
X172142857Y-80392857D01*
X172000000Y-80321428D01*
X171928571Y-80250000D01*
X171857142Y-80107142D01*
X171857142Y-79607142D01*
D13*
X154925000Y-73517857D02*
X154960714Y-73446428D01*
X154960714Y-73339285D01*
X154925000Y-73232142D01*
X154853571Y-73160714D01*
X154782142Y-73125000D01*
X154639285Y-73089285D01*
X154532142Y-73089285D01*
X154389285Y-73125000D01*
X154317857Y-73160714D01*
X154246428Y-73232142D01*
X154210714Y-73339285D01*
X154210714Y-73410714D01*
X154246428Y-73517857D01*
X154282142Y-73553571D01*
X154532142Y-73553571D01*
X154532142Y-73410714D01*
X154710714Y-73875000D02*
X154210714Y-73875000D01*
X154639285Y-73875000D02*
X154675000Y-73910714D01*
X154710714Y-73982142D01*
X154710714Y-74089285D01*
X154675000Y-74160714D01*
X154603571Y-74196428D01*
X154210714Y-74196428D01*
X154210714Y-74875000D02*
X154960714Y-74875000D01*
X154246428Y-74875000D02*
X154210714Y-74803571D01*
X154210714Y-74660714D01*
X154246428Y-74589285D01*
X154282142Y-74553571D01*
X154353571Y-74517857D01*
X154567857Y-74517857D01*
X154639285Y-74553571D01*
X154675000Y-74589285D01*
X154710714Y-74660714D01*
X154710714Y-74803571D01*
X154675000Y-74875000D01*
D10*
X135552380Y-102157142D02*
X135504761Y-102204761D01*
X135361904Y-102252380D01*
X135266666Y-102252380D01*
X135123809Y-102204761D01*
X135028571Y-102109523D01*
X134980952Y-102014285D01*
X134933333Y-101823809D01*
X134933333Y-101680952D01*
X134980952Y-101490476D01*
X135028571Y-101395238D01*
X135123809Y-101300000D01*
X135266666Y-101252380D01*
X135361904Y-101252380D01*
X135504761Y-101300000D01*
X135552380Y-101347619D01*
X136409523Y-101585714D02*
X136409523Y-102252380D01*
X136171428Y-101204761D02*
X135933333Y-101919047D01*
X136552380Y-101919047D01*
X137361904Y-101585714D02*
X137361904Y-102252380D01*
X137123809Y-101204761D02*
X136885714Y-101919047D01*
X137504761Y-101919047D01*
X137838095Y-101347619D02*
X137885714Y-101300000D01*
X137980952Y-101252380D01*
X138219047Y-101252380D01*
X138314285Y-101300000D01*
X138361904Y-101347619D01*
X138409523Y-101442857D01*
X138409523Y-101538095D01*
X138361904Y-101680952D01*
X137790476Y-102252380D01*
X138409523Y-102252380D01*
X139361904Y-102252380D02*
X138790476Y-102252380D01*
X139076190Y-102252380D02*
X139076190Y-101252380D01*
X138980952Y-101395238D01*
X138885714Y-101490476D01*
X138790476Y-101538095D01*
X140266666Y-101252380D02*
X139790476Y-101252380D01*
X139742857Y-101728571D01*
X139790476Y-101680952D01*
X139885714Y-101633333D01*
X140123809Y-101633333D01*
X140219047Y-101680952D01*
X140266666Y-101728571D01*
X140314285Y-101823809D01*
X140314285Y-102061904D01*
X140266666Y-102157142D01*
X140219047Y-102204761D01*
X140123809Y-102252380D01*
X139885714Y-102252380D01*
X139790476Y-102204761D01*
X139742857Y-102157142D01*
X141171428Y-101585714D02*
X141171428Y-102252380D01*
X140933333Y-101204761D02*
X140695238Y-101919047D01*
X141314285Y-101919047D01*
D13*
X126825000Y-81557142D02*
X126860714Y-81485714D01*
X126860714Y-81378571D01*
X126825000Y-81271428D01*
X126753571Y-81200000D01*
X126682142Y-81164285D01*
X126539285Y-81128571D01*
X126432142Y-81128571D01*
X126289285Y-81164285D01*
X126217857Y-81200000D01*
X126146428Y-81271428D01*
X126110714Y-81378571D01*
X126110714Y-81450000D01*
X126146428Y-81557142D01*
X126182142Y-81592857D01*
X126432142Y-81592857D01*
X126432142Y-81450000D01*
X126110714Y-81914285D02*
X126860714Y-81914285D01*
X126860714Y-82200000D01*
X126825000Y-82271428D01*
X126789285Y-82307142D01*
X126717857Y-82342857D01*
X126610714Y-82342857D01*
X126539285Y-82307142D01*
X126503571Y-82271428D01*
X126467857Y-82200000D01*
X126467857Y-81914285D01*
X126110714Y-83057142D02*
X126110714Y-82628571D01*
X126110714Y-82842857D02*
X126860714Y-82842857D01*
X126753571Y-82771428D01*
X126682142Y-82700000D01*
X126646428Y-82628571D01*
X126860714Y-83307142D02*
X126860714Y-83807142D01*
X126110714Y-83485714D01*
X160010714Y-69892857D02*
X160010714Y-69750000D01*
X159975000Y-69678571D01*
X159939285Y-69642857D01*
X159832142Y-69571428D01*
X159689285Y-69535714D01*
X159403571Y-69535714D01*
X159332142Y-69571428D01*
X159296428Y-69607142D01*
X159260714Y-69678571D01*
X159260714Y-69821428D01*
X159296428Y-69892857D01*
X159332142Y-69928571D01*
X159403571Y-69964285D01*
X159582142Y-69964285D01*
X159653571Y-69928571D01*
X159689285Y-69892857D01*
X159725000Y-69821428D01*
X159725000Y-69678571D01*
X159689285Y-69607142D01*
X159653571Y-69571428D01*
X159582142Y-69535714D01*
X92464285Y-96339285D02*
X92464285Y-95589285D01*
X92642857Y-95589285D01*
X92750000Y-95625000D01*
X92821428Y-95696428D01*
X92857142Y-95767857D01*
X92892857Y-95910714D01*
X92892857Y-96017857D01*
X92857142Y-96160714D01*
X92821428Y-96232142D01*
X92750000Y-96303571D01*
X92642857Y-96339285D01*
X92464285Y-96339285D01*
X93500000Y-96303571D02*
X93428571Y-96339285D01*
X93285714Y-96339285D01*
X93214285Y-96303571D01*
X93178571Y-96232142D01*
X93178571Y-95946428D01*
X93214285Y-95875000D01*
X93285714Y-95839285D01*
X93428571Y-95839285D01*
X93500000Y-95875000D01*
X93535714Y-95946428D01*
X93535714Y-96017857D01*
X93178571Y-96089285D01*
X93857142Y-96339285D02*
X93857142Y-95589285D01*
X93857142Y-95875000D02*
X93928571Y-95839285D01*
X94071428Y-95839285D01*
X94142857Y-95875000D01*
X94178571Y-95910714D01*
X94214285Y-95982142D01*
X94214285Y-96196428D01*
X94178571Y-96267857D01*
X94142857Y-96303571D01*
X94071428Y-96339285D01*
X93928571Y-96339285D01*
X93857142Y-96303571D01*
X94857142Y-95839285D02*
X94857142Y-96339285D01*
X94535714Y-95839285D02*
X94535714Y-96232142D01*
X94571428Y-96303571D01*
X94642857Y-96339285D01*
X94750000Y-96339285D01*
X94821428Y-96303571D01*
X94857142Y-96267857D01*
X95535714Y-95839285D02*
X95535714Y-96446428D01*
X95500000Y-96517857D01*
X95464285Y-96553571D01*
X95392857Y-96589285D01*
X95285714Y-96589285D01*
X95214285Y-96553571D01*
X95535714Y-96303571D02*
X95464285Y-96339285D01*
X95321428Y-96339285D01*
X95250000Y-96303571D01*
X95214285Y-96267857D01*
X95178571Y-96196428D01*
X95178571Y-95982142D01*
X95214285Y-95910714D01*
X95250000Y-95875000D01*
X95321428Y-95839285D01*
X95464285Y-95839285D01*
X95535714Y-95875000D01*
X170160714Y-81464285D02*
X169410714Y-81714285D01*
X170160714Y-81964285D01*
X169446428Y-82178571D02*
X169410714Y-82285714D01*
X169410714Y-82464285D01*
X169446428Y-82535714D01*
X169482142Y-82571428D01*
X169553571Y-82607142D01*
X169625000Y-82607142D01*
X169696428Y-82571428D01*
X169732142Y-82535714D01*
X169767857Y-82464285D01*
X169803571Y-82321428D01*
X169839285Y-82250000D01*
X169875000Y-82214285D01*
X169946428Y-82178571D01*
X170017857Y-82178571D01*
X170089285Y-82214285D01*
X170125000Y-82250000D01*
X170160714Y-82321428D01*
X170160714Y-82500000D01*
X170125000Y-82607142D01*
X169767857Y-83071428D02*
X169410714Y-83071428D01*
X170160714Y-82821428D02*
X169767857Y-83071428D01*
X170160714Y-83321428D01*
X169446428Y-83535714D02*
X169410714Y-83642857D01*
X169410714Y-83821428D01*
X169446428Y-83892857D01*
X169482142Y-83928571D01*
X169553571Y-83964285D01*
X169625000Y-83964285D01*
X169696428Y-83928571D01*
X169732142Y-83892857D01*
X169767857Y-83821428D01*
X169803571Y-83678571D01*
X169839285Y-83607142D01*
X169875000Y-83571428D01*
X169946428Y-83535714D01*
X170017857Y-83535714D01*
X170089285Y-83571428D01*
X170125000Y-83607142D01*
X170160714Y-83678571D01*
X170160714Y-83857142D01*
X170125000Y-83964285D01*
X167625000Y-82467857D02*
X167660714Y-82396428D01*
X167660714Y-82289285D01*
X167625000Y-82182142D01*
X167553571Y-82110714D01*
X167482142Y-82075000D01*
X167339285Y-82039285D01*
X167232142Y-82039285D01*
X167089285Y-82075000D01*
X167017857Y-82110714D01*
X166946428Y-82182142D01*
X166910714Y-82289285D01*
X166910714Y-82360714D01*
X166946428Y-82467857D01*
X166982142Y-82503571D01*
X167232142Y-82503571D01*
X167232142Y-82360714D01*
X167410714Y-82825000D02*
X166910714Y-82825000D01*
X167339285Y-82825000D02*
X167375000Y-82860714D01*
X167410714Y-82932142D01*
X167410714Y-83039285D01*
X167375000Y-83110714D01*
X167303571Y-83146428D01*
X166910714Y-83146428D01*
X166910714Y-83825000D02*
X167660714Y-83825000D01*
X166946428Y-83825000D02*
X166910714Y-83753571D01*
X166910714Y-83610714D01*
X166946428Y-83539285D01*
X166982142Y-83503571D01*
X167053571Y-83467857D01*
X167267857Y-83467857D01*
X167339285Y-83503571D01*
X167375000Y-83539285D01*
X167410714Y-83610714D01*
X167410714Y-83753571D01*
X167375000Y-83825000D01*
X154925000Y-82467857D02*
X154960714Y-82396428D01*
X154960714Y-82289285D01*
X154925000Y-82182142D01*
X154853571Y-82110714D01*
X154782142Y-82075000D01*
X154639285Y-82039285D01*
X154532142Y-82039285D01*
X154389285Y-82075000D01*
X154317857Y-82110714D01*
X154246428Y-82182142D01*
X154210714Y-82289285D01*
X154210714Y-82360714D01*
X154246428Y-82467857D01*
X154282142Y-82503571D01*
X154532142Y-82503571D01*
X154532142Y-82360714D01*
X154710714Y-82825000D02*
X154210714Y-82825000D01*
X154639285Y-82825000D02*
X154675000Y-82860714D01*
X154710714Y-82932142D01*
X154710714Y-83039285D01*
X154675000Y-83110714D01*
X154603571Y-83146428D01*
X154210714Y-83146428D01*
X154210714Y-83825000D02*
X154960714Y-83825000D01*
X154246428Y-83825000D02*
X154210714Y-83753571D01*
X154210714Y-83610714D01*
X154246428Y-83539285D01*
X154282142Y-83503571D01*
X154353571Y-83467857D01*
X154567857Y-83467857D01*
X154639285Y-83503571D01*
X154675000Y-83539285D01*
X154710714Y-83610714D01*
X154710714Y-83753571D01*
X154675000Y-83825000D01*
X123428571Y-90760714D02*
X123464285Y-90725000D01*
X123535714Y-90689285D01*
X123714285Y-90689285D01*
X123785714Y-90725000D01*
X123821428Y-90760714D01*
X123857142Y-90832142D01*
X123857142Y-90903571D01*
X123821428Y-91010714D01*
X123392857Y-91439285D01*
X123857142Y-91439285D01*
X124571428Y-91439285D02*
X124142857Y-91439285D01*
X124357142Y-91439285D02*
X124357142Y-90689285D01*
X124285714Y-90796428D01*
X124214285Y-90867857D01*
X124142857Y-90903571D01*
X126260714Y-69557142D02*
X126260714Y-69128571D01*
X126260714Y-69342857D02*
X127010714Y-69342857D01*
X126903571Y-69271428D01*
X126832142Y-69200000D01*
X126796428Y-69128571D01*
X126260714Y-69914285D02*
X126260714Y-70057142D01*
X126296428Y-70128571D01*
X126332142Y-70164285D01*
X126439285Y-70235714D01*
X126582142Y-70271428D01*
X126867857Y-70271428D01*
X126939285Y-70235714D01*
X126975000Y-70200000D01*
X127010714Y-70128571D01*
X127010714Y-69985714D01*
X126975000Y-69914285D01*
X126939285Y-69878571D01*
X126867857Y-69842857D01*
X126689285Y-69842857D01*
X126617857Y-69878571D01*
X126582142Y-69914285D01*
X126546428Y-69985714D01*
X126546428Y-70128571D01*
X126582142Y-70200000D01*
X126617857Y-70235714D01*
X126689285Y-70271428D01*
X117013816Y-101046428D02*
X117263816Y-101046428D01*
X117321852Y-101439285D02*
X116964709Y-101439285D01*
X117058459Y-100689285D01*
X117415602Y-100689285D01*
X117634352Y-100939285D02*
X117750424Y-101439285D01*
X117991495Y-100939285D01*
X118504888Y-101403571D02*
X118428995Y-101439285D01*
X118286138Y-101439285D01*
X118219174Y-101403571D01*
X118192388Y-101332142D01*
X118228102Y-101046428D01*
X118272745Y-100975000D01*
X118348638Y-100939285D01*
X118491495Y-100939285D01*
X118558459Y-100975000D01*
X118585245Y-101046428D01*
X118576316Y-101117857D01*
X118210245Y-101189285D01*
X118857566Y-101439285D02*
X118920066Y-100939285D01*
X118902209Y-101082142D02*
X118946852Y-101010714D01*
X118987031Y-100975000D01*
X119062924Y-100939285D01*
X119134352Y-100939285D01*
X119312924Y-100939285D02*
X119428995Y-101439285D01*
X119670066Y-100939285D02*
X119428995Y-101439285D01*
X119335245Y-101617857D01*
X119295066Y-101653571D01*
X119219174Y-101689285D01*
X120000424Y-101439285D02*
X119933459Y-101403571D01*
X119902209Y-101367857D01*
X119875424Y-101296428D01*
X119902209Y-101082142D01*
X119946852Y-101010714D01*
X119987031Y-100975000D01*
X120062924Y-100939285D01*
X120170066Y-100939285D01*
X120237031Y-100975000D01*
X120268281Y-101010714D01*
X120295066Y-101082142D01*
X120268281Y-101296428D01*
X120223638Y-101367857D01*
X120183459Y-101403571D01*
X120107566Y-101439285D01*
X120000424Y-101439285D01*
X120634352Y-100939285D02*
X120571852Y-101439285D01*
X120625424Y-101010714D02*
X120665602Y-100975000D01*
X120741495Y-100939285D01*
X120848638Y-100939285D01*
X120915602Y-100975000D01*
X120942388Y-101046428D01*
X120893281Y-101439285D01*
X121540602Y-101403571D02*
X121464709Y-101439285D01*
X121321852Y-101439285D01*
X121254888Y-101403571D01*
X121228102Y-101332142D01*
X121263816Y-101046428D01*
X121308459Y-100975000D01*
X121384352Y-100939285D01*
X121527209Y-100939285D01*
X121594174Y-100975000D01*
X121620959Y-101046428D01*
X121612031Y-101117857D01*
X121245959Y-101189285D01*
X122790602Y-101403571D02*
X122714709Y-101439285D01*
X122571852Y-101439285D01*
X122504888Y-101403571D01*
X122473638Y-101367857D01*
X122446852Y-101296428D01*
X122473638Y-101082142D01*
X122518281Y-101010714D01*
X122558459Y-100975000D01*
X122634352Y-100939285D01*
X122777209Y-100939285D01*
X122844174Y-100975000D01*
X123428995Y-101439285D02*
X123478102Y-101046428D01*
X123451316Y-100975000D01*
X123384352Y-100939285D01*
X123241495Y-100939285D01*
X123165602Y-100975000D01*
X123433459Y-101403571D02*
X123357566Y-101439285D01*
X123178995Y-101439285D01*
X123112031Y-101403571D01*
X123085245Y-101332142D01*
X123094174Y-101260714D01*
X123138816Y-101189285D01*
X123214709Y-101153571D01*
X123393281Y-101153571D01*
X123469174Y-101117857D01*
X123848638Y-100939285D02*
X123786138Y-101439285D01*
X123839709Y-101010714D02*
X123879888Y-100975000D01*
X123955781Y-100939285D01*
X124062924Y-100939285D01*
X124129888Y-100975000D01*
X124156674Y-101046428D01*
X124107566Y-101439285D01*
X125036138Y-101439285D02*
X125129888Y-100689285D01*
X125312924Y-101225000D01*
X125629888Y-100689285D01*
X125536138Y-101439285D01*
X126000424Y-101439285D02*
X125933459Y-101403571D01*
X125902209Y-101367857D01*
X125875424Y-101296428D01*
X125902209Y-101082142D01*
X125946852Y-101010714D01*
X125987031Y-100975000D01*
X126062924Y-100939285D01*
X126170066Y-100939285D01*
X126237031Y-100975000D01*
X126268281Y-101010714D01*
X126295066Y-101082142D01*
X126268281Y-101296428D01*
X126223638Y-101367857D01*
X126183459Y-101403571D01*
X126107566Y-101439285D01*
X126000424Y-101439285D01*
X126893281Y-101439285D02*
X126987031Y-100689285D01*
X126897745Y-101403571D02*
X126821852Y-101439285D01*
X126678995Y-101439285D01*
X126612031Y-101403571D01*
X126580781Y-101367857D01*
X126553995Y-101296428D01*
X126580781Y-101082142D01*
X126625424Y-101010714D01*
X126665602Y-100975000D01*
X126741495Y-100939285D01*
X126884352Y-100939285D01*
X126951316Y-100975000D01*
X151660714Y-69607142D02*
X151660714Y-69750000D01*
X151696428Y-69821428D01*
X151732142Y-69857142D01*
X151839285Y-69928571D01*
X151982142Y-69964285D01*
X152267857Y-69964285D01*
X152339285Y-69928571D01*
X152375000Y-69892857D01*
X152410714Y-69821428D01*
X152410714Y-69678571D01*
X152375000Y-69607142D01*
X152339285Y-69571428D01*
X152267857Y-69535714D01*
X152089285Y-69535714D01*
X152017857Y-69571428D01*
X151982142Y-69607142D01*
X151946428Y-69678571D01*
X151946428Y-69821428D01*
X151982142Y-69892857D01*
X152017857Y-69928571D01*
X152089285Y-69964285D01*
X131078571Y-90760714D02*
X131114285Y-90725000D01*
X131185714Y-90689285D01*
X131364285Y-90689285D01*
X131435714Y-90725000D01*
X131471428Y-90760714D01*
X131507142Y-90832142D01*
X131507142Y-90903571D01*
X131471428Y-91010714D01*
X131042857Y-91439285D01*
X131507142Y-91439285D01*
X132150000Y-90939285D02*
X132150000Y-91439285D01*
X131971428Y-90653571D02*
X131792857Y-91189285D01*
X132257142Y-91189285D01*
X159625000Y-73464285D02*
X159660714Y-73392857D01*
X159660714Y-73285714D01*
X159625000Y-73178571D01*
X159553571Y-73107142D01*
X159482142Y-73071428D01*
X159339285Y-73035714D01*
X159232142Y-73035714D01*
X159089285Y-73071428D01*
X159017857Y-73107142D01*
X158946428Y-73178571D01*
X158910714Y-73285714D01*
X158910714Y-73357142D01*
X158946428Y-73464285D01*
X158982142Y-73500000D01*
X159232142Y-73500000D01*
X159232142Y-73357142D01*
X158910714Y-73821428D02*
X159660714Y-73821428D01*
X159660714Y-74107142D01*
X159625000Y-74178571D01*
X159589285Y-74214285D01*
X159517857Y-74250000D01*
X159410714Y-74250000D01*
X159339285Y-74214285D01*
X159303571Y-74178571D01*
X159267857Y-74107142D01*
X159267857Y-73821428D01*
X159410714Y-74892857D02*
X158910714Y-74892857D01*
X159696428Y-74714285D02*
X159160714Y-74535714D01*
X159160714Y-75000000D01*
X146560714Y-69557142D02*
X146560714Y-69128571D01*
X146560714Y-69342857D02*
X147310714Y-69342857D01*
X147203571Y-69271428D01*
X147132142Y-69200000D01*
X147096428Y-69128571D01*
X146560714Y-70271428D02*
X146560714Y-69842857D01*
X146560714Y-70057142D02*
X147310714Y-70057142D01*
X147203571Y-69985714D01*
X147132142Y-69914285D01*
X147096428Y-69842857D01*
D11*
%TO.C,D3*%
X98480952Y-98951190D02*
X98480952Y-98451190D01*
X98600000Y-98451190D01*
X98671428Y-98475000D01*
X98719047Y-98522619D01*
X98742857Y-98570238D01*
X98766666Y-98665476D01*
X98766666Y-98736904D01*
X98742857Y-98832142D01*
X98719047Y-98879761D01*
X98671428Y-98927380D01*
X98600000Y-98951190D01*
X98480952Y-98951190D01*
X98933333Y-98451190D02*
X99242857Y-98451190D01*
X99076190Y-98641666D01*
X99147619Y-98641666D01*
X99195238Y-98665476D01*
X99219047Y-98689285D01*
X99242857Y-98736904D01*
X99242857Y-98855952D01*
X99219047Y-98903571D01*
X99195238Y-98927380D01*
X99147619Y-98951190D01*
X99004761Y-98951190D01*
X98957142Y-98927380D01*
X98933333Y-98903571D01*
%TO.C,D2*%
X96180952Y-98951190D02*
X96180952Y-98451190D01*
X96300000Y-98451190D01*
X96371428Y-98475000D01*
X96419047Y-98522619D01*
X96442857Y-98570238D01*
X96466666Y-98665476D01*
X96466666Y-98736904D01*
X96442857Y-98832142D01*
X96419047Y-98879761D01*
X96371428Y-98927380D01*
X96300000Y-98951190D01*
X96180952Y-98951190D01*
X96657142Y-98498809D02*
X96680952Y-98475000D01*
X96728571Y-98451190D01*
X96847619Y-98451190D01*
X96895238Y-98475000D01*
X96919047Y-98498809D01*
X96942857Y-98546428D01*
X96942857Y-98594047D01*
X96919047Y-98665476D01*
X96633333Y-98951190D01*
X96942857Y-98951190D01*
D13*
%TO.C,J1*%
X165457857Y-98089285D02*
X165457857Y-98625000D01*
X165422142Y-98732142D01*
X165350714Y-98803571D01*
X165243571Y-98839285D01*
X165172142Y-98839285D01*
X166207857Y-98839285D02*
X165779285Y-98839285D01*
X165993571Y-98839285D02*
X165993571Y-98089285D01*
X165922142Y-98196428D01*
X165850714Y-98267857D01*
X165779285Y-98303571D01*
D11*
%TO.C,RN1*%
X91476190Y-99095238D02*
X91238095Y-99261904D01*
X91476190Y-99380952D02*
X90976190Y-99380952D01*
X90976190Y-99190476D01*
X91000000Y-99142857D01*
X91023809Y-99119047D01*
X91071428Y-99095238D01*
X91142857Y-99095238D01*
X91190476Y-99119047D01*
X91214285Y-99142857D01*
X91238095Y-99190476D01*
X91238095Y-99380952D01*
X91476190Y-98880952D02*
X90976190Y-98880952D01*
X91476190Y-98595238D01*
X90976190Y-98595238D01*
X91476190Y-98095238D02*
X91476190Y-98380952D01*
X91476190Y-98238095D02*
X90976190Y-98238095D01*
X91047619Y-98285714D01*
X91095238Y-98333333D01*
X91119047Y-98380952D01*
%TO.C,D4*%
X100680952Y-98951190D02*
X100680952Y-98451190D01*
X100800000Y-98451190D01*
X100871428Y-98475000D01*
X100919047Y-98522619D01*
X100942857Y-98570238D01*
X100966666Y-98665476D01*
X100966666Y-98736904D01*
X100942857Y-98832142D01*
X100919047Y-98879761D01*
X100871428Y-98927380D01*
X100800000Y-98951190D01*
X100680952Y-98951190D01*
X101395238Y-98617857D02*
X101395238Y-98951190D01*
X101276190Y-98427380D02*
X101157142Y-98784523D01*
X101466666Y-98784523D01*
D10*
%TO.C,U2*%
X103238095Y-65452380D02*
X103238095Y-66261904D01*
X103285714Y-66357142D01*
X103333333Y-66404761D01*
X103428571Y-66452380D01*
X103619047Y-66452380D01*
X103714285Y-66404761D01*
X103761904Y-66357142D01*
X103809523Y-66261904D01*
X103809523Y-65452380D01*
X104238095Y-65547619D02*
X104285714Y-65500000D01*
X104380952Y-65452380D01*
X104619047Y-65452380D01*
X104714285Y-65500000D01*
X104761904Y-65547619D01*
X104809523Y-65642857D01*
X104809523Y-65738095D01*
X104761904Y-65880952D01*
X104190476Y-66452380D01*
X104809523Y-66452380D01*
D13*
%TO.C,J2*%
X143657857Y-98089285D02*
X143657857Y-98625000D01*
X143622142Y-98732142D01*
X143550714Y-98803571D01*
X143443571Y-98839285D01*
X143372142Y-98839285D01*
X143979285Y-98160714D02*
X144015000Y-98125000D01*
X144086428Y-98089285D01*
X144265000Y-98089285D01*
X144336428Y-98125000D01*
X144372142Y-98160714D01*
X144407857Y-98232142D01*
X144407857Y-98303571D01*
X144372142Y-98410714D01*
X143943571Y-98839285D01*
X144407857Y-98839285D01*
D11*
%TO.C,D1*%
X94005952Y-98951190D02*
X94005952Y-98451190D01*
X94125000Y-98451190D01*
X94196428Y-98475000D01*
X94244047Y-98522619D01*
X94267857Y-98570238D01*
X94291666Y-98665476D01*
X94291666Y-98736904D01*
X94267857Y-98832142D01*
X94244047Y-98879761D01*
X94196428Y-98927380D01*
X94125000Y-98951190D01*
X94005952Y-98951190D01*
X94767857Y-98951190D02*
X94482142Y-98951190D01*
X94625000Y-98951190D02*
X94625000Y-98451190D01*
X94577380Y-98522619D01*
X94529761Y-98570238D01*
X94482142Y-98594047D01*
D15*
%TO.C,U1*%
X148480380Y-77764523D02*
X148480380Y-78792619D01*
X148540857Y-78913571D01*
X148601333Y-78974047D01*
X148722285Y-79034523D01*
X148964190Y-79034523D01*
X149085142Y-78974047D01*
X149145619Y-78913571D01*
X149206095Y-78792619D01*
X149206095Y-77764523D01*
X150476095Y-79034523D02*
X149750380Y-79034523D01*
X150113238Y-79034523D02*
X150113238Y-77764523D01*
X149992285Y-77945952D01*
X149871333Y-78066904D01*
X149750380Y-78127380D01*
D13*
%TO.C,J3*%
X112657857Y-98089285D02*
X112657857Y-98625000D01*
X112622142Y-98732142D01*
X112550714Y-98803571D01*
X112443571Y-98839285D01*
X112372142Y-98839285D01*
X112943571Y-98089285D02*
X113407857Y-98089285D01*
X113157857Y-98375000D01*
X113265000Y-98375000D01*
X113336428Y-98410714D01*
X113372142Y-98446428D01*
X113407857Y-98517857D01*
X113407857Y-98696428D01*
X113372142Y-98767857D01*
X113336428Y-98803571D01*
X113265000Y-98839285D01*
X113050714Y-98839285D01*
X112979285Y-98803571D01*
X112943571Y-98767857D01*
D12*
%TO.C,D3*%
X97790000Y-96865000D02*
X97790000Y-99725000D01*
X99710000Y-96865000D02*
X97790000Y-96865000D01*
X99710000Y-99725000D02*
X99710000Y-96865000D01*
%TO.C,G\u002A\u002A\u002A*%
G36*
X123393174Y-94373640D02*
G01*
X123210398Y-94814554D01*
X123017694Y-95279534D01*
X122845979Y-95693973D01*
X122782313Y-95847675D01*
X122639636Y-96172004D01*
X122528640Y-96363621D01*
X122426516Y-96453787D01*
X122325298Y-96474035D01*
X122210280Y-96446995D01*
X122107714Y-96344653D01*
X121994140Y-96135176D01*
X121879788Y-95869555D01*
X121754681Y-95580711D01*
X121649409Y-95366913D01*
X121583645Y-95267504D01*
X121577407Y-95264793D01*
X121521063Y-95338586D01*
X121421597Y-95534060D01*
X121298677Y-95811917D01*
X121275026Y-95868992D01*
X121133874Y-96189718D01*
X121022001Y-96376436D01*
X120917073Y-96460039D01*
X120837833Y-96473754D01*
X120667688Y-96444577D01*
X120603742Y-96401544D01*
X120557156Y-96300531D01*
X120457382Y-96068268D01*
X120316540Y-95733476D01*
X120146745Y-95324878D01*
X120029680Y-95040830D01*
X119847334Y-94597098D01*
X119686384Y-94205614D01*
X119559049Y-93896087D01*
X119477550Y-93698227D01*
X119455378Y-93644614D01*
X119489070Y-93561791D01*
X119667462Y-93536620D01*
X119772840Y-93543121D01*
X119857435Y-93579550D01*
X119936640Y-93671298D01*
X120025852Y-93843755D01*
X120140465Y-94122312D01*
X120295874Y-94532360D01*
X120335357Y-94638151D01*
X120490585Y-95047358D01*
X120628699Y-95398398D01*
X120736728Y-95659233D01*
X120801698Y-95797826D01*
X120809703Y-95809631D01*
X120871652Y-95774126D01*
X120970509Y-95612413D01*
X121073957Y-95385140D01*
X121274635Y-94890701D01*
X121072799Y-94321654D01*
X120965966Y-94020781D01*
X120879467Y-93777771D01*
X120831935Y-93644970D01*
X120831806Y-93644614D01*
X120869845Y-93559277D01*
X121003846Y-93536620D01*
X121134240Y-93561564D01*
X121232482Y-93661827D01*
X121328510Y-93875556D01*
X121376403Y-94011334D01*
X121470383Y-94253390D01*
X121550560Y-94399891D01*
X121592142Y-94421708D01*
X121651494Y-94308623D01*
X121742361Y-94091837D01*
X121797539Y-93946994D01*
X121906536Y-93693942D01*
X122013025Y-93570287D01*
X122151534Y-93536651D01*
X122157396Y-93536620D01*
X122316403Y-93544269D01*
X122365920Y-93558219D01*
X122336707Y-93642908D01*
X122259440Y-93848497D01*
X122149193Y-94135042D01*
X122116696Y-94218622D01*
X121867789Y-94857427D01*
X122045135Y-95298554D01*
X122153930Y-95556108D01*
X122243892Y-95746306D01*
X122280736Y-95808134D01*
X122330101Y-95757067D01*
X122426355Y-95570275D01*
X122557291Y-95274405D01*
X122710705Y-94896102D01*
X122775427Y-94728202D01*
X122948799Y-94276194D01*
X123077143Y-93960749D01*
X123175643Y-93756471D01*
X123259485Y-93637968D01*
X123343854Y-93579843D01*
X123443937Y-93556702D01*
X123478242Y-93552892D01*
X123744623Y-93525966D01*
X123393174Y-94373640D01*
G37*
%TO.C,D2*%
X95590000Y-96865000D02*
X95590000Y-99725000D01*
X97510000Y-99725000D02*
X97510000Y-96865000D01*
X97510000Y-96865000D02*
X95590000Y-96865000D01*
D15*
%TO.C,J1*%
X165662000Y-97719000D02*
X165662000Y-96719000D01*
X150671000Y-96741000D02*
X150671000Y-97741000D01*
X166506000Y-99386000D02*
X166506000Y-97751000D01*
X166424000Y-96719000D02*
X166424000Y-97719000D01*
X149909000Y-97741000D02*
X149909000Y-96741000D01*
X166465000Y-97697000D02*
X164755000Y-97697000D01*
X150671000Y-97741000D02*
X149909000Y-97741000D01*
X160578000Y-97719000D02*
X160240000Y-97719000D01*
X156078000Y-97719000D02*
X155740000Y-97719000D01*
X153078000Y-97719000D02*
X152740000Y-97719000D01*
X149909000Y-96741000D02*
X150671000Y-96741000D01*
X151578000Y-97719000D02*
X149909000Y-97757000D01*
X162078000Y-97719000D02*
X161740000Y-97719000D01*
X165662000Y-96719000D02*
X166424000Y-96719000D01*
X149909000Y-97757000D02*
X149909000Y-99519000D01*
X154578000Y-97719000D02*
X154240000Y-97719000D01*
X157578000Y-97719000D02*
X157240000Y-97719000D01*
X163578000Y-97719000D02*
X163240000Y-97719000D01*
X166424000Y-97719000D02*
X165662000Y-97719000D01*
X159078000Y-97719000D02*
X158740000Y-97719000D01*
G36*
X151700000Y-97000000D02*
G01*
X150950000Y-97500000D01*
X150950000Y-96500000D01*
X151700000Y-97000000D01*
G37*
D11*
%TO.C,U1e*%
X162650000Y-74250000D02*
X163650000Y-74250000D01*
X168650000Y-76750000D02*
X168650000Y-75750000D01*
X121850000Y-74480000D02*
X123410000Y-74480000D01*
X125020000Y-72940000D02*
X121850000Y-72940000D01*
X166150000Y-73250000D02*
X165150000Y-73250000D01*
X171950000Y-75750000D02*
X171950000Y-75050000D01*
X169650000Y-76750000D02*
X169650000Y-75750000D01*
X171950000Y-75750000D02*
X172950000Y-75750000D01*
X162650000Y-74250000D02*
X162650000Y-73250000D01*
X161150000Y-74250000D02*
X161150000Y-73250000D01*
X121875000Y-77020000D02*
X125045000Y-77020000D01*
X172950000Y-74750000D02*
X172850000Y-74750000D01*
X165150000Y-74250000D02*
X166150000Y-74250000D01*
X125020000Y-74450000D02*
X125020000Y-72940000D01*
X161150000Y-73250000D02*
X160150000Y-73250000D01*
X168650000Y-76750000D02*
X169650000Y-76750000D01*
X160150000Y-74250000D02*
X161150000Y-74250000D01*
X165150000Y-74250000D02*
X165150000Y-73250000D01*
X169650000Y-75750000D02*
X168650000Y-75750000D01*
X125020000Y-78005000D02*
X121850000Y-78005000D01*
X125045000Y-77020000D02*
X125045000Y-75480000D01*
X166150000Y-74250000D02*
X166150000Y-73250000D01*
X160150000Y-74250000D02*
X160150000Y-73250000D01*
X121850000Y-79545000D02*
X125020000Y-79545000D01*
X163650000Y-73250000D02*
X162650000Y-73250000D01*
D16*
X172390000Y-64570000D02*
X172390000Y-64570000D01*
D11*
X121875000Y-75480000D02*
X121875000Y-77020000D01*
X123410000Y-75480000D02*
X121875000Y-75480000D01*
X121850000Y-72940000D02*
X121850000Y-74480000D01*
D16*
X172390000Y-64670000D02*
X172390000Y-64670000D01*
D11*
X163650000Y-74250000D02*
X163650000Y-73250000D01*
X172950000Y-75750000D02*
X172950000Y-74750000D01*
D16*
X172390000Y-64570000D02*
X172390000Y-64570000D01*
D11*
X121850000Y-78005000D02*
X121850000Y-79545000D01*
X125020000Y-79515000D02*
X125020000Y-78005000D01*
D16*
X172390000Y-64570000D02*
G75*
G03*
X172390000Y-64670000I0J-50000D01*
G01*
X172390000Y-64670000D02*
G75*
G03*
X172390000Y-64570000I0J50000D01*
G01*
X172390000Y-64570000D02*
G75*
G03*
X172390000Y-64670000I0J-50000D01*
G01*
D12*
%TO.C,RN1*%
X90750000Y-100430000D02*
X91750000Y-100430000D01*
X90750000Y-97070000D02*
X91750000Y-97070000D01*
%TO.C,D4*%
X100090000Y-96865000D02*
X100090000Y-99725000D01*
X102010000Y-96865000D02*
X100090000Y-96865000D01*
X102010000Y-99725000D02*
X102010000Y-96865000D01*
%TO.C,U2*%
X109330000Y-66939000D02*
X109330000Y-69352000D01*
X99551000Y-66939000D02*
X109330000Y-66939000D01*
X99551000Y-66939000D02*
X99551000Y-69352000D01*
X109330000Y-69352000D02*
X99551000Y-69352000D01*
D15*
%TO.C,J2*%
X140081000Y-97660000D02*
X140419000Y-97660000D01*
X131200000Y-97660000D02*
X131200000Y-96660000D01*
X135581000Y-97660000D02*
X135919000Y-97660000D01*
X144800000Y-96660000D02*
X144300000Y-96660000D01*
X131200000Y-96660000D02*
X131700000Y-96660000D01*
X144800000Y-97660000D02*
X143081000Y-97660000D01*
X141581000Y-97660000D02*
X141919000Y-97660000D01*
X144300000Y-96660000D02*
X144300000Y-97660000D01*
X131200000Y-99519000D02*
X131200000Y-97660000D01*
X138581000Y-97660000D02*
X138919000Y-97660000D01*
X137081000Y-97660000D02*
X137419000Y-97660000D01*
X144800000Y-97660000D02*
X144800000Y-99519000D01*
X144800000Y-97660000D02*
X144800000Y-96660000D01*
X131700000Y-96660000D02*
X131700000Y-97660000D01*
X134081000Y-97660000D02*
X134419000Y-97660000D01*
X131200000Y-97660000D02*
X132919000Y-97660000D01*
G36*
X132700000Y-96900000D02*
G01*
X131950000Y-97400000D01*
X131950000Y-96400000D01*
X132700000Y-96900000D01*
G37*
%TO.C,G\u002A\u002A\u002A*%
G36*
X109776911Y-74183662D02*
G01*
X109765048Y-74494762D01*
X109748001Y-74690809D01*
X109718340Y-74799830D01*
X109668631Y-74849853D01*
X109595352Y-74868356D01*
X109520992Y-74872772D01*
X109473984Y-74843246D01*
X109448060Y-74754015D01*
X109436956Y-74579316D01*
X109434403Y-74293388D01*
X109434366Y-74206525D01*
X109434366Y-73521831D01*
X109797483Y-73521831D01*
X109776911Y-74183662D01*
G37*
G36*
X96982563Y-74177247D02*
G01*
X97211057Y-74067659D01*
X97330504Y-74043835D01*
X97529333Y-74002284D01*
X97610490Y-73939716D01*
X97613460Y-73887595D01*
X97548937Y-73802846D01*
X97431244Y-73751312D01*
X97319055Y-73747476D01*
X97270986Y-73803052D01*
X97209787Y-73860566D01*
X97092113Y-73879577D01*
X96948142Y-73835212D01*
X96917585Y-73728619D01*
X97003077Y-73607893D01*
X97208995Y-73504291D01*
X97450364Y-73476960D01*
X97683595Y-73518727D01*
X97865096Y-73622420D01*
X97948329Y-73763423D01*
X97968347Y-73912724D01*
X97989009Y-74150174D01*
X98003903Y-74389366D01*
X98027897Y-74863380D01*
X97568948Y-74863380D01*
X97283420Y-74851806D01*
X97099968Y-74811114D01*
X96979000Y-74732347D01*
X96975845Y-74729225D01*
X96852622Y-74531868D01*
X96853490Y-74505648D01*
X97226628Y-74505648D01*
X97235803Y-74524478D01*
X97343757Y-74590039D01*
X97482156Y-74564578D01*
X97591043Y-74468004D01*
X97615822Y-74398310D01*
X97601556Y-74271279D01*
X97499371Y-74237324D01*
X97349145Y-74282488D01*
X97244141Y-74387279D01*
X97226628Y-74505648D01*
X96853490Y-74505648D01*
X96858973Y-74339929D01*
X96982563Y-74177247D01*
G37*
G36*
X109728116Y-73031972D02*
G01*
X109758088Y-73149304D01*
X109694797Y-73256634D01*
X109602104Y-73293387D01*
X109461063Y-73283016D01*
X109405111Y-73246182D01*
X109387164Y-73108597D01*
X109469032Y-72995929D01*
X109604459Y-72963541D01*
X109728116Y-73031972D01*
G37*
G36*
X111375615Y-80132195D02*
G01*
X111584856Y-79785620D01*
X111870327Y-79517811D01*
X112060387Y-79413990D01*
X112432361Y-79328144D01*
X112826891Y-79353036D01*
X113198695Y-79479107D01*
X113502489Y-79696799D01*
X113527835Y-79723737D01*
X113724863Y-80036047D01*
X113833563Y-80413364D01*
X113855075Y-80817678D01*
X113790542Y-81210977D01*
X113641107Y-81555251D01*
X113466501Y-81765158D01*
X113155981Y-81959840D01*
X112782076Y-82073361D01*
X112397736Y-82095690D01*
X112081690Y-82027559D01*
X111752850Y-81823507D01*
X111488645Y-81512429D01*
X111310844Y-81123824D01*
X111262406Y-80917354D01*
X111262292Y-80848605D01*
X111515434Y-80848605D01*
X111597023Y-81184399D01*
X111767763Y-81480916D01*
X112025699Y-81710090D01*
X112269100Y-81819086D01*
X112492100Y-81873242D01*
X112669518Y-81870618D01*
X112865907Y-81803682D01*
X113014558Y-81732113D01*
X113297348Y-81519234D01*
X113515385Y-81220050D01*
X113638838Y-80881992D01*
X113655775Y-80712535D01*
X113607920Y-80457149D01*
X113485045Y-80166305D01*
X113318183Y-79900617D01*
X113153252Y-79731053D01*
X112828883Y-79577478D01*
X112474087Y-79561624D01*
X112119681Y-79673998D01*
X111825118Y-79886231D01*
X111627526Y-80171454D01*
X111524950Y-80501601D01*
X111515434Y-80848605D01*
X111262292Y-80848605D01*
X111261749Y-80521463D01*
X111375615Y-80132195D01*
G37*
G36*
X114358944Y-73577889D02*
G01*
X114499820Y-73734032D01*
X114507947Y-73753325D01*
X114546893Y-73907431D01*
X114511843Y-73944381D01*
X114415159Y-73861120D01*
X114359469Y-73790010D01*
X114185883Y-73634586D01*
X114003107Y-73599315D01*
X113832929Y-73664644D01*
X113697133Y-73811018D01*
X113617507Y-74018886D01*
X113615838Y-74268693D01*
X113657296Y-74420198D01*
X113797295Y-74640780D01*
X113986259Y-74739466D01*
X114196338Y-74709897D01*
X114367725Y-74582390D01*
X114482737Y-74485595D01*
X114556655Y-74470418D01*
X114556974Y-74470730D01*
X114550931Y-74549223D01*
X114456514Y-74661203D01*
X114312628Y-74774754D01*
X114158176Y-74857959D01*
X114056538Y-74881267D01*
X113881437Y-74835349D01*
X113695574Y-74723651D01*
X113681780Y-74712140D01*
X113559648Y-74583104D01*
X113501286Y-74434462D01*
X113485257Y-74208030D01*
X113485157Y-74178471D01*
X113527307Y-73847353D01*
X113657540Y-73623978D01*
X113881536Y-73499100D01*
X113906498Y-73492374D01*
X114142565Y-73489264D01*
X114358944Y-73577889D01*
G37*
G36*
X102706858Y-73610618D02*
G01*
X102810581Y-73545807D01*
X103093555Y-73472337D01*
X103337983Y-73535756D01*
X103535975Y-73733175D01*
X103592082Y-73831858D01*
X103683695Y-74061582D01*
X103674751Y-74206198D01*
X103552926Y-74282771D01*
X103305896Y-74308364D01*
X103247598Y-74308873D01*
X102993191Y-74321638D01*
X102872558Y-74363742D01*
X102878336Y-74440898D01*
X102964891Y-74528281D01*
X103080616Y-74584442D01*
X103236038Y-74560818D01*
X103301057Y-74537899D01*
X103490983Y-74499714D01*
X103592258Y-74542520D01*
X103586008Y-74644225D01*
X103487437Y-74756056D01*
X103252394Y-74863711D01*
X102972969Y-74852282D01*
X102769983Y-74772770D01*
X102577128Y-74595242D01*
X102475736Y-74349529D01*
X102464458Y-74076365D01*
X102508855Y-73927471D01*
X102858691Y-73927471D01*
X102903324Y-73996988D01*
X103082877Y-74022570D01*
X103100008Y-74022676D01*
X103267350Y-74007141D01*
X103316590Y-73953287D01*
X103309124Y-73920884D01*
X103200402Y-73797937D01*
X103044881Y-73771627D01*
X102950086Y-73815554D01*
X102858691Y-73927471D01*
X102508855Y-73927471D01*
X102541949Y-73816483D01*
X102706858Y-73610618D01*
G37*
G36*
X101241972Y-72949436D02*
G01*
X101352035Y-72962644D01*
X101404390Y-73027741D01*
X101420101Y-73182941D01*
X101420845Y-73273926D01*
X101426122Y-73469252D01*
X101452798Y-73550136D01*
X101517139Y-73545143D01*
X101562476Y-73522617D01*
X101781075Y-73469070D01*
X101976095Y-73532928D01*
X102133056Y-73688791D01*
X102237478Y-73911253D01*
X102274883Y-74174913D01*
X102230790Y-74454368D01*
X102172898Y-74593553D01*
X102084154Y-74730654D01*
X101968730Y-74812710D01*
X101790540Y-74853078D01*
X101513496Y-74865115D01*
X101438733Y-74865292D01*
X101063099Y-74864732D01*
X101063099Y-74257018D01*
X101418927Y-74257018D01*
X101444078Y-74439949D01*
X101502134Y-74544293D01*
X101510282Y-74548508D01*
X101699957Y-74568702D01*
X101837194Y-74457059D01*
X101876828Y-74371888D01*
X101915526Y-74132002D01*
X101868739Y-73930434D01*
X101754636Y-73797917D01*
X101591388Y-73765187D01*
X101528169Y-73782154D01*
X101462246Y-73873575D01*
X101425407Y-74050045D01*
X101418927Y-74257018D01*
X101063099Y-74257018D01*
X101063099Y-72949436D01*
X101241972Y-72949436D01*
G37*
G36*
X110859849Y-72657736D02*
G01*
X111068993Y-72448591D01*
X113618050Y-72448591D01*
X114333863Y-72449180D01*
X114920444Y-72452218D01*
X115391658Y-72459616D01*
X115761369Y-72473286D01*
X116043445Y-72495137D01*
X116251748Y-72527081D01*
X116400146Y-72571027D01*
X116502503Y-72628887D01*
X116572684Y-72702570D01*
X116624554Y-72793988D01*
X116656446Y-72867266D01*
X116698734Y-73059528D01*
X116721221Y-73386142D01*
X116724076Y-73850241D01*
X116720186Y-74057571D01*
X116709905Y-74449225D01*
X116697722Y-74724119D01*
X116678518Y-74908555D01*
X116647170Y-75028837D01*
X116598557Y-75111265D01*
X116527557Y-75182144D01*
X116495870Y-75209607D01*
X116295119Y-75382113D01*
X111027964Y-75382113D01*
X110839334Y-75193483D01*
X110766754Y-75116691D01*
X110715684Y-75038707D01*
X110682345Y-74934327D01*
X110662956Y-74778348D01*
X110653737Y-74545570D01*
X110650907Y-74210788D01*
X110650704Y-73935866D01*
X110650704Y-73921331D01*
X110865352Y-73921331D01*
X110868102Y-74342018D01*
X110877853Y-74642386D01*
X110896856Y-74845133D01*
X110927362Y-74972960D01*
X110971622Y-75048566D01*
X110977787Y-75055030D01*
X111022093Y-75084774D01*
X111098735Y-75108865D01*
X111221590Y-75127876D01*
X111404534Y-75142383D01*
X111661443Y-75152960D01*
X112006191Y-75160182D01*
X112452656Y-75164624D01*
X113014712Y-75166860D01*
X113692603Y-75167465D01*
X116294985Y-75167465D01*
X116406366Y-75008446D01*
X116454733Y-74906743D01*
X116487598Y-74748206D01*
X116507365Y-74508903D01*
X116516437Y-74164901D01*
X116517747Y-73899432D01*
X116515794Y-73507864D01*
X116507644Y-73233117D01*
X116489861Y-73048940D01*
X116459008Y-72929082D01*
X116411648Y-72847292D01*
X116374648Y-72806338D01*
X116331757Y-72768652D01*
X116276490Y-72738231D01*
X116194224Y-72714299D01*
X116070335Y-72696079D01*
X115890201Y-72682794D01*
X115639197Y-72673670D01*
X115302700Y-72667928D01*
X114866088Y-72664794D01*
X114314736Y-72663490D01*
X113679296Y-72663239D01*
X113000053Y-72663810D01*
X112449599Y-72665941D01*
X112013628Y-72670266D01*
X111677834Y-72677415D01*
X111427910Y-72688020D01*
X111249550Y-72702712D01*
X111128447Y-72722122D01*
X111050296Y-72746883D01*
X111000791Y-72777624D01*
X110996197Y-72781652D01*
X110943960Y-72844075D01*
X110907613Y-72936885D01*
X110884376Y-73084308D01*
X110871468Y-73310570D01*
X110866107Y-73639895D01*
X110865352Y-73921331D01*
X110650704Y-73921331D01*
X110650704Y-72866880D01*
X110859849Y-72657736D01*
G37*
G36*
X113153003Y-73075559D02*
G01*
X113154930Y-73092535D01*
X113096691Y-73155328D01*
X113043383Y-73164084D01*
X112969326Y-73129398D01*
X112976057Y-73092535D01*
X113067529Y-73023715D01*
X113087603Y-73020986D01*
X113153003Y-73075559D01*
G37*
G36*
X95811991Y-73032835D02*
G01*
X96102741Y-73053532D01*
X96288595Y-73086966D01*
X96407741Y-73144071D01*
X96491709Y-73227455D01*
X96607345Y-73466809D01*
X96606606Y-73721998D01*
X96490509Y-73943952D01*
X96476580Y-73958490D01*
X96326118Y-74108952D01*
X96512355Y-74451131D01*
X96633664Y-74681376D01*
X96683406Y-74812161D01*
X96660954Y-74868298D01*
X96565681Y-74874602D01*
X96501831Y-74868133D01*
X96359232Y-74819473D01*
X96234974Y-74690033D01*
X96126197Y-74505841D01*
X95975923Y-74267800D01*
X95851053Y-74166319D01*
X95756561Y-74201401D01*
X95697417Y-74373049D01*
X95682935Y-74505634D01*
X95658086Y-74719350D01*
X95607849Y-74827257D01*
X95515084Y-74866398D01*
X95372912Y-74861612D01*
X95318324Y-74836586D01*
X95298956Y-74749370D01*
X95282999Y-74548321D01*
X95272031Y-74262692D01*
X95267628Y-73921736D01*
X95267606Y-73895607D01*
X95267606Y-73593380D01*
X95696902Y-73593380D01*
X95703417Y-73779645D01*
X95743571Y-73860267D01*
X95848273Y-73872676D01*
X95922221Y-73866223D01*
X96105973Y-73812832D01*
X96225940Y-73718591D01*
X96262172Y-73555251D01*
X96176831Y-73416783D01*
X95991403Y-73331348D01*
X95922221Y-73320537D01*
X95779586Y-73314882D01*
X95715013Y-73361075D01*
X95697593Y-73496546D01*
X95696902Y-73593380D01*
X95267606Y-73593380D01*
X95267606Y-73005345D01*
X95811991Y-73032835D01*
G37*
G36*
X114846381Y-73882215D02*
G01*
X115001961Y-73667233D01*
X115009708Y-73659426D01*
X115251813Y-73496467D01*
X115497478Y-73469458D01*
X115723066Y-73573855D01*
X115904939Y-73805118D01*
X115919416Y-73834217D01*
X116000798Y-74130424D01*
X115972720Y-74405047D01*
X115854844Y-74634606D01*
X115666831Y-74795619D01*
X115428339Y-74864605D01*
X115159031Y-74818081D01*
X115112811Y-74797584D01*
X114933727Y-74635064D01*
X114826286Y-74370243D01*
X114806567Y-74179266D01*
X114943662Y-74179266D01*
X114993681Y-74439576D01*
X115123875Y-74627173D01*
X115304447Y-74725904D01*
X115505604Y-74719616D01*
X115697550Y-74592156D01*
X115700102Y-74589355D01*
X115813520Y-74380785D01*
X115837163Y-74139314D01*
X115782676Y-73903650D01*
X115661707Y-73712504D01*
X115485903Y-73604583D01*
X115400431Y-73593380D01*
X115193744Y-73658473D01*
X115035068Y-73831226D01*
X114950745Y-74077849D01*
X114943662Y-74179266D01*
X114806567Y-74179266D01*
X114800564Y-74121129D01*
X114846381Y-73882215D01*
G37*
G36*
X104592516Y-73486778D02*
G01*
X104640448Y-73616273D01*
X104640564Y-73624178D01*
X104598626Y-73769443D01*
X104479578Y-73820939D01*
X104393781Y-73846804D01*
X104340860Y-73915697D01*
X104308709Y-74059849D01*
X104285217Y-74311488D01*
X104282817Y-74344648D01*
X104258663Y-74611173D01*
X104226425Y-74766132D01*
X104175126Y-74841028D01*
X104101000Y-74866398D01*
X103958827Y-74861612D01*
X103904239Y-74836586D01*
X103881683Y-74746688D01*
X103864284Y-74549160D01*
X103854640Y-74279447D01*
X103853521Y-74144488D01*
X103853521Y-73503107D01*
X104102633Y-73543533D01*
X104279100Y-73553369D01*
X104386494Y-73524679D01*
X104393053Y-73517120D01*
X104492880Y-73446300D01*
X104592516Y-73486778D01*
G37*
G36*
X108238101Y-73035554D02*
G01*
X108502546Y-73028824D01*
X108671552Y-73045937D01*
X108792360Y-73099844D01*
X108912214Y-73203497D01*
X108935706Y-73226811D01*
X109099684Y-73466836D01*
X109134756Y-73705168D01*
X109053194Y-73916759D01*
X108867274Y-74076560D01*
X108589268Y-74159522D01*
X108475623Y-74165775D01*
X108154320Y-74165775D01*
X108132512Y-74505634D01*
X108109083Y-74716590D01*
X108061106Y-74823479D01*
X107968921Y-74865247D01*
X107949399Y-74868398D01*
X107807880Y-74848572D01*
X107750168Y-74792474D01*
X107736721Y-74684426D01*
X107729075Y-74466405D01*
X107727863Y-74171442D01*
X107732601Y-73875203D01*
X107739611Y-73593380D01*
X108146479Y-73593380D01*
X108154116Y-73776631D01*
X108200844Y-73858071D01*
X108322392Y-73878945D01*
X108394384Y-73879577D01*
X108615268Y-73839493D01*
X108706688Y-73754366D01*
X108747455Y-73558573D01*
X108664000Y-73407059D01*
X108473257Y-73320608D01*
X108343240Y-73308279D01*
X108216882Y-73320645D01*
X108160696Y-73386690D01*
X108146684Y-73546980D01*
X108146479Y-73593380D01*
X107739611Y-73593380D01*
X107752958Y-73056760D01*
X108238101Y-73035554D01*
G37*
G36*
X111870295Y-73020986D02*
G01*
X112132746Y-73030844D01*
X112303386Y-73070143D01*
X112432730Y-73153471D01*
X112478464Y-73196607D01*
X112631656Y-73423979D01*
X112655992Y-73647826D01*
X112564589Y-73846718D01*
X112370564Y-73999229D01*
X112087037Y-74083932D01*
X111928943Y-74094225D01*
X111580845Y-74094225D01*
X111580845Y-74487746D01*
X111569083Y-74703252D01*
X111538742Y-74846188D01*
X111509296Y-74881267D01*
X111478696Y-74812254D01*
X111455829Y-74615049D01*
X111441830Y-74304409D01*
X111437747Y-73951127D01*
X111580845Y-73951127D01*
X111933481Y-73951127D01*
X112216564Y-73923483D01*
X112392028Y-73844891D01*
X112398552Y-73838692D01*
X112499796Y-73647608D01*
X112478210Y-73432088D01*
X112392573Y-73294929D01*
X112240277Y-73200807D01*
X111990857Y-73165023D01*
X111927503Y-73164084D01*
X111580845Y-73164084D01*
X111580845Y-73951127D01*
X111437747Y-73951127D01*
X111437747Y-73020986D01*
X111870295Y-73020986D01*
G37*
G36*
X112423517Y-79889718D02*
G01*
X112784762Y-79922922D01*
X113022427Y-80023881D01*
X113140039Y-80194615D01*
X113154930Y-80308761D01*
X113128192Y-80482997D01*
X113076752Y-80583220D01*
X113035382Y-80694162D01*
X113076752Y-80807474D01*
X113130861Y-80979986D01*
X113154860Y-81197769D01*
X113154930Y-81208676D01*
X113139559Y-81383241D01*
X113079242Y-81454659D01*
X113011831Y-81463803D01*
X112910910Y-81433753D01*
X112872061Y-81318434D01*
X112868733Y-81227690D01*
X112828286Y-80987843D01*
X112699415Y-80856149D01*
X112496676Y-80819859D01*
X112373376Y-80830542D01*
X112314967Y-80888396D01*
X112297365Y-81032132D01*
X112296338Y-81141831D01*
X112286975Y-81343038D01*
X112248097Y-81438183D01*
X112163520Y-81463680D01*
X112153240Y-81463803D01*
X112090614Y-81454746D01*
X112049507Y-81411084D01*
X112025420Y-81308079D01*
X112013856Y-81120994D01*
X112010317Y-80825093D01*
X112010141Y-80676760D01*
X112010141Y-80386244D01*
X112296338Y-80386244D01*
X112313686Y-80540645D01*
X112392449Y-80597926D01*
X112493099Y-80604116D01*
X112675854Y-80581940D01*
X112786336Y-80541880D01*
X112855697Y-80428586D01*
X112857290Y-80346215D01*
X112790246Y-80245067D01*
X112619664Y-80195226D01*
X112564053Y-80189484D01*
X112388973Y-80183543D01*
X112313836Y-80226004D01*
X112296555Y-80347799D01*
X112296338Y-80386244D01*
X112010141Y-80386244D01*
X112010141Y-79889718D01*
X112423517Y-79889718D01*
G37*
G36*
X105522688Y-73487840D02*
G01*
X105570558Y-73615492D01*
X105570704Y-73624178D01*
X105528766Y-73769443D01*
X105409719Y-73820939D01*
X105323921Y-73846804D01*
X105271001Y-73915697D01*
X105238850Y-74059849D01*
X105215357Y-74311488D01*
X105212958Y-74344648D01*
X105189669Y-74609132D01*
X105158963Y-74762824D01*
X105108730Y-74837952D01*
X105026861Y-74866746D01*
X105016197Y-74868356D01*
X104942189Y-74872803D01*
X104895248Y-74843611D01*
X104869218Y-74755156D01*
X104857941Y-74581814D01*
X104855260Y-74297962D01*
X104855212Y-74198405D01*
X104855212Y-73505589D01*
X105073010Y-73537555D01*
X105236864Y-73542703D01*
X105327300Y-73510459D01*
X105327655Y-73509901D01*
X105424504Y-73444548D01*
X105522688Y-73487840D01*
G37*
G36*
X100006116Y-73504100D02*
G01*
X100342916Y-73499887D01*
X100574682Y-73570467D01*
X100724181Y-73726253D01*
X100781920Y-73859008D01*
X100830602Y-74161190D01*
X100786734Y-74440903D01*
X100666481Y-74670061D01*
X100486010Y-74820575D01*
X100261485Y-74864360D01*
X100207604Y-74856845D01*
X100068052Y-74837280D01*
X100006148Y-74877410D01*
X99990342Y-75012131D01*
X99989859Y-75097704D01*
X99979952Y-75281363D01*
X99933321Y-75362698D01*
X99824607Y-75382035D01*
X99810986Y-75382113D01*
X99632113Y-75382113D01*
X99632113Y-74161505D01*
X99989859Y-74161505D01*
X99999187Y-74371111D01*
X100022828Y-74516037D01*
X100037559Y-74547371D01*
X100167526Y-74593030D01*
X100313846Y-74513508D01*
X100379323Y-74436052D01*
X100480589Y-74213330D01*
X100446006Y-74006452D01*
X100364867Y-73883126D01*
X100219516Y-73762371D01*
X100100218Y-73774779D01*
X100019493Y-73911058D01*
X99989859Y-74161505D01*
X99632113Y-74161505D01*
X99632113Y-73540037D01*
X100006116Y-73504100D01*
G37*
G36*
X98911633Y-73496223D02*
G01*
X99126756Y-73561520D01*
X99285090Y-73676640D01*
X99344820Y-73825915D01*
X99288122Y-73869454D01*
X99159313Y-73877599D01*
X99024138Y-73853348D01*
X98952395Y-73808028D01*
X98851838Y-73748678D01*
X98764052Y-73736479D01*
X98649667Y-73770315D01*
X98639678Y-73851062D01*
X98718545Y-73947571D01*
X98870729Y-74028697D01*
X98916729Y-74042493D01*
X99165104Y-74128659D01*
X99298401Y-74242385D01*
X99344642Y-74410712D01*
X99345916Y-74456675D01*
X99285672Y-74662398D01*
X99129216Y-74805209D01*
X98912959Y-74875935D01*
X98673313Y-74865403D01*
X98446690Y-74764441D01*
X98372896Y-74701795D01*
X98265176Y-74565164D01*
X98233111Y-74462034D01*
X98237272Y-74451372D01*
X98347333Y-74385593D01*
X98489761Y-74400827D01*
X98584748Y-74487746D01*
X98672008Y-74568959D01*
X98809245Y-74594903D01*
X98935075Y-74565920D01*
X98988169Y-74485501D01*
X98929039Y-74374244D01*
X98862958Y-74337179D01*
X98536088Y-74213731D01*
X98342122Y-74080192D01*
X98270897Y-73923428D01*
X98312253Y-73730308D01*
X98343631Y-73666041D01*
X98478260Y-73541807D01*
X98681531Y-73487427D01*
X98911633Y-73496223D01*
G37*
G36*
X113117729Y-73589342D02*
G01*
X113142210Y-73776091D01*
X113154176Y-74058397D01*
X113154930Y-74161552D01*
X113147416Y-74450722D01*
X113127318Y-74682611D01*
X113098302Y-74822182D01*
X113083381Y-74845493D01*
X113047408Y-74801330D01*
X113023448Y-74623050D01*
X113012457Y-74319207D01*
X113011831Y-74205772D01*
X113018927Y-73883754D01*
X113038692Y-73652276D01*
X113068846Y-73533143D01*
X113083381Y-73521831D01*
X113117729Y-73589342D01*
G37*
G36*
X102900151Y-88726334D02*
G01*
X102475555Y-88497699D01*
X102087614Y-88163630D01*
X101765559Y-87758259D01*
X101538621Y-87315719D01*
X101459893Y-87044648D01*
X101391511Y-86813592D01*
X101272004Y-86509233D01*
X102118781Y-86509233D01*
X102129294Y-86827233D01*
X102217837Y-87138588D01*
X102243370Y-87192825D01*
X102466963Y-87532864D01*
X102749589Y-87809985D01*
X103066624Y-88013395D01*
X103393447Y-88132299D01*
X103705435Y-88155902D01*
X103977965Y-88073409D01*
X104081362Y-87998624D01*
X104181849Y-87837935D01*
X104193771Y-87778614D01*
X107587301Y-87778614D01*
X107600331Y-87854972D01*
X107710318Y-88028863D01*
X107917121Y-88126245D01*
X108195131Y-88144697D01*
X108518739Y-88081800D01*
X108799310Y-87968252D01*
X109163596Y-87708549D01*
X109436848Y-87353602D01*
X109603289Y-86929879D01*
X109649014Y-86542849D01*
X109605158Y-86224162D01*
X109482288Y-85997226D01*
X109293455Y-85878035D01*
X109101271Y-85871426D01*
X108805847Y-85983951D01*
X108486950Y-86210429D01*
X108170569Y-86530533D01*
X108027221Y-86711483D01*
X107768740Y-87116492D01*
X107620443Y-87476641D01*
X107587301Y-87778614D01*
X104193771Y-87778614D01*
X104211268Y-87691550D01*
X104160979Y-87422546D01*
X104023959Y-87120705D01*
X103820974Y-86808067D01*
X103572795Y-86506671D01*
X103444062Y-86380060D01*
X104502678Y-86380060D01*
X104556474Y-86731879D01*
X104613610Y-86874258D01*
X104830947Y-87175365D01*
X105141763Y-87397384D01*
X105515781Y-87533063D01*
X105922720Y-87575151D01*
X106332302Y-87516399D01*
X106681422Y-87369404D01*
X106934276Y-87160629D01*
X107138898Y-86880033D01*
X107263994Y-86577605D01*
X107287888Y-86400704D01*
X107234267Y-86142992D01*
X107094942Y-85860149D01*
X106902212Y-85607984D01*
X106756001Y-85481744D01*
X106384468Y-85296556D01*
X106001958Y-85220186D01*
X105626799Y-85240721D01*
X105277316Y-85346249D01*
X104971836Y-85524859D01*
X104728686Y-85764638D01*
X104566191Y-86053676D01*
X104502678Y-86380060D01*
X103444062Y-86380060D01*
X103300187Y-86238556D01*
X103023921Y-86025763D01*
X102764763Y-85890330D01*
X102543482Y-85854296D01*
X102490329Y-85865276D01*
X102305808Y-85993264D01*
X102179789Y-86219580D01*
X102118781Y-86509233D01*
X101272004Y-86509233D01*
X101268701Y-86500821D01*
X101109132Y-86148231D01*
X100946991Y-85828310D01*
X100787869Y-85524124D01*
X100686348Y-85294353D01*
X100629595Y-85088851D01*
X100604777Y-84857470D01*
X100599059Y-84550062D01*
X100599068Y-84526203D01*
X101220229Y-84526203D01*
X101282648Y-84914038D01*
X101453599Y-85238692D01*
X101470225Y-85259036D01*
X101641412Y-85415822D01*
X101788629Y-85437829D01*
X101925915Y-85322279D01*
X102028368Y-85148591D01*
X102109278Y-84909221D01*
X102166074Y-84591538D01*
X102196314Y-84240754D01*
X102196404Y-84216162D01*
X102877098Y-84216162D01*
X102991575Y-84586050D01*
X103213928Y-84895539D01*
X103495775Y-85099395D01*
X103849804Y-85220951D01*
X104206256Y-85213339D01*
X104591572Y-85075624D01*
X104623212Y-85059590D01*
X104951893Y-84817631D01*
X105212623Y-84484543D01*
X105388759Y-84096392D01*
X105463661Y-83689249D01*
X105442908Y-83483819D01*
X106304736Y-83483819D01*
X106314475Y-83909995D01*
X106461105Y-84328452D01*
X106742142Y-84725941D01*
X106747208Y-84731501D01*
X107093879Y-85029531D01*
X107464545Y-85199960D01*
X107843231Y-85237996D01*
X108170005Y-85158320D01*
X108486614Y-84953038D01*
X108723444Y-84652507D01*
X108865147Y-84289251D01*
X108878144Y-84125492D01*
X109506315Y-84125492D01*
X109531821Y-84477321D01*
X109601934Y-84811875D01*
X109705459Y-85102286D01*
X109831200Y-85321689D01*
X109967961Y-85443218D01*
X110060934Y-85456364D01*
X110176164Y-85387516D01*
X110308721Y-85249160D01*
X110318940Y-85235741D01*
X110417613Y-85044128D01*
X110475508Y-84772204D01*
X110495244Y-84544142D01*
X110503109Y-84256641D01*
X110479009Y-84047873D01*
X110410374Y-83854793D01*
X110324156Y-83686111D01*
X110145225Y-83426001D01*
X109960382Y-83279914D01*
X109785611Y-83258616D01*
X109727279Y-83284159D01*
X109652108Y-83393225D01*
X109581995Y-83598044D01*
X109529324Y-83851458D01*
X109506483Y-84106309D01*
X109506315Y-84125492D01*
X108878144Y-84125492D01*
X108896374Y-83895797D01*
X108863522Y-83688710D01*
X108706841Y-83276612D01*
X108472585Y-82940424D01*
X108181370Y-82685456D01*
X107853814Y-82517015D01*
X107510531Y-82440412D01*
X107172139Y-82460955D01*
X106859253Y-82583952D01*
X106592490Y-82814714D01*
X106434373Y-83063175D01*
X106304736Y-83483819D01*
X105442908Y-83483819D01*
X105426269Y-83319118D01*
X105276373Y-82990554D01*
X105036496Y-82719984D01*
X104737972Y-82527701D01*
X104412138Y-82433996D01*
X104095818Y-82457563D01*
X103658969Y-82633635D01*
X103326051Y-82891482D01*
X103070716Y-83253677D01*
X103000942Y-83395634D01*
X102877789Y-83810986D01*
X102877098Y-84216162D01*
X102196404Y-84216162D01*
X102197553Y-83902081D01*
X102167351Y-83620731D01*
X102119178Y-83467817D01*
X101978665Y-83296667D01*
X101816988Y-83261958D01*
X101644552Y-83360557D01*
X101471759Y-83589331D01*
X101424348Y-83677044D01*
X101267181Y-84104200D01*
X101220229Y-84526203D01*
X100599068Y-84526203D01*
X100599088Y-84468873D01*
X100604574Y-84129127D01*
X100625269Y-83887224D01*
X100669417Y-83698077D01*
X100745259Y-83516600D01*
X100788766Y-83431408D01*
X100931249Y-83193974D01*
X101086318Y-82983594D01*
X101163340Y-82900204D01*
X101287638Y-82766260D01*
X101348161Y-82665700D01*
X101349296Y-82656930D01*
X101378014Y-82557966D01*
X101452027Y-82376521D01*
X101522322Y-82222219D01*
X101579756Y-82093025D01*
X102342649Y-82093025D01*
X102354835Y-82286157D01*
X102451749Y-82416496D01*
X102585900Y-82459844D01*
X102676648Y-82432983D01*
X102848610Y-82358008D01*
X102979421Y-82294072D01*
X103321702Y-82083750D01*
X103664091Y-81811691D01*
X103937666Y-81540726D01*
X104508350Y-81540726D01*
X104582163Y-81720038D01*
X104668695Y-81814369D01*
X104944705Y-81989376D01*
X105312705Y-82105259D01*
X105733277Y-82159543D01*
X106167005Y-82149754D01*
X106574469Y-82073417D01*
X106873571Y-81952796D01*
X107112325Y-81771249D01*
X107212249Y-81569302D01*
X107171773Y-81353281D01*
X107060824Y-81198965D01*
X106884735Y-81061818D01*
X107549377Y-81061818D01*
X107626633Y-81258811D01*
X107794822Y-81494683D01*
X108038648Y-81751094D01*
X108342816Y-82009704D01*
X108683099Y-82246599D01*
X108971972Y-82398839D01*
X109184868Y-82441187D01*
X109335891Y-82374935D01*
X109386718Y-82311166D01*
X109428764Y-82119384D01*
X109372635Y-81874199D01*
X109236752Y-81605173D01*
X109039536Y-81341869D01*
X108799405Y-81113847D01*
X108540614Y-80953297D01*
X108271642Y-80864488D01*
X107994402Y-80826175D01*
X107753385Y-80839805D01*
X107593081Y-80906821D01*
X107578350Y-80922043D01*
X107549377Y-81061818D01*
X106884735Y-81061818D01*
X106722695Y-80935613D01*
X106317972Y-80775960D01*
X105879631Y-80720929D01*
X105440652Y-80771446D01*
X105034012Y-80928434D01*
X104751034Y-81134229D01*
X104563824Y-81352206D01*
X104508350Y-81540726D01*
X103937666Y-81540726D01*
X103960374Y-81518235D01*
X104144626Y-81276990D01*
X104239314Y-81110296D01*
X104258473Y-81011186D01*
X104207598Y-80929292D01*
X104185079Y-80906105D01*
X104007604Y-80819613D01*
X103750395Y-80805736D01*
X103455737Y-80862330D01*
X103225660Y-80954753D01*
X102954342Y-81132157D01*
X102721039Y-81356665D01*
X102535095Y-81606299D01*
X102405850Y-81859079D01*
X102342649Y-82093025D01*
X101579756Y-82093025D01*
X101649688Y-81935717D01*
X101772847Y-81630698D01*
X101817310Y-81509943D01*
X101935023Y-81248593D01*
X102086963Y-81001767D01*
X102145820Y-80927315D01*
X102266720Y-80746003D01*
X102309347Y-80586449D01*
X102269666Y-80483007D01*
X102200439Y-80462113D01*
X102087796Y-80409457D01*
X101923354Y-80273380D01*
X101738753Y-80086714D01*
X101565633Y-79882293D01*
X101435631Y-79692952D01*
X101407549Y-79639296D01*
X101282048Y-79403975D01*
X101141805Y-79186730D01*
X101114928Y-79151153D01*
X101008858Y-78966136D01*
X100958797Y-78727637D01*
X100949606Y-78542290D01*
X100931718Y-78287097D01*
X100892451Y-78070259D01*
X100860170Y-77979783D01*
X100781923Y-77698510D01*
X100793160Y-77570295D01*
X101515994Y-77570295D01*
X101534270Y-77683625D01*
X101626742Y-77843407D01*
X101664018Y-77890771D01*
X101756996Y-78035271D01*
X101824540Y-78199258D01*
X101857518Y-78344446D01*
X101846801Y-78432551D01*
X101793063Y-78431901D01*
X101689381Y-78432523D01*
X101643217Y-78453959D01*
X101603570Y-78551734D01*
X101651548Y-78711154D01*
X101769345Y-78897109D01*
X101939159Y-79074486D01*
X101971167Y-79100671D01*
X102094123Y-79219915D01*
X102095667Y-79295235D01*
X102077795Y-79309285D01*
X102043051Y-79396062D01*
X102111354Y-79522784D01*
X102258495Y-79663955D01*
X102460264Y-79794079D01*
X102596966Y-79856050D01*
X102807272Y-79958002D01*
X102878941Y-80051372D01*
X102874661Y-80076524D01*
X102903592Y-80174659D01*
X103046134Y-80265340D01*
X103272844Y-80337636D01*
X103554275Y-80380620D01*
X103713150Y-80387763D01*
X104140088Y-80339104D01*
X104427006Y-80229577D01*
X104669459Y-80066992D01*
X104855836Y-79870201D01*
X104882310Y-79828760D01*
X105020005Y-79588928D01*
X104417028Y-79003331D01*
X103953026Y-78588607D01*
X103516164Y-78277044D01*
X103265930Y-78135573D01*
X103022099Y-78006965D01*
X102838748Y-77904329D01*
X102743759Y-77843539D01*
X102736878Y-77834343D01*
X102818510Y-77838097D01*
X102995642Y-77884423D01*
X103231676Y-77960869D01*
X103490016Y-78054983D01*
X103734064Y-78154314D01*
X103888679Y-78226246D01*
X104108180Y-78362354D01*
X104377408Y-78565047D01*
X104647752Y-78796953D01*
X104722381Y-78867189D01*
X104950471Y-79082816D01*
X105103904Y-79210977D01*
X105207910Y-79266672D01*
X105287723Y-79264902D01*
X105343963Y-79236722D01*
X105527754Y-79041833D01*
X105621089Y-78774595D01*
X106153498Y-78774595D01*
X106206151Y-78933432D01*
X106343496Y-79110054D01*
X106560193Y-79352580D01*
X107049869Y-78879838D01*
X107312710Y-78644239D01*
X107588017Y-78426826D01*
X107828659Y-78263976D01*
X107896674Y-78226246D01*
X108116294Y-78126093D01*
X108373629Y-78024801D01*
X108632401Y-77934487D01*
X108856334Y-77867269D01*
X109009152Y-77835268D01*
X109053823Y-77839691D01*
X109007379Y-77881077D01*
X108862256Y-77967808D01*
X108648266Y-78082254D01*
X108614812Y-78099330D01*
X108250331Y-78307886D01*
X107892677Y-78554552D01*
X107560255Y-78821683D01*
X107271471Y-79091634D01*
X107044730Y-79346759D01*
X106898438Y-79569413D01*
X106851002Y-79741951D01*
X106859206Y-79782394D01*
X107017309Y-80013133D01*
X107306416Y-80228818D01*
X107395371Y-80277844D01*
X107635646Y-80352356D01*
X107953557Y-80386298D01*
X108289846Y-80379513D01*
X108585253Y-80331841D01*
X108722427Y-80281402D01*
X108867106Y-80181503D01*
X108933117Y-80086419D01*
X108933521Y-80080524D01*
X108993395Y-79998345D01*
X109144145Y-79899305D01*
X109222169Y-79861455D01*
X109442536Y-79731971D01*
X109608898Y-79574793D01*
X109694670Y-79421145D01*
X109685067Y-79317774D01*
X109702498Y-79226288D01*
X109798162Y-79073068D01*
X109897839Y-78951924D01*
X110058069Y-78738863D01*
X110127242Y-78565992D01*
X110101083Y-78454261D01*
X110005781Y-78422958D01*
X109915566Y-78375155D01*
X109906592Y-78333521D01*
X109920762Y-78178601D01*
X109924479Y-78142250D01*
X109974868Y-78025839D01*
X110087030Y-77861836D01*
X110125833Y-77813875D01*
X110240397Y-77661585D01*
X110261799Y-77572998D01*
X110215270Y-77522169D01*
X109983458Y-77421421D01*
X109689176Y-77354252D01*
X109410663Y-77336140D01*
X109323299Y-77345700D01*
X109164497Y-77362754D01*
X109105153Y-77321842D01*
X109102156Y-77262089D01*
X109050821Y-77161994D01*
X108899594Y-77114116D01*
X108682928Y-77121385D01*
X108435275Y-77186732D01*
X108396710Y-77202089D01*
X108230232Y-77265740D01*
X108164427Y-77268162D01*
X108171006Y-77210142D01*
X108171681Y-77208372D01*
X108176597Y-77097205D01*
X108154527Y-77068495D01*
X108030520Y-77058661D01*
X107841033Y-77106139D01*
X107641217Y-77191260D01*
X107486222Y-77294357D01*
X107467000Y-77313679D01*
X107367004Y-77408378D01*
X107300886Y-77396628D01*
X107249642Y-77334240D01*
X107185751Y-77268296D01*
X107107214Y-77267027D01*
X106973643Y-77337955D01*
X106870563Y-77404853D01*
X106577576Y-77670646D01*
X106339461Y-78022353D01*
X106189685Y-78405454D01*
X106161461Y-78560011D01*
X106153498Y-78774595D01*
X105621089Y-78774595D01*
X105627804Y-78755368D01*
X105641582Y-78580577D01*
X105587479Y-78319046D01*
X105444965Y-78018758D01*
X105241738Y-77724598D01*
X105005496Y-77481450D01*
X104925777Y-77420586D01*
X104745342Y-77301901D01*
X104640857Y-77260629D01*
X104573871Y-77288222D01*
X104535940Y-77333925D01*
X104461610Y-77412919D01*
X104390164Y-77387998D01*
X104320427Y-77315971D01*
X104171911Y-77201819D01*
X103974362Y-77107099D01*
X103781967Y-77052238D01*
X103648914Y-77057667D01*
X103643397Y-77060725D01*
X103603081Y-77154597D01*
X103613672Y-77208372D01*
X103622765Y-77268788D01*
X103560984Y-77268273D01*
X103399243Y-77206517D01*
X103398197Y-77206081D01*
X103148987Y-77132330D01*
X102894002Y-77099411D01*
X102881559Y-77099296D01*
X102711477Y-77109352D01*
X102649827Y-77155043D01*
X102660013Y-77250418D01*
X102671305Y-77352584D01*
X102604798Y-77377404D01*
X102486991Y-77359032D01*
X102283676Y-77347463D01*
X102038693Y-77372883D01*
X101798260Y-77425236D01*
X101608593Y-77494466D01*
X101515994Y-77570295D01*
X100793160Y-77570295D01*
X100808594Y-77394189D01*
X100932264Y-77135731D01*
X101144679Y-76945434D01*
X101432425Y-76785110D01*
X101730208Y-76687137D01*
X101868288Y-76671571D01*
X102060865Y-76636331D01*
X102284378Y-76551378D01*
X102326312Y-76530110D01*
X102475671Y-76464549D01*
X102652523Y-76422457D01*
X102891311Y-76399205D01*
X103226480Y-76390167D01*
X103372881Y-76389506D01*
X103707560Y-76396005D01*
X103999987Y-76414143D01*
X104213790Y-76440937D01*
X104302045Y-76465642D01*
X104479435Y-76533456D01*
X104667488Y-76577457D01*
X105037242Y-76691643D01*
X105401371Y-76923459D01*
X105608894Y-77106788D01*
X105897506Y-77384917D01*
X106143466Y-77124152D01*
X106351454Y-76944934D01*
X106616955Y-76771453D01*
X106893806Y-76628847D01*
X107135843Y-76542254D01*
X107238929Y-76527600D01*
X107414084Y-76493271D01*
X107495737Y-76458990D01*
X107586347Y-76424873D01*
X107724487Y-76401317D01*
X107933292Y-76386813D01*
X108235896Y-76379849D01*
X108655432Y-76378917D01*
X108718874Y-76379157D01*
X109101149Y-76408006D01*
X109394279Y-76496723D01*
X109451994Y-76525570D01*
X109671671Y-76619108D01*
X109878552Y-76669078D01*
X109917065Y-76671571D01*
X110194046Y-76723959D01*
X110495193Y-76855657D01*
X110755214Y-77034290D01*
X110853089Y-77135731D01*
X110970081Y-77373578D01*
X111006785Y-77650163D01*
X110959151Y-77904197D01*
X110909801Y-77993899D01*
X110844146Y-78184238D01*
X110846260Y-78390561D01*
X110855532Y-78518360D01*
X110840814Y-78648269D01*
X110792764Y-78806049D01*
X110702039Y-79017463D01*
X110559295Y-79308274D01*
X110403645Y-79611014D01*
X110283568Y-79796197D01*
X110113127Y-80004577D01*
X109923119Y-80204627D01*
X109744339Y-80364821D01*
X109607585Y-80453632D01*
X109572241Y-80462113D01*
X109489082Y-80512812D01*
X109492043Y-80647648D01*
X109575752Y-80840722D01*
X109684417Y-81003106D01*
X109842612Y-81247083D01*
X109969740Y-81507165D01*
X110011180Y-81627616D01*
X110167092Y-82068893D01*
X110392385Y-82522633D01*
X110652095Y-82921193D01*
X110729831Y-83017941D01*
X111008790Y-83451938D01*
X111172478Y-83949261D01*
X111219977Y-84487215D01*
X111150374Y-85043104D01*
X110962753Y-85594232D01*
X110843179Y-85828310D01*
X110715780Y-86070784D01*
X110587487Y-86344239D01*
X110475022Y-86609260D01*
X110395103Y-86826433D01*
X110364452Y-86956344D01*
X110364451Y-86956796D01*
X110335018Y-87082713D01*
X110258244Y-87289595D01*
X110160544Y-87511318D01*
X109920816Y-87901500D01*
X109600834Y-88257495D01*
X109238272Y-88543579D01*
X108887500Y-88718479D01*
X108632915Y-88825655D01*
X108395308Y-88957754D01*
X108333408Y-89000937D01*
X108128222Y-89139865D01*
X107878000Y-89286969D01*
X107788733Y-89334225D01*
X107544669Y-89470100D01*
X107314245Y-89616802D01*
X107247200Y-89665117D01*
X106874202Y-89875640D01*
X106422337Y-90018567D01*
X105944282Y-90082627D01*
X105492715Y-90056551D01*
X105453010Y-90048956D01*
X105205309Y-89976360D01*
X104902023Y-89845547D01*
X104528265Y-89648771D01*
X104069151Y-89378283D01*
X103603099Y-89086178D01*
X103331318Y-88929122D01*
X103051303Y-88790750D01*
X104663713Y-88790750D01*
X104786313Y-88961801D01*
X104837324Y-89011534D01*
X105138294Y-89205697D01*
X105519312Y-89324635D01*
X105935502Y-89362918D01*
X106341989Y-89315113D01*
X106601895Y-89225083D01*
X106856128Y-89073360D01*
X107035100Y-88904911D01*
X107118079Y-88744161D01*
X107101087Y-88636995D01*
X106927100Y-88437070D01*
X106686800Y-88305099D01*
X106352617Y-88229290D01*
X106092541Y-88205683D01*
X105552910Y-88209678D01*
X105132694Y-88290309D01*
X104832660Y-88447417D01*
X104798475Y-88477190D01*
X104668527Y-88639673D01*
X104663713Y-88790750D01*
X103051303Y-88790750D01*
X103038234Y-88784292D01*
X102900151Y-88726334D01*
G37*
G36*
X106683481Y-74226151D02*
G01*
X106536760Y-74650994D01*
X106418764Y-74957587D01*
X106317422Y-75164840D01*
X106220665Y-75291663D01*
X106116421Y-75356967D01*
X105992622Y-75379661D01*
X105946338Y-75381017D01*
X105815808Y-75340882D01*
X105785352Y-75239014D01*
X105828545Y-75123010D01*
X105889121Y-75095915D01*
X106014062Y-75057368D01*
X106067925Y-74933733D01*
X106051145Y-74713024D01*
X105964159Y-74383254D01*
X105919958Y-74247973D01*
X105828364Y-73970911D01*
X105757674Y-73745489D01*
X105718413Y-73605810D01*
X105713803Y-73579958D01*
X105775078Y-73536149D01*
X105891646Y-73521831D01*
X106007858Y-73543032D01*
X106082569Y-73630650D01*
X106144671Y-73820707D01*
X106150869Y-73845019D01*
X106210493Y-74044497D01*
X106267768Y-74177547D01*
X106288356Y-74202883D01*
X106335602Y-74160527D01*
X106396609Y-74014518D01*
X106436180Y-73879695D01*
X106498938Y-73667423D01*
X106564202Y-73560750D01*
X106660272Y-73524522D01*
X106724285Y-73521831D01*
X106920672Y-73521831D01*
X106683481Y-74226151D01*
G37*
D12*
%TO.C,D1*%
X95335000Y-99725000D02*
X95335000Y-96865000D01*
X95335000Y-96865000D02*
X93415000Y-96865000D01*
X93415000Y-96865000D02*
X93415000Y-99725000D01*
D17*
%TO.C,U1*%
X172716228Y-69563772D02*
G75*
G03*
X172716228Y-69563772I-316228J0D01*
G01*
D15*
%TO.C,J3*%
X113850000Y-96660000D02*
X113350000Y-96660000D01*
X113850000Y-97660000D02*
X113850000Y-96660000D01*
X110531000Y-97660000D02*
X110869000Y-97660000D01*
X103150000Y-99519000D02*
X103150000Y-97660000D01*
X103150000Y-97660000D02*
X103150000Y-96660000D01*
X103150000Y-96660000D02*
X103650000Y-96660000D01*
X103650000Y-96660000D02*
X103650000Y-97660000D01*
X113850000Y-99519000D02*
X113850000Y-97660000D01*
X112031000Y-97660000D02*
X113850000Y-97660000D01*
X109031000Y-97660000D02*
X109369000Y-97660000D01*
X113350000Y-96660000D02*
X113350000Y-97660000D01*
X107531000Y-97660000D02*
X107869000Y-97660000D01*
X106031000Y-97660000D02*
X106369000Y-97660000D01*
X103150000Y-97660000D02*
X104869000Y-97660000D01*
G36*
X104700000Y-96900000D02*
G01*
X103950000Y-97400000D01*
X103950000Y-96400000D01*
X104700000Y-96900000D01*
G37*
%TD*%
%LPC*%
D18*
%TO.C,D3*%
X98750000Y-97700000D03*
X98750000Y-99750000D03*
%TD*%
D19*
%TO.C,REF\u002A\u002A*%
X92500000Y-92250000D03*
%TD*%
D18*
%TO.C,D2*%
X96550000Y-97700000D03*
X96550000Y-99750000D03*
%TD*%
D19*
%TO.C,REF\u002A\u002A*%
X115783500Y-92250000D03*
%TD*%
%TO.C,REF\u002A\u002A*%
X147525000Y-96900000D03*
%TD*%
D20*
%TO.C,J1*%
X152200000Y-97100000D03*
X153700000Y-97100000D03*
X155200000Y-97100000D03*
X156700000Y-97100000D03*
X158200000Y-97100000D03*
X159700000Y-97100000D03*
X161200000Y-97100000D03*
X162700000Y-97100000D03*
X164200000Y-97100000D03*
D21*
X150250000Y-100700000D03*
X166150000Y-100700000D03*
%TD*%
D19*
%TO.C,REF\u002A\u002A*%
X92533500Y-68175000D03*
%TD*%
D22*
%TO.C,U1e*%
X172280000Y-66560000D03*
X169740000Y-66560000D03*
X167200000Y-66560000D03*
X164660000Y-66560000D03*
X162120000Y-66560000D03*
X159580000Y-66560000D03*
X157040000Y-66560000D03*
X154500000Y-66560000D03*
X151960000Y-66560000D03*
X149420000Y-66560000D03*
X146880000Y-66560000D03*
X144340000Y-66560000D03*
X141800000Y-66560000D03*
X139260000Y-66560000D03*
X136720000Y-66560000D03*
X134180000Y-66560000D03*
X131640000Y-66560000D03*
X129100000Y-66560000D03*
X126560000Y-66560000D03*
X124020000Y-66560000D03*
X124020000Y-85940000D03*
X126560000Y-85940000D03*
X129100000Y-85940000D03*
X131640000Y-85940000D03*
X134180000Y-85940000D03*
X136720000Y-85940000D03*
X139260000Y-85940000D03*
X141800000Y-85940000D03*
X144340000Y-85940000D03*
X146880000Y-85940000D03*
X149420000Y-85940000D03*
X151960000Y-85940000D03*
X154500000Y-85940000D03*
X157040000Y-85940000D03*
X159580000Y-85940000D03*
X162120000Y-85940000D03*
X164660000Y-85940000D03*
X167200000Y-85940000D03*
X169740000Y-85940000D03*
X172280000Y-85940000D03*
%TD*%
D23*
%TO.C,RN1*%
X92150000Y-99950000D03*
D24*
X92150000Y-99150000D03*
X92150000Y-98350000D03*
D23*
X92150000Y-97550000D03*
X90350000Y-97550000D03*
D24*
X90350000Y-98350000D03*
X90350000Y-99150000D03*
D23*
X90350000Y-99950000D03*
%TD*%
D18*
%TO.C,D4*%
X101050000Y-97700000D03*
X101050000Y-99750000D03*
%TD*%
D19*
%TO.C,REF\u002A\u002A*%
X167725000Y-78850000D03*
%TD*%
%TO.C,REF\u002A\u002A*%
X170400000Y-96925000D03*
%TD*%
D25*
%TO.C,U2*%
X100630000Y-68150000D03*
X103170000Y-68150000D03*
X105710000Y-68150000D03*
X108250000Y-68150000D03*
%TD*%
D19*
%TO.C,REF\u002A\u002A*%
X115783500Y-68200000D03*
%TD*%
D20*
%TO.C,J2*%
X133500000Y-97100000D03*
X135000000Y-97100000D03*
X136500000Y-97100000D03*
X138000000Y-97100000D03*
X139500000Y-97100000D03*
X141000000Y-97100000D03*
X142500000Y-97100000D03*
D21*
X144450000Y-100700000D03*
X131550000Y-100700000D03*
%TD*%
D18*
%TO.C,D1*%
X94375000Y-97700000D03*
X94375000Y-99750000D03*
%TD*%
D26*
%TO.C,U1*%
X172330000Y-71500000D03*
X169790000Y-71500000D03*
X167250000Y-71500000D03*
X164710000Y-71500000D03*
X162170000Y-71500000D03*
X159630000Y-71500000D03*
X157090000Y-71500000D03*
X154550000Y-71500000D03*
X152010000Y-71500000D03*
X149470000Y-71500000D03*
X146930000Y-71500000D03*
X144390000Y-71500000D03*
X141850000Y-71500000D03*
X139310000Y-71500000D03*
X136770000Y-71500000D03*
X134230000Y-71500000D03*
X131690000Y-71500000D03*
X129150000Y-71500000D03*
X126610000Y-71500000D03*
X124070000Y-71500000D03*
X124070000Y-89280000D03*
X126610000Y-89280000D03*
X129150000Y-89280000D03*
X131690000Y-89280000D03*
X134230000Y-89280000D03*
X136770000Y-89280000D03*
X139310000Y-89280000D03*
X141850000Y-89280000D03*
X144390000Y-89280000D03*
X146930000Y-89280000D03*
X149470000Y-89280000D03*
X152010000Y-89280000D03*
X154550000Y-89280000D03*
X157090000Y-89280000D03*
X159630000Y-89280000D03*
X162170000Y-89280000D03*
X164710000Y-89280000D03*
X167250000Y-89280000D03*
X169790000Y-89280000D03*
X172330000Y-89280000D03*
%TD*%
D20*
%TO.C,J3*%
X105500000Y-97100000D03*
X107000000Y-97100000D03*
X108500000Y-97100000D03*
X110000000Y-97100000D03*
X111500000Y-97100000D03*
D21*
X113500000Y-100700000D03*
X103500000Y-100700000D03*
%TD*%
M02*
