%TF.GenerationSoftware,KiCad,Pcbnew,(6.0.1)*%
%TF.CreationDate,2022-04-16T19:03:55-06:00*%
%TF.ProjectId,PicoFlasher_Breakout_Board_V1.4,5069636f-466c-4617-9368-65725f427265,rev?*%
%TF.SameCoordinates,Original*%
%TF.FileFunction,Copper,L1,Top*%
%TF.FilePolarity,Positive*%
%FSLAX46Y46*%
G04 Gerber Fmt 4.6, Leading zero omitted, Abs format (unit mm)*
G04 Created by KiCad (PCBNEW (6.0.1)) date 2022-04-16 19:03:55*
%MOMM*%
%LPD*%
G01*
G04 APERTURE LIST*
G04 Aperture macros list*
%AMRoundRect*
0 Rectangle with rounded corners*
0 $1 Rounding radius*
0 $2 $3 $4 $5 $6 $7 $8 $9 X,Y pos of 4 corners*
0 Add a 4 corners polygon primitive as box body*
4,1,4,$2,$3,$4,$5,$6,$7,$8,$9,$2,$3,0*
0 Add four circle primitives for the rounded corners*
1,1,$1+$1,$2,$3*
1,1,$1+$1,$4,$5*
1,1,$1+$1,$6,$7*
1,1,$1+$1,$8,$9*
0 Add four rect primitives between the rounded corners*
20,1,$1+$1,$2,$3,$4,$5,0*
20,1,$1+$1,$4,$5,$6,$7,0*
20,1,$1+$1,$6,$7,$8,$9,0*
20,1,$1+$1,$8,$9,$2,$3,0*%
G04 Aperture macros list end*
%TA.AperFunction,SMDPad,CuDef*%
%ADD10RoundRect,0.250000X-0.450000X0.325000X-0.450000X-0.325000X0.450000X-0.325000X0.450000X0.325000X0*%
%TD*%
%TA.AperFunction,SMDPad,CuDef*%
%ADD11R,0.700000X2.500000*%
%TD*%
%TA.AperFunction,SMDPad,CuDef*%
%ADD12R,1.100000X1.900000*%
%TD*%
%TA.AperFunction,SMDPad,CuDef*%
%ADD13R,1.600000X3.200000*%
%TD*%
%TA.AperFunction,SMDPad,CuDef*%
%ADD14R,0.800000X0.500000*%
%TD*%
%TA.AperFunction,SMDPad,CuDef*%
%ADD15R,0.800000X0.400000*%
%TD*%
%TA.AperFunction,ComponentPad*%
%ADD16O,1.600000X2.000000*%
%TD*%
%TA.AperFunction,ComponentPad*%
%ADD17C,1.800000*%
%TD*%
%TA.AperFunction,ViaPad*%
%ADD18C,0.800000*%
%TD*%
%TA.AperFunction,Conductor*%
%ADD19C,0.250000*%
%TD*%
%TA.AperFunction,Conductor*%
%ADD20C,0.500000*%
%TD*%
G04 APERTURE END LIST*
D10*
%TO.P,D3,1,K*%
%TO.N,Net-(D3-Pad1)*%
X98750000Y-97700000D03*
%TO.P,D3,2,A*%
%TO.N,eMMC*%
X98750000Y-99750000D03*
%TD*%
%TO.P,D2,1,K*%
%TO.N,Net-(D2-Pad1)*%
X96550000Y-97700000D03*
%TO.P,D2,2,A*%
%TO.N,SPI*%
X96550000Y-99750000D03*
%TD*%
D11*
%TO.P,J1,1,1*%
%TO.N,S-Green*%
X152200000Y-97100000D03*
%TO.P,J1,2,2*%
%TO.N,unconnected-(J1-Pad2)*%
X153700000Y-97100000D03*
%TO.P,J1,3,3*%
%TO.N,E-Red*%
X155200000Y-97100000D03*
%TO.P,J1,4,4*%
%TO.N,E-Orange*%
X156700000Y-97100000D03*
%TO.P,J1,5,5*%
%TO.N,E-Yellow*%
X158200000Y-97100000D03*
%TO.P,J1,6,6*%
%TO.N,GND*%
X159700000Y-97100000D03*
%TO.P,J1,7,7*%
%TO.N,E-Blue*%
X161200000Y-97100000D03*
%TO.P,J1,8,8*%
%TO.N,unconnected-(J1-Pad8)*%
X162700000Y-97100000D03*
%TO.P,J1,9,9*%
%TO.N,unconnected-(J1-Pad9)*%
X164200000Y-97100000D03*
D12*
%TO.P,J1,10*%
%TO.N,N/C*%
X150250000Y-100700000D03*
%TO.P,J1,11*%
X166150000Y-100700000D03*
%TD*%
D13*
%TO.P,U1e,1,GP0*%
%TO.N,OLED Data*%
X172280000Y-66560000D03*
%TO.P,U1e,2,GP1*%
%TO.N,OLED Clock*%
X169740000Y-66560000D03*
%TO.P,U1e,3,GND_1*%
%TO.N,GND*%
X167200000Y-66560000D03*
%TO.P,U1e,4,GP2*%
%TO.N,Debug*%
X164660000Y-66560000D03*
%TO.P,U1e,5,GP3*%
%TO.N,SPI*%
X162120000Y-66560000D03*
%TO.P,U1e,6,GP4*%
%TO.N,eMMC*%
X159580000Y-66560000D03*
%TO.P,U1e,7,GP5*%
%TO.N,unconnected-(U1-Pad7)*%
X157040000Y-66560000D03*
%TO.P,U1e,8,GND_2*%
%TO.N,GND*%
X154500000Y-66560000D03*
%TO.P,U1e,9,GP6*%
%TO.N,E-Red*%
X151960000Y-66560000D03*
%TO.P,U1e,10,GP7*%
%TO.N,E-Orange*%
X149420000Y-66560000D03*
%TO.P,U1e,11,GP8*%
%TO.N,E-Blue*%
X146880000Y-66560000D03*
%TO.P,U1e,12,GP9*%
%TO.N,E-Yellow*%
X144340000Y-66560000D03*
%TO.P,U1e,13,GND_3*%
%TO.N,GND*%
X141800000Y-66560000D03*
%TO.P,U1e,14,GP10*%
%TO.N,unconnected-(U1-Pad14)*%
X139260000Y-66560000D03*
%TO.P,U1e,15,GP11*%
%TO.N,A_Red*%
X136720000Y-66560000D03*
%TO.P,U1e,16,GP12*%
%TO.N,A_Black*%
X134180000Y-66560000D03*
%TO.P,U1e,17,GP13*%
%TO.N,A_Yellow*%
X131640000Y-66560000D03*
%TO.P,U1e,18,GND_4*%
%TO.N,GND*%
X129100000Y-66560000D03*
%TO.P,U1e,19,GP14*%
%TO.N,A_Green*%
X126560000Y-66560000D03*
%TO.P,U1e,20,GP15*%
%TO.N,A_Blue*%
X124020000Y-66560000D03*
%TO.P,U1e,21,GP16*%
%TO.N,S-Orange*%
X124020000Y-85940000D03*
%TO.P,U1e,22,GP17*%
%TO.N,S-Brown*%
X126560000Y-85940000D03*
%TO.P,U1e,23,GND_5*%
%TO.N,GND*%
X129100000Y-85940000D03*
%TO.P,U1e,24,GP18*%
%TO.N,S-Red*%
X131640000Y-85940000D03*
%TO.P,U1e,25,GP19*%
%TO.N,S-Black*%
X134180000Y-85940000D03*
%TO.P,U1e,26,GP20*%
%TO.N,S-Blue*%
X136720000Y-85940000D03*
%TO.P,U1e,27,GP21*%
%TO.N,E-Green*%
X139260000Y-85940000D03*
%TO.P,U1e,28,GND_6*%
%TO.N,GND*%
X141800000Y-85940000D03*
%TO.P,U1e,29,GP22*%
%TO.N,unconnected-(U1-Pad29)*%
X144340000Y-85940000D03*
%TO.P,U1e,30,RUN*%
%TO.N,unconnected-(U1-Pad30)*%
X146880000Y-85940000D03*
%TO.P,U1e,31,GP26_A0*%
%TO.N,unconnected-(U1-Pad31)*%
X149420000Y-85940000D03*
%TO.P,U1e,32,GP27_A1*%
%TO.N,unconnected-(U1-Pad32)*%
X151960000Y-85940000D03*
%TO.P,U1e,33,GND_7*%
%TO.N,GND*%
X154500000Y-85940000D03*
%TO.P,U1e,34,GP28_A2*%
%TO.N,unconnected-(U1-Pad34)*%
X157040000Y-85940000D03*
%TO.P,U1e,35,ADC_VREF*%
%TO.N,unconnected-(U1-Pad35)*%
X159580000Y-85940000D03*
%TO.P,U1e,36,3V3(OUT)*%
%TO.N,3.3 Out*%
X162120000Y-85940000D03*
%TO.P,U1e,37,3V3_EN*%
%TO.N,unconnected-(U1-Pad37)*%
X164660000Y-85940000D03*
%TO.P,U1e,38,GND_8*%
%TO.N,GND*%
X167200000Y-85940000D03*
%TO.P,U1e,39,VSYS*%
%TO.N,unconnected-(U1-Pad39)*%
X169740000Y-85940000D03*
%TO.P,U1e,40,VBUS*%
%TO.N,unconnected-(U1-Pad40)*%
X172280000Y-85940000D03*
%TD*%
D14*
%TO.P,RN1,1*%
%TO.N,Net-(D1-Pad1)*%
X92150000Y-99950000D03*
D15*
%TO.P,RN1,2*%
%TO.N,Net-(D2-Pad1)*%
X92150000Y-99150000D03*
%TO.P,RN1,3*%
%TO.N,Net-(D3-Pad1)*%
X92150000Y-98350000D03*
D14*
%TO.P,RN1,4*%
%TO.N,Net-(D4-Pad1)*%
X92150000Y-97550000D03*
%TO.P,RN1,5*%
%TO.N,GND*%
X90350000Y-97550000D03*
D15*
%TO.P,RN1,6*%
X90350000Y-98350000D03*
%TO.P,RN1,7*%
X90350000Y-99150000D03*
D14*
%TO.P,RN1,8*%
X90350000Y-99950000D03*
%TD*%
D10*
%TO.P,D4,1,K*%
%TO.N,Net-(D4-Pad1)*%
X101050000Y-97700000D03*
%TO.P,D4,2,A*%
%TO.N,3.3 Out*%
X101050000Y-99750000D03*
%TD*%
D16*
%TO.P,U2,1,GND*%
%TO.N,GND*%
X100630000Y-68150000D03*
%TO.P,U2,2,VCC*%
%TO.N,3.3 Out*%
X103170000Y-68150000D03*
%TO.P,U2,3,SCL*%
%TO.N,OLED Clock*%
X105710000Y-68150000D03*
%TO.P,U2,4,SDA*%
%TO.N,OLED Data*%
X108250000Y-68150000D03*
%TD*%
D11*
%TO.P,J2,1,1*%
%TO.N,S-Blue*%
X133500000Y-97100000D03*
%TO.P,J2,2,2*%
%TO.N,S-Green*%
X135000000Y-97100000D03*
%TO.P,J2,3,3*%
%TO.N,GND*%
X136500000Y-97100000D03*
%TO.P,J2,4,4*%
%TO.N,S-Orange*%
X138000000Y-97100000D03*
%TO.P,J2,5,5*%
%TO.N,S-Red*%
X139500000Y-97100000D03*
%TO.P,J2,6,6*%
%TO.N,S-Brown*%
X141000000Y-97100000D03*
%TO.P,J2,7,7*%
%TO.N,S-Black*%
X142500000Y-97100000D03*
D12*
%TO.P,J2,8*%
%TO.N,N/C*%
X144450000Y-100700000D03*
%TO.P,J2,9*%
X131550000Y-100700000D03*
%TD*%
D10*
%TO.P,D1,1,K*%
%TO.N,Net-(D1-Pad1)*%
X94375000Y-97700000D03*
%TO.P,D1,2,A*%
%TO.N,Debug*%
X94375000Y-99750000D03*
%TD*%
D17*
%TO.P,U1,1,GP0*%
%TO.N,OLED Data*%
X172330000Y-71500000D03*
%TO.P,U1,2,GP1*%
%TO.N,OLED Clock*%
X169790000Y-71500000D03*
%TO.P,U1,3,GND_1*%
%TO.N,GND*%
X167250000Y-71500000D03*
%TO.P,U1,4,GP2*%
%TO.N,Debug*%
X164710000Y-71500000D03*
%TO.P,U1,5,GP3*%
%TO.N,SPI*%
X162170000Y-71500000D03*
%TO.P,U1,6,GP4*%
%TO.N,eMMC*%
X159630000Y-71500000D03*
%TO.P,U1,7,GP5*%
%TO.N,unconnected-(U1-Pad7)*%
X157090000Y-71500000D03*
%TO.P,U1,8,GND_2*%
%TO.N,GND*%
X154550000Y-71500000D03*
%TO.P,U1,9,GP6*%
%TO.N,E-Red*%
X152010000Y-71500000D03*
%TO.P,U1,10,GP7*%
%TO.N,E-Orange*%
X149470000Y-71500000D03*
%TO.P,U1,11,GP8*%
%TO.N,E-Blue*%
X146930000Y-71500000D03*
%TO.P,U1,12,GP9*%
%TO.N,E-Yellow*%
X144390000Y-71500000D03*
%TO.P,U1,13,GND_3*%
%TO.N,GND*%
X141850000Y-71500000D03*
%TO.P,U1,14,GP10*%
%TO.N,unconnected-(U1-Pad14)*%
X139310000Y-71500000D03*
%TO.P,U1,15,GP11*%
%TO.N,A_Red*%
X136770000Y-71500000D03*
%TO.P,U1,16,GP12*%
%TO.N,A_Black*%
X134230000Y-71500000D03*
%TO.P,U1,17,GP13*%
%TO.N,A_Yellow*%
X131690000Y-71500000D03*
%TO.P,U1,18,GND_4*%
%TO.N,GND*%
X129150000Y-71500000D03*
%TO.P,U1,19,GP14*%
%TO.N,A_Green*%
X126610000Y-71500000D03*
%TO.P,U1,20,GP15*%
%TO.N,A_Blue*%
X124070000Y-71500000D03*
%TO.P,U1,21,GP16*%
%TO.N,S-Orange*%
X124070000Y-89280000D03*
%TO.P,U1,22,GP17*%
%TO.N,S-Brown*%
X126610000Y-89280000D03*
%TO.P,U1,23,GND_5*%
%TO.N,GND*%
X129150000Y-89280000D03*
%TO.P,U1,24,GP18*%
%TO.N,S-Red*%
X131690000Y-89280000D03*
%TO.P,U1,25,GP19*%
%TO.N,S-Black*%
X134230000Y-89280000D03*
%TO.P,U1,26,GP20*%
%TO.N,S-Blue*%
X136770000Y-89280000D03*
%TO.P,U1,27,GP21*%
%TO.N,S-Green*%
X139310000Y-89280000D03*
%TO.P,U1,28,GND_6*%
%TO.N,GND*%
X141850000Y-89280000D03*
%TO.P,U1,29,GP22*%
%TO.N,unconnected-(U1-Pad29)*%
X144390000Y-89280000D03*
%TO.P,U1,30,RUN*%
%TO.N,unconnected-(U1-Pad30)*%
X146930000Y-89280000D03*
%TO.P,U1,31,GP26_A0*%
%TO.N,unconnected-(U1-Pad31)*%
X149470000Y-89280000D03*
%TO.P,U1,32,GP27_A1*%
%TO.N,unconnected-(U1-Pad32)*%
X152010000Y-89280000D03*
%TO.P,U1,33,GND_7*%
%TO.N,GND*%
X154550000Y-89280000D03*
%TO.P,U1,34,GP28_A2*%
%TO.N,unconnected-(U1-Pad34)*%
X157090000Y-89280000D03*
%TO.P,U1,35,ADC_VREF*%
%TO.N,unconnected-(U1-Pad35)*%
X159630000Y-89280000D03*
%TO.P,U1,36,3V3(OUT)*%
%TO.N,3.3 Out*%
X162170000Y-89280000D03*
%TO.P,U1,37,3V3_EN*%
%TO.N,unconnected-(U1-Pad37)*%
X164710000Y-89280000D03*
%TO.P,U1,38,GND_8*%
%TO.N,GND*%
X167250000Y-89280000D03*
%TO.P,U1,39,VSYS*%
%TO.N,unconnected-(U1-Pad39)*%
X169790000Y-89280000D03*
%TO.P,U1,40,VBUS*%
%TO.N,unconnected-(U1-Pad40)*%
X172330000Y-89280000D03*
%TD*%
D11*
%TO.P,J3,1,Pin_1*%
%TO.N,A_Red*%
X105500000Y-97100000D03*
%TO.P,J3,2,Pin_2*%
%TO.N,A_Black*%
X107000000Y-97100000D03*
%TO.P,J3,3,Pin_3*%
%TO.N,A_Yellow*%
X108500000Y-97100000D03*
%TO.P,J3,4,Pin_4*%
%TO.N,A_Green*%
X110000000Y-97100000D03*
%TO.P,J3,5,Pin_5*%
%TO.N,A_Blue*%
X111500000Y-97100000D03*
D12*
%TO.P,J3,6*%
%TO.N,N/C*%
X113500000Y-100700000D03*
%TO.P,J3,7*%
X103500000Y-100700000D03*
%TD*%
D18*
%TO.N,S-Blue*%
X134250000Y-92577571D03*
%TO.N,GND*%
X115500000Y-100600000D03*
X167800000Y-100800000D03*
X133300000Y-100800000D03*
X94750000Y-94250000D03*
X160875000Y-92275000D03*
X122700000Y-82400000D03*
X141750000Y-75650000D03*
X152300000Y-100700000D03*
X141750000Y-81350000D03*
X144800000Y-94500000D03*
X131500000Y-95500000D03*
X104800000Y-100700000D03*
X152300000Y-80150000D03*
X135750000Y-95000000D03*
X146800000Y-100700000D03*
%TD*%
D19*
%TO.N,Net-(D1-Pad1)*%
X92150000Y-99950000D02*
X92587506Y-99950000D01*
X94550000Y-97999022D02*
X94550000Y-97700000D01*
X94375000Y-98162506D02*
X94375000Y-97700000D01*
X92587506Y-99950000D02*
X94375000Y-98162506D01*
%TO.N,Net-(D2-Pad1)*%
X95700480Y-96800480D02*
X93687027Y-96800480D01*
X96550000Y-97700000D02*
X96550000Y-97650000D01*
X92560718Y-99150000D02*
X92150000Y-99150000D01*
X93350000Y-98360718D02*
X92560718Y-99150000D01*
X93350000Y-97137506D02*
X93350000Y-98360718D01*
X96550000Y-97650000D02*
X95700480Y-96800480D01*
X93687027Y-96800480D02*
X93581253Y-96906253D01*
X93581253Y-96906253D02*
X93350000Y-97137506D01*
%TO.N,Net-(D3-Pad1)*%
X92875480Y-96976309D02*
X92875480Y-98199520D01*
X97350480Y-96300480D02*
X93551309Y-96300480D01*
X92875480Y-98199520D02*
X92700000Y-98375000D01*
X98750000Y-97700000D02*
X97350480Y-96300480D01*
X92700000Y-98375000D02*
X92175000Y-98375000D01*
X92175000Y-98375000D02*
X92150000Y-98350000D01*
X93551309Y-96300480D02*
X92875480Y-96976309D01*
%TO.N,Net-(D4-Pad1)*%
X99200960Y-95850960D02*
X93349040Y-95850960D01*
X101050000Y-97700000D02*
X99200960Y-95850960D01*
X93349040Y-95850960D02*
X92150000Y-97050000D01*
X92150000Y-97050000D02*
X92150000Y-97550000D01*
%TO.N,E-Yellow*%
X153325489Y-82425489D02*
X153325489Y-89925489D01*
X155100978Y-99250000D02*
X157385718Y-99250000D01*
X144340000Y-65060000D02*
X145300000Y-64100000D01*
X145300000Y-64100000D02*
X147469022Y-64100000D01*
X154500000Y-91100000D02*
X154500000Y-98649022D01*
X148056511Y-65293489D02*
X148056511Y-77156511D01*
X147469022Y-64100000D02*
X148075000Y-64705978D01*
X148056511Y-77156511D02*
X153325489Y-82425489D01*
X144392000Y-66612000D02*
X144340000Y-66560000D01*
X148075000Y-65275000D02*
X148056511Y-65293489D01*
X144340000Y-66560000D02*
X144340000Y-65060000D01*
X157385718Y-99250000D02*
X158200000Y-98435718D01*
X154500000Y-98649022D02*
X155100978Y-99250000D01*
X148075000Y-64705978D02*
X148075000Y-65275000D01*
X153325489Y-89925489D02*
X154500000Y-91100000D01*
X144392000Y-71540000D02*
X144392000Y-66612000D01*
X158200000Y-98435718D02*
X158200000Y-97100000D01*
%TO.N,E-Red*%
X158405489Y-84256467D02*
X158405489Y-89594511D01*
X158200000Y-89800000D02*
X158405489Y-89594511D01*
X151960000Y-66560000D02*
X152012000Y-66612000D01*
X157374511Y-98625489D02*
X157374511Y-93875489D01*
X155325000Y-98750000D02*
X157250000Y-98750000D01*
X158250000Y-93000000D02*
X158250000Y-89750000D01*
X155200000Y-98625000D02*
X155325000Y-98750000D01*
X155200000Y-97100000D02*
X155200000Y-98625000D01*
X157250000Y-98750000D02*
X157374511Y-98625489D01*
X152012000Y-77862978D02*
X158405489Y-84256467D01*
X157374511Y-93875489D02*
X158250000Y-93000000D01*
X152012000Y-66612000D02*
X152012000Y-77862978D01*
X158250000Y-89750000D02*
X158405489Y-89594511D01*
%TO.N,E-Orange*%
X150700000Y-77186696D02*
X155865489Y-82352185D01*
X149420000Y-66560000D02*
X149472000Y-66612000D01*
X149472000Y-71540000D02*
X150700000Y-72768000D01*
X156700000Y-91800000D02*
X156700000Y-97100000D01*
X155865489Y-82352185D02*
X155865489Y-89634511D01*
X155865489Y-89787210D02*
X155865489Y-89634511D01*
X155865489Y-90965489D02*
X156700000Y-91800000D01*
X149472000Y-66612000D02*
X149472000Y-71540000D01*
X150700000Y-72768000D02*
X150700000Y-77186696D01*
X155865489Y-89634511D02*
X155865489Y-90965489D01*
%TO.N,E-Blue*%
X153000000Y-92600000D02*
X153000000Y-98500000D01*
X146932000Y-80011022D02*
X150694511Y-83773533D01*
X146932000Y-66612000D02*
X146932000Y-80011022D01*
X160050480Y-99699520D02*
X161200000Y-98550000D01*
X150694511Y-90294511D02*
X153000000Y-92600000D01*
X153000000Y-98500000D02*
X154199520Y-99699520D01*
X161200000Y-98550000D02*
X161200000Y-97100000D01*
X146880000Y-66560000D02*
X146932000Y-66612000D01*
X150694511Y-83773533D02*
X150694511Y-90294511D01*
X154199520Y-99699520D02*
X160050480Y-99699520D01*
%TO.N,S-Orange*%
X124070000Y-89280000D02*
X126643071Y-91853071D01*
X124020000Y-85430978D02*
X124020000Y-85940000D01*
X138000000Y-93000000D02*
X138000000Y-97100000D01*
X136853071Y-91853071D02*
X138000000Y-93000000D01*
X124072000Y-85992000D02*
X124020000Y-85940000D01*
X124070000Y-85990000D02*
X124020000Y-85940000D01*
X124070000Y-89280000D02*
X124070000Y-85990000D01*
X126643071Y-91853071D02*
X136853071Y-91853071D01*
%TO.N,S-Brown*%
X126610000Y-89280000D02*
X126610000Y-85990000D01*
X141000000Y-97100000D02*
X141000000Y-92385718D01*
X126610000Y-85990000D02*
X126560000Y-85940000D01*
X133000000Y-89781721D02*
X133000000Y-84000000D01*
X126560000Y-85140000D02*
X126560000Y-85940000D01*
X134172309Y-90954031D02*
X133000000Y-89781721D01*
X141000000Y-92385718D02*
X139568313Y-90954031D01*
X126612000Y-85992000D02*
X126560000Y-85940000D01*
X127950000Y-83750000D02*
X126560000Y-85140000D01*
X133000000Y-84000000D02*
X132750000Y-83750000D01*
X139568313Y-90954031D02*
X134172309Y-90954031D01*
X132750000Y-83750000D02*
X127950000Y-83750000D01*
%TO.N,S-Red*%
X132910000Y-90500000D02*
X133000000Y-90500000D01*
X131690000Y-85990000D02*
X131640000Y-85940000D01*
X139500000Y-92750000D02*
X139500000Y-97100000D01*
X131692000Y-85992000D02*
X131640000Y-85940000D01*
X133000000Y-90500000D02*
X133903551Y-91403551D01*
X138153551Y-91403551D02*
X139500000Y-92750000D01*
X131690000Y-89280000D02*
X131690000Y-85990000D01*
X133903551Y-91403551D02*
X138153551Y-91403551D01*
X131690000Y-89280000D02*
X132910000Y-90500000D01*
%TO.N,S-Black*%
X136254511Y-90504511D02*
X140707072Y-90504511D01*
X142500000Y-92300000D02*
X142500000Y-97100000D01*
X134232000Y-85992000D02*
X134180000Y-85940000D01*
X141800000Y-91597439D02*
X141800000Y-91600000D01*
X141800000Y-91600000D02*
X142500000Y-92300000D01*
X136250000Y-90500000D02*
X136254511Y-90504511D01*
X140707072Y-90504511D02*
X141800000Y-91597439D01*
X135450000Y-90500000D02*
X136250000Y-90500000D01*
X134230000Y-85990000D02*
X134180000Y-85940000D01*
X134230000Y-89280000D02*
X135450000Y-90500000D01*
X134230000Y-89280000D02*
X134230000Y-85990000D01*
%TO.N,S-Blue*%
X133500000Y-98000000D02*
X133500000Y-97100000D01*
X136770000Y-85990000D02*
X136720000Y-85940000D01*
X136770000Y-89280000D02*
X136770000Y-85990000D01*
X136772000Y-85992000D02*
X136720000Y-85940000D01*
X134250000Y-94750000D02*
X134250000Y-92577571D01*
X133500000Y-95500000D02*
X134250000Y-94750000D01*
X133500000Y-95500000D02*
X133500000Y-97100000D01*
%TO.N,GND*%
X154552000Y-85992000D02*
X154500000Y-85940000D01*
D20*
X154550000Y-85990000D02*
X154500000Y-85940000D01*
X154550000Y-89280000D02*
X154550000Y-85990000D01*
D19*
X154552000Y-71540000D02*
X154552000Y-66612000D01*
X129152000Y-66612000D02*
X129100000Y-66560000D01*
X141852000Y-66612000D02*
X141800000Y-66560000D01*
X129152000Y-71540000D02*
X129152000Y-66612000D01*
X141852000Y-71540000D02*
X141852000Y-66612000D01*
X136500000Y-97100000D02*
X136500000Y-95750000D01*
D20*
X141850000Y-89280000D02*
X141850000Y-85990000D01*
D19*
X129130000Y-71562000D02*
X129152000Y-71540000D01*
D20*
X129150000Y-89280000D02*
X129150000Y-85990000D01*
X141850000Y-85990000D02*
X141800000Y-85940000D01*
D19*
X141852000Y-85992000D02*
X141800000Y-85940000D01*
D20*
X129150000Y-85990000D02*
X129100000Y-85940000D01*
D19*
X136500000Y-95750000D02*
X135750000Y-95000000D01*
X154552000Y-66612000D02*
X154500000Y-66560000D01*
X129152000Y-85992000D02*
X129100000Y-85940000D01*
%TO.N,Debug*%
X94500000Y-99750000D02*
X94375000Y-99750000D01*
X173137489Y-101137489D02*
X172937489Y-101337489D01*
X175598080Y-76848080D02*
X175598080Y-98676899D01*
X164660000Y-71488000D02*
X166672000Y-73500000D01*
X97199520Y-102449520D02*
X171825458Y-102449520D01*
X172250000Y-73500000D02*
X175598080Y-76848080D01*
X175598080Y-98676899D02*
X173137489Y-101137489D01*
X173137489Y-101137489D02*
X172726419Y-101548560D01*
X95875000Y-101125000D02*
X94500000Y-99750000D01*
X164660000Y-66560000D02*
X164660000Y-71488000D01*
X166672000Y-73500000D02*
X172250000Y-73500000D01*
X171825458Y-102449520D02*
X172937489Y-101337489D01*
X95875000Y-101125000D02*
X97199520Y-102449520D01*
%TO.N,eMMC*%
X159632000Y-71540000D02*
X159632000Y-66612000D01*
X131949520Y-99149520D02*
X113249520Y-99149520D01*
X113249520Y-99149520D02*
X111621916Y-99149520D01*
X173654024Y-99349520D02*
X174699040Y-98304504D01*
X153938803Y-100724520D02*
X160325480Y-100724520D01*
X162592000Y-74500000D02*
X159632000Y-71540000D01*
X171946436Y-74500000D02*
X162592000Y-74500000D01*
X133828566Y-99600000D02*
X143571435Y-99600000D01*
X107650480Y-99600000D02*
X107300000Y-99249520D01*
X102100000Y-100100000D02*
X102100000Y-100287493D01*
X102100000Y-100287493D02*
X101286533Y-101100960D01*
X159632000Y-66612000D02*
X159580000Y-66560000D01*
X132800000Y-99149520D02*
X131949520Y-99149520D01*
X161700480Y-99349520D02*
X173654024Y-99349520D01*
X111621916Y-99149520D02*
X111171436Y-99600000D01*
X132150480Y-99149520D02*
X133378086Y-99149520D01*
X107300000Y-99249520D02*
X102950480Y-99249520D01*
X111171436Y-99600000D02*
X107650480Y-99600000D01*
X150829062Y-99249520D02*
X151153093Y-99573551D01*
X143921915Y-99249520D02*
X150829062Y-99249520D01*
X131949520Y-99149520D02*
X132150480Y-99149520D01*
X143571435Y-99600000D02*
X143921915Y-99249520D01*
X100100960Y-101100960D02*
X98750000Y-99750000D01*
X151153093Y-99573551D02*
X152787833Y-99573551D01*
X152787833Y-99573551D02*
X153938803Y-100724520D01*
X101286533Y-101100960D02*
X100100960Y-101100960D01*
X133378086Y-99149520D02*
X133828566Y-99600000D01*
X102950480Y-99249520D02*
X102100000Y-100100000D01*
X174699040Y-98304504D02*
X174699040Y-77252604D01*
X132150480Y-99149520D02*
X132913802Y-99149520D01*
X160325480Y-100724520D02*
X161700480Y-99349520D01*
X174699040Y-77252604D02*
X171946436Y-74500000D01*
%TO.N,SPI*%
X162172000Y-66612000D02*
X162172000Y-71540000D01*
X175148560Y-98490702D02*
X171639262Y-102000000D01*
X175148560Y-77066406D02*
X175148560Y-98490702D01*
X162120000Y-66560000D02*
X162172000Y-66612000D01*
X171639262Y-102000000D02*
X98800000Y-102000000D01*
X162172000Y-71540000D02*
X164632000Y-74000000D01*
X172082154Y-74000000D02*
X175148560Y-77066406D01*
X98800000Y-102000000D02*
X96550000Y-99750000D01*
X164632000Y-74000000D02*
X172082154Y-74000000D01*
%TO.N,OLED Data*%
X172332000Y-71540000D02*
X172332000Y-66612000D01*
X172332000Y-66612000D02*
X172280000Y-66560000D01*
%TO.N,OLED Clock*%
X169792000Y-66612000D02*
X169740000Y-66560000D01*
X169792000Y-71540000D02*
X169792000Y-66612000D01*
%TO.N,3.3 Out*%
X133564283Y-98700000D02*
X111435718Y-98700000D01*
X143386197Y-99149520D02*
X134013803Y-99149520D01*
X107835717Y-99149520D02*
X107486197Y-98800000D01*
X111435718Y-98700000D02*
X110986198Y-99149520D01*
X110986198Y-99149520D02*
X107835717Y-99149520D01*
X160125000Y-100275000D02*
X154125000Y-100275000D01*
D20*
X162120000Y-89230000D02*
X162170000Y-89280000D01*
D19*
X102000000Y-98800000D02*
X101050000Y-99750000D01*
X162025489Y-98374511D02*
X160125000Y-100275000D01*
X134013803Y-99149520D02*
X133564283Y-98700000D01*
X143735718Y-98800000D02*
X143386197Y-99149520D01*
D20*
X162120000Y-85940000D02*
X162120000Y-89230000D01*
D19*
X154125000Y-100275000D02*
X152650000Y-98800000D01*
X152650000Y-98800000D02*
X143735718Y-98800000D01*
X162170000Y-89280000D02*
X162025489Y-89424511D01*
X162025489Y-89424511D02*
X162025489Y-98374511D01*
X107486197Y-98800000D02*
X102000000Y-98800000D01*
%TO.N,A_Red*%
X136720000Y-66560000D02*
X136720000Y-64970000D01*
X108550480Y-87313803D02*
X108550480Y-92550480D01*
X136772000Y-71540000D02*
X136772000Y-66612000D01*
X135486449Y-63736449D02*
X122492115Y-63736449D01*
X105500000Y-97081500D02*
X105500000Y-95600960D01*
X105500000Y-95600960D02*
X108550480Y-92550480D01*
X122492115Y-63736449D02*
X120250000Y-65978565D01*
X120250000Y-75614282D02*
X108550480Y-87313803D01*
X136772000Y-66612000D02*
X136720000Y-66560000D01*
X120250000Y-65978565D02*
X120250000Y-75614282D01*
X136720000Y-64970000D02*
X135486449Y-63736449D01*
%TO.N,A_Black*%
X134232000Y-66612000D02*
X134180000Y-66560000D01*
X107000000Y-95200000D02*
X109000000Y-93200000D01*
X107000000Y-97081500D02*
X107000000Y-95200000D01*
X132611429Y-64185969D02*
X122678313Y-64185969D01*
X109000000Y-87500000D02*
X109000000Y-93200000D01*
X120750000Y-75750000D02*
X109000000Y-87500000D01*
X134180000Y-66560000D02*
X134180000Y-65754540D01*
X134180000Y-65754540D02*
X132611429Y-64185969D01*
X120750000Y-66114283D02*
X120750000Y-75750000D01*
X134232000Y-71540000D02*
X134232000Y-66612000D01*
X122678313Y-64185969D02*
X120750000Y-66114283D01*
%TO.N,A_Yellow*%
X131640000Y-65890000D02*
X130385489Y-64635489D01*
X108500000Y-94699040D02*
X109449520Y-93749520D01*
X131640000Y-66560000D02*
X131640000Y-65890000D01*
X108500000Y-97081500D02*
X108500000Y-94699040D01*
X109449520Y-87686198D02*
X109449520Y-93749520D01*
X122864511Y-64635489D02*
X121250000Y-66250000D01*
X131692000Y-71540000D02*
X131692000Y-66612000D01*
X121250000Y-75885717D02*
X109449520Y-87686198D01*
X121250000Y-66250000D02*
X121250000Y-75885717D01*
X130385489Y-64635489D02*
X122864511Y-64635489D01*
X131692000Y-66612000D02*
X131640000Y-66560000D01*
%TO.N,A_Green*%
X126612000Y-66612000D02*
X126560000Y-66560000D01*
X110348560Y-88058594D02*
X126612000Y-71795154D01*
X126612000Y-71795154D02*
X126612000Y-66612000D01*
X110000000Y-94900000D02*
X110348560Y-94551440D01*
X110348560Y-94551440D02*
X110348560Y-88058594D01*
X110000000Y-97081500D02*
X110000000Y-94900000D01*
%TO.N,unconnected-(U1-Pad7)*%
X157092000Y-71540000D02*
X157092000Y-66612000D01*
X157092000Y-66612000D02*
X157040000Y-66560000D01*
%TO.N,unconnected-(U1-Pad14)*%
X139312000Y-66612000D02*
X139260000Y-66560000D01*
X139312000Y-71540000D02*
X139312000Y-66612000D01*
%TO.N,unconnected-(U1-Pad29)*%
X144392000Y-85992000D02*
X144340000Y-85940000D01*
X144390000Y-89280000D02*
X144390000Y-85990000D01*
X144390000Y-85990000D02*
X144340000Y-85940000D01*
%TO.N,unconnected-(U1-Pad30)*%
X146930000Y-89280000D02*
X146930000Y-85990000D01*
X146932000Y-85992000D02*
X146880000Y-85940000D01*
X146930000Y-85990000D02*
X146880000Y-85940000D01*
%TO.N,unconnected-(U1-Pad31)*%
X149472000Y-85992000D02*
X149420000Y-85940000D01*
X149470000Y-89280000D02*
X149470000Y-85990000D01*
X149470000Y-85990000D02*
X149420000Y-85940000D01*
%TO.N,unconnected-(U1-Pad32)*%
X152012000Y-85992000D02*
X151960000Y-85940000D01*
X152010000Y-85990000D02*
X151960000Y-85940000D01*
X152010000Y-89280000D02*
X152010000Y-85990000D01*
%TO.N,unconnected-(U1-Pad34)*%
X157092000Y-85992000D02*
X157040000Y-85940000D01*
X157090000Y-89280000D02*
X157090000Y-85990000D01*
X157090000Y-85990000D02*
X157040000Y-85940000D01*
%TO.N,unconnected-(U1-Pad35)*%
X159630000Y-89280000D02*
X159630000Y-85990000D01*
X159630000Y-85990000D02*
X159580000Y-85940000D01*
X159632000Y-85992000D02*
X159580000Y-85940000D01*
%TO.N,unconnected-(U1-Pad37)*%
X164710000Y-89280000D02*
X164710000Y-85990000D01*
X164710000Y-85990000D02*
X164660000Y-85940000D01*
X164712000Y-85992000D02*
X164660000Y-85940000D01*
%TO.N,unconnected-(U1-Pad39)*%
X169790000Y-85990000D02*
X169740000Y-85940000D01*
X169790000Y-89280000D02*
X169790000Y-85990000D01*
X169792000Y-85992000D02*
X169740000Y-85940000D01*
%TO.N,unconnected-(U1-Pad40)*%
X172330000Y-89280000D02*
X172330000Y-85990000D01*
X172332000Y-85992000D02*
X172280000Y-85940000D01*
X172330000Y-85990000D02*
X172280000Y-85940000D01*
%TO.N,A_Blue*%
X121750000Y-67500000D02*
X122690000Y-66560000D01*
X109899040Y-87872396D02*
X121750000Y-76021436D01*
X111500000Y-97081500D02*
X111500000Y-98000000D01*
X110800000Y-98700000D02*
X109500000Y-98700000D01*
X109300000Y-98500000D02*
X109300000Y-94600000D01*
X109500000Y-98700000D02*
X109300000Y-98500000D01*
X121750000Y-76021436D02*
X121750000Y-67500000D01*
X124072000Y-66612000D02*
X124020000Y-66560000D01*
X111500000Y-98000000D02*
X110800000Y-98700000D01*
X124072000Y-71540000D02*
X124072000Y-66612000D01*
X109300000Y-94600000D02*
X109899040Y-94000960D01*
X122690000Y-66560000D02*
X124020000Y-66560000D01*
X109899040Y-94000960D02*
X109899040Y-87872396D01*
%TO.N,S-Green*%
X152200000Y-97100000D02*
X152200000Y-94500000D01*
X142600000Y-90800000D02*
X142200000Y-90800000D01*
X138450000Y-98700000D02*
X135850978Y-98700000D01*
X139310000Y-89280000D02*
X139310000Y-85990000D01*
X142200000Y-90800000D02*
X143700000Y-92300000D01*
X135000000Y-97849022D02*
X135000000Y-97100000D01*
X150800000Y-93100000D02*
X150600000Y-92900000D01*
X143700000Y-92300000D02*
X143700000Y-98200000D01*
X141638279Y-90800000D02*
X142600000Y-90800000D01*
X150600000Y-92900000D02*
X148500000Y-90800000D01*
X135850978Y-98700000D02*
X135000000Y-97849022D01*
X143700000Y-98200000D02*
X143200000Y-98700000D01*
X152200000Y-94500000D02*
X150600000Y-92900000D01*
X148500000Y-90800000D02*
X142600000Y-90800000D01*
X143200000Y-98700000D02*
X138450000Y-98700000D01*
X139310000Y-89280000D02*
X140118279Y-89280000D01*
X139312000Y-85992000D02*
X139260000Y-85940000D01*
X140118279Y-89280000D02*
X141638279Y-90800000D01*
X139310000Y-85990000D02*
X139260000Y-85940000D01*
%TO.N,unconnected-(J1-Pad2)*%
X153700000Y-98000000D02*
X153700000Y-97100000D01*
%TD*%
%TA.AperFunction,Conductor*%
%TO.N,GND*%
G36*
X121088590Y-64028002D02*
G01*
X121135083Y-64081658D01*
X121145187Y-64151932D01*
X121115693Y-64216512D01*
X121109564Y-64223095D01*
X119857747Y-65474913D01*
X119849461Y-65482453D01*
X119842982Y-65486565D01*
X119837557Y-65492342D01*
X119796357Y-65536216D01*
X119793602Y-65539058D01*
X119773865Y-65558795D01*
X119771385Y-65561992D01*
X119763682Y-65571012D01*
X119733414Y-65603244D01*
X119729595Y-65610190D01*
X119729593Y-65610193D01*
X119723652Y-65620999D01*
X119712801Y-65637518D01*
X119700386Y-65653524D01*
X119697241Y-65660793D01*
X119697238Y-65660797D01*
X119682826Y-65694102D01*
X119677609Y-65704752D01*
X119656305Y-65743505D01*
X119654334Y-65751180D01*
X119654334Y-65751181D01*
X119651267Y-65763127D01*
X119644863Y-65781831D01*
X119636819Y-65800420D01*
X119635580Y-65808243D01*
X119635577Y-65808253D01*
X119629901Y-65844089D01*
X119627495Y-65855709D01*
X119616500Y-65898535D01*
X119616500Y-65918789D01*
X119614949Y-65938499D01*
X119611780Y-65958508D01*
X119612526Y-65966400D01*
X119615941Y-66002526D01*
X119616500Y-66014384D01*
X119616500Y-75299688D01*
X119596498Y-75367809D01*
X119579595Y-75388783D01*
X108158227Y-86810151D01*
X108149941Y-86817691D01*
X108143462Y-86821803D01*
X108138037Y-86827580D01*
X108096837Y-86871454D01*
X108094082Y-86874296D01*
X108074345Y-86894033D01*
X108071865Y-86897230D01*
X108064162Y-86906250D01*
X108033894Y-86938482D01*
X108030075Y-86945428D01*
X108030073Y-86945431D01*
X108024132Y-86956237D01*
X108013281Y-86972756D01*
X108000866Y-86988762D01*
X107997721Y-86996031D01*
X107997718Y-86996035D01*
X107983306Y-87029340D01*
X107978089Y-87039990D01*
X107956785Y-87078743D01*
X107954814Y-87086418D01*
X107954814Y-87086419D01*
X107951747Y-87098365D01*
X107945343Y-87117069D01*
X107937299Y-87135658D01*
X107936060Y-87143481D01*
X107936057Y-87143491D01*
X107930381Y-87179327D01*
X107927975Y-87190947D01*
X107916980Y-87233773D01*
X107916980Y-87254027D01*
X107915429Y-87273737D01*
X107912260Y-87293746D01*
X107913006Y-87301638D01*
X107916421Y-87337764D01*
X107916980Y-87349622D01*
X107916980Y-92235885D01*
X107896978Y-92304006D01*
X107880075Y-92324980D01*
X105107747Y-95097308D01*
X105099461Y-95104848D01*
X105092982Y-95108960D01*
X105087557Y-95114737D01*
X105046357Y-95158611D01*
X105043602Y-95161453D01*
X105023865Y-95181190D01*
X105021385Y-95184387D01*
X105013682Y-95193407D01*
X104983414Y-95225639D01*
X104979595Y-95232585D01*
X104979593Y-95232588D01*
X104973652Y-95243394D01*
X104962801Y-95259913D01*
X104950386Y-95275919D01*
X104947241Y-95283188D01*
X104947238Y-95283192D01*
X104932826Y-95316497D01*
X104927609Y-95327147D01*
X104906305Y-95365900D01*
X104904332Y-95373585D01*
X104903348Y-95376070D01*
X104861761Y-95430513D01*
X104786739Y-95486739D01*
X104699385Y-95603295D01*
X104648255Y-95739684D01*
X104641500Y-95801866D01*
X104641500Y-98040500D01*
X104621498Y-98108621D01*
X104567842Y-98155114D01*
X104515500Y-98166500D01*
X102384500Y-98166500D01*
X102316379Y-98146498D01*
X102269886Y-98092842D01*
X102258500Y-98040500D01*
X102258500Y-97324600D01*
X102255545Y-97296121D01*
X102248238Y-97225692D01*
X102248237Y-97225688D01*
X102247526Y-97218834D01*
X102233704Y-97177403D01*
X102193868Y-97058002D01*
X102191550Y-97051054D01*
X102098478Y-96900652D01*
X101973303Y-96775695D01*
X101967072Y-96771854D01*
X101828968Y-96686725D01*
X101828966Y-96686724D01*
X101822738Y-96682885D01*
X101731223Y-96652531D01*
X101661389Y-96629368D01*
X101661387Y-96629368D01*
X101654861Y-96627203D01*
X101648025Y-96626503D01*
X101648022Y-96626502D01*
X101604969Y-96622091D01*
X101550400Y-96616500D01*
X100914595Y-96616500D01*
X100846474Y-96596498D01*
X100825500Y-96579595D01*
X99704612Y-95458707D01*
X99697072Y-95450421D01*
X99692960Y-95443942D01*
X99643308Y-95397316D01*
X99640467Y-95394562D01*
X99620730Y-95374825D01*
X99617533Y-95372345D01*
X99608511Y-95364640D01*
X99604357Y-95360739D01*
X99576281Y-95334374D01*
X99569335Y-95330555D01*
X99569332Y-95330553D01*
X99558526Y-95324612D01*
X99542007Y-95313761D01*
X99532505Y-95306391D01*
X99526001Y-95301346D01*
X99518732Y-95298201D01*
X99518728Y-95298198D01*
X99485423Y-95283786D01*
X99474773Y-95278569D01*
X99436020Y-95257265D01*
X99416397Y-95252227D01*
X99397694Y-95245823D01*
X99386380Y-95240927D01*
X99386379Y-95240927D01*
X99379105Y-95237779D01*
X99371282Y-95236540D01*
X99371272Y-95236537D01*
X99335436Y-95230861D01*
X99323816Y-95228455D01*
X99288671Y-95219432D01*
X99288670Y-95219432D01*
X99280990Y-95217460D01*
X99260736Y-95217460D01*
X99241025Y-95215909D01*
X99238677Y-95215537D01*
X99221017Y-95212740D01*
X99191746Y-95215507D01*
X99176999Y-95216901D01*
X99165141Y-95217460D01*
X93427808Y-95217460D01*
X93416625Y-95216933D01*
X93409132Y-95215258D01*
X93401206Y-95215507D01*
X93401205Y-95215507D01*
X93341042Y-95217398D01*
X93337084Y-95217460D01*
X93309184Y-95217460D01*
X93305194Y-95217964D01*
X93293360Y-95218896D01*
X93249151Y-95220286D01*
X93241535Y-95222499D01*
X93241533Y-95222499D01*
X93229692Y-95225939D01*
X93210333Y-95229948D01*
X93209023Y-95230114D01*
X93190243Y-95232486D01*
X93182877Y-95235402D01*
X93182871Y-95235404D01*
X93149138Y-95248760D01*
X93137908Y-95252605D01*
X93108733Y-95261081D01*
X93095447Y-95264941D01*
X93088624Y-95268976D01*
X93078006Y-95275255D01*
X93060253Y-95283952D01*
X93058713Y-95284562D01*
X93041423Y-95291408D01*
X93027745Y-95301346D01*
X93005652Y-95317397D01*
X92995735Y-95323911D01*
X92957678Y-95346418D01*
X92943357Y-95360739D01*
X92928324Y-95373579D01*
X92911933Y-95385488D01*
X92885189Y-95417816D01*
X92883742Y-95419565D01*
X92875752Y-95428344D01*
X91757747Y-96546348D01*
X91749461Y-96553888D01*
X91742982Y-96558000D01*
X91737557Y-96563777D01*
X91696357Y-96607651D01*
X91693602Y-96610493D01*
X91673865Y-96630230D01*
X91671385Y-96633427D01*
X91663682Y-96642447D01*
X91633414Y-96674679D01*
X91629595Y-96681625D01*
X91629593Y-96681628D01*
X91623652Y-96692434D01*
X91612801Y-96708953D01*
X91600386Y-96724959D01*
X91597241Y-96732228D01*
X91597238Y-96732232D01*
X91582826Y-96765537D01*
X91577602Y-96776200D01*
X91568590Y-96792592D01*
X91518687Y-96842408D01*
X91511697Y-96846235D01*
X91503295Y-96849385D01*
X91386739Y-96936739D01*
X91381358Y-96943919D01*
X91350514Y-96985074D01*
X91293655Y-97027589D01*
X91222836Y-97032615D01*
X91160543Y-96998555D01*
X91148862Y-96985075D01*
X91118283Y-96944274D01*
X91105724Y-96931715D01*
X91003649Y-96855214D01*
X90988054Y-96846676D01*
X90867606Y-96801522D01*
X90852351Y-96797895D01*
X90801486Y-96792369D01*
X90794672Y-96792000D01*
X90618115Y-96792000D01*
X90602876Y-96796475D01*
X90601671Y-96797865D01*
X90600000Y-96805548D01*
X90600000Y-98251095D01*
X90579998Y-98319216D01*
X90569225Y-98333607D01*
X90551671Y-98353865D01*
X90550000Y-98361548D01*
X90550000Y-99133885D01*
X90554474Y-99149124D01*
X90556512Y-99150889D01*
X90594896Y-99210615D01*
X90600000Y-99246114D01*
X90600000Y-100689884D01*
X90604475Y-100705123D01*
X90605865Y-100706328D01*
X90613548Y-100707999D01*
X90794669Y-100707999D01*
X90801490Y-100707629D01*
X90852352Y-100702105D01*
X90867604Y-100698479D01*
X90988054Y-100653324D01*
X91003649Y-100644786D01*
X91105724Y-100568285D01*
X91118283Y-100555726D01*
X91148862Y-100514925D01*
X91205722Y-100472411D01*
X91276540Y-100467386D01*
X91338834Y-100501446D01*
X91350513Y-100514925D01*
X91386739Y-100563261D01*
X91503295Y-100650615D01*
X91639684Y-100701745D01*
X91701866Y-100708500D01*
X92598134Y-100708500D01*
X92660316Y-100701745D01*
X92796705Y-100650615D01*
X92913261Y-100563261D01*
X92981349Y-100472411D01*
X92995231Y-100453889D01*
X92995231Y-100453888D01*
X93000615Y-100446705D01*
X93002040Y-100442903D01*
X93021566Y-100417686D01*
X93024613Y-100415472D01*
X93029662Y-100409369D01*
X93029665Y-100409366D01*
X93038059Y-100399219D01*
X93096893Y-100359480D01*
X93167871Y-100357857D01*
X93228459Y-100394866D01*
X93242289Y-100413230D01*
X93251270Y-100427743D01*
X93326522Y-100549348D01*
X93451697Y-100674305D01*
X93457927Y-100678145D01*
X93457928Y-100678146D01*
X93506573Y-100708131D01*
X93602262Y-100767115D01*
X93682005Y-100793564D01*
X93763611Y-100820632D01*
X93763613Y-100820632D01*
X93770139Y-100822797D01*
X93776975Y-100823497D01*
X93776978Y-100823498D01*
X93820031Y-100827909D01*
X93874600Y-100833500D01*
X94635406Y-100833500D01*
X94703527Y-100853502D01*
X94724501Y-100870405D01*
X95881001Y-102026905D01*
X95915027Y-102089217D01*
X95909962Y-102160032D01*
X95867415Y-102216868D01*
X95800895Y-102241679D01*
X95791906Y-102242000D01*
X92109328Y-102242000D01*
X92089943Y-102240500D01*
X92075142Y-102238195D01*
X92075139Y-102238195D01*
X92066270Y-102236814D01*
X92047589Y-102239257D01*
X92024658Y-102240148D01*
X91721443Y-102224257D01*
X91708335Y-102222880D01*
X91468715Y-102184928D01*
X91379998Y-102170877D01*
X91367098Y-102168135D01*
X91046000Y-102082097D01*
X91033464Y-102078023D01*
X90723125Y-101958895D01*
X90711076Y-101953531D01*
X90414880Y-101802612D01*
X90403464Y-101796021D01*
X90124666Y-101614967D01*
X90114004Y-101607221D01*
X89855656Y-101398016D01*
X89845855Y-101389190D01*
X89610810Y-101154145D01*
X89601984Y-101144344D01*
X89531249Y-101056993D01*
X89392776Y-100885992D01*
X89385033Y-100875334D01*
X89203979Y-100596536D01*
X89197388Y-100585120D01*
X89046469Y-100288924D01*
X89041105Y-100276876D01*
X89028742Y-100244669D01*
X89442001Y-100244669D01*
X89442371Y-100251490D01*
X89447895Y-100302352D01*
X89451521Y-100317604D01*
X89496676Y-100438054D01*
X89505214Y-100453649D01*
X89581715Y-100555724D01*
X89594276Y-100568285D01*
X89696351Y-100644786D01*
X89711946Y-100653324D01*
X89832394Y-100698478D01*
X89847649Y-100702105D01*
X89898514Y-100707631D01*
X89905328Y-100708000D01*
X90081885Y-100708000D01*
X90097124Y-100703525D01*
X90098329Y-100702135D01*
X90100000Y-100694452D01*
X90100000Y-100218115D01*
X90095525Y-100202876D01*
X90094135Y-100201671D01*
X90086452Y-100200000D01*
X89460116Y-100200000D01*
X89444877Y-100204475D01*
X89443672Y-100205865D01*
X89442001Y-100213548D01*
X89442001Y-100244669D01*
X89028742Y-100244669D01*
X89023369Y-100230673D01*
X88921977Y-99966536D01*
X88917903Y-99954000D01*
X88904244Y-99903022D01*
X88881977Y-99819924D01*
X88844990Y-99681885D01*
X89442000Y-99681885D01*
X89446475Y-99697124D01*
X89447865Y-99698329D01*
X89455548Y-99700000D01*
X90081885Y-99700000D01*
X90097124Y-99695525D01*
X90098329Y-99694135D01*
X90100000Y-99686452D01*
X90100000Y-99368115D01*
X90095525Y-99352876D01*
X90094135Y-99351671D01*
X90086452Y-99350000D01*
X89460116Y-99350000D01*
X89444877Y-99354475D01*
X89443672Y-99355865D01*
X89442001Y-99363548D01*
X89442001Y-99394669D01*
X89442371Y-99401490D01*
X89447895Y-99452352D01*
X89451522Y-99467607D01*
X89456456Y-99480769D01*
X89461640Y-99551576D01*
X89456456Y-99569231D01*
X89451523Y-99582390D01*
X89447895Y-99597649D01*
X89442369Y-99648514D01*
X89442000Y-99655328D01*
X89442000Y-99681885D01*
X88844990Y-99681885D01*
X88831865Y-99632902D01*
X88829123Y-99620002D01*
X88804986Y-99467607D01*
X88777120Y-99291665D01*
X88775743Y-99278554D01*
X88774043Y-99246114D01*
X88760236Y-98982666D01*
X88761564Y-98956688D01*
X88761805Y-98955144D01*
X88761805Y-98955140D01*
X88763186Y-98946270D01*
X88761903Y-98936452D01*
X88761306Y-98931885D01*
X89442000Y-98931885D01*
X89446475Y-98947124D01*
X89447865Y-98948329D01*
X89455548Y-98950000D01*
X90131885Y-98950000D01*
X90147124Y-98945525D01*
X90148329Y-98944135D01*
X90150000Y-98936452D01*
X90150000Y-98568115D01*
X90145525Y-98552876D01*
X90144135Y-98551671D01*
X90136452Y-98550000D01*
X89460116Y-98550000D01*
X89444877Y-98554475D01*
X89443672Y-98555865D01*
X89442001Y-98563548D01*
X89442001Y-98594669D01*
X89442371Y-98601490D01*
X89447895Y-98652352D01*
X89451521Y-98667603D01*
X89465829Y-98705770D01*
X89471012Y-98776577D01*
X89465829Y-98794230D01*
X89451522Y-98832394D01*
X89447895Y-98847649D01*
X89442369Y-98898514D01*
X89442000Y-98905328D01*
X89442000Y-98931885D01*
X88761306Y-98931885D01*
X88759064Y-98914749D01*
X88758000Y-98898411D01*
X88758000Y-98131885D01*
X89442000Y-98131885D01*
X89446475Y-98147124D01*
X89447865Y-98148329D01*
X89455548Y-98150000D01*
X90081885Y-98150000D01*
X90097124Y-98145525D01*
X90098329Y-98144135D01*
X90100000Y-98136452D01*
X90100000Y-97818115D01*
X90095525Y-97802876D01*
X90094135Y-97801671D01*
X90086452Y-97800000D01*
X89460116Y-97800000D01*
X89444877Y-97804475D01*
X89443672Y-97805865D01*
X89442001Y-97813548D01*
X89442001Y-97844669D01*
X89442371Y-97851490D01*
X89447895Y-97902352D01*
X89451522Y-97917607D01*
X89456456Y-97930769D01*
X89461640Y-98001576D01*
X89456456Y-98019231D01*
X89451523Y-98032390D01*
X89447895Y-98047649D01*
X89442369Y-98098514D01*
X89442000Y-98105328D01*
X89442000Y-98131885D01*
X88758000Y-98131885D01*
X88758000Y-97281885D01*
X89442000Y-97281885D01*
X89446475Y-97297124D01*
X89447865Y-97298329D01*
X89455548Y-97300000D01*
X90081885Y-97300000D01*
X90097124Y-97295525D01*
X90098329Y-97294135D01*
X90100000Y-97286452D01*
X90100000Y-96810116D01*
X90095525Y-96794877D01*
X90094135Y-96793672D01*
X90086452Y-96792001D01*
X89905331Y-96792001D01*
X89898510Y-96792371D01*
X89847648Y-96797895D01*
X89832396Y-96801521D01*
X89711946Y-96846676D01*
X89696351Y-96855214D01*
X89594276Y-96931715D01*
X89581715Y-96944276D01*
X89505214Y-97046351D01*
X89496676Y-97061946D01*
X89451522Y-97182394D01*
X89447895Y-97197649D01*
X89442369Y-97248514D01*
X89442000Y-97255328D01*
X89442000Y-97281885D01*
X88758000Y-97281885D01*
X88758000Y-92250000D01*
X90886526Y-92250000D01*
X90906391Y-92502403D01*
X90907545Y-92507210D01*
X90907546Y-92507216D01*
X90927710Y-92591203D01*
X90965495Y-92748591D01*
X90967388Y-92753162D01*
X90967389Y-92753164D01*
X91059710Y-92976046D01*
X91062384Y-92982502D01*
X91194672Y-93198376D01*
X91316523Y-93341045D01*
X91350735Y-93381101D01*
X91359102Y-93390898D01*
X91551624Y-93555328D01*
X91767498Y-93687616D01*
X91772068Y-93689509D01*
X91772072Y-93689511D01*
X91996836Y-93782611D01*
X92001409Y-93784505D01*
X92086032Y-93804821D01*
X92242784Y-93842454D01*
X92242790Y-93842455D01*
X92247597Y-93843609D01*
X92347416Y-93851465D01*
X92434345Y-93858307D01*
X92434352Y-93858307D01*
X92436801Y-93858500D01*
X92563199Y-93858500D01*
X92565648Y-93858307D01*
X92565655Y-93858307D01*
X92652584Y-93851465D01*
X92752403Y-93843609D01*
X92757210Y-93842455D01*
X92757216Y-93842454D01*
X92913968Y-93804821D01*
X92998591Y-93784505D01*
X93003164Y-93782611D01*
X93227928Y-93689511D01*
X93227932Y-93689509D01*
X93232502Y-93687616D01*
X93448376Y-93555328D01*
X93640898Y-93390898D01*
X93649266Y-93381101D01*
X93683477Y-93341045D01*
X93805328Y-93198376D01*
X93937616Y-92982502D01*
X93940291Y-92976046D01*
X94032611Y-92753164D01*
X94032612Y-92753162D01*
X94034505Y-92748591D01*
X94072290Y-92591203D01*
X94092454Y-92507216D01*
X94092455Y-92507210D01*
X94093609Y-92502403D01*
X94113474Y-92250000D01*
X94093609Y-91997597D01*
X94092358Y-91992383D01*
X94035660Y-91756221D01*
X94034505Y-91751409D01*
X94031565Y-91744311D01*
X93939511Y-91522072D01*
X93939509Y-91522068D01*
X93937616Y-91517498D01*
X93805328Y-91301624D01*
X93640898Y-91109102D01*
X93448376Y-90944672D01*
X93232502Y-90812384D01*
X93227932Y-90810491D01*
X93227928Y-90810489D01*
X93003164Y-90717389D01*
X93003162Y-90717388D01*
X92998591Y-90715495D01*
X92900193Y-90691872D01*
X92757216Y-90657546D01*
X92757210Y-90657545D01*
X92752403Y-90656391D01*
X92643475Y-90647818D01*
X92565655Y-90641693D01*
X92565648Y-90641693D01*
X92563199Y-90641500D01*
X92436801Y-90641500D01*
X92434352Y-90641693D01*
X92434345Y-90641693D01*
X92356525Y-90647818D01*
X92247597Y-90656391D01*
X92242790Y-90657545D01*
X92242784Y-90657546D01*
X92099807Y-90691872D01*
X92001409Y-90715495D01*
X91996838Y-90717388D01*
X91996836Y-90717389D01*
X91772072Y-90810489D01*
X91772068Y-90810491D01*
X91767498Y-90812384D01*
X91551624Y-90944672D01*
X91359102Y-91109102D01*
X91194672Y-91301624D01*
X91062384Y-91517498D01*
X91060491Y-91522068D01*
X91060489Y-91522072D01*
X90968435Y-91744311D01*
X90965495Y-91751409D01*
X90964340Y-91756221D01*
X90907643Y-91992383D01*
X90906391Y-91997597D01*
X90886526Y-92250000D01*
X88758000Y-92250000D01*
X88758000Y-68175000D01*
X90920026Y-68175000D01*
X90939891Y-68427403D01*
X90941045Y-68432210D01*
X90941046Y-68432216D01*
X90961181Y-68516083D01*
X90998995Y-68673591D01*
X91000888Y-68678162D01*
X91000889Y-68678164D01*
X91051042Y-68799243D01*
X91095884Y-68907502D01*
X91228172Y-69123376D01*
X91392602Y-69315898D01*
X91585124Y-69480328D01*
X91800998Y-69612616D01*
X91805568Y-69614509D01*
X91805572Y-69614511D01*
X92030336Y-69707611D01*
X92034909Y-69709505D01*
X92119532Y-69729821D01*
X92276284Y-69767454D01*
X92276290Y-69767455D01*
X92281097Y-69768609D01*
X92380916Y-69776465D01*
X92467845Y-69783307D01*
X92467852Y-69783307D01*
X92470301Y-69783500D01*
X92596699Y-69783500D01*
X92599148Y-69783307D01*
X92599155Y-69783307D01*
X92686084Y-69776465D01*
X92785903Y-69768609D01*
X92790710Y-69767455D01*
X92790716Y-69767454D01*
X92947468Y-69729821D01*
X93032091Y-69709505D01*
X93036664Y-69707611D01*
X93261428Y-69614511D01*
X93261432Y-69614509D01*
X93266002Y-69612616D01*
X93481876Y-69480328D01*
X93674398Y-69315898D01*
X93838828Y-69123376D01*
X93971116Y-68907502D01*
X94015959Y-68799243D01*
X94066111Y-68678164D01*
X94066112Y-68678162D01*
X94068005Y-68673591D01*
X94105819Y-68516083D01*
X94125954Y-68432216D01*
X94125955Y-68432210D01*
X94127109Y-68427403D01*
X94128120Y-68414553D01*
X99322652Y-68414553D01*
X99336472Y-68572519D01*
X99338375Y-68583312D01*
X99394764Y-68793761D01*
X99398510Y-68804053D01*
X99490586Y-69001511D01*
X99496069Y-69011007D01*
X99621028Y-69189467D01*
X99628084Y-69197875D01*
X99782125Y-69351916D01*
X99790533Y-69358972D01*
X99968993Y-69483931D01*
X99978489Y-69489414D01*
X100175947Y-69581490D01*
X100186239Y-69585236D01*
X100358503Y-69631394D01*
X100372599Y-69631058D01*
X100376000Y-69623116D01*
X100376000Y-69617967D01*
X100884000Y-69617967D01*
X100887973Y-69631498D01*
X100896522Y-69632727D01*
X101073761Y-69585236D01*
X101084053Y-69581490D01*
X101281511Y-69489414D01*
X101291007Y-69483931D01*
X101469467Y-69358972D01*
X101477875Y-69351916D01*
X101631916Y-69197875D01*
X101638972Y-69189467D01*
X101763931Y-69011007D01*
X101769414Y-69001511D01*
X101785529Y-68966951D01*
X101832446Y-68913666D01*
X101900723Y-68894205D01*
X101968683Y-68914747D01*
X102013919Y-68966951D01*
X102030151Y-69001762D01*
X102030154Y-69001767D01*
X102032477Y-69006749D01*
X102035634Y-69011257D01*
X102134278Y-69152135D01*
X102163802Y-69194300D01*
X102325700Y-69356198D01*
X102330208Y-69359355D01*
X102330211Y-69359357D01*
X102408389Y-69414098D01*
X102513251Y-69487523D01*
X102518233Y-69489846D01*
X102518238Y-69489849D01*
X102714765Y-69581490D01*
X102720757Y-69584284D01*
X102726065Y-69585706D01*
X102726067Y-69585707D01*
X102936598Y-69642119D01*
X102936600Y-69642119D01*
X102941913Y-69643543D01*
X103170000Y-69663498D01*
X103398087Y-69643543D01*
X103403400Y-69642119D01*
X103403402Y-69642119D01*
X103613933Y-69585707D01*
X103613935Y-69585706D01*
X103619243Y-69584284D01*
X103625235Y-69581490D01*
X103821762Y-69489849D01*
X103821767Y-69489846D01*
X103826749Y-69487523D01*
X103931611Y-69414098D01*
X104009789Y-69359357D01*
X104009792Y-69359355D01*
X104014300Y-69356198D01*
X104176198Y-69194300D01*
X104205723Y-69152135D01*
X104304366Y-69011257D01*
X104307523Y-69006749D01*
X104309846Y-69001767D01*
X104309849Y-69001762D01*
X104325805Y-68967543D01*
X104372722Y-68914258D01*
X104440999Y-68894797D01*
X104508959Y-68915339D01*
X104554195Y-68967543D01*
X104570151Y-69001762D01*
X104570154Y-69001767D01*
X104572477Y-69006749D01*
X104575634Y-69011257D01*
X104674278Y-69152135D01*
X104703802Y-69194300D01*
X104865700Y-69356198D01*
X104870208Y-69359355D01*
X104870211Y-69359357D01*
X104948389Y-69414098D01*
X105053251Y-69487523D01*
X105058233Y-69489846D01*
X105058238Y-69489849D01*
X105254765Y-69581490D01*
X105260757Y-69584284D01*
X105266065Y-69585706D01*
X105266067Y-69585707D01*
X105476598Y-69642119D01*
X105476600Y-69642119D01*
X105481913Y-69643543D01*
X105710000Y-69663498D01*
X105938087Y-69643543D01*
X105943400Y-69642119D01*
X105943402Y-69642119D01*
X106153933Y-69585707D01*
X106153935Y-69585706D01*
X106159243Y-69584284D01*
X106165235Y-69581490D01*
X106361762Y-69489849D01*
X106361767Y-69489846D01*
X106366749Y-69487523D01*
X106471611Y-69414098D01*
X106549789Y-69359357D01*
X106549792Y-69359355D01*
X106554300Y-69356198D01*
X106716198Y-69194300D01*
X106745723Y-69152135D01*
X106844366Y-69011257D01*
X106847523Y-69006749D01*
X106849846Y-69001767D01*
X106849849Y-69001762D01*
X106865805Y-68967543D01*
X106912722Y-68914258D01*
X106980999Y-68894797D01*
X107048959Y-68915339D01*
X107094195Y-68967543D01*
X107110151Y-69001762D01*
X107110154Y-69001767D01*
X107112477Y-69006749D01*
X107115634Y-69011257D01*
X107214278Y-69152135D01*
X107243802Y-69194300D01*
X107405700Y-69356198D01*
X107410208Y-69359355D01*
X107410211Y-69359357D01*
X107488389Y-69414098D01*
X107593251Y-69487523D01*
X107598233Y-69489846D01*
X107598238Y-69489849D01*
X107794765Y-69581490D01*
X107800757Y-69584284D01*
X107806065Y-69585706D01*
X107806067Y-69585707D01*
X108016598Y-69642119D01*
X108016600Y-69642119D01*
X108021913Y-69643543D01*
X108250000Y-69663498D01*
X108478087Y-69643543D01*
X108483400Y-69642119D01*
X108483402Y-69642119D01*
X108693933Y-69585707D01*
X108693935Y-69585706D01*
X108699243Y-69584284D01*
X108705235Y-69581490D01*
X108901762Y-69489849D01*
X108901767Y-69489846D01*
X108906749Y-69487523D01*
X109011611Y-69414098D01*
X109089789Y-69359357D01*
X109089792Y-69359355D01*
X109094300Y-69356198D01*
X109256198Y-69194300D01*
X109285723Y-69152135D01*
X109384366Y-69011257D01*
X109387523Y-69006749D01*
X109389846Y-69001767D01*
X109389849Y-69001762D01*
X109481961Y-68804225D01*
X109481961Y-68804224D01*
X109484284Y-68799243D01*
X109510029Y-68703164D01*
X109542119Y-68583402D01*
X109542119Y-68583400D01*
X109543543Y-68578087D01*
X109557189Y-68422115D01*
X109558262Y-68409851D01*
X109558262Y-68409844D01*
X109558500Y-68407127D01*
X109558500Y-68200000D01*
X114170026Y-68200000D01*
X114189891Y-68452403D01*
X114191045Y-68457210D01*
X114191046Y-68457216D01*
X114205179Y-68516083D01*
X114248995Y-68698591D01*
X114250888Y-68703162D01*
X114250889Y-68703164D01*
X114338775Y-68915339D01*
X114345884Y-68932502D01*
X114478172Y-69148376D01*
X114642602Y-69340898D01*
X114835124Y-69505328D01*
X115050998Y-69637616D01*
X115055568Y-69639509D01*
X115055572Y-69639511D01*
X115280336Y-69732611D01*
X115284909Y-69734505D01*
X115369532Y-69754821D01*
X115526284Y-69792454D01*
X115526290Y-69792455D01*
X115531097Y-69793609D01*
X115630916Y-69801465D01*
X115717845Y-69808307D01*
X115717852Y-69808307D01*
X115720301Y-69808500D01*
X115846699Y-69808500D01*
X115849148Y-69808307D01*
X115849155Y-69808307D01*
X115936084Y-69801465D01*
X116035903Y-69793609D01*
X116040710Y-69792455D01*
X116040716Y-69792454D01*
X116197468Y-69754821D01*
X116282091Y-69734505D01*
X116286664Y-69732611D01*
X116511428Y-69639511D01*
X116511432Y-69639509D01*
X116516002Y-69637616D01*
X116731876Y-69505328D01*
X116924398Y-69340898D01*
X117088828Y-69148376D01*
X117221116Y-68932502D01*
X117228226Y-68915339D01*
X117316111Y-68703164D01*
X117316112Y-68703162D01*
X117318005Y-68698591D01*
X117361821Y-68516083D01*
X117375954Y-68457216D01*
X117375955Y-68457210D01*
X117377109Y-68452403D01*
X117396974Y-68200000D01*
X117377109Y-67947597D01*
X117371108Y-67922597D01*
X117324243Y-67727393D01*
X117318005Y-67701409D01*
X117307650Y-67676409D01*
X117223011Y-67472072D01*
X117223009Y-67472068D01*
X117221116Y-67467498D01*
X117088828Y-67251624D01*
X116924398Y-67059102D01*
X116731876Y-66894672D01*
X116516002Y-66762384D01*
X116511432Y-66760491D01*
X116511428Y-66760489D01*
X116286664Y-66667389D01*
X116286662Y-66667388D01*
X116282091Y-66665495D01*
X116163321Y-66636981D01*
X116040716Y-66607546D01*
X116040710Y-66607545D01*
X116035903Y-66606391D01*
X115936084Y-66598535D01*
X115849155Y-66591693D01*
X115849148Y-66591693D01*
X115846699Y-66591500D01*
X115720301Y-66591500D01*
X115717852Y-66591693D01*
X115717845Y-66591693D01*
X115630916Y-66598535D01*
X115531097Y-66606391D01*
X115526290Y-66607545D01*
X115526284Y-66607546D01*
X115403679Y-66636981D01*
X115284909Y-66665495D01*
X115280338Y-66667388D01*
X115280336Y-66667389D01*
X115055572Y-66760489D01*
X115055568Y-66760491D01*
X115050998Y-66762384D01*
X114835124Y-66894672D01*
X114642602Y-67059102D01*
X114478172Y-67251624D01*
X114345884Y-67467498D01*
X114343991Y-67472068D01*
X114343989Y-67472072D01*
X114259350Y-67676409D01*
X114248995Y-67701409D01*
X114242757Y-67727393D01*
X114195893Y-67922597D01*
X114189891Y-67947597D01*
X114170026Y-68200000D01*
X109558500Y-68200000D01*
X109558500Y-67892873D01*
X109558261Y-67890135D01*
X109551652Y-67814595D01*
X109543543Y-67721913D01*
X109539338Y-67706221D01*
X109485707Y-67506067D01*
X109485706Y-67506065D01*
X109484284Y-67500757D01*
X109468094Y-67466037D01*
X109389849Y-67298238D01*
X109389846Y-67298233D01*
X109387523Y-67293251D01*
X109256198Y-67105700D01*
X109094300Y-66943802D01*
X109089792Y-66940645D01*
X109089789Y-66940643D01*
X108984744Y-66867090D01*
X108906749Y-66812477D01*
X108901767Y-66810154D01*
X108901762Y-66810151D01*
X108704225Y-66718039D01*
X108704224Y-66718039D01*
X108699243Y-66715716D01*
X108693935Y-66714294D01*
X108693933Y-66714293D01*
X108483402Y-66657881D01*
X108483400Y-66657881D01*
X108478087Y-66656457D01*
X108250000Y-66636502D01*
X108021913Y-66656457D01*
X108016600Y-66657881D01*
X108016598Y-66657881D01*
X107806067Y-66714293D01*
X107806065Y-66714294D01*
X107800757Y-66715716D01*
X107795776Y-66718039D01*
X107795775Y-66718039D01*
X107598238Y-66810151D01*
X107598233Y-66810154D01*
X107593251Y-66812477D01*
X107515256Y-66867090D01*
X107410211Y-66940643D01*
X107410208Y-66940645D01*
X107405700Y-66943802D01*
X107243802Y-67105700D01*
X107112477Y-67293251D01*
X107110154Y-67298233D01*
X107110151Y-67298238D01*
X107094195Y-67332457D01*
X107047278Y-67385742D01*
X106979001Y-67405203D01*
X106911041Y-67384661D01*
X106865805Y-67332457D01*
X106849849Y-67298238D01*
X106849846Y-67298233D01*
X106847523Y-67293251D01*
X106716198Y-67105700D01*
X106554300Y-66943802D01*
X106549792Y-66940645D01*
X106549789Y-66940643D01*
X106444744Y-66867090D01*
X106366749Y-66812477D01*
X106361767Y-66810154D01*
X106361762Y-66810151D01*
X106164225Y-66718039D01*
X106164224Y-66718039D01*
X106159243Y-66715716D01*
X106153935Y-66714294D01*
X106153933Y-66714293D01*
X105943402Y-66657881D01*
X105943400Y-66657881D01*
X105938087Y-66656457D01*
X105710000Y-66636502D01*
X105481913Y-66656457D01*
X105476600Y-66657881D01*
X105476598Y-66657881D01*
X105266067Y-66714293D01*
X105266065Y-66714294D01*
X105260757Y-66715716D01*
X105255776Y-66718039D01*
X105255775Y-66718039D01*
X105058238Y-66810151D01*
X105058233Y-66810154D01*
X105053251Y-66812477D01*
X104975256Y-66867090D01*
X104870211Y-66940643D01*
X104870208Y-66940645D01*
X104865700Y-66943802D01*
X104703802Y-67105700D01*
X104572477Y-67293251D01*
X104570154Y-67298233D01*
X104570151Y-67298238D01*
X104554195Y-67332457D01*
X104507278Y-67385742D01*
X104439001Y-67405203D01*
X104371041Y-67384661D01*
X104325805Y-67332457D01*
X104309849Y-67298238D01*
X104309846Y-67298233D01*
X104307523Y-67293251D01*
X104176198Y-67105700D01*
X104014300Y-66943802D01*
X104009792Y-66940645D01*
X104009789Y-66940643D01*
X103904744Y-66867090D01*
X103826749Y-66812477D01*
X103821767Y-66810154D01*
X103821762Y-66810151D01*
X103624225Y-66718039D01*
X103624224Y-66718039D01*
X103619243Y-66715716D01*
X103613935Y-66714294D01*
X103613933Y-66714293D01*
X103403402Y-66657881D01*
X103403400Y-66657881D01*
X103398087Y-66656457D01*
X103170000Y-66636502D01*
X102941913Y-66656457D01*
X102936600Y-66657881D01*
X102936598Y-66657881D01*
X102726067Y-66714293D01*
X102726065Y-66714294D01*
X102720757Y-66715716D01*
X102715776Y-66718039D01*
X102715775Y-66718039D01*
X102518238Y-66810151D01*
X102518233Y-66810154D01*
X102513251Y-66812477D01*
X102435256Y-66867090D01*
X102330211Y-66940643D01*
X102330208Y-66940645D01*
X102325700Y-66943802D01*
X102163802Y-67105700D01*
X102032477Y-67293251D01*
X102030154Y-67298233D01*
X102030151Y-67298238D01*
X102013919Y-67333049D01*
X101967002Y-67386334D01*
X101898725Y-67405795D01*
X101830765Y-67385253D01*
X101785529Y-67333049D01*
X101769414Y-67298489D01*
X101763931Y-67288993D01*
X101638972Y-67110533D01*
X101631916Y-67102125D01*
X101477875Y-66948084D01*
X101469467Y-66941028D01*
X101291007Y-66816069D01*
X101281511Y-66810586D01*
X101084053Y-66718510D01*
X101073761Y-66714764D01*
X100901497Y-66668606D01*
X100887401Y-66668942D01*
X100884000Y-66676884D01*
X100884000Y-69617967D01*
X100376000Y-69617967D01*
X100376000Y-68422115D01*
X100371525Y-68406876D01*
X100370135Y-68405671D01*
X100362452Y-68404000D01*
X99340115Y-68404000D01*
X99324876Y-68408475D01*
X99323671Y-68409865D01*
X99322652Y-68414553D01*
X94128120Y-68414553D01*
X94146974Y-68175000D01*
X94127109Y-67922597D01*
X94120034Y-67893124D01*
X94117202Y-67881330D01*
X99323012Y-67881330D01*
X99326475Y-67893124D01*
X99327865Y-67894329D01*
X99335548Y-67896000D01*
X100357885Y-67896000D01*
X100373124Y-67891525D01*
X100374329Y-67890135D01*
X100376000Y-67882452D01*
X100376000Y-66682033D01*
X100372027Y-66668502D01*
X100363478Y-66667273D01*
X100186239Y-66714764D01*
X100175947Y-66718510D01*
X99978489Y-66810586D01*
X99968993Y-66816069D01*
X99790533Y-66941028D01*
X99782125Y-66948084D01*
X99628084Y-67102125D01*
X99621028Y-67110533D01*
X99496069Y-67288993D01*
X99490586Y-67298489D01*
X99398510Y-67495947D01*
X99394764Y-67506239D01*
X99338375Y-67716688D01*
X99336472Y-67727481D01*
X99323012Y-67881330D01*
X94117202Y-67881330D01*
X94080245Y-67727393D01*
X94068005Y-67676409D01*
X94066111Y-67671836D01*
X93973011Y-67447072D01*
X93973009Y-67447068D01*
X93971116Y-67442498D01*
X93838828Y-67226624D01*
X93674398Y-67034102D01*
X93481876Y-66869672D01*
X93266002Y-66737384D01*
X93261432Y-66735491D01*
X93261428Y-66735489D01*
X93036664Y-66642389D01*
X93036662Y-66642388D01*
X93032091Y-66640495D01*
X92934635Y-66617098D01*
X92790716Y-66582546D01*
X92790710Y-66582545D01*
X92785903Y-66581391D01*
X92686084Y-66573535D01*
X92599155Y-66566693D01*
X92599148Y-66566693D01*
X92596699Y-66566500D01*
X92470301Y-66566500D01*
X92467852Y-66566693D01*
X92467845Y-66566693D01*
X92380916Y-66573535D01*
X92281097Y-66581391D01*
X92276290Y-66582545D01*
X92276284Y-66582546D01*
X92132365Y-66617098D01*
X92034909Y-66640495D01*
X92030338Y-66642388D01*
X92030336Y-66642389D01*
X91805572Y-66735489D01*
X91805568Y-66735491D01*
X91800998Y-66737384D01*
X91585124Y-66869672D01*
X91392602Y-67034102D01*
X91228172Y-67226624D01*
X91095884Y-67442498D01*
X91093991Y-67447068D01*
X91093989Y-67447072D01*
X91000889Y-67671836D01*
X90998995Y-67676409D01*
X90986755Y-67727393D01*
X90946967Y-67893124D01*
X90939891Y-67922597D01*
X90920026Y-68175000D01*
X88758000Y-68175000D01*
X88758000Y-67359328D01*
X88759500Y-67339943D01*
X88761805Y-67325142D01*
X88761805Y-67325139D01*
X88763186Y-67316270D01*
X88760743Y-67297589D01*
X88759852Y-67274657D01*
X88768454Y-67110533D01*
X88775743Y-66971443D01*
X88777121Y-66958329D01*
X88799722Y-66815634D01*
X88815772Y-66714293D01*
X88829123Y-66629998D01*
X88831865Y-66617098D01*
X88917903Y-66296000D01*
X88921979Y-66283456D01*
X89041105Y-65973124D01*
X89046469Y-65961076D01*
X89197388Y-65664880D01*
X89203982Y-65653459D01*
X89208005Y-65647264D01*
X89385033Y-65374666D01*
X89392779Y-65364004D01*
X89601984Y-65105656D01*
X89610810Y-65095855D01*
X89845855Y-64860810D01*
X89855656Y-64851984D01*
X89963068Y-64765004D01*
X90114008Y-64642776D01*
X90124666Y-64635033D01*
X90403464Y-64453979D01*
X90414880Y-64447388D01*
X90711076Y-64296469D01*
X90723124Y-64291105D01*
X90854459Y-64240690D01*
X91033464Y-64171977D01*
X91046000Y-64167903D01*
X91367098Y-64081865D01*
X91379998Y-64079123D01*
X91468715Y-64065072D01*
X91708335Y-64027120D01*
X91721443Y-64025743D01*
X92017334Y-64010236D01*
X92043312Y-64011564D01*
X92044856Y-64011805D01*
X92044860Y-64011805D01*
X92053730Y-64013186D01*
X92062632Y-64012022D01*
X92062635Y-64012022D01*
X92085251Y-64009064D01*
X92101589Y-64008000D01*
X121020469Y-64008000D01*
X121088590Y-64028002D01*
G37*
%TD.AperFunction*%
%TA.AperFunction,Conductor*%
G36*
X172524268Y-100003022D02*
G01*
X172570761Y-100056678D01*
X172580865Y-100126952D01*
X172551371Y-100191532D01*
X172545242Y-100198115D01*
X171413762Y-101329595D01*
X171351450Y-101363621D01*
X171324667Y-101366500D01*
X167334500Y-101366500D01*
X167266379Y-101346498D01*
X167219886Y-101292842D01*
X167208500Y-101240500D01*
X167208500Y-100109020D01*
X167228502Y-100040899D01*
X167282158Y-99994406D01*
X167334500Y-99983020D01*
X172456147Y-99983020D01*
X172524268Y-100003022D01*
G37*
%TD.AperFunction*%
%TA.AperFunction,Conductor*%
G36*
X112383621Y-99803022D02*
G01*
X112430114Y-99856678D01*
X112441500Y-99909020D01*
X112441500Y-101240500D01*
X112421498Y-101308621D01*
X112367842Y-101355114D01*
X112315500Y-101366500D01*
X104684500Y-101366500D01*
X104616379Y-101346498D01*
X104569886Y-101292842D01*
X104558500Y-101240500D01*
X104558500Y-100009020D01*
X104578502Y-99940899D01*
X104632158Y-99894406D01*
X104684500Y-99883020D01*
X106985406Y-99883020D01*
X107053527Y-99903022D01*
X107074501Y-99919925D01*
X107146823Y-99992247D01*
X107154367Y-100000537D01*
X107158480Y-100007018D01*
X107164257Y-100012443D01*
X107208147Y-100053658D01*
X107210989Y-100056413D01*
X107230711Y-100076135D01*
X107233835Y-100078558D01*
X107233839Y-100078562D01*
X107233904Y-100078612D01*
X107242925Y-100086317D01*
X107275159Y-100116586D01*
X107282107Y-100120405D01*
X107282109Y-100120407D01*
X107292912Y-100126346D01*
X107309439Y-100137202D01*
X107319178Y-100144757D01*
X107319180Y-100144758D01*
X107325440Y-100149614D01*
X107366020Y-100167174D01*
X107376668Y-100172391D01*
X107401456Y-100186018D01*
X107415420Y-100193695D01*
X107423096Y-100195666D01*
X107423099Y-100195667D01*
X107435042Y-100198733D01*
X107453746Y-100205137D01*
X107455429Y-100205865D01*
X107472335Y-100213181D01*
X107480158Y-100214420D01*
X107480168Y-100214423D01*
X107516004Y-100220099D01*
X107527624Y-100222505D01*
X107559439Y-100230673D01*
X107570450Y-100233500D01*
X107590704Y-100233500D01*
X107610414Y-100235051D01*
X107630423Y-100238220D01*
X107638315Y-100237474D01*
X107657060Y-100235702D01*
X107674442Y-100234059D01*
X107686299Y-100233500D01*
X111092669Y-100233500D01*
X111103852Y-100234027D01*
X111111345Y-100235702D01*
X111119271Y-100235453D01*
X111119272Y-100235453D01*
X111179422Y-100233562D01*
X111183381Y-100233500D01*
X111211292Y-100233500D01*
X111215227Y-100233003D01*
X111215292Y-100232995D01*
X111227129Y-100232062D01*
X111259387Y-100231048D01*
X111263406Y-100230922D01*
X111271325Y-100230673D01*
X111290779Y-100225021D01*
X111310136Y-100221013D01*
X111322366Y-100219468D01*
X111322367Y-100219468D01*
X111330233Y-100218474D01*
X111337604Y-100215555D01*
X111337606Y-100215555D01*
X111371348Y-100202196D01*
X111382578Y-100198351D01*
X111417419Y-100188229D01*
X111417420Y-100188229D01*
X111425029Y-100186018D01*
X111431848Y-100181985D01*
X111431853Y-100181983D01*
X111442464Y-100175707D01*
X111460212Y-100167012D01*
X111479053Y-100159552D01*
X111514823Y-100133564D01*
X111524743Y-100127048D01*
X111555971Y-100108580D01*
X111555974Y-100108578D01*
X111562798Y-100104542D01*
X111577119Y-100090221D01*
X111592153Y-100077380D01*
X111602129Y-100070132D01*
X111608543Y-100065472D01*
X111636724Y-100031407D01*
X111644714Y-100022626D01*
X111847417Y-99819924D01*
X111909729Y-99785899D01*
X111936512Y-99783020D01*
X112315500Y-99783020D01*
X112383621Y-99803022D01*
G37*
%TD.AperFunction*%
%TA.AperFunction,Conductor*%
G36*
X133131612Y-99803022D02*
G01*
X133152586Y-99819924D01*
X133241681Y-99909020D01*
X133324920Y-99992259D01*
X133332453Y-100000537D01*
X133336566Y-100007018D01*
X133342345Y-100012445D01*
X133342347Y-100012447D01*
X133386201Y-100053627D01*
X133389047Y-100056385D01*
X133398134Y-100065472D01*
X133408796Y-100076135D01*
X133411993Y-100078615D01*
X133421013Y-100086318D01*
X133453245Y-100116586D01*
X133460191Y-100120405D01*
X133460194Y-100120407D01*
X133471000Y-100126348D01*
X133487519Y-100137199D01*
X133503525Y-100149614D01*
X133510794Y-100152759D01*
X133510798Y-100152762D01*
X133544103Y-100167174D01*
X133554753Y-100172391D01*
X133593506Y-100193695D01*
X133601181Y-100195666D01*
X133601182Y-100195666D01*
X133613128Y-100198733D01*
X133631832Y-100205137D01*
X133633515Y-100205865D01*
X133650421Y-100213181D01*
X133658244Y-100214420D01*
X133658254Y-100214423D01*
X133694090Y-100220099D01*
X133705710Y-100222505D01*
X133737525Y-100230673D01*
X133748536Y-100233500D01*
X133768790Y-100233500D01*
X133788500Y-100235051D01*
X133808509Y-100238220D01*
X133816401Y-100237474D01*
X133835146Y-100235702D01*
X133852528Y-100234059D01*
X133864385Y-100233500D01*
X143265500Y-100233500D01*
X143333621Y-100253502D01*
X143380114Y-100307158D01*
X143391500Y-100359500D01*
X143391500Y-101240500D01*
X143371498Y-101308621D01*
X143317842Y-101355114D01*
X143265500Y-101366500D01*
X132734500Y-101366500D01*
X132666379Y-101346498D01*
X132619886Y-101292842D01*
X132608500Y-101240500D01*
X132608500Y-99909020D01*
X132628502Y-99840899D01*
X132682158Y-99794406D01*
X132734500Y-99783020D01*
X133063491Y-99783020D01*
X133131612Y-99803022D01*
G37*
%TD.AperFunction*%
%TA.AperFunction,Conductor*%
G36*
X130433621Y-99803022D02*
G01*
X130480114Y-99856678D01*
X130491500Y-99909020D01*
X130491500Y-101240500D01*
X130471498Y-101308621D01*
X130417842Y-101355114D01*
X130365500Y-101366500D01*
X114684500Y-101366500D01*
X114616379Y-101346498D01*
X114569886Y-101292842D01*
X114558500Y-101240500D01*
X114558500Y-99909020D01*
X114578502Y-99840899D01*
X114632158Y-99794406D01*
X114684500Y-99783020D01*
X130365500Y-99783020D01*
X130433621Y-99803022D01*
G37*
%TD.AperFunction*%
%TA.AperFunction,Conductor*%
G36*
X149133621Y-99903022D02*
G01*
X149180114Y-99956678D01*
X149191500Y-100009020D01*
X149191500Y-101240500D01*
X149171498Y-101308621D01*
X149117842Y-101355114D01*
X149065500Y-101366500D01*
X145634500Y-101366500D01*
X145566379Y-101346498D01*
X145519886Y-101292842D01*
X145508500Y-101240500D01*
X145508500Y-100009020D01*
X145528502Y-99940899D01*
X145582158Y-99894406D01*
X145634500Y-99883020D01*
X149065500Y-99883020D01*
X149133621Y-99903022D01*
G37*
%TD.AperFunction*%
%TA.AperFunction,Conductor*%
G36*
X152541358Y-100227053D02*
G01*
X152562332Y-100243955D01*
X153435153Y-101116774D01*
X153442691Y-101125058D01*
X153446803Y-101131538D01*
X153452579Y-101136962D01*
X153452584Y-101136968D01*
X153465024Y-101148649D01*
X153500991Y-101209861D01*
X153498154Y-101280801D01*
X153457415Y-101338945D01*
X153391707Y-101365834D01*
X153378773Y-101366500D01*
X151434500Y-101366500D01*
X151366379Y-101346498D01*
X151319886Y-101292842D01*
X151308500Y-101240500D01*
X151308500Y-100333051D01*
X151328502Y-100264930D01*
X151382158Y-100218437D01*
X151434500Y-100207051D01*
X152473237Y-100207051D01*
X152541358Y-100227053D01*
G37*
%TD.AperFunction*%
%TA.AperFunction,Conductor*%
G36*
X172160057Y-64009500D02*
G01*
X172174858Y-64011805D01*
X172174861Y-64011805D01*
X172183730Y-64013186D01*
X172202411Y-64010743D01*
X172225342Y-64009852D01*
X172528557Y-64025743D01*
X172541665Y-64027120D01*
X172781285Y-64065072D01*
X172870002Y-64079123D01*
X172882902Y-64081865D01*
X173204000Y-64167903D01*
X173216536Y-64171977D01*
X173395541Y-64240690D01*
X173526876Y-64291105D01*
X173538924Y-64296469D01*
X173835120Y-64447388D01*
X173846536Y-64453979D01*
X174125334Y-64635033D01*
X174135992Y-64642776D01*
X174286932Y-64765004D01*
X174394344Y-64851984D01*
X174404145Y-64860810D01*
X174639190Y-65095855D01*
X174648016Y-65105656D01*
X174857221Y-65364004D01*
X174864967Y-65374666D01*
X175041995Y-65647264D01*
X175046018Y-65653459D01*
X175052612Y-65664880D01*
X175203531Y-65961076D01*
X175208895Y-65973124D01*
X175328021Y-66283456D01*
X175332097Y-66295999D01*
X175334777Y-66306000D01*
X175387707Y-66503538D01*
X175392000Y-66536149D01*
X175392000Y-75441906D01*
X175371998Y-75510027D01*
X175318342Y-75556520D01*
X175248068Y-75566624D01*
X175183488Y-75537130D01*
X175176905Y-75531001D01*
X172753652Y-73107747D01*
X172746112Y-73099461D01*
X172742000Y-73092982D01*
X172733640Y-73085131D01*
X172702886Y-73056252D01*
X172666920Y-72995039D01*
X172669757Y-72924099D01*
X172710497Y-72865955D01*
X172752931Y-72843715D01*
X172840747Y-72817369D01*
X172845690Y-72815886D01*
X172927161Y-72775974D01*
X173049049Y-72716262D01*
X173049052Y-72716260D01*
X173053684Y-72713991D01*
X173242243Y-72579494D01*
X173406303Y-72416005D01*
X173541458Y-72227917D01*
X173588641Y-72132450D01*
X173641784Y-72024922D01*
X173641785Y-72024920D01*
X173644078Y-72020280D01*
X173711408Y-71798671D01*
X173741640Y-71569041D01*
X173743327Y-71500000D01*
X173737032Y-71423434D01*
X173724773Y-71274318D01*
X173724772Y-71274312D01*
X173724349Y-71269167D01*
X173690797Y-71135592D01*
X173669184Y-71049544D01*
X173669183Y-71049540D01*
X173667925Y-71044533D01*
X173665866Y-71039797D01*
X173577630Y-70836868D01*
X173577628Y-70836865D01*
X173575570Y-70832131D01*
X173449764Y-70637665D01*
X173293887Y-70466358D01*
X173289836Y-70463159D01*
X173289832Y-70463155D01*
X173116178Y-70326012D01*
X173116175Y-70326010D01*
X173112123Y-70322810D01*
X173030607Y-70277811D01*
X172980636Y-70227378D01*
X172965500Y-70167502D01*
X172965500Y-68794500D01*
X172985502Y-68726379D01*
X173039158Y-68679886D01*
X173091500Y-68668500D01*
X173128134Y-68668500D01*
X173190316Y-68661745D01*
X173326705Y-68610615D01*
X173443261Y-68523261D01*
X173530615Y-68406705D01*
X173581745Y-68270316D01*
X173588500Y-68208134D01*
X173588500Y-64911866D01*
X173581745Y-64849684D01*
X173530615Y-64713295D01*
X173443261Y-64596739D01*
X173326705Y-64509385D01*
X173190316Y-64458255D01*
X173128134Y-64451500D01*
X171431866Y-64451500D01*
X171369684Y-64458255D01*
X171233295Y-64509385D01*
X171116739Y-64596739D01*
X171110826Y-64604628D01*
X171110122Y-64605155D01*
X171105008Y-64610269D01*
X171104270Y-64609531D01*
X171053969Y-64647143D01*
X170983151Y-64652170D01*
X170920857Y-64618112D01*
X170909177Y-64604633D01*
X170903261Y-64596739D01*
X170786705Y-64509385D01*
X170650316Y-64458255D01*
X170588134Y-64451500D01*
X168891866Y-64451500D01*
X168829684Y-64458255D01*
X168693295Y-64509385D01*
X168576739Y-64596739D01*
X168571358Y-64603919D01*
X168570514Y-64605045D01*
X168569396Y-64605881D01*
X168565008Y-64610269D01*
X168564375Y-64609636D01*
X168513655Y-64647560D01*
X168442836Y-64652586D01*
X168380543Y-64618526D01*
X168368865Y-64605050D01*
X168368284Y-64604275D01*
X168355724Y-64591715D01*
X168253649Y-64515214D01*
X168238054Y-64506676D01*
X168117606Y-64461522D01*
X168102351Y-64457895D01*
X168051486Y-64452369D01*
X168044672Y-64452000D01*
X167472115Y-64452000D01*
X167456876Y-64456475D01*
X167455671Y-64457865D01*
X167454000Y-64465548D01*
X167454000Y-68649884D01*
X167458475Y-68665123D01*
X167459865Y-68666328D01*
X167467548Y-68667999D01*
X168044669Y-68667999D01*
X168051490Y-68667629D01*
X168102352Y-68662105D01*
X168117604Y-68658479D01*
X168238054Y-68613324D01*
X168253649Y-68604786D01*
X168355724Y-68528285D01*
X168368284Y-68515725D01*
X168368865Y-68514950D01*
X168369634Y-68514375D01*
X168374635Y-68509374D01*
X168375357Y-68510096D01*
X168425726Y-68472438D01*
X168496545Y-68467416D01*
X168558837Y-68501478D01*
X168570510Y-68514950D01*
X168576739Y-68523261D01*
X168693295Y-68610615D01*
X168829684Y-68661745D01*
X168891866Y-68668500D01*
X169032500Y-68668500D01*
X169100621Y-68688502D01*
X169147114Y-68742158D01*
X169158500Y-68794500D01*
X169158500Y-70164278D01*
X169138498Y-70232399D01*
X169090679Y-70276042D01*
X169036872Y-70304052D01*
X168851655Y-70443117D01*
X168691639Y-70610564D01*
X168675763Y-70633838D01*
X168624002Y-70709716D01*
X168569090Y-70754718D01*
X168498565Y-70762889D01*
X168434819Y-70731634D01*
X168424979Y-70719994D01*
X168408538Y-70705835D01*
X168398973Y-70710238D01*
X167622021Y-71487189D01*
X167614408Y-71501132D01*
X167614539Y-71502966D01*
X167618790Y-71509580D01*
X168396307Y-72287096D01*
X168408313Y-72293652D01*
X168434948Y-72273304D01*
X168435827Y-72274454D01*
X168472672Y-72245734D01*
X168543376Y-72239289D01*
X168606340Y-72272092D01*
X168626432Y-72297074D01*
X168646800Y-72330313D01*
X168646804Y-72330318D01*
X168649501Y-72334719D01*
X168801147Y-72509784D01*
X168805122Y-72513084D01*
X168805125Y-72513087D01*
X168962276Y-72643556D01*
X169001911Y-72702459D01*
X169003409Y-72773439D01*
X168966294Y-72833962D01*
X168902350Y-72864811D01*
X168881791Y-72866500D01*
X168139604Y-72866500D01*
X168071483Y-72846498D01*
X168024990Y-72792842D01*
X168014886Y-72722568D01*
X168040498Y-72662692D01*
X168043496Y-72658873D01*
X168036509Y-72645720D01*
X166890790Y-71500000D01*
X166103864Y-70713075D01*
X166092330Y-70706777D01*
X166064673Y-70728445D01*
X166063533Y-70726990D01*
X166029695Y-70754724D01*
X165959171Y-70762898D01*
X165895422Y-70731646D01*
X165874722Y-70707159D01*
X165832575Y-70642009D01*
X165832570Y-70642003D01*
X165829764Y-70637665D01*
X165673887Y-70466358D01*
X165669836Y-70463159D01*
X165669832Y-70463155D01*
X165530401Y-70353040D01*
X165514790Y-70340711D01*
X166455508Y-70340711D01*
X166462251Y-70353040D01*
X167237189Y-71127979D01*
X167251132Y-71135592D01*
X167252966Y-71135461D01*
X167259580Y-71131210D01*
X168038994Y-70351795D01*
X168046011Y-70338944D01*
X168038237Y-70328274D01*
X168035902Y-70326430D01*
X168027320Y-70320729D01*
X167833678Y-70213833D01*
X167824272Y-70209606D01*
X167615772Y-70135772D01*
X167605809Y-70133140D01*
X167388047Y-70094350D01*
X167377796Y-70093381D01*
X167156616Y-70090679D01*
X167146332Y-70091399D01*
X166927693Y-70124855D01*
X166917666Y-70127244D01*
X166707426Y-70195961D01*
X166697916Y-70199958D01*
X166501725Y-70302089D01*
X166493007Y-70307578D01*
X166463961Y-70329386D01*
X166455508Y-70340711D01*
X165514790Y-70340711D01*
X165492123Y-70322810D01*
X165358605Y-70249104D01*
X165308636Y-70198673D01*
X165293500Y-70138797D01*
X165293500Y-68794500D01*
X165313502Y-68726379D01*
X165367158Y-68679886D01*
X165419500Y-68668500D01*
X165508134Y-68668500D01*
X165570316Y-68661745D01*
X165706705Y-68610615D01*
X165823261Y-68523261D01*
X165829486Y-68514955D01*
X165830604Y-68514119D01*
X165834992Y-68509731D01*
X165835625Y-68510364D01*
X165886345Y-68472440D01*
X165957164Y-68467414D01*
X166019457Y-68501474D01*
X166031135Y-68514950D01*
X166031716Y-68515725D01*
X166044276Y-68528285D01*
X166146351Y-68604786D01*
X166161946Y-68613324D01*
X166282394Y-68658478D01*
X166297649Y-68662105D01*
X166348514Y-68667631D01*
X166355328Y-68668000D01*
X166927885Y-68668000D01*
X166943124Y-68663525D01*
X166944329Y-68662135D01*
X166946000Y-68654452D01*
X166946000Y-64470116D01*
X166941525Y-64454877D01*
X166940135Y-64453672D01*
X166932452Y-64452001D01*
X166355331Y-64452001D01*
X166348510Y-64452371D01*
X166297648Y-64457895D01*
X166282396Y-64461521D01*
X166161946Y-64506676D01*
X166146351Y-64515214D01*
X166044276Y-64591715D01*
X166031716Y-64604275D01*
X166031135Y-64605050D01*
X166030366Y-64605625D01*
X166025365Y-64610626D01*
X166024643Y-64609904D01*
X165974274Y-64647562D01*
X165903455Y-64652584D01*
X165841163Y-64618522D01*
X165829486Y-64605045D01*
X165828642Y-64603919D01*
X165823261Y-64596739D01*
X165706705Y-64509385D01*
X165570316Y-64458255D01*
X165508134Y-64451500D01*
X163811866Y-64451500D01*
X163749684Y-64458255D01*
X163613295Y-64509385D01*
X163496739Y-64596739D01*
X163490826Y-64604628D01*
X163490122Y-64605155D01*
X163485008Y-64610269D01*
X163484270Y-64609531D01*
X163433969Y-64647143D01*
X163363151Y-64652170D01*
X163300857Y-64618112D01*
X163289177Y-64604633D01*
X163283261Y-64596739D01*
X163166705Y-64509385D01*
X163030316Y-64458255D01*
X162968134Y-64451500D01*
X161271866Y-64451500D01*
X161209684Y-64458255D01*
X161073295Y-64509385D01*
X160956739Y-64596739D01*
X160950826Y-64604628D01*
X160950122Y-64605155D01*
X160945008Y-64610269D01*
X160944270Y-64609531D01*
X160893969Y-64647143D01*
X160823151Y-64652170D01*
X160760857Y-64618112D01*
X160749177Y-64604633D01*
X160743261Y-64596739D01*
X160626705Y-64509385D01*
X160490316Y-64458255D01*
X160428134Y-64451500D01*
X158731866Y-64451500D01*
X158669684Y-64458255D01*
X158533295Y-64509385D01*
X158416739Y-64596739D01*
X158410826Y-64604628D01*
X158410122Y-64605155D01*
X158405008Y-64610269D01*
X158404270Y-64609531D01*
X158353969Y-64647143D01*
X158283151Y-64652170D01*
X158220857Y-64618112D01*
X158209177Y-64604633D01*
X158203261Y-64596739D01*
X158086705Y-64509385D01*
X157950316Y-64458255D01*
X157888134Y-64451500D01*
X156191866Y-64451500D01*
X156129684Y-64458255D01*
X155993295Y-64509385D01*
X155876739Y-64596739D01*
X155871358Y-64603919D01*
X155870514Y-64605045D01*
X155869396Y-64605881D01*
X155865008Y-64610269D01*
X155864375Y-64609636D01*
X155813655Y-64647560D01*
X155742836Y-64652586D01*
X155680543Y-64618526D01*
X155668865Y-64605050D01*
X155668284Y-64604275D01*
X155655724Y-64591715D01*
X155553649Y-64515214D01*
X155538054Y-64506676D01*
X155417606Y-64461522D01*
X155402351Y-64457895D01*
X155351486Y-64452369D01*
X155344672Y-64452000D01*
X154772115Y-64452000D01*
X154756876Y-64456475D01*
X154755671Y-64457865D01*
X154754000Y-64465548D01*
X154754000Y-68649884D01*
X154758475Y-68665123D01*
X154759865Y-68666328D01*
X154767548Y-68667999D01*
X155344669Y-68667999D01*
X155351490Y-68667629D01*
X155402352Y-68662105D01*
X155417604Y-68658479D01*
X155538054Y-68613324D01*
X155553649Y-68604786D01*
X155655724Y-68528285D01*
X155668284Y-68515725D01*
X155668865Y-68514950D01*
X155669634Y-68514375D01*
X155674635Y-68509374D01*
X155675357Y-68510096D01*
X155725726Y-68472438D01*
X155796545Y-68467416D01*
X155858837Y-68501478D01*
X155870510Y-68514950D01*
X155876739Y-68523261D01*
X155993295Y-68610615D01*
X156129684Y-68661745D01*
X156191866Y-68668500D01*
X156332500Y-68668500D01*
X156400621Y-68688502D01*
X156447114Y-68742158D01*
X156458500Y-68794500D01*
X156458500Y-70164278D01*
X156438498Y-70232399D01*
X156390679Y-70276042D01*
X156336872Y-70304052D01*
X156151655Y-70443117D01*
X155991639Y-70610564D01*
X155975763Y-70633838D01*
X155924002Y-70709716D01*
X155869090Y-70754718D01*
X155798565Y-70762889D01*
X155734819Y-70731634D01*
X155724979Y-70719994D01*
X155708538Y-70705835D01*
X155698973Y-70710238D01*
X154922021Y-71487189D01*
X154914408Y-71501132D01*
X154914539Y-71502966D01*
X154918790Y-71509580D01*
X155696307Y-72287096D01*
X155708313Y-72293652D01*
X155734948Y-72273304D01*
X155735827Y-72274454D01*
X155772672Y-72245734D01*
X155843376Y-72239289D01*
X155906340Y-72272092D01*
X155926432Y-72297074D01*
X155946800Y-72330313D01*
X155946804Y-72330318D01*
X155949501Y-72334719D01*
X156101147Y-72509784D01*
X156279349Y-72657730D01*
X156479322Y-72774584D01*
X156695694Y-72857209D01*
X156700760Y-72858240D01*
X156700761Y-72858240D01*
X156733059Y-72864811D01*
X156922656Y-72903385D01*
X157053324Y-72908176D01*
X157148949Y-72911683D01*
X157148953Y-72911683D01*
X157154113Y-72911872D01*
X157159233Y-72911216D01*
X157159235Y-72911216D01*
X157247099Y-72899960D01*
X157383847Y-72882442D01*
X157388795Y-72880957D01*
X157388802Y-72880956D01*
X157600747Y-72817369D01*
X157605690Y-72815886D01*
X157687161Y-72775974D01*
X157809049Y-72716262D01*
X157809052Y-72716260D01*
X157813684Y-72713991D01*
X158002243Y-72579494D01*
X158166303Y-72416005D01*
X158169319Y-72411808D01*
X158169326Y-72411800D01*
X158256960Y-72289844D01*
X158312954Y-72246196D01*
X158383658Y-72239750D01*
X158446622Y-72272553D01*
X158466715Y-72297536D01*
X158486800Y-72330313D01*
X158486804Y-72330318D01*
X158489501Y-72334719D01*
X158641147Y-72509784D01*
X158819349Y-72657730D01*
X159019322Y-72774584D01*
X159235694Y-72857209D01*
X159240760Y-72858240D01*
X159240761Y-72858240D01*
X159273059Y-72864811D01*
X159462656Y-72903385D01*
X159593324Y-72908176D01*
X159688949Y-72911683D01*
X159688953Y-72911683D01*
X159694113Y-72911872D01*
X159699233Y-72911216D01*
X159699235Y-72911216D01*
X159787099Y-72899960D01*
X159923847Y-72882442D01*
X159928801Y-72880956D01*
X159928809Y-72880954D01*
X159970753Y-72868370D01*
X160041748Y-72867952D01*
X160096056Y-72899960D01*
X162088343Y-74892247D01*
X162095887Y-74900537D01*
X162100000Y-74907018D01*
X162105777Y-74912443D01*
X162149667Y-74953658D01*
X162152509Y-74956413D01*
X162172230Y-74976134D01*
X162175425Y-74978612D01*
X162184447Y-74986318D01*
X162216679Y-75016586D01*
X162223628Y-75020406D01*
X162234432Y-75026346D01*
X162250956Y-75037199D01*
X162266959Y-75049613D01*
X162307543Y-75067176D01*
X162318173Y-75072383D01*
X162356940Y-75093695D01*
X162364617Y-75095666D01*
X162364622Y-75095668D01*
X162376558Y-75098732D01*
X162395266Y-75105137D01*
X162413855Y-75113181D01*
X162421683Y-75114421D01*
X162421690Y-75114423D01*
X162457524Y-75120099D01*
X162469144Y-75122505D01*
X162489570Y-75127749D01*
X162511970Y-75133500D01*
X162532224Y-75133500D01*
X162551934Y-75135051D01*
X162571943Y-75138220D01*
X162579835Y-75137474D01*
X162615961Y-75134059D01*
X162627819Y-75133500D01*
X171631842Y-75133500D01*
X171699963Y-75153502D01*
X171720937Y-75170405D01*
X174028635Y-77478104D01*
X174062661Y-77540416D01*
X174065540Y-77567199D01*
X174065540Y-97989909D01*
X174045538Y-98058030D01*
X174028635Y-98079005D01*
X173428523Y-98679116D01*
X173366211Y-98713141D01*
X173339428Y-98716020D01*
X170894699Y-98716020D01*
X170826578Y-98696018D01*
X170780085Y-98642362D01*
X170769981Y-98572088D01*
X170799475Y-98507508D01*
X170865285Y-98467501D01*
X170865932Y-98467346D01*
X170898591Y-98459505D01*
X170912888Y-98453583D01*
X171127928Y-98364511D01*
X171127932Y-98364509D01*
X171132502Y-98362616D01*
X171348376Y-98230328D01*
X171540898Y-98065898D01*
X171705328Y-97873376D01*
X171837616Y-97657502D01*
X171846224Y-97636722D01*
X171932611Y-97428164D01*
X171932612Y-97428162D01*
X171934505Y-97423591D01*
X171964176Y-97300000D01*
X171992454Y-97182216D01*
X171992455Y-97182210D01*
X171993609Y-97177403D01*
X172013474Y-96925000D01*
X171993609Y-96672597D01*
X171987608Y-96647597D01*
X171935660Y-96431221D01*
X171934505Y-96426409D01*
X171924150Y-96401409D01*
X171839511Y-96197072D01*
X171839509Y-96197068D01*
X171837616Y-96192498D01*
X171705328Y-95976624D01*
X171540898Y-95784102D01*
X171348376Y-95619672D01*
X171132502Y-95487384D01*
X171127932Y-95485491D01*
X171127928Y-95485489D01*
X170903164Y-95392389D01*
X170903162Y-95392388D01*
X170898591Y-95390495D01*
X170796145Y-95365900D01*
X170657216Y-95332546D01*
X170657210Y-95332545D01*
X170652403Y-95331391D01*
X170532434Y-95321949D01*
X170465655Y-95316693D01*
X170465648Y-95316693D01*
X170463199Y-95316500D01*
X170336801Y-95316500D01*
X170334352Y-95316693D01*
X170334345Y-95316693D01*
X170267566Y-95321949D01*
X170147597Y-95331391D01*
X170142790Y-95332545D01*
X170142784Y-95332546D01*
X170003855Y-95365900D01*
X169901409Y-95390495D01*
X169896838Y-95392388D01*
X169896836Y-95392389D01*
X169672072Y-95485489D01*
X169672068Y-95485491D01*
X169667498Y-95487384D01*
X169451624Y-95619672D01*
X169259102Y-95784102D01*
X169094672Y-95976624D01*
X168962384Y-96192498D01*
X168960491Y-96197068D01*
X168960489Y-96197072D01*
X168875850Y-96401409D01*
X168865495Y-96426409D01*
X168864340Y-96431221D01*
X168812393Y-96647597D01*
X168806391Y-96672597D01*
X168786526Y-96925000D01*
X168806391Y-97177403D01*
X168807545Y-97182210D01*
X168807546Y-97182216D01*
X168835824Y-97300000D01*
X168865495Y-97423591D01*
X168867388Y-97428162D01*
X168867389Y-97428164D01*
X168953777Y-97636722D01*
X168962384Y-97657502D01*
X169094672Y-97873376D01*
X169259102Y-98065898D01*
X169451624Y-98230328D01*
X169667498Y-98362616D01*
X169672068Y-98364509D01*
X169672072Y-98364511D01*
X169887112Y-98453583D01*
X169901409Y-98459505D01*
X169934068Y-98467346D01*
X169934715Y-98467501D01*
X169996284Y-98502853D01*
X170028967Y-98565880D01*
X170022387Y-98636571D01*
X169978632Y-98692482D01*
X169905301Y-98716020D01*
X165137684Y-98716020D01*
X165069563Y-98696018D01*
X165023070Y-98642362D01*
X165012966Y-98572088D01*
X165019702Y-98545790D01*
X165023096Y-98536736D01*
X165051745Y-98460316D01*
X165058500Y-98398134D01*
X165058500Y-95801866D01*
X165051745Y-95739684D01*
X165000615Y-95603295D01*
X164913261Y-95486739D01*
X164796705Y-95399385D01*
X164660316Y-95348255D01*
X164598134Y-95341500D01*
X163801866Y-95341500D01*
X163739684Y-95348255D01*
X163603295Y-95399385D01*
X163596110Y-95404770D01*
X163596108Y-95404771D01*
X163525565Y-95457640D01*
X163459058Y-95482488D01*
X163389676Y-95467435D01*
X163374435Y-95457640D01*
X163303892Y-95404771D01*
X163303890Y-95404770D01*
X163296705Y-95399385D01*
X163160316Y-95348255D01*
X163098134Y-95341500D01*
X162784989Y-95341500D01*
X162716868Y-95321498D01*
X162670375Y-95267842D01*
X162658989Y-95215500D01*
X162658989Y-90687548D01*
X162678991Y-90619427D01*
X162729557Y-90574397D01*
X162889039Y-90496267D01*
X162889043Y-90496265D01*
X162893684Y-90493991D01*
X163082243Y-90359494D01*
X163246303Y-90196005D01*
X163249319Y-90191808D01*
X163249326Y-90191800D01*
X163336960Y-90069844D01*
X163392954Y-90026196D01*
X163463658Y-90019750D01*
X163526622Y-90052553D01*
X163546715Y-90077536D01*
X163566800Y-90110313D01*
X163566804Y-90110318D01*
X163569501Y-90114719D01*
X163721147Y-90289784D01*
X163899349Y-90437730D01*
X164099322Y-90554584D01*
X164104147Y-90556426D01*
X164104148Y-90556427D01*
X164142557Y-90571094D01*
X164315694Y-90637209D01*
X164320760Y-90638240D01*
X164320761Y-90638240D01*
X164342698Y-90642703D01*
X164542656Y-90683385D01*
X164673324Y-90688176D01*
X164768949Y-90691683D01*
X164768953Y-90691683D01*
X164774113Y-90691872D01*
X164779233Y-90691216D01*
X164779235Y-90691216D01*
X164896372Y-90676210D01*
X165003847Y-90662442D01*
X165008795Y-90660957D01*
X165008802Y-90660956D01*
X165220747Y-90597369D01*
X165225690Y-90595886D01*
X165237319Y-90590189D01*
X165429049Y-90496262D01*
X165429052Y-90496260D01*
X165433684Y-90493991D01*
X165507406Y-90441406D01*
X166453423Y-90441406D01*
X166458704Y-90448461D01*
X166635080Y-90551527D01*
X166644363Y-90555974D01*
X166851003Y-90634883D01*
X166860901Y-90637759D01*
X167077653Y-90681857D01*
X167087883Y-90683076D01*
X167308914Y-90691182D01*
X167319223Y-90690714D01*
X167538623Y-90662608D01*
X167548688Y-90660468D01*
X167760557Y-90596905D01*
X167770152Y-90593144D01*
X167968778Y-90495838D01*
X167977636Y-90490559D01*
X168035097Y-90449572D01*
X168043497Y-90438874D01*
X168036510Y-90425721D01*
X167262811Y-89652021D01*
X167248868Y-89644408D01*
X167247034Y-89644539D01*
X167240420Y-89648790D01*
X166460180Y-90429031D01*
X166453423Y-90441406D01*
X165507406Y-90441406D01*
X165622243Y-90359494D01*
X165786303Y-90196005D01*
X165877275Y-90069404D01*
X165933270Y-90025756D01*
X166003973Y-90019310D01*
X166066938Y-90052113D01*
X166072142Y-90058584D01*
X166090553Y-90075242D01*
X166099331Y-90071458D01*
X166877979Y-89292811D01*
X166885592Y-89278868D01*
X166885461Y-89277034D01*
X166881210Y-89270420D01*
X166103862Y-88493073D01*
X166092330Y-88486776D01*
X166064674Y-88508444D01*
X166063534Y-88506989D01*
X166029695Y-88534724D01*
X165959171Y-88542898D01*
X165895422Y-88511646D01*
X165874722Y-88487159D01*
X165832575Y-88422009D01*
X165832570Y-88422003D01*
X165829764Y-88417665D01*
X165673887Y-88246358D01*
X165669246Y-88242693D01*
X165640167Y-88219727D01*
X165599105Y-88161810D01*
X165595873Y-88090887D01*
X165631499Y-88029476D01*
X165674032Y-88002864D01*
X165698293Y-87993769D01*
X165698296Y-87993767D01*
X165706705Y-87990615D01*
X165823261Y-87903261D01*
X165829486Y-87894955D01*
X165830604Y-87894119D01*
X165834992Y-87889731D01*
X165835625Y-87890364D01*
X165886345Y-87852440D01*
X165957164Y-87847414D01*
X166019457Y-87881474D01*
X166031135Y-87894950D01*
X166031716Y-87895725D01*
X166044276Y-87908285D01*
X166146351Y-87984786D01*
X166161946Y-87993324D01*
X166282394Y-88038478D01*
X166297649Y-88042105D01*
X166351911Y-88048000D01*
X166351793Y-88049090D01*
X166414452Y-88071228D01*
X166451252Y-88112930D01*
X166462251Y-88133040D01*
X167237189Y-88907979D01*
X167251132Y-88915592D01*
X167252966Y-88915461D01*
X167259580Y-88911210D01*
X168038993Y-88131796D01*
X168060365Y-88092657D01*
X168110567Y-88042455D01*
X168126722Y-88035061D01*
X168238054Y-87993324D01*
X168253649Y-87984786D01*
X168355724Y-87908285D01*
X168368284Y-87895725D01*
X168368865Y-87894950D01*
X168369634Y-87894375D01*
X168374635Y-87889374D01*
X168375357Y-87890096D01*
X168425726Y-87852438D01*
X168496545Y-87847416D01*
X168558837Y-87881478D01*
X168570510Y-87894950D01*
X168576739Y-87903261D01*
X168693295Y-87990615D01*
X168701703Y-87993767D01*
X168794710Y-88028634D01*
X168851474Y-88071276D01*
X168876174Y-88137837D01*
X168860966Y-88207186D01*
X168841577Y-88233663D01*
X168691639Y-88390564D01*
X168675763Y-88413838D01*
X168624002Y-88489716D01*
X168569090Y-88534718D01*
X168498565Y-88542889D01*
X168434819Y-88511634D01*
X168424979Y-88499994D01*
X168408538Y-88485835D01*
X168398973Y-88490238D01*
X167622021Y-89267189D01*
X167614408Y-89281132D01*
X167614539Y-89282966D01*
X167618790Y-89289580D01*
X168396307Y-90067096D01*
X168408313Y-90073652D01*
X168434948Y-90053304D01*
X168435827Y-90054454D01*
X168472672Y-90025734D01*
X168543376Y-90019289D01*
X168606340Y-90052092D01*
X168626432Y-90077074D01*
X168646800Y-90110313D01*
X168646804Y-90110318D01*
X168649501Y-90114719D01*
X168801147Y-90289784D01*
X168979349Y-90437730D01*
X169179322Y-90554584D01*
X169184147Y-90556426D01*
X169184148Y-90556427D01*
X169222557Y-90571094D01*
X169395694Y-90637209D01*
X169400760Y-90638240D01*
X169400761Y-90638240D01*
X169422698Y-90642703D01*
X169622656Y-90683385D01*
X169753324Y-90688176D01*
X169848949Y-90691683D01*
X169848953Y-90691683D01*
X169854113Y-90691872D01*
X169859233Y-90691216D01*
X169859235Y-90691216D01*
X169976372Y-90676210D01*
X170083847Y-90662442D01*
X170088795Y-90660957D01*
X170088802Y-90660956D01*
X170300747Y-90597369D01*
X170305690Y-90595886D01*
X170317319Y-90590189D01*
X170509049Y-90496262D01*
X170509052Y-90496260D01*
X170513684Y-90493991D01*
X170702243Y-90359494D01*
X170866303Y-90196005D01*
X170869319Y-90191808D01*
X170869326Y-90191800D01*
X170956960Y-90069844D01*
X171012954Y-90026196D01*
X171083658Y-90019750D01*
X171146622Y-90052553D01*
X171166715Y-90077536D01*
X171186800Y-90110313D01*
X171186804Y-90110318D01*
X171189501Y-90114719D01*
X171341147Y-90289784D01*
X171519349Y-90437730D01*
X171719322Y-90554584D01*
X171724147Y-90556426D01*
X171724148Y-90556427D01*
X171762557Y-90571094D01*
X171935694Y-90637209D01*
X171940760Y-90638240D01*
X171940761Y-90638240D01*
X171962698Y-90642703D01*
X172162656Y-90683385D01*
X172293324Y-90688176D01*
X172388949Y-90691683D01*
X172388953Y-90691683D01*
X172394113Y-90691872D01*
X172399233Y-90691216D01*
X172399235Y-90691216D01*
X172516372Y-90676210D01*
X172623847Y-90662442D01*
X172628795Y-90660957D01*
X172628802Y-90660956D01*
X172840747Y-90597369D01*
X172845690Y-90595886D01*
X172857319Y-90590189D01*
X173049049Y-90496262D01*
X173049052Y-90496260D01*
X173053684Y-90493991D01*
X173242243Y-90359494D01*
X173406303Y-90196005D01*
X173541458Y-90007917D01*
X173588641Y-89912450D01*
X173641784Y-89804922D01*
X173641785Y-89804920D01*
X173644078Y-89800280D01*
X173711408Y-89578671D01*
X173741640Y-89349041D01*
X173743327Y-89280000D01*
X173737032Y-89203434D01*
X173724773Y-89054318D01*
X173724772Y-89054312D01*
X173724349Y-89049167D01*
X173690797Y-88915592D01*
X173669184Y-88829544D01*
X173669183Y-88829540D01*
X173667925Y-88824533D01*
X173665866Y-88819797D01*
X173577630Y-88616868D01*
X173577628Y-88616865D01*
X173575570Y-88612131D01*
X173449764Y-88417665D01*
X173293887Y-88246358D01*
X173289246Y-88242693D01*
X173260167Y-88219727D01*
X173219105Y-88161810D01*
X173215873Y-88090887D01*
X173251499Y-88029476D01*
X173294032Y-88002864D01*
X173318293Y-87993769D01*
X173318296Y-87993767D01*
X173326705Y-87990615D01*
X173443261Y-87903261D01*
X173530615Y-87786705D01*
X173581745Y-87650316D01*
X173588500Y-87588134D01*
X173588500Y-84291866D01*
X173581745Y-84229684D01*
X173530615Y-84093295D01*
X173443261Y-83976739D01*
X173326705Y-83889385D01*
X173190316Y-83838255D01*
X173128134Y-83831500D01*
X171431866Y-83831500D01*
X171369684Y-83838255D01*
X171233295Y-83889385D01*
X171116739Y-83976739D01*
X171110826Y-83984628D01*
X171110122Y-83985155D01*
X171105008Y-83990269D01*
X171104270Y-83989531D01*
X171053969Y-84027143D01*
X170983151Y-84032170D01*
X170920857Y-83998112D01*
X170909177Y-83984633D01*
X170903261Y-83976739D01*
X170786705Y-83889385D01*
X170650316Y-83838255D01*
X170588134Y-83831500D01*
X168891866Y-83831500D01*
X168829684Y-83838255D01*
X168693295Y-83889385D01*
X168576739Y-83976739D01*
X168571358Y-83983919D01*
X168570514Y-83985045D01*
X168569396Y-83985881D01*
X168565008Y-83990269D01*
X168564375Y-83989636D01*
X168513655Y-84027560D01*
X168442836Y-84032586D01*
X168380543Y-83998526D01*
X168368865Y-83985050D01*
X168368284Y-83984275D01*
X168355724Y-83971715D01*
X168253649Y-83895214D01*
X168238054Y-83886676D01*
X168117606Y-83841522D01*
X168102351Y-83837895D01*
X168051486Y-83832369D01*
X168044672Y-83832000D01*
X167472115Y-83832000D01*
X167456876Y-83836475D01*
X167455671Y-83837865D01*
X167454000Y-83845548D01*
X167454000Y-86068000D01*
X167433998Y-86136121D01*
X167380342Y-86182614D01*
X167328000Y-86194000D01*
X167072000Y-86194000D01*
X167003879Y-86173998D01*
X166957386Y-86120342D01*
X166946000Y-86068000D01*
X166946000Y-83850116D01*
X166941525Y-83834877D01*
X166940135Y-83833672D01*
X166932452Y-83832001D01*
X166355331Y-83832001D01*
X166348510Y-83832371D01*
X166297648Y-83837895D01*
X166282396Y-83841521D01*
X166161946Y-83886676D01*
X166146351Y-83895214D01*
X166044276Y-83971715D01*
X166031716Y-83984275D01*
X166031135Y-83985050D01*
X166030366Y-83985625D01*
X166025365Y-83990626D01*
X166024643Y-83989904D01*
X165974274Y-84027562D01*
X165903455Y-84032584D01*
X165841163Y-83998522D01*
X165829486Y-83985045D01*
X165828642Y-83983919D01*
X165823261Y-83976739D01*
X165706705Y-83889385D01*
X165570316Y-83838255D01*
X165508134Y-83831500D01*
X163811866Y-83831500D01*
X163749684Y-83838255D01*
X163613295Y-83889385D01*
X163496739Y-83976739D01*
X163490826Y-83984628D01*
X163490122Y-83985155D01*
X163485008Y-83990269D01*
X163484270Y-83989531D01*
X163433969Y-84027143D01*
X163363151Y-84032170D01*
X163300857Y-83998112D01*
X163289177Y-83984633D01*
X163283261Y-83976739D01*
X163166705Y-83889385D01*
X163030316Y-83838255D01*
X162968134Y-83831500D01*
X161271866Y-83831500D01*
X161209684Y-83838255D01*
X161073295Y-83889385D01*
X160956739Y-83976739D01*
X160950826Y-83984628D01*
X160950122Y-83985155D01*
X160945008Y-83990269D01*
X160944270Y-83989531D01*
X160893969Y-84027143D01*
X160823151Y-84032170D01*
X160760857Y-83998112D01*
X160749177Y-83984633D01*
X160743261Y-83976739D01*
X160626705Y-83889385D01*
X160490316Y-83838255D01*
X160428134Y-83831500D01*
X158931000Y-83831500D01*
X158862879Y-83811498D01*
X158850686Y-83802586D01*
X158836886Y-83791170D01*
X158828105Y-83783179D01*
X153894927Y-78850000D01*
X166111526Y-78850000D01*
X166131391Y-79102403D01*
X166190495Y-79348591D01*
X166287384Y-79582502D01*
X166419672Y-79798376D01*
X166584102Y-79990898D01*
X166776624Y-80155328D01*
X166992498Y-80287616D01*
X166997068Y-80289509D01*
X166997072Y-80289511D01*
X167221836Y-80382611D01*
X167226409Y-80384505D01*
X167300881Y-80402384D01*
X167467784Y-80442454D01*
X167467790Y-80442455D01*
X167472597Y-80443609D01*
X167572416Y-80451465D01*
X167659345Y-80458307D01*
X167659352Y-80458307D01*
X167661801Y-80458500D01*
X167788199Y-80458500D01*
X167790648Y-80458307D01*
X167790655Y-80458307D01*
X167877584Y-80451465D01*
X167977403Y-80443609D01*
X167982210Y-80442455D01*
X167982216Y-80442454D01*
X168149119Y-80402384D01*
X168223591Y-80384505D01*
X168228164Y-80382611D01*
X168452928Y-80289511D01*
X168452932Y-80289509D01*
X168457502Y-80287616D01*
X168673376Y-80155328D01*
X168865898Y-79990898D01*
X169030328Y-79798376D01*
X169162616Y-79582502D01*
X169259505Y-79348591D01*
X169318609Y-79102403D01*
X169338474Y-78850000D01*
X169318609Y-78597597D01*
X169259505Y-78351409D01*
X169162616Y-78117498D01*
X169030328Y-77901624D01*
X168865898Y-77709102D01*
X168673376Y-77544672D01*
X168457502Y-77412384D01*
X168452932Y-77410491D01*
X168452928Y-77410489D01*
X168228164Y-77317389D01*
X168228162Y-77317388D01*
X168223591Y-77315495D01*
X168134861Y-77294193D01*
X167982216Y-77257546D01*
X167982210Y-77257545D01*
X167977403Y-77256391D01*
X167877584Y-77248535D01*
X167790655Y-77241693D01*
X167790648Y-77241693D01*
X167788199Y-77241500D01*
X167661801Y-77241500D01*
X167659352Y-77241693D01*
X167659345Y-77241693D01*
X167572416Y-77248535D01*
X167472597Y-77256391D01*
X167467790Y-77257545D01*
X167467784Y-77257546D01*
X167315139Y-77294193D01*
X167226409Y-77315495D01*
X167221838Y-77317388D01*
X167221836Y-77317389D01*
X166997072Y-77410489D01*
X166997068Y-77410491D01*
X166992498Y-77412384D01*
X166776624Y-77544672D01*
X166584102Y-77709102D01*
X166419672Y-77901624D01*
X166287384Y-78117498D01*
X166190495Y-78351409D01*
X166131391Y-78597597D01*
X166111526Y-78850000D01*
X153894927Y-78850000D01*
X152682405Y-77637478D01*
X152648379Y-77575166D01*
X152645500Y-77548383D01*
X152645500Y-72835772D01*
X152665502Y-72767651D01*
X152716068Y-72722621D01*
X152729036Y-72716268D01*
X152733684Y-72713991D01*
X152807406Y-72661406D01*
X153753423Y-72661406D01*
X153758704Y-72668461D01*
X153935080Y-72771527D01*
X153944363Y-72775974D01*
X154151003Y-72854883D01*
X154160901Y-72857759D01*
X154377653Y-72901857D01*
X154387883Y-72903076D01*
X154608914Y-72911182D01*
X154619223Y-72910714D01*
X154838623Y-72882608D01*
X154848688Y-72880468D01*
X155060557Y-72816905D01*
X155070152Y-72813144D01*
X155268778Y-72715838D01*
X155277636Y-72710559D01*
X155335097Y-72669572D01*
X155343497Y-72658874D01*
X155336510Y-72645721D01*
X154562811Y-71872021D01*
X154548868Y-71864408D01*
X154547034Y-71864539D01*
X154540420Y-71868790D01*
X153760180Y-72649031D01*
X153753423Y-72661406D01*
X152807406Y-72661406D01*
X152922243Y-72579494D01*
X153086303Y-72416005D01*
X153177275Y-72289404D01*
X153233270Y-72245756D01*
X153303973Y-72239310D01*
X153366938Y-72272113D01*
X153372142Y-72278584D01*
X153390553Y-72295242D01*
X153399331Y-72291458D01*
X154177979Y-71512811D01*
X154185592Y-71498868D01*
X154185461Y-71497034D01*
X154181210Y-71490420D01*
X153403862Y-70713073D01*
X153392330Y-70706776D01*
X153364674Y-70728444D01*
X153363534Y-70726989D01*
X153329695Y-70754724D01*
X153259171Y-70762898D01*
X153195422Y-70731646D01*
X153174722Y-70707159D01*
X153132575Y-70642009D01*
X153132570Y-70642003D01*
X153129764Y-70637665D01*
X152973887Y-70466358D01*
X152969836Y-70463159D01*
X152969832Y-70463155D01*
X152814790Y-70340711D01*
X153755508Y-70340711D01*
X153762251Y-70353040D01*
X154537189Y-71127979D01*
X154551132Y-71135592D01*
X154552966Y-71135461D01*
X154559580Y-71131210D01*
X155338994Y-70351795D01*
X155346011Y-70338944D01*
X155338237Y-70328274D01*
X155335902Y-70326430D01*
X155327320Y-70320729D01*
X155133678Y-70213833D01*
X155124272Y-70209606D01*
X154915772Y-70135772D01*
X154905809Y-70133140D01*
X154688047Y-70094350D01*
X154677796Y-70093381D01*
X154456616Y-70090679D01*
X154446332Y-70091399D01*
X154227693Y-70124855D01*
X154217666Y-70127244D01*
X154007426Y-70195961D01*
X153997916Y-70199958D01*
X153801725Y-70302089D01*
X153793007Y-70307578D01*
X153763961Y-70329386D01*
X153755508Y-70340711D01*
X152814790Y-70340711D01*
X152796178Y-70326012D01*
X152796175Y-70326010D01*
X152792123Y-70322810D01*
X152710607Y-70277811D01*
X152660636Y-70227378D01*
X152645500Y-70167502D01*
X152645500Y-68794500D01*
X152665502Y-68726379D01*
X152719158Y-68679886D01*
X152771500Y-68668500D01*
X152808134Y-68668500D01*
X152870316Y-68661745D01*
X153006705Y-68610615D01*
X153123261Y-68523261D01*
X153129486Y-68514955D01*
X153130604Y-68514119D01*
X153134992Y-68509731D01*
X153135625Y-68510364D01*
X153186345Y-68472440D01*
X153257164Y-68467414D01*
X153319457Y-68501474D01*
X153331135Y-68514950D01*
X153331716Y-68515725D01*
X153344276Y-68528285D01*
X153446351Y-68604786D01*
X153461946Y-68613324D01*
X153582394Y-68658478D01*
X153597649Y-68662105D01*
X153648514Y-68667631D01*
X153655328Y-68668000D01*
X154227885Y-68668000D01*
X154243124Y-68663525D01*
X154244329Y-68662135D01*
X154246000Y-68654452D01*
X154246000Y-64470116D01*
X154241525Y-64454877D01*
X154240135Y-64453672D01*
X154232452Y-64452001D01*
X153655331Y-64452001D01*
X153648510Y-64452371D01*
X153597648Y-64457895D01*
X153582396Y-64461521D01*
X153461946Y-64506676D01*
X153446351Y-64515214D01*
X153344276Y-64591715D01*
X153331716Y-64604275D01*
X153331135Y-64605050D01*
X153330366Y-64605625D01*
X153325365Y-64610626D01*
X153324643Y-64609904D01*
X153274274Y-64647562D01*
X153203455Y-64652584D01*
X153141163Y-64618522D01*
X153129486Y-64605045D01*
X153128642Y-64603919D01*
X153123261Y-64596739D01*
X153006705Y-64509385D01*
X152870316Y-64458255D01*
X152808134Y-64451500D01*
X151111866Y-64451500D01*
X151049684Y-64458255D01*
X150913295Y-64509385D01*
X150796739Y-64596739D01*
X150790826Y-64604628D01*
X150790122Y-64605155D01*
X150785008Y-64610269D01*
X150784270Y-64609531D01*
X150733969Y-64647143D01*
X150663151Y-64652170D01*
X150600857Y-64618112D01*
X150589177Y-64604633D01*
X150583261Y-64596739D01*
X150466705Y-64509385D01*
X150330316Y-64458255D01*
X150268134Y-64451500D01*
X148737147Y-64451500D01*
X148669026Y-64431498D01*
X148636659Y-64396829D01*
X148634551Y-64398360D01*
X148608573Y-64362603D01*
X148602057Y-64352685D01*
X148583575Y-64321435D01*
X148579542Y-64314615D01*
X148565218Y-64300291D01*
X148552376Y-64285256D01*
X148540472Y-64268871D01*
X148506406Y-64240689D01*
X148497627Y-64232700D01*
X148488022Y-64223095D01*
X148453996Y-64160783D01*
X148459061Y-64089968D01*
X148501608Y-64033132D01*
X148568128Y-64008321D01*
X148577117Y-64008000D01*
X172140672Y-64008000D01*
X172160057Y-64009500D01*
G37*
%TD.AperFunction*%
%TA.AperFunction,Conductor*%
G36*
X148253527Y-91453502D02*
G01*
X148274501Y-91470405D01*
X151529595Y-94725499D01*
X151563621Y-94787811D01*
X151566500Y-94814594D01*
X151566500Y-95363934D01*
X151546498Y-95432055D01*
X151516068Y-95464758D01*
X151486739Y-95486739D01*
X151399385Y-95603295D01*
X151348255Y-95739684D01*
X151341500Y-95801866D01*
X151341500Y-98040500D01*
X151321498Y-98108621D01*
X151267842Y-98155114D01*
X151215500Y-98166500D01*
X148831939Y-98166500D01*
X148763818Y-98146498D01*
X148717325Y-98092842D01*
X148707221Y-98022568D01*
X148736128Y-97958669D01*
X148827118Y-97852135D01*
X148827121Y-97852131D01*
X148830328Y-97848376D01*
X148962616Y-97632502D01*
X149047256Y-97428164D01*
X149057611Y-97403164D01*
X149057612Y-97403162D01*
X149059505Y-97398591D01*
X149084249Y-97295525D01*
X149117454Y-97157216D01*
X149117455Y-97157210D01*
X149118609Y-97152403D01*
X149138474Y-96900000D01*
X149118609Y-96647597D01*
X149117374Y-96642449D01*
X149060660Y-96406221D01*
X149059505Y-96401409D01*
X148974866Y-96197072D01*
X148964511Y-96172072D01*
X148964509Y-96172068D01*
X148962616Y-96167498D01*
X148830328Y-95951624D01*
X148665898Y-95759102D01*
X148473376Y-95594672D01*
X148257502Y-95462384D01*
X148252932Y-95460491D01*
X148252928Y-95460489D01*
X148028164Y-95367389D01*
X148028162Y-95367388D01*
X148023591Y-95365495D01*
X147927272Y-95342371D01*
X147782216Y-95307546D01*
X147782210Y-95307545D01*
X147777403Y-95306391D01*
X147677584Y-95298535D01*
X147590655Y-95291693D01*
X147590648Y-95291693D01*
X147588199Y-95291500D01*
X147461801Y-95291500D01*
X147459352Y-95291693D01*
X147459345Y-95291693D01*
X147372416Y-95298535D01*
X147272597Y-95306391D01*
X147267790Y-95307545D01*
X147267784Y-95307546D01*
X147122728Y-95342371D01*
X147026409Y-95365495D01*
X147021838Y-95367388D01*
X147021836Y-95367389D01*
X146797072Y-95460489D01*
X146797068Y-95460491D01*
X146792498Y-95462384D01*
X146576624Y-95594672D01*
X146384102Y-95759102D01*
X146219672Y-95951624D01*
X146087384Y-96167498D01*
X146085491Y-96172068D01*
X146085489Y-96172072D01*
X146075134Y-96197072D01*
X145990495Y-96401409D01*
X145989340Y-96406221D01*
X145932627Y-96642449D01*
X145931391Y-96647597D01*
X145911526Y-96900000D01*
X145931391Y-97152403D01*
X145932545Y-97157210D01*
X145932546Y-97157216D01*
X145965751Y-97295525D01*
X145990495Y-97398591D01*
X145992388Y-97403162D01*
X145992389Y-97403164D01*
X146002745Y-97428164D01*
X146087384Y-97632502D01*
X146219672Y-97848376D01*
X146222879Y-97852131D01*
X146222882Y-97852135D01*
X146313872Y-97958669D01*
X146342903Y-98023459D01*
X146332298Y-98093659D01*
X146285424Y-98146981D01*
X146218061Y-98166500D01*
X144459500Y-98166500D01*
X144391379Y-98146498D01*
X144344886Y-98092842D01*
X144333500Y-98040500D01*
X144333500Y-92378763D01*
X144334027Y-92367579D01*
X144335701Y-92360091D01*
X144334598Y-92324980D01*
X144333562Y-92292033D01*
X144333500Y-92288075D01*
X144333500Y-92260144D01*
X144332994Y-92256138D01*
X144332061Y-92244292D01*
X144330922Y-92208037D01*
X144330673Y-92200110D01*
X144325022Y-92180658D01*
X144321014Y-92161306D01*
X144319467Y-92149063D01*
X144318474Y-92141203D01*
X144312737Y-92126712D01*
X144302200Y-92100097D01*
X144298355Y-92088870D01*
X144297721Y-92086687D01*
X144286018Y-92046407D01*
X144281984Y-92039585D01*
X144281981Y-92039579D01*
X144275706Y-92028968D01*
X144267010Y-92011218D01*
X144262472Y-91999756D01*
X144262469Y-91999751D01*
X144259552Y-91992383D01*
X144233573Y-91956625D01*
X144227057Y-91946707D01*
X144208575Y-91915457D01*
X144204542Y-91908637D01*
X144190218Y-91894313D01*
X144177376Y-91879278D01*
X144165472Y-91862893D01*
X144131406Y-91834711D01*
X144122627Y-91826722D01*
X143944500Y-91648595D01*
X143910474Y-91586283D01*
X143915539Y-91515468D01*
X143958086Y-91458632D01*
X144024606Y-91433821D01*
X144033595Y-91433500D01*
X148185406Y-91433500D01*
X148253527Y-91453502D01*
G37*
%TD.AperFunction*%
%TA.AperFunction,Conductor*%
G36*
X144260026Y-64028002D02*
G01*
X144306519Y-64081658D01*
X144316623Y-64151932D01*
X144287129Y-64216512D01*
X144281007Y-64223089D01*
X144182660Y-64321435D01*
X144089499Y-64414596D01*
X144027187Y-64448621D01*
X144000404Y-64451500D01*
X143491866Y-64451500D01*
X143429684Y-64458255D01*
X143293295Y-64509385D01*
X143176739Y-64596739D01*
X143171358Y-64603919D01*
X143170514Y-64605045D01*
X143169396Y-64605881D01*
X143165008Y-64610269D01*
X143164375Y-64609636D01*
X143113655Y-64647560D01*
X143042836Y-64652586D01*
X142980543Y-64618526D01*
X142968865Y-64605050D01*
X142968284Y-64604275D01*
X142955724Y-64591715D01*
X142853649Y-64515214D01*
X142838054Y-64506676D01*
X142717606Y-64461522D01*
X142702351Y-64457895D01*
X142651486Y-64452369D01*
X142644672Y-64452000D01*
X142072115Y-64452000D01*
X142056876Y-64456475D01*
X142055671Y-64457865D01*
X142054000Y-64465548D01*
X142054000Y-68649884D01*
X142058475Y-68665123D01*
X142059865Y-68666328D01*
X142067548Y-68667999D01*
X142644669Y-68667999D01*
X142651490Y-68667629D01*
X142702352Y-68662105D01*
X142717604Y-68658479D01*
X142838054Y-68613324D01*
X142853649Y-68604786D01*
X142955724Y-68528285D01*
X142968284Y-68515725D01*
X142968865Y-68514950D01*
X142969634Y-68514375D01*
X142974635Y-68509374D01*
X142975357Y-68510096D01*
X143025726Y-68472438D01*
X143096545Y-68467416D01*
X143158837Y-68501478D01*
X143170510Y-68514950D01*
X143176739Y-68523261D01*
X143293295Y-68610615D01*
X143429684Y-68661745D01*
X143491866Y-68668500D01*
X143632500Y-68668500D01*
X143700621Y-68688502D01*
X143747114Y-68742158D01*
X143758500Y-68794500D01*
X143758500Y-70164278D01*
X143738498Y-70232399D01*
X143690679Y-70276042D01*
X143636872Y-70304052D01*
X143451655Y-70443117D01*
X143291639Y-70610564D01*
X143275763Y-70633838D01*
X143224002Y-70709716D01*
X143169090Y-70754718D01*
X143098565Y-70762889D01*
X143034819Y-70731634D01*
X143024979Y-70719994D01*
X143008538Y-70705835D01*
X142998973Y-70710238D01*
X142222021Y-71487189D01*
X142214408Y-71501132D01*
X142214539Y-71502966D01*
X142218790Y-71509580D01*
X142996307Y-72287096D01*
X143008313Y-72293652D01*
X143034948Y-72273304D01*
X143035827Y-72274454D01*
X143072672Y-72245734D01*
X143143376Y-72239289D01*
X143206340Y-72272092D01*
X143226432Y-72297074D01*
X143246800Y-72330313D01*
X143246804Y-72330318D01*
X143249501Y-72334719D01*
X143401147Y-72509784D01*
X143579349Y-72657730D01*
X143779322Y-72774584D01*
X143995694Y-72857209D01*
X144000760Y-72858240D01*
X144000761Y-72858240D01*
X144033059Y-72864811D01*
X144222656Y-72903385D01*
X144353324Y-72908176D01*
X144448949Y-72911683D01*
X144448953Y-72911683D01*
X144454113Y-72911872D01*
X144459233Y-72911216D01*
X144459235Y-72911216D01*
X144547099Y-72899960D01*
X144683847Y-72882442D01*
X144688795Y-72880957D01*
X144688802Y-72880956D01*
X144900747Y-72817369D01*
X144905690Y-72815886D01*
X144987161Y-72775974D01*
X145109049Y-72716262D01*
X145109052Y-72716260D01*
X145113684Y-72713991D01*
X145302243Y-72579494D01*
X145466303Y-72416005D01*
X145469319Y-72411808D01*
X145469326Y-72411800D01*
X145556960Y-72289844D01*
X145612954Y-72246196D01*
X145683658Y-72239750D01*
X145746622Y-72272553D01*
X145766715Y-72297536D01*
X145786800Y-72330313D01*
X145786804Y-72330318D01*
X145789501Y-72334719D01*
X145941147Y-72509784D01*
X146119349Y-72657730D01*
X146195894Y-72702459D01*
X146236070Y-72725936D01*
X146284794Y-72777574D01*
X146298500Y-72834724D01*
X146298500Y-79932255D01*
X146297973Y-79943438D01*
X146296298Y-79950931D01*
X146296547Y-79958857D01*
X146296547Y-79958858D01*
X146298438Y-80019008D01*
X146298500Y-80022967D01*
X146298500Y-80050878D01*
X146298997Y-80054812D01*
X146298997Y-80054813D01*
X146299005Y-80054878D01*
X146299938Y-80066715D01*
X146301327Y-80110911D01*
X146306978Y-80130361D01*
X146310987Y-80149722D01*
X146313526Y-80169819D01*
X146316445Y-80177190D01*
X146316445Y-80177192D01*
X146329804Y-80210934D01*
X146333649Y-80222164D01*
X146345982Y-80264615D01*
X146350015Y-80271434D01*
X146350017Y-80271439D01*
X146356293Y-80282050D01*
X146364988Y-80299798D01*
X146372448Y-80318639D01*
X146377110Y-80325055D01*
X146377110Y-80325056D01*
X146398436Y-80354409D01*
X146404952Y-80364329D01*
X146427458Y-80402384D01*
X146441779Y-80416705D01*
X146454619Y-80431738D01*
X146466528Y-80448129D01*
X146500605Y-80476320D01*
X146509384Y-80484310D01*
X149641478Y-83616405D01*
X149675504Y-83678717D01*
X149670439Y-83749533D01*
X149627892Y-83806368D01*
X149561372Y-83831179D01*
X149552383Y-83831500D01*
X148571866Y-83831500D01*
X148509684Y-83838255D01*
X148373295Y-83889385D01*
X148256739Y-83976739D01*
X148250826Y-83984628D01*
X148250122Y-83985155D01*
X148245008Y-83990269D01*
X148244270Y-83989531D01*
X148193969Y-84027143D01*
X148123151Y-84032170D01*
X148060857Y-83998112D01*
X148049177Y-83984633D01*
X148043261Y-83976739D01*
X147926705Y-83889385D01*
X147790316Y-83838255D01*
X147728134Y-83831500D01*
X146031866Y-83831500D01*
X145969684Y-83838255D01*
X145833295Y-83889385D01*
X145716739Y-83976739D01*
X145710826Y-83984628D01*
X145710122Y-83985155D01*
X145705008Y-83990269D01*
X145704270Y-83989531D01*
X145653969Y-84027143D01*
X145583151Y-84032170D01*
X145520857Y-83998112D01*
X145509177Y-83984633D01*
X145503261Y-83976739D01*
X145386705Y-83889385D01*
X145250316Y-83838255D01*
X145188134Y-83831500D01*
X143491866Y-83831500D01*
X143429684Y-83838255D01*
X143293295Y-83889385D01*
X143176739Y-83976739D01*
X143171358Y-83983919D01*
X143170514Y-83985045D01*
X143169396Y-83985881D01*
X143165008Y-83990269D01*
X143164375Y-83989636D01*
X143113655Y-84027560D01*
X143042836Y-84032586D01*
X142980543Y-83998526D01*
X142968865Y-83985050D01*
X142968284Y-83984275D01*
X142955724Y-83971715D01*
X142853649Y-83895214D01*
X142838054Y-83886676D01*
X142717606Y-83841522D01*
X142702351Y-83837895D01*
X142651486Y-83832369D01*
X142644672Y-83832000D01*
X142072115Y-83832000D01*
X142056876Y-83836475D01*
X142055671Y-83837865D01*
X142054000Y-83845548D01*
X142054000Y-86068000D01*
X142033998Y-86136121D01*
X141980342Y-86182614D01*
X141928000Y-86194000D01*
X141672000Y-86194000D01*
X141603879Y-86173998D01*
X141557386Y-86120342D01*
X141546000Y-86068000D01*
X141546000Y-83850116D01*
X141541525Y-83834877D01*
X141540135Y-83833672D01*
X141532452Y-83832001D01*
X140955331Y-83832001D01*
X140948510Y-83832371D01*
X140897648Y-83837895D01*
X140882396Y-83841521D01*
X140761946Y-83886676D01*
X140746351Y-83895214D01*
X140644276Y-83971715D01*
X140631716Y-83984275D01*
X140631135Y-83985050D01*
X140630366Y-83985625D01*
X140625365Y-83990626D01*
X140624643Y-83989904D01*
X140574274Y-84027562D01*
X140503455Y-84032584D01*
X140441163Y-83998522D01*
X140429486Y-83985045D01*
X140428642Y-83983919D01*
X140423261Y-83976739D01*
X140306705Y-83889385D01*
X140170316Y-83838255D01*
X140108134Y-83831500D01*
X138411866Y-83831500D01*
X138349684Y-83838255D01*
X138213295Y-83889385D01*
X138096739Y-83976739D01*
X138090826Y-83984628D01*
X138090122Y-83985155D01*
X138085008Y-83990269D01*
X138084270Y-83989531D01*
X138033969Y-84027143D01*
X137963151Y-84032170D01*
X137900857Y-83998112D01*
X137889177Y-83984633D01*
X137883261Y-83976739D01*
X137766705Y-83889385D01*
X137630316Y-83838255D01*
X137568134Y-83831500D01*
X135871866Y-83831500D01*
X135809684Y-83838255D01*
X135673295Y-83889385D01*
X135556739Y-83976739D01*
X135550826Y-83984628D01*
X135550122Y-83985155D01*
X135545008Y-83990269D01*
X135544270Y-83989531D01*
X135493969Y-84027143D01*
X135423151Y-84032170D01*
X135360857Y-83998112D01*
X135349177Y-83984633D01*
X135343261Y-83976739D01*
X135226705Y-83889385D01*
X135090316Y-83838255D01*
X135028134Y-83831500D01*
X133704525Y-83831500D01*
X133636404Y-83811498D01*
X133588887Y-83755540D01*
X133588231Y-83754025D01*
X133586018Y-83746406D01*
X133575707Y-83728971D01*
X133567010Y-83711221D01*
X133559552Y-83692383D01*
X133533571Y-83656623D01*
X133527053Y-83646701D01*
X133508578Y-83615460D01*
X133508574Y-83615455D01*
X133504542Y-83608637D01*
X133490218Y-83594313D01*
X133477376Y-83579278D01*
X133473266Y-83573621D01*
X133465472Y-83562893D01*
X133431406Y-83534711D01*
X133422627Y-83526722D01*
X133253652Y-83357747D01*
X133246112Y-83349461D01*
X133242000Y-83342982D01*
X133192348Y-83296356D01*
X133189507Y-83293602D01*
X133169770Y-83273865D01*
X133166573Y-83271385D01*
X133157551Y-83263680D01*
X133138587Y-83245872D01*
X133125321Y-83233414D01*
X133118375Y-83229595D01*
X133118372Y-83229593D01*
X133107566Y-83223652D01*
X133091047Y-83212801D01*
X133090583Y-83212441D01*
X133075041Y-83200386D01*
X133067772Y-83197241D01*
X133067768Y-83197238D01*
X133034463Y-83182826D01*
X133023813Y-83177609D01*
X132985060Y-83156305D01*
X132965437Y-83151267D01*
X132946734Y-83144863D01*
X132935420Y-83139967D01*
X132935419Y-83139967D01*
X132928145Y-83136819D01*
X132920322Y-83135580D01*
X132920312Y-83135577D01*
X132884476Y-83129901D01*
X132872856Y-83127495D01*
X132837711Y-83118472D01*
X132837710Y-83118472D01*
X132830030Y-83116500D01*
X132809776Y-83116500D01*
X132790065Y-83114949D01*
X132777886Y-83113020D01*
X132770057Y-83111780D01*
X132740786Y-83114547D01*
X132726039Y-83115941D01*
X132714181Y-83116500D01*
X128028767Y-83116500D01*
X128017584Y-83115973D01*
X128010091Y-83114298D01*
X128002165Y-83114547D01*
X128002164Y-83114547D01*
X127942001Y-83116438D01*
X127938043Y-83116500D01*
X127910144Y-83116500D01*
X127906154Y-83117004D01*
X127894320Y-83117936D01*
X127850111Y-83119326D01*
X127842497Y-83121538D01*
X127842492Y-83121539D01*
X127830659Y-83124977D01*
X127811296Y-83128988D01*
X127791203Y-83131526D01*
X127783836Y-83134443D01*
X127783831Y-83134444D01*
X127750092Y-83147802D01*
X127738865Y-83151646D01*
X127696407Y-83163982D01*
X127689581Y-83168019D01*
X127678972Y-83174293D01*
X127661224Y-83182988D01*
X127642383Y-83190448D01*
X127635967Y-83195110D01*
X127635966Y-83195110D01*
X127606613Y-83216436D01*
X127596693Y-83222952D01*
X127565465Y-83241420D01*
X127565462Y-83241422D01*
X127558638Y-83245458D01*
X127544317Y-83259779D01*
X127529284Y-83272619D01*
X127512893Y-83284528D01*
X127504217Y-83295016D01*
X127484702Y-83318605D01*
X127476712Y-83327384D01*
X127009501Y-83794595D01*
X126947189Y-83828621D01*
X126920406Y-83831500D01*
X125711866Y-83831500D01*
X125649684Y-83838255D01*
X125513295Y-83889385D01*
X125396739Y-83976739D01*
X125390826Y-83984628D01*
X125390122Y-83985155D01*
X125385008Y-83990269D01*
X125384270Y-83989531D01*
X125333969Y-84027143D01*
X125263151Y-84032170D01*
X125200857Y-83998112D01*
X125189177Y-83984633D01*
X125183261Y-83976739D01*
X125066705Y-83889385D01*
X124930316Y-83838255D01*
X124868134Y-83831500D01*
X123171866Y-83831500D01*
X123109684Y-83838255D01*
X122973295Y-83889385D01*
X122856739Y-83976739D01*
X122769385Y-84093295D01*
X122718255Y-84229684D01*
X122711500Y-84291866D01*
X122711500Y-87588134D01*
X122718255Y-87650316D01*
X122769385Y-87786705D01*
X122856739Y-87903261D01*
X122973295Y-87990615D01*
X122981703Y-87993767D01*
X123074710Y-88028634D01*
X123131474Y-88071276D01*
X123156174Y-88137837D01*
X123140966Y-88207186D01*
X123121577Y-88233663D01*
X122971639Y-88390564D01*
X122968730Y-88394829D01*
X122968724Y-88394837D01*
X122953152Y-88417665D01*
X122841119Y-88581899D01*
X122743602Y-88791981D01*
X122681707Y-89015169D01*
X122657095Y-89245469D01*
X122657392Y-89250622D01*
X122657392Y-89250625D01*
X122663067Y-89349041D01*
X122670427Y-89476697D01*
X122671564Y-89481743D01*
X122671565Y-89481749D01*
X122703741Y-89624523D01*
X122721346Y-89702642D01*
X122723288Y-89707424D01*
X122723289Y-89707428D01*
X122798467Y-89892568D01*
X122808484Y-89917237D01*
X122929501Y-90114719D01*
X123081147Y-90289784D01*
X123259349Y-90437730D01*
X123459322Y-90554584D01*
X123464147Y-90556426D01*
X123464148Y-90556427D01*
X123502557Y-90571094D01*
X123675694Y-90637209D01*
X123680760Y-90638240D01*
X123680761Y-90638240D01*
X123702698Y-90642703D01*
X123902656Y-90683385D01*
X124033324Y-90688176D01*
X124128949Y-90691683D01*
X124128953Y-90691683D01*
X124134113Y-90691872D01*
X124139233Y-90691216D01*
X124139235Y-90691216D01*
X124358719Y-90663099D01*
X124358720Y-90663099D01*
X124363847Y-90662442D01*
X124368798Y-90660957D01*
X124368801Y-90660956D01*
X124439985Y-90639600D01*
X124510980Y-90639184D01*
X124565287Y-90671191D01*
X125352727Y-91458632D01*
X126139419Y-92245324D01*
X126146959Y-92253610D01*
X126151071Y-92260089D01*
X126156848Y-92265514D01*
X126200722Y-92306714D01*
X126203564Y-92309469D01*
X126223301Y-92329206D01*
X126226498Y-92331686D01*
X126235518Y-92339389D01*
X126267750Y-92369657D01*
X126274696Y-92373476D01*
X126274699Y-92373478D01*
X126285505Y-92379419D01*
X126302024Y-92390270D01*
X126318030Y-92402685D01*
X126325299Y-92405830D01*
X126325303Y-92405833D01*
X126358608Y-92420245D01*
X126369258Y-92425462D01*
X126408011Y-92446766D01*
X126415686Y-92448737D01*
X126415687Y-92448737D01*
X126427633Y-92451804D01*
X126446338Y-92458208D01*
X126464926Y-92466252D01*
X126472749Y-92467491D01*
X126472759Y-92467494D01*
X126508595Y-92473170D01*
X126520215Y-92475576D01*
X126555360Y-92484599D01*
X126563041Y-92486571D01*
X126583295Y-92486571D01*
X126603005Y-92488122D01*
X126623014Y-92491291D01*
X126630906Y-92490545D01*
X126667032Y-92487130D01*
X126678890Y-92486571D01*
X133213480Y-92486571D01*
X133281601Y-92506573D01*
X133328094Y-92560229D01*
X133338790Y-92599400D01*
X133354951Y-92753164D01*
X133356458Y-92767499D01*
X133415473Y-92949127D01*
X133418776Y-92954849D01*
X133418777Y-92954850D01*
X133439088Y-92990029D01*
X133510960Y-93114515D01*
X133584137Y-93195786D01*
X133614853Y-93259792D01*
X133616500Y-93280095D01*
X133616500Y-94435405D01*
X133596498Y-94503526D01*
X133579595Y-94524500D01*
X133107747Y-94996348D01*
X133099461Y-95003888D01*
X133092982Y-95008000D01*
X133087557Y-95013777D01*
X133046357Y-95057651D01*
X133043602Y-95060493D01*
X133023865Y-95080230D01*
X133021385Y-95083427D01*
X133013682Y-95092447D01*
X132983414Y-95124679D01*
X132979595Y-95131625D01*
X132979593Y-95131628D01*
X132973652Y-95142434D01*
X132962801Y-95158953D01*
X132950386Y-95174959D01*
X132947241Y-95182228D01*
X132947238Y-95182232D01*
X132932826Y-95215537D01*
X132927609Y-95226187D01*
X132906305Y-95264940D01*
X132904334Y-95272615D01*
X132904334Y-95272616D01*
X132901267Y-95284562D01*
X132894863Y-95303266D01*
X132890322Y-95313761D01*
X132886819Y-95321855D01*
X132885580Y-95329678D01*
X132885577Y-95329688D01*
X132879901Y-95365524D01*
X132877494Y-95377148D01*
X132875295Y-95385712D01*
X132838979Y-95446718D01*
X132828820Y-95455200D01*
X132793921Y-95481356D01*
X132786739Y-95486739D01*
X132699385Y-95603295D01*
X132648255Y-95739684D01*
X132641500Y-95801866D01*
X132641500Y-97940500D01*
X132621498Y-98008621D01*
X132567842Y-98055114D01*
X132515500Y-98066500D01*
X112484500Y-98066500D01*
X112416379Y-98046498D01*
X112369886Y-97992842D01*
X112358500Y-97940500D01*
X112358500Y-95801866D01*
X112351745Y-95739684D01*
X112300615Y-95603295D01*
X112213261Y-95486739D01*
X112096705Y-95399385D01*
X111960316Y-95348255D01*
X111898134Y-95341500D01*
X111101866Y-95341500D01*
X111039684Y-95348255D01*
X110903295Y-95399385D01*
X110835064Y-95450521D01*
X110768559Y-95475369D01*
X110699177Y-95460316D01*
X110648946Y-95410142D01*
X110633500Y-95349695D01*
X110633500Y-95214594D01*
X110653502Y-95146473D01*
X110670405Y-95125499D01*
X110740807Y-95055097D01*
X110749097Y-95047553D01*
X110755578Y-95043440D01*
X110802219Y-94993772D01*
X110804973Y-94990931D01*
X110824694Y-94971210D01*
X110827172Y-94968015D01*
X110834878Y-94958993D01*
X110846394Y-94946730D01*
X110865146Y-94926761D01*
X110874906Y-94909008D01*
X110885759Y-94892485D01*
X110893313Y-94882746D01*
X110898173Y-94876481D01*
X110915736Y-94835897D01*
X110920943Y-94825267D01*
X110942255Y-94786500D01*
X110944226Y-94778823D01*
X110944228Y-94778818D01*
X110947292Y-94766882D01*
X110953698Y-94748170D01*
X110958593Y-94736859D01*
X110961741Y-94729585D01*
X110962981Y-94721757D01*
X110962983Y-94721750D01*
X110968659Y-94685916D01*
X110971065Y-94674296D01*
X110980088Y-94639151D01*
X110980088Y-94639150D01*
X110982060Y-94631470D01*
X110982060Y-94611216D01*
X110983611Y-94591505D01*
X110985540Y-94579326D01*
X110986780Y-94571497D01*
X110982619Y-94527478D01*
X110982060Y-94515621D01*
X110982060Y-92250000D01*
X114170026Y-92250000D01*
X114189891Y-92502403D01*
X114191045Y-92507210D01*
X114191046Y-92507216D01*
X114211210Y-92591203D01*
X114248995Y-92748591D01*
X114250888Y-92753162D01*
X114250889Y-92753164D01*
X114343210Y-92976046D01*
X114345884Y-92982502D01*
X114478172Y-93198376D01*
X114600023Y-93341045D01*
X114634235Y-93381101D01*
X114642602Y-93390898D01*
X114835124Y-93555328D01*
X115050998Y-93687616D01*
X115055568Y-93689509D01*
X115055572Y-93689511D01*
X115280336Y-93782611D01*
X115284909Y-93784505D01*
X115369532Y-93804821D01*
X115526284Y-93842454D01*
X115526290Y-93842455D01*
X115531097Y-93843609D01*
X115630916Y-93851465D01*
X115717845Y-93858307D01*
X115717852Y-93858307D01*
X115720301Y-93858500D01*
X115846699Y-93858500D01*
X115849148Y-93858307D01*
X115849155Y-93858307D01*
X115936084Y-93851465D01*
X116035903Y-93843609D01*
X116040710Y-93842455D01*
X116040716Y-93842454D01*
X116197468Y-93804821D01*
X116282091Y-93784505D01*
X116286664Y-93782611D01*
X116511428Y-93689511D01*
X116511432Y-93689509D01*
X116516002Y-93687616D01*
X116731876Y-93555328D01*
X116924398Y-93390898D01*
X116932766Y-93381101D01*
X116966977Y-93341045D01*
X117088828Y-93198376D01*
X117221116Y-92982502D01*
X117223791Y-92976046D01*
X117316111Y-92753164D01*
X117316112Y-92753162D01*
X117318005Y-92748591D01*
X117355790Y-92591203D01*
X117375954Y-92507216D01*
X117375955Y-92507210D01*
X117377109Y-92502403D01*
X117396974Y-92250000D01*
X117377109Y-91997597D01*
X117375858Y-91992383D01*
X117319160Y-91756221D01*
X117318005Y-91751409D01*
X117315065Y-91744311D01*
X117223011Y-91522072D01*
X117223009Y-91522068D01*
X117221116Y-91517498D01*
X117088828Y-91301624D01*
X116924398Y-91109102D01*
X116731876Y-90944672D01*
X116516002Y-90812384D01*
X116511432Y-90810491D01*
X116511428Y-90810489D01*
X116286664Y-90717389D01*
X116286662Y-90717388D01*
X116282091Y-90715495D01*
X116183693Y-90691872D01*
X116040716Y-90657546D01*
X116040710Y-90657545D01*
X116035903Y-90656391D01*
X115926975Y-90647818D01*
X115849155Y-90641693D01*
X115849148Y-90641693D01*
X115846699Y-90641500D01*
X115720301Y-90641500D01*
X115717852Y-90641693D01*
X115717845Y-90641693D01*
X115640025Y-90647818D01*
X115531097Y-90656391D01*
X115526290Y-90657545D01*
X115526284Y-90657546D01*
X115383307Y-90691872D01*
X115284909Y-90715495D01*
X115280338Y-90717388D01*
X115280336Y-90717389D01*
X115055572Y-90810489D01*
X115055568Y-90810491D01*
X115050998Y-90812384D01*
X114835124Y-90944672D01*
X114642602Y-91109102D01*
X114478172Y-91301624D01*
X114345884Y-91517498D01*
X114343991Y-91522068D01*
X114343989Y-91522072D01*
X114251935Y-91744311D01*
X114248995Y-91751409D01*
X114247840Y-91756221D01*
X114191143Y-91992383D01*
X114189891Y-91997597D01*
X114170026Y-92250000D01*
X110982060Y-92250000D01*
X110982060Y-88373188D01*
X111002062Y-88305067D01*
X111018965Y-88284093D01*
X126362361Y-72940697D01*
X126424673Y-72906671D01*
X126456073Y-72903877D01*
X126668949Y-72911683D01*
X126668953Y-72911683D01*
X126674113Y-72911872D01*
X126679233Y-72911216D01*
X126679235Y-72911216D01*
X126767099Y-72899960D01*
X126903847Y-72882442D01*
X126908795Y-72880957D01*
X126908802Y-72880956D01*
X127120747Y-72817369D01*
X127125690Y-72815886D01*
X127207161Y-72775974D01*
X127329049Y-72716262D01*
X127329052Y-72716260D01*
X127333684Y-72713991D01*
X127407406Y-72661406D01*
X128353423Y-72661406D01*
X128358704Y-72668461D01*
X128535080Y-72771527D01*
X128544363Y-72775974D01*
X128751003Y-72854883D01*
X128760901Y-72857759D01*
X128977653Y-72901857D01*
X128987883Y-72903076D01*
X129208914Y-72911182D01*
X129219223Y-72910714D01*
X129438623Y-72882608D01*
X129448688Y-72880468D01*
X129660557Y-72816905D01*
X129670152Y-72813144D01*
X129868778Y-72715838D01*
X129877636Y-72710559D01*
X129935097Y-72669572D01*
X129943497Y-72658874D01*
X129936510Y-72645721D01*
X129162811Y-71872021D01*
X129148868Y-71864408D01*
X129147034Y-71864539D01*
X129140420Y-71868790D01*
X128360180Y-72649031D01*
X128353423Y-72661406D01*
X127407406Y-72661406D01*
X127522243Y-72579494D01*
X127686303Y-72416005D01*
X127777275Y-72289404D01*
X127833270Y-72245756D01*
X127903973Y-72239310D01*
X127966938Y-72272113D01*
X127972142Y-72278584D01*
X127990553Y-72295242D01*
X127999331Y-72291458D01*
X128777979Y-71512811D01*
X128785592Y-71498868D01*
X128785461Y-71497034D01*
X128781210Y-71490420D01*
X128003862Y-70713073D01*
X127992330Y-70706776D01*
X127964674Y-70728444D01*
X127963534Y-70726989D01*
X127929695Y-70754724D01*
X127859171Y-70762898D01*
X127795422Y-70731646D01*
X127774722Y-70707159D01*
X127732575Y-70642009D01*
X127732570Y-70642003D01*
X127729764Y-70637665D01*
X127573887Y-70466358D01*
X127569836Y-70463159D01*
X127569832Y-70463155D01*
X127414790Y-70340711D01*
X128355508Y-70340711D01*
X128362251Y-70353040D01*
X129137189Y-71127979D01*
X129151132Y-71135592D01*
X129152966Y-71135461D01*
X129159580Y-71131210D01*
X129938994Y-70351795D01*
X129946011Y-70338944D01*
X129938237Y-70328274D01*
X129935902Y-70326430D01*
X129927320Y-70320729D01*
X129733678Y-70213833D01*
X129724272Y-70209606D01*
X129515772Y-70135772D01*
X129505809Y-70133140D01*
X129288047Y-70094350D01*
X129277796Y-70093381D01*
X129056616Y-70090679D01*
X129046332Y-70091399D01*
X128827693Y-70124855D01*
X128817666Y-70127244D01*
X128607426Y-70195961D01*
X128597916Y-70199958D01*
X128401725Y-70302089D01*
X128393007Y-70307578D01*
X128363961Y-70329386D01*
X128355508Y-70340711D01*
X127414790Y-70340711D01*
X127396178Y-70326012D01*
X127396175Y-70326010D01*
X127392123Y-70322810D01*
X127310607Y-70277811D01*
X127260636Y-70227378D01*
X127245500Y-70167502D01*
X127245500Y-68794500D01*
X127265502Y-68726379D01*
X127319158Y-68679886D01*
X127371500Y-68668500D01*
X127408134Y-68668500D01*
X127470316Y-68661745D01*
X127606705Y-68610615D01*
X127723261Y-68523261D01*
X127729486Y-68514955D01*
X127730604Y-68514119D01*
X127734992Y-68509731D01*
X127735625Y-68510364D01*
X127786345Y-68472440D01*
X127857164Y-68467414D01*
X127919457Y-68501474D01*
X127931135Y-68514950D01*
X127931716Y-68515725D01*
X127944276Y-68528285D01*
X128046351Y-68604786D01*
X128061946Y-68613324D01*
X128182394Y-68658478D01*
X128197649Y-68662105D01*
X128248514Y-68667631D01*
X128255328Y-68668000D01*
X128827885Y-68668000D01*
X128843124Y-68663525D01*
X128844329Y-68662135D01*
X128846000Y-68654452D01*
X128846000Y-66432000D01*
X128866002Y-66363879D01*
X128919658Y-66317386D01*
X128972000Y-66306000D01*
X129228000Y-66306000D01*
X129296121Y-66326002D01*
X129342614Y-66379658D01*
X129354000Y-66432000D01*
X129354000Y-68649884D01*
X129358475Y-68665123D01*
X129359865Y-68666328D01*
X129367548Y-68667999D01*
X129944669Y-68667999D01*
X129951490Y-68667629D01*
X130002352Y-68662105D01*
X130017604Y-68658479D01*
X130138054Y-68613324D01*
X130153649Y-68604786D01*
X130255724Y-68528285D01*
X130268284Y-68515725D01*
X130268865Y-68514950D01*
X130269634Y-68514375D01*
X130274635Y-68509374D01*
X130275357Y-68510096D01*
X130325726Y-68472438D01*
X130396545Y-68467416D01*
X130458837Y-68501478D01*
X130470510Y-68514950D01*
X130476739Y-68523261D01*
X130593295Y-68610615D01*
X130729684Y-68661745D01*
X130791866Y-68668500D01*
X130932500Y-68668500D01*
X131000621Y-68688502D01*
X131047114Y-68742158D01*
X131058500Y-68794500D01*
X131058500Y-70164278D01*
X131038498Y-70232399D01*
X130990679Y-70276042D01*
X130936872Y-70304052D01*
X130751655Y-70443117D01*
X130591639Y-70610564D01*
X130575763Y-70633838D01*
X130524002Y-70709716D01*
X130469090Y-70754718D01*
X130398565Y-70762889D01*
X130334819Y-70731634D01*
X130324979Y-70719994D01*
X130308538Y-70705835D01*
X130298973Y-70710238D01*
X129522021Y-71487189D01*
X129514408Y-71501132D01*
X129514539Y-71502966D01*
X129518790Y-71509580D01*
X130296307Y-72287096D01*
X130308313Y-72293652D01*
X130334948Y-72273304D01*
X130335827Y-72274454D01*
X130372672Y-72245734D01*
X130443376Y-72239289D01*
X130506340Y-72272092D01*
X130526432Y-72297074D01*
X130546800Y-72330313D01*
X130546804Y-72330318D01*
X130549501Y-72334719D01*
X130701147Y-72509784D01*
X130879349Y-72657730D01*
X131079322Y-72774584D01*
X131295694Y-72857209D01*
X131300760Y-72858240D01*
X131300761Y-72858240D01*
X131333059Y-72864811D01*
X131522656Y-72903385D01*
X131653324Y-72908176D01*
X131748949Y-72911683D01*
X131748953Y-72911683D01*
X131754113Y-72911872D01*
X131759233Y-72911216D01*
X131759235Y-72911216D01*
X131847099Y-72899960D01*
X131983847Y-72882442D01*
X131988795Y-72880957D01*
X131988802Y-72880956D01*
X132200747Y-72817369D01*
X132205690Y-72815886D01*
X132287161Y-72775974D01*
X132409049Y-72716262D01*
X132409052Y-72716260D01*
X132413684Y-72713991D01*
X132602243Y-72579494D01*
X132766303Y-72416005D01*
X132769319Y-72411808D01*
X132769326Y-72411800D01*
X132856960Y-72289844D01*
X132912954Y-72246196D01*
X132983658Y-72239750D01*
X133046622Y-72272553D01*
X133066715Y-72297536D01*
X133086800Y-72330313D01*
X133086804Y-72330318D01*
X133089501Y-72334719D01*
X133241147Y-72509784D01*
X133419349Y-72657730D01*
X133619322Y-72774584D01*
X133835694Y-72857209D01*
X133840760Y-72858240D01*
X133840761Y-72858240D01*
X133873059Y-72864811D01*
X134062656Y-72903385D01*
X134193324Y-72908176D01*
X134288949Y-72911683D01*
X134288953Y-72911683D01*
X134294113Y-72911872D01*
X134299233Y-72911216D01*
X134299235Y-72911216D01*
X134387099Y-72899960D01*
X134523847Y-72882442D01*
X134528795Y-72880957D01*
X134528802Y-72880956D01*
X134740747Y-72817369D01*
X134745690Y-72815886D01*
X134827161Y-72775974D01*
X134949049Y-72716262D01*
X134949052Y-72716260D01*
X134953684Y-72713991D01*
X135142243Y-72579494D01*
X135306303Y-72416005D01*
X135309319Y-72411808D01*
X135309326Y-72411800D01*
X135396960Y-72289844D01*
X135452954Y-72246196D01*
X135523658Y-72239750D01*
X135586622Y-72272553D01*
X135606715Y-72297536D01*
X135626800Y-72330313D01*
X135626804Y-72330318D01*
X135629501Y-72334719D01*
X135781147Y-72509784D01*
X135959349Y-72657730D01*
X136159322Y-72774584D01*
X136375694Y-72857209D01*
X136380760Y-72858240D01*
X136380761Y-72858240D01*
X136413059Y-72864811D01*
X136602656Y-72903385D01*
X136733324Y-72908176D01*
X136828949Y-72911683D01*
X136828953Y-72911683D01*
X136834113Y-72911872D01*
X136839233Y-72911216D01*
X136839235Y-72911216D01*
X136927099Y-72899960D01*
X137063847Y-72882442D01*
X137068795Y-72880957D01*
X137068802Y-72880956D01*
X137280747Y-72817369D01*
X137285690Y-72815886D01*
X137367161Y-72775974D01*
X137489049Y-72716262D01*
X137489052Y-72716260D01*
X137493684Y-72713991D01*
X137682243Y-72579494D01*
X137846303Y-72416005D01*
X137849319Y-72411808D01*
X137849326Y-72411800D01*
X137936960Y-72289844D01*
X137992954Y-72246196D01*
X138063658Y-72239750D01*
X138126622Y-72272553D01*
X138146715Y-72297536D01*
X138166800Y-72330313D01*
X138166804Y-72330318D01*
X138169501Y-72334719D01*
X138321147Y-72509784D01*
X138499349Y-72657730D01*
X138699322Y-72774584D01*
X138915694Y-72857209D01*
X138920760Y-72858240D01*
X138920761Y-72858240D01*
X138953059Y-72864811D01*
X139142656Y-72903385D01*
X139273324Y-72908176D01*
X139368949Y-72911683D01*
X139368953Y-72911683D01*
X139374113Y-72911872D01*
X139379233Y-72911216D01*
X139379235Y-72911216D01*
X139467099Y-72899960D01*
X139603847Y-72882442D01*
X139608795Y-72880957D01*
X139608802Y-72880956D01*
X139820747Y-72817369D01*
X139825690Y-72815886D01*
X139907161Y-72775974D01*
X140029049Y-72716262D01*
X140029052Y-72716260D01*
X140033684Y-72713991D01*
X140107406Y-72661406D01*
X141053423Y-72661406D01*
X141058704Y-72668461D01*
X141235080Y-72771527D01*
X141244363Y-72775974D01*
X141451003Y-72854883D01*
X141460901Y-72857759D01*
X141677653Y-72901857D01*
X141687883Y-72903076D01*
X141908914Y-72911182D01*
X141919223Y-72910714D01*
X142138623Y-72882608D01*
X142148688Y-72880468D01*
X142360557Y-72816905D01*
X142370152Y-72813144D01*
X142568778Y-72715838D01*
X142577636Y-72710559D01*
X142635097Y-72669572D01*
X142643497Y-72658874D01*
X142636510Y-72645721D01*
X141862811Y-71872021D01*
X141848868Y-71864408D01*
X141847034Y-71864539D01*
X141840420Y-71868790D01*
X141060180Y-72649031D01*
X141053423Y-72661406D01*
X140107406Y-72661406D01*
X140222243Y-72579494D01*
X140386303Y-72416005D01*
X140477275Y-72289404D01*
X140533270Y-72245756D01*
X140603973Y-72239310D01*
X140666938Y-72272113D01*
X140672142Y-72278584D01*
X140690553Y-72295242D01*
X140699331Y-72291458D01*
X141477979Y-71512811D01*
X141485592Y-71498868D01*
X141485461Y-71497034D01*
X141481210Y-71490420D01*
X140703862Y-70713073D01*
X140692330Y-70706776D01*
X140664674Y-70728444D01*
X140663534Y-70726989D01*
X140629695Y-70754724D01*
X140559171Y-70762898D01*
X140495422Y-70731646D01*
X140474722Y-70707159D01*
X140432575Y-70642009D01*
X140432570Y-70642003D01*
X140429764Y-70637665D01*
X140273887Y-70466358D01*
X140269836Y-70463159D01*
X140269832Y-70463155D01*
X140114790Y-70340711D01*
X141055508Y-70340711D01*
X141062251Y-70353040D01*
X141837189Y-71127979D01*
X141851132Y-71135592D01*
X141852966Y-71135461D01*
X141859580Y-71131210D01*
X142638994Y-70351795D01*
X142646011Y-70338944D01*
X142638237Y-70328274D01*
X142635902Y-70326430D01*
X142627320Y-70320729D01*
X142433678Y-70213833D01*
X142424272Y-70209606D01*
X142215772Y-70135772D01*
X142205809Y-70133140D01*
X141988047Y-70094350D01*
X141977796Y-70093381D01*
X141756616Y-70090679D01*
X141746332Y-70091399D01*
X141527693Y-70124855D01*
X141517666Y-70127244D01*
X141307426Y-70195961D01*
X141297916Y-70199958D01*
X141101725Y-70302089D01*
X141093007Y-70307578D01*
X141063961Y-70329386D01*
X141055508Y-70340711D01*
X140114790Y-70340711D01*
X140096178Y-70326012D01*
X140096175Y-70326010D01*
X140092123Y-70322810D01*
X140010607Y-70277811D01*
X139960636Y-70227378D01*
X139945500Y-70167502D01*
X139945500Y-68794500D01*
X139965502Y-68726379D01*
X140019158Y-68679886D01*
X140071500Y-68668500D01*
X140108134Y-68668500D01*
X140170316Y-68661745D01*
X140306705Y-68610615D01*
X140423261Y-68523261D01*
X140429486Y-68514955D01*
X140430604Y-68514119D01*
X140434992Y-68509731D01*
X140435625Y-68510364D01*
X140486345Y-68472440D01*
X140557164Y-68467414D01*
X140619457Y-68501474D01*
X140631135Y-68514950D01*
X140631716Y-68515725D01*
X140644276Y-68528285D01*
X140746351Y-68604786D01*
X140761946Y-68613324D01*
X140882394Y-68658478D01*
X140897649Y-68662105D01*
X140948514Y-68667631D01*
X140955328Y-68668000D01*
X141527885Y-68668000D01*
X141543124Y-68663525D01*
X141544329Y-68662135D01*
X141546000Y-68654452D01*
X141546000Y-64470116D01*
X141541525Y-64454877D01*
X141540135Y-64453672D01*
X141532452Y-64452001D01*
X140955331Y-64452001D01*
X140948510Y-64452371D01*
X140897648Y-64457895D01*
X140882396Y-64461521D01*
X140761946Y-64506676D01*
X140746351Y-64515214D01*
X140644276Y-64591715D01*
X140631716Y-64604275D01*
X140631135Y-64605050D01*
X140630366Y-64605625D01*
X140625365Y-64610626D01*
X140624643Y-64609904D01*
X140574274Y-64647562D01*
X140503455Y-64652584D01*
X140441163Y-64618522D01*
X140429486Y-64605045D01*
X140428642Y-64603919D01*
X140423261Y-64596739D01*
X140306705Y-64509385D01*
X140170316Y-64458255D01*
X140108134Y-64451500D01*
X138411866Y-64451500D01*
X138349684Y-64458255D01*
X138213295Y-64509385D01*
X138096739Y-64596739D01*
X138090826Y-64604628D01*
X138090122Y-64605155D01*
X138085008Y-64610269D01*
X138084270Y-64609531D01*
X138033969Y-64647143D01*
X137963151Y-64652170D01*
X137900857Y-64618112D01*
X137889177Y-64604633D01*
X137883261Y-64596739D01*
X137766705Y-64509385D01*
X137630316Y-64458255D01*
X137568134Y-64451500D01*
X137149594Y-64451500D01*
X137081473Y-64431498D01*
X137060499Y-64414595D01*
X136868999Y-64223095D01*
X136834973Y-64160783D01*
X136840038Y-64089968D01*
X136882585Y-64033132D01*
X136949105Y-64008321D01*
X136958094Y-64008000D01*
X144191905Y-64008000D01*
X144260026Y-64028002D01*
G37*
%TD.AperFunction*%
%TA.AperFunction,Conductor*%
G36*
X136606598Y-92506573D02*
G01*
X136627572Y-92523476D01*
X137329595Y-93225499D01*
X137363621Y-93287811D01*
X137366500Y-93314594D01*
X137366500Y-95350319D01*
X137346498Y-95418440D01*
X137292842Y-95464933D01*
X137222568Y-95475037D01*
X137164936Y-95451146D01*
X137103648Y-95405213D01*
X137088054Y-95396676D01*
X136967606Y-95351522D01*
X136952351Y-95347895D01*
X136901486Y-95342369D01*
X136894672Y-95342000D01*
X136772115Y-95342000D01*
X136756876Y-95346475D01*
X136755671Y-95347865D01*
X136754000Y-95355548D01*
X136754000Y-97228000D01*
X136733998Y-97296121D01*
X136680342Y-97342614D01*
X136628000Y-97354000D01*
X136372000Y-97354000D01*
X136303879Y-97333998D01*
X136257386Y-97280342D01*
X136246000Y-97228000D01*
X136246000Y-95360116D01*
X136241525Y-95344877D01*
X136240135Y-95343672D01*
X136232452Y-95342001D01*
X136105331Y-95342001D01*
X136098510Y-95342371D01*
X136047648Y-95347895D01*
X136032396Y-95351521D01*
X135911946Y-95396676D01*
X135896352Y-95405214D01*
X135825982Y-95457953D01*
X135759476Y-95482801D01*
X135690093Y-95467748D01*
X135674852Y-95457953D01*
X135665769Y-95451146D01*
X135596705Y-95399385D01*
X135460316Y-95348255D01*
X135398134Y-95341500D01*
X134854749Y-95341500D01*
X134786628Y-95321498D01*
X134740135Y-95267842D01*
X134730031Y-95197568D01*
X134758295Y-95138819D01*
X134756499Y-95137514D01*
X134761158Y-95131101D01*
X134766586Y-95125321D01*
X134772732Y-95114142D01*
X134776346Y-95107568D01*
X134787199Y-95091045D01*
X134794753Y-95081306D01*
X134799613Y-95075041D01*
X134817176Y-95034457D01*
X134822383Y-95023827D01*
X134843695Y-94985060D01*
X134845666Y-94977383D01*
X134845668Y-94977378D01*
X134848732Y-94965442D01*
X134855138Y-94946730D01*
X134860033Y-94935419D01*
X134863181Y-94928145D01*
X134864421Y-94920317D01*
X134864423Y-94920310D01*
X134870099Y-94884476D01*
X134872505Y-94872856D01*
X134881528Y-94837711D01*
X134881528Y-94837710D01*
X134883500Y-94830030D01*
X134883500Y-94809776D01*
X134885051Y-94790065D01*
X134886980Y-94777886D01*
X134888220Y-94770057D01*
X134884059Y-94726038D01*
X134883500Y-94714181D01*
X134883500Y-93280095D01*
X134903502Y-93211974D01*
X134915858Y-93195792D01*
X134989040Y-93114515D01*
X135060912Y-92990029D01*
X135081223Y-92954850D01*
X135081224Y-92954849D01*
X135084527Y-92949127D01*
X135143542Y-92767499D01*
X135145049Y-92753164D01*
X135161210Y-92599400D01*
X135188223Y-92533744D01*
X135246445Y-92493114D01*
X135286520Y-92486571D01*
X136538477Y-92486571D01*
X136606598Y-92506573D01*
G37*
%TD.AperFunction*%
%TA.AperFunction,Conductor*%
G36*
X160986622Y-90052553D02*
G01*
X161006715Y-90077536D01*
X161026800Y-90110313D01*
X161026804Y-90110318D01*
X161029501Y-90114719D01*
X161181147Y-90289784D01*
X161295552Y-90384765D01*
X161346474Y-90427041D01*
X161386109Y-90485944D01*
X161391989Y-90523985D01*
X161391989Y-95215500D01*
X161371987Y-95283621D01*
X161318331Y-95330114D01*
X161265989Y-95341500D01*
X160801866Y-95341500D01*
X160739684Y-95348255D01*
X160603295Y-95399385D01*
X160534231Y-95451146D01*
X160525148Y-95457953D01*
X160458642Y-95482801D01*
X160389259Y-95467748D01*
X160374018Y-95457953D01*
X160303648Y-95405214D01*
X160288054Y-95396676D01*
X160167606Y-95351522D01*
X160152351Y-95347895D01*
X160101486Y-95342369D01*
X160094672Y-95342000D01*
X159972115Y-95342000D01*
X159956876Y-95346475D01*
X159955671Y-95347865D01*
X159954000Y-95355548D01*
X159954000Y-97228000D01*
X159933998Y-97296121D01*
X159880342Y-97342614D01*
X159828000Y-97354000D01*
X159572000Y-97354000D01*
X159503879Y-97333998D01*
X159457386Y-97280342D01*
X159446000Y-97228000D01*
X159446000Y-95360116D01*
X159441525Y-95344877D01*
X159440135Y-95343672D01*
X159432452Y-95342001D01*
X159305331Y-95342001D01*
X159298510Y-95342371D01*
X159247648Y-95347895D01*
X159232396Y-95351521D01*
X159111946Y-95396676D01*
X159096352Y-95405214D01*
X159025982Y-95457953D01*
X158959476Y-95482801D01*
X158890093Y-95467748D01*
X158874852Y-95457953D01*
X158865769Y-95451146D01*
X158796705Y-95399385D01*
X158660316Y-95348255D01*
X158598134Y-95341500D01*
X158134011Y-95341500D01*
X158065890Y-95321498D01*
X158019397Y-95267842D01*
X158008011Y-95215500D01*
X158008011Y-94190083D01*
X158028013Y-94121962D01*
X158044916Y-94100988D01*
X158642247Y-93503657D01*
X158650537Y-93496113D01*
X158657018Y-93492000D01*
X158703659Y-93442332D01*
X158706413Y-93439491D01*
X158726134Y-93419770D01*
X158728612Y-93416575D01*
X158736318Y-93407553D01*
X158761158Y-93381101D01*
X158766586Y-93375321D01*
X158776346Y-93357568D01*
X158787199Y-93341045D01*
X158794753Y-93331306D01*
X158799613Y-93325041D01*
X158817176Y-93284457D01*
X158822383Y-93273827D01*
X158843695Y-93235060D01*
X158845666Y-93227383D01*
X158845668Y-93227378D01*
X158848732Y-93215442D01*
X158855138Y-93196730D01*
X158855548Y-93195784D01*
X158863181Y-93178145D01*
X158870097Y-93134481D01*
X158872504Y-93122860D01*
X158881528Y-93087711D01*
X158881528Y-93087710D01*
X158883500Y-93080030D01*
X158883500Y-93059769D01*
X158885051Y-93040058D01*
X158886979Y-93027885D01*
X158888219Y-93020057D01*
X158884059Y-92976046D01*
X158883500Y-92964189D01*
X158883500Y-90685708D01*
X158903502Y-90617587D01*
X158957158Y-90571094D01*
X159027432Y-90560990D01*
X159054449Y-90567998D01*
X159130149Y-90596905D01*
X159235694Y-90637209D01*
X159240760Y-90638240D01*
X159240761Y-90638240D01*
X159262698Y-90642703D01*
X159462656Y-90683385D01*
X159593324Y-90688176D01*
X159688949Y-90691683D01*
X159688953Y-90691683D01*
X159694113Y-90691872D01*
X159699233Y-90691216D01*
X159699235Y-90691216D01*
X159816372Y-90676210D01*
X159923847Y-90662442D01*
X159928795Y-90660957D01*
X159928802Y-90660956D01*
X160140747Y-90597369D01*
X160145690Y-90595886D01*
X160157319Y-90590189D01*
X160349049Y-90496262D01*
X160349052Y-90496260D01*
X160353684Y-90493991D01*
X160542243Y-90359494D01*
X160706303Y-90196005D01*
X160709319Y-90191808D01*
X160709326Y-90191800D01*
X160796960Y-90069844D01*
X160852954Y-90026196D01*
X160923658Y-90019750D01*
X160986622Y-90052553D01*
G37*
%TD.AperFunction*%
%TA.AperFunction,Conductor*%
G36*
X127919457Y-87881474D02*
G01*
X127931135Y-87894950D01*
X127931716Y-87895725D01*
X127944276Y-87908285D01*
X128046351Y-87984786D01*
X128061946Y-87993324D01*
X128182394Y-88038478D01*
X128197649Y-88042105D01*
X128251911Y-88048000D01*
X128251793Y-88049090D01*
X128314452Y-88071228D01*
X128351252Y-88112930D01*
X128362251Y-88133040D01*
X129137189Y-88907979D01*
X129151132Y-88915592D01*
X129152966Y-88915461D01*
X129159580Y-88911210D01*
X129938993Y-88131796D01*
X129960365Y-88092657D01*
X130010567Y-88042455D01*
X130026722Y-88035061D01*
X130138054Y-87993324D01*
X130153649Y-87984786D01*
X130255724Y-87908285D01*
X130268284Y-87895725D01*
X130268865Y-87894950D01*
X130269634Y-87894375D01*
X130274635Y-87889374D01*
X130275357Y-87890096D01*
X130325726Y-87852438D01*
X130396545Y-87847416D01*
X130458837Y-87881478D01*
X130470510Y-87894950D01*
X130476739Y-87903261D01*
X130593295Y-87990615D01*
X130601703Y-87993767D01*
X130694710Y-88028634D01*
X130751474Y-88071276D01*
X130776174Y-88137837D01*
X130760966Y-88207186D01*
X130741577Y-88233663D01*
X130591639Y-88390564D01*
X130575763Y-88413838D01*
X130524002Y-88489716D01*
X130469090Y-88534718D01*
X130398565Y-88542889D01*
X130334819Y-88511634D01*
X130324979Y-88499994D01*
X130308538Y-88485835D01*
X130298973Y-88490238D01*
X129522021Y-89267189D01*
X129514408Y-89281132D01*
X129514539Y-89282966D01*
X129518790Y-89289580D01*
X130296307Y-90067096D01*
X130308313Y-90073652D01*
X130334948Y-90053304D01*
X130335827Y-90054454D01*
X130372672Y-90025734D01*
X130443376Y-90019289D01*
X130506340Y-90052092D01*
X130526432Y-90077074D01*
X130546800Y-90110313D01*
X130546804Y-90110318D01*
X130549501Y-90114719D01*
X130701147Y-90289784D01*
X130879349Y-90437730D01*
X131079322Y-90554584D01*
X131084147Y-90556426D01*
X131084148Y-90556427D01*
X131122557Y-90571094D01*
X131295694Y-90637209D01*
X131300760Y-90638240D01*
X131300761Y-90638240D01*
X131322698Y-90642703D01*
X131522656Y-90683385D01*
X131653324Y-90688176D01*
X131748949Y-90691683D01*
X131748953Y-90691683D01*
X131754113Y-90691872D01*
X131759233Y-90691216D01*
X131759235Y-90691216D01*
X131978719Y-90663099D01*
X131978720Y-90663099D01*
X131983847Y-90662442D01*
X131988798Y-90660957D01*
X131988801Y-90660956D01*
X132059985Y-90639600D01*
X132130980Y-90639184D01*
X132185287Y-90671191D01*
X132406343Y-90892247D01*
X132413887Y-90900537D01*
X132418000Y-90907018D01*
X132423777Y-90912443D01*
X132467667Y-90953658D01*
X132470509Y-90956413D01*
X132490231Y-90976135D01*
X132493355Y-90978558D01*
X132493359Y-90978562D01*
X132493424Y-90978612D01*
X132502445Y-90986317D01*
X132518848Y-91001720D01*
X132554814Y-91062932D01*
X132551977Y-91133872D01*
X132511237Y-91192017D01*
X132445530Y-91218905D01*
X132432596Y-91219571D01*
X126957665Y-91219571D01*
X126889544Y-91199569D01*
X126868570Y-91182666D01*
X126592248Y-90906344D01*
X126558222Y-90844032D01*
X126563287Y-90773217D01*
X126605834Y-90716381D01*
X126674119Y-90691922D01*
X126674113Y-90691872D01*
X126903847Y-90662442D01*
X126908795Y-90660957D01*
X126908802Y-90660956D01*
X127120747Y-90597369D01*
X127125690Y-90595886D01*
X127137319Y-90590189D01*
X127329049Y-90496262D01*
X127329052Y-90496260D01*
X127333684Y-90493991D01*
X127407406Y-90441406D01*
X128353423Y-90441406D01*
X128358704Y-90448461D01*
X128535080Y-90551527D01*
X128544363Y-90555974D01*
X128751003Y-90634883D01*
X128760901Y-90637759D01*
X128977653Y-90681857D01*
X128987883Y-90683076D01*
X129208914Y-90691182D01*
X129219223Y-90690714D01*
X129438623Y-90662608D01*
X129448688Y-90660468D01*
X129660557Y-90596905D01*
X129670152Y-90593144D01*
X129868778Y-90495838D01*
X129877636Y-90490559D01*
X129935097Y-90449572D01*
X129943497Y-90438874D01*
X129936510Y-90425721D01*
X129162811Y-89652021D01*
X129148868Y-89644408D01*
X129147034Y-89644539D01*
X129140420Y-89648790D01*
X128360180Y-90429031D01*
X128353423Y-90441406D01*
X127407406Y-90441406D01*
X127522243Y-90359494D01*
X127686303Y-90196005D01*
X127777275Y-90069404D01*
X127833270Y-90025756D01*
X127903973Y-90019310D01*
X127966938Y-90052113D01*
X127972142Y-90058584D01*
X127990553Y-90075242D01*
X127999331Y-90071458D01*
X128777979Y-89292811D01*
X128785592Y-89278868D01*
X128785461Y-89277034D01*
X128781210Y-89270420D01*
X128003862Y-88493073D01*
X127992330Y-88486776D01*
X127964674Y-88508444D01*
X127963534Y-88506989D01*
X127929695Y-88534724D01*
X127859171Y-88542898D01*
X127795422Y-88511646D01*
X127774722Y-88487159D01*
X127732575Y-88422009D01*
X127732570Y-88422003D01*
X127729764Y-88417665D01*
X127573887Y-88246358D01*
X127569246Y-88242693D01*
X127540167Y-88219727D01*
X127499105Y-88161810D01*
X127495873Y-88090887D01*
X127531499Y-88029476D01*
X127574032Y-88002864D01*
X127598293Y-87993769D01*
X127598296Y-87993767D01*
X127606705Y-87990615D01*
X127723261Y-87903261D01*
X127729486Y-87894955D01*
X127730604Y-87894119D01*
X127734992Y-87889731D01*
X127735625Y-87890364D01*
X127786345Y-87852440D01*
X127857164Y-87847414D01*
X127919457Y-87881474D01*
G37*
%TD.AperFunction*%
%TA.AperFunction,Conductor*%
G36*
X140619457Y-87881474D02*
G01*
X140631135Y-87894950D01*
X140631716Y-87895725D01*
X140644276Y-87908285D01*
X140746351Y-87984786D01*
X140761946Y-87993324D01*
X140882394Y-88038478D01*
X140897649Y-88042105D01*
X140951911Y-88048000D01*
X140951793Y-88049090D01*
X141014452Y-88071228D01*
X141051252Y-88112930D01*
X141062251Y-88133040D01*
X141837189Y-88907979D01*
X141851132Y-88915592D01*
X141852966Y-88915461D01*
X141859580Y-88911210D01*
X142638993Y-88131796D01*
X142660365Y-88092657D01*
X142710567Y-88042455D01*
X142726722Y-88035061D01*
X142838054Y-87993324D01*
X142853649Y-87984786D01*
X142955724Y-87908285D01*
X142968284Y-87895725D01*
X142968865Y-87894950D01*
X142969634Y-87894375D01*
X142974635Y-87889374D01*
X142975357Y-87890096D01*
X143025726Y-87852438D01*
X143096545Y-87847416D01*
X143158837Y-87881478D01*
X143170510Y-87894950D01*
X143176739Y-87903261D01*
X143293295Y-87990615D01*
X143301703Y-87993767D01*
X143394710Y-88028634D01*
X143451474Y-88071276D01*
X143476174Y-88137837D01*
X143460966Y-88207186D01*
X143441577Y-88233663D01*
X143291639Y-88390564D01*
X143275763Y-88413838D01*
X143224002Y-88489716D01*
X143169090Y-88534718D01*
X143098565Y-88542889D01*
X143034819Y-88511634D01*
X143024979Y-88499994D01*
X143008538Y-88485835D01*
X142998973Y-88490238D01*
X141939095Y-89550115D01*
X141876783Y-89584141D01*
X141805967Y-89579076D01*
X141760905Y-89550115D01*
X140703866Y-88493077D01*
X140692329Y-88486777D01*
X140664674Y-88508444D01*
X140663534Y-88506989D01*
X140629695Y-88534724D01*
X140559171Y-88542898D01*
X140495422Y-88511646D01*
X140474722Y-88487159D01*
X140432575Y-88422009D01*
X140432570Y-88422003D01*
X140429764Y-88417665D01*
X140273887Y-88246358D01*
X140269246Y-88242693D01*
X140240167Y-88219727D01*
X140199105Y-88161810D01*
X140195873Y-88090887D01*
X140231499Y-88029476D01*
X140274032Y-88002864D01*
X140298293Y-87993769D01*
X140298296Y-87993767D01*
X140306705Y-87990615D01*
X140423261Y-87903261D01*
X140429486Y-87894955D01*
X140430604Y-87894119D01*
X140434992Y-87889731D01*
X140435625Y-87890364D01*
X140486345Y-87852440D01*
X140557164Y-87847414D01*
X140619457Y-87881474D01*
G37*
%TD.AperFunction*%
%TA.AperFunction,Conductor*%
G36*
X148860956Y-72775208D02*
G01*
X149075694Y-72857209D01*
X149080760Y-72858240D01*
X149080761Y-72858240D01*
X149113059Y-72864811D01*
X149302656Y-72903385D01*
X149433324Y-72908176D01*
X149528949Y-72911683D01*
X149528953Y-72911683D01*
X149534113Y-72911872D01*
X149539233Y-72911216D01*
X149539235Y-72911216D01*
X149627099Y-72899960D01*
X149763847Y-72882442D01*
X149768801Y-72880956D01*
X149768809Y-72880954D01*
X149810753Y-72868370D01*
X149881748Y-72867952D01*
X149936056Y-72899960D01*
X150029595Y-72993499D01*
X150063621Y-73055811D01*
X150066500Y-73082594D01*
X150066500Y-77107929D01*
X150065973Y-77119112D01*
X150064298Y-77126605D01*
X150064547Y-77134531D01*
X150064547Y-77134532D01*
X150066438Y-77194682D01*
X150066500Y-77198641D01*
X150066500Y-77226552D01*
X150066997Y-77230486D01*
X150066997Y-77230487D01*
X150067005Y-77230552D01*
X150067938Y-77242389D01*
X150069327Y-77286585D01*
X150074978Y-77306035D01*
X150078987Y-77325396D01*
X150081526Y-77345493D01*
X150084445Y-77352864D01*
X150084445Y-77352866D01*
X150097804Y-77386608D01*
X150101649Y-77397838D01*
X150105875Y-77412384D01*
X150113982Y-77440289D01*
X150118015Y-77447108D01*
X150118017Y-77447113D01*
X150124293Y-77457724D01*
X150132988Y-77475472D01*
X150140448Y-77494313D01*
X150145110Y-77500729D01*
X150145110Y-77500730D01*
X150166436Y-77530083D01*
X150172952Y-77540003D01*
X150185609Y-77561404D01*
X150195458Y-77578058D01*
X150209779Y-77592379D01*
X150222619Y-77607412D01*
X150234528Y-77623803D01*
X150240634Y-77628854D01*
X150268605Y-77651994D01*
X150277384Y-77659984D01*
X155195084Y-82577684D01*
X155229110Y-82639996D01*
X155231989Y-82666779D01*
X155231989Y-83706000D01*
X155211987Y-83774121D01*
X155158331Y-83820614D01*
X155105989Y-83832000D01*
X154772115Y-83832000D01*
X154756876Y-83836475D01*
X154755671Y-83837865D01*
X154754000Y-83845548D01*
X154754000Y-86068000D01*
X154733998Y-86136121D01*
X154680342Y-86182614D01*
X154628000Y-86194000D01*
X154372000Y-86194000D01*
X154303879Y-86173998D01*
X154257386Y-86120342D01*
X154246000Y-86068000D01*
X154246000Y-83850116D01*
X154241525Y-83834877D01*
X154240135Y-83833672D01*
X154232452Y-83832001D01*
X154084989Y-83832001D01*
X154016868Y-83811999D01*
X153970375Y-83758343D01*
X153958989Y-83706001D01*
X153958989Y-82504256D01*
X153959516Y-82493073D01*
X153961191Y-82485580D01*
X153959051Y-82417503D01*
X153958989Y-82413544D01*
X153958989Y-82385633D01*
X153958484Y-82381633D01*
X153957551Y-82369790D01*
X153956411Y-82333518D01*
X153956162Y-82325599D01*
X153950511Y-82306147D01*
X153946503Y-82286795D01*
X153944956Y-82274552D01*
X153943963Y-82266692D01*
X153941045Y-82259321D01*
X153927689Y-82225586D01*
X153923844Y-82214359D01*
X153923210Y-82212176D01*
X153911507Y-82171896D01*
X153901196Y-82154461D01*
X153892501Y-82136713D01*
X153885041Y-82117872D01*
X153859053Y-82082102D01*
X153852537Y-82072182D01*
X153834069Y-82040954D01*
X153834067Y-82040951D01*
X153830031Y-82034127D01*
X153815710Y-82019806D01*
X153802869Y-82004772D01*
X153795620Y-81994795D01*
X153790961Y-81988382D01*
X153756884Y-81960191D01*
X153748105Y-81952201D01*
X148726916Y-76931011D01*
X148692890Y-76868699D01*
X148690011Y-76841916D01*
X148690011Y-72892919D01*
X148710013Y-72824798D01*
X148763669Y-72778305D01*
X148833943Y-72768201D01*
X148860956Y-72775208D01*
G37*
%TD.AperFunction*%
%TD*%
M02*
