%TF.GenerationSoftware,KiCad,Pcbnew,(6.0.1)*%
%TF.CreationDate,2022-04-02T11:09:09-06:00*%
%TF.ProjectId,PicoFlasher_Breakout_Board_V1.3_SMD,5069636f-466c-4617-9368-65725f427265,rev?*%
%TF.SameCoordinates,Original*%
%TF.FileFunction,Paste,Top*%
%TF.FilePolarity,Positive*%
%FSLAX46Y46*%
G04 Gerber Fmt 4.6, Leading zero omitted, Abs format (unit mm)*
G04 Created by KiCad (PCBNEW (6.0.1)) date 2022-04-02 11:09:09*
%MOMM*%
%LPD*%
G01*
G04 APERTURE LIST*
G04 Aperture macros list*
%AMRoundRect*
0 Rectangle with rounded corners*
0 $1 Rounding radius*
0 $2 $3 $4 $5 $6 $7 $8 $9 X,Y pos of 4 corners*
0 Add a 4 corners polygon primitive as box body*
4,1,4,$2,$3,$4,$5,$6,$7,$8,$9,$2,$3,0*
0 Add four circle primitives for the rounded corners*
1,1,$1+$1,$2,$3*
1,1,$1+$1,$4,$5*
1,1,$1+$1,$6,$7*
1,1,$1+$1,$8,$9*
0 Add four rect primitives between the rounded corners*
20,1,$1+$1,$2,$3,$4,$5,0*
20,1,$1+$1,$4,$5,$6,$7,0*
20,1,$1+$1,$6,$7,$8,$9,0*
20,1,$1+$1,$8,$9,$2,$3,0*%
G04 Aperture macros list end*
%ADD10RoundRect,0.250000X-0.450000X0.325000X-0.450000X-0.325000X0.450000X-0.325000X0.450000X0.325000X0*%
%ADD11R,0.700000X2.500000*%
%ADD12R,1.100000X1.900000*%
%ADD13R,1.600000X3.200000*%
%ADD14R,0.800000X0.500000*%
%ADD15R,0.800000X0.400000*%
G04 APERTURE END LIST*
D10*
%TO.C,D3*%
X98750000Y-97700000D03*
X98750000Y-99750000D03*
%TD*%
%TO.C,D2*%
X96550000Y-97700000D03*
X96550000Y-99750000D03*
%TD*%
D11*
%TO.C,J1*%
X152200000Y-97100000D03*
X153700000Y-97100000D03*
X155200000Y-97100000D03*
X156700000Y-97100000D03*
X158200000Y-97100000D03*
X159700000Y-97100000D03*
X161200000Y-97100000D03*
X162700000Y-97100000D03*
X164200000Y-97100000D03*
D12*
X150250000Y-100700000D03*
X166150000Y-100700000D03*
%TD*%
D13*
%TO.C,U1e*%
X172280000Y-66560000D03*
X169740000Y-66560000D03*
X167200000Y-66560000D03*
X164660000Y-66560000D03*
X162120000Y-66560000D03*
X159580000Y-66560000D03*
X157040000Y-66560000D03*
X154500000Y-66560000D03*
X151960000Y-66560000D03*
X149420000Y-66560000D03*
X146880000Y-66560000D03*
X144340000Y-66560000D03*
X141800000Y-66560000D03*
X139260000Y-66560000D03*
X136720000Y-66560000D03*
X134180000Y-66560000D03*
X131640000Y-66560000D03*
X129100000Y-66560000D03*
X126560000Y-66560000D03*
X124020000Y-66560000D03*
X124020000Y-85940000D03*
X126560000Y-85940000D03*
X129100000Y-85940000D03*
X131640000Y-85940000D03*
X134180000Y-85940000D03*
X136720000Y-85940000D03*
X139260000Y-85940000D03*
X141800000Y-85940000D03*
X144340000Y-85940000D03*
X146880000Y-85940000D03*
X149420000Y-85940000D03*
X151960000Y-85940000D03*
X154500000Y-85940000D03*
X157040000Y-85940000D03*
X159580000Y-85940000D03*
X162120000Y-85940000D03*
X164660000Y-85940000D03*
X167200000Y-85940000D03*
X169740000Y-85940000D03*
X172280000Y-85940000D03*
%TD*%
D14*
%TO.C,RN1*%
X92150000Y-99950000D03*
D15*
X92150000Y-99150000D03*
X92150000Y-98350000D03*
D14*
X92150000Y-97550000D03*
X90350000Y-97550000D03*
D15*
X90350000Y-98350000D03*
X90350000Y-99150000D03*
D14*
X90350000Y-99950000D03*
%TD*%
D10*
%TO.C,D4*%
X101050000Y-97700000D03*
X101050000Y-99750000D03*
%TD*%
D11*
%TO.C,J2*%
X133500000Y-97100000D03*
X135000000Y-97100000D03*
X136500000Y-97100000D03*
X138000000Y-97100000D03*
X139500000Y-97100000D03*
X141000000Y-97100000D03*
X142500000Y-97100000D03*
D12*
X144450000Y-100700000D03*
X131550000Y-100700000D03*
%TD*%
D10*
%TO.C,D1*%
X94375000Y-97700000D03*
X94375000Y-99750000D03*
%TD*%
D11*
%TO.C,J3*%
X105500000Y-97100000D03*
X107000000Y-97100000D03*
X108500000Y-97100000D03*
X110000000Y-97100000D03*
X111500000Y-97100000D03*
D12*
X113500000Y-100700000D03*
X103500000Y-100700000D03*
%TD*%
M02*
