%TF.GenerationSoftware,KiCad,Pcbnew,(6.0.1)*%
%TF.CreationDate,2022-03-18T23:49:21-06:00*%
%TF.ProjectId,PicoFlasher_Breakout_Board_V1.2,5069636f-466c-4617-9368-65725f427265,rev?*%
%TF.SameCoordinates,Original*%
%TF.FileFunction,Legend,Top*%
%TF.FilePolarity,Positive*%
%FSLAX46Y46*%
G04 Gerber Fmt 4.6, Leading zero omitted, Abs format (unit mm)*
G04 Created by KiCad (PCBNEW (6.0.1)) date 2022-03-18 23:49:21*
%MOMM*%
%LPD*%
G01*
G04 APERTURE LIST*
G04 Aperture macros list*
%AMRoundRect*
0 Rectangle with rounded corners*
0 $1 Rounding radius*
0 $2 $3 $4 $5 $6 $7 $8 $9 X,Y pos of 4 corners*
0 Add a 4 corners polygon primitive as box body*
4,1,4,$2,$3,$4,$5,$6,$7,$8,$9,$2,$3,0*
0 Add four circle primitives for the rounded corners*
1,1,$1+$1,$2,$3*
1,1,$1+$1,$4,$5*
1,1,$1+$1,$6,$7*
1,1,$1+$1,$8,$9*
0 Add four rect primitives between the rounded corners*
20,1,$1+$1,$2,$3,$4,$5,0*
20,1,$1+$1,$4,$5,$6,$7,0*
20,1,$1+$1,$6,$7,$8,$9,0*
20,1,$1+$1,$8,$9,$2,$3,0*%
G04 Aperture macros list end*
%ADD10C,0.150000*%
%ADD11C,0.075000*%
%ADD12C,0.100000*%
%ADD13C,0.120000*%
%ADD14C,0.300000*%
%ADD15C,0.254000*%
%ADD16C,0.200000*%
%ADD17C,0.127000*%
%ADD18C,0.500000*%
%ADD19RoundRect,0.250000X-0.450000X0.325000X-0.450000X-0.325000X0.450000X-0.325000X0.450000X0.325000X0*%
%ADD20C,2.200000*%
%ADD21R,1.200000X1.200000*%
%ADD22C,1.200000*%
%ADD23R,1.600000X3.200000*%
%ADD24R,0.800000X0.500000*%
%ADD25R,0.800000X0.400000*%
%ADD26R,1.208000X1.208000*%
%ADD27C,1.208000*%
%ADD28O,1.600000X2.000000*%
%ADD29R,1.238000X1.238000*%
%ADD30C,1.238000*%
%ADD31C,1.800000*%
G04 APERTURE END LIST*
D10*
X170150000Y-80850000D02*
X173462500Y-80850000D01*
D11*
X125045000Y-75480000D02*
X124740000Y-75480000D01*
D10*
X173000000Y-64500000D02*
X173500000Y-65000000D01*
D12*
X143850000Y-100340000D02*
X141560000Y-100340000D01*
D13*
X173500000Y-90000000D02*
X173000000Y-90500000D01*
D10*
X173462500Y-76150000D02*
X170150000Y-76150000D01*
D13*
X122500000Y-90000000D02*
X123000000Y-90500000D01*
X123000000Y-90500000D02*
X173000000Y-90500000D01*
D11*
X125022500Y-74450000D02*
X124717500Y-74450000D01*
D10*
X173000000Y-64500000D02*
X123000000Y-64500000D01*
D13*
X123000000Y-88200000D02*
X122500000Y-87700000D01*
X173025000Y-88150000D02*
X123750000Y-88200000D01*
X173525000Y-87650000D02*
X173025000Y-88150000D01*
D10*
X170150000Y-76150000D02*
X170150000Y-80850000D01*
D12*
X134140000Y-100340000D02*
X131850000Y-100340000D01*
D13*
X123750000Y-88200000D02*
X123000000Y-88200000D01*
D10*
X122500000Y-65000000D02*
X123000000Y-64500000D01*
X118000000Y-96647380D02*
X118000000Y-95647380D01*
X118380952Y-95647380D01*
X118476190Y-95695000D01*
X118523809Y-95742619D01*
X118571428Y-95837857D01*
X118571428Y-95980714D01*
X118523809Y-96075952D01*
X118476190Y-96123571D01*
X118380952Y-96171190D01*
X118000000Y-96171190D01*
X119000000Y-96647380D02*
X119000000Y-95980714D01*
X119000000Y-95647380D02*
X118952380Y-95695000D01*
X119000000Y-95742619D01*
X119047619Y-95695000D01*
X119000000Y-95647380D01*
X119000000Y-95742619D01*
X119904761Y-96599761D02*
X119809523Y-96647380D01*
X119619047Y-96647380D01*
X119523809Y-96599761D01*
X119476190Y-96552142D01*
X119428571Y-96456904D01*
X119428571Y-96171190D01*
X119476190Y-96075952D01*
X119523809Y-96028333D01*
X119619047Y-95980714D01*
X119809523Y-95980714D01*
X119904761Y-96028333D01*
X120476190Y-96647380D02*
X120380952Y-96599761D01*
X120333333Y-96552142D01*
X120285714Y-96456904D01*
X120285714Y-96171190D01*
X120333333Y-96075952D01*
X120380952Y-96028333D01*
X120476190Y-95980714D01*
X120619047Y-95980714D01*
X120714285Y-96028333D01*
X120761904Y-96075952D01*
X120809523Y-96171190D01*
X120809523Y-96456904D01*
X120761904Y-96552142D01*
X120714285Y-96599761D01*
X120619047Y-96647380D01*
X120476190Y-96647380D01*
X121571428Y-96123571D02*
X121238095Y-96123571D01*
X121238095Y-96647380D02*
X121238095Y-95647380D01*
X121714285Y-95647380D01*
X122238095Y-96647380D02*
X122142857Y-96599761D01*
X122095238Y-96504523D01*
X122095238Y-95647380D01*
X123047619Y-96647380D02*
X123047619Y-96123571D01*
X123000000Y-96028333D01*
X122904761Y-95980714D01*
X122714285Y-95980714D01*
X122619047Y-96028333D01*
X123047619Y-96599761D02*
X122952380Y-96647380D01*
X122714285Y-96647380D01*
X122619047Y-96599761D01*
X122571428Y-96504523D01*
X122571428Y-96409285D01*
X122619047Y-96314047D01*
X122714285Y-96266428D01*
X122952380Y-96266428D01*
X123047619Y-96218809D01*
X123476190Y-96599761D02*
X123571428Y-96647380D01*
X123761904Y-96647380D01*
X123857142Y-96599761D01*
X123904761Y-96504523D01*
X123904761Y-96456904D01*
X123857142Y-96361666D01*
X123761904Y-96314047D01*
X123619047Y-96314047D01*
X123523809Y-96266428D01*
X123476190Y-96171190D01*
X123476190Y-96123571D01*
X123523809Y-96028333D01*
X123619047Y-95980714D01*
X123761904Y-95980714D01*
X123857142Y-96028333D01*
X124333333Y-96647380D02*
X124333333Y-95647380D01*
X124761904Y-96647380D02*
X124761904Y-96123571D01*
X124714285Y-96028333D01*
X124619047Y-95980714D01*
X124476190Y-95980714D01*
X124380952Y-96028333D01*
X124333333Y-96075952D01*
X125619047Y-96599761D02*
X125523809Y-96647380D01*
X125333333Y-96647380D01*
X125238095Y-96599761D01*
X125190476Y-96504523D01*
X125190476Y-96123571D01*
X125238095Y-96028333D01*
X125333333Y-95980714D01*
X125523809Y-95980714D01*
X125619047Y-96028333D01*
X125666666Y-96123571D01*
X125666666Y-96218809D01*
X125190476Y-96314047D01*
X126095238Y-96647380D02*
X126095238Y-95980714D01*
X126095238Y-96171190D02*
X126142857Y-96075952D01*
X126190476Y-96028333D01*
X126285714Y-95980714D01*
X126380952Y-95980714D01*
X115285714Y-97733571D02*
X115428571Y-97781190D01*
X115476190Y-97828809D01*
X115523809Y-97924047D01*
X115523809Y-98066904D01*
X115476190Y-98162142D01*
X115428571Y-98209761D01*
X115333333Y-98257380D01*
X114952380Y-98257380D01*
X114952380Y-97257380D01*
X115285714Y-97257380D01*
X115380952Y-97305000D01*
X115428571Y-97352619D01*
X115476190Y-97447857D01*
X115476190Y-97543095D01*
X115428571Y-97638333D01*
X115380952Y-97685952D01*
X115285714Y-97733571D01*
X114952380Y-97733571D01*
X115952380Y-98257380D02*
X115952380Y-97590714D01*
X115952380Y-97781190D02*
X116000000Y-97685952D01*
X116047619Y-97638333D01*
X116142857Y-97590714D01*
X116238095Y-97590714D01*
X116952380Y-98209761D02*
X116857142Y-98257380D01*
X116666666Y-98257380D01*
X116571428Y-98209761D01*
X116523809Y-98114523D01*
X116523809Y-97733571D01*
X116571428Y-97638333D01*
X116666666Y-97590714D01*
X116857142Y-97590714D01*
X116952380Y-97638333D01*
X117000000Y-97733571D01*
X117000000Y-97828809D01*
X116523809Y-97924047D01*
X117857142Y-98257380D02*
X117857142Y-97733571D01*
X117809523Y-97638333D01*
X117714285Y-97590714D01*
X117523809Y-97590714D01*
X117428571Y-97638333D01*
X117857142Y-98209761D02*
X117761904Y-98257380D01*
X117523809Y-98257380D01*
X117428571Y-98209761D01*
X117380952Y-98114523D01*
X117380952Y-98019285D01*
X117428571Y-97924047D01*
X117523809Y-97876428D01*
X117761904Y-97876428D01*
X117857142Y-97828809D01*
X118333333Y-98257380D02*
X118333333Y-97257380D01*
X118428571Y-97876428D02*
X118714285Y-98257380D01*
X118714285Y-97590714D02*
X118333333Y-97971666D01*
X119285714Y-98257380D02*
X119190476Y-98209761D01*
X119142857Y-98162142D01*
X119095238Y-98066904D01*
X119095238Y-97781190D01*
X119142857Y-97685952D01*
X119190476Y-97638333D01*
X119285714Y-97590714D01*
X119428571Y-97590714D01*
X119523809Y-97638333D01*
X119571428Y-97685952D01*
X119619047Y-97781190D01*
X119619047Y-98066904D01*
X119571428Y-98162142D01*
X119523809Y-98209761D01*
X119428571Y-98257380D01*
X119285714Y-98257380D01*
X120476190Y-97590714D02*
X120476190Y-98257380D01*
X120047619Y-97590714D02*
X120047619Y-98114523D01*
X120095238Y-98209761D01*
X120190476Y-98257380D01*
X120333333Y-98257380D01*
X120428571Y-98209761D01*
X120476190Y-98162142D01*
X120809523Y-97590714D02*
X121190476Y-97590714D01*
X120952380Y-97257380D02*
X120952380Y-98114523D01*
X121000000Y-98209761D01*
X121095238Y-98257380D01*
X121190476Y-98257380D01*
X122619047Y-97733571D02*
X122761904Y-97781190D01*
X122809523Y-97828809D01*
X122857142Y-97924047D01*
X122857142Y-98066904D01*
X122809523Y-98162142D01*
X122761904Y-98209761D01*
X122666666Y-98257380D01*
X122285714Y-98257380D01*
X122285714Y-97257380D01*
X122619047Y-97257380D01*
X122714285Y-97305000D01*
X122761904Y-97352619D01*
X122809523Y-97447857D01*
X122809523Y-97543095D01*
X122761904Y-97638333D01*
X122714285Y-97685952D01*
X122619047Y-97733571D01*
X122285714Y-97733571D01*
X123428571Y-98257380D02*
X123333333Y-98209761D01*
X123285714Y-98162142D01*
X123238095Y-98066904D01*
X123238095Y-97781190D01*
X123285714Y-97685952D01*
X123333333Y-97638333D01*
X123428571Y-97590714D01*
X123571428Y-97590714D01*
X123666666Y-97638333D01*
X123714285Y-97685952D01*
X123761904Y-97781190D01*
X123761904Y-98066904D01*
X123714285Y-98162142D01*
X123666666Y-98209761D01*
X123571428Y-98257380D01*
X123428571Y-98257380D01*
X124619047Y-98257380D02*
X124619047Y-97733571D01*
X124571428Y-97638333D01*
X124476190Y-97590714D01*
X124285714Y-97590714D01*
X124190476Y-97638333D01*
X124619047Y-98209761D02*
X124523809Y-98257380D01*
X124285714Y-98257380D01*
X124190476Y-98209761D01*
X124142857Y-98114523D01*
X124142857Y-98019285D01*
X124190476Y-97924047D01*
X124285714Y-97876428D01*
X124523809Y-97876428D01*
X124619047Y-97828809D01*
X125095238Y-98257380D02*
X125095238Y-97590714D01*
X125095238Y-97781190D02*
X125142857Y-97685952D01*
X125190476Y-97638333D01*
X125285714Y-97590714D01*
X125380952Y-97590714D01*
X126142857Y-98257380D02*
X126142857Y-97257380D01*
X126142857Y-98209761D02*
X126047619Y-98257380D01*
X125857142Y-98257380D01*
X125761904Y-98209761D01*
X125714285Y-98162142D01*
X125666666Y-98066904D01*
X125666666Y-97781190D01*
X125714285Y-97685952D01*
X125761904Y-97638333D01*
X125857142Y-97590714D01*
X126047619Y-97590714D01*
X126142857Y-97638333D01*
X127285714Y-97590714D02*
X127523809Y-98257380D01*
X127761904Y-97590714D01*
X128666666Y-98257380D02*
X128095238Y-98257380D01*
X128380952Y-98257380D02*
X128380952Y-97257380D01*
X128285714Y-97400238D01*
X128190476Y-97495476D01*
X128095238Y-97543095D01*
X129095238Y-98162142D02*
X129142857Y-98209761D01*
X129095238Y-98257380D01*
X129047619Y-98209761D01*
X129095238Y-98162142D01*
X129095238Y-98257380D01*
X129523809Y-97352619D02*
X129571428Y-97305000D01*
X129666666Y-97257380D01*
X129904761Y-97257380D01*
X130000000Y-97305000D01*
X130047619Y-97352619D01*
X130095238Y-97447857D01*
X130095238Y-97543095D01*
X130047619Y-97685952D01*
X129476190Y-98257380D01*
X130095238Y-98257380D01*
D12*
X167660714Y-69500000D02*
X167660714Y-69964285D01*
X167375000Y-69714285D01*
X167375000Y-69821428D01*
X167339285Y-69892857D01*
X167303571Y-69928571D01*
X167232142Y-69964285D01*
X167053571Y-69964285D01*
X166982142Y-69928571D01*
X166946428Y-69892857D01*
X166910714Y-69821428D01*
X166910714Y-69607142D01*
X166946428Y-69535714D01*
X166982142Y-69500000D01*
D11*
X165633333Y-97026190D02*
X165633333Y-97383333D01*
X165609523Y-97454761D01*
X165561904Y-97502380D01*
X165490476Y-97526190D01*
X165442857Y-97526190D01*
X165847619Y-97073809D02*
X165871428Y-97050000D01*
X165919047Y-97026190D01*
X166038095Y-97026190D01*
X166085714Y-97050000D01*
X166109523Y-97073809D01*
X166133333Y-97121428D01*
X166133333Y-97169047D01*
X166109523Y-97240476D01*
X165823809Y-97526190D01*
X166133333Y-97526190D01*
D12*
X142546428Y-94670714D02*
X142515476Y-94763571D01*
X142484523Y-94794523D01*
X142422619Y-94825476D01*
X142329761Y-94825476D01*
X142267857Y-94794523D01*
X142236904Y-94763571D01*
X142205952Y-94701666D01*
X142205952Y-94454047D01*
X142855952Y-94454047D01*
X142855952Y-94670714D01*
X142825000Y-94732619D01*
X142794047Y-94763571D01*
X142732142Y-94794523D01*
X142670238Y-94794523D01*
X142608333Y-94763571D01*
X142577380Y-94732619D01*
X142546428Y-94670714D01*
X142546428Y-94454047D01*
X142205952Y-95196904D02*
X142236904Y-95135000D01*
X142298809Y-95104047D01*
X142855952Y-95104047D01*
X142639285Y-95723095D02*
X142205952Y-95723095D01*
X142639285Y-95444523D02*
X142298809Y-95444523D01*
X142236904Y-95475476D01*
X142205952Y-95537380D01*
X142205952Y-95630238D01*
X142236904Y-95692142D01*
X142267857Y-95723095D01*
X142236904Y-96280238D02*
X142205952Y-96218333D01*
X142205952Y-96094523D01*
X142236904Y-96032619D01*
X142298809Y-96001666D01*
X142546428Y-96001666D01*
X142608333Y-96032619D01*
X142639285Y-96094523D01*
X142639285Y-96218333D01*
X142608333Y-96280238D01*
X142546428Y-96311190D01*
X142484523Y-96311190D01*
X142422619Y-96001666D01*
X159960714Y-81932142D02*
X159210714Y-82182142D01*
X159960714Y-82432142D01*
X159210714Y-82682142D02*
X159710714Y-82682142D01*
X159567857Y-82682142D02*
X159639285Y-82717857D01*
X159675000Y-82753571D01*
X159710714Y-82825000D01*
X159710714Y-82896428D01*
X159246428Y-83432142D02*
X159210714Y-83360714D01*
X159210714Y-83217857D01*
X159246428Y-83146428D01*
X159317857Y-83110714D01*
X159603571Y-83110714D01*
X159675000Y-83146428D01*
X159710714Y-83217857D01*
X159710714Y-83360714D01*
X159675000Y-83432142D01*
X159603571Y-83467857D01*
X159532142Y-83467857D01*
X159460714Y-83110714D01*
X159710714Y-83682142D02*
X159710714Y-83967857D01*
X159210714Y-83789285D02*
X159853571Y-83789285D01*
X159925000Y-83825000D01*
X159960714Y-83896428D01*
X159960714Y-83967857D01*
X158505952Y-95165952D02*
X158815476Y-94949285D01*
X158505952Y-94794523D02*
X159155952Y-94794523D01*
X159155952Y-95042142D01*
X159125000Y-95104047D01*
X159094047Y-95135000D01*
X159032142Y-95165952D01*
X158939285Y-95165952D01*
X158877380Y-95135000D01*
X158846428Y-95104047D01*
X158815476Y-95042142D01*
X158815476Y-94794523D01*
X158536904Y-95692142D02*
X158505952Y-95630238D01*
X158505952Y-95506428D01*
X158536904Y-95444523D01*
X158598809Y-95413571D01*
X158846428Y-95413571D01*
X158908333Y-95444523D01*
X158939285Y-95506428D01*
X158939285Y-95630238D01*
X158908333Y-95692142D01*
X158846428Y-95723095D01*
X158784523Y-95723095D01*
X158722619Y-95413571D01*
X158505952Y-96280238D02*
X159155952Y-96280238D01*
X158536904Y-96280238D02*
X158505952Y-96218333D01*
X158505952Y-96094523D01*
X158536904Y-96032619D01*
X158567857Y-96001666D01*
X158629761Y-95970714D01*
X158815476Y-95970714D01*
X158877380Y-96001666D01*
X158908333Y-96032619D01*
X158939285Y-96094523D01*
X158939285Y-96218333D01*
X158908333Y-96280238D01*
X164725000Y-73464285D02*
X164760714Y-73392857D01*
X164760714Y-73285714D01*
X164725000Y-73178571D01*
X164653571Y-73107142D01*
X164582142Y-73071428D01*
X164439285Y-73035714D01*
X164332142Y-73035714D01*
X164189285Y-73071428D01*
X164117857Y-73107142D01*
X164046428Y-73178571D01*
X164010714Y-73285714D01*
X164010714Y-73357142D01*
X164046428Y-73464285D01*
X164082142Y-73500000D01*
X164332142Y-73500000D01*
X164332142Y-73357142D01*
X164010714Y-73821428D02*
X164760714Y-73821428D01*
X164760714Y-74107142D01*
X164725000Y-74178571D01*
X164689285Y-74214285D01*
X164617857Y-74250000D01*
X164510714Y-74250000D01*
X164439285Y-74214285D01*
X164403571Y-74178571D01*
X164367857Y-74107142D01*
X164367857Y-73821428D01*
X164689285Y-74535714D02*
X164725000Y-74571428D01*
X164760714Y-74642857D01*
X164760714Y-74821428D01*
X164725000Y-74892857D01*
X164689285Y-74928571D01*
X164617857Y-74964285D01*
X164546428Y-74964285D01*
X164439285Y-74928571D01*
X164010714Y-74500000D01*
X164010714Y-74964285D01*
X155915476Y-93649285D02*
X155605952Y-93649285D01*
X156255952Y-93432619D02*
X155915476Y-93649285D01*
X156255952Y-93865952D01*
X155636904Y-94330238D02*
X155605952Y-94268333D01*
X155605952Y-94144523D01*
X155636904Y-94082619D01*
X155698809Y-94051666D01*
X155946428Y-94051666D01*
X156008333Y-94082619D01*
X156039285Y-94144523D01*
X156039285Y-94268333D01*
X156008333Y-94330238D01*
X155946428Y-94361190D01*
X155884523Y-94361190D01*
X155822619Y-94051666D01*
X155605952Y-94732619D02*
X155636904Y-94670714D01*
X155698809Y-94639761D01*
X156255952Y-94639761D01*
X155605952Y-95073095D02*
X155636904Y-95011190D01*
X155698809Y-94980238D01*
X156255952Y-94980238D01*
X155605952Y-95413571D02*
X155636904Y-95351666D01*
X155667857Y-95320714D01*
X155729761Y-95289761D01*
X155915476Y-95289761D01*
X155977380Y-95320714D01*
X156008333Y-95351666D01*
X156039285Y-95413571D01*
X156039285Y-95506428D01*
X156008333Y-95568333D01*
X155977380Y-95599285D01*
X155915476Y-95630238D01*
X155729761Y-95630238D01*
X155667857Y-95599285D01*
X155636904Y-95568333D01*
X155605952Y-95506428D01*
X155605952Y-95413571D01*
X156039285Y-95846904D02*
X155605952Y-95970714D01*
X155915476Y-96094523D01*
X155605952Y-96218333D01*
X156039285Y-96342142D01*
X163057857Y-95544047D02*
X163491190Y-96194047D01*
X163491190Y-95544047D02*
X163057857Y-96194047D01*
X133825000Y-94175476D02*
X133855952Y-94113571D01*
X133855952Y-94020714D01*
X133825000Y-93927857D01*
X133763095Y-93865952D01*
X133701190Y-93835000D01*
X133577380Y-93804047D01*
X133484523Y-93804047D01*
X133360714Y-93835000D01*
X133298809Y-93865952D01*
X133236904Y-93927857D01*
X133205952Y-94020714D01*
X133205952Y-94082619D01*
X133236904Y-94175476D01*
X133267857Y-94206428D01*
X133484523Y-94206428D01*
X133484523Y-94082619D01*
X133205952Y-94485000D02*
X133639285Y-94485000D01*
X133515476Y-94485000D02*
X133577380Y-94515952D01*
X133608333Y-94546904D01*
X133639285Y-94608809D01*
X133639285Y-94670714D01*
X133236904Y-95135000D02*
X133205952Y-95073095D01*
X133205952Y-94949285D01*
X133236904Y-94887380D01*
X133298809Y-94856428D01*
X133546428Y-94856428D01*
X133608333Y-94887380D01*
X133639285Y-94949285D01*
X133639285Y-95073095D01*
X133608333Y-95135000D01*
X133546428Y-95165952D01*
X133484523Y-95165952D01*
X133422619Y-94856428D01*
X133236904Y-95692142D02*
X133205952Y-95630238D01*
X133205952Y-95506428D01*
X133236904Y-95444523D01*
X133298809Y-95413571D01*
X133546428Y-95413571D01*
X133608333Y-95444523D01*
X133639285Y-95506428D01*
X133639285Y-95630238D01*
X133608333Y-95692142D01*
X133546428Y-95723095D01*
X133484523Y-95723095D01*
X133422619Y-95413571D01*
X133639285Y-96001666D02*
X133205952Y-96001666D01*
X133577380Y-96001666D02*
X133608333Y-96032619D01*
X133639285Y-96094523D01*
X133639285Y-96187380D01*
X133608333Y-96249285D01*
X133546428Y-96280238D01*
X133205952Y-96280238D01*
X137139285Y-88653571D02*
X137175000Y-88689285D01*
X137210714Y-88760714D01*
X137210714Y-88939285D01*
X137175000Y-89010714D01*
X137139285Y-89046428D01*
X137067857Y-89082142D01*
X136996428Y-89082142D01*
X136889285Y-89046428D01*
X136460714Y-88617857D01*
X136460714Y-89082142D01*
X137210714Y-89725000D02*
X137210714Y-89582142D01*
X137175000Y-89510714D01*
X137139285Y-89475000D01*
X137032142Y-89403571D01*
X136889285Y-89367857D01*
X136603571Y-89367857D01*
X136532142Y-89403571D01*
X136496428Y-89439285D01*
X136460714Y-89510714D01*
X136460714Y-89653571D01*
X136496428Y-89725000D01*
X136532142Y-89760714D01*
X136603571Y-89796428D01*
X136782142Y-89796428D01*
X136853571Y-89760714D01*
X136889285Y-89725000D01*
X136925000Y-89653571D01*
X136925000Y-89510714D01*
X136889285Y-89439285D01*
X136853571Y-89403571D01*
X136782142Y-89367857D01*
X154589285Y-69678571D02*
X154625000Y-69607142D01*
X154660714Y-69571428D01*
X154732142Y-69535714D01*
X154767857Y-69535714D01*
X154839285Y-69571428D01*
X154875000Y-69607142D01*
X154910714Y-69678571D01*
X154910714Y-69821428D01*
X154875000Y-69892857D01*
X154839285Y-69928571D01*
X154767857Y-69964285D01*
X154732142Y-69964285D01*
X154660714Y-69928571D01*
X154625000Y-69892857D01*
X154589285Y-69821428D01*
X154589285Y-69678571D01*
X154553571Y-69607142D01*
X154517857Y-69571428D01*
X154446428Y-69535714D01*
X154303571Y-69535714D01*
X154232142Y-69571428D01*
X154196428Y-69607142D01*
X154160714Y-69678571D01*
X154160714Y-69821428D01*
X154196428Y-69892857D01*
X154232142Y-69928571D01*
X154303571Y-69964285D01*
X154446428Y-69964285D01*
X154517857Y-69928571D01*
X154553571Y-69892857D01*
X154589285Y-69821428D01*
X172510714Y-89010714D02*
X172010714Y-89010714D01*
X172796428Y-88832142D02*
X172260714Y-88653571D01*
X172260714Y-89117857D01*
X172760714Y-89546428D02*
X172760714Y-89617857D01*
X172725000Y-89689285D01*
X172689285Y-89725000D01*
X172617857Y-89760714D01*
X172475000Y-89796428D01*
X172296428Y-89796428D01*
X172153571Y-89760714D01*
X172082142Y-89725000D01*
X172046428Y-89689285D01*
X172010714Y-89617857D01*
X172010714Y-89546428D01*
X172046428Y-89475000D01*
X172082142Y-89439285D01*
X172153571Y-89403571D01*
X172296428Y-89367857D01*
X172475000Y-89367857D01*
X172617857Y-89403571D01*
X172689285Y-89439285D01*
X172725000Y-89475000D01*
X172760714Y-89546428D01*
X160060714Y-88617857D02*
X160060714Y-89082142D01*
X159775000Y-88832142D01*
X159775000Y-88939285D01*
X159739285Y-89010714D01*
X159703571Y-89046428D01*
X159632142Y-89082142D01*
X159453571Y-89082142D01*
X159382142Y-89046428D01*
X159346428Y-89010714D01*
X159310714Y-88939285D01*
X159310714Y-88725000D01*
X159346428Y-88653571D01*
X159382142Y-88617857D01*
X160060714Y-89760714D02*
X160060714Y-89403571D01*
X159703571Y-89367857D01*
X159739285Y-89403571D01*
X159775000Y-89475000D01*
X159775000Y-89653571D01*
X159739285Y-89725000D01*
X159703571Y-89760714D01*
X159632142Y-89796428D01*
X159453571Y-89796428D01*
X159382142Y-89760714D01*
X159346428Y-89725000D01*
X159310714Y-89653571D01*
X159310714Y-89475000D01*
X159346428Y-89403571D01*
X159382142Y-89367857D01*
D11*
X96159523Y-102251190D02*
X95992857Y-102013095D01*
X95873809Y-102251190D02*
X95873809Y-101751190D01*
X96064285Y-101751190D01*
X96111904Y-101775000D01*
X96135714Y-101798809D01*
X96159523Y-101846428D01*
X96159523Y-101917857D01*
X96135714Y-101965476D01*
X96111904Y-101989285D01*
X96064285Y-102013095D01*
X95873809Y-102013095D01*
X96564285Y-102227380D02*
X96516666Y-102251190D01*
X96421428Y-102251190D01*
X96373809Y-102227380D01*
X96350000Y-102179761D01*
X96350000Y-101989285D01*
X96373809Y-101941666D01*
X96421428Y-101917857D01*
X96516666Y-101917857D01*
X96564285Y-101941666D01*
X96588095Y-101989285D01*
X96588095Y-102036904D01*
X96350000Y-102084523D01*
X97016666Y-102251190D02*
X97016666Y-101989285D01*
X96992857Y-101941666D01*
X96945238Y-101917857D01*
X96850000Y-101917857D01*
X96802380Y-101941666D01*
X97016666Y-102227380D02*
X96969047Y-102251190D01*
X96850000Y-102251190D01*
X96802380Y-102227380D01*
X96778571Y-102179761D01*
X96778571Y-102132142D01*
X96802380Y-102084523D01*
X96850000Y-102060714D01*
X96969047Y-102060714D01*
X97016666Y-102036904D01*
X97469047Y-102251190D02*
X97469047Y-101751190D01*
X97469047Y-102227380D02*
X97421428Y-102251190D01*
X97326190Y-102251190D01*
X97278571Y-102227380D01*
X97254761Y-102203571D01*
X97230952Y-102155952D01*
X97230952Y-102013095D01*
X97254761Y-101965476D01*
X97278571Y-101941666D01*
X97326190Y-101917857D01*
X97421428Y-101917857D01*
X97469047Y-101941666D01*
X98064285Y-101727380D02*
X97635714Y-102370238D01*
X98183333Y-101751190D02*
X98302380Y-102251190D01*
X98397619Y-101894047D01*
X98492857Y-102251190D01*
X98611904Y-101751190D01*
X98802380Y-102251190D02*
X98802380Y-101917857D01*
X98802380Y-102013095D02*
X98826190Y-101965476D01*
X98850000Y-101941666D01*
X98897619Y-101917857D01*
X98945238Y-101917857D01*
X99111904Y-102251190D02*
X99111904Y-101917857D01*
X99111904Y-101751190D02*
X99088095Y-101775000D01*
X99111904Y-101798809D01*
X99135714Y-101775000D01*
X99111904Y-101751190D01*
X99111904Y-101798809D01*
X99278571Y-101917857D02*
X99469047Y-101917857D01*
X99350000Y-101751190D02*
X99350000Y-102179761D01*
X99373809Y-102227380D01*
X99421428Y-102251190D01*
X99469047Y-102251190D01*
X99826190Y-102227380D02*
X99778571Y-102251190D01*
X99683333Y-102251190D01*
X99635714Y-102227380D01*
X99611904Y-102179761D01*
X99611904Y-101989285D01*
X99635714Y-101941666D01*
X99683333Y-101917857D01*
X99778571Y-101917857D01*
X99826190Y-101941666D01*
X99850000Y-101989285D01*
X99850000Y-102036904D01*
X99611904Y-102084523D01*
D12*
X167625000Y-73517857D02*
X167660714Y-73446428D01*
X167660714Y-73339285D01*
X167625000Y-73232142D01*
X167553571Y-73160714D01*
X167482142Y-73125000D01*
X167339285Y-73089285D01*
X167232142Y-73089285D01*
X167089285Y-73125000D01*
X167017857Y-73160714D01*
X166946428Y-73232142D01*
X166910714Y-73339285D01*
X166910714Y-73410714D01*
X166946428Y-73517857D01*
X166982142Y-73553571D01*
X167232142Y-73553571D01*
X167232142Y-73410714D01*
X167410714Y-73875000D02*
X166910714Y-73875000D01*
X167339285Y-73875000D02*
X167375000Y-73910714D01*
X167410714Y-73982142D01*
X167410714Y-74089285D01*
X167375000Y-74160714D01*
X167303571Y-74196428D01*
X166910714Y-74196428D01*
X166910714Y-74875000D02*
X167660714Y-74875000D01*
X166946428Y-74875000D02*
X166910714Y-74803571D01*
X166910714Y-74660714D01*
X166946428Y-74589285D01*
X166982142Y-74553571D01*
X167053571Y-74517857D01*
X167267857Y-74517857D01*
X167339285Y-74553571D01*
X167375000Y-74589285D01*
X167410714Y-74660714D01*
X167410714Y-74803571D01*
X167375000Y-74875000D01*
X149160714Y-69557142D02*
X149160714Y-69128571D01*
X149160714Y-69342857D02*
X149910714Y-69342857D01*
X149803571Y-69271428D01*
X149732142Y-69200000D01*
X149696428Y-69128571D01*
X149910714Y-70021428D02*
X149910714Y-70092857D01*
X149875000Y-70164285D01*
X149839285Y-70200000D01*
X149767857Y-70235714D01*
X149625000Y-70271428D01*
X149446428Y-70271428D01*
X149303571Y-70235714D01*
X149232142Y-70200000D01*
X149196428Y-70164285D01*
X149160714Y-70092857D01*
X149160714Y-70021428D01*
X149196428Y-69950000D01*
X149232142Y-69914285D01*
X149303571Y-69878571D01*
X149446428Y-69842857D01*
X149625000Y-69842857D01*
X149767857Y-69878571D01*
X149839285Y-69914285D01*
X149875000Y-69950000D01*
X149910714Y-70021428D01*
D10*
X154946428Y-92654761D02*
X154851190Y-92702380D01*
X154660714Y-92702380D01*
X154565476Y-92654761D01*
X154517857Y-92559523D01*
X154517857Y-92178571D01*
X154565476Y-92083333D01*
X154660714Y-92035714D01*
X154851190Y-92035714D01*
X154946428Y-92083333D01*
X154994047Y-92178571D01*
X154994047Y-92273809D01*
X154517857Y-92369047D01*
X155422619Y-92702380D02*
X155422619Y-91702380D01*
X155755952Y-92416666D01*
X156089285Y-91702380D01*
X156089285Y-92702380D01*
X156565476Y-92702380D02*
X156565476Y-91702380D01*
X156898809Y-92416666D01*
X157232142Y-91702380D01*
X157232142Y-92702380D01*
X158279761Y-92607142D02*
X158232142Y-92654761D01*
X158089285Y-92702380D01*
X157994047Y-92702380D01*
X157851190Y-92654761D01*
X157755952Y-92559523D01*
X157708333Y-92464285D01*
X157660714Y-92273809D01*
X157660714Y-92130952D01*
X157708333Y-91940476D01*
X157755952Y-91845238D01*
X157851190Y-91750000D01*
X157994047Y-91702380D01*
X158089285Y-91702380D01*
X158232142Y-91750000D01*
X158279761Y-91797619D01*
X160041666Y-92607142D02*
X159994047Y-92654761D01*
X159851190Y-92702380D01*
X159755952Y-92702380D01*
X159613095Y-92654761D01*
X159517857Y-92559523D01*
X159470238Y-92464285D01*
X159422619Y-92273809D01*
X159422619Y-92130952D01*
X159470238Y-91940476D01*
X159517857Y-91845238D01*
X159613095Y-91750000D01*
X159755952Y-91702380D01*
X159851190Y-91702380D01*
X159994047Y-91750000D01*
X160041666Y-91797619D01*
X160898809Y-92702380D02*
X160898809Y-92178571D01*
X160851190Y-92083333D01*
X160755952Y-92035714D01*
X160565476Y-92035714D01*
X160470238Y-92083333D01*
X160898809Y-92654761D02*
X160803571Y-92702380D01*
X160565476Y-92702380D01*
X160470238Y-92654761D01*
X160422619Y-92559523D01*
X160422619Y-92464285D01*
X160470238Y-92369047D01*
X160565476Y-92321428D01*
X160803571Y-92321428D01*
X160898809Y-92273809D01*
X161375000Y-92702380D02*
X161375000Y-91702380D01*
X161375000Y-92083333D02*
X161470238Y-92035714D01*
X161660714Y-92035714D01*
X161755952Y-92083333D01*
X161803571Y-92130952D01*
X161851190Y-92226190D01*
X161851190Y-92511904D01*
X161803571Y-92607142D01*
X161755952Y-92654761D01*
X161660714Y-92702380D01*
X161470238Y-92702380D01*
X161375000Y-92654761D01*
X162422619Y-92702380D02*
X162327380Y-92654761D01*
X162279761Y-92559523D01*
X162279761Y-91702380D01*
X163184523Y-92654761D02*
X163089285Y-92702380D01*
X162898809Y-92702380D01*
X162803571Y-92654761D01*
X162755952Y-92559523D01*
X162755952Y-92178571D01*
X162803571Y-92083333D01*
X162898809Y-92035714D01*
X163089285Y-92035714D01*
X163184523Y-92083333D01*
X163232142Y-92178571D01*
X163232142Y-92273809D01*
X162755952Y-92369047D01*
D12*
X105705952Y-100091190D02*
X106015476Y-99874523D01*
X105705952Y-99719761D02*
X106355952Y-99719761D01*
X106355952Y-99967380D01*
X106325000Y-100029285D01*
X106294047Y-100060238D01*
X106232142Y-100091190D01*
X106139285Y-100091190D01*
X106077380Y-100060238D01*
X106046428Y-100029285D01*
X106015476Y-99967380D01*
X106015476Y-99719761D01*
X105705952Y-100648333D02*
X106355952Y-100648333D01*
X105736904Y-100648333D02*
X105705952Y-100586428D01*
X105705952Y-100462619D01*
X105736904Y-100400714D01*
X105767857Y-100369761D01*
X105829761Y-100338809D01*
X106015476Y-100338809D01*
X106077380Y-100369761D01*
X106108333Y-100400714D01*
X106139285Y-100462619D01*
X106139285Y-100586428D01*
X106108333Y-100648333D01*
X106139285Y-100895952D02*
X105705952Y-101050714D01*
X106139285Y-101205476D02*
X105705952Y-101050714D01*
X105551190Y-100988809D01*
X105520238Y-100957857D01*
X105489285Y-100895952D01*
X131360714Y-69557142D02*
X131360714Y-69128571D01*
X131360714Y-69342857D02*
X132110714Y-69342857D01*
X132003571Y-69271428D01*
X131932142Y-69200000D01*
X131896428Y-69128571D01*
X132110714Y-69807142D02*
X132110714Y-70307142D01*
X131360714Y-69985714D01*
X126989285Y-88653571D02*
X127025000Y-88689285D01*
X127060714Y-88760714D01*
X127060714Y-88939285D01*
X127025000Y-89010714D01*
X126989285Y-89046428D01*
X126917857Y-89082142D01*
X126846428Y-89082142D01*
X126739285Y-89046428D01*
X126310714Y-88617857D01*
X126310714Y-89082142D01*
X126989285Y-89367857D02*
X127025000Y-89403571D01*
X127060714Y-89475000D01*
X127060714Y-89653571D01*
X127025000Y-89725000D01*
X126989285Y-89760714D01*
X126917857Y-89796428D01*
X126846428Y-89796428D01*
X126739285Y-89760714D01*
X126310714Y-89332142D01*
X126310714Y-89796428D01*
X107205952Y-99719761D02*
X107855952Y-99719761D01*
X107391666Y-99936428D01*
X107855952Y-100153095D01*
X107205952Y-100153095D01*
X107205952Y-100462619D02*
X107639285Y-100462619D01*
X107855952Y-100462619D02*
X107825000Y-100431666D01*
X107794047Y-100462619D01*
X107825000Y-100493571D01*
X107855952Y-100462619D01*
X107794047Y-100462619D01*
X107236904Y-100741190D02*
X107205952Y-100803095D01*
X107205952Y-100926904D01*
X107236904Y-100988809D01*
X107298809Y-101019761D01*
X107329761Y-101019761D01*
X107391666Y-100988809D01*
X107422619Y-100926904D01*
X107422619Y-100834047D01*
X107453571Y-100772142D01*
X107515476Y-100741190D01*
X107546428Y-100741190D01*
X107608333Y-100772142D01*
X107639285Y-100834047D01*
X107639285Y-100926904D01*
X107608333Y-100988809D01*
X107205952Y-101391190D02*
X107236904Y-101329285D01*
X107267857Y-101298333D01*
X107329761Y-101267380D01*
X107515476Y-101267380D01*
X107577380Y-101298333D01*
X107608333Y-101329285D01*
X107639285Y-101391190D01*
X107639285Y-101484047D01*
X107608333Y-101545952D01*
X107577380Y-101576904D01*
X107515476Y-101607857D01*
X107329761Y-101607857D01*
X107267857Y-101576904D01*
X107236904Y-101545952D01*
X107205952Y-101484047D01*
X107205952Y-101391190D01*
X137125000Y-81557142D02*
X137160714Y-81485714D01*
X137160714Y-81378571D01*
X137125000Y-81271428D01*
X137053571Y-81200000D01*
X136982142Y-81164285D01*
X136839285Y-81128571D01*
X136732142Y-81128571D01*
X136589285Y-81164285D01*
X136517857Y-81200000D01*
X136446428Y-81271428D01*
X136410714Y-81378571D01*
X136410714Y-81450000D01*
X136446428Y-81557142D01*
X136482142Y-81592857D01*
X136732142Y-81592857D01*
X136732142Y-81450000D01*
X136410714Y-81914285D02*
X137160714Y-81914285D01*
X137160714Y-82200000D01*
X137125000Y-82271428D01*
X137089285Y-82307142D01*
X137017857Y-82342857D01*
X136910714Y-82342857D01*
X136839285Y-82307142D01*
X136803571Y-82271428D01*
X136767857Y-82200000D01*
X136767857Y-81914285D01*
X137089285Y-82628571D02*
X137125000Y-82664285D01*
X137160714Y-82735714D01*
X137160714Y-82914285D01*
X137125000Y-82985714D01*
X137089285Y-83021428D01*
X137017857Y-83057142D01*
X136946428Y-83057142D01*
X136839285Y-83021428D01*
X136410714Y-82592857D01*
X136410714Y-83057142D01*
X137160714Y-83521428D02*
X137160714Y-83592857D01*
X137125000Y-83664285D01*
X137089285Y-83700000D01*
X137017857Y-83735714D01*
X136875000Y-83771428D01*
X136696428Y-83771428D01*
X136553571Y-83735714D01*
X136482142Y-83700000D01*
X136446428Y-83664285D01*
X136410714Y-83592857D01*
X136410714Y-83521428D01*
X136446428Y-83450000D01*
X136482142Y-83414285D01*
X136553571Y-83378571D01*
X136696428Y-83342857D01*
X136875000Y-83342857D01*
X137017857Y-83378571D01*
X137089285Y-83414285D01*
X137125000Y-83450000D01*
X137160714Y-83521428D01*
X128810714Y-69557142D02*
X128810714Y-69128571D01*
X128810714Y-69342857D02*
X129560714Y-69342857D01*
X129453571Y-69271428D01*
X129382142Y-69200000D01*
X129346428Y-69128571D01*
X129239285Y-69985714D02*
X129275000Y-69914285D01*
X129310714Y-69878571D01*
X129382142Y-69842857D01*
X129417857Y-69842857D01*
X129489285Y-69878571D01*
X129525000Y-69914285D01*
X129560714Y-69985714D01*
X129560714Y-70128571D01*
X129525000Y-70200000D01*
X129489285Y-70235714D01*
X129417857Y-70271428D01*
X129382142Y-70271428D01*
X129310714Y-70235714D01*
X129275000Y-70200000D01*
X129239285Y-70128571D01*
X129239285Y-69985714D01*
X129203571Y-69914285D01*
X129167857Y-69878571D01*
X129096428Y-69842857D01*
X128953571Y-69842857D01*
X128882142Y-69878571D01*
X128846428Y-69914285D01*
X128810714Y-69985714D01*
X128810714Y-70128571D01*
X128846428Y-70200000D01*
X128882142Y-70235714D01*
X128953571Y-70271428D01*
X129096428Y-70271428D01*
X129167857Y-70235714D01*
X129203571Y-70200000D01*
X129239285Y-70128571D01*
X111705952Y-99719761D02*
X112355952Y-99719761D01*
X111891666Y-99936428D01*
X112355952Y-100153095D01*
X111705952Y-100153095D01*
X111705952Y-100555476D02*
X111736904Y-100493571D01*
X111767857Y-100462619D01*
X111829761Y-100431666D01*
X112015476Y-100431666D01*
X112077380Y-100462619D01*
X112108333Y-100493571D01*
X112139285Y-100555476D01*
X112139285Y-100648333D01*
X112108333Y-100710238D01*
X112077380Y-100741190D01*
X112015476Y-100772142D01*
X111829761Y-100772142D01*
X111767857Y-100741190D01*
X111736904Y-100710238D01*
X111705952Y-100648333D01*
X111705952Y-100555476D01*
X111736904Y-101019761D02*
X111705952Y-101081666D01*
X111705952Y-101205476D01*
X111736904Y-101267380D01*
X111798809Y-101298333D01*
X111829761Y-101298333D01*
X111891666Y-101267380D01*
X111922619Y-101205476D01*
X111922619Y-101112619D01*
X111953571Y-101050714D01*
X112015476Y-101019761D01*
X112046428Y-101019761D01*
X112108333Y-101050714D01*
X112139285Y-101112619D01*
X112139285Y-101205476D01*
X112108333Y-101267380D01*
X111705952Y-101576904D02*
X112139285Y-101576904D01*
X112355952Y-101576904D02*
X112325000Y-101545952D01*
X112294047Y-101576904D01*
X112325000Y-101607857D01*
X112355952Y-101576904D01*
X112294047Y-101576904D01*
X142125000Y-73517857D02*
X142160714Y-73446428D01*
X142160714Y-73339285D01*
X142125000Y-73232142D01*
X142053571Y-73160714D01*
X141982142Y-73125000D01*
X141839285Y-73089285D01*
X141732142Y-73089285D01*
X141589285Y-73125000D01*
X141517857Y-73160714D01*
X141446428Y-73232142D01*
X141410714Y-73339285D01*
X141410714Y-73410714D01*
X141446428Y-73517857D01*
X141482142Y-73553571D01*
X141732142Y-73553571D01*
X141732142Y-73410714D01*
X141910714Y-73875000D02*
X141410714Y-73875000D01*
X141839285Y-73875000D02*
X141875000Y-73910714D01*
X141910714Y-73982142D01*
X141910714Y-74089285D01*
X141875000Y-74160714D01*
X141803571Y-74196428D01*
X141410714Y-74196428D01*
X141410714Y-74875000D02*
X142160714Y-74875000D01*
X141446428Y-74875000D02*
X141410714Y-74803571D01*
X141410714Y-74660714D01*
X141446428Y-74589285D01*
X141482142Y-74553571D01*
X141553571Y-74517857D01*
X141767857Y-74517857D01*
X141839285Y-74553571D01*
X141875000Y-74589285D01*
X141910714Y-74660714D01*
X141910714Y-74803571D01*
X141875000Y-74875000D01*
X147360714Y-88617857D02*
X147360714Y-89082142D01*
X147075000Y-88832142D01*
X147075000Y-88939285D01*
X147039285Y-89010714D01*
X147003571Y-89046428D01*
X146932142Y-89082142D01*
X146753571Y-89082142D01*
X146682142Y-89046428D01*
X146646428Y-89010714D01*
X146610714Y-88939285D01*
X146610714Y-88725000D01*
X146646428Y-88653571D01*
X146682142Y-88617857D01*
X147360714Y-89546428D02*
X147360714Y-89617857D01*
X147325000Y-89689285D01*
X147289285Y-89725000D01*
X147217857Y-89760714D01*
X147075000Y-89796428D01*
X146896428Y-89796428D01*
X146753571Y-89760714D01*
X146682142Y-89725000D01*
X146646428Y-89689285D01*
X146610714Y-89617857D01*
X146610714Y-89546428D01*
X146646428Y-89475000D01*
X146682142Y-89439285D01*
X146753571Y-89403571D01*
X146896428Y-89367857D01*
X147075000Y-89367857D01*
X147217857Y-89403571D01*
X147289285Y-89439285D01*
X147325000Y-89475000D01*
X147360714Y-89546428D01*
X133910714Y-69557142D02*
X133910714Y-69128571D01*
X133910714Y-69342857D02*
X134660714Y-69342857D01*
X134553571Y-69271428D01*
X134482142Y-69200000D01*
X134446428Y-69128571D01*
X134660714Y-70200000D02*
X134660714Y-70057142D01*
X134625000Y-69985714D01*
X134589285Y-69950000D01*
X134482142Y-69878571D01*
X134339285Y-69842857D01*
X134053571Y-69842857D01*
X133982142Y-69878571D01*
X133946428Y-69914285D01*
X133910714Y-69985714D01*
X133910714Y-70128571D01*
X133946428Y-70200000D01*
X133982142Y-70235714D01*
X134053571Y-70271428D01*
X134232142Y-70271428D01*
X134303571Y-70235714D01*
X134339285Y-70200000D01*
X134375000Y-70128571D01*
X134375000Y-69985714D01*
X134339285Y-69914285D01*
X134303571Y-69878571D01*
X134232142Y-69842857D01*
X141046428Y-94186428D02*
X141015476Y-94279285D01*
X140984523Y-94310238D01*
X140922619Y-94341190D01*
X140829761Y-94341190D01*
X140767857Y-94310238D01*
X140736904Y-94279285D01*
X140705952Y-94217380D01*
X140705952Y-93969761D01*
X141355952Y-93969761D01*
X141355952Y-94186428D01*
X141325000Y-94248333D01*
X141294047Y-94279285D01*
X141232142Y-94310238D01*
X141170238Y-94310238D01*
X141108333Y-94279285D01*
X141077380Y-94248333D01*
X141046428Y-94186428D01*
X141046428Y-93969761D01*
X140705952Y-94712619D02*
X140736904Y-94650714D01*
X140798809Y-94619761D01*
X141355952Y-94619761D01*
X140705952Y-95238809D02*
X141046428Y-95238809D01*
X141108333Y-95207857D01*
X141139285Y-95145952D01*
X141139285Y-95022142D01*
X141108333Y-94960238D01*
X140736904Y-95238809D02*
X140705952Y-95176904D01*
X140705952Y-95022142D01*
X140736904Y-94960238D01*
X140798809Y-94929285D01*
X140860714Y-94929285D01*
X140922619Y-94960238D01*
X140953571Y-95022142D01*
X140953571Y-95176904D01*
X140984523Y-95238809D01*
X140736904Y-95826904D02*
X140705952Y-95765000D01*
X140705952Y-95641190D01*
X140736904Y-95579285D01*
X140767857Y-95548333D01*
X140829761Y-95517380D01*
X141015476Y-95517380D01*
X141077380Y-95548333D01*
X141108333Y-95579285D01*
X141139285Y-95641190D01*
X141139285Y-95765000D01*
X141108333Y-95826904D01*
X140705952Y-96105476D02*
X141355952Y-96105476D01*
X140953571Y-96167380D02*
X140705952Y-96353095D01*
X141139285Y-96353095D02*
X140891666Y-96105476D01*
X141510714Y-69557142D02*
X141510714Y-69128571D01*
X141510714Y-69342857D02*
X142260714Y-69342857D01*
X142153571Y-69271428D01*
X142082142Y-69200000D01*
X142046428Y-69128571D01*
X142260714Y-69807142D02*
X142260714Y-70271428D01*
X141975000Y-70021428D01*
X141975000Y-70128571D01*
X141939285Y-70200000D01*
X141903571Y-70235714D01*
X141832142Y-70271428D01*
X141653571Y-70271428D01*
X141582142Y-70235714D01*
X141546428Y-70200000D01*
X141510714Y-70128571D01*
X141510714Y-69914285D01*
X141546428Y-69842857D01*
X141582142Y-69807142D01*
X134625000Y-81557142D02*
X134660714Y-81485714D01*
X134660714Y-81378571D01*
X134625000Y-81271428D01*
X134553571Y-81200000D01*
X134482142Y-81164285D01*
X134339285Y-81128571D01*
X134232142Y-81128571D01*
X134089285Y-81164285D01*
X134017857Y-81200000D01*
X133946428Y-81271428D01*
X133910714Y-81378571D01*
X133910714Y-81450000D01*
X133946428Y-81557142D01*
X133982142Y-81592857D01*
X134232142Y-81592857D01*
X134232142Y-81450000D01*
X133910714Y-81914285D02*
X134660714Y-81914285D01*
X134660714Y-82200000D01*
X134625000Y-82271428D01*
X134589285Y-82307142D01*
X134517857Y-82342857D01*
X134410714Y-82342857D01*
X134339285Y-82307142D01*
X134303571Y-82271428D01*
X134267857Y-82200000D01*
X134267857Y-81914285D01*
X133910714Y-83057142D02*
X133910714Y-82628571D01*
X133910714Y-82842857D02*
X134660714Y-82842857D01*
X134553571Y-82771428D01*
X134482142Y-82700000D01*
X134446428Y-82628571D01*
X133910714Y-83414285D02*
X133910714Y-83557142D01*
X133946428Y-83628571D01*
X133982142Y-83664285D01*
X134089285Y-83735714D01*
X134232142Y-83771428D01*
X134517857Y-83771428D01*
X134589285Y-83735714D01*
X134625000Y-83700000D01*
X134660714Y-83628571D01*
X134660714Y-83485714D01*
X134625000Y-83414285D01*
X134589285Y-83378571D01*
X134517857Y-83342857D01*
X134339285Y-83342857D01*
X134267857Y-83378571D01*
X134232142Y-83414285D01*
X134196428Y-83485714D01*
X134196428Y-83628571D01*
X134232142Y-83700000D01*
X134267857Y-83735714D01*
X134339285Y-83771428D01*
X167710714Y-88617857D02*
X167710714Y-89082142D01*
X167425000Y-88832142D01*
X167425000Y-88939285D01*
X167389285Y-89010714D01*
X167353571Y-89046428D01*
X167282142Y-89082142D01*
X167103571Y-89082142D01*
X167032142Y-89046428D01*
X166996428Y-89010714D01*
X166960714Y-88939285D01*
X166960714Y-88725000D01*
X166996428Y-88653571D01*
X167032142Y-88617857D01*
X167389285Y-89510714D02*
X167425000Y-89439285D01*
X167460714Y-89403571D01*
X167532142Y-89367857D01*
X167567857Y-89367857D01*
X167639285Y-89403571D01*
X167675000Y-89439285D01*
X167710714Y-89510714D01*
X167710714Y-89653571D01*
X167675000Y-89725000D01*
X167639285Y-89760714D01*
X167567857Y-89796428D01*
X167532142Y-89796428D01*
X167460714Y-89760714D01*
X167425000Y-89725000D01*
X167389285Y-89653571D01*
X167389285Y-89510714D01*
X167353571Y-89439285D01*
X167317857Y-89403571D01*
X167246428Y-89367857D01*
X167103571Y-89367857D01*
X167032142Y-89403571D01*
X166996428Y-89439285D01*
X166960714Y-89510714D01*
X166960714Y-89653571D01*
X166996428Y-89725000D01*
X167032142Y-89760714D01*
X167103571Y-89796428D01*
X167246428Y-89796428D01*
X167317857Y-89760714D01*
X167353571Y-89725000D01*
X167389285Y-89653571D01*
X162510714Y-69928571D02*
X162510714Y-69571428D01*
X162153571Y-69535714D01*
X162189285Y-69571428D01*
X162225000Y-69642857D01*
X162225000Y-69821428D01*
X162189285Y-69892857D01*
X162153571Y-69928571D01*
X162082142Y-69964285D01*
X161903571Y-69964285D01*
X161832142Y-69928571D01*
X161796428Y-69892857D01*
X161760714Y-69821428D01*
X161760714Y-69642857D01*
X161796428Y-69571428D01*
X161832142Y-69535714D01*
X165110714Y-88617857D02*
X165110714Y-89082142D01*
X164825000Y-88832142D01*
X164825000Y-88939285D01*
X164789285Y-89010714D01*
X164753571Y-89046428D01*
X164682142Y-89082142D01*
X164503571Y-89082142D01*
X164432142Y-89046428D01*
X164396428Y-89010714D01*
X164360714Y-88939285D01*
X164360714Y-88725000D01*
X164396428Y-88653571D01*
X164432142Y-88617857D01*
X165110714Y-89332142D02*
X165110714Y-89832142D01*
X164360714Y-89510714D01*
X152946428Y-94770714D02*
X152915476Y-94863571D01*
X152884523Y-94894523D01*
X152822619Y-94925476D01*
X152729761Y-94925476D01*
X152667857Y-94894523D01*
X152636904Y-94863571D01*
X152605952Y-94801666D01*
X152605952Y-94554047D01*
X153255952Y-94554047D01*
X153255952Y-94770714D01*
X153225000Y-94832619D01*
X153194047Y-94863571D01*
X153132142Y-94894523D01*
X153070238Y-94894523D01*
X153008333Y-94863571D01*
X152977380Y-94832619D01*
X152946428Y-94770714D01*
X152946428Y-94554047D01*
X152605952Y-95296904D02*
X152636904Y-95235000D01*
X152698809Y-95204047D01*
X153255952Y-95204047D01*
X153039285Y-95823095D02*
X152605952Y-95823095D01*
X153039285Y-95544523D02*
X152698809Y-95544523D01*
X152636904Y-95575476D01*
X152605952Y-95637380D01*
X152605952Y-95730238D01*
X152636904Y-95792142D01*
X152667857Y-95823095D01*
X152636904Y-96380238D02*
X152605952Y-96318333D01*
X152605952Y-96194523D01*
X152636904Y-96132619D01*
X152698809Y-96101666D01*
X152946428Y-96101666D01*
X153008333Y-96132619D01*
X153039285Y-96194523D01*
X153039285Y-96318333D01*
X153008333Y-96380238D01*
X152946428Y-96411190D01*
X152884523Y-96411190D01*
X152822619Y-96101666D01*
X134639285Y-88653571D02*
X134675000Y-88689285D01*
X134710714Y-88760714D01*
X134710714Y-88939285D01*
X134675000Y-89010714D01*
X134639285Y-89046428D01*
X134567857Y-89082142D01*
X134496428Y-89082142D01*
X134389285Y-89046428D01*
X133960714Y-88617857D01*
X133960714Y-89082142D01*
X134710714Y-89760714D02*
X134710714Y-89403571D01*
X134353571Y-89367857D01*
X134389285Y-89403571D01*
X134425000Y-89475000D01*
X134425000Y-89653571D01*
X134389285Y-89725000D01*
X134353571Y-89760714D01*
X134282142Y-89796428D01*
X134103571Y-89796428D01*
X134032142Y-89760714D01*
X133996428Y-89725000D01*
X133960714Y-89653571D01*
X133960714Y-89475000D01*
X133996428Y-89403571D01*
X134032142Y-89367857D01*
X144725000Y-81557142D02*
X144760714Y-81485714D01*
X144760714Y-81378571D01*
X144725000Y-81271428D01*
X144653571Y-81200000D01*
X144582142Y-81164285D01*
X144439285Y-81128571D01*
X144332142Y-81128571D01*
X144189285Y-81164285D01*
X144117857Y-81200000D01*
X144046428Y-81271428D01*
X144010714Y-81378571D01*
X144010714Y-81450000D01*
X144046428Y-81557142D01*
X144082142Y-81592857D01*
X144332142Y-81592857D01*
X144332142Y-81450000D01*
X144010714Y-81914285D02*
X144760714Y-81914285D01*
X144760714Y-82200000D01*
X144725000Y-82271428D01*
X144689285Y-82307142D01*
X144617857Y-82342857D01*
X144510714Y-82342857D01*
X144439285Y-82307142D01*
X144403571Y-82271428D01*
X144367857Y-82200000D01*
X144367857Y-81914285D01*
X144689285Y-82628571D02*
X144725000Y-82664285D01*
X144760714Y-82735714D01*
X144760714Y-82914285D01*
X144725000Y-82985714D01*
X144689285Y-83021428D01*
X144617857Y-83057142D01*
X144546428Y-83057142D01*
X144439285Y-83021428D01*
X144010714Y-82592857D01*
X144010714Y-83057142D01*
X144689285Y-83342857D02*
X144725000Y-83378571D01*
X144760714Y-83450000D01*
X144760714Y-83628571D01*
X144725000Y-83700000D01*
X144689285Y-83735714D01*
X144617857Y-83771428D01*
X144546428Y-83771428D01*
X144439285Y-83735714D01*
X144010714Y-83307142D01*
X144010714Y-83771428D01*
X157755952Y-93408809D02*
X157755952Y-93532619D01*
X157725000Y-93594523D01*
X157663095Y-93656428D01*
X157539285Y-93687380D01*
X157322619Y-93687380D01*
X157198809Y-93656428D01*
X157136904Y-93594523D01*
X157105952Y-93532619D01*
X157105952Y-93408809D01*
X157136904Y-93346904D01*
X157198809Y-93285000D01*
X157322619Y-93254047D01*
X157539285Y-93254047D01*
X157663095Y-93285000D01*
X157725000Y-93346904D01*
X157755952Y-93408809D01*
X157105952Y-93965952D02*
X157539285Y-93965952D01*
X157415476Y-93965952D02*
X157477380Y-93996904D01*
X157508333Y-94027857D01*
X157539285Y-94089761D01*
X157539285Y-94151666D01*
X157105952Y-94646904D02*
X157446428Y-94646904D01*
X157508333Y-94615952D01*
X157539285Y-94554047D01*
X157539285Y-94430238D01*
X157508333Y-94368333D01*
X157136904Y-94646904D02*
X157105952Y-94585000D01*
X157105952Y-94430238D01*
X157136904Y-94368333D01*
X157198809Y-94337380D01*
X157260714Y-94337380D01*
X157322619Y-94368333D01*
X157353571Y-94430238D01*
X157353571Y-94585000D01*
X157384523Y-94646904D01*
X157539285Y-94956428D02*
X157105952Y-94956428D01*
X157477380Y-94956428D02*
X157508333Y-94987380D01*
X157539285Y-95049285D01*
X157539285Y-95142142D01*
X157508333Y-95204047D01*
X157446428Y-95235000D01*
X157105952Y-95235000D01*
X157539285Y-95823095D02*
X157013095Y-95823095D01*
X156951190Y-95792142D01*
X156920238Y-95761190D01*
X156889285Y-95699285D01*
X156889285Y-95606428D01*
X156920238Y-95544523D01*
X157136904Y-95823095D02*
X157105952Y-95761190D01*
X157105952Y-95637380D01*
X157136904Y-95575476D01*
X157167857Y-95544523D01*
X157229761Y-95513571D01*
X157415476Y-95513571D01*
X157477380Y-95544523D01*
X157508333Y-95575476D01*
X157539285Y-95637380D01*
X157539285Y-95761190D01*
X157508333Y-95823095D01*
X157136904Y-96380238D02*
X157105952Y-96318333D01*
X157105952Y-96194523D01*
X157136904Y-96132619D01*
X157198809Y-96101666D01*
X157446428Y-96101666D01*
X157508333Y-96132619D01*
X157539285Y-96194523D01*
X157539285Y-96318333D01*
X157508333Y-96380238D01*
X157446428Y-96411190D01*
X157384523Y-96411190D01*
X157322619Y-96101666D01*
X162560714Y-79625000D02*
X162560714Y-80089285D01*
X162275000Y-79839285D01*
X162275000Y-79946428D01*
X162239285Y-80017857D01*
X162203571Y-80053571D01*
X162132142Y-80089285D01*
X161953571Y-80089285D01*
X161882142Y-80053571D01*
X161846428Y-80017857D01*
X161810714Y-79946428D01*
X161810714Y-79732142D01*
X161846428Y-79660714D01*
X161882142Y-79625000D01*
X162310714Y-80339285D02*
X161810714Y-80517857D01*
X162310714Y-80696428D01*
X162560714Y-80910714D02*
X162560714Y-81375000D01*
X162275000Y-81125000D01*
X162275000Y-81232142D01*
X162239285Y-81303571D01*
X162203571Y-81339285D01*
X162132142Y-81375000D01*
X161953571Y-81375000D01*
X161882142Y-81339285D01*
X161846428Y-81303571D01*
X161810714Y-81232142D01*
X161810714Y-81017857D01*
X161846428Y-80946428D01*
X161882142Y-80910714D01*
X162560714Y-82410714D02*
X162560714Y-82553571D01*
X162525000Y-82625000D01*
X162453571Y-82696428D01*
X162310714Y-82732142D01*
X162060714Y-82732142D01*
X161917857Y-82696428D01*
X161846428Y-82625000D01*
X161810714Y-82553571D01*
X161810714Y-82410714D01*
X161846428Y-82339285D01*
X161917857Y-82267857D01*
X162060714Y-82232142D01*
X162310714Y-82232142D01*
X162453571Y-82267857D01*
X162525000Y-82339285D01*
X162560714Y-82410714D01*
X162310714Y-83375000D02*
X161810714Y-83375000D01*
X162310714Y-83053571D02*
X161917857Y-83053571D01*
X161846428Y-83089285D01*
X161810714Y-83160714D01*
X161810714Y-83267857D01*
X161846428Y-83339285D01*
X161882142Y-83375000D01*
X162310714Y-83625000D02*
X162310714Y-83910714D01*
X162560714Y-83732142D02*
X161917857Y-83732142D01*
X161846428Y-83767857D01*
X161810714Y-83839285D01*
X161810714Y-83910714D01*
X144739285Y-88653571D02*
X144775000Y-88689285D01*
X144810714Y-88760714D01*
X144810714Y-88939285D01*
X144775000Y-89010714D01*
X144739285Y-89046428D01*
X144667857Y-89082142D01*
X144596428Y-89082142D01*
X144489285Y-89046428D01*
X144060714Y-88617857D01*
X144060714Y-89082142D01*
X144060714Y-89439285D02*
X144060714Y-89582142D01*
X144096428Y-89653571D01*
X144132142Y-89689285D01*
X144239285Y-89760714D01*
X144382142Y-89796428D01*
X144667857Y-89796428D01*
X144739285Y-89760714D01*
X144775000Y-89725000D01*
X144810714Y-89653571D01*
X144810714Y-89510714D01*
X144775000Y-89439285D01*
X144739285Y-89403571D01*
X144667857Y-89367857D01*
X144489285Y-89367857D01*
X144417857Y-89403571D01*
X144382142Y-89439285D01*
X144346428Y-89510714D01*
X144346428Y-89653571D01*
X144382142Y-89725000D01*
X144417857Y-89760714D01*
X144489285Y-89796428D01*
D11*
X96138095Y-101327380D02*
X96209523Y-101351190D01*
X96328571Y-101351190D01*
X96376190Y-101327380D01*
X96400000Y-101303571D01*
X96423809Y-101255952D01*
X96423809Y-101208333D01*
X96400000Y-101160714D01*
X96376190Y-101136904D01*
X96328571Y-101113095D01*
X96233333Y-101089285D01*
X96185714Y-101065476D01*
X96161904Y-101041666D01*
X96138095Y-100994047D01*
X96138095Y-100946428D01*
X96161904Y-100898809D01*
X96185714Y-100875000D01*
X96233333Y-100851190D01*
X96352380Y-100851190D01*
X96423809Y-100875000D01*
X96638095Y-101351190D02*
X96638095Y-100851190D01*
X96828571Y-100851190D01*
X96876190Y-100875000D01*
X96900000Y-100898809D01*
X96923809Y-100946428D01*
X96923809Y-101017857D01*
X96900000Y-101065476D01*
X96876190Y-101089285D01*
X96828571Y-101113095D01*
X96638095Y-101113095D01*
X97138095Y-101351190D02*
X97138095Y-100851190D01*
D12*
X139515476Y-93649285D02*
X139205952Y-93649285D01*
X139855952Y-93432619D02*
X139515476Y-93649285D01*
X139855952Y-93865952D01*
X139236904Y-94330238D02*
X139205952Y-94268333D01*
X139205952Y-94144523D01*
X139236904Y-94082619D01*
X139298809Y-94051666D01*
X139546428Y-94051666D01*
X139608333Y-94082619D01*
X139639285Y-94144523D01*
X139639285Y-94268333D01*
X139608333Y-94330238D01*
X139546428Y-94361190D01*
X139484523Y-94361190D01*
X139422619Y-94051666D01*
X139205952Y-94732619D02*
X139236904Y-94670714D01*
X139298809Y-94639761D01*
X139855952Y-94639761D01*
X139205952Y-95073095D02*
X139236904Y-95011190D01*
X139298809Y-94980238D01*
X139855952Y-94980238D01*
X139205952Y-95413571D02*
X139236904Y-95351666D01*
X139267857Y-95320714D01*
X139329761Y-95289761D01*
X139515476Y-95289761D01*
X139577380Y-95320714D01*
X139608333Y-95351666D01*
X139639285Y-95413571D01*
X139639285Y-95506428D01*
X139608333Y-95568333D01*
X139577380Y-95599285D01*
X139515476Y-95630238D01*
X139329761Y-95630238D01*
X139267857Y-95599285D01*
X139236904Y-95568333D01*
X139205952Y-95506428D01*
X139205952Y-95413571D01*
X139639285Y-95846904D02*
X139205952Y-95970714D01*
X139515476Y-96094523D01*
X139205952Y-96218333D01*
X139639285Y-96342142D01*
X136410714Y-69557142D02*
X136410714Y-69128571D01*
X136410714Y-69342857D02*
X137160714Y-69342857D01*
X137053571Y-69271428D01*
X136982142Y-69200000D01*
X136946428Y-69128571D01*
X137160714Y-70235714D02*
X137160714Y-69878571D01*
X136803571Y-69842857D01*
X136839285Y-69878571D01*
X136875000Y-69950000D01*
X136875000Y-70128571D01*
X136839285Y-70200000D01*
X136803571Y-70235714D01*
X136732142Y-70271428D01*
X136553571Y-70271428D01*
X136482142Y-70235714D01*
X136446428Y-70200000D01*
X136410714Y-70128571D01*
X136410714Y-69950000D01*
X136446428Y-69878571D01*
X136482142Y-69842857D01*
X157425000Y-73464285D02*
X157460714Y-73392857D01*
X157460714Y-73285714D01*
X157425000Y-73178571D01*
X157353571Y-73107142D01*
X157282142Y-73071428D01*
X157139285Y-73035714D01*
X157032142Y-73035714D01*
X156889285Y-73071428D01*
X156817857Y-73107142D01*
X156746428Y-73178571D01*
X156710714Y-73285714D01*
X156710714Y-73357142D01*
X156746428Y-73464285D01*
X156782142Y-73500000D01*
X157032142Y-73500000D01*
X157032142Y-73357142D01*
X156710714Y-73821428D02*
X157460714Y-73821428D01*
X157460714Y-74107142D01*
X157425000Y-74178571D01*
X157389285Y-74214285D01*
X157317857Y-74250000D01*
X157210714Y-74250000D01*
X157139285Y-74214285D01*
X157103571Y-74178571D01*
X157067857Y-74107142D01*
X157067857Y-73821428D01*
X157460714Y-74928571D02*
X157460714Y-74571428D01*
X157103571Y-74535714D01*
X157139285Y-74571428D01*
X157175000Y-74642857D01*
X157175000Y-74821428D01*
X157139285Y-74892857D01*
X157103571Y-74928571D01*
X157032142Y-74964285D01*
X156853571Y-74964285D01*
X156782142Y-74928571D01*
X156746428Y-74892857D01*
X156710714Y-74821428D01*
X156710714Y-74642857D01*
X156746428Y-74571428D01*
X156782142Y-74535714D01*
X170139285Y-69535714D02*
X170175000Y-69571428D01*
X170210714Y-69642857D01*
X170210714Y-69821428D01*
X170175000Y-69892857D01*
X170139285Y-69928571D01*
X170067857Y-69964285D01*
X169996428Y-69964285D01*
X169889285Y-69928571D01*
X169460714Y-69500000D01*
X169460714Y-69964285D01*
X157425000Y-81557142D02*
X157460714Y-81485714D01*
X157460714Y-81378571D01*
X157425000Y-81271428D01*
X157353571Y-81200000D01*
X157282142Y-81164285D01*
X157139285Y-81128571D01*
X157032142Y-81128571D01*
X156889285Y-81164285D01*
X156817857Y-81200000D01*
X156746428Y-81271428D01*
X156710714Y-81378571D01*
X156710714Y-81450000D01*
X156746428Y-81557142D01*
X156782142Y-81592857D01*
X157032142Y-81592857D01*
X157032142Y-81450000D01*
X156710714Y-81914285D02*
X157460714Y-81914285D01*
X157460714Y-82200000D01*
X157425000Y-82271428D01*
X157389285Y-82307142D01*
X157317857Y-82342857D01*
X157210714Y-82342857D01*
X157139285Y-82307142D01*
X157103571Y-82271428D01*
X157067857Y-82200000D01*
X157067857Y-81914285D01*
X157389285Y-82628571D02*
X157425000Y-82664285D01*
X157460714Y-82735714D01*
X157460714Y-82914285D01*
X157425000Y-82985714D01*
X157389285Y-83021428D01*
X157317857Y-83057142D01*
X157246428Y-83057142D01*
X157139285Y-83021428D01*
X156710714Y-82592857D01*
X156710714Y-83057142D01*
X157139285Y-83485714D02*
X157175000Y-83414285D01*
X157210714Y-83378571D01*
X157282142Y-83342857D01*
X157317857Y-83342857D01*
X157389285Y-83378571D01*
X157425000Y-83414285D01*
X157460714Y-83485714D01*
X157460714Y-83628571D01*
X157425000Y-83700000D01*
X157389285Y-83735714D01*
X157317857Y-83771428D01*
X157282142Y-83771428D01*
X157210714Y-83735714D01*
X157175000Y-83700000D01*
X157139285Y-83628571D01*
X157139285Y-83485714D01*
X157103571Y-83414285D01*
X157067857Y-83378571D01*
X156996428Y-83342857D01*
X156853571Y-83342857D01*
X156782142Y-83378571D01*
X156746428Y-83414285D01*
X156710714Y-83485714D01*
X156710714Y-83628571D01*
X156746428Y-83700000D01*
X156782142Y-83735714D01*
X156853571Y-83771428D01*
X156996428Y-83771428D01*
X157067857Y-83735714D01*
X157103571Y-83700000D01*
X157139285Y-83628571D01*
X170125000Y-73464285D02*
X170160714Y-73392857D01*
X170160714Y-73285714D01*
X170125000Y-73178571D01*
X170053571Y-73107142D01*
X169982142Y-73071428D01*
X169839285Y-73035714D01*
X169732142Y-73035714D01*
X169589285Y-73071428D01*
X169517857Y-73107142D01*
X169446428Y-73178571D01*
X169410714Y-73285714D01*
X169410714Y-73357142D01*
X169446428Y-73464285D01*
X169482142Y-73500000D01*
X169732142Y-73500000D01*
X169732142Y-73357142D01*
X169410714Y-73821428D02*
X170160714Y-73821428D01*
X170160714Y-74107142D01*
X170125000Y-74178571D01*
X170089285Y-74214285D01*
X170017857Y-74250000D01*
X169910714Y-74250000D01*
X169839285Y-74214285D01*
X169803571Y-74178571D01*
X169767857Y-74107142D01*
X169767857Y-73821428D01*
X169410714Y-74964285D02*
X169410714Y-74535714D01*
X169410714Y-74750000D02*
X170160714Y-74750000D01*
X170053571Y-74678571D01*
X169982142Y-74607142D01*
X169946428Y-74535714D01*
X170260714Y-88617857D02*
X170260714Y-89082142D01*
X169975000Y-88832142D01*
X169975000Y-88939285D01*
X169939285Y-89010714D01*
X169903571Y-89046428D01*
X169832142Y-89082142D01*
X169653571Y-89082142D01*
X169582142Y-89046428D01*
X169546428Y-89010714D01*
X169510714Y-88939285D01*
X169510714Y-88725000D01*
X169546428Y-88653571D01*
X169582142Y-88617857D01*
X169510714Y-89439285D02*
X169510714Y-89582142D01*
X169546428Y-89653571D01*
X169582142Y-89689285D01*
X169689285Y-89760714D01*
X169832142Y-89796428D01*
X170117857Y-89796428D01*
X170189285Y-89760714D01*
X170225000Y-89725000D01*
X170260714Y-89653571D01*
X170260714Y-89510714D01*
X170225000Y-89439285D01*
X170189285Y-89403571D01*
X170117857Y-89367857D01*
X169939285Y-89367857D01*
X169867857Y-89403571D01*
X169832142Y-89439285D01*
X169796428Y-89510714D01*
X169796428Y-89653571D01*
X169832142Y-89725000D01*
X169867857Y-89760714D01*
X169939285Y-89796428D01*
X139625000Y-73557142D02*
X139660714Y-73485714D01*
X139660714Y-73378571D01*
X139625000Y-73271428D01*
X139553571Y-73200000D01*
X139482142Y-73164285D01*
X139339285Y-73128571D01*
X139232142Y-73128571D01*
X139089285Y-73164285D01*
X139017857Y-73200000D01*
X138946428Y-73271428D01*
X138910714Y-73378571D01*
X138910714Y-73450000D01*
X138946428Y-73557142D01*
X138982142Y-73592857D01*
X139232142Y-73592857D01*
X139232142Y-73450000D01*
X138910714Y-73914285D02*
X139660714Y-73914285D01*
X139660714Y-74200000D01*
X139625000Y-74271428D01*
X139589285Y-74307142D01*
X139517857Y-74342857D01*
X139410714Y-74342857D01*
X139339285Y-74307142D01*
X139303571Y-74271428D01*
X139267857Y-74200000D01*
X139267857Y-73914285D01*
X138910714Y-75057142D02*
X138910714Y-74628571D01*
X138910714Y-74842857D02*
X139660714Y-74842857D01*
X139553571Y-74771428D01*
X139482142Y-74700000D01*
X139446428Y-74628571D01*
X139660714Y-75521428D02*
X139660714Y-75592857D01*
X139625000Y-75664285D01*
X139589285Y-75700000D01*
X139517857Y-75735714D01*
X139375000Y-75771428D01*
X139196428Y-75771428D01*
X139053571Y-75735714D01*
X138982142Y-75700000D01*
X138946428Y-75664285D01*
X138910714Y-75592857D01*
X138910714Y-75521428D01*
X138946428Y-75450000D01*
X138982142Y-75414285D01*
X139053571Y-75378571D01*
X139196428Y-75342857D01*
X139375000Y-75342857D01*
X139517857Y-75378571D01*
X139589285Y-75414285D01*
X139625000Y-75450000D01*
X139660714Y-75521428D01*
X142239285Y-88653571D02*
X142275000Y-88689285D01*
X142310714Y-88760714D01*
X142310714Y-88939285D01*
X142275000Y-89010714D01*
X142239285Y-89046428D01*
X142167857Y-89082142D01*
X142096428Y-89082142D01*
X141989285Y-89046428D01*
X141560714Y-88617857D01*
X141560714Y-89082142D01*
X141989285Y-89510714D02*
X142025000Y-89439285D01*
X142060714Y-89403571D01*
X142132142Y-89367857D01*
X142167857Y-89367857D01*
X142239285Y-89403571D01*
X142275000Y-89439285D01*
X142310714Y-89510714D01*
X142310714Y-89653571D01*
X142275000Y-89725000D01*
X142239285Y-89760714D01*
X142167857Y-89796428D01*
X142132142Y-89796428D01*
X142060714Y-89760714D01*
X142025000Y-89725000D01*
X141989285Y-89653571D01*
X141989285Y-89510714D01*
X141953571Y-89439285D01*
X141917857Y-89403571D01*
X141846428Y-89367857D01*
X141703571Y-89367857D01*
X141632142Y-89403571D01*
X141596428Y-89439285D01*
X141560714Y-89510714D01*
X141560714Y-89653571D01*
X141596428Y-89725000D01*
X141632142Y-89760714D01*
X141703571Y-89796428D01*
X141846428Y-89796428D01*
X141917857Y-89760714D01*
X141953571Y-89725000D01*
X141989285Y-89653571D01*
X139689285Y-88653571D02*
X139725000Y-88689285D01*
X139760714Y-88760714D01*
X139760714Y-88939285D01*
X139725000Y-89010714D01*
X139689285Y-89046428D01*
X139617857Y-89082142D01*
X139546428Y-89082142D01*
X139439285Y-89046428D01*
X139010714Y-88617857D01*
X139010714Y-89082142D01*
X139760714Y-89332142D02*
X139760714Y-89832142D01*
X139010714Y-89510714D01*
X139525000Y-81557142D02*
X139560714Y-81485714D01*
X139560714Y-81378571D01*
X139525000Y-81271428D01*
X139453571Y-81200000D01*
X139382142Y-81164285D01*
X139239285Y-81128571D01*
X139132142Y-81128571D01*
X138989285Y-81164285D01*
X138917857Y-81200000D01*
X138846428Y-81271428D01*
X138810714Y-81378571D01*
X138810714Y-81450000D01*
X138846428Y-81557142D01*
X138882142Y-81592857D01*
X139132142Y-81592857D01*
X139132142Y-81450000D01*
X138810714Y-81914285D02*
X139560714Y-81914285D01*
X139560714Y-82200000D01*
X139525000Y-82271428D01*
X139489285Y-82307142D01*
X139417857Y-82342857D01*
X139310714Y-82342857D01*
X139239285Y-82307142D01*
X139203571Y-82271428D01*
X139167857Y-82200000D01*
X139167857Y-81914285D01*
X139489285Y-82628571D02*
X139525000Y-82664285D01*
X139560714Y-82735714D01*
X139560714Y-82914285D01*
X139525000Y-82985714D01*
X139489285Y-83021428D01*
X139417857Y-83057142D01*
X139346428Y-83057142D01*
X139239285Y-83021428D01*
X138810714Y-82592857D01*
X138810714Y-83057142D01*
X138810714Y-83771428D02*
X138810714Y-83342857D01*
X138810714Y-83557142D02*
X139560714Y-83557142D01*
X139453571Y-83485714D01*
X139382142Y-83414285D01*
X139346428Y-83342857D01*
X161846428Y-94440476D02*
X161815476Y-94533333D01*
X161784523Y-94564285D01*
X161722619Y-94595238D01*
X161629761Y-94595238D01*
X161567857Y-94564285D01*
X161536904Y-94533333D01*
X161505952Y-94471428D01*
X161505952Y-94223809D01*
X162155952Y-94223809D01*
X162155952Y-94440476D01*
X162125000Y-94502380D01*
X162094047Y-94533333D01*
X162032142Y-94564285D01*
X161970238Y-94564285D01*
X161908333Y-94533333D01*
X161877380Y-94502380D01*
X161846428Y-94440476D01*
X161846428Y-94223809D01*
X161505952Y-94966666D02*
X161536904Y-94904761D01*
X161598809Y-94873809D01*
X162155952Y-94873809D01*
X161505952Y-95492857D02*
X161846428Y-95492857D01*
X161908333Y-95461904D01*
X161939285Y-95400000D01*
X161939285Y-95276190D01*
X161908333Y-95214285D01*
X161536904Y-95492857D02*
X161505952Y-95430952D01*
X161505952Y-95276190D01*
X161536904Y-95214285D01*
X161598809Y-95183333D01*
X161660714Y-95183333D01*
X161722619Y-95214285D01*
X161753571Y-95276190D01*
X161753571Y-95430952D01*
X161784523Y-95492857D01*
X161536904Y-96080952D02*
X161505952Y-96019047D01*
X161505952Y-95895238D01*
X161536904Y-95833333D01*
X161567857Y-95802380D01*
X161629761Y-95771428D01*
X161815476Y-95771428D01*
X161877380Y-95802380D01*
X161908333Y-95833333D01*
X161939285Y-95895238D01*
X161939285Y-96019047D01*
X161908333Y-96080952D01*
X161505952Y-96359523D02*
X162155952Y-96359523D01*
X161753571Y-96421428D02*
X161505952Y-96607142D01*
X161939285Y-96607142D02*
X161691666Y-96359523D01*
X129425000Y-73567857D02*
X129460714Y-73496428D01*
X129460714Y-73389285D01*
X129425000Y-73282142D01*
X129353571Y-73210714D01*
X129282142Y-73175000D01*
X129139285Y-73139285D01*
X129032142Y-73139285D01*
X128889285Y-73175000D01*
X128817857Y-73210714D01*
X128746428Y-73282142D01*
X128710714Y-73389285D01*
X128710714Y-73460714D01*
X128746428Y-73567857D01*
X128782142Y-73603571D01*
X129032142Y-73603571D01*
X129032142Y-73460714D01*
X129210714Y-73925000D02*
X128710714Y-73925000D01*
X129139285Y-73925000D02*
X129175000Y-73960714D01*
X129210714Y-74032142D01*
X129210714Y-74139285D01*
X129175000Y-74210714D01*
X129103571Y-74246428D01*
X128710714Y-74246428D01*
X128710714Y-74925000D02*
X129460714Y-74925000D01*
X128746428Y-74925000D02*
X128710714Y-74853571D01*
X128710714Y-74710714D01*
X128746428Y-74639285D01*
X128782142Y-74603571D01*
X128853571Y-74567857D01*
X129067857Y-74567857D01*
X129139285Y-74603571D01*
X129175000Y-74639285D01*
X129210714Y-74710714D01*
X129210714Y-74853571D01*
X129175000Y-74925000D01*
X154725000Y-94275476D02*
X154755952Y-94213571D01*
X154755952Y-94120714D01*
X154725000Y-94027857D01*
X154663095Y-93965952D01*
X154601190Y-93935000D01*
X154477380Y-93904047D01*
X154384523Y-93904047D01*
X154260714Y-93935000D01*
X154198809Y-93965952D01*
X154136904Y-94027857D01*
X154105952Y-94120714D01*
X154105952Y-94182619D01*
X154136904Y-94275476D01*
X154167857Y-94306428D01*
X154384523Y-94306428D01*
X154384523Y-94182619D01*
X154105952Y-94585000D02*
X154539285Y-94585000D01*
X154415476Y-94585000D02*
X154477380Y-94615952D01*
X154508333Y-94646904D01*
X154539285Y-94708809D01*
X154539285Y-94770714D01*
X154136904Y-95235000D02*
X154105952Y-95173095D01*
X154105952Y-95049285D01*
X154136904Y-94987380D01*
X154198809Y-94956428D01*
X154446428Y-94956428D01*
X154508333Y-94987380D01*
X154539285Y-95049285D01*
X154539285Y-95173095D01*
X154508333Y-95235000D01*
X154446428Y-95265952D01*
X154384523Y-95265952D01*
X154322619Y-94956428D01*
X154136904Y-95792142D02*
X154105952Y-95730238D01*
X154105952Y-95606428D01*
X154136904Y-95544523D01*
X154198809Y-95513571D01*
X154446428Y-95513571D01*
X154508333Y-95544523D01*
X154539285Y-95606428D01*
X154539285Y-95730238D01*
X154508333Y-95792142D01*
X154446428Y-95823095D01*
X154384523Y-95823095D01*
X154322619Y-95513571D01*
X154539285Y-96101666D02*
X154105952Y-96101666D01*
X154477380Y-96101666D02*
X154508333Y-96132619D01*
X154539285Y-96194523D01*
X154539285Y-96287380D01*
X154508333Y-96349285D01*
X154446428Y-96380238D01*
X154105952Y-96380238D01*
X142125000Y-82467857D02*
X142160714Y-82396428D01*
X142160714Y-82289285D01*
X142125000Y-82182142D01*
X142053571Y-82110714D01*
X141982142Y-82075000D01*
X141839285Y-82039285D01*
X141732142Y-82039285D01*
X141589285Y-82075000D01*
X141517857Y-82110714D01*
X141446428Y-82182142D01*
X141410714Y-82289285D01*
X141410714Y-82360714D01*
X141446428Y-82467857D01*
X141482142Y-82503571D01*
X141732142Y-82503571D01*
X141732142Y-82360714D01*
X141910714Y-82825000D02*
X141410714Y-82825000D01*
X141839285Y-82825000D02*
X141875000Y-82860714D01*
X141910714Y-82932142D01*
X141910714Y-83039285D01*
X141875000Y-83110714D01*
X141803571Y-83146428D01*
X141410714Y-83146428D01*
X141410714Y-83825000D02*
X142160714Y-83825000D01*
X141446428Y-83825000D02*
X141410714Y-83753571D01*
X141410714Y-83610714D01*
X141446428Y-83539285D01*
X141482142Y-83503571D01*
X141553571Y-83467857D01*
X141767857Y-83467857D01*
X141839285Y-83503571D01*
X141875000Y-83539285D01*
X141910714Y-83610714D01*
X141910714Y-83753571D01*
X141875000Y-83825000D01*
X136205952Y-95165952D02*
X136515476Y-94949285D01*
X136205952Y-94794523D02*
X136855952Y-94794523D01*
X136855952Y-95042142D01*
X136825000Y-95104047D01*
X136794047Y-95135000D01*
X136732142Y-95165952D01*
X136639285Y-95165952D01*
X136577380Y-95135000D01*
X136546428Y-95104047D01*
X136515476Y-95042142D01*
X136515476Y-94794523D01*
X136236904Y-95692142D02*
X136205952Y-95630238D01*
X136205952Y-95506428D01*
X136236904Y-95444523D01*
X136298809Y-95413571D01*
X136546428Y-95413571D01*
X136608333Y-95444523D01*
X136639285Y-95506428D01*
X136639285Y-95630238D01*
X136608333Y-95692142D01*
X136546428Y-95723095D01*
X136484523Y-95723095D01*
X136422619Y-95413571D01*
X136205952Y-96280238D02*
X136855952Y-96280238D01*
X136236904Y-96280238D02*
X136205952Y-96218333D01*
X136205952Y-96094523D01*
X136236904Y-96032619D01*
X136267857Y-96001666D01*
X136329761Y-95970714D01*
X136515476Y-95970714D01*
X136577380Y-96001666D01*
X136608333Y-96032619D01*
X136639285Y-96094523D01*
X136639285Y-96218333D01*
X136608333Y-96280238D01*
X105107142Y-70553571D02*
X105214285Y-70589285D01*
X105392857Y-70589285D01*
X105464285Y-70553571D01*
X105500000Y-70517857D01*
X105535714Y-70446428D01*
X105535714Y-70375000D01*
X105500000Y-70303571D01*
X105464285Y-70267857D01*
X105392857Y-70232142D01*
X105250000Y-70196428D01*
X105178571Y-70160714D01*
X105142857Y-70125000D01*
X105107142Y-70053571D01*
X105107142Y-69982142D01*
X105142857Y-69910714D01*
X105178571Y-69875000D01*
X105250000Y-69839285D01*
X105428571Y-69839285D01*
X105535714Y-69875000D01*
X106285714Y-70517857D02*
X106250000Y-70553571D01*
X106142857Y-70589285D01*
X106071428Y-70589285D01*
X105964285Y-70553571D01*
X105892857Y-70482142D01*
X105857142Y-70410714D01*
X105821428Y-70267857D01*
X105821428Y-70160714D01*
X105857142Y-70017857D01*
X105892857Y-69946428D01*
X105964285Y-69875000D01*
X106071428Y-69839285D01*
X106142857Y-69839285D01*
X106250000Y-69875000D01*
X106285714Y-69910714D01*
X106964285Y-70589285D02*
X106607142Y-70589285D01*
X106607142Y-69839285D01*
X154960714Y-88617857D02*
X154960714Y-89082142D01*
X154675000Y-88832142D01*
X154675000Y-88939285D01*
X154639285Y-89010714D01*
X154603571Y-89046428D01*
X154532142Y-89082142D01*
X154353571Y-89082142D01*
X154282142Y-89046428D01*
X154246428Y-89010714D01*
X154210714Y-88939285D01*
X154210714Y-88725000D01*
X154246428Y-88653571D01*
X154282142Y-88617857D01*
X154960714Y-89332142D02*
X154960714Y-89796428D01*
X154675000Y-89546428D01*
X154675000Y-89653571D01*
X154639285Y-89725000D01*
X154603571Y-89760714D01*
X154532142Y-89796428D01*
X154353571Y-89796428D01*
X154282142Y-89760714D01*
X154246428Y-89725000D01*
X154210714Y-89653571D01*
X154210714Y-89439285D01*
X154246428Y-89367857D01*
X154282142Y-89332142D01*
X162560714Y-88617857D02*
X162560714Y-89082142D01*
X162275000Y-88832142D01*
X162275000Y-88939285D01*
X162239285Y-89010714D01*
X162203571Y-89046428D01*
X162132142Y-89082142D01*
X161953571Y-89082142D01*
X161882142Y-89046428D01*
X161846428Y-89010714D01*
X161810714Y-88939285D01*
X161810714Y-88725000D01*
X161846428Y-88653571D01*
X161882142Y-88617857D01*
X162560714Y-89725000D02*
X162560714Y-89582142D01*
X162525000Y-89510714D01*
X162489285Y-89475000D01*
X162382142Y-89403571D01*
X162239285Y-89367857D01*
X161953571Y-89367857D01*
X161882142Y-89403571D01*
X161846428Y-89439285D01*
X161810714Y-89510714D01*
X161810714Y-89653571D01*
X161846428Y-89725000D01*
X161882142Y-89760714D01*
X161953571Y-89796428D01*
X162132142Y-89796428D01*
X162203571Y-89760714D01*
X162239285Y-89725000D01*
X162275000Y-89653571D01*
X162275000Y-89510714D01*
X162239285Y-89439285D01*
X162203571Y-89403571D01*
X162132142Y-89367857D01*
X149725000Y-73464285D02*
X149760714Y-73392857D01*
X149760714Y-73285714D01*
X149725000Y-73178571D01*
X149653571Y-73107142D01*
X149582142Y-73071428D01*
X149439285Y-73035714D01*
X149332142Y-73035714D01*
X149189285Y-73071428D01*
X149117857Y-73107142D01*
X149046428Y-73178571D01*
X149010714Y-73285714D01*
X149010714Y-73357142D01*
X149046428Y-73464285D01*
X149082142Y-73500000D01*
X149332142Y-73500000D01*
X149332142Y-73357142D01*
X149010714Y-73821428D02*
X149760714Y-73821428D01*
X149760714Y-74107142D01*
X149725000Y-74178571D01*
X149689285Y-74214285D01*
X149617857Y-74250000D01*
X149510714Y-74250000D01*
X149439285Y-74214285D01*
X149403571Y-74178571D01*
X149367857Y-74107142D01*
X149367857Y-73821428D01*
X149760714Y-74500000D02*
X149760714Y-75000000D01*
X149010714Y-74678571D01*
X160057857Y-95544047D02*
X160491190Y-96194047D01*
X160491190Y-95544047D02*
X160057857Y-96194047D01*
X124425000Y-81557142D02*
X124460714Y-81485714D01*
X124460714Y-81378571D01*
X124425000Y-81271428D01*
X124353571Y-81200000D01*
X124282142Y-81164285D01*
X124139285Y-81128571D01*
X124032142Y-81128571D01*
X123889285Y-81164285D01*
X123817857Y-81200000D01*
X123746428Y-81271428D01*
X123710714Y-81378571D01*
X123710714Y-81450000D01*
X123746428Y-81557142D01*
X123782142Y-81592857D01*
X124032142Y-81592857D01*
X124032142Y-81450000D01*
X123710714Y-81914285D02*
X124460714Y-81914285D01*
X124460714Y-82200000D01*
X124425000Y-82271428D01*
X124389285Y-82307142D01*
X124317857Y-82342857D01*
X124210714Y-82342857D01*
X124139285Y-82307142D01*
X124103571Y-82271428D01*
X124067857Y-82200000D01*
X124067857Y-81914285D01*
X123710714Y-83057142D02*
X123710714Y-82628571D01*
X123710714Y-82842857D02*
X124460714Y-82842857D01*
X124353571Y-82771428D01*
X124282142Y-82700000D01*
X124246428Y-82628571D01*
X124460714Y-83700000D02*
X124460714Y-83557142D01*
X124425000Y-83485714D01*
X124389285Y-83450000D01*
X124282142Y-83378571D01*
X124139285Y-83342857D01*
X123853571Y-83342857D01*
X123782142Y-83378571D01*
X123746428Y-83414285D01*
X123710714Y-83485714D01*
X123710714Y-83628571D01*
X123746428Y-83700000D01*
X123782142Y-83735714D01*
X123853571Y-83771428D01*
X124032142Y-83771428D01*
X124103571Y-83735714D01*
X124139285Y-83700000D01*
X124175000Y-83628571D01*
X124175000Y-83485714D01*
X124139285Y-83414285D01*
X124103571Y-83378571D01*
X124032142Y-83342857D01*
X135046428Y-93896904D02*
X135015476Y-93989761D01*
X134984523Y-94020714D01*
X134922619Y-94051666D01*
X134829761Y-94051666D01*
X134767857Y-94020714D01*
X134736904Y-93989761D01*
X134705952Y-93927857D01*
X134705952Y-93680238D01*
X135355952Y-93680238D01*
X135355952Y-93896904D01*
X135325000Y-93958809D01*
X135294047Y-93989761D01*
X135232142Y-94020714D01*
X135170238Y-94020714D01*
X135108333Y-93989761D01*
X135077380Y-93958809D01*
X135046428Y-93896904D01*
X135046428Y-93680238D01*
X134705952Y-94330238D02*
X135139285Y-94330238D01*
X135015476Y-94330238D02*
X135077380Y-94361190D01*
X135108333Y-94392142D01*
X135139285Y-94454047D01*
X135139285Y-94515952D01*
X134705952Y-94825476D02*
X134736904Y-94763571D01*
X134767857Y-94732619D01*
X134829761Y-94701666D01*
X135015476Y-94701666D01*
X135077380Y-94732619D01*
X135108333Y-94763571D01*
X135139285Y-94825476D01*
X135139285Y-94918333D01*
X135108333Y-94980238D01*
X135077380Y-95011190D01*
X135015476Y-95042142D01*
X134829761Y-95042142D01*
X134767857Y-95011190D01*
X134736904Y-94980238D01*
X134705952Y-94918333D01*
X134705952Y-94825476D01*
X135139285Y-95258809D02*
X134705952Y-95382619D01*
X135015476Y-95506428D01*
X134705952Y-95630238D01*
X135139285Y-95754047D01*
X135139285Y-96001666D02*
X134705952Y-96001666D01*
X135077380Y-96001666D02*
X135108333Y-96032619D01*
X135139285Y-96094523D01*
X135139285Y-96187380D01*
X135108333Y-96249285D01*
X135046428Y-96280238D01*
X134705952Y-96280238D01*
X165060714Y-80089285D02*
X165060714Y-80553571D01*
X164775000Y-80303571D01*
X164775000Y-80410714D01*
X164739285Y-80482142D01*
X164703571Y-80517857D01*
X164632142Y-80553571D01*
X164453571Y-80553571D01*
X164382142Y-80517857D01*
X164346428Y-80482142D01*
X164310714Y-80410714D01*
X164310714Y-80196428D01*
X164346428Y-80125000D01*
X164382142Y-80089285D01*
X164810714Y-80803571D02*
X164310714Y-80982142D01*
X164810714Y-81160714D01*
X165060714Y-81375000D02*
X165060714Y-81839285D01*
X164775000Y-81589285D01*
X164775000Y-81696428D01*
X164739285Y-81767857D01*
X164703571Y-81803571D01*
X164632142Y-81839285D01*
X164453571Y-81839285D01*
X164382142Y-81803571D01*
X164346428Y-81767857D01*
X164310714Y-81696428D01*
X164310714Y-81482142D01*
X164346428Y-81410714D01*
X164382142Y-81375000D01*
X164703571Y-82732142D02*
X164703571Y-82982142D01*
X164310714Y-83089285D02*
X164310714Y-82732142D01*
X165060714Y-82732142D01*
X165060714Y-83089285D01*
X164310714Y-83410714D02*
X165060714Y-83410714D01*
X164310714Y-83839285D01*
X165060714Y-83839285D01*
X146510714Y-82196428D02*
X146867857Y-81946428D01*
X146510714Y-81767857D02*
X147260714Y-81767857D01*
X147260714Y-82053571D01*
X147225000Y-82125000D01*
X147189285Y-82160714D01*
X147117857Y-82196428D01*
X147010714Y-82196428D01*
X146939285Y-82160714D01*
X146903571Y-82125000D01*
X146867857Y-82053571D01*
X146867857Y-81767857D01*
X147260714Y-82517857D02*
X146653571Y-82517857D01*
X146582142Y-82553571D01*
X146546428Y-82589285D01*
X146510714Y-82660714D01*
X146510714Y-82803571D01*
X146546428Y-82875000D01*
X146582142Y-82910714D01*
X146653571Y-82946428D01*
X147260714Y-82946428D01*
X146510714Y-83303571D02*
X147260714Y-83303571D01*
X146510714Y-83732142D01*
X147260714Y-83732142D01*
X126825000Y-73557142D02*
X126860714Y-73485714D01*
X126860714Y-73378571D01*
X126825000Y-73271428D01*
X126753571Y-73200000D01*
X126682142Y-73164285D01*
X126539285Y-73128571D01*
X126432142Y-73128571D01*
X126289285Y-73164285D01*
X126217857Y-73200000D01*
X126146428Y-73271428D01*
X126110714Y-73378571D01*
X126110714Y-73450000D01*
X126146428Y-73557142D01*
X126182142Y-73592857D01*
X126432142Y-73592857D01*
X126432142Y-73450000D01*
X126110714Y-73914285D02*
X126860714Y-73914285D01*
X126860714Y-74200000D01*
X126825000Y-74271428D01*
X126789285Y-74307142D01*
X126717857Y-74342857D01*
X126610714Y-74342857D01*
X126539285Y-74307142D01*
X126503571Y-74271428D01*
X126467857Y-74200000D01*
X126467857Y-73914285D01*
X126110714Y-75057142D02*
X126110714Y-74628571D01*
X126110714Y-74842857D02*
X126860714Y-74842857D01*
X126753571Y-74771428D01*
X126682142Y-74700000D01*
X126646428Y-74628571D01*
X126610714Y-75700000D02*
X126110714Y-75700000D01*
X126896428Y-75521428D02*
X126360714Y-75342857D01*
X126360714Y-75807142D01*
D10*
X134500000Y-92654761D02*
X134642857Y-92702380D01*
X134880952Y-92702380D01*
X134976190Y-92654761D01*
X135023809Y-92607142D01*
X135071428Y-92511904D01*
X135071428Y-92416666D01*
X135023809Y-92321428D01*
X134976190Y-92273809D01*
X134880952Y-92226190D01*
X134690476Y-92178571D01*
X134595238Y-92130952D01*
X134547619Y-92083333D01*
X134500000Y-91988095D01*
X134500000Y-91892857D01*
X134547619Y-91797619D01*
X134595238Y-91750000D01*
X134690476Y-91702380D01*
X134928571Y-91702380D01*
X135071428Y-91750000D01*
X135500000Y-92702380D02*
X135500000Y-91702380D01*
X135880952Y-91702380D01*
X135976190Y-91750000D01*
X136023809Y-91797619D01*
X136071428Y-91892857D01*
X136071428Y-92035714D01*
X136023809Y-92130952D01*
X135976190Y-92178571D01*
X135880952Y-92226190D01*
X135500000Y-92226190D01*
X136500000Y-92702380D02*
X136500000Y-91702380D01*
X138309523Y-92607142D02*
X138261904Y-92654761D01*
X138119047Y-92702380D01*
X138023809Y-92702380D01*
X137880952Y-92654761D01*
X137785714Y-92559523D01*
X137738095Y-92464285D01*
X137690476Y-92273809D01*
X137690476Y-92130952D01*
X137738095Y-91940476D01*
X137785714Y-91845238D01*
X137880952Y-91750000D01*
X138023809Y-91702380D01*
X138119047Y-91702380D01*
X138261904Y-91750000D01*
X138309523Y-91797619D01*
X139166666Y-92702380D02*
X139166666Y-92178571D01*
X139119047Y-92083333D01*
X139023809Y-92035714D01*
X138833333Y-92035714D01*
X138738095Y-92083333D01*
X139166666Y-92654761D02*
X139071428Y-92702380D01*
X138833333Y-92702380D01*
X138738095Y-92654761D01*
X138690476Y-92559523D01*
X138690476Y-92464285D01*
X138738095Y-92369047D01*
X138833333Y-92321428D01*
X139071428Y-92321428D01*
X139166666Y-92273809D01*
X139642857Y-92702380D02*
X139642857Y-91702380D01*
X139642857Y-92083333D02*
X139738095Y-92035714D01*
X139928571Y-92035714D01*
X140023809Y-92083333D01*
X140071428Y-92130952D01*
X140119047Y-92226190D01*
X140119047Y-92511904D01*
X140071428Y-92607142D01*
X140023809Y-92654761D01*
X139928571Y-92702380D01*
X139738095Y-92702380D01*
X139642857Y-92654761D01*
X140690476Y-92702380D02*
X140595238Y-92654761D01*
X140547619Y-92559523D01*
X140547619Y-91702380D01*
X141452380Y-92654761D02*
X141357142Y-92702380D01*
X141166666Y-92702380D01*
X141071428Y-92654761D01*
X141023809Y-92559523D01*
X141023809Y-92178571D01*
X141071428Y-92083333D01*
X141166666Y-92035714D01*
X141357142Y-92035714D01*
X141452380Y-92083333D01*
X141500000Y-92178571D01*
X141500000Y-92273809D01*
X141023809Y-92369047D01*
D12*
X124425000Y-73557142D02*
X124460714Y-73485714D01*
X124460714Y-73378571D01*
X124425000Y-73271428D01*
X124353571Y-73200000D01*
X124282142Y-73164285D01*
X124139285Y-73128571D01*
X124032142Y-73128571D01*
X123889285Y-73164285D01*
X123817857Y-73200000D01*
X123746428Y-73271428D01*
X123710714Y-73378571D01*
X123710714Y-73450000D01*
X123746428Y-73557142D01*
X123782142Y-73592857D01*
X124032142Y-73592857D01*
X124032142Y-73450000D01*
X123710714Y-73914285D02*
X124460714Y-73914285D01*
X124460714Y-74200000D01*
X124425000Y-74271428D01*
X124389285Y-74307142D01*
X124317857Y-74342857D01*
X124210714Y-74342857D01*
X124139285Y-74307142D01*
X124103571Y-74271428D01*
X124067857Y-74200000D01*
X124067857Y-73914285D01*
X123710714Y-75057142D02*
X123710714Y-74628571D01*
X123710714Y-74842857D02*
X124460714Y-74842857D01*
X124353571Y-74771428D01*
X124282142Y-74700000D01*
X124246428Y-74628571D01*
X124460714Y-75735714D02*
X124460714Y-75378571D01*
X124103571Y-75342857D01*
X124139285Y-75378571D01*
X124175000Y-75450000D01*
X124175000Y-75628571D01*
X124139285Y-75700000D01*
X124103571Y-75735714D01*
X124032142Y-75771428D01*
X123853571Y-75771428D01*
X123782142Y-75735714D01*
X123746428Y-75700000D01*
X123710714Y-75628571D01*
X123710714Y-75450000D01*
X123746428Y-75378571D01*
X123782142Y-75342857D01*
X98017857Y-75985535D02*
X98089285Y-75985535D01*
X98160714Y-76021250D01*
X98196428Y-76056964D01*
X98232142Y-76128392D01*
X98267857Y-76271250D01*
X98267857Y-76449821D01*
X98232142Y-76592678D01*
X98196428Y-76664107D01*
X98160714Y-76699821D01*
X98089285Y-76735535D01*
X98017857Y-76735535D01*
X97946428Y-76699821D01*
X97910714Y-76664107D01*
X97875000Y-76592678D01*
X97839285Y-76449821D01*
X97839285Y-76271250D01*
X97875000Y-76128392D01*
X97910714Y-76056964D01*
X97946428Y-76021250D01*
X98017857Y-75985535D01*
X98589285Y-76664107D02*
X98625000Y-76699821D01*
X98589285Y-76735535D01*
X98553571Y-76699821D01*
X98589285Y-76664107D01*
X98589285Y-76735535D01*
X98982142Y-76735535D02*
X99125000Y-76735535D01*
X99196428Y-76699821D01*
X99232142Y-76664107D01*
X99303571Y-76556964D01*
X99339285Y-76414107D01*
X99339285Y-76128392D01*
X99303571Y-76056964D01*
X99267857Y-76021250D01*
X99196428Y-75985535D01*
X99053571Y-75985535D01*
X98982142Y-76021250D01*
X98946428Y-76056964D01*
X98910714Y-76128392D01*
X98910714Y-76306964D01*
X98946428Y-76378392D01*
X98982142Y-76414107D01*
X99053571Y-76449821D01*
X99196428Y-76449821D01*
X99267857Y-76414107D01*
X99303571Y-76378392D01*
X99339285Y-76306964D01*
X99982142Y-75985535D02*
X99839285Y-75985535D01*
X99767857Y-76021250D01*
X99732142Y-76056964D01*
X99660714Y-76164107D01*
X99625000Y-76306964D01*
X99625000Y-76592678D01*
X99660714Y-76664107D01*
X99696428Y-76699821D01*
X99767857Y-76735535D01*
X99910714Y-76735535D01*
X99982142Y-76699821D01*
X100017857Y-76664107D01*
X100053571Y-76592678D01*
X100053571Y-76414107D01*
X100017857Y-76342678D01*
X99982142Y-76306964D01*
X99910714Y-76271250D01*
X99767857Y-76271250D01*
X99696428Y-76306964D01*
X99660714Y-76342678D01*
X99625000Y-76414107D01*
X101089285Y-75985535D02*
X101232142Y-75985535D01*
X101303571Y-76021250D01*
X101375000Y-76092678D01*
X101410714Y-76235535D01*
X101410714Y-76485535D01*
X101375000Y-76628392D01*
X101303571Y-76699821D01*
X101232142Y-76735535D01*
X101089285Y-76735535D01*
X101017857Y-76699821D01*
X100946428Y-76628392D01*
X100910714Y-76485535D01*
X100910714Y-76235535D01*
X100946428Y-76092678D01*
X101017857Y-76021250D01*
X101089285Y-75985535D01*
X102089285Y-76735535D02*
X101732142Y-76735535D01*
X101732142Y-75985535D01*
X102339285Y-76342678D02*
X102589285Y-76342678D01*
X102696428Y-76735535D02*
X102339285Y-76735535D01*
X102339285Y-75985535D01*
X102696428Y-75985535D01*
X103017857Y-76735535D02*
X103017857Y-75985535D01*
X103196428Y-75985535D01*
X103303571Y-76021250D01*
X103375000Y-76092678D01*
X103410714Y-76164107D01*
X103446428Y-76306964D01*
X103446428Y-76414107D01*
X103410714Y-76556964D01*
X103375000Y-76628392D01*
X103303571Y-76699821D01*
X103196428Y-76735535D01*
X103017857Y-76735535D01*
X104339285Y-76735535D02*
X104339285Y-75985535D01*
X104589285Y-76521250D01*
X104839285Y-75985535D01*
X104839285Y-76735535D01*
X105303571Y-76735535D02*
X105232142Y-76699821D01*
X105196428Y-76664107D01*
X105160714Y-76592678D01*
X105160714Y-76378392D01*
X105196428Y-76306964D01*
X105232142Y-76271250D01*
X105303571Y-76235535D01*
X105410714Y-76235535D01*
X105482142Y-76271250D01*
X105517857Y-76306964D01*
X105553571Y-76378392D01*
X105553571Y-76592678D01*
X105517857Y-76664107D01*
X105482142Y-76699821D01*
X105410714Y-76735535D01*
X105303571Y-76735535D01*
X106196428Y-76735535D02*
X106196428Y-75985535D01*
X106196428Y-76699821D02*
X106125000Y-76735535D01*
X105982142Y-76735535D01*
X105910714Y-76699821D01*
X105875000Y-76664107D01*
X105839285Y-76592678D01*
X105839285Y-76378392D01*
X105875000Y-76306964D01*
X105910714Y-76271250D01*
X105982142Y-76235535D01*
X106125000Y-76235535D01*
X106196428Y-76271250D01*
X106875000Y-76235535D02*
X106875000Y-76735535D01*
X106553571Y-76235535D02*
X106553571Y-76628392D01*
X106589285Y-76699821D01*
X106660714Y-76735535D01*
X106767857Y-76735535D01*
X106839285Y-76699821D01*
X106875000Y-76664107D01*
X107339285Y-76735535D02*
X107267857Y-76699821D01*
X107232142Y-76628392D01*
X107232142Y-75985535D01*
X107910714Y-76699821D02*
X107839285Y-76735535D01*
X107696428Y-76735535D01*
X107625000Y-76699821D01*
X107589285Y-76628392D01*
X107589285Y-76342678D01*
X107625000Y-76271250D01*
X107696428Y-76235535D01*
X107839285Y-76235535D01*
X107910714Y-76271250D01*
X107946428Y-76342678D01*
X107946428Y-76414107D01*
X107589285Y-76485535D01*
X109232142Y-76735535D02*
X108803571Y-76735535D01*
X109017857Y-76735535D02*
X109017857Y-75985535D01*
X108946428Y-76092678D01*
X108875000Y-76164107D01*
X108803571Y-76199821D01*
X109517857Y-76056964D02*
X109553571Y-76021250D01*
X109625000Y-75985535D01*
X109803571Y-75985535D01*
X109875000Y-76021250D01*
X109910714Y-76056964D01*
X109946428Y-76128392D01*
X109946428Y-76199821D01*
X109910714Y-76306964D01*
X109482142Y-76735535D01*
X109946428Y-76735535D01*
X110375000Y-76306964D02*
X110303571Y-76271250D01*
X110267857Y-76235535D01*
X110232142Y-76164107D01*
X110232142Y-76128392D01*
X110267857Y-76056964D01*
X110303571Y-76021250D01*
X110375000Y-75985535D01*
X110517857Y-75985535D01*
X110589285Y-76021250D01*
X110625000Y-76056964D01*
X110660714Y-76128392D01*
X110660714Y-76164107D01*
X110625000Y-76235535D01*
X110589285Y-76271250D01*
X110517857Y-76306964D01*
X110375000Y-76306964D01*
X110303571Y-76342678D01*
X110267857Y-76378392D01*
X110232142Y-76449821D01*
X110232142Y-76592678D01*
X110267857Y-76664107D01*
X110303571Y-76699821D01*
X110375000Y-76735535D01*
X110517857Y-76735535D01*
X110589285Y-76699821D01*
X110625000Y-76664107D01*
X110660714Y-76592678D01*
X110660714Y-76449821D01*
X110625000Y-76378392D01*
X110589285Y-76342678D01*
X110517857Y-76306964D01*
X111303571Y-75985535D02*
X111160714Y-75985535D01*
X111089285Y-76021250D01*
X111053571Y-76056964D01*
X110982142Y-76164107D01*
X110946428Y-76306964D01*
X110946428Y-76592678D01*
X110982142Y-76664107D01*
X111017857Y-76699821D01*
X111089285Y-76735535D01*
X111232142Y-76735535D01*
X111303571Y-76699821D01*
X111339285Y-76664107D01*
X111375000Y-76592678D01*
X111375000Y-76414107D01*
X111339285Y-76342678D01*
X111303571Y-76306964D01*
X111232142Y-76271250D01*
X111089285Y-76271250D01*
X111017857Y-76306964D01*
X110982142Y-76342678D01*
X110946428Y-76414107D01*
X112017857Y-76235535D02*
X112017857Y-76735535D01*
X111839285Y-75949821D02*
X111660714Y-76485535D01*
X112125000Y-76485535D01*
X100928571Y-77943035D02*
X100500000Y-77943035D01*
X100714285Y-77943035D02*
X100714285Y-77193035D01*
X100642857Y-77300178D01*
X100571428Y-77371607D01*
X100500000Y-77407321D01*
X101214285Y-77264464D02*
X101250000Y-77228750D01*
X101321428Y-77193035D01*
X101500000Y-77193035D01*
X101571428Y-77228750D01*
X101607142Y-77264464D01*
X101642857Y-77335892D01*
X101642857Y-77407321D01*
X101607142Y-77514464D01*
X101178571Y-77943035D01*
X101642857Y-77943035D01*
X102071428Y-77514464D02*
X102000000Y-77478750D01*
X101964285Y-77443035D01*
X101928571Y-77371607D01*
X101928571Y-77335892D01*
X101964285Y-77264464D01*
X102000000Y-77228750D01*
X102071428Y-77193035D01*
X102214285Y-77193035D01*
X102285714Y-77228750D01*
X102321428Y-77264464D01*
X102357142Y-77335892D01*
X102357142Y-77371607D01*
X102321428Y-77443035D01*
X102285714Y-77478750D01*
X102214285Y-77514464D01*
X102071428Y-77514464D01*
X102000000Y-77550178D01*
X101964285Y-77585892D01*
X101928571Y-77657321D01*
X101928571Y-77800178D01*
X101964285Y-77871607D01*
X102000000Y-77907321D01*
X102071428Y-77943035D01*
X102214285Y-77943035D01*
X102285714Y-77907321D01*
X102321428Y-77871607D01*
X102357142Y-77800178D01*
X102357142Y-77657321D01*
X102321428Y-77585892D01*
X102285714Y-77550178D01*
X102214285Y-77514464D01*
X102607142Y-77943035D02*
X103000000Y-77443035D01*
X102607142Y-77443035D02*
X103000000Y-77943035D01*
X103607142Y-77193035D02*
X103464285Y-77193035D01*
X103392857Y-77228750D01*
X103357142Y-77264464D01*
X103285714Y-77371607D01*
X103250000Y-77514464D01*
X103250000Y-77800178D01*
X103285714Y-77871607D01*
X103321428Y-77907321D01*
X103392857Y-77943035D01*
X103535714Y-77943035D01*
X103607142Y-77907321D01*
X103642857Y-77871607D01*
X103678571Y-77800178D01*
X103678571Y-77621607D01*
X103642857Y-77550178D01*
X103607142Y-77514464D01*
X103535714Y-77478750D01*
X103392857Y-77478750D01*
X103321428Y-77514464D01*
X103285714Y-77550178D01*
X103250000Y-77621607D01*
X104321428Y-77443035D02*
X104321428Y-77943035D01*
X104142857Y-77157321D02*
X103964285Y-77693035D01*
X104428571Y-77693035D01*
X105250000Y-77907321D02*
X105357142Y-77943035D01*
X105535714Y-77943035D01*
X105607142Y-77907321D01*
X105642857Y-77871607D01*
X105678571Y-77800178D01*
X105678571Y-77728750D01*
X105642857Y-77657321D01*
X105607142Y-77621607D01*
X105535714Y-77585892D01*
X105392857Y-77550178D01*
X105321428Y-77514464D01*
X105285714Y-77478750D01*
X105250000Y-77407321D01*
X105250000Y-77335892D01*
X105285714Y-77264464D01*
X105321428Y-77228750D01*
X105392857Y-77193035D01*
X105571428Y-77193035D01*
X105678571Y-77228750D01*
X105964285Y-77907321D02*
X106071428Y-77943035D01*
X106250000Y-77943035D01*
X106321428Y-77907321D01*
X106357142Y-77871607D01*
X106392857Y-77800178D01*
X106392857Y-77728750D01*
X106357142Y-77657321D01*
X106321428Y-77621607D01*
X106250000Y-77585892D01*
X106107142Y-77550178D01*
X106035714Y-77514464D01*
X106000000Y-77478750D01*
X105964285Y-77407321D01*
X105964285Y-77335892D01*
X106000000Y-77264464D01*
X106035714Y-77228750D01*
X106107142Y-77193035D01*
X106285714Y-77193035D01*
X106392857Y-77228750D01*
X106714285Y-77943035D02*
X106714285Y-77193035D01*
X106892857Y-77193035D01*
X107000000Y-77228750D01*
X107071428Y-77300178D01*
X107107142Y-77371607D01*
X107142857Y-77514464D01*
X107142857Y-77621607D01*
X107107142Y-77764464D01*
X107071428Y-77835892D01*
X107000000Y-77907321D01*
X106892857Y-77943035D01*
X106714285Y-77943035D01*
X107857142Y-77943035D02*
X107428571Y-77943035D01*
X107642857Y-77943035D02*
X107642857Y-77193035D01*
X107571428Y-77300178D01*
X107500000Y-77371607D01*
X107428571Y-77407321D01*
X108107142Y-77193035D02*
X108571428Y-77193035D01*
X108321428Y-77478750D01*
X108428571Y-77478750D01*
X108500000Y-77514464D01*
X108535714Y-77550178D01*
X108571428Y-77621607D01*
X108571428Y-77800178D01*
X108535714Y-77871607D01*
X108500000Y-77907321D01*
X108428571Y-77943035D01*
X108214285Y-77943035D01*
X108142857Y-77907321D01*
X108107142Y-77871607D01*
X109035714Y-77193035D02*
X109107142Y-77193035D01*
X109178571Y-77228750D01*
X109214285Y-77264464D01*
X109250000Y-77335892D01*
X109285714Y-77478750D01*
X109285714Y-77657321D01*
X109250000Y-77800178D01*
X109214285Y-77871607D01*
X109178571Y-77907321D01*
X109107142Y-77943035D01*
X109035714Y-77943035D01*
X108964285Y-77907321D01*
X108928571Y-77871607D01*
X108892857Y-77800178D01*
X108857142Y-77657321D01*
X108857142Y-77478750D01*
X108892857Y-77335892D01*
X108928571Y-77264464D01*
X108964285Y-77228750D01*
X109035714Y-77193035D01*
X109928571Y-77193035D02*
X109785714Y-77193035D01*
X109714285Y-77228750D01*
X109678571Y-77264464D01*
X109607142Y-77371607D01*
X109571428Y-77514464D01*
X109571428Y-77800178D01*
X109607142Y-77871607D01*
X109642857Y-77907321D01*
X109714285Y-77943035D01*
X109857142Y-77943035D01*
X109928571Y-77907321D01*
X109964285Y-77871607D01*
X110000000Y-77800178D01*
X110000000Y-77621607D01*
X109964285Y-77550178D01*
X109928571Y-77514464D01*
X109857142Y-77478750D01*
X109714285Y-77478750D01*
X109642857Y-77514464D01*
X109607142Y-77550178D01*
X109571428Y-77621607D01*
X138355952Y-93308809D02*
X138355952Y-93432619D01*
X138325000Y-93494523D01*
X138263095Y-93556428D01*
X138139285Y-93587380D01*
X137922619Y-93587380D01*
X137798809Y-93556428D01*
X137736904Y-93494523D01*
X137705952Y-93432619D01*
X137705952Y-93308809D01*
X137736904Y-93246904D01*
X137798809Y-93185000D01*
X137922619Y-93154047D01*
X138139285Y-93154047D01*
X138263095Y-93185000D01*
X138325000Y-93246904D01*
X138355952Y-93308809D01*
X137705952Y-93865952D02*
X138139285Y-93865952D01*
X138015476Y-93865952D02*
X138077380Y-93896904D01*
X138108333Y-93927857D01*
X138139285Y-93989761D01*
X138139285Y-94051666D01*
X137705952Y-94546904D02*
X138046428Y-94546904D01*
X138108333Y-94515952D01*
X138139285Y-94454047D01*
X138139285Y-94330238D01*
X138108333Y-94268333D01*
X137736904Y-94546904D02*
X137705952Y-94485000D01*
X137705952Y-94330238D01*
X137736904Y-94268333D01*
X137798809Y-94237380D01*
X137860714Y-94237380D01*
X137922619Y-94268333D01*
X137953571Y-94330238D01*
X137953571Y-94485000D01*
X137984523Y-94546904D01*
X138139285Y-94856428D02*
X137705952Y-94856428D01*
X138077380Y-94856428D02*
X138108333Y-94887380D01*
X138139285Y-94949285D01*
X138139285Y-95042142D01*
X138108333Y-95104047D01*
X138046428Y-95135000D01*
X137705952Y-95135000D01*
X138139285Y-95723095D02*
X137613095Y-95723095D01*
X137551190Y-95692142D01*
X137520238Y-95661190D01*
X137489285Y-95599285D01*
X137489285Y-95506428D01*
X137520238Y-95444523D01*
X137736904Y-95723095D02*
X137705952Y-95661190D01*
X137705952Y-95537380D01*
X137736904Y-95475476D01*
X137767857Y-95444523D01*
X137829761Y-95413571D01*
X138015476Y-95413571D01*
X138077380Y-95444523D01*
X138108333Y-95475476D01*
X138139285Y-95537380D01*
X138139285Y-95661190D01*
X138108333Y-95723095D01*
X137736904Y-96280238D02*
X137705952Y-96218333D01*
X137705952Y-96094523D01*
X137736904Y-96032619D01*
X137798809Y-96001666D01*
X138046428Y-96001666D01*
X138108333Y-96032619D01*
X138139285Y-96094523D01*
X138139285Y-96218333D01*
X138108333Y-96280238D01*
X138046428Y-96311190D01*
X137984523Y-96311190D01*
X137922619Y-96001666D01*
X157560714Y-88617857D02*
X157560714Y-89082142D01*
X157275000Y-88832142D01*
X157275000Y-88939285D01*
X157239285Y-89010714D01*
X157203571Y-89046428D01*
X157132142Y-89082142D01*
X156953571Y-89082142D01*
X156882142Y-89046428D01*
X156846428Y-89010714D01*
X156810714Y-88939285D01*
X156810714Y-88725000D01*
X156846428Y-88653571D01*
X156882142Y-88617857D01*
X157310714Y-89725000D02*
X156810714Y-89725000D01*
X157596428Y-89546428D02*
X157060714Y-89367857D01*
X157060714Y-89832142D01*
D10*
X104654761Y-95791666D02*
X105130952Y-95791666D01*
X104559523Y-96077380D02*
X104892857Y-95077380D01*
X105226190Y-96077380D01*
X105988095Y-95410714D02*
X105988095Y-96077380D01*
X105559523Y-95410714D02*
X105559523Y-95934523D01*
X105607142Y-96029761D01*
X105702380Y-96077380D01*
X105845238Y-96077380D01*
X105940476Y-96029761D01*
X105988095Y-95982142D01*
X106892857Y-96077380D02*
X106892857Y-95077380D01*
X106892857Y-96029761D02*
X106797619Y-96077380D01*
X106607142Y-96077380D01*
X106511904Y-96029761D01*
X106464285Y-95982142D01*
X106416666Y-95886904D01*
X106416666Y-95601190D01*
X106464285Y-95505952D01*
X106511904Y-95458333D01*
X106607142Y-95410714D01*
X106797619Y-95410714D01*
X106892857Y-95458333D01*
X107369047Y-96077380D02*
X107369047Y-95410714D01*
X107369047Y-95077380D02*
X107321428Y-95125000D01*
X107369047Y-95172619D01*
X107416666Y-95125000D01*
X107369047Y-95077380D01*
X107369047Y-95172619D01*
X107988095Y-96077380D02*
X107892857Y-96029761D01*
X107845238Y-95982142D01*
X107797619Y-95886904D01*
X107797619Y-95601190D01*
X107845238Y-95505952D01*
X107892857Y-95458333D01*
X107988095Y-95410714D01*
X108130952Y-95410714D01*
X108226190Y-95458333D01*
X108273809Y-95505952D01*
X108321428Y-95601190D01*
X108321428Y-95886904D01*
X108273809Y-95982142D01*
X108226190Y-96029761D01*
X108130952Y-96077380D01*
X107988095Y-96077380D01*
X110083333Y-95982142D02*
X110035714Y-96029761D01*
X109892857Y-96077380D01*
X109797619Y-96077380D01*
X109654761Y-96029761D01*
X109559523Y-95934523D01*
X109511904Y-95839285D01*
X109464285Y-95648809D01*
X109464285Y-95505952D01*
X109511904Y-95315476D01*
X109559523Y-95220238D01*
X109654761Y-95125000D01*
X109797619Y-95077380D01*
X109892857Y-95077380D01*
X110035714Y-95125000D01*
X110083333Y-95172619D01*
X110654761Y-96077380D02*
X110559523Y-96029761D01*
X110511904Y-95982142D01*
X110464285Y-95886904D01*
X110464285Y-95601190D01*
X110511904Y-95505952D01*
X110559523Y-95458333D01*
X110654761Y-95410714D01*
X110797619Y-95410714D01*
X110892857Y-95458333D01*
X110940476Y-95505952D01*
X110988095Y-95601190D01*
X110988095Y-95886904D01*
X110940476Y-95982142D01*
X110892857Y-96029761D01*
X110797619Y-96077380D01*
X110654761Y-96077380D01*
X111416666Y-95410714D02*
X111416666Y-96077380D01*
X111416666Y-95505952D02*
X111464285Y-95458333D01*
X111559523Y-95410714D01*
X111702380Y-95410714D01*
X111797619Y-95458333D01*
X111845238Y-95553571D01*
X111845238Y-96077380D01*
X112178571Y-95410714D02*
X112559523Y-95410714D01*
X112321428Y-96077380D02*
X112321428Y-95220238D01*
X112369047Y-95125000D01*
X112464285Y-95077380D01*
X112559523Y-95077380D01*
X112892857Y-96077380D02*
X112892857Y-95410714D01*
X112892857Y-95077380D02*
X112845238Y-95125000D01*
X112892857Y-95172619D01*
X112940476Y-95125000D01*
X112892857Y-95077380D01*
X112892857Y-95172619D01*
X113797619Y-95410714D02*
X113797619Y-96220238D01*
X113750000Y-96315476D01*
X113702380Y-96363095D01*
X113607142Y-96410714D01*
X113464285Y-96410714D01*
X113369047Y-96363095D01*
X113797619Y-96029761D02*
X113702380Y-96077380D01*
X113511904Y-96077380D01*
X113416666Y-96029761D01*
X113369047Y-95982142D01*
X113321428Y-95886904D01*
X113321428Y-95601190D01*
X113369047Y-95505952D01*
X113416666Y-95458333D01*
X113511904Y-95410714D01*
X113702380Y-95410714D01*
X113797619Y-95458333D01*
D12*
X102571428Y-70303571D02*
X103142857Y-70303571D01*
X102857142Y-70589285D02*
X102857142Y-70017857D01*
X103428571Y-69839285D02*
X103892857Y-69839285D01*
X103642857Y-70125000D01*
X103750000Y-70125000D01*
X103821428Y-70160714D01*
X103857142Y-70196428D01*
X103892857Y-70267857D01*
X103892857Y-70446428D01*
X103857142Y-70517857D01*
X103821428Y-70553571D01*
X103750000Y-70589285D01*
X103535714Y-70589285D01*
X103464285Y-70553571D01*
X103428571Y-70517857D01*
X104142857Y-70089285D02*
X104321428Y-70589285D01*
X104500000Y-70089285D01*
X144725000Y-73464285D02*
X144760714Y-73392857D01*
X144760714Y-73285714D01*
X144725000Y-73178571D01*
X144653571Y-73107142D01*
X144582142Y-73071428D01*
X144439285Y-73035714D01*
X144332142Y-73035714D01*
X144189285Y-73071428D01*
X144117857Y-73107142D01*
X144046428Y-73178571D01*
X144010714Y-73285714D01*
X144010714Y-73357142D01*
X144046428Y-73464285D01*
X144082142Y-73500000D01*
X144332142Y-73500000D01*
X144332142Y-73357142D01*
X144010714Y-73821428D02*
X144760714Y-73821428D01*
X144760714Y-74107142D01*
X144725000Y-74178571D01*
X144689285Y-74214285D01*
X144617857Y-74250000D01*
X144510714Y-74250000D01*
X144439285Y-74214285D01*
X144403571Y-74178571D01*
X144367857Y-74107142D01*
X144367857Y-73821428D01*
X144010714Y-74607142D02*
X144010714Y-74750000D01*
X144046428Y-74821428D01*
X144082142Y-74857142D01*
X144189285Y-74928571D01*
X144332142Y-74964285D01*
X144617857Y-74964285D01*
X144689285Y-74928571D01*
X144725000Y-74892857D01*
X144760714Y-74821428D01*
X144760714Y-74678571D01*
X144725000Y-74607142D01*
X144689285Y-74571428D01*
X144617857Y-74535714D01*
X144439285Y-74535714D01*
X144367857Y-74571428D01*
X144332142Y-74607142D01*
X144296428Y-74678571D01*
X144296428Y-74821428D01*
X144332142Y-74892857D01*
X144367857Y-74928571D01*
X144439285Y-74964285D01*
X124389285Y-69128571D02*
X124425000Y-69164285D01*
X124460714Y-69235714D01*
X124460714Y-69414285D01*
X124425000Y-69485714D01*
X124389285Y-69521428D01*
X124317857Y-69557142D01*
X124246428Y-69557142D01*
X124139285Y-69521428D01*
X123710714Y-69092857D01*
X123710714Y-69557142D01*
X124460714Y-70021428D02*
X124460714Y-70092857D01*
X124425000Y-70164285D01*
X124389285Y-70200000D01*
X124317857Y-70235714D01*
X124175000Y-70271428D01*
X123996428Y-70271428D01*
X123853571Y-70235714D01*
X123782142Y-70200000D01*
X123746428Y-70164285D01*
X123710714Y-70092857D01*
X123710714Y-70021428D01*
X123746428Y-69950000D01*
X123782142Y-69914285D01*
X123853571Y-69878571D01*
X123996428Y-69842857D01*
X124175000Y-69842857D01*
X124317857Y-69878571D01*
X124389285Y-69914285D01*
X124425000Y-69950000D01*
X124460714Y-70021428D01*
X147225000Y-73464285D02*
X147260714Y-73392857D01*
X147260714Y-73285714D01*
X147225000Y-73178571D01*
X147153571Y-73107142D01*
X147082142Y-73071428D01*
X146939285Y-73035714D01*
X146832142Y-73035714D01*
X146689285Y-73071428D01*
X146617857Y-73107142D01*
X146546428Y-73178571D01*
X146510714Y-73285714D01*
X146510714Y-73357142D01*
X146546428Y-73464285D01*
X146582142Y-73500000D01*
X146832142Y-73500000D01*
X146832142Y-73357142D01*
X146510714Y-73821428D02*
X147260714Y-73821428D01*
X147260714Y-74107142D01*
X147225000Y-74178571D01*
X147189285Y-74214285D01*
X147117857Y-74250000D01*
X147010714Y-74250000D01*
X146939285Y-74214285D01*
X146903571Y-74178571D01*
X146867857Y-74107142D01*
X146867857Y-73821428D01*
X146939285Y-74678571D02*
X146975000Y-74607142D01*
X147010714Y-74571428D01*
X147082142Y-74535714D01*
X147117857Y-74535714D01*
X147189285Y-74571428D01*
X147225000Y-74607142D01*
X147260714Y-74678571D01*
X147260714Y-74821428D01*
X147225000Y-74892857D01*
X147189285Y-74928571D01*
X147117857Y-74964285D01*
X147082142Y-74964285D01*
X147010714Y-74928571D01*
X146975000Y-74892857D01*
X146939285Y-74821428D01*
X146939285Y-74678571D01*
X146903571Y-74607142D01*
X146867857Y-74571428D01*
X146796428Y-74535714D01*
X146653571Y-74535714D01*
X146582142Y-74571428D01*
X146546428Y-74607142D01*
X146510714Y-74678571D01*
X146510714Y-74821428D01*
X146546428Y-74892857D01*
X146582142Y-74928571D01*
X146653571Y-74964285D01*
X146796428Y-74964285D01*
X146867857Y-74928571D01*
X146903571Y-74892857D01*
X146939285Y-74821428D01*
X164557857Y-95544047D02*
X164991190Y-96194047D01*
X164991190Y-95544047D02*
X164557857Y-96194047D01*
X100267857Y-69875000D02*
X100196428Y-69839285D01*
X100089285Y-69839285D01*
X99982142Y-69875000D01*
X99910714Y-69946428D01*
X99875000Y-70017857D01*
X99839285Y-70160714D01*
X99839285Y-70267857D01*
X99875000Y-70410714D01*
X99910714Y-70482142D01*
X99982142Y-70553571D01*
X100089285Y-70589285D01*
X100160714Y-70589285D01*
X100267857Y-70553571D01*
X100303571Y-70517857D01*
X100303571Y-70267857D01*
X100160714Y-70267857D01*
X100625000Y-70089285D02*
X100625000Y-70589285D01*
X100625000Y-70160714D02*
X100660714Y-70125000D01*
X100732142Y-70089285D01*
X100839285Y-70089285D01*
X100910714Y-70125000D01*
X100946428Y-70196428D01*
X100946428Y-70589285D01*
X101625000Y-70589285D02*
X101625000Y-69839285D01*
X101625000Y-70553571D02*
X101553571Y-70589285D01*
X101410714Y-70589285D01*
X101339285Y-70553571D01*
X101303571Y-70517857D01*
X101267857Y-70446428D01*
X101267857Y-70232142D01*
X101303571Y-70160714D01*
X101339285Y-70125000D01*
X101410714Y-70089285D01*
X101553571Y-70089285D01*
X101625000Y-70125000D01*
X134625000Y-73557142D02*
X134660714Y-73485714D01*
X134660714Y-73378571D01*
X134625000Y-73271428D01*
X134553571Y-73200000D01*
X134482142Y-73164285D01*
X134339285Y-73128571D01*
X134232142Y-73128571D01*
X134089285Y-73164285D01*
X134017857Y-73200000D01*
X133946428Y-73271428D01*
X133910714Y-73378571D01*
X133910714Y-73450000D01*
X133946428Y-73557142D01*
X133982142Y-73592857D01*
X134232142Y-73592857D01*
X134232142Y-73450000D01*
X133910714Y-73914285D02*
X134660714Y-73914285D01*
X134660714Y-74200000D01*
X134625000Y-74271428D01*
X134589285Y-74307142D01*
X134517857Y-74342857D01*
X134410714Y-74342857D01*
X134339285Y-74307142D01*
X134303571Y-74271428D01*
X134267857Y-74200000D01*
X134267857Y-73914285D01*
X133910714Y-75057142D02*
X133910714Y-74628571D01*
X133910714Y-74842857D02*
X134660714Y-74842857D01*
X134553571Y-74771428D01*
X134482142Y-74700000D01*
X134446428Y-74628571D01*
X134589285Y-75342857D02*
X134625000Y-75378571D01*
X134660714Y-75450000D01*
X134660714Y-75628571D01*
X134625000Y-75700000D01*
X134589285Y-75735714D01*
X134517857Y-75771428D01*
X134446428Y-75771428D01*
X134339285Y-75735714D01*
X133910714Y-75307142D01*
X133910714Y-75771428D01*
X100050000Y-96599285D02*
X100050000Y-95849285D01*
X100335714Y-95849285D01*
X100407142Y-95885000D01*
X100442857Y-95920714D01*
X100478571Y-95992142D01*
X100478571Y-96099285D01*
X100442857Y-96170714D01*
X100407142Y-96206428D01*
X100335714Y-96242142D01*
X100050000Y-96242142D01*
X100728571Y-95849285D02*
X100907142Y-96599285D01*
X101050000Y-96063571D01*
X101192857Y-96599285D01*
X101371428Y-95849285D01*
X102085714Y-96599285D02*
X101835714Y-96242142D01*
X101657142Y-96599285D02*
X101657142Y-95849285D01*
X101942857Y-95849285D01*
X102014285Y-95885000D01*
X102050000Y-95920714D01*
X102085714Y-95992142D01*
X102085714Y-96099285D01*
X102050000Y-96170714D01*
X102014285Y-96206428D01*
X101942857Y-96242142D01*
X101657142Y-96242142D01*
X152325000Y-81557142D02*
X152360714Y-81485714D01*
X152360714Y-81378571D01*
X152325000Y-81271428D01*
X152253571Y-81200000D01*
X152182142Y-81164285D01*
X152039285Y-81128571D01*
X151932142Y-81128571D01*
X151789285Y-81164285D01*
X151717857Y-81200000D01*
X151646428Y-81271428D01*
X151610714Y-81378571D01*
X151610714Y-81450000D01*
X151646428Y-81557142D01*
X151682142Y-81592857D01*
X151932142Y-81592857D01*
X151932142Y-81450000D01*
X151610714Y-81914285D02*
X152360714Y-81914285D01*
X152360714Y-82200000D01*
X152325000Y-82271428D01*
X152289285Y-82307142D01*
X152217857Y-82342857D01*
X152110714Y-82342857D01*
X152039285Y-82307142D01*
X152003571Y-82271428D01*
X151967857Y-82200000D01*
X151967857Y-81914285D01*
X152289285Y-82628571D02*
X152325000Y-82664285D01*
X152360714Y-82735714D01*
X152360714Y-82914285D01*
X152325000Y-82985714D01*
X152289285Y-83021428D01*
X152217857Y-83057142D01*
X152146428Y-83057142D01*
X152039285Y-83021428D01*
X151610714Y-82592857D01*
X151610714Y-83057142D01*
X152360714Y-83307142D02*
X152360714Y-83807142D01*
X151610714Y-83485714D01*
X129425000Y-82517857D02*
X129460714Y-82446428D01*
X129460714Y-82339285D01*
X129425000Y-82232142D01*
X129353571Y-82160714D01*
X129282142Y-82125000D01*
X129139285Y-82089285D01*
X129032142Y-82089285D01*
X128889285Y-82125000D01*
X128817857Y-82160714D01*
X128746428Y-82232142D01*
X128710714Y-82339285D01*
X128710714Y-82410714D01*
X128746428Y-82517857D01*
X128782142Y-82553571D01*
X129032142Y-82553571D01*
X129032142Y-82410714D01*
X129210714Y-82875000D02*
X128710714Y-82875000D01*
X129139285Y-82875000D02*
X129175000Y-82910714D01*
X129210714Y-82982142D01*
X129210714Y-83089285D01*
X129175000Y-83160714D01*
X129103571Y-83196428D01*
X128710714Y-83196428D01*
X128710714Y-83875000D02*
X129460714Y-83875000D01*
X128746428Y-83875000D02*
X128710714Y-83803571D01*
X128710714Y-83660714D01*
X128746428Y-83589285D01*
X128782142Y-83553571D01*
X128853571Y-83517857D01*
X129067857Y-83517857D01*
X129139285Y-83553571D01*
X129175000Y-83589285D01*
X129210714Y-83660714D01*
X129210714Y-83803571D01*
X129175000Y-83875000D01*
X152325000Y-73464285D02*
X152360714Y-73392857D01*
X152360714Y-73285714D01*
X152325000Y-73178571D01*
X152253571Y-73107142D01*
X152182142Y-73071428D01*
X152039285Y-73035714D01*
X151932142Y-73035714D01*
X151789285Y-73071428D01*
X151717857Y-73107142D01*
X151646428Y-73178571D01*
X151610714Y-73285714D01*
X151610714Y-73357142D01*
X151646428Y-73464285D01*
X151682142Y-73500000D01*
X151932142Y-73500000D01*
X151932142Y-73357142D01*
X151610714Y-73821428D02*
X152360714Y-73821428D01*
X152360714Y-74107142D01*
X152325000Y-74178571D01*
X152289285Y-74214285D01*
X152217857Y-74250000D01*
X152110714Y-74250000D01*
X152039285Y-74214285D01*
X152003571Y-74178571D01*
X151967857Y-74107142D01*
X151967857Y-73821428D01*
X152360714Y-74892857D02*
X152360714Y-74750000D01*
X152325000Y-74678571D01*
X152289285Y-74642857D01*
X152182142Y-74571428D01*
X152039285Y-74535714D01*
X151753571Y-74535714D01*
X151682142Y-74571428D01*
X151646428Y-74607142D01*
X151610714Y-74678571D01*
X151610714Y-74821428D01*
X151646428Y-74892857D01*
X151682142Y-74928571D01*
X151753571Y-74964285D01*
X151932142Y-74964285D01*
X152003571Y-74928571D01*
X152039285Y-74892857D01*
X152075000Y-74821428D01*
X152075000Y-74678571D01*
X152039285Y-74607142D01*
X152003571Y-74571428D01*
X151932142Y-74535714D01*
X149960714Y-88617857D02*
X149960714Y-89082142D01*
X149675000Y-88832142D01*
X149675000Y-88939285D01*
X149639285Y-89010714D01*
X149603571Y-89046428D01*
X149532142Y-89082142D01*
X149353571Y-89082142D01*
X149282142Y-89046428D01*
X149246428Y-89010714D01*
X149210714Y-88939285D01*
X149210714Y-88725000D01*
X149246428Y-88653571D01*
X149282142Y-88617857D01*
X149210714Y-89796428D02*
X149210714Y-89367857D01*
X149210714Y-89582142D02*
X149960714Y-89582142D01*
X149853571Y-89510714D01*
X149782142Y-89439285D01*
X149746428Y-89367857D01*
X162225000Y-73464285D02*
X162260714Y-73392857D01*
X162260714Y-73285714D01*
X162225000Y-73178571D01*
X162153571Y-73107142D01*
X162082142Y-73071428D01*
X161939285Y-73035714D01*
X161832142Y-73035714D01*
X161689285Y-73071428D01*
X161617857Y-73107142D01*
X161546428Y-73178571D01*
X161510714Y-73285714D01*
X161510714Y-73357142D01*
X161546428Y-73464285D01*
X161582142Y-73500000D01*
X161832142Y-73500000D01*
X161832142Y-73357142D01*
X161510714Y-73821428D02*
X162260714Y-73821428D01*
X162260714Y-74107142D01*
X162225000Y-74178571D01*
X162189285Y-74214285D01*
X162117857Y-74250000D01*
X162010714Y-74250000D01*
X161939285Y-74214285D01*
X161903571Y-74178571D01*
X161867857Y-74107142D01*
X161867857Y-73821428D01*
X162260714Y-74500000D02*
X162260714Y-74964285D01*
X161975000Y-74714285D01*
X161975000Y-74821428D01*
X161939285Y-74892857D01*
X161903571Y-74928571D01*
X161832142Y-74964285D01*
X161653571Y-74964285D01*
X161582142Y-74928571D01*
X161546428Y-74892857D01*
X161510714Y-74821428D01*
X161510714Y-74607142D01*
X161546428Y-74535714D01*
X161582142Y-74500000D01*
X144010714Y-69557142D02*
X144010714Y-69128571D01*
X144010714Y-69342857D02*
X144760714Y-69342857D01*
X144653571Y-69271428D01*
X144582142Y-69200000D01*
X144546428Y-69128571D01*
X144689285Y-69842857D02*
X144725000Y-69878571D01*
X144760714Y-69950000D01*
X144760714Y-70128571D01*
X144725000Y-70200000D01*
X144689285Y-70235714D01*
X144617857Y-70271428D01*
X144546428Y-70271428D01*
X144439285Y-70235714D01*
X144010714Y-69807142D01*
X144010714Y-70271428D01*
X129539285Y-88653571D02*
X129575000Y-88689285D01*
X129610714Y-88760714D01*
X129610714Y-88939285D01*
X129575000Y-89010714D01*
X129539285Y-89046428D01*
X129467857Y-89082142D01*
X129396428Y-89082142D01*
X129289285Y-89046428D01*
X128860714Y-88617857D01*
X128860714Y-89082142D01*
X129610714Y-89332142D02*
X129610714Y-89796428D01*
X129325000Y-89546428D01*
X129325000Y-89653571D01*
X129289285Y-89725000D01*
X129253571Y-89760714D01*
X129182142Y-89796428D01*
X129003571Y-89796428D01*
X128932142Y-89760714D01*
X128896428Y-89725000D01*
X128860714Y-89653571D01*
X128860714Y-89439285D01*
X128896428Y-89367857D01*
X128932142Y-89332142D01*
X172625000Y-73464285D02*
X172660714Y-73392857D01*
X172660714Y-73285714D01*
X172625000Y-73178571D01*
X172553571Y-73107142D01*
X172482142Y-73071428D01*
X172339285Y-73035714D01*
X172232142Y-73035714D01*
X172089285Y-73071428D01*
X172017857Y-73107142D01*
X171946428Y-73178571D01*
X171910714Y-73285714D01*
X171910714Y-73357142D01*
X171946428Y-73464285D01*
X171982142Y-73500000D01*
X172232142Y-73500000D01*
X172232142Y-73357142D01*
X171910714Y-73821428D02*
X172660714Y-73821428D01*
X172660714Y-74107142D01*
X172625000Y-74178571D01*
X172589285Y-74214285D01*
X172517857Y-74250000D01*
X172410714Y-74250000D01*
X172339285Y-74214285D01*
X172303571Y-74178571D01*
X172267857Y-74107142D01*
X172267857Y-73821428D01*
X172660714Y-74714285D02*
X172660714Y-74785714D01*
X172625000Y-74857142D01*
X172589285Y-74892857D01*
X172517857Y-74928571D01*
X172375000Y-74964285D01*
X172196428Y-74964285D01*
X172053571Y-74928571D01*
X171982142Y-74892857D01*
X171946428Y-74857142D01*
X171910714Y-74785714D01*
X171910714Y-74714285D01*
X171946428Y-74642857D01*
X171982142Y-74607142D01*
X172053571Y-74571428D01*
X172196428Y-74535714D01*
X172375000Y-74535714D01*
X172517857Y-74571428D01*
X172589285Y-74607142D01*
X172625000Y-74642857D01*
X172660714Y-74714285D01*
X164810714Y-69892857D02*
X164310714Y-69892857D01*
X165096428Y-69714285D02*
X164560714Y-69535714D01*
X164560714Y-70000000D01*
X110267857Y-100091190D02*
X110236904Y-100060238D01*
X110205952Y-99967380D01*
X110205952Y-99905476D01*
X110236904Y-99812619D01*
X110298809Y-99750714D01*
X110360714Y-99719761D01*
X110484523Y-99688809D01*
X110577380Y-99688809D01*
X110701190Y-99719761D01*
X110763095Y-99750714D01*
X110825000Y-99812619D01*
X110855952Y-99905476D01*
X110855952Y-99967380D01*
X110825000Y-100060238D01*
X110794047Y-100091190D01*
X110205952Y-100679285D02*
X110205952Y-100369761D01*
X110855952Y-100369761D01*
X110205952Y-100895952D02*
X110855952Y-100895952D01*
X110205952Y-101267380D02*
X110577380Y-100988809D01*
X110855952Y-101267380D02*
X110484523Y-100895952D01*
X107589285Y-70553571D02*
X107696428Y-70589285D01*
X107875000Y-70589285D01*
X107946428Y-70553571D01*
X107982142Y-70517857D01*
X108017857Y-70446428D01*
X108017857Y-70375000D01*
X107982142Y-70303571D01*
X107946428Y-70267857D01*
X107875000Y-70232142D01*
X107732142Y-70196428D01*
X107660714Y-70160714D01*
X107625000Y-70125000D01*
X107589285Y-70053571D01*
X107589285Y-69982142D01*
X107625000Y-69910714D01*
X107660714Y-69875000D01*
X107732142Y-69839285D01*
X107910714Y-69839285D01*
X108017857Y-69875000D01*
X108339285Y-70589285D02*
X108339285Y-69839285D01*
X108517857Y-69839285D01*
X108625000Y-69875000D01*
X108696428Y-69946428D01*
X108732142Y-70017857D01*
X108767857Y-70160714D01*
X108767857Y-70267857D01*
X108732142Y-70410714D01*
X108696428Y-70482142D01*
X108625000Y-70553571D01*
X108517857Y-70589285D01*
X108339285Y-70589285D01*
X109053571Y-70375000D02*
X109410714Y-70375000D01*
X108982142Y-70589285D02*
X109232142Y-69839285D01*
X109482142Y-70589285D01*
X132025000Y-81557142D02*
X132060714Y-81485714D01*
X132060714Y-81378571D01*
X132025000Y-81271428D01*
X131953571Y-81200000D01*
X131882142Y-81164285D01*
X131739285Y-81128571D01*
X131632142Y-81128571D01*
X131489285Y-81164285D01*
X131417857Y-81200000D01*
X131346428Y-81271428D01*
X131310714Y-81378571D01*
X131310714Y-81450000D01*
X131346428Y-81557142D01*
X131382142Y-81592857D01*
X131632142Y-81592857D01*
X131632142Y-81450000D01*
X131310714Y-81914285D02*
X132060714Y-81914285D01*
X132060714Y-82200000D01*
X132025000Y-82271428D01*
X131989285Y-82307142D01*
X131917857Y-82342857D01*
X131810714Y-82342857D01*
X131739285Y-82307142D01*
X131703571Y-82271428D01*
X131667857Y-82200000D01*
X131667857Y-81914285D01*
X131310714Y-83057142D02*
X131310714Y-82628571D01*
X131310714Y-82842857D02*
X132060714Y-82842857D01*
X131953571Y-82771428D01*
X131882142Y-82700000D01*
X131846428Y-82628571D01*
X131739285Y-83485714D02*
X131775000Y-83414285D01*
X131810714Y-83378571D01*
X131882142Y-83342857D01*
X131917857Y-83342857D01*
X131989285Y-83378571D01*
X132025000Y-83414285D01*
X132060714Y-83485714D01*
X132060714Y-83628571D01*
X132025000Y-83700000D01*
X131989285Y-83735714D01*
X131917857Y-83771428D01*
X131882142Y-83771428D01*
X131810714Y-83735714D01*
X131775000Y-83700000D01*
X131739285Y-83628571D01*
X131739285Y-83485714D01*
X131703571Y-83414285D01*
X131667857Y-83378571D01*
X131596428Y-83342857D01*
X131453571Y-83342857D01*
X131382142Y-83378571D01*
X131346428Y-83414285D01*
X131310714Y-83485714D01*
X131310714Y-83628571D01*
X131346428Y-83700000D01*
X131382142Y-83735714D01*
X131453571Y-83771428D01*
X131596428Y-83771428D01*
X131667857Y-83735714D01*
X131703571Y-83700000D01*
X131739285Y-83628571D01*
D11*
X143210654Y-96976190D02*
X143210654Y-97333333D01*
X143186845Y-97404761D01*
X143139226Y-97452380D01*
X143067797Y-97476190D01*
X143020178Y-97476190D01*
X143710654Y-97476190D02*
X143424940Y-97476190D01*
X143567797Y-97476190D02*
X143567797Y-96976190D01*
X143520178Y-97047619D01*
X143472559Y-97095238D01*
X143424940Y-97119047D01*
D12*
X152460714Y-88617857D02*
X152460714Y-89082142D01*
X152175000Y-88832142D01*
X152175000Y-88939285D01*
X152139285Y-89010714D01*
X152103571Y-89046428D01*
X152032142Y-89082142D01*
X151853571Y-89082142D01*
X151782142Y-89046428D01*
X151746428Y-89010714D01*
X151710714Y-88939285D01*
X151710714Y-88725000D01*
X151746428Y-88653571D01*
X151782142Y-88617857D01*
X152389285Y-89367857D02*
X152425000Y-89403571D01*
X152460714Y-89475000D01*
X152460714Y-89653571D01*
X152425000Y-89725000D01*
X152389285Y-89760714D01*
X152317857Y-89796428D01*
X152246428Y-89796428D01*
X152139285Y-89760714D01*
X151710714Y-89332142D01*
X151710714Y-89796428D01*
X137125000Y-73557142D02*
X137160714Y-73485714D01*
X137160714Y-73378571D01*
X137125000Y-73271428D01*
X137053571Y-73200000D01*
X136982142Y-73164285D01*
X136839285Y-73128571D01*
X136732142Y-73128571D01*
X136589285Y-73164285D01*
X136517857Y-73200000D01*
X136446428Y-73271428D01*
X136410714Y-73378571D01*
X136410714Y-73450000D01*
X136446428Y-73557142D01*
X136482142Y-73592857D01*
X136732142Y-73592857D01*
X136732142Y-73450000D01*
X136410714Y-73914285D02*
X137160714Y-73914285D01*
X137160714Y-74200000D01*
X137125000Y-74271428D01*
X137089285Y-74307142D01*
X137017857Y-74342857D01*
X136910714Y-74342857D01*
X136839285Y-74307142D01*
X136803571Y-74271428D01*
X136767857Y-74200000D01*
X136767857Y-73914285D01*
X136410714Y-75057142D02*
X136410714Y-74628571D01*
X136410714Y-74842857D02*
X137160714Y-74842857D01*
X137053571Y-74771428D01*
X136982142Y-74700000D01*
X136946428Y-74628571D01*
X136410714Y-75771428D02*
X136410714Y-75342857D01*
X136410714Y-75557142D02*
X137160714Y-75557142D01*
X137053571Y-75485714D01*
X136982142Y-75414285D01*
X136946428Y-75342857D01*
X149725000Y-81557142D02*
X149760714Y-81485714D01*
X149760714Y-81378571D01*
X149725000Y-81271428D01*
X149653571Y-81200000D01*
X149582142Y-81164285D01*
X149439285Y-81128571D01*
X149332142Y-81128571D01*
X149189285Y-81164285D01*
X149117857Y-81200000D01*
X149046428Y-81271428D01*
X149010714Y-81378571D01*
X149010714Y-81450000D01*
X149046428Y-81557142D01*
X149082142Y-81592857D01*
X149332142Y-81592857D01*
X149332142Y-81450000D01*
X149010714Y-81914285D02*
X149760714Y-81914285D01*
X149760714Y-82200000D01*
X149725000Y-82271428D01*
X149689285Y-82307142D01*
X149617857Y-82342857D01*
X149510714Y-82342857D01*
X149439285Y-82307142D01*
X149403571Y-82271428D01*
X149367857Y-82200000D01*
X149367857Y-81914285D01*
X149689285Y-82628571D02*
X149725000Y-82664285D01*
X149760714Y-82735714D01*
X149760714Y-82914285D01*
X149725000Y-82985714D01*
X149689285Y-83021428D01*
X149617857Y-83057142D01*
X149546428Y-83057142D01*
X149439285Y-83021428D01*
X149010714Y-82592857D01*
X149010714Y-83057142D01*
X149760714Y-83700000D02*
X149760714Y-83557142D01*
X149725000Y-83485714D01*
X149689285Y-83450000D01*
X149582142Y-83378571D01*
X149439285Y-83342857D01*
X149153571Y-83342857D01*
X149082142Y-83378571D01*
X149046428Y-83414285D01*
X149010714Y-83485714D01*
X149010714Y-83628571D01*
X149046428Y-83700000D01*
X149082142Y-83735714D01*
X149153571Y-83771428D01*
X149332142Y-83771428D01*
X149403571Y-83735714D01*
X149439285Y-83700000D01*
X149475000Y-83628571D01*
X149475000Y-83485714D01*
X149439285Y-83414285D01*
X149403571Y-83378571D01*
X149332142Y-83342857D01*
X172660714Y-81275000D02*
X171910714Y-81525000D01*
X172660714Y-81775000D01*
X172303571Y-82275000D02*
X172267857Y-82382142D01*
X172232142Y-82417857D01*
X172160714Y-82453571D01*
X172053571Y-82453571D01*
X171982142Y-82417857D01*
X171946428Y-82382142D01*
X171910714Y-82310714D01*
X171910714Y-82025000D01*
X172660714Y-82025000D01*
X172660714Y-82275000D01*
X172625000Y-82346428D01*
X172589285Y-82382142D01*
X172517857Y-82417857D01*
X172446428Y-82417857D01*
X172375000Y-82382142D01*
X172339285Y-82346428D01*
X172303571Y-82275000D01*
X172303571Y-82025000D01*
X172660714Y-82775000D02*
X172053571Y-82775000D01*
X171982142Y-82810714D01*
X171946428Y-82846428D01*
X171910714Y-82917857D01*
X171910714Y-83060714D01*
X171946428Y-83132142D01*
X171982142Y-83167857D01*
X172053571Y-83203571D01*
X172660714Y-83203571D01*
X171946428Y-83525000D02*
X171910714Y-83632142D01*
X171910714Y-83810714D01*
X171946428Y-83882142D01*
X171982142Y-83917857D01*
X172053571Y-83953571D01*
X172125000Y-83953571D01*
X172196428Y-83917857D01*
X172232142Y-83882142D01*
X172267857Y-83810714D01*
X172303571Y-83667857D01*
X172339285Y-83596428D01*
X172375000Y-83560714D01*
X172446428Y-83525000D01*
X172517857Y-83525000D01*
X172589285Y-83560714D01*
X172625000Y-83596428D01*
X172660714Y-83667857D01*
X172660714Y-83846428D01*
X172625000Y-83953571D01*
X157510714Y-69500000D02*
X157510714Y-70000000D01*
X156760714Y-69678571D01*
X132025000Y-73557142D02*
X132060714Y-73485714D01*
X132060714Y-73378571D01*
X132025000Y-73271428D01*
X131953571Y-73200000D01*
X131882142Y-73164285D01*
X131739285Y-73128571D01*
X131632142Y-73128571D01*
X131489285Y-73164285D01*
X131417857Y-73200000D01*
X131346428Y-73271428D01*
X131310714Y-73378571D01*
X131310714Y-73450000D01*
X131346428Y-73557142D01*
X131382142Y-73592857D01*
X131632142Y-73592857D01*
X131632142Y-73450000D01*
X131310714Y-73914285D02*
X132060714Y-73914285D01*
X132060714Y-74200000D01*
X132025000Y-74271428D01*
X131989285Y-74307142D01*
X131917857Y-74342857D01*
X131810714Y-74342857D01*
X131739285Y-74307142D01*
X131703571Y-74271428D01*
X131667857Y-74200000D01*
X131667857Y-73914285D01*
X131310714Y-75057142D02*
X131310714Y-74628571D01*
X131310714Y-74842857D02*
X132060714Y-74842857D01*
X131953571Y-74771428D01*
X131882142Y-74700000D01*
X131846428Y-74628571D01*
X132060714Y-75307142D02*
X132060714Y-75771428D01*
X131775000Y-75521428D01*
X131775000Y-75628571D01*
X131739285Y-75700000D01*
X131703571Y-75735714D01*
X131632142Y-75771428D01*
X131453571Y-75771428D01*
X131382142Y-75735714D01*
X131346428Y-75700000D01*
X131310714Y-75628571D01*
X131310714Y-75414285D01*
X131346428Y-75342857D01*
X131382142Y-75307142D01*
X108736904Y-99688809D02*
X108705952Y-99781666D01*
X108705952Y-99936428D01*
X108736904Y-99998333D01*
X108767857Y-100029285D01*
X108829761Y-100060238D01*
X108891666Y-100060238D01*
X108953571Y-100029285D01*
X108984523Y-99998333D01*
X109015476Y-99936428D01*
X109046428Y-99812619D01*
X109077380Y-99750714D01*
X109108333Y-99719761D01*
X109170238Y-99688809D01*
X109232142Y-99688809D01*
X109294047Y-99719761D01*
X109325000Y-99750714D01*
X109355952Y-99812619D01*
X109355952Y-99967380D01*
X109325000Y-100060238D01*
X108736904Y-100307857D02*
X108705952Y-100400714D01*
X108705952Y-100555476D01*
X108736904Y-100617380D01*
X108767857Y-100648333D01*
X108829761Y-100679285D01*
X108891666Y-100679285D01*
X108953571Y-100648333D01*
X108984523Y-100617380D01*
X109015476Y-100555476D01*
X109046428Y-100431666D01*
X109077380Y-100369761D01*
X109108333Y-100338809D01*
X109170238Y-100307857D01*
X109232142Y-100307857D01*
X109294047Y-100338809D01*
X109325000Y-100369761D01*
X109355952Y-100431666D01*
X109355952Y-100586428D01*
X109325000Y-100679285D01*
X108644047Y-100803095D02*
X108644047Y-101298333D01*
X108705952Y-101453095D02*
X109355952Y-101453095D01*
X108705952Y-101824523D01*
X109355952Y-101824523D01*
D11*
X98203809Y-101287380D02*
X98156190Y-101311190D01*
X98060952Y-101311190D01*
X98013333Y-101287380D01*
X97989523Y-101239761D01*
X97989523Y-101049285D01*
X98013333Y-101001666D01*
X98060952Y-100977857D01*
X98156190Y-100977857D01*
X98203809Y-101001666D01*
X98227619Y-101049285D01*
X98227619Y-101096904D01*
X97989523Y-101144523D01*
X98441904Y-101311190D02*
X98441904Y-100811190D01*
X98608571Y-101168333D01*
X98775238Y-100811190D01*
X98775238Y-101311190D01*
X99013333Y-101311190D02*
X99013333Y-100811190D01*
X99180000Y-101168333D01*
X99346666Y-100811190D01*
X99346666Y-101311190D01*
X99870476Y-101263571D02*
X99846666Y-101287380D01*
X99775238Y-101311190D01*
X99727619Y-101311190D01*
X99656190Y-101287380D01*
X99608571Y-101239761D01*
X99584761Y-101192142D01*
X99560952Y-101096904D01*
X99560952Y-101025476D01*
X99584761Y-100930238D01*
X99608571Y-100882619D01*
X99656190Y-100835000D01*
X99727619Y-100811190D01*
X99775238Y-100811190D01*
X99846666Y-100835000D01*
X99870476Y-100858809D01*
D12*
X138960714Y-69557142D02*
X138960714Y-69128571D01*
X138960714Y-69342857D02*
X139710714Y-69342857D01*
X139603571Y-69271428D01*
X139532142Y-69200000D01*
X139496428Y-69128571D01*
X139460714Y-70200000D02*
X138960714Y-70200000D01*
X139746428Y-70021428D02*
X139210714Y-69842857D01*
X139210714Y-70307142D01*
D14*
X172571428Y-76607142D02*
X171357142Y-76607142D01*
X171214285Y-76678571D01*
X171142857Y-76750000D01*
X171071428Y-76892857D01*
X171071428Y-77178571D01*
X171142857Y-77321428D01*
X171214285Y-77392857D01*
X171357142Y-77464285D01*
X172571428Y-77464285D01*
X171142857Y-78107142D02*
X171071428Y-78321428D01*
X171071428Y-78678571D01*
X171142857Y-78821428D01*
X171214285Y-78892857D01*
X171357142Y-78964285D01*
X171500000Y-78964285D01*
X171642857Y-78892857D01*
X171714285Y-78821428D01*
X171785714Y-78678571D01*
X171857142Y-78392857D01*
X171928571Y-78250000D01*
X172000000Y-78178571D01*
X172142857Y-78107142D01*
X172285714Y-78107142D01*
X172428571Y-78178571D01*
X172500000Y-78250000D01*
X172571428Y-78392857D01*
X172571428Y-78750000D01*
X172500000Y-78964285D01*
X171857142Y-80107142D02*
X171785714Y-80321428D01*
X171714285Y-80392857D01*
X171571428Y-80464285D01*
X171357142Y-80464285D01*
X171214285Y-80392857D01*
X171142857Y-80321428D01*
X171071428Y-80178571D01*
X171071428Y-79607142D01*
X172571428Y-79607142D01*
X172571428Y-80107142D01*
X172500000Y-80250000D01*
X172428571Y-80321428D01*
X172285714Y-80392857D01*
X172142857Y-80392857D01*
X172000000Y-80321428D01*
X171928571Y-80250000D01*
X171857142Y-80107142D01*
X171857142Y-79607142D01*
D12*
X154925000Y-73517857D02*
X154960714Y-73446428D01*
X154960714Y-73339285D01*
X154925000Y-73232142D01*
X154853571Y-73160714D01*
X154782142Y-73125000D01*
X154639285Y-73089285D01*
X154532142Y-73089285D01*
X154389285Y-73125000D01*
X154317857Y-73160714D01*
X154246428Y-73232142D01*
X154210714Y-73339285D01*
X154210714Y-73410714D01*
X154246428Y-73517857D01*
X154282142Y-73553571D01*
X154532142Y-73553571D01*
X154532142Y-73410714D01*
X154710714Y-73875000D02*
X154210714Y-73875000D01*
X154639285Y-73875000D02*
X154675000Y-73910714D01*
X154710714Y-73982142D01*
X154710714Y-74089285D01*
X154675000Y-74160714D01*
X154603571Y-74196428D01*
X154210714Y-74196428D01*
X154210714Y-74875000D02*
X154960714Y-74875000D01*
X154246428Y-74875000D02*
X154210714Y-74803571D01*
X154210714Y-74660714D01*
X154246428Y-74589285D01*
X154282142Y-74553571D01*
X154353571Y-74517857D01*
X154567857Y-74517857D01*
X154639285Y-74553571D01*
X154675000Y-74589285D01*
X154710714Y-74660714D01*
X154710714Y-74803571D01*
X154675000Y-74875000D01*
X126825000Y-81557142D02*
X126860714Y-81485714D01*
X126860714Y-81378571D01*
X126825000Y-81271428D01*
X126753571Y-81200000D01*
X126682142Y-81164285D01*
X126539285Y-81128571D01*
X126432142Y-81128571D01*
X126289285Y-81164285D01*
X126217857Y-81200000D01*
X126146428Y-81271428D01*
X126110714Y-81378571D01*
X126110714Y-81450000D01*
X126146428Y-81557142D01*
X126182142Y-81592857D01*
X126432142Y-81592857D01*
X126432142Y-81450000D01*
X126110714Y-81914285D02*
X126860714Y-81914285D01*
X126860714Y-82200000D01*
X126825000Y-82271428D01*
X126789285Y-82307142D01*
X126717857Y-82342857D01*
X126610714Y-82342857D01*
X126539285Y-82307142D01*
X126503571Y-82271428D01*
X126467857Y-82200000D01*
X126467857Y-81914285D01*
X126110714Y-83057142D02*
X126110714Y-82628571D01*
X126110714Y-82842857D02*
X126860714Y-82842857D01*
X126753571Y-82771428D01*
X126682142Y-82700000D01*
X126646428Y-82628571D01*
X126860714Y-83307142D02*
X126860714Y-83807142D01*
X126110714Y-83485714D01*
X160010714Y-69892857D02*
X160010714Y-69750000D01*
X159975000Y-69678571D01*
X159939285Y-69642857D01*
X159832142Y-69571428D01*
X159689285Y-69535714D01*
X159403571Y-69535714D01*
X159332142Y-69571428D01*
X159296428Y-69607142D01*
X159260714Y-69678571D01*
X159260714Y-69821428D01*
X159296428Y-69892857D01*
X159332142Y-69928571D01*
X159403571Y-69964285D01*
X159582142Y-69964285D01*
X159653571Y-69928571D01*
X159689285Y-69892857D01*
X159725000Y-69821428D01*
X159725000Y-69678571D01*
X159689285Y-69607142D01*
X159653571Y-69571428D01*
X159582142Y-69535714D01*
X92464285Y-96339285D02*
X92464285Y-95589285D01*
X92642857Y-95589285D01*
X92750000Y-95625000D01*
X92821428Y-95696428D01*
X92857142Y-95767857D01*
X92892857Y-95910714D01*
X92892857Y-96017857D01*
X92857142Y-96160714D01*
X92821428Y-96232142D01*
X92750000Y-96303571D01*
X92642857Y-96339285D01*
X92464285Y-96339285D01*
X93500000Y-96303571D02*
X93428571Y-96339285D01*
X93285714Y-96339285D01*
X93214285Y-96303571D01*
X93178571Y-96232142D01*
X93178571Y-95946428D01*
X93214285Y-95875000D01*
X93285714Y-95839285D01*
X93428571Y-95839285D01*
X93500000Y-95875000D01*
X93535714Y-95946428D01*
X93535714Y-96017857D01*
X93178571Y-96089285D01*
X93857142Y-96339285D02*
X93857142Y-95589285D01*
X93857142Y-95875000D02*
X93928571Y-95839285D01*
X94071428Y-95839285D01*
X94142857Y-95875000D01*
X94178571Y-95910714D01*
X94214285Y-95982142D01*
X94214285Y-96196428D01*
X94178571Y-96267857D01*
X94142857Y-96303571D01*
X94071428Y-96339285D01*
X93928571Y-96339285D01*
X93857142Y-96303571D01*
X94857142Y-95839285D02*
X94857142Y-96339285D01*
X94535714Y-95839285D02*
X94535714Y-96232142D01*
X94571428Y-96303571D01*
X94642857Y-96339285D01*
X94750000Y-96339285D01*
X94821428Y-96303571D01*
X94857142Y-96267857D01*
X95535714Y-95839285D02*
X95535714Y-96446428D01*
X95500000Y-96517857D01*
X95464285Y-96553571D01*
X95392857Y-96589285D01*
X95285714Y-96589285D01*
X95214285Y-96553571D01*
X95535714Y-96303571D02*
X95464285Y-96339285D01*
X95321428Y-96339285D01*
X95250000Y-96303571D01*
X95214285Y-96267857D01*
X95178571Y-96196428D01*
X95178571Y-95982142D01*
X95214285Y-95910714D01*
X95250000Y-95875000D01*
X95321428Y-95839285D01*
X95464285Y-95839285D01*
X95535714Y-95875000D01*
X170160714Y-81464285D02*
X169410714Y-81714285D01*
X170160714Y-81964285D01*
X169446428Y-82178571D02*
X169410714Y-82285714D01*
X169410714Y-82464285D01*
X169446428Y-82535714D01*
X169482142Y-82571428D01*
X169553571Y-82607142D01*
X169625000Y-82607142D01*
X169696428Y-82571428D01*
X169732142Y-82535714D01*
X169767857Y-82464285D01*
X169803571Y-82321428D01*
X169839285Y-82250000D01*
X169875000Y-82214285D01*
X169946428Y-82178571D01*
X170017857Y-82178571D01*
X170089285Y-82214285D01*
X170125000Y-82250000D01*
X170160714Y-82321428D01*
X170160714Y-82500000D01*
X170125000Y-82607142D01*
X169767857Y-83071428D02*
X169410714Y-83071428D01*
X170160714Y-82821428D02*
X169767857Y-83071428D01*
X170160714Y-83321428D01*
X169446428Y-83535714D02*
X169410714Y-83642857D01*
X169410714Y-83821428D01*
X169446428Y-83892857D01*
X169482142Y-83928571D01*
X169553571Y-83964285D01*
X169625000Y-83964285D01*
X169696428Y-83928571D01*
X169732142Y-83892857D01*
X169767857Y-83821428D01*
X169803571Y-83678571D01*
X169839285Y-83607142D01*
X169875000Y-83571428D01*
X169946428Y-83535714D01*
X170017857Y-83535714D01*
X170089285Y-83571428D01*
X170125000Y-83607142D01*
X170160714Y-83678571D01*
X170160714Y-83857142D01*
X170125000Y-83964285D01*
X167625000Y-82467857D02*
X167660714Y-82396428D01*
X167660714Y-82289285D01*
X167625000Y-82182142D01*
X167553571Y-82110714D01*
X167482142Y-82075000D01*
X167339285Y-82039285D01*
X167232142Y-82039285D01*
X167089285Y-82075000D01*
X167017857Y-82110714D01*
X166946428Y-82182142D01*
X166910714Y-82289285D01*
X166910714Y-82360714D01*
X166946428Y-82467857D01*
X166982142Y-82503571D01*
X167232142Y-82503571D01*
X167232142Y-82360714D01*
X167410714Y-82825000D02*
X166910714Y-82825000D01*
X167339285Y-82825000D02*
X167375000Y-82860714D01*
X167410714Y-82932142D01*
X167410714Y-83039285D01*
X167375000Y-83110714D01*
X167303571Y-83146428D01*
X166910714Y-83146428D01*
X166910714Y-83825000D02*
X167660714Y-83825000D01*
X166946428Y-83825000D02*
X166910714Y-83753571D01*
X166910714Y-83610714D01*
X166946428Y-83539285D01*
X166982142Y-83503571D01*
X167053571Y-83467857D01*
X167267857Y-83467857D01*
X167339285Y-83503571D01*
X167375000Y-83539285D01*
X167410714Y-83610714D01*
X167410714Y-83753571D01*
X167375000Y-83825000D01*
X154925000Y-82467857D02*
X154960714Y-82396428D01*
X154960714Y-82289285D01*
X154925000Y-82182142D01*
X154853571Y-82110714D01*
X154782142Y-82075000D01*
X154639285Y-82039285D01*
X154532142Y-82039285D01*
X154389285Y-82075000D01*
X154317857Y-82110714D01*
X154246428Y-82182142D01*
X154210714Y-82289285D01*
X154210714Y-82360714D01*
X154246428Y-82467857D01*
X154282142Y-82503571D01*
X154532142Y-82503571D01*
X154532142Y-82360714D01*
X154710714Y-82825000D02*
X154210714Y-82825000D01*
X154639285Y-82825000D02*
X154675000Y-82860714D01*
X154710714Y-82932142D01*
X154710714Y-83039285D01*
X154675000Y-83110714D01*
X154603571Y-83146428D01*
X154210714Y-83146428D01*
X154210714Y-83825000D02*
X154960714Y-83825000D01*
X154246428Y-83825000D02*
X154210714Y-83753571D01*
X154210714Y-83610714D01*
X154246428Y-83539285D01*
X154282142Y-83503571D01*
X154353571Y-83467857D01*
X154567857Y-83467857D01*
X154639285Y-83503571D01*
X154675000Y-83539285D01*
X154710714Y-83610714D01*
X154710714Y-83753571D01*
X154675000Y-83825000D01*
X124439285Y-88653571D02*
X124475000Y-88689285D01*
X124510714Y-88760714D01*
X124510714Y-88939285D01*
X124475000Y-89010714D01*
X124439285Y-89046428D01*
X124367857Y-89082142D01*
X124296428Y-89082142D01*
X124189285Y-89046428D01*
X123760714Y-88617857D01*
X123760714Y-89082142D01*
X123760714Y-89796428D02*
X123760714Y-89367857D01*
X123760714Y-89582142D02*
X124510714Y-89582142D01*
X124403571Y-89510714D01*
X124332142Y-89439285D01*
X124296428Y-89367857D01*
X126260714Y-69557142D02*
X126260714Y-69128571D01*
X126260714Y-69342857D02*
X127010714Y-69342857D01*
X126903571Y-69271428D01*
X126832142Y-69200000D01*
X126796428Y-69128571D01*
X126260714Y-69914285D02*
X126260714Y-70057142D01*
X126296428Y-70128571D01*
X126332142Y-70164285D01*
X126439285Y-70235714D01*
X126582142Y-70271428D01*
X126867857Y-70271428D01*
X126939285Y-70235714D01*
X126975000Y-70200000D01*
X127010714Y-70128571D01*
X127010714Y-69985714D01*
X126975000Y-69914285D01*
X126939285Y-69878571D01*
X126867857Y-69842857D01*
X126689285Y-69842857D01*
X126617857Y-69878571D01*
X126582142Y-69914285D01*
X126546428Y-69985714D01*
X126546428Y-70128571D01*
X126582142Y-70200000D01*
X126617857Y-70235714D01*
X126689285Y-70271428D01*
X117013816Y-99196428D02*
X117263816Y-99196428D01*
X117321852Y-99589285D02*
X116964709Y-99589285D01*
X117058459Y-98839285D01*
X117415602Y-98839285D01*
X117634352Y-99089285D02*
X117750424Y-99589285D01*
X117991495Y-99089285D01*
X118504888Y-99553571D02*
X118428995Y-99589285D01*
X118286138Y-99589285D01*
X118219174Y-99553571D01*
X118192388Y-99482142D01*
X118228102Y-99196428D01*
X118272745Y-99125000D01*
X118348638Y-99089285D01*
X118491495Y-99089285D01*
X118558459Y-99125000D01*
X118585245Y-99196428D01*
X118576316Y-99267857D01*
X118210245Y-99339285D01*
X118857566Y-99589285D02*
X118920066Y-99089285D01*
X118902209Y-99232142D02*
X118946852Y-99160714D01*
X118987031Y-99125000D01*
X119062924Y-99089285D01*
X119134352Y-99089285D01*
X119312924Y-99089285D02*
X119428995Y-99589285D01*
X119670066Y-99089285D02*
X119428995Y-99589285D01*
X119335245Y-99767857D01*
X119295066Y-99803571D01*
X119219174Y-99839285D01*
X120000424Y-99589285D02*
X119933459Y-99553571D01*
X119902209Y-99517857D01*
X119875424Y-99446428D01*
X119902209Y-99232142D01*
X119946852Y-99160714D01*
X119987031Y-99125000D01*
X120062924Y-99089285D01*
X120170066Y-99089285D01*
X120237031Y-99125000D01*
X120268281Y-99160714D01*
X120295066Y-99232142D01*
X120268281Y-99446428D01*
X120223638Y-99517857D01*
X120183459Y-99553571D01*
X120107566Y-99589285D01*
X120000424Y-99589285D01*
X120634352Y-99089285D02*
X120571852Y-99589285D01*
X120625424Y-99160714D02*
X120665602Y-99125000D01*
X120741495Y-99089285D01*
X120848638Y-99089285D01*
X120915602Y-99125000D01*
X120942388Y-99196428D01*
X120893281Y-99589285D01*
X121540602Y-99553571D02*
X121464709Y-99589285D01*
X121321852Y-99589285D01*
X121254888Y-99553571D01*
X121228102Y-99482142D01*
X121263816Y-99196428D01*
X121308459Y-99125000D01*
X121384352Y-99089285D01*
X121527209Y-99089285D01*
X121594174Y-99125000D01*
X121620959Y-99196428D01*
X121612031Y-99267857D01*
X121245959Y-99339285D01*
X122790602Y-99553571D02*
X122714709Y-99589285D01*
X122571852Y-99589285D01*
X122504888Y-99553571D01*
X122473638Y-99517857D01*
X122446852Y-99446428D01*
X122473638Y-99232142D01*
X122518281Y-99160714D01*
X122558459Y-99125000D01*
X122634352Y-99089285D01*
X122777209Y-99089285D01*
X122844174Y-99125000D01*
X123428995Y-99589285D02*
X123478102Y-99196428D01*
X123451316Y-99125000D01*
X123384352Y-99089285D01*
X123241495Y-99089285D01*
X123165602Y-99125000D01*
X123433459Y-99553571D02*
X123357566Y-99589285D01*
X123178995Y-99589285D01*
X123112031Y-99553571D01*
X123085245Y-99482142D01*
X123094174Y-99410714D01*
X123138816Y-99339285D01*
X123214709Y-99303571D01*
X123393281Y-99303571D01*
X123469174Y-99267857D01*
X123848638Y-99089285D02*
X123786138Y-99589285D01*
X123839709Y-99160714D02*
X123879888Y-99125000D01*
X123955781Y-99089285D01*
X124062924Y-99089285D01*
X124129888Y-99125000D01*
X124156674Y-99196428D01*
X124107566Y-99589285D01*
X125036138Y-99589285D02*
X125129888Y-98839285D01*
X125312924Y-99375000D01*
X125629888Y-98839285D01*
X125536138Y-99589285D01*
X126000424Y-99589285D02*
X125933459Y-99553571D01*
X125902209Y-99517857D01*
X125875424Y-99446428D01*
X125902209Y-99232142D01*
X125946852Y-99160714D01*
X125987031Y-99125000D01*
X126062924Y-99089285D01*
X126170066Y-99089285D01*
X126237031Y-99125000D01*
X126268281Y-99160714D01*
X126295066Y-99232142D01*
X126268281Y-99446428D01*
X126223638Y-99517857D01*
X126183459Y-99553571D01*
X126107566Y-99589285D01*
X126000424Y-99589285D01*
X126893281Y-99589285D02*
X126987031Y-98839285D01*
X126897745Y-99553571D02*
X126821852Y-99589285D01*
X126678995Y-99589285D01*
X126612031Y-99553571D01*
X126580781Y-99517857D01*
X126553995Y-99446428D01*
X126580781Y-99232142D01*
X126625424Y-99160714D01*
X126665602Y-99125000D01*
X126741495Y-99089285D01*
X126884352Y-99089285D01*
X126951316Y-99125000D01*
D10*
X100904761Y-64452380D02*
X101095238Y-64452380D01*
X101190476Y-64500000D01*
X101285714Y-64595238D01*
X101333333Y-64785714D01*
X101333333Y-65119047D01*
X101285714Y-65309523D01*
X101190476Y-65404761D01*
X101095238Y-65452380D01*
X100904761Y-65452380D01*
X100809523Y-65404761D01*
X100714285Y-65309523D01*
X100666666Y-65119047D01*
X100666666Y-64785714D01*
X100714285Y-64595238D01*
X100809523Y-64500000D01*
X100904761Y-64452380D01*
X102190476Y-64785714D02*
X102190476Y-65452380D01*
X101761904Y-64785714D02*
X101761904Y-65309523D01*
X101809523Y-65404761D01*
X101904761Y-65452380D01*
X102047619Y-65452380D01*
X102142857Y-65404761D01*
X102190476Y-65357142D01*
X102523809Y-64785714D02*
X102904761Y-64785714D01*
X102666666Y-64452380D02*
X102666666Y-65309523D01*
X102714285Y-65404761D01*
X102809523Y-65452380D01*
X102904761Y-65452380D01*
X103238095Y-64785714D02*
X103238095Y-65785714D01*
X103238095Y-64833333D02*
X103333333Y-64785714D01*
X103523809Y-64785714D01*
X103619047Y-64833333D01*
X103666666Y-64880952D01*
X103714285Y-64976190D01*
X103714285Y-65261904D01*
X103666666Y-65357142D01*
X103619047Y-65404761D01*
X103523809Y-65452380D01*
X103333333Y-65452380D01*
X103238095Y-65404761D01*
X104571428Y-64785714D02*
X104571428Y-65452380D01*
X104142857Y-64785714D02*
X104142857Y-65309523D01*
X104190476Y-65404761D01*
X104285714Y-65452380D01*
X104428571Y-65452380D01*
X104523809Y-65404761D01*
X104571428Y-65357142D01*
X104904761Y-64785714D02*
X105285714Y-64785714D01*
X105047619Y-64452380D02*
X105047619Y-65309523D01*
X105095238Y-65404761D01*
X105190476Y-65452380D01*
X105285714Y-65452380D01*
X106380952Y-65452380D02*
X106380952Y-64452380D01*
X106619047Y-64452380D01*
X106761904Y-64500000D01*
X106857142Y-64595238D01*
X106904761Y-64690476D01*
X106952380Y-64880952D01*
X106952380Y-65023809D01*
X106904761Y-65214285D01*
X106857142Y-65309523D01*
X106761904Y-65404761D01*
X106619047Y-65452380D01*
X106380952Y-65452380D01*
X107380952Y-65452380D02*
X107380952Y-64785714D01*
X107380952Y-64452380D02*
X107333333Y-64500000D01*
X107380952Y-64547619D01*
X107428571Y-64500000D01*
X107380952Y-64452380D01*
X107380952Y-64547619D01*
X107809523Y-65404761D02*
X107904761Y-65452380D01*
X108095238Y-65452380D01*
X108190476Y-65404761D01*
X108238095Y-65309523D01*
X108238095Y-65261904D01*
X108190476Y-65166666D01*
X108095238Y-65119047D01*
X107952380Y-65119047D01*
X107857142Y-65071428D01*
X107809523Y-64976190D01*
X107809523Y-64928571D01*
X107857142Y-64833333D01*
X107952380Y-64785714D01*
X108095238Y-64785714D01*
X108190476Y-64833333D01*
X108666666Y-64785714D02*
X108666666Y-65785714D01*
X108666666Y-64833333D02*
X108761904Y-64785714D01*
X108952380Y-64785714D01*
X109047619Y-64833333D01*
X109095238Y-64880952D01*
X109142857Y-64976190D01*
X109142857Y-65261904D01*
X109095238Y-65357142D01*
X109047619Y-65404761D01*
X108952380Y-65452380D01*
X108761904Y-65452380D01*
X108666666Y-65404761D01*
X109714285Y-65452380D02*
X109619047Y-65404761D01*
X109571428Y-65309523D01*
X109571428Y-64452380D01*
X110523809Y-65452380D02*
X110523809Y-64928571D01*
X110476190Y-64833333D01*
X110380952Y-64785714D01*
X110190476Y-64785714D01*
X110095238Y-64833333D01*
X110523809Y-65404761D02*
X110428571Y-65452380D01*
X110190476Y-65452380D01*
X110095238Y-65404761D01*
X110047619Y-65309523D01*
X110047619Y-65214285D01*
X110095238Y-65119047D01*
X110190476Y-65071428D01*
X110428571Y-65071428D01*
X110523809Y-65023809D01*
X110904761Y-64785714D02*
X111142857Y-65452380D01*
X111380952Y-64785714D02*
X111142857Y-65452380D01*
X111047619Y-65690476D01*
X111000000Y-65738095D01*
X110904761Y-65785714D01*
D12*
X151660714Y-69607142D02*
X151660714Y-69750000D01*
X151696428Y-69821428D01*
X151732142Y-69857142D01*
X151839285Y-69928571D01*
X151982142Y-69964285D01*
X152267857Y-69964285D01*
X152339285Y-69928571D01*
X152375000Y-69892857D01*
X152410714Y-69821428D01*
X152410714Y-69678571D01*
X152375000Y-69607142D01*
X152339285Y-69571428D01*
X152267857Y-69535714D01*
X152089285Y-69535714D01*
X152017857Y-69571428D01*
X151982142Y-69607142D01*
X151946428Y-69678571D01*
X151946428Y-69821428D01*
X151982142Y-69892857D01*
X152017857Y-69928571D01*
X152089285Y-69964285D01*
X132089285Y-88653571D02*
X132125000Y-88689285D01*
X132160714Y-88760714D01*
X132160714Y-88939285D01*
X132125000Y-89010714D01*
X132089285Y-89046428D01*
X132017857Y-89082142D01*
X131946428Y-89082142D01*
X131839285Y-89046428D01*
X131410714Y-88617857D01*
X131410714Y-89082142D01*
X131910714Y-89725000D02*
X131410714Y-89725000D01*
X132196428Y-89546428D02*
X131660714Y-89367857D01*
X131660714Y-89832142D01*
X159625000Y-73464285D02*
X159660714Y-73392857D01*
X159660714Y-73285714D01*
X159625000Y-73178571D01*
X159553571Y-73107142D01*
X159482142Y-73071428D01*
X159339285Y-73035714D01*
X159232142Y-73035714D01*
X159089285Y-73071428D01*
X159017857Y-73107142D01*
X158946428Y-73178571D01*
X158910714Y-73285714D01*
X158910714Y-73357142D01*
X158946428Y-73464285D01*
X158982142Y-73500000D01*
X159232142Y-73500000D01*
X159232142Y-73357142D01*
X158910714Y-73821428D02*
X159660714Y-73821428D01*
X159660714Y-74107142D01*
X159625000Y-74178571D01*
X159589285Y-74214285D01*
X159517857Y-74250000D01*
X159410714Y-74250000D01*
X159339285Y-74214285D01*
X159303571Y-74178571D01*
X159267857Y-74107142D01*
X159267857Y-73821428D01*
X159410714Y-74892857D02*
X158910714Y-74892857D01*
X159696428Y-74714285D02*
X159160714Y-74535714D01*
X159160714Y-75000000D01*
X146560714Y-69557142D02*
X146560714Y-69128571D01*
X146560714Y-69342857D02*
X147310714Y-69342857D01*
X147203571Y-69271428D01*
X147132142Y-69200000D01*
X147096428Y-69128571D01*
X146560714Y-70271428D02*
X146560714Y-69842857D01*
X146560714Y-70057142D02*
X147310714Y-70057142D01*
X147203571Y-69985714D01*
X147132142Y-69914285D01*
X147096428Y-69842857D01*
D11*
%TO.C,D3*%
X98480952Y-98951190D02*
X98480952Y-98451190D01*
X98600000Y-98451190D01*
X98671428Y-98475000D01*
X98719047Y-98522619D01*
X98742857Y-98570238D01*
X98766666Y-98665476D01*
X98766666Y-98736904D01*
X98742857Y-98832142D01*
X98719047Y-98879761D01*
X98671428Y-98927380D01*
X98600000Y-98951190D01*
X98480952Y-98951190D01*
X98933333Y-98451190D02*
X99242857Y-98451190D01*
X99076190Y-98641666D01*
X99147619Y-98641666D01*
X99195238Y-98665476D01*
X99219047Y-98689285D01*
X99242857Y-98736904D01*
X99242857Y-98855952D01*
X99219047Y-98903571D01*
X99195238Y-98927380D01*
X99147619Y-98951190D01*
X99004761Y-98951190D01*
X98957142Y-98927380D01*
X98933333Y-98903571D01*
%TO.C,D2*%
X96180952Y-98951190D02*
X96180952Y-98451190D01*
X96300000Y-98451190D01*
X96371428Y-98475000D01*
X96419047Y-98522619D01*
X96442857Y-98570238D01*
X96466666Y-98665476D01*
X96466666Y-98736904D01*
X96442857Y-98832142D01*
X96419047Y-98879761D01*
X96371428Y-98927380D01*
X96300000Y-98951190D01*
X96180952Y-98951190D01*
X96657142Y-98498809D02*
X96680952Y-98475000D01*
X96728571Y-98451190D01*
X96847619Y-98451190D01*
X96895238Y-98475000D01*
X96919047Y-98498809D01*
X96942857Y-98546428D01*
X96942857Y-98594047D01*
X96919047Y-98665476D01*
X96633333Y-98951190D01*
X96942857Y-98951190D01*
%TO.C,RN1*%
X91476190Y-99095238D02*
X91238095Y-99261904D01*
X91476190Y-99380952D02*
X90976190Y-99380952D01*
X90976190Y-99190476D01*
X91000000Y-99142857D01*
X91023809Y-99119047D01*
X91071428Y-99095238D01*
X91142857Y-99095238D01*
X91190476Y-99119047D01*
X91214285Y-99142857D01*
X91238095Y-99190476D01*
X91238095Y-99380952D01*
X91476190Y-98880952D02*
X90976190Y-98880952D01*
X91476190Y-98595238D01*
X90976190Y-98595238D01*
X91476190Y-98095238D02*
X91476190Y-98380952D01*
X91476190Y-98238095D02*
X90976190Y-98238095D01*
X91047619Y-98285714D01*
X91095238Y-98333333D01*
X91119047Y-98380952D01*
%TO.C,D4*%
X100680952Y-98951190D02*
X100680952Y-98451190D01*
X100800000Y-98451190D01*
X100871428Y-98475000D01*
X100919047Y-98522619D01*
X100942857Y-98570238D01*
X100966666Y-98665476D01*
X100966666Y-98736904D01*
X100942857Y-98832142D01*
X100919047Y-98879761D01*
X100871428Y-98927380D01*
X100800000Y-98951190D01*
X100680952Y-98951190D01*
X101395238Y-98617857D02*
X101395238Y-98951190D01*
X101276190Y-98427380D02*
X101157142Y-98784523D01*
X101466666Y-98784523D01*
D10*
%TO.C,U2*%
X103238095Y-72202380D02*
X103238095Y-73011904D01*
X103285714Y-73107142D01*
X103333333Y-73154761D01*
X103428571Y-73202380D01*
X103619047Y-73202380D01*
X103714285Y-73154761D01*
X103761904Y-73107142D01*
X103809523Y-73011904D01*
X103809523Y-72202380D01*
X104238095Y-72297619D02*
X104285714Y-72250000D01*
X104380952Y-72202380D01*
X104619047Y-72202380D01*
X104714285Y-72250000D01*
X104761904Y-72297619D01*
X104809523Y-72392857D01*
X104809523Y-72488095D01*
X104761904Y-72630952D01*
X104190476Y-73202380D01*
X104809523Y-73202380D01*
D11*
%TO.C,J3*%
X112833333Y-96976190D02*
X112833333Y-97333333D01*
X112809523Y-97404761D01*
X112761904Y-97452380D01*
X112690476Y-97476190D01*
X112642857Y-97476190D01*
X113023809Y-96976190D02*
X113333333Y-96976190D01*
X113166666Y-97166666D01*
X113238095Y-97166666D01*
X113285714Y-97190476D01*
X113309523Y-97214285D01*
X113333333Y-97261904D01*
X113333333Y-97380952D01*
X113309523Y-97428571D01*
X113285714Y-97452380D01*
X113238095Y-97476190D01*
X113095238Y-97476190D01*
X113047619Y-97452380D01*
X113023809Y-97428571D01*
%TO.C,D1*%
X94005952Y-98951190D02*
X94005952Y-98451190D01*
X94125000Y-98451190D01*
X94196428Y-98475000D01*
X94244047Y-98522619D01*
X94267857Y-98570238D01*
X94291666Y-98665476D01*
X94291666Y-98736904D01*
X94267857Y-98832142D01*
X94244047Y-98879761D01*
X94196428Y-98927380D01*
X94125000Y-98951190D01*
X94005952Y-98951190D01*
X94767857Y-98951190D02*
X94482142Y-98951190D01*
X94625000Y-98951190D02*
X94625000Y-98451190D01*
X94577380Y-98522619D01*
X94529761Y-98570238D01*
X94482142Y-98594047D01*
D15*
%TO.C,U1*%
X148480380Y-77764523D02*
X148480380Y-78792619D01*
X148540857Y-78913571D01*
X148601333Y-78974047D01*
X148722285Y-79034523D01*
X148964190Y-79034523D01*
X149085142Y-78974047D01*
X149145619Y-78913571D01*
X149206095Y-78792619D01*
X149206095Y-77764523D01*
X150476095Y-79034523D02*
X149750380Y-79034523D01*
X150113238Y-79034523D02*
X150113238Y-77764523D01*
X149992285Y-77945952D01*
X149871333Y-78066904D01*
X149750380Y-78127380D01*
D13*
%TO.C,D3*%
X97790000Y-96865000D02*
X97790000Y-99725000D01*
X99710000Y-96865000D02*
X97790000Y-96865000D01*
X99710000Y-99725000D02*
X99710000Y-96865000D01*
%TO.C,G\u002A\u002A\u002A*%
G36*
X124043174Y-93123640D02*
G01*
X123860398Y-93564554D01*
X123667694Y-94029534D01*
X123495979Y-94443973D01*
X123432313Y-94597675D01*
X123289636Y-94922004D01*
X123178640Y-95113621D01*
X123076516Y-95203787D01*
X122975298Y-95224035D01*
X122860280Y-95196995D01*
X122757714Y-95094653D01*
X122644140Y-94885176D01*
X122529788Y-94619555D01*
X122404681Y-94330711D01*
X122299409Y-94116913D01*
X122233645Y-94017504D01*
X122227407Y-94014793D01*
X122171063Y-94088586D01*
X122071597Y-94284060D01*
X121948677Y-94561917D01*
X121925026Y-94618992D01*
X121783874Y-94939718D01*
X121672001Y-95126436D01*
X121567073Y-95210039D01*
X121487833Y-95223754D01*
X121317688Y-95194577D01*
X121253742Y-95151544D01*
X121207156Y-95050531D01*
X121107382Y-94818268D01*
X120966540Y-94483476D01*
X120796745Y-94074878D01*
X120679680Y-93790830D01*
X120497334Y-93347098D01*
X120336384Y-92955614D01*
X120209049Y-92646087D01*
X120127550Y-92448227D01*
X120105378Y-92394614D01*
X120139070Y-92311791D01*
X120317462Y-92286620D01*
X120422840Y-92293121D01*
X120507435Y-92329550D01*
X120586640Y-92421298D01*
X120675852Y-92593755D01*
X120790465Y-92872312D01*
X120945874Y-93282360D01*
X120985357Y-93388151D01*
X121140585Y-93797358D01*
X121278699Y-94148398D01*
X121386728Y-94409233D01*
X121451698Y-94547826D01*
X121459703Y-94559631D01*
X121521652Y-94524126D01*
X121620509Y-94362413D01*
X121723957Y-94135140D01*
X121924635Y-93640701D01*
X121722799Y-93071654D01*
X121615966Y-92770781D01*
X121529467Y-92527771D01*
X121481935Y-92394970D01*
X121481806Y-92394614D01*
X121519845Y-92309277D01*
X121653846Y-92286620D01*
X121784240Y-92311564D01*
X121882482Y-92411827D01*
X121978510Y-92625556D01*
X122026403Y-92761334D01*
X122120383Y-93003390D01*
X122200560Y-93149891D01*
X122242142Y-93171708D01*
X122301494Y-93058623D01*
X122392361Y-92841837D01*
X122447539Y-92696994D01*
X122556536Y-92443942D01*
X122663025Y-92320287D01*
X122801534Y-92286651D01*
X122807396Y-92286620D01*
X122966403Y-92294269D01*
X123015920Y-92308219D01*
X122986707Y-92392908D01*
X122909440Y-92598497D01*
X122799193Y-92885042D01*
X122766696Y-92968622D01*
X122517789Y-93607427D01*
X122695135Y-94048554D01*
X122803930Y-94306108D01*
X122893892Y-94496306D01*
X122930736Y-94558134D01*
X122980101Y-94507067D01*
X123076355Y-94320275D01*
X123207291Y-94024405D01*
X123360705Y-93646102D01*
X123425427Y-93478202D01*
X123598799Y-93026194D01*
X123727143Y-92710749D01*
X123825643Y-92506471D01*
X123909485Y-92387968D01*
X123993854Y-92329843D01*
X124093937Y-92306702D01*
X124128242Y-92302892D01*
X124394623Y-92275966D01*
X124043174Y-93123640D01*
G37*
%TO.C,D2*%
X95590000Y-96865000D02*
X95590000Y-99725000D01*
X97510000Y-99725000D02*
X97510000Y-96865000D01*
X97510000Y-96865000D02*
X95590000Y-96865000D01*
D12*
%TO.C,J2*%
X131850000Y-96750000D02*
X143850000Y-96750000D01*
X143850000Y-96750000D02*
X143850000Y-102610000D01*
X131850000Y-102620000D02*
X131850000Y-96750000D01*
D11*
%TO.C,U1e*%
X162650000Y-74250000D02*
X163650000Y-74250000D01*
X168650000Y-76750000D02*
X168650000Y-75750000D01*
X121850000Y-74480000D02*
X123410000Y-74480000D01*
X125020000Y-72940000D02*
X121850000Y-72940000D01*
X166150000Y-73250000D02*
X165150000Y-73250000D01*
X171950000Y-75750000D02*
X171950000Y-75050000D01*
X169650000Y-76750000D02*
X169650000Y-75750000D01*
X171950000Y-75750000D02*
X172950000Y-75750000D01*
X162650000Y-74250000D02*
X162650000Y-73250000D01*
X161150000Y-74250000D02*
X161150000Y-73250000D01*
X121875000Y-77020000D02*
X125045000Y-77020000D01*
X172950000Y-74750000D02*
X172850000Y-74750000D01*
X165150000Y-74250000D02*
X166150000Y-74250000D01*
X125020000Y-74450000D02*
X125020000Y-72940000D01*
X161150000Y-73250000D02*
X160150000Y-73250000D01*
X168650000Y-76750000D02*
X169650000Y-76750000D01*
X160150000Y-74250000D02*
X161150000Y-74250000D01*
X165150000Y-74250000D02*
X165150000Y-73250000D01*
X169650000Y-75750000D02*
X168650000Y-75750000D01*
X125020000Y-78005000D02*
X121850000Y-78005000D01*
X125045000Y-77020000D02*
X125045000Y-75480000D01*
X166150000Y-74250000D02*
X166150000Y-73250000D01*
X160150000Y-74250000D02*
X160150000Y-73250000D01*
X121850000Y-79545000D02*
X125020000Y-79545000D01*
X163650000Y-73250000D02*
X162650000Y-73250000D01*
D16*
X172390000Y-64570000D02*
X172390000Y-64570000D01*
D11*
X121875000Y-75480000D02*
X121875000Y-77020000D01*
X123410000Y-75480000D02*
X121875000Y-75480000D01*
X121850000Y-72940000D02*
X121850000Y-74480000D01*
D16*
X172390000Y-64670000D02*
X172390000Y-64670000D01*
D11*
X163650000Y-74250000D02*
X163650000Y-73250000D01*
X172950000Y-75750000D02*
X172950000Y-74750000D01*
D16*
X172390000Y-64570000D02*
X172390000Y-64570000D01*
D11*
X121850000Y-78005000D02*
X121850000Y-79545000D01*
X125020000Y-79515000D02*
X125020000Y-78005000D01*
D16*
X172390000Y-64570000D02*
G75*
G03*
X172390000Y-64670000I0J-50000D01*
G01*
X172390000Y-64670000D02*
G75*
G03*
X172390000Y-64570000I0J50000D01*
G01*
X172390000Y-64570000D02*
G75*
G03*
X172390000Y-64670000I0J-50000D01*
G01*
D13*
%TO.C,RN1*%
X90750000Y-100430000D02*
X91750000Y-100430000D01*
X90750000Y-97070000D02*
X91750000Y-97070000D01*
%TO.C,D4*%
X100090000Y-96865000D02*
X100090000Y-99725000D01*
X102010000Y-96865000D02*
X100090000Y-96865000D01*
X102010000Y-99725000D02*
X102010000Y-96865000D01*
D17*
%TO.C,J1*%
X151300000Y-96843250D02*
X166300000Y-96843250D01*
X166300000Y-96843250D02*
X166300000Y-102593250D01*
X151300000Y-102563250D02*
X151300000Y-96843250D01*
X166300000Y-100343250D02*
X162200000Y-100343250D01*
D13*
X154900000Y-100343250D02*
X151300000Y-100343250D01*
D14*
X151900000Y-98043250D02*
G75*
G03*
X151900000Y-98043250I-100000J0D01*
G01*
D13*
%TO.C,U2*%
X109330000Y-66939000D02*
X109330000Y-69352000D01*
X118250000Y-66450000D02*
X118250000Y-93750000D01*
X99551000Y-66939000D02*
X109330000Y-66939000D01*
X114372000Y-86345000D02*
X117712000Y-86370000D01*
X91272000Y-86345000D02*
X91272000Y-69745000D01*
X117712000Y-86370000D02*
X117712000Y-69733000D01*
X90850000Y-66450000D02*
X118250000Y-66450000D01*
X118250000Y-93750000D02*
X90850000Y-93750000D01*
X90850000Y-93750000D02*
X90850000Y-66450000D01*
X114372000Y-86345000D02*
X91272000Y-86345000D01*
X99551000Y-66939000D02*
X99551000Y-69352000D01*
X94650000Y-69745000D02*
X114372000Y-69745000D01*
X109330000Y-69352000D02*
X99551000Y-69352000D01*
%TO.C,J3*%
X104880000Y-100291500D02*
X104500000Y-100291500D01*
D17*
X104500000Y-96791500D02*
X113500000Y-96791500D01*
X113500000Y-96791500D02*
X113500000Y-102621500D01*
D13*
X113500000Y-100291500D02*
X113120000Y-100291500D01*
D17*
X104500000Y-96791500D02*
X104500000Y-102631500D01*
D16*
X105050000Y-98091500D02*
G75*
G03*
X105050000Y-98091500I-100000J0D01*
G01*
D13*
%TO.C,D1*%
X95335000Y-99725000D02*
X95335000Y-96865000D01*
X95335000Y-96865000D02*
X93415000Y-96865000D01*
X93415000Y-96865000D02*
X93415000Y-99725000D01*
D18*
%TO.C,U1*%
X172716228Y-69790000D02*
G75*
G03*
X172716228Y-69790000I-316228J0D01*
G01*
%TD*%
%LPC*%
D19*
%TO.C,D3*%
X98750000Y-97700000D03*
X98750000Y-99750000D03*
%TD*%
D20*
%TO.C,REF\u002A\u002A*%
X92533500Y-92500000D03*
%TD*%
D19*
%TO.C,D2*%
X96550000Y-97700000D03*
X96550000Y-99750000D03*
%TD*%
D20*
%TO.C,REF\u002A\u002A*%
X115783500Y-92525000D03*
%TD*%
%TO.C,REF\u002A\u002A*%
X147525000Y-96900000D03*
%TD*%
%TO.C,REF\u002A\u002A*%
X92533500Y-68175000D03*
%TD*%
D21*
%TO.C,J2*%
X133350000Y-98150000D03*
D22*
X134850000Y-98150000D03*
X136350000Y-98150000D03*
X137850000Y-98150000D03*
X139350000Y-98150000D03*
X140850000Y-98150000D03*
X142350000Y-98150000D03*
%TD*%
D23*
%TO.C,U1e*%
X172280000Y-66560000D03*
X169740000Y-66560000D03*
X167200000Y-66560000D03*
X164660000Y-66560000D03*
X162120000Y-66560000D03*
X159580000Y-66560000D03*
X157040000Y-66560000D03*
X154500000Y-66560000D03*
X151960000Y-66560000D03*
X149420000Y-66560000D03*
X146880000Y-66560000D03*
X144340000Y-66560000D03*
X141800000Y-66560000D03*
X139260000Y-66560000D03*
X136720000Y-66560000D03*
X134180000Y-66560000D03*
X131640000Y-66560000D03*
X129100000Y-66560000D03*
X126560000Y-66560000D03*
X124020000Y-66560000D03*
X124020000Y-85940000D03*
X126560000Y-85940000D03*
X129100000Y-85940000D03*
X131640000Y-85940000D03*
X134180000Y-85940000D03*
X136720000Y-85940000D03*
X139260000Y-85940000D03*
X141800000Y-85940000D03*
X144340000Y-85940000D03*
X146880000Y-85940000D03*
X149420000Y-85940000D03*
X151960000Y-85940000D03*
X154500000Y-85940000D03*
X157040000Y-85940000D03*
X159580000Y-85940000D03*
X162120000Y-85940000D03*
X164660000Y-85940000D03*
X167200000Y-85940000D03*
X169740000Y-85940000D03*
X172280000Y-85940000D03*
%TD*%
D24*
%TO.C,RN1*%
X92150000Y-99950000D03*
D25*
X92150000Y-99150000D03*
X92150000Y-98350000D03*
D24*
X92150000Y-97550000D03*
X90350000Y-97550000D03*
D25*
X90350000Y-98350000D03*
X90350000Y-99150000D03*
D24*
X90350000Y-99950000D03*
%TD*%
D19*
%TO.C,D4*%
X101050000Y-97700000D03*
X101050000Y-99750000D03*
%TD*%
D20*
%TO.C,REF\u002A\u002A*%
X167725000Y-78850000D03*
%TD*%
%TO.C,REF\u002A\u002A*%
X170400000Y-96925000D03*
%TD*%
D26*
%TO.C,J1*%
X152800000Y-98143250D03*
D27*
X154300000Y-98143250D03*
X155800000Y-98143250D03*
X157300000Y-98143250D03*
X158800000Y-98143250D03*
X160300000Y-98143250D03*
X161800000Y-98143250D03*
X163300000Y-98143250D03*
X164800000Y-98143250D03*
%TD*%
D28*
%TO.C,U2*%
X100630000Y-68150000D03*
X103170000Y-68150000D03*
X105710000Y-68150000D03*
X108250000Y-68150000D03*
%TD*%
D20*
%TO.C,REF\u002A\u002A*%
X115783500Y-68200000D03*
%TD*%
D29*
%TO.C,J3*%
X106000000Y-98091500D03*
D30*
X107500000Y-98091500D03*
X109000000Y-98091500D03*
X110500000Y-98091500D03*
X112000000Y-98091500D03*
%TD*%
D19*
%TO.C,D1*%
X94375000Y-97700000D03*
X94375000Y-99750000D03*
%TD*%
D31*
%TO.C,U1*%
X172330000Y-71500000D03*
X169790000Y-71500000D03*
X167250000Y-71500000D03*
X164710000Y-71500000D03*
X162170000Y-71500000D03*
X159630000Y-71500000D03*
X157090000Y-71500000D03*
X154550000Y-71500000D03*
X152010000Y-71500000D03*
X149470000Y-71500000D03*
X146930000Y-71500000D03*
X144390000Y-71500000D03*
X141850000Y-71500000D03*
X139310000Y-71500000D03*
X136770000Y-71500000D03*
X134230000Y-71500000D03*
X131690000Y-71500000D03*
X129150000Y-71500000D03*
X126610000Y-71500000D03*
X124070000Y-71500000D03*
X124070000Y-89280000D03*
X126610000Y-89280000D03*
X129150000Y-89280000D03*
X131690000Y-89280000D03*
X134230000Y-89280000D03*
X136770000Y-89280000D03*
X139310000Y-89280000D03*
X141850000Y-89280000D03*
X144390000Y-89280000D03*
X146930000Y-89280000D03*
X149470000Y-89280000D03*
X152010000Y-89280000D03*
X154550000Y-89280000D03*
X157090000Y-89280000D03*
X159630000Y-89280000D03*
X162170000Y-89280000D03*
X164710000Y-89280000D03*
X167250000Y-89280000D03*
X169790000Y-89280000D03*
X172330000Y-89280000D03*
%TD*%
M02*
