%TF.GenerationSoftware,KiCad,Pcbnew,(6.0.1)*%
%TF.CreationDate,2022-03-14T09:24:09-06:00*%
%TF.ProjectId,PicoFlasher_Breakout_Board_V1,5069636f-466c-4617-9368-65725f427265,rev?*%
%TF.SameCoordinates,Original*%
%TF.FileFunction,Soldermask,Top*%
%TF.FilePolarity,Negative*%
%FSLAX46Y46*%
G04 Gerber Fmt 4.6, Leading zero omitted, Abs format (unit mm)*
G04 Created by KiCad (PCBNEW (6.0.1)) date 2022-03-14 09:24:09*
%MOMM*%
%LPD*%
G01*
G04 APERTURE LIST*
G04 Aperture macros list*
%AMRoundRect*
0 Rectangle with rounded corners*
0 $1 Rounding radius*
0 $2 $3 $4 $5 $6 $7 $8 $9 X,Y pos of 4 corners*
0 Add a 4 corners polygon primitive as box body*
4,1,4,$2,$3,$4,$5,$6,$7,$8,$9,$2,$3,0*
0 Add four circle primitives for the rounded corners*
1,1,$1+$1,$2,$3*
1,1,$1+$1,$4,$5*
1,1,$1+$1,$6,$7*
1,1,$1+$1,$8,$9*
0 Add four rect primitives between the rounded corners*
20,1,$1+$1,$2,$3,$4,$5,0*
20,1,$1+$1,$4,$5,$6,$7,0*
20,1,$1+$1,$6,$7,$8,$9,0*
20,1,$1+$1,$8,$9,$2,$3,0*%
G04 Aperture macros list end*
%ADD10RoundRect,0.250000X-0.450000X0.325000X-0.450000X-0.325000X0.450000X-0.325000X0.450000X0.325000X0*%
%ADD11C,2.200000*%
%ADD12R,1.200000X1.200000*%
%ADD13C,1.200000*%
%ADD14R,1.600000X3.200000*%
%ADD15R,0.800000X0.500000*%
%ADD16R,0.800000X0.400000*%
%ADD17R,1.208000X1.208000*%
%ADD18C,1.208000*%
%ADD19O,1.600000X2.000000*%
%ADD20R,1.238000X1.238000*%
%ADD21C,1.238000*%
%ADD22C,1.600000*%
G04 APERTURE END LIST*
D10*
%TO.C,D3*%
X98750000Y-97700000D03*
X98750000Y-99750000D03*
%TD*%
D11*
%TO.C,REF\u002A\u002A*%
X92533500Y-92000000D03*
%TD*%
D10*
%TO.C,D2*%
X96550000Y-97700000D03*
X96550000Y-99750000D03*
%TD*%
D11*
%TO.C,REF\u002A\u002A*%
X115783500Y-92025000D03*
%TD*%
%TO.C,REF\u002A\u002A*%
X147525000Y-96900000D03*
%TD*%
%TO.C,REF\u002A\u002A*%
X92533500Y-68175000D03*
%TD*%
D12*
%TO.C,J2*%
X133350000Y-98150000D03*
D13*
X134850000Y-98150000D03*
X136350000Y-98150000D03*
X137850000Y-98150000D03*
X139350000Y-98150000D03*
X140850000Y-98150000D03*
X142350000Y-98150000D03*
%TD*%
D14*
%TO.C,U1e*%
X172280000Y-66560000D03*
X169740000Y-66560000D03*
X167200000Y-66560000D03*
X164660000Y-66560000D03*
X162120000Y-66560000D03*
X159580000Y-66560000D03*
X157040000Y-66560000D03*
X154500000Y-66560000D03*
X151960000Y-66560000D03*
X149420000Y-66560000D03*
X146880000Y-66560000D03*
X144340000Y-66560000D03*
X141800000Y-66560000D03*
X139260000Y-66560000D03*
X136720000Y-66560000D03*
X134180000Y-66560000D03*
X131640000Y-66560000D03*
X129100000Y-66560000D03*
X126560000Y-66560000D03*
X124020000Y-66560000D03*
X124020000Y-85940000D03*
X126560000Y-85940000D03*
X129100000Y-85940000D03*
X131640000Y-85940000D03*
X134180000Y-85940000D03*
X136720000Y-85940000D03*
X139260000Y-85940000D03*
X141800000Y-85940000D03*
X144340000Y-85940000D03*
X146880000Y-85940000D03*
X149420000Y-85940000D03*
X151960000Y-85940000D03*
X154500000Y-85940000D03*
X157040000Y-85940000D03*
X159580000Y-85940000D03*
X162120000Y-85940000D03*
X164660000Y-85940000D03*
X167200000Y-85940000D03*
X169740000Y-85940000D03*
X172280000Y-85940000D03*
%TD*%
D15*
%TO.C,RN1*%
X92150000Y-99950000D03*
D16*
X92150000Y-99150000D03*
X92150000Y-98350000D03*
D15*
X92150000Y-97550000D03*
X90350000Y-97550000D03*
D16*
X90350000Y-98350000D03*
X90350000Y-99150000D03*
D15*
X90350000Y-99950000D03*
%TD*%
D10*
%TO.C,D4*%
X101050000Y-97700000D03*
X101050000Y-99750000D03*
%TD*%
D11*
%TO.C,REF\u002A\u002A*%
X167725000Y-78850000D03*
%TD*%
%TO.C,REF\u002A\u002A*%
X170400000Y-96925000D03*
%TD*%
D17*
%TO.C,J1*%
X152800000Y-98143250D03*
D18*
X154300000Y-98143250D03*
X155800000Y-98143250D03*
X157300000Y-98143250D03*
X158800000Y-98143250D03*
X160300000Y-98143250D03*
X161800000Y-98143250D03*
X163300000Y-98143250D03*
X164800000Y-98143250D03*
%TD*%
D19*
%TO.C,U2*%
X100630000Y-68150000D03*
X103170000Y-68150000D03*
X105710000Y-68150000D03*
X108250000Y-68150000D03*
%TD*%
D11*
%TO.C,REF\u002A\u002A*%
X115783500Y-68200000D03*
%TD*%
D20*
%TO.C,J3*%
X106000000Y-98091500D03*
D21*
X107500000Y-98091500D03*
X109000000Y-98091500D03*
X110500000Y-98091500D03*
X112000000Y-98091500D03*
%TD*%
D10*
%TO.C,D1*%
X94375000Y-97700000D03*
X94375000Y-99750000D03*
%TD*%
D22*
%TO.C,U1*%
X172332000Y-71540000D03*
X169792000Y-71540000D03*
X167252000Y-71540000D03*
X164712000Y-71540000D03*
X162172000Y-71540000D03*
X159632000Y-71540000D03*
X157092000Y-71540000D03*
X154552000Y-71540000D03*
X152012000Y-71540000D03*
X149472000Y-71540000D03*
X146932000Y-71540000D03*
X144392000Y-71540000D03*
X141852000Y-71540000D03*
X139312000Y-71540000D03*
X136772000Y-71540000D03*
X134232000Y-71540000D03*
X131692000Y-71540000D03*
X129152000Y-71540000D03*
X126612000Y-71540000D03*
X124072000Y-71540000D03*
X124072000Y-90920000D03*
X126612000Y-90920000D03*
X129152000Y-90920000D03*
X131692000Y-90920000D03*
X134232000Y-90920000D03*
X136772000Y-90920000D03*
X139312000Y-90920000D03*
X141852000Y-90920000D03*
X144392000Y-90920000D03*
X146932000Y-90920000D03*
X149472000Y-90920000D03*
X152012000Y-90920000D03*
X154552000Y-90920000D03*
X157092000Y-90920000D03*
X159632000Y-90920000D03*
X162172000Y-90920000D03*
X164712000Y-90920000D03*
X167252000Y-90920000D03*
X169792000Y-90920000D03*
X172332000Y-90920000D03*
%TD*%
M02*
