M48
; DRILL file {KiCad (6.0.1)} date Sat Apr  2 11:09:13 2022
; FORMAT={-:-/ absolute / metric / decimal}
; #@! TF.CreationDate,2022-04-02T11:09:13-06:00
; #@! TF.GenerationSoftware,Kicad,Pcbnew,(6.0.1)
; #@! TF.FileFunction,Plated,1,2,PTH
FMAT,2
METRIC
; #@! TA.AperFunction,Plated,PTH,ViaDrill
T1C0.400
; #@! TA.AperFunction,Plated,PTH,ComponentDrill
T2C1.000
%
G90
G05
T1
X94.75Y-94.25
X104.8Y-100.7
X115.5Y-100.6
X122.7Y-82.4
X131.5Y-95.5
X133.3Y-100.8
X140.2Y-95.1
X141.75Y-75.65
X141.75Y-81.35
X144.8Y-94.5
X146.8Y-100.7
X152.3Y-80.15
X152.3Y-100.7
X167.8Y-100.8
T2
X100.63Y-68.15
X103.17Y-68.15
X105.71Y-68.15
X108.25Y-68.15
X124.07Y-71.5
X124.07Y-89.28
X126.61Y-71.5
X126.61Y-89.28
X129.15Y-71.5
X129.15Y-89.28
X131.69Y-71.5
X131.69Y-89.28
X134.23Y-71.5
X134.23Y-89.28
X136.77Y-71.5
X136.77Y-89.28
X139.31Y-71.5
X139.31Y-89.28
X141.85Y-71.5
X141.85Y-89.28
X144.39Y-71.5
X144.39Y-89.28
X146.93Y-71.5
X146.93Y-89.28
X149.47Y-71.5
X149.47Y-89.28
X152.01Y-71.5
X152.01Y-89.28
X154.55Y-71.5
X154.55Y-89.28
X157.09Y-71.5
X157.09Y-89.28
X159.63Y-71.5
X159.63Y-89.28
X162.17Y-71.5
X162.17Y-89.28
X164.71Y-71.5
X164.71Y-89.28
X167.25Y-71.5
X167.25Y-89.28
X169.79Y-71.5
X169.79Y-89.28
X172.33Y-71.5
X172.33Y-89.28
T0
M30
