M48
; DRILL file {KiCad (6.0.1)} date Mon Mar 14 09:24:15 2022
; FORMAT={-:-/ absolute / metric / decimal}
; #@! TF.CreationDate,2022-03-14T09:24:15-06:00
; #@! TF.GenerationSoftware,Kicad,Pcbnew,(6.0.1)
; #@! TF.FileFunction,Plated,1,2,PTH
FMAT,2
METRIC
; #@! TA.AperFunction,Plated,PTH,ViaDrill
T1C0.400
; #@! TA.AperFunction,Plated,PTH,ComponentDrill
T2C0.700
; #@! TA.AperFunction,Plated,PTH,ComponentDrill
T3C0.730
; #@! TA.AperFunction,Plated,PTH,ComponentDrill
T4C1.000
%
G90
G05
T1
X94.75Y-94.25
X141.75Y-75.65
X141.75Y-81.35
X152.3Y-80.15
X173.975Y-86.875
T2
X133.35Y-98.15
X134.85Y-98.15
X136.35Y-98.15
X137.85Y-98.15
X139.35Y-98.15
X140.85Y-98.15
X142.35Y-98.15
X152.8Y-98.143
X154.3Y-98.143
X155.8Y-98.143
X157.3Y-98.143
X158.8Y-98.143
X160.3Y-98.143
X161.8Y-98.143
X163.3Y-98.143
X164.8Y-98.143
T3
X106.0Y-98.091
X107.5Y-98.091
X109.0Y-98.091
X110.5Y-98.091
X112.0Y-98.091
T4
X100.63Y-68.15
X103.17Y-68.15
X105.71Y-68.15
X108.25Y-68.15
X124.072Y-71.54
X124.072Y-90.92
X126.612Y-71.54
X126.612Y-90.92
X129.152Y-71.54
X129.152Y-90.92
X131.692Y-71.54
X131.692Y-90.92
X134.232Y-71.54
X134.232Y-90.92
X136.772Y-71.54
X136.772Y-90.92
X139.312Y-71.54
X139.312Y-90.92
X141.852Y-71.54
X141.852Y-90.92
X144.392Y-71.54
X144.392Y-90.92
X146.932Y-71.54
X146.932Y-90.92
X149.472Y-71.54
X149.472Y-90.92
X152.012Y-71.54
X152.012Y-90.92
X154.552Y-71.54
X154.552Y-90.92
X157.092Y-71.54
X157.092Y-90.92
X159.632Y-71.54
X159.632Y-90.92
X162.172Y-71.54
X162.172Y-90.92
X164.712Y-71.54
X164.712Y-90.92
X167.252Y-71.54
X167.252Y-90.92
X169.792Y-71.54
X169.792Y-90.92
X172.332Y-71.54
X172.332Y-90.92
T0
M30
