%TF.GenerationSoftware,KiCad,Pcbnew,(6.0.1)*%
%TF.CreationDate,2022-04-02T11:09:09-06:00*%
%TF.ProjectId,PicoFlasher_Breakout_Board_V1.3_SMD,5069636f-466c-4617-9368-65725f427265,rev?*%
%TF.SameCoordinates,Original*%
%TF.FileFunction,Soldermask,Bot*%
%TF.FilePolarity,Negative*%
%FSLAX46Y46*%
G04 Gerber Fmt 4.6, Leading zero omitted, Abs format (unit mm)*
G04 Created by KiCad (PCBNEW (6.0.1)) date 2022-04-02 11:09:09*
%MOMM*%
%LPD*%
G01*
G04 APERTURE LIST*
%ADD10C,2.200000*%
%ADD11O,1.600000X2.000000*%
%ADD12C,1.800000*%
G04 APERTURE END LIST*
D10*
%TO.C,REF\u002A\u002A*%
X92500000Y-92250000D03*
%TD*%
%TO.C,REF\u002A\u002A*%
X115783500Y-92250000D03*
%TD*%
%TO.C,REF\u002A\u002A*%
X147525000Y-96900000D03*
%TD*%
%TO.C,REF\u002A\u002A*%
X92533500Y-68175000D03*
%TD*%
%TO.C,REF\u002A\u002A*%
X167725000Y-78850000D03*
%TD*%
%TO.C,REF\u002A\u002A*%
X170400000Y-96925000D03*
%TD*%
D11*
%TO.C,U2*%
X100630000Y-68150000D03*
X103170000Y-68150000D03*
X105710000Y-68150000D03*
X108250000Y-68150000D03*
%TD*%
D10*
%TO.C,REF\u002A\u002A*%
X115783500Y-68200000D03*
%TD*%
D12*
%TO.C,U1*%
X172330000Y-71500000D03*
X169790000Y-71500000D03*
X167250000Y-71500000D03*
X164710000Y-71500000D03*
X162170000Y-71500000D03*
X159630000Y-71500000D03*
X157090000Y-71500000D03*
X154550000Y-71500000D03*
X152010000Y-71500000D03*
X149470000Y-71500000D03*
X146930000Y-71500000D03*
X144390000Y-71500000D03*
X141850000Y-71500000D03*
X139310000Y-71500000D03*
X136770000Y-71500000D03*
X134230000Y-71500000D03*
X131690000Y-71500000D03*
X129150000Y-71500000D03*
X126610000Y-71500000D03*
X124070000Y-71500000D03*
X124070000Y-89280000D03*
X126610000Y-89280000D03*
X129150000Y-89280000D03*
X131690000Y-89280000D03*
X134230000Y-89280000D03*
X136770000Y-89280000D03*
X139310000Y-89280000D03*
X141850000Y-89280000D03*
X144390000Y-89280000D03*
X146930000Y-89280000D03*
X149470000Y-89280000D03*
X152010000Y-89280000D03*
X154550000Y-89280000D03*
X157090000Y-89280000D03*
X159630000Y-89280000D03*
X162170000Y-89280000D03*
X164710000Y-89280000D03*
X167250000Y-89280000D03*
X169790000Y-89280000D03*
X172330000Y-89280000D03*
%TD*%
M02*
